<svg id="Layer_1" data-name="Layer 1" xmlns="http://www.w3.org/2000/svg" xmlns:xlink="http://www.w3.org/1999/xlink" viewBox="0 0 2000 2000"><defs><style>.cls-1{mask:url(#mask);filter:url(#luminosity-noclip-2);}.cls-2,.cls-6{mix-blend-mode:multiply;}.cls-2{fill:url(#linear-gradient);}.cls-3{mask:url(#mask-2);}.cls-4{fill:url(#linear-gradient-2);}.cls-5{mask:url(#mask-3);filter:url(#luminosity-noclip-4);}.cls-6{fill:url(#linear-gradient-3);}.cls-7{mask:url(#mask-4);}.cls-8{fill:url(#linear-gradient-4);}.cls-9{fill:url(#linear-gradient-5);}.cls-10{fill:url(#linear-gradient-6);}.cls-11{opacity:0.5;fill:url(#linear-gradient-7);}.cls-12{fill:url(#linear-gradient-8);}.cls-13{fill:#ff8d44;}.cls-14{fill:#ff4858;}.cls-15{fill:#ff724c;}.cls-16{fill:#ff325f;}.cls-17{fill:#ff8f44;}.cls-18{fill:#ff5256;}.cls-19{fill:#ff9642;}.cls-20{fill:#ff7c49;}.cls-21{mask:url(#mask-5);}.cls-22{fill:#bde9ff;}.cls-23{fill:url(#linear-gradient-9);}.cls-24{fill:url(#linear-gradient-10);}.cls-25{fill:#183174;}.cls-26{fill:#3b56d5;}.cls-27{fill:#7289ff;}.cls-28{fill:#314bc7;}.cls-29,.cls-41{fill:#fff;}.cls-30{mask:url(#mask-6);}.cls-31{fill:#fbdc72;}.cls-32{fill:#85146c;}.cls-33{fill:url(#linear-gradient-11);}.cls-34{fill:url(#linear-gradient-12);}.cls-35{fill:#a1d5ff;}.cls-36{fill:#ff2d86;}.cls-37{fill:url(#linear-gradient-13);}.cls-38{fill:url(#linear-gradient-14);}.cls-39{fill:url(#linear-gradient-15);}.cls-40{fill:url(#linear-gradient-16);}.cls-41{fill-opacity:0.35;}.cls-42,.cls-43,.cls-45,.cls-75{fill:none;}.cls-42{stroke:#582cdb;}.cls-42,.cls-45{stroke-linecap:round;stroke-linejoin:round;}.cls-42,.cls-43,.cls-45{stroke-opacity:0.1;stroke-width:16px;}.cls-43{stroke:#0b2ea4;}.cls-44{fill:#7222e9;}.cls-44,.cls-46{fill-opacity:0.1;}.cls-45{stroke:#162c95;}.cls-46,.cls-52{fill:#162c95;}.cls-47{fill:#bf1f5f;}.cls-48{fill:#a79bff;}.cls-49{fill:#998afa;}.cls-50{fill:#c5bbff;}.cls-51{fill:#1932ad;}.cls-53{fill:#5d7bff;}.cls-54{fill:url(#linear-gradient-17);}.cls-55{fill:#ffcc76;}.cls-56{fill:#f7e86e;}.cls-57{fill:#ffc0d1;}.cls-58{fill:#f49fbc;}.cls-59{fill:#dfd7ff;}.cls-60{fill:#a4a9eb;}.cls-61{fill:#cfd2ff;}.cls-62{fill:#e9eaff;}.cls-63{fill:#eae5ff;}.cls-64{fill:#f6f6ff;}.cls-65{fill:#7356ff;}.cls-66{fill:#470b3c;}.cls-67{fill:#300628;}.cls-68{fill:#30092b;}.cls-69{fill:#392ca2;}.cls-70{fill:#4f29c2;}.cls-71{fill:#1b378c;}.cls-72{fill:#3251ad;}.cls-73{fill:#7738f0;}.cls-74{fill:#92173c;}.cls-76{filter:url(#luminosity-noclip-3);}.cls-77{filter:url(#luminosity-noclip);}</style><filter id="luminosity-noclip" x="407.54" y="-9026.38" width="622" height="32766" filterUnits="userSpaceOnUse" color-interpolation-filters="sRGB"><feFlood flood-color="#fff" result="bg"/><feBlend in="SourceGraphic" in2="bg"/></filter><mask id="mask" x="407.54" y="-9026.38" width="622" height="32766" maskUnits="userSpaceOnUse"><g class="cls-77"/></mask><linearGradient id="linear-gradient" x1="-161.31" y1="1834.8" x2="209.85" y2="1725.13" gradientTransform="matrix(1, 0, 0, -1, 694, 2274.77)" gradientUnits="userSpaceOnUse"><stop offset="0" stop-color="#fff"/><stop offset="1"/></linearGradient><filter id="luminosity-noclip-2" x="407.54" y="322.38" width="622" height="345" filterUnits="userSpaceOnUse" color-interpolation-filters="sRGB"><feFlood flood-color="#fff" result="bg"/><feBlend in="SourceGraphic" in2="bg"/></filter><mask id="mask-2" x="407.54" y="322.38" width="622" height="345" maskUnits="userSpaceOnUse"><g class="cls-1"><rect class="cls-2" x="407.54" y="322.38" width="622" height="345"/></g></mask><linearGradient id="linear-gradient-2" x1="-161.31" y1="1834.8" x2="209.85" y2="1725.13" gradientTransform="matrix(1, 0, 0, -1, 694, 2274.77)" gradientUnits="userSpaceOnUse"><stop offset="0" stop-color="#fff"/><stop offset="1" stop-color="#fff"/></linearGradient><filter id="luminosity-noclip-3" x="798.54" y="-9026.38" width="440" height="32766" filterUnits="userSpaceOnUse" color-interpolation-filters="sRGB"><feFlood flood-color="#fff" result="bg"/><feBlend in="SourceGraphic" in2="bg"/></filter><mask id="mask-3" x="798.54" y="-9026.38" width="440" height="32766" maskUnits="userSpaceOnUse"><g class="cls-76"/></mask><linearGradient id="linear-gradient-3" x1="500.11" y1="1946.16" x2="148.73" y2="1670.42" xlink:href="#linear-gradient"/><filter id="luminosity-noclip-4" x="798.54" y="268.38" width="440" height="396" filterUnits="userSpaceOnUse" color-interpolation-filters="sRGB"><feFlood flood-color="#fff" result="bg"/><feBlend in="SourceGraphic" in2="bg"/></filter><mask id="mask-4" x="798.54" y="268.38" width="440" height="396" maskUnits="userSpaceOnUse"><g class="cls-5"><rect class="cls-6" x="798.54" y="268.38" width="440" height="396"/></g></mask><linearGradient id="linear-gradient-4" x1="500.11" y1="1946.16" x2="148.73" y2="1670.42" xlink:href="#linear-gradient-2"/><linearGradient id="linear-gradient-5" x1="421.31" y1="2299.89" x2="-80.44" y2="687.71" gradientTransform="matrix(1, 0, 0, -1, 694, 2274.77)" gradientUnits="userSpaceOnUse"><stop offset="0" stop-color="#ff92e2"/><stop offset="0.47" stop-color="#ff16ab"/><stop offset="1" stop-color="#ba30f3"/></linearGradient><linearGradient id="linear-gradient-6" x1="545.44" y1="2218.15" x2="2.62" y2="681.65" xlink:href="#linear-gradient-5"/><linearGradient id="linear-gradient-7" x1="320.17" y1="1720.15" x2="45.01" y2="880.08" gradientTransform="matrix(1, 0, 0, -1, 694, 2274.77)" gradientUnits="userSpaceOnUse"><stop offset="0" stop-color="#f088d4"/><stop offset="0.47" stop-color="#f0139f"/><stop offset="1" stop-color="#ae2be4"/></linearGradient><linearGradient id="linear-gradient-8" x1="-426.34" y1="982.83" x2="-372.64" y2="772.93" gradientTransform="matrix(1, 0, 0, -1, 694, 2274.77)" gradientUnits="userSpaceOnUse"><stop offset="0" stop-color="#ff9642"/><stop offset="1" stop-color="#ff1468"/></linearGradient><mask id="mask-5" x="558" y="488" width="622" height="345" maskUnits="userSpaceOnUse"><g transform="translate(150.46 165.62)"><g id="id0"><g class="cls-3"><rect class="cls-4" x="407.54" y="322.38" width="622" height="345"/></g></g></g></mask><linearGradient id="linear-gradient-9" x1="155.83" y1="189.13" x2="300.49" y2="39.13" gradientUnits="userSpaceOnUse"><stop offset="0" stop-color="#9e1a99"/><stop offset="1" stop-color="#ff2d86"/></linearGradient><linearGradient id="linear-gradient-10" x1="-546.82" y1="2071.47" x2="-431.34" y2="2201.99" gradientTransform="matrix(1, 0, 0, -1, 694, 2274.77)" xlink:href="#linear-gradient-9"/><mask id="mask-6" x="949" y="434" width="440" height="396" maskUnits="userSpaceOnUse"><g transform="translate(150.46 165.62)"><g id="id2"><g class="cls-7"><rect class="cls-8" x="798.54" y="268.38" width="440" height="396"/></g></g></g></mask><linearGradient id="linear-gradient-11" x1="1220.54" y1="397.38" x2="1232.54" y2="397.38" gradientUnits="userSpaceOnUse"><stop offset="0" stop-color="#ca2291"/><stop offset="1" stop-color="#ff2d86"/></linearGradient><linearGradient id="linear-gradient-12" x1="472.6" y1="1913.16" x2="621.54" y2="2029.11" gradientTransform="matrix(1, 0, 0, -1, 694, 2274.77)" xlink:href="#linear-gradient-11"/><linearGradient id="linear-gradient-13" x1="808.34" y1="948.65" x2="1027.57" y2="1052.41" gradientTransform="matrix(1, 0, 0, -1, 694, 2274.77)" gradientUnits="userSpaceOnUse"><stop offset="0" stop-color="#6926ec"/><stop offset="1" stop-color="#ca39d9"/></linearGradient><linearGradient id="linear-gradient-14" x1="730.27" y1="966.47" x2="999.49" y2="1019.08" xlink:href="#linear-gradient-13"/><linearGradient id="linear-gradient-15" x1="52.76" y1="1948.7" x2="75.51" y2="2058.31" gradientTransform="matrix(1, 0, 0, -1, 694, 2274.77)" gradientUnits="userSpaceOnUse"><stop offset="0" stop-color="#7022e9"/><stop offset="1" stop-color="#ea35d6"/></linearGradient><linearGradient id="linear-gradient-16" x1="63.87" y1="1944.23" x2="90.3" y2="2119.98" xlink:href="#linear-gradient-15"/><linearGradient id="linear-gradient-17" x1="497.11" y1="1427.04" x2="487.88" y2="1455.23" gradientTransform="matrix(1, 0, 0, -1, 694, 2274.77)" gradientUnits="userSpaceOnUse"><stop offset="0" stop-color="#f49fbc"/><stop offset="1" stop-color="#ffc0d1"/></linearGradient></defs><path class="cls-9" d="M693.54,128.38c-135-37-327-110-465-10-241,174-21,328-154,658s-57,639,362,717,609-205,885-147,402-170,328-464c-74-295,164-416,74-648-54-138-246-237-440-222-478,38-27,268-589,116Zm165-81,103,37c5-13,4-28-2-42-21-44-85-41-101,5-5,13-4,28,2,42C881.54,133.38,945.54,130.38,961.54,84.38Zm-44-40-29,14c6-12,17-18,29-14,12,5,18,19,14,29C918.54,102.38,879.54,84.38,888.54,58.38Z" transform="translate(150.46 165.62)"/><path class="cls-10" d="M52.71,1233.55c70.83,160.5,228.57,237.62,379.83,262.83,200.54,37.34,377-18.13,560.83-92.2,71.34-28.75,148.71-60.59,226.17-65.8,55.69-3.74,121.58,10.5,176.5,10.5,55.26,0,126.22-9,174-45,38.5-29,79.5-75.91,79.5-128.5-56.84,0-395.38,35.3-378.24-65.75,7.68-45.28,46.34-85.91,76-118.33C1401.87,931.72,1463,878.13,1524,825.37c30.81-26.64,61.88-53,93-79.27,30-25.4,26.39-73.11,37.84-110.82,21.67-71.42,57.09-137.84,76.74-209.9-34.2,43.7-110,99.52-162.45,49.11-40.75-39.13-13.89-107.09,10.69-146.83,25.61-41.42,118.76-105,118.76-139.28-12.28-12.28-21.46-28.45-34-41-75.6-75.59-174.68-109.78-278-127-46.81-6-71.93-8.59-111,17.75-80,53.92-140.83,128.5-175.21,218.82-57.52,151.14-20.62,303.23-46.82,457.37-27.27,160.42-207.63,203.19-313.66,304-39.19,37.28-75,78.65-104.43,124.12-7,10.76-13.64,35.92-27.6,35.92H31.54C30.58,1174.3,36.46,1205.8,52.71,1233.55Z" transform="translate(150.46 165.62)"/><path class="cls-11" d="M14.54,1048.38c-3,216,121,391,421,446,419,78,609-205,885-147,241,51,368-117,346-356-28,14-56,37-73,74-43,93-132,83-132,83h-1256c-80,0-84-12-107-57-13-25-52-38-85-43Z" transform="translate(150.46 165.62)"/><path class="cls-12" d="M322.54,1263.38c-65-17-132,21-150,86-17,65,21,132,86,150,65,17,132-21,150-86C425.54,1348.38,387.54,1281.38,322.54,1263.38Z" transform="translate(150.46 165.62)"/><path class="cls-13" d="M299.94,1343.59a29.88,29.88,0,1,0,21.13,36.6A29.88,29.88,0,0,0,299.94,1343.59Z" transform="translate(150.46 165.62)"/><path class="cls-14" d="M300.54,1351.38c-16-4-32,5-36,21a24.85,24.85,0,0,0-1,8,37.88,37.88,0,0,1,0-15c4-16,20-25,36-21,13,3,21,15,22,27C318.54,1361.38,311.54,1353.38,300.54,1351.38Z" transform="translate(150.46 165.62)"/><path class="cls-15" d="M247.77,1426.08a18.46,18.46,0,1,0,13,22.61A18.46,18.46,0,0,0,247.77,1426.08Z" transform="translate(150.46 165.62)"/><path class="cls-16" d="M248.54,1430.38a17.12,17.12,0,0,0-22,13c0,2-1,3-1,5-1-3-1-6,0-10,3-10,12-15,22-13a17.14,17.14,0,0,1,13,17c-2-6-6-11-13-13Z" transform="translate(150.46 165.62)"/><path class="cls-15" d="M360.62,1372.85a18.46,18.46,0,1,0,22.61,13.06A18.46,18.46,0,0,0,360.62,1372.85Z" transform="translate(150.46 165.62)"/><path class="cls-16" d="M363.54,1376.38c-10,3-15,12-13,22,0,2,1,3,2,5a21.77,21.77,0,0,1-5-8,17.12,17.12,0,0,1,13-22c8-2,16,1,20,8C376.54,1377.38,369.54,1375.38,363.54,1376.38Z" transform="translate(150.46 165.62)"/><path class="cls-17" d="M211.39,1351a18.49,18.49,0,1,0,13.08,22.65A18.48,18.48,0,0,0,211.39,1351Z" transform="translate(150.46 165.62)"/><path class="cls-18" d="M211.54,1355.38a17.12,17.12,0,0,0-22,13c0,2-1,3-1,5-1-3-1-6,0-10a18.76,18.76,0,0,1,22-13,17.14,17.14,0,0,1,13,17c-2-6-6-11-13-13Z" transform="translate(150.46 165.62)"/><path class="cls-19" d="M290.17,1267.88A23.85,23.85,0,1,0,307,1297.09,23.84,23.84,0,0,0,290.17,1267.88Z" transform="translate(150.46 165.62)"/><path class="cls-20" d="M290.54,1274.38a24.7,24.7,0,0,0-29,16c-1,2-1,4-1,7a24.38,24.38,0,0,1,0-12,22.93,22.93,0,0,1,29-16c10,3,17,12,17,22a21.7,21.7,0,0,0-16-16Z" transform="translate(150.46 165.62)"/><g class="cls-21"><path class="cls-22" d="M416.54,342.38l-8-18c260-7,477,114,619,329l-84,13c-145-152-267-245-486-228Z" transform="translate(150.46 165.62)"/></g><path class="cls-23" d="M165.54,33.38c-54,25-78,89-53,144,25,54,89,78,144,53,54-25,78-89,53-144C284.54,32.38,220.54,8.38,165.54,33.38Z" transform="translate(150.46 165.62)"/><path class="cls-24" d="M165.54,33.38c-54,25-78,89-53,144,6,14,15,25,25,35h0c4,3,8.44,6.07,12.44,9.07-40-58-9.44-94.07,33.56-142.07,18-21,20-41,18-55h-5c2,13,0,32-17,52-41,46-72,81-43,134-59-80-7-100,29-144,15-18,10-29,5-35-2,1-4,2-6,2Zm42.88,206.25c2,0,3.87.09,5.87.09-12-11-22.75-25.34-19.75-45.34,8-41,42-38,78-83,14-18,18-35,18-51l-5-5c3,43-30,71-60,91-18,12-31,21-36,47-4,20,5.67,35.34,16.67,46.34Zm68.12-21.25c2-1,3-2,5-4,0-11,4-24,19-38,7-6,12-15,17-24a122.52,122.52,0,0,0,2-19c-4,15-11,29-22,39-18,17-22,33-21,45ZM161.17,227c10,5,21.91,9.72,32.91,11.72-12-12-21.54-27.29-19.54-47.29,6-59,63-52,88-110,7-17,6-31,0-43a107.57,107.57,0,0,0-53-14c8,9,12,22,6,41-13,39-70,51-65,123,1,17,4.63,25.88,8.63,36.88Zm64.37,12.43a86,86,0,0,0,30-9l12-6c-28-29,50-78,42-135,0-1-1-1-1-2-5-10-10-19-17-26,13,23,10,50-11,74-36,40-68,35-70,72-1,19,4.92,25.67,12.92,30.67Z" transform="translate(150.46 165.62)"/><path class="cls-25" d="M461.54,442.38s-22,4-22,5c-1,1-1,4-1,4s-21,3-23,4a12.38,12.38,0,0,0-3,2s3,2,5,2,22-3,22-3,1,3,3,3,30-5,30-6c0,0,2-3,1-6s-11-4-11-4Z" transform="translate(150.46 165.62)"/><path class="cls-26" d="M448.25,445.34c-4,1-7,2-8,2h0l3,3a7.74,7.74,0,0,1,1,3l10-2Z" transform="translate(150.46 165.62)"/><path class="cls-26" d="M380.54,351.38l-13-4a22.69,22.69,0,0,1-4,1c-1,0-54,6-54,6l-2-3s-14,2-20,4-8,2-8,3,4,9,6,9,29,6,31,5a3.7,3.7,0,0,0,3-2l74,4s7,5,8,5a43.31,43.31,0,0,1,5,1,9,9,0,0,0-4,9c1,6,6,10,8,10,3,0,14-1,14-1l7,14s1,3,3,3c1,1,4,1,4,1l15,30s1,3,3,2c2,0,14-3,14-3s2,0,1-3c0-3-17-54-17-54l30,18a10.34,10.34,0,0,0,4,1c2,0,14-3,14-3v-3l-31-25-4-12a4.38,4.38,0,0,0-3-1h-7a23.13,23.13,0,0,0-2-9,7.1,7.1,0,0,0-6-4l-12-13-11-1a13.83,13.83,0,0,0,2-10c-1-6-5-7-5-7h-4l-39-41-19-1a3.49,3.49,0,0,0-1,2c0,1,29,45,29,45a22.69,22.69,0,0,0-1,4v2l-26-13h-21l-1,3s-8-1-9,0c-1,0-1,3-1,3h-28a3.49,3.49,0,0,0-2,1v2s2,2,3,2h27s0,3,2,3,31,1,31,1l17,10v9Z" transform="translate(150.46 165.62)"/><path class="cls-25" d="M457.48,367.51v-3l-22,2a13.38,13.38,0,0,0-1-5c-2-5-18-12-19,8l.94,3.31,3.06.69,9,5h3s6-8,7-8l22-2Z" transform="translate(150.46 165.62)"/><path class="cls-25" d="M425.87,322.47a4,4,0,0,0-2.33-2h-28s-12-10-14-11c-1-1-20-32-20-32a3.49,3.49,0,0,0-1,2c0,1,29,45,29,45a22.69,22.69,0,0,0-1,4v2l-8-4,7,13,12,2s1-3,2-4c0-1,6-1,6-1a13.05,13.05,0,0,0,1-8c-1-5-3-6-3-6l19.42,0Z" transform="translate(150.46 165.62)"/><path class="cls-25" d="M312.54,354.38h-4a54.36,54.36,0,0,1,4,8l-31,2a21.81,21.81,0,0,0,4,5c2,0,29,6,31,5a3.7,3.7,0,0,0,3-2l74,4s7,5,8,5a9.78,9.78,0,0,1,2.38.44s-2.38,3.56-1.38,9.56,6,10,8,10c3,0,14-1,14-1l7,14s1,3,3,3c1,1,4,1,4,1l15,30a3.7,3.7,0,0,0,3,2l-36-75h2l5,4s3,0,7,4c4,3,3,9,3,9l26,26c-4-13-8-27-8-27l-8-6-18-9s-8,0-11-5a12.07,12.07,0,0,1-1-10s-1,0-2,5,2,10,2,10-12,0-15-1c-2,0-8-5-8-5l1-4h-76c-1,0-1-1-3-5a61.31,61.31,0,0,0-5-8Z" transform="translate(150.46 165.62)"/><path class="cls-25" d="M341.55,321.37h-5s5,2,7,3a17.27,17.27,0,0,1,3,4h-10s1-3,0-5-4-2-4-2a4.94,4.94,0,0,0-1,3h2a3.49,3.49,0,0,1,1,2c0,2-1,2-2,2h-2s0,3,2,3,31,1,31,1l-22-12Z" transform="translate(150.46 165.62)"/><polygon class="cls-25" points="552.81 509.75 541.81 506.75 518.81 512.75 523.81 524.75 551.81 530.75 559.81 520.75 552.81 509.75"/><polygon class="cls-27" points="522 514 526 522 548 518 542 509 522 514"/><polygon class="cls-27" points="549 521 549 529 528 524 549 521"/><polygon class="cls-27" points="552 521 552 527 557 521 552 521"/><path class="cls-28" d="M428.58,361.15c2.38.45,3.88,4.14,3.35,8.25s-2.87,7.07-5.25,6.62-3.88-4.13-3.35-8.24S426.21,360.71,428.58,361.15Z" transform="translate(150.46 165.62)"/><path class="cls-28" d="M399,323.61c2,.37,3.26,3.48,2.82,6.93s-2.42,5.95-4.42,5.57-3.26-3.48-2.82-6.93S397,323.23,399,323.61Z" transform="translate(150.46 165.62)"/><path class="cls-29" d="M397.54,456.38a2,2,0,1,1,0,4l-12,2a2,2,0,0,1,0-4Zm-23,4a2,2,0,1,1,0,4l-32,5a2,2,0,0,1,0-4Zm-54,9a2,2,0,1,1,0,4l-20,3a2,2,0,0,1,0-4Zm-33,5a2,2,0,1,1,0,4l-33,6a2,2,0,1,1,0-4Zm-45,8a2,2,0,0,1,0,4l-92,15a2,2,0,1,1,0-4Z" transform="translate(150.46 165.62)"/><path class="cls-29" d="M286.54,327.38a2,2,0,1,1,0,4l-14,1a2,2,0,0,1,0-4Zm-32,2a2,2,0,1,1,0,4l-24,1a2,2,0,1,1,0-4Zm-36,2a2,2,0,0,1,0,4l-93,4a2,2,0,0,1,0-4Z" transform="translate(150.46 165.62)"/><g class="cls-30"><path class="cls-31" d="M1230.54,294.38l7-25c-260,27-404,123-438,394l76-4s-19-74,74-176,264-116,264-116l18-73Z" transform="translate(150.46 165.62)"/></g><path class="cls-32" d="M1209.54,394.38s22-2,23-1c1,0,2,3,2,3s21-2,23-2a10.34,10.34,0,0,1,4,1,18.66,18.66,0,0,1-4,3c-2,0-22,3-22,3s0,3-2,4-30,3-30,2a7.5,7.5,0,0,1-3-6c0-3,10-7,10-7Z" transform="translate(150.46 165.62)"/><path class="cls-33" d="M1224.54,393.38h8c-1,1-1,2-2,4v3l-10,1,4-7Z" transform="translate(150.46 165.62)"/><path class="cls-34" d="M1263.54,285.38l12-7h4c1,0,54-8,54-8l2-3s14-1,21-1,8,0,8,1-2,10-4,11-27,13-29,13a10.34,10.34,0,0,1-4-1l-70,23s-6,6-6,7c-1,0-5,2-5,2a10.67,10.67,0,0,1,6,8c1,6-3,11-5,12-3,1-14,3-14,3l-3,15s-1,3-2,4a14.39,14.39,0,0,1-3,2l-7,33a2.94,2.94,0,0,1-3,3c-2,0-14,1-14,1s-2,0-2-3,2-56,2-56l-24,25s-2,2-4,2-14,1-14,1l-1-2,24-32,1-13s0-1,2-2,7-1,7-1-2-5,0-9c1-4,5-6,5-6l8-16,10-3a11.6,11.6,0,0,1-4-9c0-6,3-8,3-8l4-1,27-50,18-6s2,1,2,2-17,51-17,51,2,2,2,4a3.1,3.1,0,0,1,1,2l21-19s19-6,20-6l2,3s8-3,9-3,2,2,2,2,26-7,27-7a3.49,3.49,0,0,1,2,1l1,2s-1,2-2,2-26,7-26,7,1,3-1,4-29,9-29,9l-14,14,1,3Z" transform="translate(150.46 165.62)"/><path class="cls-32" d="M1192.54,322.38a7.74,7.74,0,0,0-1-3l22-4a17.28,17.28,0,0,1,.75-6.08c4.08-8.17,18.08-11.83,22.17,2.75l-2.25,4.08-2.67,1.25-7,7-3,1-8-6-22,3Z" transform="translate(150.46 165.62)"/><path class="cls-32" d="M1211.81,276.41a9.15,9.15,0,0,1,2.53-5.12l4.26-1,24-6s9-13,10-14,11-36,11-36,2,1,2,2-17,51-17,51,2,2,2,4a3.1,3.1,0,0,1,1,2l7-6.3-3,15.3-11,5-2-3-6,1a12,12,0,0,1-3-8c0-5,1-7,1-7l-22,6Z" transform="translate(150.46 165.62)"/><path class="cls-32" d="M1331.06,271.8l2.86-.42c-2,3-1,9-1,9l31-7c-1,2-2,5-3,5-2,1-27,13-29,13a10.34,10.34,0,0,1-4-1l-70,23s-6,6-6,7c-1,0-5,2-5,2a10.67,10.67,0,0,1,6,8c1,6-3,11-5,12-3,1-14,3-14,3l-3,15s-1,3-2,4a14.39,14.39,0,0,1-3,2l-7,33s0,3-2,3l15-82h-2l-3,5s-3,1-6,5-1,9-1,9l-18,32c1-14,1-28,1-28l6-8,15-14s8-2,9-7a17.52,17.52,0,0,0-1-10s1-1,4,4a19.57,19.57,0,0,1,1,10s12-4,14-5,6-7,6-7l-2-4s72-20,73-20,1-2,2-6S1331.06,271.8,1331.06,271.8Z" transform="translate(150.46 165.62)"/><path class="cls-32" d="M1294.52,251.41s1.69-.57,3.94-1.44c0,0-3.94,3.44-5.94,5.44l-2,4,10-3s-2-3-1-5a7,7,0,0,1,4-3c1,0,2,2,2,2a3,3,0,0,0-2.35,3.35,2.29,2.29,0,0,0,2.16,2.12,7,7,0,0,0,2.21-.5s1.42,2.79-.58,3.79-29.42,9.21-29.42,9.21Z" transform="translate(150.46 165.62)"/><polygon class="cls-32" points="1392 450 1402 444 1426 444 1424 456 1398 470 1388 462 1392 450"/><path class="cls-35" d="M1243.54,294.38l2,6-6-5Zm27-15-2,9-22,2,4-11Zm-24,14,2,8,20-10-22,3Z" transform="translate(150.46 165.62)"/><path class="cls-36" d="M1219.68,307.37c-2.18,1.05-2.68,5-1.11,8.83s4.61,6.09,6.79,5,2.68-5,1.11-8.83S1221.86,306.32,1219.68,307.37Z" transform="translate(150.46 165.62)"/><path class="cls-36" d="M1237.44,269.56c-1.83.88-2.25,4.21-.93,7.43s3.88,5.12,5.71,4.24,2.25-4.2.93-7.43S1239.27,268.68,1237.44,269.56Z" transform="translate(150.46 165.62)"/><path class="cls-31" d="M1274.54,391.38a2,2,0,1,0,0,4c7,0,14,0,14-3C1288.54,388.38,1281.54,390.38,1274.54,391.38Z" transform="translate(150.46 165.62)"/><path class="cls-31" d="M1372.54,382.38l-20,2a2,2,0,1,0,0,4l20-2A2,2,0,1,0,1372.54,382.38Z" transform="translate(150.46 165.62)"/><path class="cls-31" d="M1330.54,386.38l-32,3a2,2,0,1,0,0,4l32-3A2,2,0,1,0,1330.54,386.38Z" transform="translate(150.46 165.62)"/><path class="cls-31" d="M1418.54,378.38l-33,3a2,2,0,1,0,0,4l33-3A2,2,0,1,0,1418.54,378.38Z" transform="translate(150.46 165.62)"/><path class="cls-31" d="M1523.54,368.38l-92,9a2,2,0,1,0,0,4l92-9A2,2,0,1,0,1523.54,368.38Z" transform="translate(150.46 165.62)"/><path class="cls-31" d="M1415.54,227.38l91-20c2-1,2-5-1-4l-91,20C1412.54,224.38,1412.54,228.38,1415.54,227.38Z" transform="translate(150.46 165.62)"/><path class="cls-31" d="M1403.54,226.38l-24,5c-2,1-2,5,1,4l24-5C1406.54,229.38,1406.54,225.38,1403.54,226.38Z" transform="translate(150.46 165.62)"/><path class="cls-31" d="M1361.54,235.38l-14,3c-2,1-2,5,1,4l14-3C1364.54,238.38,1364.54,234.38,1361.54,235.38Z" transform="translate(150.46 165.62)"/><path class="cls-37" d="M1754.54,1284.38a136.17,136.17,0,1,0-149,122A136.59,136.59,0,0,0,1754.54,1284.38Z" transform="translate(150.46 165.62)"/><path class="cls-38" d="M1754.54,1284.38a136.59,136.59,0,0,0-122-149,131.51,131.51,0,0,0-53,5h0c-6,2-11,4-17,6,88-7,107,51,131,128,11,33,32,48,48,55,1-2,2-4,2-5-16-6-35-20-45-52-24-73-42-130-118-132,125-13,112,56,138,123,10,27,25,29,34,28,0-3,1-5,1-8Zm-251-86c-2,2-3,5-4,7,19-6,43-9,63,8,40,35,14,70,40,138,10,26,27,43,43,52,3-1,6-1,9-2-48-24-57-77-60-123-2-27-3-48-28-69-19-17-42-17-62-11Zm-20,89c0,2,1,5,1,7,12,7,24,20,29,46a98.84,98.84,0,0,0,15,33,142.9,142.9,0,0,0,20,14c-14-14-25-30-29-48C1512.54,1308.38,1497.54,1294.38,1483.54,1287.38Zm63-132c-12,8-24,18-33,29,21-6,44-5,64,10,60,44,16,102,64,165,13,18,30,26,47,27,20-12,37-28,48-49-15,4-32-1-48-19-34-39-11-109-93-149-19-9-36-14-50-16Zm-53,63c-5,12-8,25-10,39a91.51,91.51,0,0,0-1,16c50-12,53,103,120,132h3c13,1,27,1,39-2-33-1-61-21-73-60-20-64,5-95-33-121-20-14-35-11-46-4Z" transform="translate(150.46 165.62)"/><path class="cls-39" d="M737.54,206.38c34-12,70,6,82,39,12,34-6,70-39,82-34,12-70-6-82-39C686.54,254.38,704.54,218.38,737.54,206.38Z" transform="translate(150.46 165.62)"/><path class="cls-40" d="M740.54,205.38a83.29,83.29,0,0,1,22-3,73.68,73.68,0,0,0-25,22c-19,29,7,39,9,83a66.48,66.48,0,0,1-3,21c-12-3-22-9-31-18,4-11,4-25,0-45C708.54,244.38,740.54,205.38,740.54,205.38Zm40,1c2,1,5,2,7,3-15,12-12,31,5,39,11,5,22,16,30,27a66.12,66.12,0,0,1-33,48,57.82,57.82,0,0,0,5-14c4-24-26-29-34-64C755.54,224.38,780.54,206.38,780.54,206.38Z" transform="translate(150.46 165.62)"/><path class="cls-41" d="M819.54,245.38c51,15,86,35,83,50-11.16,53-297.42-4.48-287-54,3-15,42-20,96-16-2,2-4,4-5,6-30-2-50,1-52,9-5.68,34.08,206.56,70.93,212,41,1-8-17-18-45-27A17.47,17.47,0,0,1,819.54,245.38Z" transform="translate(150.46 165.62)"/><polygon class="cls-42" points="1827 480 1777 451 1749 501 1799 530 1827 480"/><path class="cls-43" d="M609.54,478.38a27,27,0,1,0,27,27A26.89,26.89,0,0,0,609.54,478.38Z" transform="translate(150.46 165.62)"/><path class="cls-44" d="M468.54,190.38l-59-44c-3-2-6-1-8,1a3.67,3.67,0,0,0-1,3h0l-8,74c0,3,2,6,5,6a3.67,3.67,0,0,0,3-1l68-29c3-1,4-5,3-7a2.15,2.15,0,0,0-2-2Zm-57-26,39,31-44,18Z" transform="translate(150.46 165.62)"/><polygon class="cls-42" points="285 1236 235 1207 207 1257 257 1286 285 1236"/><polygon class="cls-45" points="739 1515 689 1487 660 1537 710 1565 739 1515"/><path class="cls-46" d="M1075.54,1286.38l-59-44c-3-2-6-1-8,1a3.67,3.67,0,0,0-1,3h0l-8,74c0,3,2,6,5,6a3.67,3.67,0,0,0,3-1l68-29c3-1,4-5,3-7a2.15,2.15,0,0,0-2-2Zm-57-26,39,31-44,18Z" transform="translate(150.46 165.62)"/><g id="_1022046784" data-name=" 1022046784"><path class="cls-47" d="M1200.54,1053.38h36s6,18,13,30a29.94,29.94,0,0,1,4,8h0c.84,5.63-3.62,12.67-9.62,18.67-12,12-16.67,19.75-21.67,30.75s-12.25-7.42-40.25.58c-1,0-3.62,1.13-4.62,1.13,6-14,16.16-32.13,19.16-43.13,4-17,5-47,5-47Zm11,121-3,3Zm-4,4-1,1Zm-1,1a3.49,3.49,0,0,1-2,1C1205.54,1180.38,1205.54,1179.38,1206.54,1179.38Zm-30-4a1,1,0,0,0-1-1A1,1,0,0,0,1176.54,1175.38Zm-1-3v0Zm-1-2v-1m-1-3v0Zm0-3v0Zm0-2v-2h0Z" transform="translate(150.46 165.62)"/><path class="cls-32" d="M1223.54,1065.38s-3,23-8,38c-5,16-8,20-8,20l-16,2s12-19,12-43c1-24,1-25,1-25Z" transform="translate(150.46 165.62)"/><path class="cls-22" d="M1253.54,1091.38c2,8,6,9,0,17s-19,16-23,30c-4,13-15,40-33,45s-27-10-26-24c0-5,3-11,6-18,1-1,3-1,4-1,28-9,35,10,40,0,5-11,8-18,19-30a67.79,67.79,0,0,0,13-18Z" transform="translate(150.46 165.62)"/><path class="cls-29" d="M1248.54,1113.38l-11,11v-1a20.79,20.79,0,0,1-1.08-7.75c1-2,3.62-4.63,5.12-6.29,2-2.16,2.88-2.25,3.88-4.25,2,3,2.08,5.29,3.08,7.29Zm-73,62c-3-5-4-10-4-16,0-5,3-11,6-18,1-1,3-1,4-1,28-8,34,10,40,0h0s-4,16-21,30C1192.54,1177.38,1182.54,1177.38,1175.54,1175.38Z" transform="translate(150.46 165.62)"/><path class="cls-29" d="M1200.54,1083.38c-2,1-1,5,2,4,14-6,21,1,22-3,1-5-17-4-24,0Zm-11,36c-2,1-1,5,2,4,14-6,21,1,22-3,1-5-17-4-24,0Zm5-12c-2,1-1,5,2,4,14-6,21,1,22-3,1-5-17-4-24,0Zm4-12c-2,1-1,5,2,4,14-6,21,1,22-3,1-5-17-4-24,0Z" transform="translate(150.46 165.62)"/><path class="cls-47" d="M1098.54,1125.38l25,26s-9,17-12,31a68.9,68.9,0,0,1-3,8h0c-6,2-13,4-21,4-17,0-23,4-35,8s-3-14-29-28c-1-1-3-1-4-2,14-5,32-10,42-16,15-9,37-30,37-30Zm-78,93h0Zm-6,0h0Zm-2,0h0Zm-19-24v0Zm1-3v0Zm1-2a1,1,0,0,1,1-1m2-3c0-1,1-1,1-2C999.54,1184.38,998.54,1184.38,998.54,1185.38Zm2-3,1-1Zm1-1,1-1h0Z" transform="translate(150.46 165.62)"/><path class="cls-32" d="M1105.54,1149.38s-18,14-33,21-20,8-20,8l-13-10s22-6,39-22c17-17,18-17,18-17l8,19Z" transform="translate(150.46 165.62)"/><path class="cls-22" d="M1108.54,1189.38c-4,8-2,11-12,12-9,1-25-2-37,5s-39,18-55,8c-16-9-12-26-2-35,4-3,10.46-5.58,17.46-8.58,1.29.5,2.54.58,3.54,1.58,26,14,17,32,29,28s18-7,35-8a60.3,60.3,0,0,0,21-4Z" transform="translate(150.46 165.62)"/><path class="cls-29" d="M1083.38,1201.29c-5,0-2.46.25-8.46.25l-1.91.41a63.76,63.76,0,0,1,6.53-8.57c2,0,4.47-.43,6.47-.43s4.56-.38,6.56-.38c-1,4-3.59,6.81-4.59,8.81Zm-88.59-8.49c1-5,2.75-8.42,7.75-12.42,4-3,10-6,17-9,1,1,3,1,4,2,26,14,18,31,28,28h0s-14,9-36,7c-11-1-17-8-21-14Z" transform="translate(150.46 165.62)"/><path class="cls-29" d="M1076.54,1146.38c-3-1-4,3-1,4,14,5,14,16,18,13C1098.54,1160.38,1084.54,1148.38,1076.54,1146.38Zm-33,17c-3-1-4,3-1,4,14,5,14,16,18,13C1065.54,1177.38,1051.54,1165.38,1043.54,1163.38Zm12-6c-3-1-4,3-1,4,14,5,14,16,18,13C1077.54,1171.38,1063.54,1159.38,1055.54,1157.38Zm12-5c-3-1-4,3-1,4,14,5,14,16,18,13C1089.54,1166.38,1075.54,1154.38,1067.54,1152.38Z" transform="translate(150.46 165.62)"/><path class="cls-35" d="M1191.54,877.38s-33-4-40,22c-7,27,11,74,25,114s21,56,21,56a30.86,30.86,0,0,0,26,5c15-4,21-14,21-14l-9-101,36-56-80-28Z" transform="translate(150.46 165.62)"/><path class="cls-48" d="M1505.54,688.38l25,18s18-92,19-123c2-31-13-48-31-54-23-9-63-3-78,19-15,21-48,126-48,126l113,15Z" transform="translate(150.46 165.62)"/><path class="cls-48" d="M1298.54,951.38l-5-19s100-111,101-122c1-12,47-196,60-217s89,3,89,6-2,11-2,11-15,118-15,167c0,21,2,40,3,60h0s7,82-34,131c-42,49-70,42-115,42h-99s-12-2-12-14v-38l30-6Z" transform="translate(150.46 165.62)"/><path class="cls-49" d="M1298.54,951.38l-5-19s95-245,100-259c5-15,50-61,61-80,12-19,55-6,77,1,4,20-12,42-11,64,0,0-14,4-16,25-1,21,4,11,4,11s-8-19-10,9c-3,27,3,15,3,15l1-13s-37,33-42,40-10,33-1,63,29,63,25,92c-3,18-7,40-13,53a19.52,19.52,0,0,0-1,7,29.14,29.14,0,0,1-16,5h-186v-8Z" transform="translate(150.46 165.62)"/><path class="cls-50" d="M1529.54,610.38c-8,43-9,66-14,107-6,52-27,204-27,204a146.05,146.05,0,0,1-4,20c-7,20-22,24-30,25h-5c12-15,15-45,15-45s20-143,27-204C1496.54,673.38,1518.54,630.38,1529.54,610.38Z" transform="translate(150.46 165.62)"/><path class="cls-50" d="M1558.54,850.38h-114c-7,0-12,6-12,13v9c0,7,6,13,12,13h114c7,0,12-6,12-13v-9C1570.54,856.38,1564.54,850.38,1558.54,850.38Z" transform="translate(150.46 165.62)"/><path class="cls-48" d="M1443.54,886.38h113c8,0,15-6,15-12v-2h-110l-17,14Z" transform="translate(150.46 165.62)"/><rect class="cls-48" x="1554" y="1019" width="76" height="33" rx="12"/><path class="cls-22" d="M1346.54,872.38l56-22s14,35,13,62-36,55-65,61c-29,5-90,12-103,16-13,5-114,162-122,165s-15,1-27-3a50.53,50.53,0,0,1-21-13s96-207,108-219,41-50,77-53c36-4,83,5,83,5Z" transform="translate(150.46 165.62)"/><path class="cls-35" d="M1408.54,934.38c-8,12-21,23-35,31-56-4-107-21-159-59l68-40h0Z" transform="translate(150.46 165.62)"/><path class="cls-49" d="M1387.54,1125.38l97,56c0,11-45,20-101,20s-101-9-101-20l97-56,4-17Z" transform="translate(150.46 165.62)"/><rect class="cls-51" x="1522" y="1159" width="24" height="135"/><polygon class="cls-52" points="1546 1159 1522 1159 1522 1208 1546 1201 1546 1159"/><path class="cls-53" d="M1395.54,1125.38l22,50a107.57,107.57,0,0,1-16-1l-12-46-3-12h4c1,0,2,0,2-1l4,10Z" transform="translate(150.46 165.62)"/><path class="cls-48" d="M1395.54,1142.38l-4-10a18.66,18.66,0,0,0,4-3l82,47a48,48,0,0,1-19,9c-15,4-31,5-42,5l-22-50Z" transform="translate(150.46 165.62)"/><path class="cls-32" d="M1291.54,512.38s11-33,43-23,26,16,62,1c37-15,73,7,74,43,0,36,23,31,54,51,32,21,51,61,27,101-24,41-88,31-110,1s5-67-51-78-33-82-77-78c-44,5-23-19-23-19Z" transform="translate(150.46 165.62)"/><path class="cls-32" d="M1264.54,545.38l-22-20s31-12,65-3,30,67,24,80c-6,12-14,33-23,49s-43-105-43-105Z" transform="translate(150.46 165.62)"/><path class="cls-54" d="M1246.54,806.38l-2-2-4,6a482.9,482.9,0,0,0-53,10c-27,7-34,10-37,11-3,0-20-5-37-2-17,4-35,29-35,29h229s3-53-60-52Z" transform="translate(150.46 165.62)"/><path class="cls-32" d="M1091.54,858.38h56l3-3h-32s-3-6,1-10,18-5,18-5c-22-11-39-2-53,16C1084.54,856.38,1087.54,857.38,1091.54,858.38Z" transform="translate(150.46 165.62)"/><path class="cls-55" d="M1289.54,824.38a118.59,118.59,0,0,1-25-3c-12-3-25-12-25-12l-9-97c-3-23,7-40,29-48l29,159Z" transform="translate(150.46 165.62)"/><path class="cls-56" d="M1294.54,671.38l-23-9-12,3s-8,16-11,26-17,47-11,61c6,15,17,17,23,29s14,79,14,79h128s-28-189-32-191-35-11-35-11l-42,14Z" transform="translate(150.46 165.62)"/><path class="cls-31" d="M1241.54,759.38a1,1,0,0,0,1,1A1,1,0,0,0,1241.54,759.38Zm12,13c3,3,5,5,7,9,6,12,14,79,14,79h128s-19-128-28-175l-15-3s-15,27-15,61-38,37-50,34c-9-2-25,5-41-6Z" transform="translate(150.46 165.62)"/><path class="cls-55" d="M1396.54,816.38l45-7s6-2-5-26-37-82-44-96c-7-13-21-18-21-18s-20,5-25,38,6,45,16,62,26,48,26,48l6-2Z" transform="translate(150.46 165.62)"/><path class="cls-31" d="M1440.54,808.38h1s2-1,2-5c-4-7-12-14-31-13-12,1-23,2-31,4l2,4c8-1,18-3,29-4C1432.54,792.38,1438.54,801.38,1440.54,808.38Zm-7-32c-1-2-1-3-2-5a3.67,3.67,0,0,1-3-1c-22-4-43,5-54,11l2,4c11-6,30-14,51-11,2,0,4,1,6,1Zm-13-30-2-4c-10,2-21,5-32,11a142.9,142.9,0,0,0-20,14l2,4a142.9,142.9,0,0,1,20-14,144.86,144.86,0,0,1,31-11Zm-11-24-2-4c-28,4-33,14-47,37l2,4c13-24,18-34,46-38Zm-53,27v-4c1-16,6-29,14-39,6-7,14-12,24-16-1-1-1-3-2-4-10,4-19,9-25,17-8,10-14,22-15,38,1,1,2,4,4,7Z" transform="translate(150.46 165.62)"/><path class="cls-57" d="M1434.54,797.38s-22-9-62,2c-39,11-94,28-104,27s-29-9-46-3-41,16-40,24,127,3,127,3l18-4s69-9,88-14c19-4,35-27,18-36Z" transform="translate(150.46 165.62)"/><path class="cls-57" d="M1273.54,632.38l5,27-8,3s-3,27,24,34c27,6,42-38,42-38s-12-3-16-10-13-44-13-44l-35,28Z" transform="translate(150.46 165.62)"/><path class="cls-58" d="M1273.54,632.38l5,27c18,18,30-13,34-38-3-9-5-18-5-18l-35,28Z" transform="translate(150.46 165.62)"/><path class="cls-57" d="M1230.54,543.38l-12,25,2,21,8,10s4,18,11,33c6,15,21,26,37,18s41-44,41-44S1270.54,537.38,1230.54,543.38Z" transform="translate(150.46 165.62)"/><path class="cls-32" d="M1305.54,593.38s-13,0-36-14c-22-14-30-27-30-27s-5,14-10,18-7,6-7,6l6,23s-7-5-8-10c-2-4-8-23-8-23s-8-11,2-24,28-17,28-17,12-11,35-2S1329.54,573.38,1305.54,593.38Z" transform="translate(150.46 165.62)"/><path class="cls-59" d="M1308.54,583.38c-6-40-24-60-66-58a4.94,4.94,0,0,1,1-3c0-1,0-1,1-2s17-7,17-7,19-3,40,14,26,59,26,59l-18-2Z" transform="translate(150.46 165.62)"/><path class="cls-59" d="M1322.54,581.38c5,4,9,12,9,21s-3,17-8,21l2,3h-9c-9,0-16-11-16-24s7-24,16-24h9l-2,3Z" transform="translate(150.46 165.62)"/><ellipse class="cls-60" cx="1475" cy="768" rx="16" ry="24"/><path class="cls-61" d="M835.54,859.38l-54-4v28s0,16,15,22,125,28,125,28l1,246h-108c-27,0-33,11-33,21h187v-335l-134-7Z" transform="translate(150.46 165.62)"/><path class="cls-60" d="M910.54,934.38v246h23v-246s-123-22-137-28h-23C788.54,912.38,910.54,934.38,910.54,934.38Zm-119,246c-27,0-33,11-33,21h23c0-10,6-21,33-21Z" transform="translate(150.46 165.62)"/><path class="cls-62" d="M1290.54,879.38c0-7-39,27-39,27h-470v-51h455Z" transform="translate(150.46 165.62)"/><path class="cls-61" d="M1230,794.63s3.58-1.25,3.58-8.25c0-8-25-226-25-226s-1-8-10-8h-299s-5,0-5,7c0,4,8,72,14,133v1s0,8-5,14h0c-1,1-1,2-2,3h0c-2,4-3,6-3,10,0,5,6,67,6,67s2,8,15,8h308Z" transform="translate(150.46 165.62)"/><polygon class="cls-60" points="1186 959 1241 959 1241 910 1200 922 1186 959"/><polygon class="cls-59" points="1233 928 1236 903 1165 903 1126 1029 1206 1029 1233 928"/><polygon class="cls-61" points="1207 1025 1198 1025 1236 903 1241 910 1207 1025"/><path class="cls-59" d="M1202.54,724.38h-303c-2-21,7-11,9-32v-3h309c-1,22-14,22-15,36Z" transform="translate(150.46 165.62)"/><path class="cls-63" d="M1205.43,792.37l-5.89-57c-2-16,0-17,7-26s7-21,7-21c-7-61-15-129-15-129s-1-8-10-8h9c8,0,10,8,10,8s25,219,25,226c0,8-5,7-5,7Z" transform="translate(150.46 165.62)"/><rect class="cls-62" x="932" y="1016" width="455" height="22"/><rect class="cls-64" x="1387" y="1016" width="245" height="22"/><path class="cls-64" d="M1290.54,859.38l-54-4v28s0,16,15,22,126,28,126,28l-11,277h-96c-27,0-33,11-33,21h187v-366l-134-7Z" transform="translate(150.46 165.62)"/><path class="cls-62" d="M1367.08,933.38v277h23v-277s-123-22-137-28h-23C1245.08,911.38,1367.08,933.38,1367.08,933.38Zm-119,277c-27,0-33,11-33,21h23c0-10,6-21,33-21Z" transform="translate(150.46 165.62)"/><ellipse class="cls-61" cx="1481" cy="767" rx="14" ry="20"/><path class="cls-63" d="M1321.54,601.38c0-6,2-12,5-15a20.92,20.92,0,0,1,6-4h-1c-2,0-4,1-6,2-5,3-8,10-8,18,0,9,4,16,9,19a9,9,0,0,0,5,1h3a20.92,20.92,0,0,1-6-4c-3-4-5-9-5-16Z" transform="translate(150.46 165.62)"/><path class="cls-29" d="M1244.54,520.38Zm78,46c-4-13-11-30-22-39-21-17-40-14-40-14s-14,5-16,7h11c31,2,52,21,58,54l9-9Z" transform="translate(150.46 165.62)"/><path class="cls-29" d="M1342.54,663.38l2-4a32.08,32.08,0,0,1-5-3c-2-1-6,0-6,0s-7,22-20,30-27,6-34-2c-7-7-7-23-7-23-4-2-6,0-9,2-7,33,28,52,58,30,13-10,21-31,21-31Z" transform="translate(150.46 165.62)"/><rect class="cls-64" x="1297" y="1008" width="208" height="9"/><rect class="cls-29" x="1387" y="1008" width="118" height="9"/></g><g id="_1023923648" data-name=" 1023923648"><path class="cls-51" d="M230.54,691.38l-25,18s-18-92-19-123c-2-31,13-48,31-54,23-9,63-3,78,19,15,21,48,126,48,126l-113,15Z" transform="translate(150.46 165.62)"/><path class="cls-51" d="M349.54,1111.38l-97,56c0,11,45,20,101,20s101-9,101-20l-97-56-4-17Z" transform="translate(150.46 165.62)"/><rect class="cls-51" x="492" y="1163" width="24" height="135"/><polygon class="cls-52" points="492 1163 516 1163 516 1211 492 1205 492 1163"/><path class="cls-51" d="M438.54,955.38l5-19s-100-111-101-122c-1-12-47-196-60-217s-89,3-89,6,2,11,2,11,15,118,15,167c0,21-2,40-3,60h0s-7,82,34,131c42,49,70,42,115,42h99s12-2,12-14v-38l-30-6Z" transform="translate(150.46 165.62)"/><path class="cls-52" d="M438.54,955.38l5-19s-100-111-101-122c-1-12-47-196-60-217-10-16-55-6-77,1-4,20,12,42,11,64,0,0,14,4,16,25,1,21-4,11-4,11s8-19,10,9c3,27-3,15-3,15l-1-13s37,33,42,40,10,33,1,63-29,63-25,92c3,18,7,40,13,53a19.52,19.52,0,0,1,1,7,29.14,29.14,0,0,0,16,5h186v-8Z" transform="translate(150.46 165.62)"/><path class="cls-26" d="M206.54,613.38c8,43,9,66,14,107,6,52,27,204,27,204a146.05,146.05,0,0,0,4,20c7,20,22,24,30,25h5c-12-15-15-45-15-45s-20-143-27-204C239.54,676.38,217.54,633.38,206.54,613.38Z" transform="translate(150.46 165.62)"/><path class="cls-53" d="M341.54,1128.38l-22,50a107.57,107.57,0,0,0,16-1l12-46,3-12h-4c-1,0-2,0-2-1l-4,10Z" transform="translate(150.46 165.62)"/><path class="cls-28" d="M341.54,1128.38l4-10a18.66,18.66,0,0,1-4-3l-82,47a48,48,0,0,0,19,9c15,4,31,5,42,5l22-50Z" transform="translate(150.46 165.62)"/><rect class="cls-61" x="681" y="1035" width="159" height="26"/><rect class="cls-29" x="681" y="1035" width="36" height="9"/><path class="cls-60" d="M587.54,1146.38c-13-8-71,24-89,51-5,7-8.12,15.13-11.12,20.13,6,0,16.12-2.13,23.12-7.13,10-7,15-21,38-23s46-22,41-38A12.38,12.38,0,0,1,587.54,1146.38Z" transform="translate(150.46 165.62)"/><path class="cls-61" d="M498.54,1197.38c18-27,77-59,89-51-4-5-14-13-31-10-24,4-25,14-46,18,0,0-11,0-23,1l-17,22a42.2,42.2,0,0,0,0,21,38.21,38.21,0,0,0,11,18,12.13,12.13,0,0,0,5,1,145.12,145.12,0,0,1,12-19Z" transform="translate(150.46 165.62)"/><path class="cls-62" d="M500.67,1194.82c18-27,74.87-56.44,86.87-48.44-2-2-6-6-11-8a58.39,58.39,0,0,0-20,4c-32,9-33,22-35,24s-17,10-32,30c-4,6-8,11-10,17l3,3a12.13,12.13,0,0,0,5,1,145.12,145.12,0,0,1,12-19Z" transform="translate(150.46 165.62)"/><path class="cls-57" d="M337.54,761.38l75,8s43,40,48,41,94,38,101,40,36-3,48,7c13,10,16,11,11,13-5,1-63,0-63,0s-9,0-14-3-7-6-32-11-74-20-83-25-74-41-74-41l-17-28Z" transform="translate(150.46 165.62)"/><path class="cls-58" d="M382.54,765.38l30,3,6,6a18.84,18.84,0,0,1-2,8c-5,15,17,29,31,33s16,14,41,23,38,10,53,20a88.41,88.41,0,0,0,19,10h-4s-9,0-14-3-7-6-32-11-78-16-85-20c-8-4-48-18-68-29,2-12,18-31,24-40Z" transform="translate(150.46 165.62)"/><path class="cls-65" d="M318.54,723.38l33-19s10,7,13,11,50,51,50,51l-34,30-62-74Z" transform="translate(150.46 165.62)"/><path class="cls-58" d="M340.54,702.38l11,2,16-29-35-35-43,27s35,45,42,45c8,0,8-10,8-10Z" transform="translate(150.46 165.62)"/><path class="cls-66" d="M392.54,605.38l28,13a43.55,43.55,0,0,1-3,19c-4,10-34,47-34,47l10-79Z" transform="translate(150.46 165.62)"/><path class="cls-57" d="M365.54,602.38s-23,7-26,17-14,33-14,33l1,15s14,18,30,27,20,9,28,4c9-5,25-83,25-83l-45-13Z" transform="translate(150.46 165.62)"/><path class="cls-67" d="M414.54,602.38l1,7,5,9s-14,18-34,18c-19,1-19-10-19-10a50.72,50.72,0,0,1-33,14c-21,1-21-28-21-28s20-30,46-32c26-1,41,10,54,21Z" transform="translate(150.46 165.62)"/><path class="cls-68" d="M414.54,602.38l1,7c-40-14-68-5-71,29-3,1-6,1-10,1-21,1-21-28-21-28s20-30,46-32c26-1,41,10,54,21Z" transform="translate(150.46 165.62)"/><path class="cls-69" d="M323.65,610c11.75-.11,19.69,12.14,17.74,27.36S328.33,665,316.58,665.13,296.89,653,298.84,637.78,311.9,610.13,323.65,610Z" transform="translate(150.46 165.62)"/><path class="cls-57" d="M338.54,430.38l-5-10c-2-4-8-3-11-2s-5,5-5,5-4-2-5-1-7,3-9,5l-2,4a43.31,43.31,0,0,1-5,1c-1,1-5,3-6,6,0,2,1,15,1,15l9,3h-5a54.36,54.36,0,0,0,4,8c2,3-69,108-71,120s6,41,9,56,39,13,39,13l9-30s-8-29-7-34,52-122,53-124c2-2,7-4,9-7s6-18,4-20a59.27,59.27,0,0,1-5.16-6.81Z" transform="translate(150.46 165.62)"/><path class="cls-58" d="M291.6,479.36c-18,30-61.06,96-63.06,105-2,12,6,41,9,56s39,13,39,13c-19-31-30-60-20-78s36.15-97.77,36.15-97.77Z" transform="translate(150.46 165.62)"/><path class="cls-70" d="M371.54,926.38l-4-85,41,3,23,44s119,36,128,52,132,211,132,211l-23,29c-34-29-146-156-150-193-2-17-8-37-11-39-3-1-137-23-137-23Z" transform="translate(150.46 165.62)"/><path class="cls-69" d="M494.54,909.38c30,11,61,24,66,32,3,6,20,33,41,66-7,18-18,43-31,64-27-34-49-67-51-83-2-17-8-37-11-39-1-1-24-4-51-9C468.54,926.38,481.54,915.38,494.54,909.38Z" transform="translate(150.46 165.62)"/><path class="cls-65" d="M284.54,611.38s-18,0-35,8-20,15-19,18,19,60,25,73,8,15,10,17c1,3,22,80,26,102s3,35,26,39,64,5,64,5l28-30s8-5,0-24c-8-18-12-26-16-33-4-8-40-76-40-76l3-8s-35-17-36-18c-2-1-35.5-73-35.5-73Z" transform="translate(150.46 165.62)"/><path class="cls-27" d="M284.54,611.38a89.73,89.73,0,0,0-27,5,121.29,121.29,0,0,1,5,14c4,20-4,28,8,46,12,17,14,32,14,32s11-8,17-19,5-18,5-18,2,15-5,27c-6,12-8,16,8,35,16,20,10,40,25,90,8,28,31,42,49,49l26-28s8-5,0-24c-8-18-12-26-16-33-4-8-40-76-40-76s-26-12-28-14-6-11-6-11c-2-1-36-74-36-74Z" transform="translate(150.46 165.62)"/><path class="cls-70" d="M316.54,869.38s-9,76,47,93c56,16,139-2,140,3,2,5-14,32-26,91s-8,121-8,121,19-16,29-20,11-4,11-4,60-181,68-197-18-47-50-48-119-64-119-64S369.54,859.38,316.54,869.38Z" transform="translate(150.46 165.62)"/><path class="cls-69" d="M316.54,869.38a85.6,85.6,0,0,0,0,18c21,13,46,24,75,24,34-1,57-16,72-32-28-17-53-35-53-35s-39,15-92,25Z" transform="translate(150.46 165.62)"/><path class="cls-61" d="M517.54,886.38s-13-25-45-27c-33-2-44,29-44,29Z" transform="translate(150.46 165.62)"/><path class="cls-71" d="M482.88,820.66s-3.34-1.28-3.34-8.28c0-8,25-226,25-226s1-8,10-8h299s5,0,5,7c0,4-8,72-14,133v1s0,9,5,14h0c1,1,1,2,2,3h0c2,4,3,6,3,10,0,5-6,67-6,67s-2,8-15,8h-308Z" transform="translate(150.46 165.62)"/><polygon class="cls-25" points="828 985 773 985 773 935 815 947 828 985"/><polygon class="cls-25" points="781 953 779 928 849 928 888 1055 808 1055 781 953"/><polygon class="cls-71" points="807 1050 816 1050 779 928 773 935 807 1050"/><path class="cls-25" d="M510.54,750.38h303c2-21-7-11-9-32v-3h-309c1,22,14,22,15,36Z" transform="translate(150.46 165.62)"/><path class="cls-72" d="M507,820.39l6-58c2-16,0-17-7-26s-7-21-7-21c7-61,15-129,15-129s1-8,10-8h-9c-8,0-10,8-10,8s-25,219-25,226c0,8,5,7,5,7h23Z" transform="translate(150.46 165.62)"/><path class="cls-58" d="M333.54,446.38s-13,1-17-4c-2-3-2-7-1-9a18.58,18.58,0,0,1,0-8s-7,9-6,15c1,5,3,6,3,8-1,2-3,2-5,3s-5-1-5-1-1,2-5,3a6.93,6.93,0,0,1-5,0,30.3,30.3,0,0,0,7,5c4,2,9,8,9,8s2-8,7-13S333.54,446.38,333.54,446.38Zm-12-14c5,1,16,1,16,1a26,26,0,0,1-7-3A6.51,6.51,0,0,0,321.54,432.38Z" transform="translate(150.46 165.62)"/><path class="cls-73" d="M319.71,613.68c7.12,2.28,10,13.25,6.36,24.49s-12.31,18.5-19.43,16.21-10-13.25-6.35-24.49S312.59,611.39,319.71,613.68Z" transform="translate(150.46 165.62)"/><path class="cls-29" d="M318.54,614.38c7,2,9,13,6,23-3,11-12,17-18,15-2-1-4-2-5-5a9,9,0,0,0,6,6c7,2,16-5,19-16,4-11,1-22-6-24-2-1-5,0-7,1a6.37,6.37,0,0,1,6,0Z" transform="translate(150.46 165.62)"/><path class="cls-69" d="M307.54,635.38l6,10-3,4h-3a55.82,55.82,0,0,1-5-8c-1-2,3-5,5-5Z" transform="translate(150.46 165.62)"/><path class="cls-69" d="M369.54,682.38s-8-2-10-2a3.67,3.67,0,0,0-3,1,60.09,60.09,0,0,1-25-12c-13-11-23-27-23-27l-2,1s10,17,23,28c10,8,20,11,26,13,1,1,1,2,3,2a29.2,29.2,0,0,0,9,2q3,0,3-6Z" transform="translate(150.46 165.62)"/><path class="cls-70" d="M315.54,621.38l-3,8-9-4s4-20,20-35,37-17,49-15c13,2,29,14,29,14s-20-9-41-5-31,12-45,38Z" transform="translate(150.46 165.62)"/><path class="cls-73" d="M311.54,604.38a52.63,52.63,0,0,1,12-14c2-2,5-4,7-6l10,6q-7.5,4.5-15,15h0C320.54,606.38,316.54,606.38,311.54,604.38Zm26-24c10-5,20-6,28-6l15,8a67,67,0,0,0-20,0c-5,1-9,2-13,3l-10-6Z" transform="translate(150.46 165.62)"/><path class="cls-69" d="M318.54,625.38c5-39,67-60,97-16,0,0,2-4,2-5s-16-26-49-24c-34,2-44,19-49,28s-7,22-7,22l7-4Z" transform="translate(150.46 165.62)"/><path class="cls-69" d="M317.54,620.38l-5,9a22.69,22.69,0,0,0,4,1c1,0,2-1,3-2s6-13,7-14a3.7,3.7,0,0,0-2-3s-5,2-5,4c-1,2-1,6-1,6Z" transform="translate(150.46 165.62)"/><path class="cls-65" d="M309.54,820.38l-36-65s15,92,29,127,30,56,30,56,24-13,34-22,10-32,31-44c22-11,41-9,41-9s0-7-3-10c-4-3-21-24-28-39s-8-18-8-18l-89,24Z" transform="translate(150.46 165.62)"/><path class="cls-27" d="M436.54,855.38a2.15,2.15,0,0,0-2-2c-4-3-21-24-28-39s-8-18-8-18l-66,18h0s1,11,7,29a101.49,101.49,0,0,0,16,30s15-17,54-16A187,187,0,0,0,436.54,855.38Z" transform="translate(150.46 165.62)"/><polygon class="cls-25" points="920 1299 560 1299 574 1275 937 1275 920 1299"/><polygon class="cls-25" points="857 1368 984 1056 1035 1065 914 1362 857 1368"/><path class="cls-25" d="M657.54,1213.38h172s10,1,13,4c1,1,3,5,4,10h37a154.63,154.63,0,0,0-4-15c-1-2-9-5-9-5l-120-20s-122,16-127,16c-6,0-9,9-9,9l-6,14h35l5-10s4-4,8-4Z" transform="translate(150.46 165.62)"/><polygon class="cls-25" points="843 1368 968 1065 1022 1065 901 1362 843 1368"/><polygon class="cls-71" points="517 1368 642 1065 696 1065 575 1362 517 1368"/><path class="cls-25" d="M318.54,1213.38h172s10,1,13,4c1,1,3,5,4,10h37a154.63,154.63,0,0,0-4-15c-1-2-9-5-9-5l-120-20s-122,16-127,16c-6,0-9,9-9,9l-6,14h35l5-10s4-4,8-4Z" transform="translate(150.46 165.62)"/><polygon class="cls-25" points="504 1368 635 1049 761 1054 676 1082 561 1362 504 1368"/><polygon class="cls-25" points="763 1052 694 1044 694 1065 665 1065 622 1140 980 1140 1001 1053 763 1052"/><path class="cls-47" d="M348.54,878.38h218v21h-22l-201-9v-8c0-4,4-4,6-4Z" transform="translate(150.46 165.62)"/><rect class="cls-74" x="694" y="1044" width="399" height="21"/><path class="cls-71" d="M786.54,974.38l-55,134h37l55-134h-37Zm-65,159-25,62,14-2,25-3,23-57Z" transform="translate(150.46 165.62)"/><path class="cls-62" d="M491.54,1167.38v31l5-6-1-27c-2,1-3,2-5,2Zm11-5v25l5-6v-21C505.54,1161.38,504.54,1161.38,502.54,1162.38Z" transform="translate(150.46 165.62)"/><path class="cls-61" d="M686.54,1150.38l-21,21s7,14,10,26,9,15,18,16,15-1,25,4c10,6,33,15,46,7s10-22,2-29c-9-8-37-13-49-20-12-8-30-25-30-25Z" transform="translate(150.46 165.62)"/><path class="cls-60" d="M679.54,1171.38a88.82,88.82,0,0,0,24,14,195.94,195.94,0,0,0,23,10l11-8s-19-5-33-17-16-15-16-15l-8,16Z" transform="translate(150.46 165.62)"/><path class="cls-62" d="M678.54,1204.38c3,6,2,9,10,10s21-2,31,4,33,15,46,7,10-22,2-29c-3-3-8-5-14-7-1,0-2,1-3,2-22,12-14,27-24,23-10-3-15-6-29-6-7,0-13-2-18-3Z" transform="translate(150.46 165.62)"/><path class="cls-70" d="M680.54,1140.38l3-2,16,22s1,5-8,12c-9,8-21,11-21,11l-29-31,19-16,20,3Z" transform="translate(150.46 165.62)"/><path class="cls-29" d="M704.54,1168.38c1,0,2,0,2,1s0,2-1,2a29.07,29.07,0,0,0-13,11c0,1-2,1-2,1-1,0-1-2-1-2a27.69,27.69,0,0,1,14-12Zm28,14c1,0,2,0,2,1s0,2-1,2a29.07,29.07,0,0,0-13,11c0,1-2,1-2,1-1,0-1-2-1-2a27.69,27.69,0,0,1,14-12Zm-10-5c1,0,2,0,2,1s0,2-1,2a29.07,29.07,0,0,0-13,11c0,1-2,1-2,1-1,0-1-2-1-2a27.69,27.69,0,0,1,14-12Zm-10-4c1,0,2,0,2,1s0,2-1,2a29.07,29.07,0,0,0-13,11c0,1-2,1-2,1-1,0-1-2-1-2a27.69,27.69,0,0,1,14-12Z" transform="translate(150.46 165.62)"/><path class="cls-62" d="M690.54,1193.38l-7,15,6,2,6-16-5-2Zm10,3-6,14,7-3,4-10-5-2Z" transform="translate(150.46 165.62)"/><polygon class="cls-47" points="563 1257 588 1242 661 1064 641 1063 561 1258 563 1257"/><polygon class="cls-74" points="643 1108 661 1064 641 1063 622 1108 643 1108"/><path class="cls-53" d="M178.54,859.38h114a12.16,12.16,0,0,1,12,12v8a12.16,12.16,0,0,1-12,12h-114a12.16,12.16,0,0,1-12-12v-8A12.16,12.16,0,0,1,178.54,859.38Z" transform="translate(150.46 165.62)"/><path class="cls-28" d="M292.54,892.38h-113c-8,0-15-6-15-12v-2h110l17,14Z" transform="translate(150.46 165.62)"/><rect class="cls-28" x="408" y="1025" width="76" height="33" rx="12"/></g><rect class="cls-75" width="2000" height="2000"/></svg>