<svg id="Illustration" xmlns="http://www.w3.org/2000/svg" xmlns:xlink="http://www.w3.org/1999/xlink" viewBox="0 0 2779.14 2800"><defs><style>.cls-1{opacity:0.3;fill:url(#linear-gradient);}.cls-2{fill:url(#linear-gradient-2);}.cls-15,.cls-3,.cls-8{fill:#fff;}.cls-3{opacity:0.43;}.cls-4{fill:url(#linear-gradient-3);}.cls-5{fill:url(#linear-gradient-4);}.cls-6{opacity:0.5;fill:url(#linear-gradient-5);}.cls-7{fill:url(#linear-gradient-6);}.cls-9{fill:url(#linear-gradient-7);}.cls-10{fill:url(#linear-gradient-8);}.cls-11{fill:url(#linear-gradient-9);}.cls-12{fill:url(#linear-gradient-10);}.cls-13{fill:url(#linear-gradient-11);}.cls-14{fill:url(#linear-gradient-12);}.cls-15{opacity:0.78;}.cls-16{fill:url(#linear-gradient-13);}.cls-17{fill:url(#linear-gradient-14);}.cls-18{fill:url(#linear-gradient-15);}.cls-19{fill:url(#linear-gradient-16);}.cls-20{fill:url(#linear-gradient-17);}.cls-21{fill:url(#linear-gradient-18);}.cls-22{fill:url(#linear-gradient-19);}.cls-23{fill:url(#linear-gradient-20);}.cls-24{fill:url(#linear-gradient-21);}.cls-25{fill:url(#linear-gradient-22);}.cls-26{fill:url(#linear-gradient-23);}.cls-27{fill:url(#linear-gradient-24);}.cls-28{fill:url(#linear-gradient-25);}.cls-29{fill:url(#linear-gradient-26);}.cls-30{fill:url(#linear-gradient-27);}.cls-31{fill:url(#linear-gradient-28);}.cls-32{fill:url(#linear-gradient-29);}.cls-33{fill:url(#linear-gradient-30);}.cls-34{fill:url(#linear-gradient-31);}.cls-35{fill:url(#linear-gradient-32);}.cls-36{fill:url(#linear-gradient-33);}.cls-37{fill:url(#linear-gradient-34);}.cls-38{fill:url(#linear-gradient-35);}.cls-39{fill:url(#linear-gradient-36);}.cls-40{fill:url(#linear-gradient-37);}.cls-41{fill:url(#linear-gradient-38);}.cls-42{fill:url(#linear-gradient-39);}.cls-43{fill:url(#linear-gradient-40);}.cls-44{fill:url(#linear-gradient-41);}.cls-45{fill:url(#linear-gradient-42);}.cls-46{fill:url(#linear-gradient-43);}.cls-47{fill:url(#linear-gradient-44);}.cls-48{fill:url(#linear-gradient-45);}</style><linearGradient id="linear-gradient" x1="3480.79" y1="3276.12" x2="1410.76" y2="1464.84" gradientUnits="userSpaceOnUse"><stop offset="0" stop-color="#c1ffff"/><stop offset="0.75" stop-color="#c9c6ff"/><stop offset="1" stop-color="#ccb3ff"/></linearGradient><linearGradient id="linear-gradient-2" x1="1614.69" y1="2942.88" x2="-129.12" y2="424.78" gradientTransform="translate(-373.75 -106.01) rotate(-4.15)" gradientUnits="userSpaceOnUse"><stop offset="0" stop-color="#f4bcff"/><stop offset="1" stop-color="#36246d"/></linearGradient><linearGradient id="linear-gradient-3" x1="1042.31" y1="3160.98" x2="1762.73" y2="609.2" gradientTransform="translate(-373.75 -106.01) rotate(-4.15)" gradientUnits="userSpaceOnUse"><stop offset="0" stop-color="#a7c2d5"/><stop offset="1" stop-color="#c46dc4"/></linearGradient><linearGradient id="linear-gradient-4" x1="1266.3" y1="2733.5" x2="2282.26" y2="855.73" gradientTransform="matrix(0.99, -0.17, 0.17, 0.99, 663, 857.5)" gradientUnits="userSpaceOnUse"><stop offset="0" stop-color="#d9c2d5"/><stop offset="1" stop-color="#ba78c4"/></linearGradient><linearGradient id="linear-gradient-5" x1="2275.83" y1="2203.33" x2="2961.4" y2="2203.33" gradientUnits="userSpaceOnUse"><stop offset="0" stop-color="#d9c2d5"/><stop offset="1" stop-color="#ef78c4"/></linearGradient><linearGradient id="linear-gradient-6" x1="3369.09" y1="1449.62" x2="2824.29" y2="2454.48" gradientTransform="translate(-813.63 3210.77) rotate(-68.77)" gradientUnits="userSpaceOnUse"><stop offset="0" stop-color="#fdf5b3"/><stop offset="1" stop-color="#d93c65"/></linearGradient><linearGradient id="linear-gradient-7" x1="2537.4" y1="1252.99" x2="2058.86" y2="2135.63" gradientTransform="translate(-81.3 3373.59) rotate(-89.02)" gradientUnits="userSpaceOnUse"><stop offset="0" stop-color="#fdf5d7"/><stop offset="1" stop-color="#d93c65"/></linearGradient><linearGradient id="linear-gradient-8" x1="1427.93" y1="1733.21" x2="969.87" y2="2578.09" gradientTransform="matrix(-0.23, -0.97, 0.97, -0.23, -541.62, 3013.37)" gradientUnits="userSpaceOnUse"><stop offset="0" stop-color="#fdf5d4"/><stop offset="1" stop-color="#d93c65"/></linearGradient><linearGradient id="linear-gradient-9" x1="3667.12" y1="715.55" x2="3209.07" y2="1560.38" gradientTransform="translate(-907.62 2465.92) rotate(-38.84)" gradientUnits="userSpaceOnUse"><stop offset="0" stop-color="#fdf5c2"/><stop offset="1" stop-color="#d93c65"/></linearGradient><linearGradient id="linear-gradient-10" x1="3335.25" y1="-412.49" x2="2877.2" y2="432.36" gradientTransform="translate(-107.69 2615.49) rotate(-21.33)" gradientUnits="userSpaceOnUse"><stop offset="0" stop-color="#fdf5cd"/><stop offset="1" stop-color="#d93c65"/></linearGradient><linearGradient id="linear-gradient-11" x1="109.38" y1="3355.25" x2="1447.69" y2="1801.86" gradientUnits="userSpaceOnUse"><stop offset="0" stop-color="#fdffa4"/><stop offset="1" stop-color="#d98f93"/></linearGradient><linearGradient id="linear-gradient-12" x1="2203.92" y1="668.87" x2="-1753.5" y2="6647.39" gradientUnits="userSpaceOnUse"><stop offset="0" stop-color="#fdf5c4"/><stop offset="1" stop-color="#d93c65"/></linearGradient><linearGradient id="linear-gradient-13" x1="2122.21" y1="1722.15" x2="192.97" y2="4414.6" xlink:href="#linear-gradient-12"/><linearGradient id="linear-gradient-14" x1="2401.86" y1="1922.53" x2="472.63" y2="4614.98" xlink:href="#linear-gradient-12"/><linearGradient id="linear-gradient-15" x1="-4815.35" y1="2541.26" x2="-4685.97" y2="2541.26" gradientTransform="translate(5585.36)" gradientUnits="userSpaceOnUse"><stop offset="0" stop-color="#f9b776"/><stop offset="1" stop-color="#f47960"/></linearGradient><linearGradient id="linear-gradient-16" x1="-3262.31" y1="-1850.66" x2="-3393.61" y2="-1365.88" gradientTransform="translate(5585.36)" gradientUnits="userSpaceOnUse"><stop offset="0" stop-color="#53d8ff"/><stop offset="1" stop-color="#8040f7"/></linearGradient><linearGradient id="linear-gradient-17" x1="-4442.38" y1="3092.45" x2="-4795.33" y2="3369.59" gradientTransform="translate(5585.36)" gradientUnits="userSpaceOnUse"><stop offset="0" stop-color="#53d8ff"/><stop offset="0.05" stop-color="#5db6fd"/><stop offset="0.11" stop-color="#6697fc"/><stop offset="0.17" stop-color="#6e7bfa"/><stop offset="0.25" stop-color="#7565f9"/><stop offset="0.33" stop-color="#7a54f8"/><stop offset="0.44" stop-color="#7d49f7"/><stop offset="0.59" stop-color="#7f42f7"/><stop offset="1" stop-color="#8040f7"/></linearGradient><linearGradient id="linear-gradient-18" x1="-4658.28" y1="3096.45" x2="-4676.81" y2="3258.19" xlink:href="#linear-gradient-15"/><linearGradient id="linear-gradient-19" x1="-4379.68" y1="3172.3" x2="-4732.63" y2="3449.44" xlink:href="#linear-gradient-17"/><linearGradient id="linear-gradient-20" x1="-3104.06" y1="-1807.8" x2="-3235.35" y2="-1323.02" xlink:href="#linear-gradient-17"/><linearGradient id="linear-gradient-21" x1="-4507.32" y1="3113.75" x2="-4525.85" y2="3275.48" xlink:href="#linear-gradient-15"/><linearGradient id="linear-gradient-22" x1="-4287.13" y1="2374.17" x2="-4879.85" y2="3293.91" gradientTransform="translate(5585.36)" gradientUnits="userSpaceOnUse"><stop offset="0" stop-color="#2b3582"/><stop offset="1" stop-color="#150e42"/></linearGradient><linearGradient id="linear-gradient-23" x1="-5418.57" y1="2193.4" x2="-5513.75" y2="3125.37" gradientTransform="translate(6353.13)" gradientUnits="userSpaceOnUse"><stop offset="0" stop-color="#9ad8ff"/><stop offset="1" stop-color="#bf4bf7"/></linearGradient><linearGradient id="linear-gradient-24" x1="-4617.34" y1="2062.53" x2="-4688.1" y2="2368.31" xlink:href="#linear-gradient-15"/><linearGradient id="linear-gradient-25" x1="-4597.6" y1="-3885.27" x2="-4723.14" y2="-3719.2" gradientTransform="translate(6936.36 1318.79) rotate(-46.73)" xlink:href="#linear-gradient-15"/><linearGradient id="linear-gradient-26" x1="-4693.48" y1="-3845.39" x2="-4543.52" y2="-3845.39" gradientTransform="translate(6936.36 1318.79) rotate(-46.73)" xlink:href="#linear-gradient-22"/><linearGradient id="linear-gradient-27" x1="-4781.46" y1="-3753.75" x2="-4680.77" y2="-3857.06" gradientTransform="translate(6936.36 1318.79) rotate(-46.73)" xlink:href="#linear-gradient-15"/><linearGradient id="linear-gradient-28" x1="-4676.93" y1="2120.14" x2="-4823.4" y2="2389.25" gradientTransform="translate(5585.36)" gradientUnits="userSpaceOnUse"><stop offset="0" stop-color="#53d8ff"/><stop offset="1" stop-color="#3840f7"/></linearGradient><linearGradient id="linear-gradient-29" x1="-4619.54" y1="2621.13" x2="-4669.24" y2="2709.58" xlink:href="#linear-gradient-22"/><linearGradient id="linear-gradient-30" x1="-5201.7" y1="2214.09" x2="-5303.58" y2="3211.7" gradientTransform="translate(6353.13)" gradientUnits="userSpaceOnUse"><stop offset="0" stop-color="#a0d8ff"/><stop offset="1" stop-color="#3840f7"/></linearGradient><linearGradient id="linear-gradient-31" x1="-4829.38" y1="2055.06" x2="-5262.39" y2="2609.05" gradientTransform="translate(6353.13)" xlink:href="#linear-gradient-15"/><linearGradient id="linear-gradient-32" x1="-4771.43" y1="2100.36" x2="-5204.44" y2="2654.35" gradientTransform="translate(6353.13)" xlink:href="#linear-gradient-15"/><linearGradient id="linear-gradient-33" x1="1417.38" y1="1458.74" x2="942.73" y2="2711.02" gradientUnits="userSpaceOnUse"><stop offset="0" stop-color="#fff"/><stop offset="1" stop-color="#6e40f7"/></linearGradient><linearGradient id="linear-gradient-34" x1="2932.71" y1="1940.48" x2="2835.48" y2="2238.51" gradientTransform="matrix(1, 0, 0, 1, 0, 0)" xlink:href="#linear-gradient-15"/><linearGradient id="linear-gradient-35" x1="2930.54" y1="1438.17" x2="2242.47" y2="2842.32" gradientUnits="userSpaceOnUse"><stop offset="0" stop-color="#ffd8ff"/><stop offset="1" stop-color="#6e40f7"/></linearGradient><linearGradient id="linear-gradient-36" x1="2912.13" y1="2999.56" x2="3117" y2="2999.56" gradientTransform="matrix(1, 0, 0, 1, 0, 0)" xlink:href="#linear-gradient-15"/><linearGradient id="linear-gradient-37" x1="3193.73" y1="2541.4" x2="3092.27" y2="3200.88" gradientTransform="matrix(1, 0, 0, 1, 0, 0)" xlink:href="#linear-gradient-17"/><linearGradient id="linear-gradient-38" x1="2979.05" y1="2508.37" x2="2877.6" y2="3167.86" gradientTransform="matrix(1, 0, 0, 1, 0, 0)" xlink:href="#linear-gradient-17"/><linearGradient id="linear-gradient-39" x1="2787.81" y1="3014.79" x2="2906.45" y2="3014.79" gradientTransform="matrix(1, 0, 0, 1, 0, 0)" xlink:href="#linear-gradient-15"/><linearGradient id="linear-gradient-40" x1="2532.25" y1="2124.7" x2="2764.5" y2="2124.7" gradientTransform="matrix(1, 0, 0, 1, 0, 0)" xlink:href="#linear-gradient-15"/><linearGradient id="linear-gradient-41" x1="2510.97" y1="2634.94" x2="2894.75" y2="2330.07" gradientUnits="userSpaceOnUse"><stop offset="0" stop-color="#ffd8ff"/><stop offset="1" stop-color="#6b40f7"/></linearGradient><linearGradient id="linear-gradient-42" x1="2683.07" y1="2478.84" x2="3063.54" y2="2907.92" gradientTransform="matrix(1, 0, 0, 1, 0, 0)" xlink:href="#linear-gradient-22"/><linearGradient id="linear-gradient-43" x1="2823.78" y1="2238.72" x2="2896.38" y2="2238.72" gradientTransform="matrix(1, 0, 0, 1, 0, 0)" xlink:href="#linear-gradient-15"/><linearGradient id="linear-gradient-44" x1="2939.16" y1="2144.9" x2="3467.59" y2="2180.84" gradientTransform="matrix(1, 0, 0, 1, 0, 0)" xlink:href="#linear-gradient-15"/><linearGradient id="linear-gradient-45" x1="3026.02" y1="2113.05" x2="2840.01" y2="2485.06" gradientTransform="matrix(1, 0, 0, 1, 0, 0)" xlink:href="#linear-gradient-22"/></defs><path class="cls-1" d="M3129,2335.44c-267.53,629.93-980.17,982.82-1598.17,887.63-100.57-15.49-376.26-61.63-620.35-279.31C440.59,2524.72,340.1,1695,719.14,1110.22,995,684.62,1489.55,443.36,1959.46,455.43c101.22,2.6,489.13,18.62,830,299.72,50.07,41.29,160.51,139.41,260,295.06C3283.25,1415.7,3303.34,1924.91,3129,2335.44Z" transform="translate(-465.43 -455)"/><path class="cls-2" d="M557.55,868.6c3.92-17.66,29-18.32,33.74-.88,46.17,168.65,181.1,607.08,391.5,840.61,342.58,380.24,568.29,995.61,345.32,1312.19C1328.11,3020.52,130.25,2792.33,557.55,868.6Z" transform="translate(-465.43 -455)"/><path class="cls-3" d="M589.26,1109c.4,5.51,1.16,10,1.76,14.91l2.1,14.37,4.51,28.67c3.14,19.08,6.57,38.11,10,57.14q10.49,57,22.28,113.84c15.77,75.72,33.59,151,52.54,226s39.78,149.53,62.3,223.55S791,1935.21,817,2008.1c51.79,145.87,111.57,289.06,181.22,427.45,35.55,68.81,72.92,136.73,114.14,202.34,41.68,65.28,86.16,128.83,135.08,188.85a3,3,0,0,0,4.8-3.75l0,0a2245.1,2245.1,0,0,1-129.11-191.67c-39.94-65.9-76-134.06-110.25-203.06s-65.63-139.44-95.45-210.5-56.63-143.38-83.06-215.8c-52.24-145.11-96.71-292.94-137.08-441.85q-30-111.77-55.76-224.66-13-56.4-24.81-113.07l-11.32-56.76L600,1137.16l-2.52-14.23c-.75-4.67-1.64-9.68-2.13-13.8l-.08-.68a3,3,0,0,0-6,.57Z" transform="translate(-465.43 -455)"/><path class="cls-4" d="M1143.33,489.91c8.41-15.12,31.56-8.9,31.18,8.4-3.67,167.26.47,606.13,129.71,877.69,210.43,442.15,249.54,1068.05-41.3,1297.55C1262.92,2673.55,226.67,2137.5,1143.33,489.91Z" transform="translate(-465.43 -455)"/><path class="cls-3" d="M1106.77,719c-1.15,5.17-1.68,9.51-2.46,14.16l-2,13.75-3.69,27.52c-2.33,18.35-4.39,36.74-6.43,55.12q-6,55.18-10.65,110.48c-6.21,73.74-10.41,147.64-13.5,221.58s-4.32,148-3.88,222,2.08,148.08,6.07,222c7.7,147.9,23.47,295.53,49.61,441.44,13.84,72.81,29.58,145.29,49.5,216.7,20.44,71.24,43.91,141.65,72.41,210a3,3,0,0,0,5.53-2.17v0a2150.51,2150.51,0,0,1-66-211c-18.63-71.32-33.11-143.67-45.67-216.28s-22.15-145.78-30.1-219.07-12.81-146.93-17.29-220.55c-8.33-147.32-8.78-295-5.2-442.59q2.91-110.69,10.12-221.23,3.47-55.26,8.07-110.46l5.09-55.13,2.82-27.53,1.56-13.74c.59-4.49,1.14-9.33,1.81-13.22l.12-.66a2.95,2.95,0,0,0-5.78-1.14Z" transform="translate(-465.43 -455)"/><path class="cls-5" d="M2149.49,3136.58s156.26-1370.3,743.81-2174c39.49-54,125.91-44.57,152.23,16.86C3221.5,1390.19,3620.41,2651.21,2149.49,3136.58Z" transform="translate(-465.43 -455)"/><path class="cls-6" d="M2276.73,3035.12c-3,3.56,2.16,8.09,5.61,5,127.3-115.84,605.89-668.61,679-1671.76.24-3.22-4.75-3.88-5.27-.7C2917.48,1602.57,2747.72,2472,2276.73,3035.12Z" transform="translate(-465.43 -455)"/><path class="cls-7" d="M2216.57,760.05,2122,855.93a31.85,31.85,0,0,0-8.59,28.34l25.41,132.24c5,25.89-21.91,46.25-45.49,34.45L1973,990.69a31.79,31.79,0,0,0-29.6.59l-117.92,65c-23.08,12.73-50.76-6.54-46.82-32.61l20.12-133.14a31.84,31.84,0,0,0-9.71-28l-98.28-92c-19.24-18-9.47-50.3,16.55-54.61l132.84-22a31.82,31.82,0,0,0,23.6-17.88l57.18-121.91c11.19-23.87,44.91-24.54,57-1.13l62,119.53a31.79,31.79,0,0,0,24.3,16.92l133.61,16.71C2224,709.41,2235.08,741.26,2216.57,760.05Z" transform="translate(-465.43 -455)"/><path class="cls-8" d="M1948.26,957.44a62.5,62.5,0,0,0-19.76,6.9l-77,42.46A24.11,24.11,0,0,1,1816,982.1l13.14-87a62.61,62.61,0,0,0-19.1-55L1745.87,780a24.1,24.1,0,0,1,12.54-41.37l44.33-7.34,1.12,6.74-44.33,7.35a17.26,17.26,0,0,0-9,29.63l64.18,60.12a69.39,69.39,0,0,1,21.19,61l-13.13,87a17.26,17.26,0,0,0,25.4,17.69l77-42.46a69.38,69.38,0,0,1,21.91-7.65Z" transform="translate(-465.43 -455)"/><path class="cls-8" d="M2098.65,989.72a24.14,24.14,0,0,1-33.28,12.82l-60.16-30.11,3.07-6.12,60.16,30.11a17.25,17.25,0,0,0,24.67-18.69l-16.58-86.35a70.09,70.09,0,0,1,18.73-61.84L2157,766.92a17.27,17.27,0,0,0-10.15-29.26l-87.27-10.91a69.37,69.37,0,0,1-53-36.93l-40.5-78.06a17.26,17.26,0,0,0-30.95.61L1897.79,692a69.16,69.16,0,0,1-15.93,21.67l-4.62-5a61.86,61.86,0,0,0,14.35-19.54l37.34-79.62a24.1,24.1,0,0,1,43.22-.86l40.49,78.07A62.56,62.56,0,0,0,2060.43,720l87.26,10.92a24.11,24.11,0,0,1,14.18,40.84l-61.74,62.62a63.14,63.14,0,0,0-16.88,55.75l16.58,86.35A24,24,0,0,1,2098.65,989.72Z" transform="translate(-465.43 -455)"/><rect class="cls-8" x="1803.12" y="729.06" width="26.62" height="6.84" transform="translate(-560.69 -148.39) rotate(-9.4)"/><path class="cls-9" d="M1643.3,854.37l-48.75,107.75a28,28,0,0,0,1.54,26l61.13,101.25c12,19.82-4,44.77-27,42.21l-117.55-13.06a27.93,27.93,0,0,0-24.21,9.49L1411,1217.41c-15.15,17.51-43.82,10-48.5-12.64l-23.9-115.84a28,28,0,0,0-16.5-20.1l-109-46c-21.34-9-23.09-38.57-3-50L1313,914.3a28,28,0,0,0,14-21.91l10-117.85c2-23.08,29.55-33.88,46.67-18.28l87.42,79.66a27.93,27.93,0,0,0,25.17,6.56l115.18-26.85C1634.05,810.37,1652.85,833.26,1643.3,854.37Z" transform="translate(-465.43 -455)"/><path class="cls-8" d="M1482.2,1098.6a54.75,54.75,0,0,0-14.19,11.7l-50.55,58.4a21.17,21.17,0,0,1-36.74-9.58l-15.61-75.65a55,55,0,0,0-32.47-39.54l-71.17-30a21.17,21.17,0,0,1-2.24-37.9l34.3-19.53,3,5.22-34.3,19.53a15.17,15.17,0,0,0,1.61,27.15l71.17,30a61,61,0,0,1,36,43.86l15.62,75.65a15.16,15.16,0,0,0,26.31,6.86l50.55-58.4a60.61,60.61,0,0,1,15.73-13Z" transform="translate(-465.43 -455)"/><path class="cls-8" d="M1616,1079.49a21.22,21.22,0,0,1-23.53,20.67l-58.73-6.52.66-6,58.74,6.52a15.16,15.16,0,0,0,14.65-22.91l-39.92-66.12a61.54,61.54,0,0,1-3.36-56.65l31.84-70.37a15.16,15.16,0,0,0-17.26-21l-75.24,17.53a60.92,60.92,0,0,1-54.9-14.31l-57.1-52a15.17,15.17,0,0,0-25.33,9.92l-6.56,77a60.56,60.56,0,0,1-6.54,22.7l-5.33-2.74a54.8,54.8,0,0,0,5.88-20.47l6.57-77a21.17,21.17,0,0,1,35.35-13.85l57.1,52a54.94,54.94,0,0,0,49.5,12.9l75.23-17.53a21.17,21.17,0,0,1,24.1,29.34L1569.93,951a55.51,55.51,0,0,0,3,51.08l39.92,66.12A21.14,21.14,0,0,1,1616,1079.49Z" transform="translate(-465.43 -455)"/><rect class="cls-8" x="1293.48" y="950.29" width="23.39" height="6" transform="translate(-766.14 315.55) rotate(-29.65)"/><path class="cls-10" d="M1213.38,1120.92l-19.8,111.46a26.77,26.77,0,0,0,7.56,23.72l80.59,79.5c15.79,15.57,6.87,42.48-15.09,45.54l-112.12,15.61a26.75,26.75,0,0,0-20.23,14.51l-50.71,101.22c-9.92,19.82-38.27,19.66-48-.28l-49.49-101.81a26.76,26.76,0,0,0-20.06-14.76l-111.93-16.94c-21.92-3.32-30.52-30.33-14.55-45.71l81.53-78.54a26.74,26.74,0,0,0,7.83-23.63l-18.47-111.69c-3.62-21.87,19.42-38.4,39-28l99.88,53.27a26.77,26.77,0,0,0,24.9.15l100.51-52.09C1194.43,1082.29,1217.26,1099.09,1213.38,1120.92Z" transform="translate(-465.43 -455)"/><path class="cls-8" d="M1121.56,1385.49a52.42,52.42,0,0,0-10.4,14.19l-33.11,66.1a20.26,20.26,0,0,1-36.34-.21l-32.33-66.49a52.59,52.59,0,0,0-39.45-29L896.83,1359a20.26,20.26,0,0,1-11-34.63l27.2-26.2,4,4.13-27.2,26.21a14.51,14.51,0,0,0,7.89,24.81l73.11,11.06a58.37,58.37,0,0,1,43.75,32.19l32.33,66.49a14.51,14.51,0,0,0,26,.16l33.11-66.1a58.19,58.19,0,0,1,11.53-15.74Z" transform="translate(-465.43 -455)"/><path class="cls-8" d="M1241.12,1336.2a20.29,20.29,0,0,1-16.94,24.73l-56,7.81-.79-5.7,56-7.8a14.51,14.51,0,0,0,8.19-24.71l-52.63-51.91a58.94,58.94,0,0,1-16.48-51.77l12.93-72.79a14.51,14.51,0,0,0-21-15.42l-65.65,34a58.31,58.31,0,0,1-54.31-.33l-65.24-34.78a14.51,14.51,0,0,0-21.15,15.17l12.07,73a57.92,57.92,0,0,1-.71,22.6l-5.6-1.29a52.14,52.14,0,0,0,.63-20.37l-12.06-72.95a20.25,20.25,0,0,1,29.52-21.18l65.24,34.78a52.56,52.56,0,0,0,49,.3l65.65-34a20.27,20.27,0,0,1,29.28,21.54l-12.93,72.79a53.08,53.08,0,0,0,14.86,46.66l52.63,51.92A20.21,20.21,0,0,1,1241.12,1336.2Z" transform="translate(-465.43 -455)"/><rect class="cls-8" x="911.88" y="1289.59" width="22.38" height="5.75" transform="translate(-1103.78 546.81) rotate(-43.92)"/><path class="cls-11" d="M2662.63,1036l-109.09,30.21a26.77,26.77,0,0,0-18.15,17l-37,107c-7.24,21-35.36,24.52-47.59,6l-62.45-94.42a26.76,26.76,0,0,0-21.82-12l-113.18-2.09c-22.17-.4-34.25-26-20.44-43.4l70.51-88.57a26.77,26.77,0,0,0,4.66-24.45l-33-108.3c-6.46-21.2,14.2-40.61,35-32.84l106,39.68a26.75,26.75,0,0,0,24.7-3.12l92.8-64.84c18.17-12.7,43,1,42,23.1l-5,113.1a26.75,26.75,0,0,0,10.6,22.52l90.35,68.22C2689.31,1002.23,2684,1030.08,2662.63,1036Z" transform="translate(-465.43 -455)"/><path class="cls-8" d="M2384.34,1067.26a52.67,52.67,0,0,0-17.29-3.26l-73.92-1.36a20.27,20.27,0,0,1-15.48-32.88l46-57.85a52.59,52.59,0,0,0,9.17-48.1l-21.55-70.73a20.26,20.26,0,0,1,26.49-24.88l35.38,13.24-2,5.39-35.38-13.25a14.52,14.52,0,0,0-19,17.83l21.55,70.72a58.34,58.34,0,0,1-10.17,53.36l-46,57.85a14.51,14.51,0,0,0,11.08,23.55l73.92,1.36a58.43,58.43,0,0,1,19.18,3.62Z" transform="translate(-465.43 -455)"/><path class="cls-8" d="M2480.37,1153.87a20.29,20.29,0,0,1-29.62-4.62l-31.2-47.18,4.8-3.17,31.2,47.18a14.51,14.51,0,0,0,25.82-3.27l24.14-69.87a58.92,58.92,0,0,1,39.59-37.2l71.25-19.73a14.51,14.51,0,0,0,4.87-25.57l-59-44.56a58.34,58.34,0,0,1-23.13-49.14l3.24-73.87a14.5,14.5,0,0,0-22.81-12.53l-60.61,42.35a58,58,0,0,1-20.69,9.11l-1.25-5.61a52.22,52.22,0,0,0,18.65-8.22l60.61-42.35a20.26,20.26,0,0,1,31.84,17.5L2544.83,897a52.59,52.59,0,0,0,20.85,44.3l59,44.56a20.27,20.27,0,0,1-6.81,35.7l-71.25,19.73a53.08,53.08,0,0,0-35.68,33.53l-24.15,69.88A20.19,20.19,0,0,1,2480.37,1153.87Z" transform="translate(-465.43 -455)"/><rect class="cls-8" x="2379.78" y="836.87" width="5.75" height="22.38" transform="matrix(0.35, -0.94, 0.94, 0.35, 287.51, 2327.04)"/><path class="cls-12" d="M3007.8,1395.92l-113.13-4a26.71,26.71,0,0,0-22.43,10.79l-67.45,90.93c-13.21,17.8-41.1,12.73-47.2-8.58l-31.14-108.84a26.76,26.76,0,0,0-17.2-18l-107.31-36c-21-7.06-24.82-35.16-6.43-47.54l93.89-63.25a26.77,26.77,0,0,0,11.8-21.92l1.12-113.2c.22-22.17,25.76-34.47,43.22-20.81l89.17,69.75a26.8,26.8,0,0,0,24.5,4.45l108-33.92c21.15-6.64,40.74,13.86,33.14,34.68l-38.77,106.36a26.75,26.75,0,0,0,3.33,24.67l65.64,92.24C3043.4,1371.74,3030,1396.71,3007.8,1395.92Z" transform="translate(-465.43 -455)"/><path class="cls-8" d="M2733,1342a52.1,52.1,0,0,0-15.51-8.31l-70.08-23.55a20.26,20.26,0,0,1-4.87-36l61.32-41.31a52.62,52.62,0,0,0,23.21-43.12l.73-73.93a20.27,20.27,0,0,1,32.75-15.76l29.76,23.27-3.54,4.53L2757,1104.55a14.51,14.51,0,0,0-23.46,11.29l-.73,73.93a58.37,58.37,0,0,1-25.75,47.83l-61.31,41.31a14.51,14.51,0,0,0,3.48,25.79l70.08,23.55a58.16,58.16,0,0,1,17.2,9.21Z" transform="translate(-465.43 -455)"/><path class="cls-8" d="M2798.52,1453.5a20.31,20.31,0,0,1-26.86-13.32l-15.56-54.38,5.53-1.58,15.56,54.38a14.52,14.52,0,0,0,25.61,4.65l44-59.38a59,59,0,0,1,48.95-23.56l73.88,2.63A14.52,14.52,0,0,0,2982,1340l-42.87-60.24a58.34,58.34,0,0,1-7.27-53.82l25.32-69.47a14.51,14.51,0,0,0-18-18.82l-70.55,22.16a58.35,58.35,0,0,1-22.48,2.46l.5-5.73a52.23,52.23,0,0,0,20.26-2.22l70.54-22.16a20.27,20.27,0,0,1,25.11,26.28l-25.32,69.46a52.57,52.57,0,0,0,6.55,48.52l42.87,60.25a20.27,20.27,0,0,1-17.23,32l-73.88-2.62a53.09,53.09,0,0,0-44.13,21.24l-44,59.37A20.29,20.29,0,0,1,2798.52,1453.5Z" transform="translate(-465.43 -455)"/><rect class="cls-8" x="2794.47" y="1121.26" width="5.75" height="22.38" transform="translate(-283.69 2182.84) rotate(-51.96)"/><circle class="cls-13" cx="1474.72" cy="1770.48" r="997.76"/><circle class="cls-14" cx="1474.72" cy="1770.48" r="964.58"/><path class="cls-8" d="M1051,2187.36h-.48a9.13,9.13,0,0,1-8.65-9.59,906.53,906.53,0,0,1,13.07-113,9.14,9.14,0,0,1,18,3.25,887.16,887.16,0,0,0-12.81,110.69A9.12,9.12,0,0,1,1051,2187.36Z" transform="translate(-465.43 -455)"/><path class="cls-8" d="M1144.75,1833.92a9,9,0,0,1-4.1-1,9.12,9.12,0,0,1-4-12.26c154-305.17,461.94-494.75,803.54-494.75a908.55,908.55,0,0,1,162.27,14.6,9.13,9.13,0,1,1-3.27,18,889.63,889.63,0,0,0-159-14.3c-334.67,0-636.32,185.73-787.23,484.7A9.14,9.14,0,0,1,1144.75,1833.92Z" transform="translate(-465.43 -455)"/><circle class="cls-15" cx="1495.73" cy="1791.5" r="816.4"/><path class="cls-16" d="M2211.12,1938c0,138.24-112.07,287.47-250.3,287.47s-250.3-149.23-250.3-287.47,112.06-236.31,250.3-236.31S2211.12,1799.77,2211.12,1938Z" transform="translate(-465.43 -455)"/><path class="cls-17" d="M1650.19,2757.71h611a147.9,147.9,0,0,0,140.87-102.84L2435,2552.11c24.07-75.25-15.07-156.71-89.27-183.84-248.66-90.92-505.79-79.25-769.19,8.39-73.79,24.55-114.74,103.48-94.38,178.54l25.32,93.33A147.9,147.9,0,0,0,1650.19,2757.71Z" transform="translate(-465.43 -455)"/><path class="cls-18" d="M816.58,2474.58c-13.28,14.16-32.82,26.41-46.57,34,20.54,25.39,48.33,50.81,85.12,75.69l10.52,23.63,33.74-40.43S838.86,2537.38,816.58,2474.58Z" transform="translate(-465.43 -455)"/><path class="cls-19" d="M997.12,3241.45a8.21,8.21,0,0,0-.23-2.19C986,3195.94,931.73,3169,931.73,3169l-21.49,1.69c-12.35,38.18-10.77,61.6-8.78,72a8.15,8.15,0,0,0,.22.85C919.41,3245.1,955.9,3246.14,997.12,3241.45Z" transform="translate(-465.43 -455)"/><path class="cls-20" d="M901.68,3243.52a9.33,9.33,0,0,0,6.82,6.89c25.22,5.3,65.3,1,82.13-1.17a7.83,7.83,0,0,0,6.49-7.79C955.9,3246.14,919.41,3245.1,901.68,3243.52Z" transform="translate(-465.43 -455)"/><path class="cls-21" d="M901.6,3138.63l9.1,43.82a7.17,7.17,0,0,0,6.13,5.89,60.85,60.85,0,0,0,14.1-.22c4.69-.69,8-5.47,7.13-10.59l-6.33-38.9Z" transform="translate(-465.43 -455)"/><path class="cls-22" d="M1090.19,3243.08c-23.74-.66-36-3.46-42.36-6,0,2.36,0,4.76.08,7.25a4.67,4.67,0,0,0,4.47,4.76l130.32-.84c4.16,0,6.59-4.85,4.79-8.66C1170.4,3241,1126.88,3244.11,1090.19,3243.08Z" transform="translate(-465.43 -455)"/><path class="cls-23" d="M1187.49,3239.54a6.59,6.59,0,0,0-.52-1c-11.51-16.09-40.82-48.11-98.74-62l-27.79-.87s-12.37,21.5-12.61,61.34c6.35,2.59,18.62,5.39,42.36,6C1126.88,3244.11,1170.4,3241,1187.49,3239.54Z" transform="translate(-465.43 -455)"/><path class="cls-24" d="M1055.29,3133.57c.3,2.08,4.11,33.56,5.59,45.76a6,6,0,0,0,5.1,5.46c4.73.57,12.39,1.08,19.08-.29a8.21,8.21,0,0,0,6.23-8.25v-49.41Z" transform="translate(-465.43 -455)"/><path class="cls-25" d="M1033,2559.08s67,254.7,65.81,575.22a12.39,12.39,0,0,1-9.84,12.09c-8.43,1.78-20.82,3.89-31.07,3.6a11.52,11.52,0,0,1-11-9.61c-9.4-55.11-63.33-365.57-94.05-416,0,0-20.22,276.51-13.76,420a6.8,6.8,0,0,1-6,7.07,114.55,114.55,0,0,1-24.94-.07,9.1,9.1,0,0,1-8.11-7.72c-6.69-46.64-45.22-324.27-43.58-524.25.09-11.28,29.83-60.32,29.83-60.32Z" transform="translate(-465.43 -455)"/><path class="cls-26" d="M1126.2,2250.83a279.54,279.54,0,0,1-28.38-43.31c-11.13-21-.89,13.62-3.93-10.13-83.37-60.16-208.9-29.71-257.46-23.6a64.92,64.92,0,0,0-41,22c-41.61,48.15-132.91,180-25.44,312.83,13.75-7.63,33.29-19.88,46.57-34-11.89-33.52-12.87-76.35,12-128.88a121.36,121.36,0,0,0,3.18,12.34c34.35,108.81,36.18,199.35,36.1,220.22a6.9,6.9,0,0,0,4.33,6.44c45.2,18.11,132.21,7.33,161.41,3a9.83,9.83,0,0,0,8.22-11.15c-14.33-103.85,59.23-274.69,78.66-317.48A28.46,28.46,0,0,1,1126.2,2250.83Z" transform="translate(-465.43 -455)"/><path class="cls-27" d="M914.55,2086.35l-8.71,89s50.07,15.08,86.49-10.62l-25.6-80.89Z" transform="translate(-465.43 -455)"/><path class="cls-28" d="M972.65,1984.9c1.21,1.14,50.86,98.64,50.86,98.64l-56.28,27.17-60.79-85.42S952.48,1965.91,972.65,1984.9Z" transform="translate(-465.43 -455)"/><path class="cls-29" d="M931.34,2027.65a9,9,0,0,0,.68,7.89l28.06,46.79a8.9,8.9,0,0,0,1.54,1.91c3.34,3.11,14.78,12.16,23.61-.16,7.54-10.5,14.6-20,22.18-24a9,9,0,0,1,12.11,4c4.62,9.17,13.58,27.85,19.21,45.57a9,9,0,0,1-5.2,11c-11.4,4.61-33.92,13-53.91,15.72a9,9,0,0,1-8.48-3.61c-8.6-11.78-32.84-44.7-41.11-52.94-7.68-7.65-21.86-4.76-28.25-2.93a9,9,0,0,1-7.18-.94c-6.48-3.9-17.79-13.63-7.44-30.09a9,9,0,0,0-2.78-12.21c-7.24-4.76-15.1-13.7-7.61-28.17,7.57-14.66,21.1-16,30.32-14.85a9.33,9.33,0,0,0,9.78-5.43,5.93,5.93,0,0,1,4.63-3.65,8.72,8.72,0,0,0,7-10.24c-1.62-8.29-.4-19.06,12.84-26.34,24.28-13.35,45.55,8.4,51,26.77s-21.74,31.34-38.82,33.5C941,2006.81,934.11,2020.5,931.34,2027.65Z" transform="translate(-465.43 -455)"/><path class="cls-30" d="M940.57,2097s-10.79-31.6-24.61-30.44-24.7,14.93-7.57,30.41C929.69,2116.2,940.57,2097,940.57,2097Z" transform="translate(-465.43 -455)"/><path class="cls-31" d="M824.07,2337.57c-18.21-49.86-11.61-110.06-11.54-110.67l5,.58c-.06.59-6.53,59.64,11.27,108.35Z" transform="translate(-465.43 -455)"/><path class="cls-32" d="M950.4,2717.91A2.52,2.52,0,0,1,948,2716c-5.56-21.43-47.18-45-47.6-45.23a2.53,2.53,0,0,1,2.48-4.4c1.79,1,43.92,24.85,50,48.36a2.53,2.53,0,0,1-1.81,3.08A2.34,2.34,0,0,1,950.4,2717.91Z" transform="translate(-465.43 -455)"/><path class="cls-33" d="M1295.42,2278.82c-94.28,14.15-155.74-45.34-201.53-81.43-60.46-47.65-107.51-24.47-107.51-24.47L1050.86,2296c96.28,90.78,195,70.62,257.25,41.2A120,120,0,0,0,1295.42,2278.82Z" transform="translate(-465.43 -455)"/><path class="cls-34" d="M1428,2222.57l-31.27,16.82c-37.5,22.84-71.06,34.9-101.26,39.43a120,120,0,0,1,12.69,58.36c39.62-18.73,64.46-41.2,64.46-41.2C1443.4,2253.74,1428,2222.57,1428,2222.57Z" transform="translate(-465.43 -455)"/><path class="cls-35" d="M1520.06,2266.63a23.05,23.05,0,0,0-13.48-14.75l-63.46-25.52s-1-8.14,13.41-13.67,11-21.62,11-21.62-19.63,8.95-48.36,23.15c-16.44,8.12-25.65,22.46-30.54,33.25L1405,2269c39.11,11.74,78.69,14,118.6,9.33Z" transform="translate(-465.43 -455)"/><path class="cls-36" d="M1306.58,1699.17c96.8,21.2,197.25,92.57,198.42,200.08,1,91.42-98.91,131.33-160.37,148.91a73,73,0,0,0-41.47,30.94c-23,36-74.14,97.56-142.61,69.79-5-2-3.83-9.43,1.53-9.91,17.06-1.51,40.82-7.06,55.15-25.12,19.52-24.6,6.58-61.23-23.78-69.25-57.46-15.16-168.28-62.34-172.62-201.1C1015,1655.85,1306.58,1699.17,1306.58,1699.17Z" transform="translate(-465.43 -455)"/><path class="cls-8" d="M1269.31,1854.25s-12.55-61.38-73-43.17c-57.26,17.25-28.2,94.89,60.81,135.2a32.62,32.62,0,0,0,30-1.61c34.21-20.06,112.83-75,58.43-130.22C1310.4,1778.79,1269.31,1854.25,1269.31,1854.25Z" transform="translate(-465.43 -455)"/><path class="cls-8" d="M1459.68,1827.18a6,6,0,0,0,4.39-9c-44.81-76.45-131.63-101.85-196.57-109.69a6,6,0,1,0-1.43,11.88c62.25,7.52,145.35,31.64,187.68,103.86A6,6,0,0,0,1459.68,1827.18Z" transform="translate(-465.43 -455)"/><path class="cls-8" d="M1483.91,1908a6,6,0,0,0,5.21-5.84c0-.49.15-12.27-3.79-30a6,6,0,0,0-11.68,2.6c3.63,16.31,3.5,27,3.5,27.16a6,6,0,0,0,5.89,6.08A6.35,6.35,0,0,0,1483.91,1908Z" transform="translate(-465.43 -455)"/><path class="cls-37" d="M2838,1962.52s-135.26,173.18,19.07,349.33l58-5.41s-111.69-179.34-61.94-322.29l82.18,6,45.45-29.63Z" transform="translate(-465.43 -455)"/><path class="cls-38" d="M2439.11,1573.16,3081.4,1540c12.59-.65,23.2,7,23.57,16.89l14.51,388.94c.37,10-9.75,18.47-22.44,18.73-116.29,2.45-632.57,13.37-655.3,15.13-22.47,1.75-24.16-311.13-24.23-388.35C2417.5,1581.79,2427,1573.79,2439.11,1573.16Z" transform="translate(-465.43 -455)"/><path class="cls-8" d="M2452,1965.6l-.44-1.63c-9.68-35.56-16-182-16.23-373a4.5,4.5,0,0,1,4.51-4.22l642.29-33.16a5.06,5.06,0,0,1,3.26.93,3.9,3.9,0,0,1,1.69,3.07l14.51,388.93a4.47,4.47,0,0,1-4.51,4.37H3097c-92.51,1.95-558.32,11.78-643.25,14.62Zm630.42-407.71h-.08l-642.28,33.16a.74.74,0,0,0-.52.18c.24,187.62,6.37,332.07,15.72,370,89.31-2.91,549.62-12.63,641.58-14.56h.08l-14.11-388.88C3082.85,1557.93,3082.71,1557.89,3082.46,1557.89Z" transform="translate(-465.43 -455)"/><path class="cls-8" d="M2859,1618.15c.44,9.84,4.07,17.66,8.11,17.48l178.53-8c4-.18,6.95-8.3,6.52-18.13s-4.07-17.66-8.11-17.48l-178.53,8C2861.43,1600.2,2858.51,1608.32,2859,1618.15Z" transform="translate(-465.43 -455)"/><path class="cls-8" d="M2859.73,1666.59c.21,4.92,3.67,8.76,7.7,8.58l178.53-8c4-.18,7.14-4.31,6.92-9.22s-3.67-8.76-7.71-8.58l-178.53,7.95C2862.6,1657.54,2859.51,1661.67,2859.73,1666.59Z" transform="translate(-465.43 -455)"/><path class="cls-8" d="M2859.73,1703.67c.21,4.92,3.67,8.76,7.7,8.58l178.53-8c4-.18,7.14-4.31,6.92-9.23s-3.67-8.76-7.71-8.58l-178.53,8C2862.6,1694.63,2859.51,1698.76,2859.73,1703.67Z" transform="translate(-465.43 -455)"/><path class="cls-8" d="M2615.13,1919.46h-7.19a8.56,8.56,0,0,1-8.46-7.57l-15.55-134a8.56,8.56,0,0,1,7.56-9.49c.13,0,12.88-1.52,23.43-8.5,3.53-2.34,7.6-13.12,11.2-22.64,5.55-14.68,12.45-33,25.13-47.44,20.55-23.48,17.14-58.78,16.68-62.73-1-8.66,5.69-21.4,16.15-25.46,6.4-2.49,19.2-3.77,33.15,15.54,17.43,24.13,9.82,56.61,4.79,78.1-1.57,6.68-3,13-3.24,16.89a2.61,2.61,0,0,0,0,.66c3.48,2.62,23.85-.54,36-2.42,6.36-1,12.85-2,19.13-2.72,22.13-2.57,48.14-1.61,53,28.82,2,12.58-3.35,22-8.77,28,9.77,8.37,14.82,17.5,15.06,27.25.22,8.83-3.69,16.11-7.68,21.2a31.82,31.82,0,0,1,9.84,30.4,37.65,37.65,0,0,1-11.75,20.46,19.1,19.1,0,0,1,4.89,13.2c-.41,14.85-18.33,29.68-42.6,35.27C2756.57,1919,2645,1919.46,2615.13,1919.46Zm-13.3-135.71,13.76,118.6c29.92,0,139.38-.53,166.53-6.78,19.31-4.44,29.22-14.63,29.34-19.08.05-1.71-3.16-3.8-8-5.2a8.55,8.55,0,0,1,1.6-16.73c5.88-.53,12.1-7.22,13.58-14.61,1.07-5.35.17-12.87-10.22-18.35a8.55,8.55,0,0,1-1-14.52s9-6.82,8.72-15c-.25-8-9-15.22-16.31-19.91a8.56,8.56,0,0,1,.36-14.61c.43-.25,11.67-7.08,9.86-18.36-1.36-8.52-2.92-18.17-34.15-14.54-6.06.7-12.34,1.68-18.48,2.63-22.83,3.53-40.87,6.34-50.37-2.22-2.65-2.38-5.73-6.71-5.38-13.76.27-5.45,1.85-12.17,3.67-19.94,4.58-19.58,10.86-46.39-2-64.2-5-6.9-9.91-10.64-12.87-9.69s-5.54,6-5.57,7.82c.54,4.53,4.59,46.75-20.81,75.77-10.64,12.16-16.68,28.13-22,42.23s-9.62,25.46-17.76,30.85A74.29,74.29,0,0,1,2601.83,1783.75Z" transform="translate(-465.43 -455)"/><path class="cls-39" d="M2912.13,2810.43s109.59,238.87,167.09,337.8c0,0,11.42,62.26,0,81.83l-9.73,4.33,45.42-1.35s4-83.74.89-88.42-9.46-4.37-9.46-4.37-19.47-154.31-75.88-187.24l-54.66-188.28Z" transform="translate(-465.43 -455)"/><path class="cls-40" d="M3050.09,3246.12c-.07,1.09,35.47.59,54.78.24a15.36,15.36,0,0,0,14.72-12.11l14.58-76.59a13.79,13.79,0,0,0-10.46-16l-8.14-1.86s-11.61,15.93-8,30.92,6.9,53.83-2.33,58.35-35.8,5.32-35.8,5.32S3050.7,3236.25,3050.09,3246.12Z" transform="translate(-465.43 -455)"/><path class="cls-41" d="M2808.25,3247.51a4,4,0,0,0,2,7.49c32.3-.33,104.69-1.35,111.12-4,8.31-3.46-3-33.3-15-43.4l-65.84,21.49Z" transform="translate(-465.43 -455)"/><path class="cls-42" d="M2787.81,2795.2s70.83,342.61,90.86,409.45l-47.39,29.74s23.75-4,41.36-5.32,33.81-21.49,33.81-21.49l-5.68-9s-17.76-340.75-13.43-379.45Z" transform="translate(-465.43 -455)"/><path class="cls-43" d="M2612,1996s-9.77,178.23,152.49,269.3l-39.07,89.1s-146.9-88.86-141.47-331.21a28.08,28.08,0,0,0-6.9-19L2545.84,1968a56.06,56.06,0,0,1-11.92-50.19l4.11-16.43a8.52,8.52,0,0,1,12.54-5.3l3.27,1.9a57.34,57.34,0,0,1,23.54,26.16l15.33,34.27a33,33,0,0,0,32.9,19.37l9.48-.82Z" transform="translate(-465.43 -455)"/><path class="cls-44" d="M2758.85,2252c27.15,7.53,119.12,31.72,176.53,30.73l-35.25,198.93,2.81,32.44-114.94-.51s-32.35-75.14-57.88-112.6c-7.37-10.82-1.89-23.73,2.29-36.14l-5.74-3.82a15.63,15.63,0,0,1-6.19-17.87l28-85.63A8.54,8.54,0,0,1,2758.85,2252Z" transform="translate(-465.43 -455)"/><path class="cls-45" d="M2778.79,2496.6l2.26,19.66s-32.48,97.27,16.24,324.45c0,0,105.52,29.9,192.24-41.63,0,0-24.46-214.43-31.14-224.42-33.28-49.75-55.45-60.57-55.45-60.57l-1-21.47S2809.18,2509.39,2778.79,2496.6Z" transform="translate(-465.43 -455)"/><path class="cls-46" d="M2823.78,2268c-.4-.53,24-73.66,24-73.66l34.95,3.17,13.65,83S2841.61,2291.55,2823.78,2268Z" transform="translate(-465.43 -455)"/><path class="cls-47" d="M2874.36,2079c-2.33,1.46-74.68,31.36-59.14,106.47a14.12,14.12,0,0,0,8,10c10.62,4.74,33.48,12.85,60.82,10.07,37.9-3.85,62.73-70,61.68-89.24S2897.46,2064.65,2874.36,2079Z" transform="translate(-465.43 -455)"/><path class="cls-48" d="M2896.38,2049.83c-1.9.25-41.81,14.15-22,43.07s27.21,45.94,17.85,58.64c-8.52,11.57-27.42,5-25.77,29a13.51,13.51,0,0,1-5.75,12.21c-17.8,12.05-61.24,49.14-18.2,102a13.51,13.51,0,0,1,1.52,15.08c-12.61,22.6-39.08,88.83,56.76,125.56,94.71,36.3,128.91-25.61,138.46-50.35a13.22,13.22,0,0,1,13.07-8.36c10.4.49,25.15-1.24,24.47-15.15-.41-8.44-5.68-16-11.91-22.08a13.2,13.2,0,0,1,2.54-20.78,25.86,25.86,0,0,0,12.77-16c5.74-21.27-5.72-84.86-66.68-95.64-5.08-.9-10.41-5.67-11.15-10.78l0-.23a13.16,13.16,0,0,1,4.89-12.95c9.73-7.14,22.22-21.52,12.08-44.57-9-20.45-26.24-27.34-39.05-29.54a13.27,13.27,0,0,1-10.88-15.87C2973.67,2072.77,2969.91,2040.19,2896.38,2049.83Z" transform="translate(-465.43 -455)"/></svg>