<?xml version="1.0" encoding="utf-8"?>
<!-- Generator: Adobe Illustrator 25.1.0, SVG Export Plug-In . SVG Version: 6.00 Build 0)  -->
<svg version="1.1" id="Layer_1" xmlns="http://www.w3.org/2000/svg" xmlns:xlink="http://www.w3.org/1999/xlink" x="0px" y="0px"
	 viewBox="0 0 1765.9 1525.9" style="enable-background:new 0 0 1765.9 1525.9;" xml:space="preserve">
<style type="text/css">
	.st0{opacity:0.62;fill:url(#SVGID_1_);enable-background:new    ;}
	.st1{opacity:0.5;fill:url(#SVGID_2_);enable-background:new    ;}
	.st2{fill:url(#SVGID_3_);}
	.st3{fill:#FF8D44;}
	.st4{fill:#FF4858;}
	.st5{fill:#FF724C;}
	.st6{fill:#FF325F;}
	.st7{fill:#FF8F44;}
	.st8{fill:#FF5256;}
	.st9{fill:#FF9642;}
	.st10{fill:#FF7C49;}
	.st11{clip-path:url(#SVGID_6_);}
	.st12{filter:url(#Adobe_OpacityMaskFilter);}
	.st13{clip-path:url(#SVGID_7_);}
	.st14{clip-path:url(#SVGID_11_);}
	.st15{clip-path:url(#SVGID_12_);fill:url(#SVGID_13_);}
	.st16{clip-path:url(#SVGID_7_);mask:url(#SVGID_8_);fill:url(#SVGID_14_);}
	.st17{fill:url(#SVGID_15_);}
	.st18{opacity:0.5;fill:url(#SVGID_16_);enable-background:new    ;}
	.st19{fill:#FFFFFF;}
	.st20{clip-path:url(#SVGID_19_);}
	.st21{filter:url(#Adobe_OpacityMaskFilter_1_);}
	.st22{clip-path:url(#SVGID_20_);}
	.st23{clip-path:url(#SVGID_24_);}
	.st24{clip-path:url(#SVGID_25_);fill:url(#SVGID_26_);}
	.st25{clip-path:url(#SVGID_20_);mask:url(#SVGID_21_);fill:url(#SVGID_27_);}
	.st26{fill:url(#SVGID_28_);}
	.st27{opacity:0.7;fill:url(#SVGID_29_);}
	.st28{fill:url(#SVGID_30_);}
	.st29{fill:url(#SVGID_31_);}
	.st30{fill:#FFFFFF;fill-opacity:0.349;}
	.st31{fill:none;stroke:#582CDB;stroke-width:16.0004;stroke-linecap:round;stroke-linejoin:round;stroke-opacity:0.102;}
	.st32{fill:none;stroke:#0B2EA4;stroke-width:16.0004;stroke-opacity:0.102;}
	.st33{fill:#7222E9;fill-opacity:0.102;}
	.st34{fill:none;stroke:#162C95;stroke-width:16.0004;stroke-linecap:round;stroke-linejoin:round;stroke-opacity:0.102;}
	.st35{fill:#162C95;fill-opacity:0.102;}
	.st36{fill:#BF1F5F;}
	.st37{fill:#85146C;}
	.st38{fill:#BDE9FF;}
	.st39{fill:#A1D5FF;}
	.st40{fill:#A79BFF;}
	.st41{fill:#998AFA;}
	.st42{fill:#C5BBFF;}
	.st43{fill:#1932AD;}
	.st44{fill:#162C95;}
	.st45{fill:#5D7BFF;}
	.st46{fill:url(#SVGID_32_);}
	.st47{fill:#FFCC76;}
	.st48{fill:#F7E86E;}
	.st49{fill:#FBDC72;}
	.st50{fill:#E2A1B8;}
	.st51{fill:#D88FA6;}
	.st52{fill:#BC7A98;}
	.st53{fill:#DFD7FF;}
	.st54{fill:#A4A9EB;}
	.st55{fill:#CFD2FF;}
	.st56{fill:#E9EAFF;}
	.st57{fill:#EAE5FF;}
	.st58{fill:#F6F6FF;}
	.st59{fill:#3B56D5;}
	.st60{fill:#314BC7;}
	.st61{fill:#FFC0D1;}
	.st62{fill:#F49FBC;}
	.st63{fill:#7356FF;}
	.st64{fill:#470B3C;}
	.st65{fill:#300628;}
	.st66{fill:#30092B;}
	.st67{fill:#392CA2;}
	.st68{fill:#4F29C2;}
	.st69{fill:#7289FF;}
	.st70{fill:#1B378C;}
	.st71{fill:#183174;}
	.st72{fill:#3251AD;}
	.st73{fill:#7738F0;}
	.st74{fill:#92173C;}
	.st75{fill:none;}
</style>
<linearGradient id="SVGID_1_" gradientUnits="userSpaceOnUse" x1="421.3113" y1="-1839.1207" x2="-80.4364" y2="-226.9456" gradientTransform="matrix(1 0 0 1 694 1814)">
	<stop  offset="0" style="stop-color:#FF92E2"/>
	<stop  offset="0.4706" style="stop-color:#FF16AB"/>
	<stop  offset="1" style="stop-color:#BA30F3"/>
</linearGradient>
<path class="st0" d="M693.5,128.4c-135-37-327-110-465-10c-241,174-21,328-154,658s-57,639,362,717s609-205,885-147s402-170,328-464
	c-74-295,164-416,74-648c-54-138-246-237-440-222c-478,38-27,268-589,116H693.5z M961.5,84.4c5-13,4-28-2-42c-21-44-85-41-101,5
	c-5,13-4,28,2,42C881.5,133.4,945.5,130.4,961.5,84.4z M888.5,58.4c6-12,17-18,29-14c12,5,18,19,14,29
	C918.5,102.4,879.5,84.4,888.5,58.4z"/>
<linearGradient id="SVGID_2_" gradientUnits="userSpaceOnUse" x1="320.17" y1="-1259.3884" x2="45.0057" y2="-419.3149" gradientTransform="matrix(1 0 0 1 694 1814)">
	<stop  offset="0" style="stop-color:#F088D4"/>
	<stop  offset="0.4706" style="stop-color:#F0139F"/>
	<stop  offset="1" style="stop-color:#AE2BE4"/>
</linearGradient>
<path class="st1" d="M14.5,1048.4c-3,216,121,391,421,446c419,78,609-205,885-147c241,51,368-117,346-356c-28,14-56,37-73,74
	c-43,93-132,83-132,83s-307,16.8-833,2c-80-2.3-406.3-27.9-464-38.8c-69-13.1-84.5-6.5-151-63.2H14.5z"/>
<g>
	
		<linearGradient id="SVGID_3_" gradientUnits="userSpaceOnUse" x1="-426.3424" y1="-522.0627" x2="-372.6426" y2="-312.1631" gradientTransform="matrix(1 0 0 1 694 1814)">
		<stop  offset="0" style="stop-color:#FF9642"/>
		<stop  offset="1" style="stop-color:#FF1468"/>
	</linearGradient>
	<path class="st2" d="M322.5,1263.4c-65-17-132,21-150,86c-17,65,21,132,86,150c65,17,132-21,150-86
		C425.5,1348.4,387.5,1281.4,322.5,1263.4z"/>
	<path class="st3" d="M299.9,1343.6c-15.9-4.3-32.3,5.2-36.6,21.1s5.2,32.3,21.1,36.6c15.9,4.3,32.3-5.2,36.6-21.1
		C325.3,1364.2,315.9,1347.9,299.9,1343.6z"/>
	<path class="st4" d="M300.5,1351.4c-16-4-32,5-36,21c-1,3-1,6-1,8c-1-5-1-10,0-15c4-16,20-25,36-21c13,3,21,15,22,27
		C318.5,1361.4,311.5,1353.4,300.5,1351.4z"/>
	<path class="st5" d="M247.8,1426.1c-9.8-2.6-20,3.2-22.6,13.1c-2.6,9.8,3.2,20,13.1,22.6c9.8,2.6,20-3.2,22.6-13.1
		C263.5,1438.8,257.6,1428.7,247.8,1426.1z"/>
	<path class="st6" d="M248.5,1430.4c-10-3-20,3-22,13c0,2-1,3-1,5c-1-3-1-6,0-10c3-10,12-15,22-13c8,2,13,9,13,17c-2-6-6-11-13-13
		L248.5,1430.4z"/>
	<path class="st5" d="M360.6,1372.9c-9.8,2.6-15.7,12.8-13.1,22.6c2.6,9.8,12.8,15.7,22.6,13.1c9.8-2.6,15.7-12.8,13.1-22.6
		C380.6,1376.1,370.5,1370.2,360.6,1372.9z"/>
	<path class="st6" d="M363.5,1376.4c-10,3-15,12-13,22c0,2,1,3,2,5c-2-2-4-5-5-8c-3-10,3-20,13-22c8-2,16,1,20,8
		C376.5,1377.4,369.5,1375.4,363.5,1376.4z"/>
	<path class="st7" d="M211.4,1351c-9.9-2.6-20,3.2-22.7,13.1c-2.6,9.9,3.2,20,13.1,22.7c9.9,2.6,20-3.2,22.7-13.1
		C227.1,1363.8,221.3,1353.6,211.4,1351z"/>
	<path class="st8" d="M211.5,1355.4c-10-3-20,3-22,13c0,2-1,3-1,5c-1-3-1-6,0-10c3-10,13-15,22-13c8,2,13,9,13,17c-2-6-6-11-13-13
		L211.5,1355.4z"/>
	<path class="st9" d="M290.2,1267.9c-12.7-3.4-25.8,4.1-29.2,16.9c-3.4,12.7,4.1,25.8,16.9,29.2c12.7,3.4,25.8-4.1,29.2-16.9
		C310.4,1284.4,302.9,1271.3,290.2,1267.9z"/>
	<path class="st10" d="M290.5,1274.4c-12-3-25,4-29,16c-1,2-1,4-1,7c-1-4-1-8,0-12c3-12,16-20,29-16c10,3,17,12,17,22
		c-2-8-8-14-16-16V1274.4z"/>
</g>
<g>
	<g>
		<defs>
			<polygon id="SVGID_4_" points="-149.5,-164.6 -148.5,-164.6 -149.5,-163.6 			"/>
		</defs>
		<defs>
			<polygon id="SVGID_5_" points="-151.5,-166.6 -152.5,-166.6 -151.5,-167.6 			"/>
		</defs>
		<clipPath id="SVGID_6_">
			<use xlink:href="#SVGID_4_"  style="overflow:visible;"/>
		</clipPath>
		<clipPath id="SVGID_7_" class="st11">
			<use xlink:href="#SVGID_5_"  style="overflow:visible;"/>
		</clipPath>
		<defs>
			<filter id="Adobe_OpacityMaskFilter" filterUnits="userSpaceOnUse" x="407.5" y="322.4" width="622" height="345">
				<feColorMatrix  type="matrix" values="1 0 0 0 0  0 1 0 0 0  0 0 1 0 0  0 0 0 1 0"/>
			</filter>
		</defs>
		<mask maskUnits="userSpaceOnUse" x="407.5" y="322.4" width="622" height="345" id="SVGID_8_">
			<g class="st12">
				<g>
					<defs>
						<polygon id="SVGID_9_" points="-149.5,-164.6 -148.5,-164.6 -149.5,-163.6 						"/>
					</defs>
					<defs>
						<polygon id="SVGID_10_" points="-151.5,-166.6 -152.5,-166.6 -151.5,-167.6 						"/>
					</defs>
					<clipPath id="SVGID_11_" class="st13">
						<use xlink:href="#SVGID_9_"  style="overflow:visible;"/>
					</clipPath>
					<clipPath id="SVGID_12_" class="st14">
						<use xlink:href="#SVGID_10_"  style="overflow:visible;"/>
					</clipPath>
					
						<linearGradient id="SVGID_13_" gradientUnits="userSpaceOnUse" x1="-161.3092" y1="-1374.0319" x2="209.8519" y2="-1264.3616" gradientTransform="matrix(1 0 0 1 694 1814)">
						<stop  offset="0" style="stop-color:#FFFFFF"/>
						<stop  offset="1" style="stop-color:#000000"/>
					</linearGradient>
					<rect x="407.5" y="322.4" class="st15" width="622" height="345"/>
				</g>
			</g>
		</mask>
		
			<linearGradient id="SVGID_14_" gradientUnits="userSpaceOnUse" x1="-161.3092" y1="-1374.0319" x2="209.8519" y2="-1264.3616" gradientTransform="matrix(1 0 0 1 694 1814)">
			<stop  offset="0" style="stop-color:#FFFFFF"/>
			<stop  offset="1" style="stop-color:#000000"/>
		</linearGradient>
		<rect x="407.5" y="322.4" class="st16" width="622" height="345"/>
	</g>
</g>
<linearGradient id="SVGID_15_" gradientUnits="userSpaceOnUse" x1="155.8281" y1="1336.8687" x2="300.4946" y2="1486.8684" gradientTransform="matrix(1 0 0 -1 0 1526)">
	<stop  offset="0" style="stop-color:#9E1A99"/>
	<stop  offset="1" style="stop-color:#FF2D86"/>
</linearGradient>
<path class="st17" d="M165.5,33.4c-54,25-78,89-53,144c25,54,89,78,144,53c54-25,78-89,53-144C284.5,32.4,220.5,8.4,165.5,33.4z"/>
<linearGradient id="SVGID_16_" gradientUnits="userSpaceOnUse" x1="-546.8228" y1="-1610.7032" x2="-431.3388" y2="-1741.223" gradientTransform="matrix(1 0 0 1 694 1814)">
	<stop  offset="0" style="stop-color:#9E1A99"/>
	<stop  offset="1" style="stop-color:#FF2D86"/>
</linearGradient>
<path class="st18" d="M165.5,33.4c-54,25-78,89-53,144c6,14,15,25,25,35l0,0c4,3,8.4,6.1,12.4,9.1c-40-58-9.4-94.1,33.6-142.1
	c18-21,20-41,18-55c-2,0-3,0-5,0c2,13,0,32-17,52c-41,46-72,81-43,134c-59-80-7-100,29-144c15-18,10-29,5-35c-2,1-4,2-6,2H165.5z
	 M208.4,239.6c2,0,3.9,0.1,5.9,0.1c-12-11-22.8-25.3-19.8-45.3c8-41,42-38,78-83c14-18,18-35,18-51c-2-2-3-3-5-5c3,43-30,71-60,91
	c-18,12-31,21-36,47c-4,20,5.7,35.3,16.7,46.3L208.4,239.6z M276.5,218.4c2-1,3-2,5-4c0-11,4-24,19-38c7-6,12-15,17-24
	c1-6,2-13,2-19c-4,15-11,29-22,39c-18,17-22,33-21,45V218.4z M161.2,226.9c10,5,21.9,9.7,32.9,11.7c-12-12-21.5-27.3-19.5-47.3
	c6-59,63-52,88-110c7-17,6-31,0-43c-16-9-34-14-53-14c8,9,12,22,6,41c-13,39-70,51-65,123c1,17,4.6,25.9,8.6,36.9L161.2,226.9z
	 M225.5,239.4c10-1,20-4,30-9c4-2,8-4,12-6c-28-29,50-78,42-135c0-1-1-1-1-2c-5-10-10-19-17-26c13,23,10,50-11,74
	c-36,40-68,35-70,72c-1,19,4.9,25.7,12.9,30.7L225.5,239.4z"/>
<path class="st19" d="M320.5,469.4c1,0,2,1,2,2s-1,2-2,2l-20,3c-1,0-2-1-2-2s1-2,2-2L320.5,469.4z"/>
<g>
	<g>
		<defs>
			<polygon id="SVGID_17_" points="-149.5,-164.6 -148.5,-164.6 -149.5,-163.6 			"/>
		</defs>
		<defs>
			<polygon id="SVGID_18_" points="-151.5,-166.6 -152.5,-166.6 -151.5,-167.6 			"/>
		</defs>
		<clipPath id="SVGID_19_">
			<use xlink:href="#SVGID_17_"  style="overflow:visible;"/>
		</clipPath>
		<clipPath id="SVGID_20_" class="st20">
			<use xlink:href="#SVGID_18_"  style="overflow:visible;"/>
		</clipPath>
		<defs>
			<filter id="Adobe_OpacityMaskFilter_1_" filterUnits="userSpaceOnUse" x="798.5" y="268.4" width="440" height="396">
				<feColorMatrix  type="matrix" values="1 0 0 0 0  0 1 0 0 0  0 0 1 0 0  0 0 0 1 0"/>
			</filter>
		</defs>
		<mask maskUnits="userSpaceOnUse" x="798.5" y="268.4" width="440" height="396" id="SVGID_21_">
			<g class="st21">
				<g>
					<defs>
						<polygon id="SVGID_22_" points="-149.5,-164.6 -148.5,-164.6 -149.5,-163.6 						"/>
					</defs>
					<defs>
						<polygon id="SVGID_23_" points="-151.5,-166.6 -152.5,-166.6 -151.5,-167.6 						"/>
					</defs>
					<clipPath id="SVGID_24_" class="st22">
						<use xlink:href="#SVGID_22_"  style="overflow:visible;"/>
					</clipPath>
					<clipPath id="SVGID_25_" class="st23">
						<use xlink:href="#SVGID_23_"  style="overflow:visible;"/>
					</clipPath>
					
						<linearGradient id="SVGID_26_" gradientUnits="userSpaceOnUse" x1="500.1144" y1="-1485.3947" x2="148.7316" y2="-1209.6543" gradientTransform="matrix(1 0 0 1 694 1814)">
						<stop  offset="0" style="stop-color:#FFFFFF"/>
						<stop  offset="1" style="stop-color:#000000"/>
					</linearGradient>
					<rect x="798.5" y="268.4" class="st24" width="440" height="396"/>
				</g>
			</g>
		</mask>
		
			<linearGradient id="SVGID_27_" gradientUnits="userSpaceOnUse" x1="500.1144" y1="-1485.3947" x2="148.7316" y2="-1209.6543" gradientTransform="matrix(1 0 0 1 694 1814)">
			<stop  offset="0" style="stop-color:#FFFFFF"/>
			<stop  offset="1" style="stop-color:#000000"/>
		</linearGradient>
		<rect x="798.5" y="268.4" class="st25" width="440" height="396"/>
	</g>
</g>
<g>
	
		<linearGradient id="SVGID_28_" gradientUnits="userSpaceOnUse" x1="808.3441" y1="-487.885" x2="1027.5741" y2="-591.6453" gradientTransform="matrix(1 0 0 1 694 1814)">
		<stop  offset="0" style="stop-color:#6926EC"/>
		<stop  offset="1" style="stop-color:#CA39D9"/>
	</linearGradient>
	<path class="st26" d="M1754.5,1284.4c7-75-47-141-122-149c-75-7-141,47-149,122c-7,75,47,141,122,149
		C1680.5,1413.4,1746.5,1359.4,1754.5,1284.4z"/>
	
		<linearGradient id="SVGID_29_" gradientUnits="userSpaceOnUse" x1="730.267" y1="-505.7051" x2="999.4866" y2="-558.3151" gradientTransform="matrix(1 0 0 1 694 1814)">
		<stop  offset="0" style="stop-color:#6926EC"/>
		<stop  offset="1" style="stop-color:#CA39D9"/>
	</linearGradient>
	<path class="st27" d="M1754.5,1284.4c7-75-47-141-122-149c-19-2-37,0-53,5l0,0c-6,2-11,4-17,6c88-7,107,51,131,128
		c11,33,32,48,48,55c1-2,2-4,2-5c-16-6-35-20-45-52c-24-73-42-130-118-132c125-13,112,56,138,123c10,27,25,29,34,28c0-3,1-5,1-8
		L1754.5,1284.4z M1503.5,1198.4c-2,2-3,5-4,7c19-6,43-9,63,8c40,35,14,70,40,138c10,26,27,43,43,52c3-1,6-1,9-2
		c-48-24-57-77-60-123c-2-27-3-48-28-69c-19-17-42-17-62-11H1503.5z M1483.5,1287.4c0,2,1,5,1,7c12,7,24,20,29,46c3,12,8,23,15,33
		c6,5,13,10,20,14c-14-14-25-30-29-48C1512.5,1308.4,1497.5,1294.4,1483.5,1287.4z M1546.5,1155.4c-12,8-24,18-33,29
		c21-6,44-5,64,10c60,44,16,102,64,165c13,18,30,26,47,27c20-12,37-28,48-49c-15,4-32-1-48-19c-34-39-11-109-93-149
		c-19-9-36-14-50-16L1546.5,1155.4z M1493.5,1218.4c-5,12-8,25-10,39c-1,6-1,11-1,16c50-12,53,103,120,132c1,0,2,0,3,0
		c13,1,27,1,39-2c-33-1-61-21-73-60c-20-64,5-95-33-121c-20-14-35-11-46-4H1493.5z"/>
</g>
<g>
	<g>
		
			<linearGradient id="SVGID_30_" gradientUnits="userSpaceOnUse" x1="52.7551" y1="-1487.9358" x2="75.5102" y2="-1597.5471" gradientTransform="matrix(1 0 0 1 694 1814)">
			<stop  offset="0" style="stop-color:#7022E9"/>
			<stop  offset="1" style="stop-color:#EA35D6"/>
		</linearGradient>
		<path class="st28" d="M737.5,206.4c34-12,70,6,82,39c12,34-6,70-39,82c-34,12-70-6-82-39C686.5,254.4,704.5,218.4,737.5,206.4z"/>
		
			<linearGradient id="SVGID_31_" gradientUnits="userSpaceOnUse" x1="63.8736" y1="-1483.4615" x2="90.3044" y2="-1659.2106" gradientTransform="matrix(1 0 0 1 694 1814)">
			<stop  offset="0" style="stop-color:#7022E9"/>
			<stop  offset="1" style="stop-color:#EA35D6"/>
		</linearGradient>
		<path class="st29" d="M740.5,205.4c7-2,15-3,22-3c-9,5-18,12-25,22c-19,29,7,39,9,83c0,8-1,15-3,21c-12-3-22-9-31-18
			c4-11,4-25,0-45C708.5,244.4,740.5,205.4,740.5,205.4z M780.5,206.4c2,1,5,2,7,3c-15,12-12,31,5,39c11,5,22,16,30,27
			c-3,20-15,38-33,48c2-4,4-9,5-14c4-24-26-29-34-64C755.5,224.4,780.5,206.4,780.5,206.4z"/>
	</g>
	<path class="st30" d="M819.5,245.4c51,15,86,35,83,50c-11.2,53-297.4-4.5-287-54c3-15,42-20,96-16c-2,2-4,4-5,6c-30-2-50,1-52,9
		c-5.7,34.1,206.6,70.9,212,41c1-8-17-18-45-27C820,251.4,819.4,248.5,819.5,245.4z"/>
</g>
<polygon class="st31" points="1676.5,314.4 1626.5,285.4 1598.5,335.4 1648.5,364.4 "/>
<path class="st32" d="M609.5,478.4c-15,0-27,12-27,27s12,27,27,27s27-12,27-27S624.5,478.4,609.5,478.4z"/>
<path class="st33" d="M468.5,190.4l-59-44c-3-2-6-1-8,1c-1,1-1,2-1,3l0,0l-8,74c0,3,2,6,5,6c1,0,2,0,3-1l68-29c3-1,4-5,3-7
	c0-1-1-2-2-2L468.5,190.4z M411.5,164.4l39,31l-44,18L411.5,164.4z"/>
<polygon class="st31" points="134.5,1070.4 84.5,1041.4 56.5,1091.4 106.5,1120.4 "/>
<polygon class="st34" points="588.5,1349.4 538.5,1321.4 509.5,1371.4 559.5,1399.4 "/>
<path class="st35" d="M1075.5,1286.4l-59-44c-3-2-6-1-8,1c-1,1-1,2-1,3l0,0l-8,74c0,3,2,6,5,6c1,0,2,0,3-1l68-29c3-1,4-5,3-7
	c0-1-1-2-2-2L1075.5,1286.4z M1018.5,1260.4l39,31l-44,18L1018.5,1260.4z"/>
<g id="_1022046784">
	<path class="st36" d="M1200.5,1053.4h36c0,0,6,18,13,30c2,3,3,5,4,8l0,0c0.8,5.6-3.6,12.7-9.6,18.7c-12,12-16.7,19.8-21.7,30.8
		s-12.2-7.4-40.2,0.6c-1,0-3.6,1.1-4.6,1.1c6-14,16.2-32.1,19.2-43.1c4-17,5-47,5-47L1200.5,1053.4z M1211.5,1174.4c-1,1-2,2-3,3
		C1209.5,1176.4,1210.5,1175.4,1211.5,1174.4z M1207.5,1178.4l-1,1L1207.5,1178.4z M1206.5,1179.4c0,0-1,1-2,1
		C1205.5,1180.4,1205.5,1179.4,1206.5,1179.4z M1176.5,1175.4c0,0,0-1-1-1C1175.5,1174.4,1175.5,1175.4,1176.5,1175.4z
		 M1175.5,1172.4v-1V1172.4z M1174.5,1170.4v-1 M1173.5,1166.4c0-1,0-1,0-2C1173.5,1165.4,1173.5,1165.4,1173.5,1166.4z
		 M1173.5,1163.4c0-1,0-1,0-2C1173.5,1162.4,1173.5,1162.4,1173.5,1163.4z M1173.5,1161.4c0-1,0-1,0-2l0,0l0,0
		C1173.5,1160.4,1173.5,1160.4,1173.5,1161.4z"/>
	<path class="st37" d="M1223.5,1065.4c0,0-3,23-8,38c-5,16-8,20-8,20l-16,2c0,0,12-19,12-43c1-24,1-25,1-25L1223.5,1065.4z"/>
	<path class="st38" d="M1253.5,1091.4c2,8,6,9,0,17s-19,16-23,30c-4,13-15,40-33,45s-27-10-26-24c0-5,3-11,6-18c1-1,3-1,4-1
		c28-9,35,10,40,0c5-11,8-18,19-30c6-6,10-12,13-18V1091.4z"/>
	<path class="st19" d="M1248.5,1113.4c-3,3-7,7-11,11v-1c-1-3-1.1-4.7-1.1-7.7c1-2,3.6-4.6,5.1-6.3c2-2.2,2.9-2.2,3.9-4.2
		c2,3,2.1,5.3,3.1,7.3V1113.4z M1175.5,1175.4c-3-5-4-10-4-16c0-5,3-11,6-18c1-1,3-1,4-1c28-8,34,10,40,0l0,0c0,0-4,16-21,30
		C1192.5,1177.4,1182.5,1177.4,1175.5,1175.4z"/>
	<path class="st19" d="M1200.5,1083.4c-2,1-1,5,2,4c14-6,21,1,22-3c1-5-17-4-24,0V1083.4z M1189.5,1119.4c-2,1-1,5,2,4
		c14-6,21,1,22-3c1-5-17-4-24,0V1119.4z M1194.5,1107.4c-2,1-1,5,2,4c14-6,21,1,22-3c1-5-17-4-24,0V1107.4z M1198.5,1095.4
		c-2,1-1,5,2,4c14-6,21,1,22-3c1-5-17-4-24,0V1095.4z"/>
	<path class="st36" d="M1098.5,1125.4l25,26c0,0-9,17-12,31c-1,3-2,6-3,8l0,0c-6,2-13,4-21,4c-17,0-23,4-35,8s-3-14-29-28
		c-1-1-3-1-4-2c14-5,32-10,42-16c15-9,37-30,37-30V1125.4z M1020.5,1218.4c-1,0-3,0-4,0C1017.5,1218.4,1018.5,1218.4,1020.5,1218.4z
		 M1014.5,1218.4c-1,0-1,0-2,0C1013.5,1218.4,1013.5,1218.4,1014.5,1218.4z M1012.5,1218.4c-1,0-1,0-2,0
		C1011.5,1218.4,1011.5,1218.4,1012.5,1218.4z M993.5,1194.4v-1V1194.4z M994.5,1191.4v-1V1191.4z M995.5,1189.4c0,0,0-1,1-1
		 M998.5,1185.4c0-1,1-1,1-2C999.5,1184.4,998.5,1184.4,998.5,1185.4z M1000.5,1182.4l1-1L1000.5,1182.4z M1001.5,1181.4l1-1l0,0
		l0,0L1001.5,1181.4z"/>
	<path class="st37" d="M1105.5,1149.4c0,0-18,14-33,21s-20,8-20,8l-13-10c0,0,22-6,39-22c17-17,18-17,18-17l8,19L1105.5,1149.4z"/>
	<path class="st38" d="M1108.5,1189.4c-4,8-2,11-12,12c-9,1-25-2-37,5s-39,18-55,8c-16-9-12-26-2-35c4-3,10.5-5.6,17.5-8.6
		c1.3,0.5,2.5,0.6,3.5,1.6c26,14,17,32,29,28s18-7,35-8c8,0,16-2,21-4V1189.4z"/>
	<path class="st19" d="M1083.4,1201.3c-5,0-2.5,0.2-8.5,0.2l-1.9,0.4c2-3,4.5-6.6,6.5-8.6c2,0,4.5-0.4,6.5-0.4s4.6-0.4,6.6-0.4
		c-1,4-3.6,6.8-4.6,8.8L1083.4,1201.3z M994.8,1192.8c1-5,2.7-8.4,7.7-12.4c4-3,10-6,17-9c1,1,3,1,4,2c26,14,18,31,28,28l0,0
		c0,0-14,9-36,7c-11-1-17-8-21-14L994.8,1192.8z"/>
	<path class="st19" d="M1076.5,1146.4c-3-1-4,3-1,4c14,5,14,16,18,13C1098.5,1160.4,1084.5,1148.4,1076.5,1146.4z M1043.5,1163.4
		c-3-1-4,3-1,4c14,5,14,16,18,13C1065.5,1177.4,1051.5,1165.4,1043.5,1163.4z M1055.5,1157.4c-3-1-4,3-1,4c14,5,14,16,18,13
		C1077.5,1171.4,1063.5,1159.4,1055.5,1157.4z M1067.5,1152.4c-3-1-4,3-1,4c14,5,14,16,18,13
		C1089.5,1166.4,1075.5,1154.4,1067.5,1152.4z"/>
	<path class="st39" d="M1191.5,877.4c0,0-33-4-40,22c-7,27,11,74,25,114c14,40,21,56,21,56s11,9,26,5s21-14,21-14l-9-101l36-56
		l-80-28V877.4z"/>
	<g>
		<path class="st40" d="M1505.5,688.4l25,18c0,0,18-92,19-123c2-31-13-48-31-54c-23-9-63-3-78,19c-15,21-48,126-48,126l113,15V688.4
			z"/>
		<path class="st40" d="M1298.5,951.4l-5-19c0,0,100-111,101-122c1-12,47-196,60-217s89,3,89,6s-2,11-2,11s-15,118-15,167
			c0,21,2,40,3,60l0,0c0,0,7,82-34,131c-42,49-70,42-115,42c-44,0-99,0-99,0s-12-2-12-14s0-38,0-38l30-6L1298.5,951.4z"/>
		<path class="st41" d="M1298.5,951.4l-5-19c0,0,95-245,100-259c5-15,50-61,61-80c12-19,55-6,77,1c4,20-12,42-11,64c0,0-14,4-16,25
			c-1,21,4,11,4,11s-8-19-10,9c-3,27,3,15,3,15l1-13c0,0-37,33-42,40s-10,33-1,63s29,63,25,92c-3,18-7,40-13,53c-1,3-1,5-1,7
			c-6,4-12,5-16,5h-5h-56h-125v-8L1298.5,951.4z"/>
		<path class="st42" d="M1529.5,610.4c-8,43-9,66-14,107c-6,52-27,204-27,204s-1,9-4,20c-7,20-22,24-30,25h-5c12-15,15-45,15-45
			s20-143,27-204C1496.5,673.4,1518.5,630.4,1529.5,610.4z"/>
		<path class="st42" d="M1558.5,850.4h-114c-7,0-12,6-12,13v9c0,7,6,13,12,13h114c7,0,12-6,12-13v-9
			C1570.5,856.4,1564.5,850.4,1558.5,850.4z"/>
		<path class="st40" d="M1443.5,886.4c1,0,2,0,3,0h110c8,0,15-6,15-12v-2h-78h-32l-17,14H1443.5z"/>
		<path class="st40" d="M1415.5,853.4h52c6.6,0,12,5.4,12,12v9c0,6.6-5.4,12-12,12h-52c-6.6,0-12-5.4-12-12v-9
			C1403.5,858.8,1408.9,853.4,1415.5,853.4z"/>
	</g>
	<path class="st38" d="M1346.5,872.4l56-22c0,0,14,35,13,62s-36,55-65,61c-29,5-90,12-103,16c-13,5-114,162-122,165s-15,1-27-3
		c-13-4-21-13-21-13s96-207,108-219s41-50,77-53c36-4,83,5,83,5L1346.5,872.4z"/>
	<path class="st39" d="M1408.5,934.4c-8,12-21,23-35,31c-56-4-107-21-159-59l68-40l0,0L1408.5,934.4z"/>
	<path class="st41" d="M1387.5,1125.4l97,56c0,11-45,20-101,20s-101-9-101-20l97-56l4-17L1387.5,1125.4z"/>
	<rect x="1371.5" y="993.4" class="st43" width="24" height="135"/>
	<polygon class="st44" points="1395.5,993.4 1371.5,993.4 1371.5,1042.4 1395.5,1035.4 	"/>
	<path class="st45" d="M1395.5,1125.4l22,50c-10,0-16-1-16-1l-12-46l-3-12c0,0,0,0,4,0c1,0,2,0,2-1l4,10H1395.5z"/>
	<path class="st40" d="M1395.5,1142.4l-4-10c2-1,4-3,4-3l82,47c-5,4-11,7-19,9c-15,4-31,5-42,5l-22-50L1395.5,1142.4z"/>
	<path class="st37" d="M1291.5,512.4c0,0,11-33,43-23s26,16,62,1c37-15,73,7,74,43c0,36,23,31,54,51c32,21,51,61,27,101
		c-24,41-88,31-110,1s5-67-51-78s-33-82-77-78c-44,5-23-19-23-19L1291.5,512.4z"/>
	<path class="st37" d="M1264.5,545.4l-22-20c0,0,31-12,65-3s30,67,24,80c-6,12-14,33-23,49s-43-105-43-105L1264.5,545.4z"/>
	
		<linearGradient id="SVGID_32_" gradientUnits="userSpaceOnUse" x1="497.1101" y1="-966.2729" x2="487.8802" y2="-994.4627" gradientTransform="matrix(1 0 0 1 694 1814)">
		<stop  offset="0" style="stop-color:#D88FA6"/>
		<stop  offset="1" style="stop-color:#E2A1B8"/>
	</linearGradient>
	<path class="st46" d="M1246.5,806.4l-2-2l-4,6c0,0-25,3-53,10c-27,7-34,10-37,11c-3,0-20-5-37-2c-17,4-35,29-35,29h229
		c0,0,3-53-60-52H1246.5z"/>
	<path class="st37" d="M1091.5,858.4h56c2-2,3-3,3-3h-32c0,0-3-6,1-10s18-5,18-5c-22-11-39-2-53,16
		C1084.5,856.4,1087.5,857.4,1091.5,858.4z"/>
	<path class="st47" d="M1289.5,824.4c0,0-13,0-25-3s-25-12-25-12l-9-97c-3-23,7-40,29-48l29,159L1289.5,824.4z"/>
	<path class="st48" d="M1294.5,671.4l-23-9l-12,3c0,0-8,16-11,26s-17,47-11,61c6,15,17,17,23,29s14,79,14,79h128c0,0-28-189-32-191
		s-35-11-35-11l-42,14L1294.5,671.4z"/>
	<path class="st49" d="M1241.5,759.4c0,0,0,1,1,1C1242.5,760.4,1242.5,759.4,1241.5,759.4z M1253.5,772.4c3,3,5,5,7,9
		c6,12,14,79,14,79h128c0,0-19-128-28-175l-15-3c0,0-15,27-15,61s-38,37-50,34c-9-2-25,5-41-6V772.4z"/>
	<path class="st47" d="M1396.5,816.4l45-7c0,0,6-2-5-26s-37-82-44-96c-7-13-21-18-21-18s-20,5-25,38s6,45,16,62s26,48,26,48l6-2
		L1396.5,816.4z"/>
	<path class="st49" d="M1440.5,808.4h1c0,0,2-1,2-5c-4-7-12-14-31-13c-12,1-23,2-31,4l2,4c8-1,18-3,29-4
		C1432.5,792.4,1438.5,801.4,1440.5,808.4z M1433.5,776.4c-1-2-1-3-2-5c-1,0-2,0-3-1c-22-4-43,5-54,11l2,4c11-6,30-14,51-11
		c2,0,4,1,6,1V776.4z M1420.5,746.4l-2-4c-10,2-21,5-32,11c-7,4-14,9-20,14l2,4c6-5,13-10,20-14c10-5,22-9,31-11H1420.5z
		 M1409.5,722.4l-2-4c-28,4-33,14-47,37l2,4c13-24,18-34,46-38L1409.5,722.4z M1356.5,749.4c0-1,0-2,0-4c1-16,6-29,14-39
		c6-7,14-12,24-16c-1-1-1-3-2-4c-10,4-19,9-25,17c-8,10-14,22-15,38c1,1,2,4,4,7V749.4z"/>
	<path class="st50" d="M1434.5,797.4c0,0-22-9-62,2c-39,11-94,28-104,27s-29-9-46-3s-41,16-40,24s127,3,127,3l18-4c0,0,69-9,88-14
		c19-4,35-27,18-36L1434.5,797.4z"/>
	<path class="st51" d="M1273.5,632.4l5,27l-8,3c0,0-3,27,24,34c27,6,42-38,42-38s-12-3-16-10s-13-44-13-44l-35,28H1273.5z"/>
	<path class="st52" d="M1273.5,632.4l5,27c18,18,30-13,34-38c-3-9-5-18-5-18l-35,28L1273.5,632.4z"/>
	<path class="st51" d="M1230.5,543.4l-12,25l2,21l8,10c0,0,4,18,11,33c6,15,21,26,37,18s41-44,41-44S1270.5,537.4,1230.5,543.4z"/>
	<path class="st37" d="M1305.5,593.4c0,0-13,0-36-14c-22-14-30-27-30-27s-5,14-10,18s-7,6-7,6l6,23c0,0-7-5-8-10c-2-4-8-23-8-23
		s-8-11,2-24s28-17,28-17s12-11,35-2S1329.5,573.4,1305.5,593.4z"/>
	<path class="st53" d="M1308.5,583.4c-6-40-24-60-66-58c0,0,0-2,1-3c0-1,0-1,1-2s17-7,17-7s19-3,40,14s26,59,26,59l-18-2
		L1308.5,583.4z"/>
	<path class="st53" d="M1322.5,581.4c5,4,9,12,9,21s-3,17-8,21l2,3h-9c-9,0-16-11-16-24s7-24,16-24h9l-2,3H1322.5z"/>
	<ellipse class="st54" cx="1324.5" cy="602.4" rx="16" ry="24"/>
	<path class="st55" d="M835.5,859.4l-54-4v28c0,0,0,16,15,22s125,28,125,28l1,246h-108c-27,0-33,11-33,21h187v-335l-134-7
		L835.5,859.4z"/>
	<path class="st54" d="M910.5,934.4v246h23v-246c0,0-123-22-137-28h-23C788.5,912.4,910.5,934.4,910.5,934.4z M791.5,1180.4
		c-27,0-33,11-33,21h23c0-10,6-21,33-21H791.5z"/>
	<path class="st56" d="M1290.5,879.4c0-7-39,27-39,27h-470v-51h455L1290.5,879.4z"/>
	<path class="st55" d="M1230,794.6c0,0,3.6-1.2,3.6-8.2c0-8-25-226-25-226s-1-8-10-8c-100,0-200,0-299,0c0,0-5,0-5,7
		c0,4,8,72,14,133v1c0,0,0,8-5,14l0,0c-1,1-1,2-2,3l0,0c-2,4-3,6-3,10c0,5,6,67,6,67s2,8,15,8l0,0h16l0,0h292L1230,794.6z"/>
	<polygon class="st54" points="1035.5,793.4 1090.5,793.4 1090.5,744.4 1049.5,756.4 	"/>
	<polygon class="st53" points="1082.5,762.4 1085.5,737.4 1014.5,737.4 975.5,863.4 1055.5,863.4 	"/>
	<polygon class="st55" points="1056.5,859.4 1047.5,859.4 1085.5,737.4 1090.5,744.4 	"/>
	<path class="st53" d="M1202.5,724.4h-303c-2-21,7-11,9-32c0-2,0-3,0-3h309c-1,22-14,22-15,36V724.4z"/>
	<path class="st57" d="M1205.4,792.4l-5.9-57c-2-16,0-17,7-26s7-21,7-21c-7-61-15-129-15-129s-1-8-10-8h9c8,0,10,8,10,8
		s25,219,25,226c0,8-5,7-5,7L1205.4,792.4L1205.4,792.4z"/>
	<rect x="781.5" y="850.4" class="st56" width="455" height="22"/>
	<rect x="1236.5" y="850.4" class="st58" width="245" height="22"/>
	<path class="st58" d="M1290.5,859.4l-54-4v28c0,0,0,16,15,22s126,28,126,28l-11,277h-96c-27,0-33,11-33,21h187v-366l-134-7V859.4z"
		/>
	<path class="st56" d="M1367.1,933.4v277h23v-277c0,0-123-22-137-28h-23C1245.1,911.4,1367.1,933.4,1367.1,933.4z M1248.1,1210.4
		c-27,0-33,11-33,21h23c0-10,6-21,33-21H1248.1z"/>
	<ellipse class="st55" cx="1330.5" cy="601.4" rx="14" ry="20"/>
	<path class="st57" d="M1321.5,601.4c0-6,2-12,5-15c2-2,4-3,6-4c0,0,0,0,1,0h-1h-1c-2,0-4,1-6,2c-5,3-8,10-8,18c0,9,4,16,9,19
		c2,1,3,1,5,1c1,0,2,0,3,0c-2-1-4-2-6-4c-3-4-5-9-5-16L1321.5,601.4z"/>
	<path class="st19" d="M1244.5,520.4L1244.5,520.4L1244.5,520.4z M1322.5,566.4c-4-13-11-30-22-39c-21-17-40-14-40-14s-14,5-16,7
		c4,0,8,0,11,0c31,2,52,21,58,54l9-9V566.4z"/>
	<path class="st19" d="M1342.5,663.4l2-4c0,0-4-2-5-3c-2-1-6,0-6,0s-7,22-20,30s-27,6-34-2c-7-7-7-23-7-23c-4-2-6,0-9,2
		c-7,33,28,52,58,30c13-10,21-31,21-31V663.4z"/>
	<rect x="1146.5" y="842.4" class="st58" width="208" height="9"/>
	<rect x="1236.5" y="842.4" class="st19" width="118" height="9"/>
</g>
<g id="_1023923648">
	<path class="st43" d="M230.5,691.4l-25,18c0,0-18-92-19-123c-2-31,13-48,31-54c23-9,63-3,78,19c15,21,48,126,48,126l-113,15V691.4z
		"/>
	<path class="st43" d="M349.5,1111.4l-97,56c0,11,45,20,101,20s101-9,101-20l-97-56l-4-17L349.5,1111.4z"/>
	<rect x="341.5" y="997.4" class="st43" width="24" height="135"/>
	<polygon class="st44" points="341.5,997.4 365.5,997.4 365.5,1045.4 341.5,1039.4 	"/>
	<path class="st43" d="M438.5,955.4l5-19c0,0-100-111-101-122c-1-12-47-196-60-217s-89,3-89,6s2,11,2,11s15,118,15,167
		c0,21-2,40-3,60l0,0c0,0-7,82,34,131c42,49,70,42,115,42c44,0,99,0,99,0s12-2,12-14s0-38,0-38l-30-6L438.5,955.4z"/>
	<path class="st44" d="M438.5,955.4l5-19c0,0-100-111-101-122c-1-12-47-196-60-217c-10-16-55-6-77,1c-4,20,12,42,11,64
		c0,0,14,4,16,25c1,21-4,11-4,11s8-19,10,9c3,27-3,15-3,15l-1-13c0,0,37,33,42,40s10,33,1,63s-29,63-25,92c3,18,7,40,13,53
		c1,3,1,5,1,7c6,4,12,5,16,5h5h56h125v-8L438.5,955.4z"/>
	<path class="st59" d="M206.5,613.4c8,43,9,66,14,107c6,52,27,204,27,204s1,9,4,20c7,20,22,24,30,25h5c-12-15-15-45-15-45
		s-20-143-27-204C239.5,676.4,217.5,633.4,206.5,613.4z"/>
	<path class="st45" d="M341.5,1128.4l-22,50c10,0,16-1,16-1l12-46l3-12c0,0,0,0-4,0c-1,0-2,0-2-1l-4,10H341.5z"/>
	<path class="st60" d="M341.5,1128.4l4-10c-2-1-4-3-4-3l-82,47c5,4,11,7,19,9c15,4,31,5,42,5l22-50L341.5,1128.4z"/>
	<g>
		<g>
			<rect x="530.5" y="869.4" class="st55" width="159" height="26"/>
			<rect x="530.5" y="869.4" class="st19" width="36" height="9"/>
			<path class="st54" d="M587.5,1146.4c-13-8-71,24-89,51c-5,7-8.1,15.1-11.1,20.1c6,0,16.1-2.1,23.1-7.1c10-7,15-21,38-23
				s46-22,41-38C589.5,1149.4,588.5,1148.4,587.5,1146.4z"/>
			<path class="st55" d="M498.5,1197.4c18-27,77-59,89-51c-4-5-14-13-31-10c-24,4-25,14-46,18c0,0-11,0-23,1l-17,22c0,0-3,10,0,21
				s10,17,11,18c0,0,2,1,5,1c3-6,7-12,12-19V1197.4z"/>
			<path class="st56" d="M500.7,1194.8c18-27,74.9-56.4,86.9-48.4c-2-2-6-6-11-8c-5,0-12,1-20,4c-32,9-33,22-35,24s-17,10-32,30
				c-4,6-8,11-10,17c1,1,2,2,3,3c0,0,2,1,5,1c3-6,7-12,12-19L500.7,1194.8z"/>
			<path class="st61" d="M337.5,761.4l75,8c0,0,43,40,48,41s94,38,101,40s36-3,48,7c13,10,16,11,11,13c-5,1-63,0-63,0s-9,0-14-3
				s-7-6-32-11s-74-20-83-25s-74-41-74-41l-17-28V761.4z"/>
			<path class="st62" d="M382.5,765.4l30,3c0,0,2,2,6,6c0,3-1,6-2,8c-5,15,17,29,31,33s16,14,41,23s38,10,53,20c7,5,14,8,19,10h-4
				c0,0-9,0-14-3s-7-6-32-11s-78-16-85-20c-8-4-48-18-68-29c2-12,18-31,24-40H382.5z"/>
			<path class="st63" d="M318.5,723.4l33-19c0,0,10,7,13,11s50,51,50,51l-34,30l-62-74V723.4z"/>
			<path class="st62" d="M340.5,702.4l11,2l16-29l-35-35l-43,27c0,0,35,45,42,45c8,0,8-10,8-10H340.5z"/>
			<path class="st64" d="M392.5,605.4l28,13c0,0,1,9-3,19s-34,47-34,47l10-79H392.5z"/>
			<path class="st61" d="M365.5,602.4c0,0-23,7-26,17s-14,33-14,33l1,15c0,0,14,18,30,27s20,9,28,4c9-5,25-83,25-83l-45-13H365.5z"
				/>
			<path class="st65" d="M414.5,602.4l1,7l5,9c0,0-14,18-34,18c-19,1-19-10-19-10s-12,13-33,14s-21-28-21-28s20-30,46-32
				c26-1,41,10,54,21L414.5,602.4z"/>
			<path class="st66" d="M414.5,602.4l1,7c-40-14-68-5-71,29c-3,1-6,1-10,1c-21,1-21-28-21-28s20-30,46-32c26-1,41,10,54,21
				L414.5,602.4z"/>
			<path class="st67" d="M323.7,610c11.8-0.1,19.7,12.1,17.7,27.4c-2,15.2-13.1,27.7-24.8,27.8c-11.8,0.1-19.7-12.1-17.7-27.4
				C300.8,622.6,311.9,610.1,323.7,610z"/>
			<path class="st61" d="M338.5,430.4c0,0-3-6-5-10s-8-3-11-2s-5,5-5,5s-4-2-5-1s-7,3-9,5c-1,2-2,4-2,4s-4,1-5,1c-1,1-5,3-6,6
				c0,2,1,15,1,15l9,3h-5c0,0,2,5,4,8s-69,108-71,120s6,41,9,56s39,13,39,13l9-30c0,0-8-29-7-34s52-122,53-124c2-2,7-4,9-7
				s6-18,4-20s-5.2-6.8-5.2-6.8L338.5,430.4z"/>
			<path class="st62" d="M291.6,479.4c-18,30-61.1,96-63.1,105c-2,12,6,41,9,56s39,13,39,13c-19-31-30-60-20-78
				c10-18,36.1-97.8,36.1-97.8L291.6,479.4z"/>
			<path class="st68" d="M371.5,926.4l-4-85l41,3l23,44c0,0,119,36,128,52s132,211,132,211l-23,29c-34-29-146-156-150-193
				c-2-17-8-37-11-39c-3-1-137-23-137-23L371.5,926.4z"/>
			<path class="st67" d="M494.5,909.4c30,11,61,24,66,32c3,6,20,33,41,66c-7,18-18,43-31,64c-27-34-49-67-51-83c-2-17-8-37-11-39
				c-1-1-24-4-51-9C468.5,926.4,481.5,915.4,494.5,909.4z"/>
			<path class="st63" d="M284.5,611.4c0,0-18,0-35,8s-20,15-19,18s19,60,25,73c6,13,8,15,10,17c1,3,22,80,26,102s3,35,26,39
				s64,5,64,5l28-30c0,0,8-5,0-24c-8-18-12-26-16-33c-4-8-40-76-40-76l3-8c0,0-35-17-36-18c-2-1-35.5-73-35.5-73L284.5,611.4z"/>
			<path class="st69" d="M284.5,611.4c0,0-13,0-27,5c2,5,4,10,5,14c4,20-4,28,8,46c12,17,14,32,14,32s11-8,17-19s5-18,5-18
				s2,15-5,27c-6,12-8,16,8,35c16,20,10,40,25,90c8,28,31,42,49,49l26-28c0,0,8-5,0-24c-8-18-12-26-16-33c-4-8-40-76-40-76
				s-26-12-28-14s-6-11-6-11c-2-1-36-74-36-74L284.5,611.4z"/>
			<path class="st68" d="M316.5,869.4c0,0-9,76,47,93c56,16,139-2,140,3c2,5-14,32-26,91c-12,59-8,121-8,121s19-16,29-20s11-4,11-4
				s60-181,68-197s-18-47-50-48s-119-64-119-64S369.5,859.4,316.5,869.4z"/>
			<path class="st67" d="M316.5,869.4c0,0-1,7,0,18c21,13,46,24,75,24c34-1,57-16,72-32c-28-17-53-35-53-35s-39,15-92,25H316.5z"/>
			<path class="st55" d="M517.5,886.4c0,0-13-25-45-27c-33-2-44,29-44,29L517.5,886.4z"/>
			<g>
				<path class="st70" d="M482.9,820.7c0,0-3.3-1.3-3.3-8.3c0-8,25-226,25-226s1-8,10-8c100,0,200,0,299,0c0,0,5,0,5,7
					c0,4-8,72-14,133v1c0,0,0,9,5,14l0,0c1,1,1,2,2,3l0,0c2,4,3,6,3,10c0,5-6,67-6,67s-2,8-15,8l0,0h-16l0,0h-292L482.9,820.7z"/>
				<polygon class="st71" points="677.5,819.4 622.5,819.4 622.5,769.4 664.5,781.4 				"/>
				<polygon class="st71" points="630.5,787.4 628.5,762.4 698.5,762.4 737.5,889.4 657.5,889.4 				"/>
				<polygon class="st70" points="656.5,884.4 665.5,884.4 628.5,762.4 622.5,769.4 				"/>
				<path class="st71" d="M510.5,750.4h303c2-21-7-11-9-32c0-2,0-3,0-3h-309c1,22,14,22,15,36V750.4z"/>
				<path class="st72" d="M507,820.4l6-58c2-16,0-17-7-26s-7-21-7-21c7-61,15-129,15-129s1-8,10-8h-9c-8,0-10,8-10,8s-25,219-25,226
					c0,8,5,7,5,7h23L507,820.4z"/>
			</g>
			<path class="st62" d="M333.5,446.4c0,0-13,1-17-4c-2-3-2-7-1-9c-1-4,0-8,0-8s-7,9-6,15c1,5,3,6,3,8c-1,2-3,2-5,3s-5-1-5-1
				s-1,2-5,3c-3,1-5,0-5,0s3,3,7,5s9,8,9,8s2-8,7-13S333.5,446.4,333.5,446.4z M321.5,432.4c5,1,16,1,16,1s-4-1-7-3
				S323.5,429.4,321.5,432.4z"/>
			<path class="st73" d="M319.7,613.7c7.1,2.3,10,13.3,6.4,24.5c-3.6,11.2-12.3,18.5-19.4,16.2c-7.1-2.3-10-13.3-6.4-24.5
				C303.9,618.6,312.6,611.4,319.7,613.7z"/>
			<path class="st19" d="M318.5,614.4c7,2,9,13,6,23c-3,11-12,17-18,15c-2-1-4-2-5-5c1,3,3,5,6,6c7,2,16-5,19-16c4-11,1-22-6-24
				c-2-1-5,0-7,1c2-1,4-1,6,0H318.5z"/>
			<path class="st67" d="M307.5,635.4l6,10l-3,4h-3c-1-1-4-6-5-8s3-5,5-5V635.4z"/>
			<path class="st67" d="M369.5,682.4c0,0-8-2-10-2c-1,0-2,0-3,1c-5-1-15-4-25-12c-13-11-23-27-23-27l-2,1c0,0,10,17,23,28
				c10,8,20,11,26,13c1,1,1,2,3,2c2,1,7,2,9,2s3-2,3-6H369.5z"/>
			<path class="st68" d="M315.5,621.4l-3,8l-9-4c0,0,4-20,20-35s37-17,49-15c13,2,29,14,29,14s-20-9-41-5s-31,12-45,38V621.4z"/>
			<path class="st73" d="M311.5,604.4c3-5,7-10,12-14c2-2,5-4,7-6l10,6c-5,3-10,8-15,15l0,0C320.5,606.4,316.5,606.4,311.5,604.4z
				 M337.5,580.4c10-5,20-6,28-6l15,8c-6-1-13-1-20,0c-5,1-9,2-13,3l-10-6V580.4z"/>
			<path class="st67" d="M318.5,625.4c5-39,67-60,97-16c0,0,2-4,2-5s-16-26-49-24c-34,2-44,19-49,28s-7,22-7,22l7-4L318.5,625.4z"/>
			<path class="st67" d="M317.5,620.4l-5,9c0,0,3,1,4,1s2-1,3-2s6-13,7-14c0-2-2-3-2-3s-5,2-5,4c-1,2-1,6-1,6L317.5,620.4z"/>
			<path class="st63" d="M309.5,820.4l-36-65c0,0,15,92,29,127s30,56,30,56s24-13,34-22s10-32,31-44c22-11,41-9,41-9s0-7-3-10
				c-4-3-21-24-28-39s-8-18-8-18l-89,24H309.5z"/>
			<path class="st69" d="M436.5,855.4c0-1-1-2-2-2c-4-3-21-24-28-39s-8-18-8-18l-66,18l0,0c0,0,1,11,7,29s16,30,16,30s15-17,54-16
				C420.5,857.4,429.5,856.4,436.5,855.4z"/>
			<polygon class="st71" points="769.5,1133.4 409.5,1133.4 423.5,1109.4 786.5,1109.4 			"/>
			<polygon class="st71" points="706.5,1202.4 833.5,890.4 884.5,899.4 763.5,1196.4 			"/>
			<path class="st71" d="M657.5,1213.4h172c0,0,10,1,13,4c1,1,3,5,4,10h37c-1-5-3-12-4-15c-1-2-9-5-9-5l-120-20c0,0-122,16-127,16
				c-6,0-9,9-9,9l-6,14h35l5-10c0,0,4-4,8-4L657.5,1213.4z"/>
			<polygon class="st71" points="692.5,1202.4 817.5,899.4 871.5,899.4 750.5,1196.4 			"/>
			<polygon class="st70" points="366.5,1202.4 491.5,899.4 545.5,899.4 424.5,1196.4 			"/>
			<path class="st71" d="M318.5,1213.4h172c0,0,10,1,13,4c1,1,3,5,4,10h37c-1-5-3-12-4-15c-1-2-9-5-9-5l-120-20c0,0-122,16-127,16
				c-6,0-9,9-9,9l-6,14h35l5-10c0,0,4-4,8-4L318.5,1213.4z"/>
			<polygon class="st71" points="353.5,1202.4 484.5,883.4 610.5,888.4 525.5,916.4 410.5,1196.4 			"/>
			<polygon class="st71" points="612.5,886.4 543.5,878.4 543.5,899.4 514.5,899.4 471.5,974.4 829.5,974.4 850.5,887.4 			"/>
			<path class="st36" d="M348.5,878.4h218v21h-22l-201-9v-8c0-4,4-4,6-4H348.5z"/>
			<rect x="543.5" y="878.4" class="st74" width="399" height="21"/>
			<path class="st70" d="M786.5,974.4l-55,134h37l55-134h-24H786.5z M721.5,1133.4l-25,62l14-2l25-3l23-57H721.5z"/>
			<path class="st56" d="M491.5,1167.4v31l5-6l-1-27c-2,1-3,2-5,2H491.5z M502.5,1162.4v25l5-6v-21
				C505.5,1161.4,504.5,1161.4,502.5,1162.4z"/>
			<path class="st55" d="M686.5,1150.4l-21,21c0,0,7,14,10,26s9,15,18,16s15-1,25,4c10,6,33,15,46,7s10-22,2-29c-9-8-37-13-49-20
				c-12-8-30-25-30-25H686.5z"/>
			<path class="st54" d="M679.5,1171.4c0,0,9,8,24,14c14,7,23,10,23,10l11-8c0,0-19-5-33-17s-16-15-16-15l-8,16H679.5z"/>
			<path class="st56" d="M678.5,1204.4c3,6,2,9,10,10s21-2,31,4s33,15,46,7s10-22,2-29c-3-3-8-5-14-7c-1,0-2,1-3,2
				c-22,12-14,27-24,23c-10-3-15-6-29-6c-7,0-13-2-18-3L678.5,1204.4z"/>
			<path class="st68" d="M680.5,1140.4l3-2l16,22c0,0,1,5-8,12c-9,8-21,11-21,11l-29-31l19-16l20,3V1140.4z"/>
			<path class="st19" d="M704.5,1168.4c1,0,2,0,2,1s0,2-1,2c0,0-8,3-13,11c0,1-2,1-2,1c-1,0-1-2-1-2c5-9,14-12,14-12L704.5,1168.4z
				 M732.5,1182.4c1,0,2,0,2,1s0,2-1,2c0,0-8,3-13,11c0,1-2,1-2,1c-1,0-1-2-1-2c5-9,14-12,14-12L732.5,1182.4z M722.5,1177.4
				c1,0,2,0,2,1s0,2-1,2c0,0-8,3-13,11c0,1-2,1-2,1c-1,0-1-2-1-2c5-9,14-12,14-12L722.5,1177.4z M712.5,1173.4c1,0,2,0,2,1s0,2-1,2
				c0,0-8,3-13,11c0,1-2,1-2,1c-1,0-1-2-1-2c5-9,14-12,14-12L712.5,1173.4z"/>
			<path class="st56" d="M690.5,1193.4l-7,15l6,2l6-16l-5-2V1193.4z M700.5,1196.4l-6,14l7-3l4-10l-5-2V1196.4z"/>
		</g>
		<polygon class="st36" points="412.5,1091.4 437.5,1076.4 510.5,898.4 490.5,897.4 410.5,1092.4 		"/>
		<polygon class="st74" points="492.5,942.4 510.5,898.4 490.5,897.4 471.5,942.4 		"/>
	</g>
	<path class="st45" d="M178.5,859.4h114c7,0,12,6,12,12v8c0,7-6,12-12,12h-114c-7,0-12-6-12-12v-8
		C166.5,864.4,172.5,859.4,178.5,859.4z"/>
	<path class="st60" d="M292.5,892.4c-1,0-2,0-3,0h-110c-8,0-15-6-15-12v-2h78h32l17,14H292.5z"/>
	<path class="st60" d="M269.5,859.4h52c6.6,0,12,5.4,12,12v9c0,6.6-5.4,12-12,12h-52c-6.6,0-12-5.4-12-12v-9
		C257.5,864.8,262.9,859.4,269.5,859.4z"/>
</g>
<rect x="-150.5" y="-165.6" class="st75" width="2000" height="2000"/>
</svg>
