<svg id="Illustration" xmlns="http://www.w3.org/2000/svg" xmlns:xlink="http://www.w3.org/1999/xlink" viewBox="0 0 1080.28 698.75"><defs><style>.cls-1{fill:#d6c7ff;opacity:0.26;}.cls-2{fill:url(#linear-gradient);}.cls-3{fill:url(#linear-gradient-2);}.cls-4{fill:url(#linear-gradient-3);}.cls-5{fill:url(#linear-gradient-4);}.cls-6{fill:url(#linear-gradient-5);}.cls-7{fill:url(#linear-gradient-6);}.cls-8{fill:url(#linear-gradient-7);}.cls-12,.cls-14,.cls-21,.cls-31,.cls-75,.cls-9{fill:#fff;}.cls-10{opacity:0.76;}.cls-11{fill:url(#linear-gradient-8);}.cls-12{opacity:0.45;}.cls-13{fill:url(#linear-gradient-9);}.cls-14{opacity:0.43;}.cls-15{fill:url(#linear-gradient-10);}.cls-16{fill:url(#linear-gradient-11);}.cls-17{fill:url(#linear-gradient-12);}.cls-18{fill:url(#linear-gradient-13);}.cls-19{fill:url(#linear-gradient-14);}.cls-20{fill:url(#linear-gradient-15);}.cls-21{opacity:0.51;}.cls-22{fill:url(#linear-gradient-16);}.cls-23{fill:url(#linear-gradient-17);}.cls-24{fill:url(#linear-gradient-18);}.cls-25{fill:url(#linear-gradient-19);}.cls-26{fill:url(#linear-gradient-20);}.cls-27{fill:url(#linear-gradient-21);}.cls-28{fill:url(#linear-gradient-22);}.cls-29{fill:url(#linear-gradient-23);}.cls-30{fill:url(#linear-gradient-24);}.cls-31{opacity:0.47;}.cls-32{fill:url(#linear-gradient-25);}.cls-33{fill:url(#linear-gradient-26);}.cls-34{fill:url(#linear-gradient-27);}.cls-35{fill:#f79e6d;}.cls-36{fill:url(#linear-gradient-28);}.cls-37{fill:url(#linear-gradient-29);}.cls-38{fill:url(#linear-gradient-30);}.cls-39{fill:url(#linear-gradient-31);}.cls-40{fill:url(#linear-gradient-32);}.cls-41{fill:url(#linear-gradient-33);}.cls-42{fill:url(#linear-gradient-34);}.cls-43{fill:url(#linear-gradient-35);}.cls-44{fill:url(#linear-gradient-36);}.cls-45{fill:url(#linear-gradient-37);}.cls-46{fill:url(#linear-gradient-38);}.cls-47{fill:url(#linear-gradient-39);}.cls-48{fill:url(#linear-gradient-40);}.cls-49{fill:url(#linear-gradient-41);}.cls-50{fill:url(#linear-gradient-42);}.cls-51{fill:url(#linear-gradient-43);}.cls-52{fill:url(#linear-gradient-44);}.cls-53{fill:url(#linear-gradient-45);}.cls-54{fill:url(#linear-gradient-46);}.cls-55{fill:url(#linear-gradient-47);}.cls-56{fill:url(#linear-gradient-48);}.cls-57{fill:url(#linear-gradient-49);}.cls-58{fill:url(#linear-gradient-50);}.cls-59{fill:url(#linear-gradient-51);}.cls-60{fill:url(#linear-gradient-52);}.cls-61{fill:url(#linear-gradient-53);}.cls-62{fill:url(#linear-gradient-54);}.cls-63{fill:#50c7fe;}.cls-64{fill:url(#linear-gradient-55);}.cls-65{fill:url(#linear-gradient-56);}.cls-66{fill:url(#linear-gradient-57);}.cls-67{fill:url(#linear-gradient-58);}.cls-68{fill:url(#linear-gradient-59);}.cls-69{fill:url(#linear-gradient-60);}.cls-70{fill:url(#linear-gradient-61);}.cls-71{fill:url(#linear-gradient-62);}.cls-72{fill:url(#linear-gradient-63);}.cls-73{fill:url(#linear-gradient-64);}.cls-74{fill:url(#linear-gradient-65);}.cls-75{opacity:0.6;}.cls-76{fill:url(#linear-gradient-66);}.cls-77{fill:url(#linear-gradient-67);}.cls-78{fill:url(#linear-gradient-68);}.cls-79{fill:url(#linear-gradient-69);}.cls-80{fill:url(#linear-gradient-70);}.cls-81{fill:url(#linear-gradient-71);}.cls-82{fill:url(#linear-gradient-72);}.cls-83{fill:url(#linear-gradient-73);}.cls-84{fill:url(#linear-gradient-74);}.cls-85{fill:url(#linear-gradient-75);}.cls-86{fill:url(#linear-gradient-76);}.cls-87{fill:url(#linear-gradient-77);}.cls-88{fill:url(#linear-gradient-78);}.cls-89{fill:url(#linear-gradient-79);}.cls-90{fill:url(#linear-gradient-80);}.cls-91{fill:url(#linear-gradient-81);}.cls-92{fill:url(#linear-gradient-82);}.cls-93{fill:url(#linear-gradient-83);}.cls-94{fill:url(#linear-gradient-84);}.cls-95{fill:url(#linear-gradient-85);}.cls-96{fill:url(#linear-gradient-86);}.cls-97{fill:url(#linear-gradient-87);}.cls-98{fill:url(#linear-gradient-88);}.cls-99{fill:url(#linear-gradient-89);}.cls-100{fill:url(#linear-gradient-90);}.cls-101{fill:url(#linear-gradient-91);}</style><linearGradient id="linear-gradient" x1="1099.86" y1="-72.07" x2="728.79" y2="415.07" gradientTransform="translate(232.63 165.05) rotate(21.62)" gradientUnits="userSpaceOnUse"><stop offset="0" stop-color="#fdf53f"/><stop offset="1" stop-color="#d93c65"/></linearGradient><linearGradient id="linear-gradient-2" x1="1067" y1="82.41" x2="774.56" y2="103.98" gradientTransform="translate(232.63 165.05) rotate(21.62)" gradientUnits="userSpaceOnUse"><stop offset="0" stop-color="#53d8ff"/><stop offset="1" stop-color="#3840f7"/></linearGradient><linearGradient id="linear-gradient-3" x1="991.46" y1="86.4" x2="747.24" y2="98.46" xlink:href="#linear-gradient-2"/><linearGradient id="linear-gradient-4" x1="976.41" y1="64.37" x2="668.15" y2="149.05" xlink:href="#linear-gradient"/><linearGradient id="linear-gradient-5" x1="958.33" y1="-0.66" x2="661.51" y2="80.87" gradientTransform="matrix(1, 0, 0, 1, 165.28, 516.22)" xlink:href="#linear-gradient"/><linearGradient id="linear-gradient-6" x1="704.54" y1="466.16" x2="1034.48" y2="434.68" gradientTransform="matrix(1, 0, 0, 1, 0, 0)" xlink:href="#linear-gradient-2"/><linearGradient id="linear-gradient-7" x1="972.04" y1="161.74" x2="333.29" y2="1137.23" gradientTransform="matrix(1, 0, 0, 1, 0, 0)" xlink:href="#linear-gradient-2"/><linearGradient id="linear-gradient-8" x1="4446.38" y1="5376.67" x2="4514.82" y2="5376.67" gradientTransform="matrix(0.3, 0.95, -0.76, 0.24, 3594.06, -4847.6)" gradientUnits="userSpaceOnUse"><stop offset="0" stop-color="#a737d5"/><stop offset="1" stop-color="#ef497a"/></linearGradient><linearGradient id="linear-gradient-9" x1="-605.52" y1="75.87" x2="-679.15" y2="264.17" gradientTransform="matrix(0.9, 0.44, -0.44, 0.9, 1574.54, 685.09)" gradientUnits="userSpaceOnUse"><stop offset="0" stop-color="#a737d5"/><stop offset="1" stop-color="#ef49d2"/></linearGradient><linearGradient id="linear-gradient-10" x1="467.37" y1="519.42" x2="785.77" y2="517.17" gradientTransform="matrix(1, 0, 0, 1, 0, 0)" xlink:href="#linear-gradient"/><linearGradient id="linear-gradient-11" x1="692.1" y1="295.74" x2="199.89" y2="1047.42" gradientTransform="matrix(1, 0, 0, 1, 0, 0)" xlink:href="#linear-gradient"/><linearGradient id="linear-gradient-12" x1="3874.14" y1="6677.25" x2="3934.37" y2="6677.25" gradientTransform="matrix(-0.76, 0.65, 0.52, 0.61, -335.35, -5966.04)" xlink:href="#linear-gradient-8"/><linearGradient id="linear-gradient-13" x1="-1762.32" y1="411.95" x2="-1827.13" y2="577.66" gradientTransform="matrix(-0.99, -0.11, -0.11, 0.99, -1595.52, -212.93)" gradientUnits="userSpaceOnUse"><stop offset="0" stop-color="#ff8eff"/><stop offset="1" stop-color="#9440f7"/></linearGradient><linearGradient id="linear-gradient-14" x1="301.07" y1="569.05" x2="488.83" y2="574.7" gradientTransform="matrix(1, 0, 0, 1, 0, 0)" xlink:href="#linear-gradient-2"/><linearGradient id="linear-gradient-15" x1="435.95" y1="410.33" x2="76.07" y2="959.93" gradientTransform="matrix(1, 0, 0, 1, 0, 0)" xlink:href="#linear-gradient-2"/><linearGradient id="linear-gradient-16" x1="916.06" y1="106.77" x2="766.7" y2="332.73" gradientTransform="matrix(1, 0, 0, 1, 0, 0)" xlink:href="#linear-gradient"/><linearGradient id="linear-gradient-17" x1="682.19" y1="257.76" x2="552.69" y2="453.68" gradientTransform="matrix(1, 0, 0, 1, 0, 0)" xlink:href="#linear-gradient"/><linearGradient id="linear-gradient-18" x1="450.17" y1="379.23" x2="340.52" y2="545.1" gradientTransform="matrix(1, 0, 0, 1, 0, 0)" xlink:href="#linear-gradient"/><linearGradient id="linear-gradient-19" x1="242.13" y1="520.07" x2="152.35" y2="655.89" gradientTransform="matrix(1, 0, 0, 1, 0, 0)" xlink:href="#linear-gradient"/><linearGradient id="linear-gradient-20" x1="116.13" y1="633.62" x2="318.14" y2="633.62" gradientTransform="matrix(1, 0, 0, 1, 0, 0)" xlink:href="#linear-gradient"/><linearGradient id="linear-gradient-21" x1="189.28" y1="540.25" x2="-30.2" y2="875.44" gradientTransform="matrix(1, 0, 0, 1, 0, 0)" xlink:href="#linear-gradient"/><linearGradient id="linear-gradient-22" x1="-1054.25" y1="1060.56" x2="-1127.86" y2="1242.05" gradientTransform="matrix(-0.88, 0.47, 0.47, 0.88, -1107.9, 183.72)" gradientUnits="userSpaceOnUse"><stop offset="0" stop-color="#cb236d"/><stop offset="1" stop-color="#4c246d"/></linearGradient><linearGradient id="linear-gradient-23" x1="-1057.67" y1="983.35" x2="-1130.01" y2="1190.23" gradientTransform="matrix(-0.88, 0.47, 0.47, 0.88, -1107.9, 183.72)" gradientUnits="userSpaceOnUse"><stop offset="0" stop-color="#a737d5"/><stop offset="0.87" stop-color="#e54786"/><stop offset="1" stop-color="#ef497a"/></linearGradient><linearGradient id="linear-gradient-24" x1="-1007.24" y1="1079.62" x2="-1080.85" y2="1261.12" xlink:href="#linear-gradient-22"/><linearGradient id="linear-gradient-25" x1="548.75" y1="321.55" x2="495.24" y2="292.06" gradientTransform="matrix(1, 0, 0, 1, 0, 0)" xlink:href="#linear-gradient"/><linearGradient id="linear-gradient-26" x1="576.64" y1="315.46" x2="510.74" y2="347.38" gradientUnits="userSpaceOnUse"><stop offset="0" stop-color="#f9b776"/><stop offset="1" stop-color="#f47960"/></linearGradient><linearGradient id="linear-gradient-27" x1="576.95" y1="316.11" x2="511.06" y2="348.03" xlink:href="#linear-gradient-26"/><linearGradient id="linear-gradient-28" x1="441.94" y1="419.81" x2="452.26" y2="419.81" gradientTransform="matrix(1, 0, 0, 1, 0, 0)" xlink:href="#linear-gradient-2"/><linearGradient id="linear-gradient-29" x1="442.97" y1="419.16" x2="453.95" y2="419.16" gradientUnits="userSpaceOnUse"><stop offset="0" stop-color="#2b3582"/><stop offset="1" stop-color="#150e42"/></linearGradient><linearGradient id="linear-gradient-30" x1="448.45" y1="408.06" x2="456.53" y2="408.06" xlink:href="#linear-gradient-26"/><linearGradient id="linear-gradient-31" x1="566.36" y1="382.77" x2="581.83" y2="382.77" gradientTransform="matrix(1, 0, 0, 1, 0, 0)" xlink:href="#linear-gradient-2"/><linearGradient id="linear-gradient-32" x1="562.51" y1="382.62" x2="581.16" y2="382.62" xlink:href="#linear-gradient-29"/><linearGradient id="linear-gradient-33" x1="557.56" y1="382.08" x2="566.43" y2="382.08" xlink:href="#linear-gradient-26"/><linearGradient id="linear-gradient-34" x1="451.07" y1="378.53" x2="510.82" y2="378.53" xlink:href="#linear-gradient-29"/><linearGradient id="linear-gradient-35" x1="489.03" y1="364.3" x2="562.51" y2="364.3" xlink:href="#linear-gradient-29"/><linearGradient id="linear-gradient-36" x1="514.15" y1="306.51" x2="465.5" y2="384.03" gradientTransform="matrix(1, 0, 0, 1, 0, 0)" xlink:href="#linear-gradient"/><linearGradient id="linear-gradient-37" x1="494.86" y1="337.01" x2="455.64" y2="267.7" xlink:href="#linear-gradient-26"/><linearGradient id="linear-gradient-38" x1="509.02" y1="308" x2="502.1" y2="311.35" xlink:href="#linear-gradient-26"/><linearGradient id="linear-gradient-39" x1="519.65" y1="307.35" x2="523.76" y2="295.64" xlink:href="#linear-gradient-26"/><linearGradient id="linear-gradient-40" x1="531.34" y1="283.22" x2="513.33" y2="297" xlink:href="#linear-gradient-26"/><linearGradient id="linear-gradient-41" x1="518.66" y1="272.31" x2="535.44" y2="293.9" xlink:href="#linear-gradient-29"/><linearGradient id="linear-gradient-42" x1="529.11" y1="280.3" x2="511.1" y2="294.08" xlink:href="#linear-gradient-26"/><linearGradient id="linear-gradient-43" x1="820.22" y1="352.53" x2="826.38" y2="352.53" gradientTransform="matrix(1, 0, 0, 1, 0, 0)" xlink:href="#linear-gradient-2"/><linearGradient id="linear-gradient-44" x1="821.81" y1="350.84" x2="840.04" y2="350.84" xlink:href="#linear-gradient-29"/><linearGradient id="linear-gradient-45" x1="889.24" y1="298.22" x2="900.91" y2="298.22" gradientTransform="matrix(1, 0, 0, 1, 0, 0)" xlink:href="#linear-gradient-2"/><linearGradient id="linear-gradient-46" x1="890.99" y1="297.4" x2="913.75" y2="297.4" xlink:href="#linear-gradient-29"/><linearGradient id="linear-gradient-47" x1="1015.39" y1="83.96" x2="1065.8" y2="83.96" xlink:href="#linear-gradient-26"/><linearGradient id="linear-gradient-48" x1="1009.34" y1="101.89" x2="952.15" y2="197.11" gradientTransform="matrix(1, 0, 0, 1, 0, 0)" xlink:href="#linear-gradient-2"/><linearGradient id="linear-gradient-49" x1="832.11" y1="332.18" x2="848.63" y2="332.18" xlink:href="#linear-gradient-26"/><linearGradient id="linear-gradient-50" x1="905.84" y1="280.38" x2="922.51" y2="280.38" xlink:href="#linear-gradient-26"/><linearGradient id="linear-gradient-51" x1="997.23" y1="168.36" x2="889.35" y2="272.7" gradientTransform="matrix(1, 0, 0, 1, 0, 0)" xlink:href="#linear-gradient-22"/><linearGradient id="linear-gradient-52" x1="940.68" y1="241.55" x2="923.29" y2="256.59" gradientTransform="matrix(1, 0, 0, 1, 0, 0)" xlink:href="#linear-gradient-22"/><linearGradient id="linear-gradient-53" x1="920.44" y1="242.53" x2="911.1" y2="255.9" gradientTransform="matrix(1, 0, 0, 1, 0, 0)" xlink:href="#linear-gradient-22"/><linearGradient id="linear-gradient-54" x1="981.45" y1="149.98" x2="883.87" y2="232.52" gradientTransform="matrix(1, 0, 0, 1, 0, 0)" xlink:href="#linear-gradient-2"/><linearGradient id="linear-gradient-55" x1="886.33" y1="227.05" x2="921.25" y2="227.05" xlink:href="#linear-gradient-26"/><linearGradient id="linear-gradient-56" x1="720.85" y1="299.43" x2="886.24" y2="169.85" gradientTransform="matrix(1, 0, 0, 1, 0, 0)" xlink:href="#linear-gradient"/><linearGradient id="linear-gradient-57" x1="871.83" y1="183.45" x2="857.1" y2="201.71" gradientUnits="userSpaceOnUse"><stop offset="0" stop-color="#f9c200"/><stop offset="1" stop-color="#9b1e5f"/></linearGradient><linearGradient id="linear-gradient-58" x1="986.4" y1="-838.62" x2="1007.16" y2="-859.93" gradientTransform="translate(-217.76 677.88) rotate(15.65)" xlink:href="#linear-gradient-26"/><linearGradient id="linear-gradient-59" x1="10.75" y1="238.14" x2="-15.54" y2="272.92" gradientTransform="translate(796.05 -52.72) rotate(-46.73)" xlink:href="#linear-gradient-26"/><linearGradient id="linear-gradient-60" x1="-9.33" y1="246.49" x2="22.08" y2="246.49" gradientTransform="translate(796.05 -52.72) rotate(-46.73)" xlink:href="#linear-gradient-29"/><linearGradient id="linear-gradient-61" x1="-27.76" y1="265.69" x2="-6.67" y2="244.05" gradientTransform="translate(796.05 -52.72) rotate(-46.73)" xlink:href="#linear-gradient-26"/><linearGradient id="linear-gradient-62" x1="1057.44" y1="67.58" x2="1063.93" y2="67.58" xlink:href="#linear-gradient-26"/><linearGradient id="linear-gradient-63" x1="8856.33" y1="700.72" x2="8641.08" y2="840.25" gradientTransform="matrix(-1, 0, 0, 1, 9352.31, 0)" xlink:href="#linear-gradient-2"/><linearGradient id="linear-gradient-64" x1="472.66" y1="703.31" x2="546.16" y2="727.31" gradientTransform="matrix(1, 0, 0, 1, 0, 0)" xlink:href="#linear-gradient"/><linearGradient id="linear-gradient-65" x1="541.3" y1="605.76" x2="538.87" y2="704.18" gradientTransform="translate(1079.79 1325.05) rotate(180)" xlink:href="#linear-gradient-22"/><linearGradient id="linear-gradient-66" x1="260.53" y1="560.45" x2="340.86" y2="560.45" gradientUnits="userSpaceOnUse"><stop offset="0" stop-color="#9cfffb"/><stop offset="1" stop-color="#9bfffa"/></linearGradient><linearGradient id="linear-gradient-67" x1="297.02" y1="560.34" x2="366.18" y2="560.34" xlink:href="#linear-gradient-66"/><linearGradient id="linear-gradient-68" x1="324.32" y1="513.17" x2="353.12" y2="513.17" xlink:href="#linear-gradient-66"/><linearGradient id="linear-gradient-69" x1="317.19" y1="529.69" x2="345.99" y2="529.69" xlink:href="#linear-gradient-66"/><linearGradient id="linear-gradient-70" x1="306.09" y1="549.48" x2="336.59" y2="549.48" xlink:href="#linear-gradient-66"/><linearGradient id="linear-gradient-71" x1="332.63" y1="497.14" x2="360.2" y2="497.14" xlink:href="#linear-gradient-66"/><linearGradient id="linear-gradient-72" x1="294.28" y1="572.24" x2="327.23" y2="572.24" xlink:href="#linear-gradient-66"/><linearGradient id="linear-gradient-73" x1="284.8" y1="589.9" x2="319.99" y2="589.9" xlink:href="#linear-gradient-66"/><linearGradient id="linear-gradient-74" x1="385.95" y1="430.86" x2="379.57" y2="437.53" xlink:href="#linear-gradient-26"/><linearGradient id="linear-gradient-75" x1="305.14" y1="560.61" x2="303.44" y2="573.16" xlink:href="#linear-gradient-29"/><linearGradient id="linear-gradient-76" x1="304.5" y1="570.09" x2="300.57" y2="595.08" xlink:href="#linear-gradient-29"/><linearGradient id="linear-gradient-77" x1="297.66" y1="562.98" x2="302.71" y2="562.98" xlink:href="#linear-gradient-26"/><linearGradient id="linear-gradient-78" x1="319.31" y1="545.21" x2="307.63" y2="554.98" xlink:href="#linear-gradient-29"/><linearGradient id="linear-gradient-79" x1="315.42" y1="542.75" x2="328.58" y2="542.75" xlink:href="#linear-gradient-29"/><linearGradient id="linear-gradient-80" x1="318.78" y1="534.86" x2="325.88" y2="534.86" xlink:href="#linear-gradient-26"/><linearGradient id="linear-gradient-81" x1="334.09" y1="502.56" x2="282.29" y2="548.51" xlink:href="#linear-gradient-29"/><linearGradient id="linear-gradient-82" x1="303.42" y1="527.23" x2="312.93" y2="506.95" gradientTransform="matrix(1, 0, 0, 1, 0, 0)" xlink:href="#linear-gradient-2"/><linearGradient id="linear-gradient-83" x1="344.83" y1="496.57" x2="355.2" y2="496.57" xlink:href="#linear-gradient-26"/><linearGradient id="linear-gradient-84" x1="367.69" y1="520.38" x2="320.04" y2="452.3" gradientTransform="matrix(1, 0, 0, 1, 0, 0)" xlink:href="#linear-gradient-23"/><linearGradient id="linear-gradient-85" x1="328.08" y1="455.73" x2="330.21" y2="448.82" xlink:href="#linear-gradient-26"/><linearGradient id="linear-gradient-86" x1="338.5" y1="436.67" x2="323.08" y2="448.47" xlink:href="#linear-gradient-26"/><linearGradient id="linear-gradient-87" x1="327.67" y1="427.36" x2="341.63" y2="445.33" xlink:href="#linear-gradient-29"/><linearGradient id="linear-gradient-88" x1="336.58" y1="434.17" x2="321.17" y2="445.97" xlink:href="#linear-gradient-26"/><linearGradient id="linear-gradient-89" x1="372.65" y1="439.04" x2="392.33" y2="439.04" xlink:href="#linear-gradient-26"/><linearGradient id="linear-gradient-90" x1="324.49" y1="443.57" x2="400.97" y2="569.6" gradientTransform="matrix(1, 0, 0, 1, 0, 0)" xlink:href="#linear-gradient-23"/><linearGradient id="linear-gradient-91" x1="334.68" y1="462.53" x2="333.62" y2="479.92" gradientTransform="matrix(1, 0, 0, 1, 0, 0)" xlink:href="#linear-gradient-2"/></defs><path class="cls-1" d="M792.36,118.08c65.24,59.31,254.3-38.73,267.25,83.82,15.15,143.49-174.38,209.55-99,302.44s19.66,214.25-234,243.27S50,700.41,131.3,551.16s15-148.25,2.8-208.29S155.19,143.73,365,230.52,627.15-32.12,792.36,118.08Z" transform="translate(-86.23 -59)"/><path class="cls-2" d="M1149.28,468.58l10.85,5.11a11.11,11.11,0,0,1,5.54,14.3L1057.11,750.55a11.67,11.67,0,0,1-15.3,6.29L966,724.92Z" transform="translate(-86.23 -59)"/><path class="cls-3" d="M1015.73,415.9,1159.51,465a5.38,5.38,0,0,1,3.2,7.23L1046.15,740.92a11.25,11.25,0,0,1-14.89,5.81l-97.58-43.29Z" transform="translate(-86.23 -59)"/><path class="cls-4" d="M1021,424.61,1151.35,458a5.66,5.66,0,0,1,3.81,7.68L1040.34,737.73a7.83,7.83,0,0,1-9.88,4.31l-92.34-33.51Z" transform="translate(-86.23 -59)"/><path class="cls-5" d="M993.78,398l139.4,45.45A12.66,12.66,0,0,1,1141,460.2L1029.94,740.49a11.07,11.07,0,0,1-14.37,6.22L890.15,697a12,12,0,0,1-6.95-14.94l92.13-274.73A14.67,14.67,0,0,1,993.78,398Z" transform="translate(-86.23 -59)"/><rect class="cls-6" x="1107.14" y="472.02" width="22.75" height="89.97" rx="9.52" transform="translate(182.95 -434.75) rotate(21.62)"/><path class="cls-7" d="M769.48,211.38h86.1A40.42,40.42,0,0,1,896,251.8V696.67a0,0,0,0,1,0,0h-167a0,0,0,0,1,0,0V251.8A40.42,40.42,0,0,1,769.48,211.38Z"/><path class="cls-8" d="M728.32,211.38h86.1a40.42,40.42,0,0,1,40.42,40.42V696.67a0,0,0,0,1,0,0h-167a0,0,0,0,1,0,0V251.8A40.42,40.42,0,0,1,728.32,211.38Z"/><path class="cls-9" d="M786.1,341.07a1.5,1.5,0,0,1-1.5-1.5V309.74c0-15.92,10.64-28.87,23.7-28.87H845a1.5,1.5,0,0,1,0,3H808.3c-11.41,0-20.7,11.61-20.7,25.87v29.83A1.5,1.5,0,0,1,786.1,341.07Z" transform="translate(-86.23 -59)"/><path class="cls-9" d="M786.1,372.7a1.5,1.5,0,0,1-1.5-1.5V359.05a1.5,1.5,0,0,1,3,0V371.2A1.5,1.5,0,0,1,786.1,372.7Z" transform="translate(-86.23 -59)"/><g class="cls-10"><path class="cls-11" d="M731.56,749.56s11.37-28.17,47.87-40.14c33.87-11.1,115.64-34.52,142.1-59.95,1.17-1.13,3,.65,2.39,2.32-6.6,17.93-26.28,60.79-70.51,87.06C796.37,772.72,731.56,749.56,731.56,749.56Z" transform="translate(-86.23 -59)"/><path class="cls-12" d="M900.21,675.26a59.85,59.85,0,0,1-6.08,9.53,96.16,96.16,0,0,1-7.44,8.57,106.8,106.8,0,0,1-17.63,14.36c-12.62,8.5-27.12,14-41.58,18.07-3.61,1-7.24,2-10.87,3s-7.29,1.9-11,2.77-7.31,1.75-11,2.6l-11,2.4c-7.34,1.61-14.68,3.09-21.92,4.9-3.63.88-7.2,1.93-10.71,3.12A59.3,59.3,0,0,0,741,749.27h0a.51.51,0,0,1-.69-.18.49.49,0,0,1,.14-.66,52.1,52.1,0,0,1,10-5.47c3.52-1.42,7.09-2.69,10.71-3.78l2.71-.83,2.72-.75q2.73-.75,5.46-1.45c3.64-1,7.29-1.85,10.94-2.73,7.28-1.8,14.56-3.57,21.81-5.44s14.46-3.83,21.65-5.91c3.57-1.08,7.21-2.07,10.69-3.29l5.28-1.74c1.73-.65,3.44-1.37,5.16-2s3.45-1.35,5.11-2.18l5-2.34c1.65-.83,3.26-1.74,4.9-2.61.81-.45,1.64-.86,2.43-1.34l2.37-1.45a116.94,116.94,0,0,0,17.92-13.16c1.33-1.29,2.75-2.51,4.05-3.84s2.63-2.64,3.85-4.05a69.31,69.31,0,0,0,6.89-8.83.06.06,0,0,1,.08,0A.08.08,0,0,1,900.21,675.26Z" transform="translate(-86.23 -59)"/></g><g class="cls-10"><path class="cls-13" d="M953.79,468.22a2.76,2.76,0,0,0-4.92-2.12c-16.78,22.13-62.6,78.78-107.43,100.77-73,35.79-142.66,113.16-128.51,173C712.93,739.89,903,777.09,953.79,468.22Z" transform="translate(-86.23 -59)"/><path class="cls-14" d="M934.91,501.79c-.38.8-.76,1.42-1.14,2.1l-1.16,2-2.36,4c-1.59,2.63-3.22,5.23-4.85,7.83q-4.92,7.8-10,15.47c-6.8,10.23-13.88,20.28-21.1,30.22s-14.71,19.69-22.4,29.27-15.55,19.05-23.7,28.26a588.66,588.66,0,0,1-52,52.29c-9.31,8-18.84,15.84-28.8,23.07a316.92,316.92,0,0,1-31.09,19.84.49.49,0,0,1-.68-.19.5.5,0,0,1,.18-.67h0a360.11,360.11,0,0,0,30.36-20.64c9.78-7.35,19.13-15.27,28.25-23.42s17.92-16.67,26.52-25.39,16.82-17.78,25-26.9c16.29-18.29,31.58-37.46,46.35-57q11-14.7,21.51-29.81,5.25-7.54,10.35-15.2l5-7.7,2.47-3.87,1.22-2c.38-.64.81-1.33,1.13-1.9l0-.1a.49.49,0,0,1,.88.45Z" transform="translate(-86.23 -59)"/></g><path class="cls-15" d="M537.52,340.32h81.19a40.42,40.42,0,0,1,40.42,40.42V696.67a0,0,0,0,1,0,0h-162a0,0,0,0,1,0,0V380.74A40.42,40.42,0,0,1,537.52,340.32Z"/><path class="cls-16" d="M496.36,340.32h81.19A40.42,40.42,0,0,1,618,380.74V696.67a0,0,0,0,1,0,0h-162a0,0,0,0,1,0,0V380.74A40.42,40.42,0,0,1,496.36,340.32Z"/><path class="cls-9" d="M553,466.13a1.5,1.5,0,0,1-1.5-1.5V439.35c0-13.62,9.12-24.7,20.32-24.7H603a1.5,1.5,0,0,1,0,3H571.85c-9.55,0-17.32,9.73-17.32,21.7v25.28A1.5,1.5,0,0,1,553,466.13Z" transform="translate(-86.23 -59)"/><path class="cls-9" d="M553,492.94a1.5,1.5,0,0,1-1.5-1.5v-10.3a1.5,1.5,0,0,1,3,0v10.3A1.5,1.5,0,0,1,553,492.94Z" transform="translate(-86.23 -59)"/><g class="cls-10"><path class="cls-17" d="M186.54,705.58s4.84-26.3-16.64-52.41C150,629,100.24,573,92.58,541.61c-.34-1.39-2.55-.93-2.88.6-3.54,16.44-9.13,57.57,11.35,97.94C127.46,692.22,186.54,705.58,186.54,705.58Z" transform="translate(-86.23 -59)"/><path class="cls-12" d="M96.38,570.84a60.65,60.65,0,0,0,1,9.8c.25,1.62.62,3.22,1,4.82s.84,3.16,1.22,4.75a104.54,104.54,0,0,0,7.16,18.18l1.08,2.18c.37.73.79,1.43,1.18,2.14.81,1.41,1.58,2.85,2.41,4.24l2.65,4.1c.84,1.4,1.81,2.7,2.77,4s1.88,2.65,2.87,3.95l3.09,3.77c2,2.54,4.25,5,6.39,7.48q6.54,7.4,13.29,14.6c4.5,4.81,9.06,9.57,13.62,14.34,2.29,2.39,4.58,4.77,6.82,7.21,1.13,1.21,2.26,2.43,3.37,3.66l1.67,1.85,1.61,1.9c2.17,2.52,4.22,5.17,6.16,7.89a46,46,0,0,1,4.81,8.82.5.5,0,0,1-.28.65.51.51,0,0,1-.63-.24h0a52.94,52.94,0,0,0-5.31-8.17c-2.06-2.54-4.22-5-6.51-7.34-4.54-4.74-9.31-9.29-14-13.93l-7.06-7c-2.32-2.36-4.65-4.71-6.94-7.1s-4.58-4.79-6.83-7.22-4.47-4.9-6.66-7.39c-8.83-9.84-17-20.8-22.37-33.1a93.71,93.71,0,0,1-6.28-19,85.24,85.24,0,0,1-1.44-9.9,52.6,52.6,0,0,1,0-10s0-.06.07-.05A.06.06,0,0,1,96.38,570.84Z" transform="translate(-86.23 -59)"/></g><g class="cls-10"><path class="cls-18" d="M154.08,391.72a2.43,2.43,0,0,1,4.66.74c2,24.36,9.36,88.07,32.3,125.54C228.4,579,243.69,669.36,205,707.17,205,707.17,46.16,645.18,154.08,391.72Z" transform="translate(-86.23 -59)"/><path class="cls-14" d="M153.19,425.76c0,.56,0,1.28-.05,1.94v2l0,4,.12,8.09q.18,8.08.55,16.17.69,16.16,2,32.29c1.77,21.49,4.09,42.94,7.58,64.21,1.78,10.62,3.61,21.24,5.88,31.77s4.79,21,7.72,31.36A342.66,342.66,0,0,0,199.63,678a.5.5,0,0,1-.88.47,278,278,0,0,1-13.81-29.39c-4-10.07-7.42-20.36-10.56-30.73a516.94,516.94,0,0,1-14-63.39c-1.71-10.69-3.07-21.43-4.27-32.18s-2.17-21.53-2.83-32.33-1.18-21.6-1.4-32.41c-.09-5.41-.14-10.81-.11-16.22,0-2.7,0-5.41.1-8.11l.12-4.06.09-2c0-.68.05-1.32.14-2.1a.51.51,0,0,1,.55-.44.49.49,0,0,1,.44.52Z" transform="translate(-86.23 -59)"/></g><path class="cls-19" d="M333.68,444.47h58.78a40.42,40.42,0,0,1,40.42,40.42V696.16a0,0,0,0,1,0,0H293.26a0,0,0,0,1,0,0V484.89A40.42,40.42,0,0,1,333.68,444.47Z"/><path class="cls-20" d="M292.52,444.47H351.3a40.42,40.42,0,0,1,40.42,40.42V696.16a0,0,0,0,1,0,0H252.1a0,0,0,0,1,0,0V484.89A40.42,40.42,0,0,1,292.52,444.47Z"/><path class="cls-9" d="M349.86,575.42a1.5,1.5,0,0,1-1.5-1.5V544.09c0-15.92,10.63-28.88,23.7-28.88h36.71a1.5,1.5,0,0,1,0,3H372.06c-11.42,0-20.7,11.61-20.7,25.88v29.83A1.5,1.5,0,0,1,349.86,575.42Z" transform="translate(-86.23 -59)"/><path class="cls-9" d="M349.86,607a1.5,1.5,0,0,1-1.5-1.5V593.39a1.5,1.5,0,0,1,3,0v12.15A1.5,1.5,0,0,1,349.86,607Z" transform="translate(-86.23 -59)"/><path class="cls-21" d="M883.69,87.65,902,124.8a11.46,11.46,0,0,0,8.66,6.29l41,6a11.5,11.5,0,0,1,6.37,19.62l-29.67,28.92a11.5,11.5,0,0,0-3.31,10.18l7,40.84a11.5,11.5,0,0,1-16.69,12.12l-36.67-19.28a11.52,11.52,0,0,0-10.71,0l-36.67,19.28a11.5,11.5,0,0,1-16.69-12.12l7-40.84a11.5,11.5,0,0,0-3.31-10.18l-29.67-28.92a11.5,11.5,0,0,1,6.37-19.62l41-6a11.46,11.46,0,0,0,8.66-6.29l18.34-37.15A11.5,11.5,0,0,1,883.69,87.65Z" transform="translate(-86.23 -59)"/><path class="cls-22" d="M920.75,243.13a4.59,4.59,0,0,1-2.12-.55L882,223.3a18.44,18.44,0,0,0-17.17,0l-36.67,19.28a4.59,4.59,0,0,1-2.12.55,4.71,4.71,0,0,1-3.53-1.68,4.39,4.39,0,0,1-1-3.67l7-40.83a18.45,18.45,0,0,0-5.3-16.34L793.54,151.7a4.56,4.56,0,0,1,2.52-7.77l41-6A18.47,18.47,0,0,0,851,127.88l18.33-37.15a4.55,4.55,0,0,1,8.17,0l18.33,37.15A18.47,18.47,0,0,0,909.69,138l41,6a4.56,4.56,0,0,1,2.52,7.77l-29.67,28.91a18.45,18.45,0,0,0-5.3,16.34l7,40.83a4.39,4.39,0,0,1-1,3.67A4.71,4.71,0,0,1,920.75,243.13Z" transform="translate(-86.23 -59)"/><path class="cls-9" d="M834.48,187a1.06,1.06,0,0,1-1-.72,24.3,24.3,0,0,0-6.16-9.91l-11.29-11a1,1,0,0,1,0-1.47,1.05,1.05,0,0,1,1.48,0l11.29,11a26.66,26.66,0,0,1,6.69,10.77,1.06,1.06,0,0,1-.67,1.31A1.26,1.26,0,0,1,834.48,187Z" transform="translate(-86.23 -59)"/><path class="cls-9" d="M856.65,220.77a1,1,0,0,1-.49-2l4.91-2.58a26.42,26.42,0,0,1,24.61,0,1.05,1.05,0,0,1,.44,1.41,1,1,0,0,1-1.41.43,24.42,24.42,0,0,0-22.67,0l-4.91,2.58A.93.93,0,0,1,856.65,220.77Z" transform="translate(-86.23 -59)"/><path class="cls-9" d="M907.68,229.06a8.28,8.28,0,0,1-2.45-.37,1,1,0,0,1,.61-2,6.34,6.34,0,0,0,6.08-1.36,6.27,6.27,0,0,0,2.07-5.88l-3.63-21.16a26.46,26.46,0,0,1,7.6-23.41l15.38-15A6.41,6.41,0,0,0,929.78,149l-21.24-3.09a26.42,26.42,0,0,1-19.91-14.47l-9.5-19.25a6.42,6.42,0,0,0-11.51,0l-9.5,19.25a26.42,26.42,0,0,1-19.91,14.47L817,149a6.35,6.35,0,0,0-3.35,1.53,1,1,0,1,1-1.38-1.55,8.41,8.41,0,0,1,4.43-2l21.24-3.08a24.37,24.37,0,0,0,18.34-13.33l9.5-19.25a8.5,8.5,0,0,1,15.25,0l9.5,19.25a24.37,24.37,0,0,0,18.34,13.33l21.24,3.08a8.5,8.5,0,0,1,4.71,14.5l-15.37,15a24.35,24.35,0,0,0-7,21.55L916,219.1a8.52,8.52,0,0,1-8.36,10Z" transform="translate(-86.23 -59)"/><path class="cls-21" d="M654.12,241.18,670,273.39a10,10,0,0,0,7.51,5.46L713.08,284a10,10,0,0,1,5.53,17L692.88,326.1a10,10,0,0,0-2.87,8.83l6.08,35.4a10,10,0,0,1-14.47,10.51l-31.8-16.71a10,10,0,0,0-9.28,0l-31.8,16.71a10,10,0,0,1-14.47-10.51l6.08-35.4a10,10,0,0,0-2.87-8.83L571.76,301a10,10,0,0,1,5.52-17l35.55-5.17a10,10,0,0,0,7.51-5.46l15.9-32.21A10,10,0,0,1,654.12,241.18Z" transform="translate(-86.23 -59)"/><path class="cls-23" d="M686.26,376a3.89,3.89,0,0,1-1.84-.48l-31.8-16.71a16,16,0,0,0-14.88,0l-31.8,16.71a3.89,3.89,0,0,1-1.84.48,4.07,4.07,0,0,1-3.05-1.46,3.76,3.76,0,0,1-.84-3.18l6.07-35.4a16,16,0,0,0-4.6-14.16L576,296.71a3.94,3.94,0,0,1,2.19-6.73l35.55-5.17a16,16,0,0,0,12-8.75l15.9-32.21a3.95,3.95,0,0,1,7.08,0l15.9,32.21a16,16,0,0,0,12,8.75L712.21,290a3.94,3.94,0,0,1,2.19,6.73l-25.72,25.08a16,16,0,0,0-4.6,14.16l6.07,35.4a3.76,3.76,0,0,1-.84,3.18A4.07,4.07,0,0,1,686.26,376Z" transform="translate(-86.23 -59)"/><path class="cls-9" d="M611.46,327.34a.91.91,0,0,1-.86-.62,21.14,21.14,0,0,0-5.34-8.6l-9.79-9.54a.9.9,0,0,1,0-1.28.89.89,0,0,1,1.27,0l9.79,9.53a23.05,23.05,0,0,1,5.8,9.34.89.89,0,0,1-.86,1.18Z" transform="translate(-86.23 -59)"/><path class="cls-9" d="M630.68,356.61a.91.91,0,0,1-.42-1.71l4.25-2.24a23,23,0,0,1,21.34,0,.91.91,0,0,1,.38,1.22.89.89,0,0,1-1.22.38,21.17,21.17,0,0,0-19.66,0l-4.25,2.24A.94.94,0,0,1,630.68,356.61Z" transform="translate(-86.23 -59)"/><path class="cls-9" d="M674.92,363.79a7.42,7.42,0,0,1-2.12-.32.9.9,0,1,1,.53-1.73,5.51,5.51,0,0,0,5.27-1.17,5.44,5.44,0,0,0,1.79-5.11l-3.14-18.34a22.94,22.94,0,0,1,6.59-20.3l13.33-13a5.56,5.56,0,0,0-3.08-9.49l-18.42-2.67a22.94,22.94,0,0,1-17.26-12.54l-8.24-16.7a5.57,5.57,0,0,0-10,0L632,279.13a22.94,22.94,0,0,1-17.26,12.54l-18.42,2.67a5.48,5.48,0,0,0-2.9,1.34.9.9,0,0,1-1.2-1.35,7.29,7.29,0,0,1,3.84-1.77l18.42-2.68a21.11,21.11,0,0,0,15.9-11.55l8.24-16.7a7.38,7.38,0,0,1,13.22,0l8.24,16.7a21.11,21.11,0,0,0,15.9,11.55l18.42,2.68a7.36,7.36,0,0,1,4.08,12.57l-13.33,13A21.09,21.09,0,0,0,679,336.81l3.15,18.35a7.32,7.32,0,0,1-2.38,6.76A7.4,7.4,0,0,1,674.92,363.79Z" transform="translate(-86.23 -59)"/><path class="cls-21" d="M426.4,365.19l13.46,27.27a8.46,8.46,0,0,0,6.36,4.62l30.1,4.37A8.45,8.45,0,0,1,481,415.86l-21.78,21.23a8.43,8.43,0,0,0-2.43,7.47l5.14,30a8.44,8.44,0,0,1-12.25,8.9l-26.92-14.15a8.47,8.47,0,0,0-7.86,0L388,483.43a8.44,8.44,0,0,1-12.25-8.9l5.14-30a8.4,8.4,0,0,0-2.43-7.47l-21.77-21.23a8.45,8.45,0,0,1,4.68-14.41l30.09-4.37a8.46,8.46,0,0,0,6.36-4.62l13.46-27.27A8.44,8.44,0,0,1,426.4,365.19Z" transform="translate(-86.23 -59)"/><path class="cls-24" d="M453.61,479.32a3.32,3.32,0,0,1-1.56-.4l-26.92-14.15a13.5,13.5,0,0,0-12.6,0l-26.92,14.15a3.29,3.29,0,0,1-1.56.4,3.44,3.44,0,0,1-2.58-1.23,3.18,3.18,0,0,1-.71-2.69l5.14-30a13.56,13.56,0,0,0-3.89-12L360.23,412.2a3.34,3.34,0,0,1,1.85-5.7l30.1-4.37a13.52,13.52,0,0,0,10.19-7.41l13.46-27.27a3.34,3.34,0,0,1,6,0l13.46,27.27a13.52,13.52,0,0,0,10.2,7.41l30.09,4.37a3.35,3.35,0,0,1,1.86,5.7l-21.78,21.23a13.54,13.54,0,0,0-3.9,12l5.14,30a3.21,3.21,0,0,1-.7,2.69A3.46,3.46,0,0,1,453.61,479.32Z" transform="translate(-86.23 -59)"/><path class="cls-9" d="M390.28,438.14a.76.76,0,0,1-.72-.53,18,18,0,0,0-4.53-7.28l-8.28-8.08a.76.76,0,1,1,1.06-1.09l8.29,8.07a19.56,19.56,0,0,1,4.91,7.9.77.77,0,0,1-.49,1A1,1,0,0,1,390.28,438.14Z" transform="translate(-86.23 -59)"/><path class="cls-9" d="M406.55,462.91a.76.76,0,0,1-.35-1.44l3.6-1.89a19.4,19.4,0,0,1,18.06,0,.76.76,0,1,1-.71,1.35,17.91,17.91,0,0,0-16.64,0l-3.6,1.89A.8.8,0,0,1,406.55,462.91Z" transform="translate(-86.23 -59)"/><path class="cls-9" d="M444,469a5.8,5.8,0,0,1-1.79-.27.76.76,0,0,1-.51-1,.77.77,0,0,1,1-.51,4.7,4.7,0,0,0,4.47-1,4.61,4.61,0,0,0,1.51-4.32L446,446.41a19.42,19.42,0,0,1,5.58-17.18l11.29-11a4.71,4.71,0,0,0-2.61-8l-15.6-2.27A19.38,19.38,0,0,1,430,397.32l-7-14.14a4.71,4.71,0,0,0-8.44,0l-7,14.14A19.36,19.36,0,0,1,393,407.93l-15.6,2.27a4.74,4.74,0,0,0-2.45,1.13.76.76,0,0,1-1-1.14,6.11,6.11,0,0,1,3.25-1.5l15.6-2.27a17.88,17.88,0,0,0,13.46-9.78l7-14.13a6.24,6.24,0,0,1,11.19,0l7,14.13a17.89,17.89,0,0,0,13.46,9.78l15.6,2.27a6.24,6.24,0,0,1,3.46,10.64l-11.29,11a17.87,17.87,0,0,0-5.14,15.82l2.66,15.54a6.19,6.19,0,0,1-2,5.73A6.27,6.27,0,0,1,444,469Z" transform="translate(-86.23 -59)"/><path class="cls-21" d="M222.67,508.57l11,22.34a6.93,6.93,0,0,0,5.21,3.78l24.64,3.58a6.91,6.91,0,0,1,3.83,11.79l-17.83,17.39a6.91,6.91,0,0,0-2,6.12l4.21,24.54a6.91,6.91,0,0,1-10,7.29l-22-11.59a6.92,6.92,0,0,0-6.44,0l-22,11.59a6.91,6.91,0,0,1-10-7.29l4.21-24.54a6.91,6.91,0,0,0-2-6.12l-17.83-17.39a6.91,6.91,0,0,1,3.83-11.79L194,534.69a6.93,6.93,0,0,0,5.21-3.78l11-22.34A6.92,6.92,0,0,1,222.67,508.57Z" transform="translate(-86.23 -59)"/><path class="cls-25" d="M245,602a2.74,2.74,0,0,1-1.28-.33l-22-11.59a11.12,11.12,0,0,0-10.32,0l-22,11.59A2.74,2.74,0,0,1,188,602a2.84,2.84,0,0,1-2.12-1,2.66,2.66,0,0,1-.58-2.2l4.21-24.55a11.07,11.07,0,0,0-3.19-9.82l-17.83-17.38A2.74,2.74,0,0,1,170,542.4l24.64-3.58a11,11,0,0,0,8.35-6.07l11-22.33a2.73,2.73,0,0,1,4.9,0l11,22.33a11,11,0,0,0,8.35,6.07l24.64,3.58a2.74,2.74,0,0,1,1.52,4.67l-17.83,17.38a11.07,11.07,0,0,0-3.19,9.82l4.21,24.55a2.66,2.66,0,0,1-.58,2.2A2.84,2.84,0,0,1,245,602Z" transform="translate(-86.23 -59)"/><path class="cls-9" d="M193.09,568.31a.62.62,0,0,1-.59-.44,14.62,14.62,0,0,0-3.71-6L182,555.3a.63.63,0,0,1,.87-.9l6.79,6.62a15.83,15.83,0,0,1,4,6.47.61.61,0,0,1-.4.78A.48.48,0,0,1,193.09,568.31Z" transform="translate(-86.23 -59)"/><path class="cls-9" d="M206.42,588.59a.63.63,0,0,1-.56-.33.64.64,0,0,1,.26-.85l2.95-1.55a16,16,0,0,1,14.8,0,.63.63,0,1,1-.59,1.11,14.64,14.64,0,0,0-13.62,0l-2.95,1.55A.65.65,0,0,1,206.42,588.59Z" transform="translate(-86.23 -59)"/><path class="cls-9" d="M237.09,593.57a4.94,4.94,0,0,1-1.47-.22.63.63,0,0,1-.42-.78.62.62,0,0,1,.79-.41,3.83,3.83,0,0,0,3.65-.82,3.78,3.78,0,0,0,1.24-3.54l-2.18-12.72A15.91,15.91,0,0,1,243.27,561l9.24-9a3.86,3.86,0,0,0-2.13-6.58l-12.77-1.86a15.88,15.88,0,0,1-12-8.69l-5.71-11.57a3.86,3.86,0,0,0-6.92,0l-5.71,11.57a15.88,15.88,0,0,1-12,8.69l-12.77,1.86a3.88,3.88,0,0,0-2,.92.62.62,0,1,1-.83-.93,5.11,5.11,0,0,1,2.66-1.23l12.77-1.86a14.65,14.65,0,0,0,11-8l5.71-11.58a5.11,5.11,0,0,1,9.16,0l5.71,11.58a14.65,14.65,0,0,0,11,8l12.77,1.86a5.11,5.11,0,0,1,2.83,8.71l-9.24,9a14.63,14.63,0,0,0-4.21,13l2.18,12.72a5.12,5.12,0,0,1-5,6Z" transform="translate(-86.23 -59)"/><path class="cls-26" d="M130.63,571.08h58.78a40.42,40.42,0,0,1,40.42,40.42v84.66a0,0,0,0,1,0,0H90.21a0,0,0,0,1,0,0V611.5A40.42,40.42,0,0,1,130.63,571.08Z"/><path class="cls-27" d="M89.47,571.08h58.78a40.42,40.42,0,0,1,40.42,40.42v84.66a0,0,0,0,1,0,0H49a0,0,0,0,1,0,0V611.5A40.42,40.42,0,0,1,89.47,571.08Z"/><path class="cls-9" d="M145.21,700a1.5,1.5,0,0,1-1.5-1.5V668.64c0-15.92,10.63-28.87,23.7-28.87h36.71a1.5,1.5,0,0,1,0,3H167.41c-11.42,0-20.7,11.61-20.7,25.87v29.83A1.5,1.5,0,0,1,145.21,700Z" transform="translate(-86.23 -59)"/><path class="cls-9" d="M145.21,731.6a1.5,1.5,0,0,1-1.5-1.5V718a1.5,1.5,0,0,1,3,0V730.1A1.5,1.5,0,0,1,145.21,731.6Z" transform="translate(-86.23 -59)"/><path class="cls-28" d="M412.91,747.41c2.6-6,28-68.71-19.59-117.64a2.27,2.27,0,0,0-3.79.89c-2.73,8.5-7.63,31.48,10,52.73,18.35,22.14,13,53.15,10.64,63.1a1.46,1.46,0,0,0,2.11,1.62h0A1.43,1.43,0,0,0,412.91,747.41Z" transform="translate(-86.23 -59)"/><path class="cls-29" d="M406.12,751.39a1.34,1.34,0,0,0,.71-1.06c.57-5.74,3.67-44.56-12.65-70.18C374.32,649,288.15,579.4,344.4,513.69a1.43,1.43,0,0,0-1.64-2.25c-16.76,7.41-63.11,33.67-43.85,91.45,23.18,69.51,110.69,30,105.22,147.23a1.35,1.35,0,0,0,2,1.27Z" transform="translate(-86.23 -59)"/><path class="cls-30" d="M401.09,754.08a1.35,1.35,0,0,0,.72-1.12c.45-7.85,3.3-74-27.62-77.77-31.91-3.92-70,27-111.15,17.74a1.55,1.55,0,0,0-1.65,2.37c6.21,9.11,26.3,33.17,60.69,24.2,42.09-11,51.29-22.82,64.2-4,9.57,14,12.18,31.59,12.81,37.48a1.36,1.36,0,0,0,2,1.05Z" transform="translate(-86.23 -59)"/><path class="cls-31" d="M275.41,697.93a56.66,56.66,0,0,0,18.18,3.63c1.53.12,3.08.06,4.62.05s3.08-.15,4.62-.23,3.06-.35,4.58-.54,3-.48,4.55-.78a89.08,89.08,0,0,0,17.62-5.5c2.82-1.14,5.77-2.51,8.72-3.74s5.93-2.44,9-3.5A67.21,67.21,0,0,1,366.42,683a29.62,29.62,0,0,1,10.12,1.14,22.91,22.91,0,0,1,8.9,5.14,30.69,30.69,0,0,1,6.06,8,49.52,49.52,0,0,1,3.69,9,97.08,97.08,0,0,1,3.58,18.84.39.39,0,0,1-.36.43.38.38,0,0,1-.42-.31,122.16,122.16,0,0,0-5.19-18.11,54.54,54.54,0,0,0-4.06-8.3,28,28,0,0,0-5.75-6.79,18.93,18.93,0,0,0-7.6-4,27.2,27.2,0,0,0-8.71-.66c-6,.43-11.91,2.31-17.75,4.41-2.92,1.05-5.81,2.26-8.69,3.49s-5.67,2.59-8.75,3.77l-2.26.91c-.76.3-1.5.63-2.28.86l-4.65,1.5a18.62,18.62,0,0,1-2.36.63l-2.38.55c-.8.18-1.58.39-2.38.54l-2.42.38a43.74,43.74,0,0,1-4.85.62c-1.63.1-3.25.31-4.88.26a58.82,58.82,0,0,1-9.75-.55,46.7,46.7,0,0,1-18.34-6.12.46.46,0,0,1-.15-.64.46.46,0,0,1,.57-.19Z" transform="translate(-86.23 -59)"/><path class="cls-31" d="M398.09,646a77.38,77.38,0,0,1,12,19.1,106.94,106.94,0,0,1,4.11,10.54,100.08,100.08,0,0,1,3,10.91,90,90,0,0,1,1.8,11.18c.22,1.88.28,3.77.39,5.66s.1,3.78,0,5.66-.23,3.77-.39,5.65c-.08.94-.26,1.87-.39,2.8s-.27,1.86-.47,2.78a70.39,70.39,0,0,1-3,10.85.42.42,0,0,1-.53.26.41.41,0,0,1-.26-.47v0c.37-1.81.85-3.6,1.12-5.42l.47-2.72.33-2.74a85.72,85.72,0,0,0,.44-11c0-1.83-.17-3.65-.26-5.47s-.34-3.64-.63-5.45-.59-3.6-.89-5.4-.74-3.58-1.21-5.35c-.9-3.54-1.9-7.06-3.12-10.51s-2.59-6.84-4-10.21c-2.9-6.72-6.12-13.34-9.54-19.88v0a.65.65,0,0,1,.27-.88A.66.66,0,0,1,398.09,646Z" transform="translate(-86.23 -59)"/><path class="cls-32" d="M539.94,303.91l-8.77,13.5c4.08,7.95,8.61,12.33,13.14,14.42a24.28,24.28,0,0,1,5.83-11.5C542.05,315.73,539.94,303.91,539.94,303.91Z" transform="translate(-86.23 -59)"/><path class="cls-33" d="M570.07,317.9c-9,5.32-15.39,5-19.93,2.43a24.28,24.28,0,0,0-5.83,11.5c14.42,6.63,28.85-10.06,28.85-10.06Z" transform="translate(-86.23 -59)"/><path class="cls-34" d="M570.56,320.22s-2.42-4.23,1.06-7.48c0,0,1.13-1.28,2.36.61,0,0,3.75-3.41,4.78-2s3.74,4.77,1.09,8.64S571.75,322.12,570.56,320.22Z" transform="translate(-86.23 -59)"/><path class="cls-35" d="M574.24,318.42a2.64,2.64,0,0,1-1.36-.34,2.38,2.38,0,0,1-1.13-1.85,1,1,0,0,1,.87-1.12,1,1,0,0,1,1.12.86c0,.15.06.33.16.39a.5.5,0,0,0,.16.05l-.64-2a1,1,0,0,1,1.91-.6l1,3.12a1,1,0,0,1-.59,1.23A4.05,4.05,0,0,1,574.24,318.42Z" transform="translate(-86.23 -59)"/><path class="cls-36" d="M443,408.52a2.31,2.31,0,0,0-1,2.43c.73,3.82,3.14,13.89,9,19.86a.88.88,0,0,0,1.29,0,33.21,33.21,0,0,1-5.46-8.65C443.5,415.28,442.89,411,443,408.52Z" transform="translate(-86.23 -59)"/><path class="cls-37" d="M450.53,408.38a8.18,8.18,0,0,0-7.52.12l0,0c-.09,2.52.52,6.76,3.82,13.64a33.21,33.21,0,0,0,5.46,8.65,1,1,0,0,0,.24-.43C453.6,426.57,455.92,416,450.53,408.38Z" transform="translate(-86.23 -59)"/><path class="cls-38" d="M456,408.62l-3.41,3.27a1.78,1.78,0,0,1-2.23.21,4.63,4.63,0,0,1-1.74-2.14,1.79,1.79,0,0,1,.33-1.9l3.41-3.75a1.8,1.8,0,0,1,2.88.29l1.07,1.8A1.82,1.82,0,0,1,456,408.62Z" transform="translate(-86.23 -59)"/><path class="cls-39" d="M566.36,392.18a2.31,2.31,0,0,0,2.6-.34c3-2.52,10.53-9.59,12.83-17.62a.88.88,0,0,0-.63-1.12,33.63,33.63,0,0,1-4.83,9C572,388.39,568.59,391,566.36,392.18Z" transform="translate(-86.23 -59)"/><path class="cls-40" d="M562.51,385.69a8.19,8.19,0,0,0,3.82,6.48h0c2.23-1.16,5.62-3.79,10-10.06a33.63,33.63,0,0,0,4.83-9,.94.94,0,0,0-.5,0C576.8,374,566.44,377.25,562.51,385.69Z" transform="translate(-86.23 -59)"/><path class="cls-41" d="M562.24,378.58l3.57,3.11a1.79,1.79,0,0,1,.41,2.2,4.74,4.74,0,0,1-2,1.93,1.82,1.82,0,0,1-1.93-.16l-4-3.06a1.8,1.8,0,0,1,0-2.9l1.7-1.22A1.8,1.8,0,0,1,562.24,378.58Z" transform="translate(-86.23 -59)"/><path class="cls-42" d="M490.64,347.12s-7,23.72-11.47,34.15c0,0-7.87,1.2-12.74,4.05s-15.36,18.62-15.36,18.62,2.74,5.2,6,6L487,389.24l23.84-27.72-1.13-12.86Z" transform="translate(-86.23 -59)"/><path class="cls-43" d="M491.07,345.18l-2,6.5s1.86,17,23.34,14.16,24.17-6.38,24.17-6.38-1.87,10.88,21.61,24c0,0,3.57-2.7,4.36-5.75l-16.46-27.12c-2.28-3.56-4.41-4.5-8.59-3.84-9.24,1.44-26.54,3.32-29.16,2.88Z" transform="translate(-86.23 -59)"/><path class="cls-44" d="M507.84,296.87c-6.26.32-16.15,3.3-22.54,9.18a77.54,77.54,0,0,1,7.24,9.17,19.72,19.72,0,0,1,9-4.47,265.91,265.91,0,0,1-12.74,37.32,1.36,1.36,0,0,0,.79,1.83c3.92,1.36,15.49,4.62,24.76-.62l20.56-29.44a25.33,25.33,0,0,0,4.25-10.61l.81-5.32S521.47,296.18,507.84,296.87Z" transform="translate(-86.23 -59)"/><path class="cls-45" d="M496.63,341.42c-.9-2-4-3.82-5.42-4.61-1.27-2.62-6.34-14.39,1.33-21.59a77.54,77.54,0,0,0-7.24-9.17c-7.37,6.78-10.07,17.45,2.86,32.37-.71,3.68,1.59,8,2.84,8.56C491.57,347.26,497.81,344,496.63,341.42Z" transform="translate(-86.23 -59)"/><path class="cls-46" d="M502.7,311.29a1,1,0,0,1-.21-2l5.72-1.23a1,1,0,0,1,.42,2l-5.72,1.23Z" transform="translate(-86.23 -59)"/><path class="cls-47" d="M521.73,289.05l-5.38,10.52a1.73,1.73,0,0,0,.26,1.95c1.3,1.45,4.37,3.8,9.71,2.11a1.6,1.6,0,0,0,1.1-1.31l1.4-9.55Z" transform="translate(-86.23 -59)"/><path class="cls-48" d="M530.68,276.85s3.15,7.23,3.36,11,1,6.26-3.36,7a9.35,9.35,0,0,1-10.1-5.21s-3.14-5.83-2.43-8.21S530.68,276.85,530.68,276.85Z" transform="translate(-86.23 -59)"/><path class="cls-49" d="M522.08,287l.25-.11a.61.61,0,0,0,.3-.83c-.62-1.19-1.83-3.93-.27-4.57,2-.83,10-2.45,11.69-5.28a5.25,5.25,0,0,0-2-7.21.29.29,0,0,0-.39.12l-.19.35a.3.3,0,0,1-.55-.06h0a.3.3,0,0,0-.54-.07c-.52.84-2,2.21-5.76,2.92-5.42,1-9,3.19-9.09,6.93a.3.3,0,0,1-.46.25c-.4-.24-1-.36-1.9.36-1.49,1.25-.88,4.5,2.38,7.17a.29.29,0,0,1,0,.48c-.59.38-1.47,1.3.81,2.52a7.64,7.64,0,0,0,4.81,1,.29.29,0,0,0,.24-.35l-.73-3.29a.3.3,0,0,1,.3-.37Z" transform="translate(-86.23 -59)"/><path class="cls-50" d="M522.22,287.68s-1.2-4.63-3.27-3.33,1.07,5.18,2.74,5.35Z" transform="translate(-86.23 -59)"/><path class="cls-51" d="M823.93,340.34a13.59,13.59,0,0,1,2.45-7.13c-2.43.79-3.35,2.6-3.91,7.43-.68,5.75-1.89,21.32-2.2,24.76a7.09,7.09,0,0,0,2.2,6.25c.36.37.92.2,1.59-.32a11.13,11.13,0,0,1-2.18-5C821.45,364,823.37,347.94,823.93,340.34Z" transform="translate(-86.23 -59)"/><path class="cls-52" d="M839.83,335.82l-4.22-5.47a33.48,33.48,0,0,1-7.68,2.5,9.85,9.85,0,0,0-1.55.36,13.59,13.59,0,0,0-2.45,7.13c-.56,7.6-2.48,23.68-2,26a11.13,11.13,0,0,0,2.18,5,21.68,21.68,0,0,0,4.51-6.25c2-3.9,8.87-15.57,10.48-19.93A20.81,20.81,0,0,0,839.83,335.82Z" transform="translate(-86.23 -59)"/><path class="cls-53" d="M897.32,286.06a13.59,13.59,0,0,1,3.59-6.62c-2.53.38-3.73,2-5.09,6.68-1.61,5.56-5.38,20.71-6.26,24.06a7.15,7.15,0,0,0,1.13,6.53c.3.42.88.35,1.63-.06a11.22,11.22,0,0,1-1.33-5.29C891,309,895.5,293.47,897.32,286.06Z" transform="translate(-86.23 -59)"/><path class="cls-54" d="M913.75,284.24l-3.26-6.1a33.15,33.15,0,0,1-8,1.2,11,11,0,0,0-1.59.1,13.59,13.59,0,0,0-3.59,6.62C895.5,293.47,891,309,891,311.36a11.22,11.22,0,0,0,1.33,5.29,21.67,21.67,0,0,0,5.48-5.41c2.64-3.52,11.33-13.89,13.63-17.93A20.84,20.84,0,0,0,913.75,284.24Z" transform="translate(-86.23 -59)"/><path class="cls-55" d="M1015.88,99.52l33.47-26.12a1.33,1.33,0,0,0,.43-.64l3.54-11.55a1.32,1.32,0,0,1,.59-.74l2.3-1.3A1.24,1.24,0,0,1,1057,59l7.15.69a1.28,1.28,0,0,1,1.13,1.07l.54,3.34a1.23,1.23,0,0,1-.21.93l-1,1.39a1.27,1.27,0,0,0-.06,1.34h0a1.27,1.27,0,0,1-.17,1.46,25.84,25.84,0,0,1-8.92,6.27,1.25,1.25,0,0,0-.44.31l-30.09,32.7a1.28,1.28,0,0,1-1.83,0l-7.33-7.12A1.28,1.28,0,0,1,1015.88,99.52Z" transform="translate(-86.23 -59)"/><path class="cls-56" d="M966.73,139.46l47.63-39.92a2.47,2.47,0,0,1,3.22,0c2,1.79,5.35,5,6.91,7.88a2.72,2.72,0,0,1-.51,3.25L974.7,157.89Z" transform="translate(-86.23 -59)"/><path class="cls-57" d="M839.83,322.5c-.74,1-6.14,10.79-7.3,12.92a3.06,3.06,0,0,0-.38,1.15,4.83,4.83,0,0,0,2.3,4.76,3.25,3.25,0,0,0,4.37-.74l9.81-12.92Z" transform="translate(-86.23 -59)"/><path class="cls-58" d="M916,271.1c-.89.84-7.84,9.63-9.34,11.53a3.27,3.27,0,0,0-.56,1.08,4.83,4.83,0,0,0,1.48,5.07,3.23,3.23,0,0,0,4.43,0l10.55-12.17Z" transform="translate(-86.23 -59)"/><path class="cls-59" d="M929.18,224.8c0-2.73,15.63-1.76,29.34-3.34a7.71,7.71,0,0,1,6.43,13l-41.52,42.84a3.28,3.28,0,0,1-3.36.85A20,20,0,0,1,914,275a3,3,0,0,1-.55-4l19.08-27.17-17.41,5L849,330.57a3.43,3.43,0,0,1-4.49.75,28.08,28.08,0,0,1-6.24-5.09,3.2,3.2,0,0,1-.2-3.8c7.29-11.13,46.9-71.81,48.78-78.11,2.07-6.95,9.67-19.66,16.78-20.11S929.18,224.8,929.18,224.8Z" transform="translate(-86.23 -59)"/><path class="cls-60" d="M933.56,243.46a.44.44,0,0,1-.43-.33.45.45,0,0,1,.31-.54l15.67-4.15a.45.45,0,0,1,.54.31.44.44,0,0,1-.32.54l-15.66,4.16Z" transform="translate(-86.23 -59)"/><path class="cls-61" d="M916.66,247.7a.46.46,0,0,1-.3-.11.45.45,0,0,1,0-.63l3.91-4.24a.45.45,0,0,1,.63,0,.44.44,0,0,1,0,.63L917,247.56A.43.43,0,0,1,916.66,247.7Z" transform="translate(-86.23 -59)"/><path class="cls-62" d="M974.7,138.68s8.28,8.45,6.85,23a22.82,22.82,0,0,1-4.73,11.77L935,227.38a5.91,5.91,0,0,1-3.95,2.25c-6.14.75-22.48,2.23-34.05-1.61a1.54,1.54,0,0,1-.84-2.23l38-66.83,23-26.76S968.15,128.43,974.7,138.68Z" transform="translate(-86.23 -59)"/><path class="cls-63" d="M922.51,209.35a1,1,0,0,1-.59-.2,1,1,0,0,1-.21-1.4c.36-.49,36.35-49,38.78-54.84,2.18-5.28-3-9.36-3.18-9.53a1,1,0,1,1,1.22-1.58c2.29,1.76,6,6.51,3.81,11.87-2.52,6.11-37.53,53.27-39,55.27A1,1,0,0,1,922.51,209.35Z" transform="translate(-86.23 -59)"/><path class="cls-64" d="M908.37,204.65s7,4.41,12.88,5l-17.59,21.82s-2.57,14.11-4.82,16-8.63,3.18-10.29,0a24.52,24.52,0,0,1-2.22-6.6s1-1.63,2.91,1.35v-3.39s2.73,1.2,2.7,3.39c0,0-2.42-9.12,1.42-12.11a39.24,39.24,0,0,1,4.83-3.47Z" transform="translate(-86.23 -59)"/><path class="cls-65" d="M843.36,202.48a1.5,1.5,0,0,0-1.05,2.14c2,4.09,8,13.1,20.29,10.25,15.74-3.63,63.77-39.94,74.64-49.85s25.27-22.28,32.32-20.56,2.79-2.35-2.09-5.63-6.69-8.08-3.05-7.18c0,0-8.77-2.85-22.15,4.53C929.19,143.39,865.33,168,844,160.89a1.37,1.37,0,0,0-1.77,1.07c-.85,4.87-2.14,20.11,10.35,37.27A41.83,41.83,0,0,1,843.36,202.48Z" transform="translate(-86.23 -59)"/><path class="cls-66" d="M854.62,199.43a1,1,0,0,1-.47-1.88c.16-.09,16.15-8.8,19.52-11.59A1,1,0,0,1,875,187.5c-3.52,2.92-19.18,11.45-19.85,11.81A1,1,0,0,1,854.62,199.43Z" transform="translate(-86.23 -59)"/><path class="cls-67" d="M976.71,113.54l-12.49,17.63a2.94,2.94,0,0,0,.26,3.72c1.69,1.8,4.52,4.33,7.58,4.91a2.37,2.37,0,0,0,2.44-1l6.64-10.19S982.41,112.57,976.71,113.54Z" transform="translate(-86.23 -59)"/><path class="cls-68" d="M980.23,98.81c.26.23,10.66,20.66,10.66,20.66l-11.79,5.69-12.73-17.89S976,94.83,980.23,98.81Z" transform="translate(-86.23 -59)"/><path class="cls-69" d="M971.72,109.41l5.88,9.8a1.82,1.82,0,0,0,.32.4c.7.66,3.1,2.55,5,0,1.58-2.2,3.06-4.2,4.64-5a1.88,1.88,0,0,1,2.54.83,69.16,69.16,0,0,1,4,9.55,1.85,1.85,0,0,1-1.09,2.29,51.89,51.89,0,0,1-11.29,3.3,1.89,1.89,0,0,1-1.77-.76c-1.8-2.47-6.88-9.36-8.61-11.09s-4.58-1-5.92-.61a1.92,1.92,0,0,1-1.5-.2c-1.36-.82-3.73-2.85-1.56-6.3a1.88,1.88,0,0,0-.59-2.56c-1.51-1-3.16-2.87-1.59-5.9A5.86,5.86,0,0,1,966.5,100a1.94,1.94,0,0,0,2-1.14,1.25,1.25,0,0,1,1-.76A1.83,1.83,0,0,0,971,96a4.8,4.8,0,0,1,2.69-5.51c5.08-2.8,9.54,1.76,10.67,5.6s-4.55,6.57-8.13,7c-2.63.33-4.07,3.2-4.65,4.7A1.88,1.88,0,0,0,971.72,109.41Z" transform="translate(-86.23 -59)"/><path class="cls-70" d="M973.52,122.28s-2.27-6.62-5.16-6.37-5.17,3.12-1.59,6.37C971.24,126.31,973.52,122.28,973.52,122.28Z" transform="translate(-86.23 -59)"/><path class="cls-71" d="M1057.73,69.09a.23.23,0,0,1-.14,0,.29.29,0,0,1-.12-.4c.07-.13,1.76-3.15,3.88-2.49,1.67.51,2.13.31,2.14.31a.28.28,0,0,1,.39.09.31.31,0,0,1-.09.42c-.13.08-.71.32-2.61-.26-1.67-.52-3.18,2.19-3.19,2.22A.31.31,0,0,1,1057.73,69.09Z" transform="translate(-86.23 -59)"/><path class="cls-72" d="M412.18,745.14H645V698.55H412.18C417.16,698.55,417.16,745.14,412.18,745.14Z" transform="translate(-86.23 -59)"/><path class="cls-73" d="M645,733.48V712.16c0-7.52-4.6-13.61-10.28-13.61H413.16a8.08,8.08,0,0,1-8.08-8.08h0a2.45,2.45,0,0,1,2.45-2.45h242.1c5.56,0,14.37,8.72,14.37,19.49v29.78c0,10.15-8.56,18.38-13.79,18.38H408.81a3.73,3.73,0,0,1-3.73-3.73,6.81,6.81,0,0,1,6.81-6.8H636.15C641,745.14,645,739.92,645,733.48Z" transform="translate(-86.23 -59)"/><path class="cls-9" d="M638.49,709.11H420.24a1,1,0,1,1,0-2H638.49a1,1,0,0,1,0,2Z" transform="translate(-86.23 -59)"/><path class="cls-9" d="M638.49,716H420.24a1,1,0,0,1,0-2H638.49a1,1,0,0,1,0,2Z" transform="translate(-86.23 -59)"/><path class="cls-9" d="M638.49,722.94H420.24a1,1,0,0,1,0-2H638.49a1,1,0,0,1,0,2Z" transform="translate(-86.23 -59)"/><path class="cls-9" d="M638.49,729.86H420.24a1,1,0,1,1,0-2H638.49a1,1,0,0,1,0,2Z" transform="translate(-86.23 -59)"/><path class="cls-9" d="M638.49,736.77H420.24a1,1,0,0,1,0-2H638.49a1,1,0,0,1,0,2Z" transform="translate(-86.23 -59)"/><path class="cls-74" d="M455.27,637.25H624.52a20.09,20.09,0,0,1,20.09,20.09v10.37a20.1,20.1,0,0,1-20.1,20.1H455.27a20.09,20.09,0,0,1-20.09-20.09V657.34A20.09,20.09,0,0,1,455.27,637.25Z" transform="translate(993.55 1266.05) rotate(-180)"/><rect class="cls-75" x="596.34" y="643.06" width="24.61" height="38.94" rx="7.24" transform="translate(1131.06 1266.05) rotate(180)"/><rect class="cls-75" x="583.49" y="643.06" width="9.23" height="38.94" rx="3.67" transform="translate(1089.98 1266.05) rotate(180)"/><path class="cls-76" d="M262.23,636.34a1.84,1.84,0,0,1-.79-.19,1.7,1.7,0,0,1-.72-2.3l76.93-148.37a1.7,1.7,0,1,1,3,1.57L263.74,635.42A1.69,1.69,0,0,1,262.23,636.34Z" transform="translate(-86.23 -59)"/><path class="cls-77" d="M298.72,637.58a1.8,1.8,0,0,1-.68-.14,1.76,1.76,0,0,1-.9-.94,1.68,1.68,0,0,1,0-1.3l65.76-151.08a1.7,1.7,0,1,1,3.12,1.35L300.28,636.55A1.69,1.69,0,0,1,298.72,637.58Z" transform="translate(-86.23 -59)"/><path class="cls-78" d="M352.05,514.23H325.38a1.06,1.06,0,1,1,0-2.12h26.67a1.06,1.06,0,1,1,0,2.12Z" transform="translate(-86.23 -59)"/><path class="cls-79" d="M344.93,530.76H318.26a1.07,1.07,0,1,1,0-2.13h26.67a1.07,1.07,0,0,1,0,2.13Z" transform="translate(-86.23 -59)"/><path class="cls-80" d="M335.53,550.54H307.16a1.07,1.07,0,1,1,0-2.13h28.37a1.07,1.07,0,0,1,0,2.13Z" transform="translate(-86.23 -59)"/><path class="cls-81" d="M359.14,498.21H333.69a1.07,1.07,0,0,1,0-2.13h25.45a1.07,1.07,0,0,1,0,2.13Z" transform="translate(-86.23 -59)"/><path class="cls-82" d="M326.17,573.3H295.34a1.06,1.06,0,0,1,0-2.12h30.83a1.06,1.06,0,0,1,0,2.12Z" transform="translate(-86.23 -59)"/><path class="cls-83" d="M318.92,591H285.86a1.07,1.07,0,0,1,0-2.13h33.06a1.07,1.07,0,1,1,0,2.13Z" transform="translate(-86.23 -59)"/><path class="cls-84" d="M375.4,436.66a3.68,3.68,0,0,1,3.29-.85c2.13.39,4,1.13,5.36,0s1.8.39,1.8.39l-4,3Z" transform="translate(-86.23 -59)"/><path class="cls-85" d="M312.42,569.49c-3.4-3-10.72-5.33-10.72-5.33l-4.4.09c-1.12,1.26-1.62,3.69-1.84,5.22.83.5,2.38.93,5.23,1.07A42.62,42.62,0,0,0,312.42,569.49Z" transform="translate(-86.23 -59)"/><path class="cls-86" d="M312.42,569.49a42.62,42.62,0,0,1-11.73,1c-2.85-.14-4.4-.57-5.23-1.07,0,.12,0,.24,0,.35a1.28,1.28,0,0,0,.91,1.4c4,1.23,12.86.84,16.31.62a.91.91,0,0,0,.65-1.48A8.92,8.92,0,0,0,312.42,569.49Z" transform="translate(-86.23 -59)"/><path class="cls-87" d="M297.66,560.45V564a1.43,1.43,0,0,0,1.13,1.4,5.48,5.48,0,0,0,2.46,0,1.37,1.37,0,0,0,1-1.17l.44-3.75Z" transform="translate(-86.23 -59)"/><path class="cls-88" d="M319.92,542.52c-1.37-3-1-4.41-3.68-4.11a3.73,3.73,0,0,0-.82.18,2.41,2.41,0,0,0,0,1.59,30.09,30.09,0,0,0,4.73,8.63,2.93,2.93,0,0,0,2.28,1.11l3,.05A18.89,18.89,0,0,1,319.92,542.52Z" transform="translate(-86.23 -59)"/><path class="cls-89" d="M325.6,545.47c-2.29-1.61-3.14-8.19-3.14-8.19l-3.53-1.79-2.66,1.92a2.42,2.42,0,0,0-.85,1.18,3.73,3.73,0,0,1,.82-.18c2.7-.3,2.31,1.07,3.68,4.11a18.89,18.89,0,0,0,5.49,7.45l2,0a1.1,1.1,0,0,0,.89-1.77A13.34,13.34,0,0,0,325.6,545.47Z" transform="translate(-86.23 -59)"/><path class="cls-90" d="M321.06,532.17l-2.13,3.32a.94.94,0,0,0,.22,1.27,3.15,3.15,0,0,0,3.31.52l3.42-2.34Z" transform="translate(-86.23 -59)"/><path class="cls-91" d="M305.08,497.23s-1.12,3.15-2.74,14.24-2.69,19.14-3.58,23.54a193.83,193.83,0,0,0-2,24.83,1.51,1.51,0,0,0,1.56,1.5l4.19-.13a1.36,1.36,0,0,0,1.3-1.13c1.11-6.52,8.77-40.15,13.39-49.83,0,0,12.29,3.47,15.36,4.87,0,0-4,1.59-12.08,16.81,0,0,3.5,2.79,6,3.37,0,0,17.76-14.74,19.64-16.28s3.59-4.2-1.2-9-19.49-12.48-19.49-12.48Z" transform="translate(-86.23 -59)"/><path class="cls-92" d="M316.51,510.59a.15.15,0,0,1-.09,0L312,508.88a5.48,5.48,0,0,1-3.12-4.91.21.21,0,0,1,.21-.21.19.19,0,0,1,.21.21,5.08,5.08,0,0,0,2.88,4.53l4.38,1.69a.21.21,0,0,1,.1.28A.2.2,0,0,1,316.51,510.59Z" transform="translate(-86.23 -59)"/><path class="cls-93" d="M344.83,496.29s4.62-3.49,6.72-2.84a8.73,8.73,0,0,1,3.65,2.63h-4.64s-1.11,2.13,0,2.13h1.64S347.86,502.75,344.83,496.29Z" transform="translate(-86.23 -59)"/><path class="cls-94" d="M337,463.34s5.41,21.42,12.75,30a10.19,10.19,0,0,1-4.94,2.92s-11.26-9.87-14.69-16.73S337,463.34,337,463.34Z" transform="translate(-86.23 -59)"/><path class="cls-95" d="M329.77,442.94l-5.38,9.85h8.5s.68-4.5,2.91-7.21Z" transform="translate(-86.23 -59)"/><path class="cls-96" d="M337.93,431.22s2.7,6.19,2.88,9.44.88,5.37-2.88,6a8,8,0,0,1-8.64-4.46s-2.69-5-2.09-7S337.93,431.22,337.93,431.22Z" transform="translate(-86.23 -59)"/><path class="cls-97" d="M330.57,439.9h.48s-2-4-.24-4.73,8.54-2.09,10-4.51a4.5,4.5,0,0,0-1.74-6.19.26.26,0,0,0-.32.12l-.16.3a.26.26,0,0,1-.47-.05h0a.25.25,0,0,0-.46-.07c-.45.72-1.67,1.9-4.94,2.5-4.63.86-7.7,2.74-7.78,5.94a.25.25,0,0,1-.39.21c-.34-.21-.89-.31-1.62.31-1.28,1.07-.76,3.85,2,6.13a.25.25,0,0,1,0,.41c-.5.33-1.26,1.12.7,2.16s3.18,1,3.63.84a.25.25,0,0,0,.19-.26l-.17-2.84a.25.25,0,0,1,.25-.27Z" transform="translate(-86.23 -59)"/><path class="cls-98" d="M330.69,440.49s-1-4-2.8-2.85.92,4.44,2.34,4.58Z" transform="translate(-86.23 -59)"/><path class="cls-99" d="M372.65,438.7s.79-3.3,3.17-2.85,7.79,3.39,9.18,2.85,3.17-1.84,4.09-1.38l-1.61,2s4.13-2.38,4.85-.92l-6.89,3.88S375.37,441.27,372.65,438.7Z" transform="translate(-86.23 -59)"/><path class="cls-100" d="M323.2,452s2.4-3.95,18.09-3c8.16.5,26.51-6.61,30.6-10.19a7.69,7.69,0,0,1,5.12,2.56s-16.95,17.88-36.71,20.17c0,0-15,30.91-14.89,35.92a24.66,24.66,0,0,1-21,1.7s-.37-8.59,4.34-20.46A133.27,133.27,0,0,1,323.2,452Z" transform="translate(-86.23 -59)"/><path class="cls-101" d="M330.31,462.68a.21.21,0,0,1-.21-.2.21.21,0,0,1,.2-.22c.07,0,7.61-.62,8.78-.76a.22.22,0,1,1,.05.43c-1.18.13-8.72.74-8.8.75Z" transform="translate(-86.23 -59)"/></svg>