<?xml version="1.0" encoding="utf-8"?>
<!-- Generator: Adobe Illustrator 25.2.0, SVG Export Plug-In . SVG Version: 6.00 Build 0)  -->
<svg version="1.1" xmlns="http://www.w3.org/2000/svg" xmlns:xlink="http://www.w3.org/1999/xlink" x="0px" y="0px"
	 viewBox="0 0 500 500" style="enable-background:new 0 0 500 500;" xml:space="preserve">
<style type="text/css">
	.st0{fill:#B56E34;}
	.st1{fill:#94634D;}
	.st2{fill:#347BC2;}
	.st3{fill:#EDC59C;}
	.st4{fill:#3399CC;}
	.st5{fill:#9A6AFE;}
	.st6{fill:#825AF3;}
	.st7{fill:#FFCFF3;}
	.st8{fill:#FFAEF5;}
	.st9{fill:#F9DB85;}
	.st10{fill:#F7E8C4;}
	.st11{fill:#5AD4FF;}
	.st12{fill:#A1E2FF;}
	.st13{fill:#5095EA;}
	.st14{fill:#EDC29F;}
	.st15{fill:#85D6F9;}
	.st16{fill:#3A3241;}
	.st17{fill:#30203A;}
	.st18{fill:#EAE9C5;}
	.st19{fill:#8BD9FC;}
	.st20{fill:#5273E8;}
	.st21{fill:#536BE5;}
	.st22{fill:#86B4F7;}
	.st23{fill:#26203A;}
	.st24{fill:#FEDB5C;}
	.st25{fill:#FAFAFA;}
	.st26{fill:#6F4BF7;}
	.st27{fill:#5536F2;}
	.st28{fill:#D39933;}
	.st29{fill:#E09065;}
	.st30{fill:#F9CDED;}
	.st31{fill:#403218;}
	.st32{fill:#BF7035;}
	.st33{fill:none;}
	.st34{fill:#FFFFFF;}
	.st35{fill:#554D61;}
	.st36{fill:#EA4C0F;}
	.st37{fill:#F987E4;}
	.st38{fill:#EA7ABD;}
	.st39{fill:#FF8FD4;}
	.st40{fill:#EA78D5;}
	.st41{fill:#E261CA;}
	.st42{fill:#EA68D1;}
	.st43{fill:#EB6AEF;}
	.st44{fill:#F7CBF7;}
	.st45{fill:#F980E7;}
	.st46{fill:#EF8ED4;}
	.st47{fill:#7222E9;fill-opacity:0.102;}
	.st48{fill:none;stroke:#0B2EA4;stroke-width:16.0004;stroke-opacity:0.102;}
	.st49{fill:url(#SVGID_1_);}
	.st50{opacity:0.7;fill:url(#SVGID_2_);enable-background:new    ;}
	.st51{fill:url(#SVGID_3_);}
	.st52{fill:url(#SVGID_4_);}
	.st53{fill:#FFFFFF;fill-opacity:0.349;}
	.st54{fill:none;stroke:#582CDB;stroke-width:16.0004;stroke-linecap:round;stroke-linejoin:round;stroke-opacity:0.102;}
	.st55{fill:url(#SVGID_5_);}
	.st56{opacity:0.5;fill:url(#SVGID_6_);enable-background:new    ;}
	.st57{fill:#A06E48;}
	.st58{fill:#FEBF8C;}
	.st59{fill:#84583A;}
	.st60{fill:#191942;}
	.st61{fill:#F4DF78;}
	.st62{fill:#F3D4F8;}
	.st63{fill:#FFB6FF;}
	.st64{fill:#DD9F72;}
	.st65{fill:#C2ACFC;}
	.st66{fill:#AC9AEF;}
	.st67{fill:#BF8862;}
	.st68{fill:#E3E2FF;}
	.st69{fill:#D35929;}
	.st70{fill:#FFEE88;}
	.st71{fill:#F4B382;}
	.st72{fill:#CFC2FF;}
	.st73{opacity:0.3;}
	.st74{fill:#895B3B;}
	.st75{opacity:0.84;}
	.st76{fill:url(#SVGID_7_);}
	.st77{fill:none;stroke:#162C95;stroke-width:16.0004;stroke-linecap:round;stroke-linejoin:round;stroke-opacity:0.102;}
	.st78{fill:#162C95;fill-opacity:0.102;}
	.st79{fill:url(#SVGID_8_);}
	.st80{fill:url(#SVGID_9_);}
	.st81{fill:url(#SVGID_10_);}
</style>
<g id="OBJECTS">
	<g>
		<path class="st0" d="M250.6,89.7l-1.7,4.6c-1,0.3-2.1,0.7-3,1.1c0,0,0,0,0,0c-8.9,2.3-18.6,19.2-29.7,11c-1.1-0.8-1.8-1.5-2.4-2.2
			L250.6,89.7z"/>
		<g>
			<path class="st0" d="M246.8,94.2l0.1,0.2c0.6,1.6,2.4,2.3,4,1.7l4.5-1.8c1.6-0.6,2.3-2.4,1.7-4l-0.1-0.2c-0.6-1.6-2.4-2.3-4-1.7
				l-4.5,1.8C247,90.9,246.2,92.7,246.8,94.2z"/>
			<path class="st0" d="M255.5,93.5L255.5,93.5c0.1,0.3,0.4,0.4,0.7,0.3l7.7-3.2c0.3-0.1,0.4-0.4,0.3-0.7l0,0
				c-0.1-0.3-0.4-0.4-0.7-0.3l-7.7,3.2C255.5,92.9,255.4,93.2,255.5,93.5z"/>
			<path class="st0" d="M255.7,89.7L255.7,89.7c0.1,0.3,0.4,0.4,0.7,0.3l7.7-3.2c0.3-0.1,0.4-0.4,0.3-0.7l0,0
				c-0.1-0.3-0.4-0.4-0.7-0.3l-7.7,3.2C255.7,89.1,255.5,89.4,255.7,89.7z"/>
			<path class="st0" d="M252.2,89.3L252.2,89.3c0.1,0.3,0.4,0.4,0.7,0.3l7.7-3.2c0.3-0.1,0.4-0.4,0.3-0.7l0,0
				c-0.1-0.3-0.4-0.4-0.7-0.3l-7.7,3.2C252.2,88.7,252.1,89,252.2,89.3z"/>
			<path class="st0" d="M256.8,91.1L256.8,91.1c0.1,0.3,0.4,0.4,0.7,0.3l7.7-3.2c0.3-0.1,0.4-0.4,0.3-0.7l0,0
				c-0.1-0.3-0.4-0.4-0.7-0.3l-7.7,3.2C256.8,90.5,256.7,90.8,256.8,91.1z"/>
			<path class="st0" d="M251.9,90.5c-2.3-0.3,0.4-2.6,1.2-3.2c1.1-0.9,2.9-1.5,2.8-3.1c-2.1,1.2-4,2.8-6,4.1
				c-1.3,0.9-3.8,2.7-3.2,4.5"/>
			<path class="st1" d="M254.7,92.8c-1.2-0.7-2.5-0.6-3.8-0.3c1.1-0.4,2.4-1.6,2.4-2.8c1.4-1,2.7,2,1.6,3"/>
		</g>
		<path class="st0" d="M218.8,102.6c0,0-25.6-25-32.8-21.6l8.4,11.4c0,0,16.6,9.4,19.9,12.6L218.8,102.6z"/>
	</g>
	<path class="st2" d="M404.4,277.2l-12.1,23.1c-1.9,3.6-0.8,7.9,2.5,9.4c3.3,1.6,7.5-0.1,9.4-3.7l12.1-23.1c1.1-2.2,1.2-4.6,0.3-6.5
		c0,0,0,0,0,0c-0.5-1-1.2-1.9-2.2-2.6l0,0c-0.2-0.1-0.4-0.2-0.6-0.3c-1.6-0.8-3.5-0.8-5.2-0.1c-0.4,0.1-0.8,0.3-1.1,0.5
		C406.2,274.7,405.1,275.8,404.4,277.2z"/>
	<polygon class="st3" points="393.4,334 389.4,334.1 389,344.9 392.3,350.9 395.1,350.7 393.6,344.1 394.5,338.7 396,341.5 
		396.3,345.8 397.9,346 397.7,339.7 	"/>
	<g>
		<path class="st4" d="M390.8,304.2c0.7-4.3,4.3-7.3,8.2-6.7c3.9,0.7,6.5,4.7,5.8,9c-0.2,1.2-0.6,2.3-1.2,3.3l0,0L393.4,334
			l-3.9,0.1l1.3-28C390.7,305.5,390.7,304.8,390.8,304.2z"/>
	</g>
	<g>
		<path class="st5" d="M402.3,72.4v43.7c0,0.2,0,83.7,0,83.7c0,5.8-3.1,11.1-8.8,11.1h-41c2.6-5.8,4.6-8.6,5.5-13.8
			c2.7-14.8-10.8-31.8-27.5-31.8c-16.7,0-30.3,17.1-27.6,31.9c1,5.1,2.9,7.9,5.5,13.7h-41c-5.7,0-8.9-5.2-8.9-11.1v-47.1
			c-2.9,0.4-1.4,0.8-1.8,1.1c0,0-0.4,0-0.4,0.1c-4.2,4-9.9,7-16.4,8.2c-14.4,2.8-28.6-8.7-28.6-26c0-17.2,14.8-28.8,29.2-26
			c7.1,1.4,12.3,4.9,18,9.4V72.4c0-5.8,3.2-10.8,8.9-10.8h126.1C399.3,61.6,402.3,66.5,402.3,72.4z"/>
		<path class="st6" d="M393.6,61.6h-42.1c-1.7,25.6-7.8,51.4-23.3,72.1c-9.4,12.6-21.9,22.6-35.2,30.7c-10.5,6.4-22.2,11.7-34.4,14
			v21.4c0,5.8,3.2,11.1,8.9,11.1h41c-2.6-5.8-4.6-8.6-5.5-13.7c-2.7-14.8,10.8-31.9,27.6-31.9c16.7,0,30.3,17,27.5,31.8
			c-0.9,5.1-2.9,8-5.5,13.8h41c5.7,0,8.8-5.2,8.8-11.1c0,0,0-83.5,0-83.7V72.4C402.3,66.5,399.3,61.6,393.6,61.6z"/>
	</g>
	<g>
		<path class="st7" d="M407.8,431.9h-43c-0.2,0-82.4,0-82.4,0c-5.8,0-10.9-3-10.9-8.6v-40.3c5.7,2.6,8.5,4.5,13.6,5.4
			c14.6,2.7,31.3-10.6,31.3-27c0-16.4-16.8-29.7-31.4-27c-5,0.9-7.8,2.9-13.5,5.4v-40.3c0-5.6,5.1-8.7,10.9-8.7h46.4
			c-0.4-2.8-0.8-1.4-1.1-1.8c0,0,0-0.4-0.1-0.4c-3.9-4.1-6.9-9.7-8.1-16.1c-2.8-14.1,8.6-28.1,25.6-28.1c17,0,28.4,14.5,25.6,28.6
			c-1.4,6.9-4.8,12-9.3,17.7h46.5c5.8,0,10.6,3.2,10.6,8.7v123.7C418.4,428.9,413.6,431.9,407.8,431.9z"/>
		<path class="st8" d="M407.8,290.9h-25.9c-0.7,31.9-7.7,64.4-28.9,89.2c-19.9,23.3-51.2,35.2-81.6,32.8v10.4
			c0,5.6,5.1,8.6,10.9,8.6c0,0,82.2,0,82.4,0h43c5.8,0,10.6-3,10.6-8.6V299.6C418.4,294.1,413.6,290.9,407.8,290.9z"/>
	</g>
	<g>
		<path class="st9" d="M112.8,427.9v-41.9c0-0.2,0-80.3,0-80.3c0-5.6,2.9-10.6,8.4-10.6h39.4c-2.5,5.5-4.4,8.3-5.3,13.2
			c-2.6,14.2,10.4,30.5,26.4,30.5c16.1,0,29.1-16.4,26.4-30.6c-0.9-4.9-2.8-7.6-5.3-13.2h39.4c5.4,0,8.5,5,8.5,10.6v45.2
			c2.8-0.4,1.4-0.7,1.8-1.1c0,0,0.4,0,0.4-0.1c4-3.8,9.5-6.7,15.7-7.9c13.8-2.7,27.4,8.4,27.4,24.9c0,16.5-14.2,27.6-28,24.9
			c-6.8-1.3-11.8-4.7-17.3-9.1v45.3c0,5.6-3.1,10.4-8.5,10.4h-121C115.8,438.2,112.8,433.5,112.8,427.9z"/>
		<path class="st10" d="M163.7,361.8c-13.1-12.1-29-20.1-46.3-24.2c-1.5-0.4-3-0.7-4.5-1v91.2c0,5.6,2.9,10.4,8.4,10.4h87.5
			C199.1,410,185.7,382.1,163.7,361.8z"/>
	</g>
	<g>
		<path class="st11" d="M98.8,136.2h43.8c0.2,0,83.9,0,83.9,0c5.9,0,11.1,3.1,11.1,8.7v41c-5.8-2.6-8.7-4.6-13.8-5.5
			c-14.8-2.7-31.9,10.8-31.9,27.5c0,16.7,17.1,30.2,31.9,27.5c5.1-1,7.9-2.9,13.7-5.5v41c0,5.7-5.2,8.9-11.1,8.9h-47.2
			c0.4,2.9,0.8,1.4,1.2,1.8c0,0,0,0.4,0.1,0.4c4,4.2,7,9.9,8.2,16.3c2.8,14.3-8.8,28.6-26,28.6c-17.3,0-28.9-14.8-26.1-29.1
			c1.4-7.1,4.9-12.2,9.5-18H98.8c-5.9,0-10.8-3.2-10.8-8.9V145C87.9,139.3,92.9,136.2,98.8,136.2z"/>
		<path class="st12" d="M107.9,156.6c5.5,17.1,13.5,33.2,27,45.3c15.4,13.7,35,24.9,54.6,31.3c16,5.2,32.1,6.5,48,5.2v-8.5
			c-5.8,2.6-8.6,4.6-13.7,5.5c-14.8,2.7-31.9-10.8-31.9-27.5c0-16.7,17.1-30.2,31.9-27.5c5.1,0.9,8,2.9,13.8,5.5v-41
			c0-5.7-5.2-8.7-11.1-8.7c0,0-83.6,0-83.9,0h-39.7C104,143.4,105.9,150.3,107.9,156.6z"/>
	</g>
	<g>
		<g>
			<path class="st13" d="M108.2,310.7L108.2,310.7c1.5-0.3,2.6-1.4,2.3-2.4l-6.7-27.2c-0.3-1.1-1.7-1.8-3.3-1.5l0,0
				c-1.5,0.3-2.6,1.4-2.3,2.4l6.7,27.2C105.2,310.3,106.6,311,108.2,310.7z"/>
			<g>
				<path class="st14" d="M144.4,316.9c-0.4,0.1-0.8,0.2-1.2,0.3c0,0.3,0.2,0.5,0.4,0.7l7.3,5.3c0.4,0.3,0.9,0.2,1.1-0.3
					c0.2-0.4,0.1-1-0.3-1.2l-6.9-5C144.7,316.8,144.6,316.8,144.4,316.9z"/>
				<path class="st14" d="M138.1,317.6l-0.7,3.1l6.5,4.4l4.2-3.2l-3.7-5.1C142.3,317.5,140.1,318.1,138.1,317.6z"/>
			</g>
			<g>
				<path class="st15" d="M138.8,321.5c-2.6-1.8-6.1-2.6-9.2-3.1c-2.2-0.3-4.5-0.1-6.8,0.2c-7,0.6-15,1.8-15.8-6.3
					c-0.1-1.1-0.1-2,0-2.8l31.8,8.3C139.1,318.8,139,320.1,138.8,321.5z"/>
			</g>
		</g>
		<path class="st16" d="M97.1,244.5c4.4-0.9,8.5,0.2,11.6,4.3c3,4,4.6,9.7,1.4,14.2c-3.8,5.3-9.8,4.4-15,5.6
			c-2.8,0.6-6.1,0.9-8.7,2.2c-2.8,1.3-4.6,4.9-6.5,7.5c-2.6,3.6-4.4,7.3-7.9,9.8c-5.5,3.9-12.2,5.7-18.5,3.9
			c-5.3-1.5-10.1-3.8-12.1-10.5c-1.4-4.7,0.3-11.2,3.7-14.1c2.3-1.9,6.2-1.7,8.9-1.9c4-0.2,7.2-0.4,11.1-2.1
			c5.3-2.3,7.4-8.1,11-12.8C82.1,242.8,88.7,245,97.1,244.5z"/>
		<path class="st15" d="M94.9,282.7V321c0,3.6,2.9,6.5,6.5,6.5c3.6,0,6.5-2.9,6.5-6.5v-26.8c-0.1-0.9-0.2-1.8-0.3-2.7
			c-0.4-3.4-1-7.1-2.9-9.8c-0.5-0.7-4.1-5.5-4.9-5.3C96.9,277.2,94.9,279.7,94.9,282.7z"/>
		<path class="st17" d="M101.3,318.1c-2.7-4.2-4.7-8.6-9.5-8.6c-8.1,0-18.2,10-18.3,20.7c0,11.1,7.4,20.7,15.5,20.7
			c4.8,0,6.6-10.6,9.2-14.8L101.3,318.1z"/>
		<path class="st18" d="M85.2,296.5c-1.8-4.7-4.5-10.4-3.2-15.3c1.2-1,2.2-2,3-3.1c0.6-0.5,1.1-1.2,1.5-1.9c0.2-0.4,0.4-0.8,0.6-1.3
			c3.9-2,8.9-1.5,12.6,1.1c5.4,3.9,6.3,12.6,6,18.8c-0.2,5.4-2.5,10.4-3.5,15.7c-0.5,2.3-0.7,4.8-0.9,7.5c-1.1,0.5-2.3,0.9-3.6,1.2
			c-5.5,1.1-11.4-1.7-12.9-7.2c2.4-3.1,3-6.7,1.4-12.5C85.9,298.6,85.6,297.6,85.2,296.5z"/>
		<path class="st17" d="M81.8,337.1c-0.3,13.6,5.4,20.8,13.5,30.9c2.3,2.8,8.3,7.4,9.1,10.8c0.7,2.9-1.1,5.6-1.8,9
			c-2,9.6-0.2,19,3.8,27.8c4.1,9.1,11.7,13,18.2,19.9c-0.5-7-5.3-15.7-7.4-22.6c-2.8-9.4-5.5-19-7.7-28.5
			c-3.5-14.8-9.4-39.3-11.3-54.5"/>
		<path class="st17" d="M132.4,438.4h-11.5c-1.6,0-2.9-1.3-2.9-2.9l0,0c0-1.6,1.3-2.9,2.9-2.9h11.5c1.6,0,2.9,1.3,2.9,2.9l0,0
			C135.3,437,134,438.4,132.4,438.4z"/>
		<path class="st17" d="M84,346.1c-2.2,1.5-3.5,6.4-4.3,8.9c-1.3,4.2-1.7,8.7-2,13.1c-0.2,3.4,0,6.9-0.8,10.2
			c-1.7,6.9-7,9.3-11.4,14.3c-5,5.5-8.2,12.3-10.2,19.4c-0.5,1.7-3.2,18.5-3.2,18.5c0,0,18.2-27.7,21.9-33.9
			c2.9-4.9,19.4-30.3,22.8-38.5L84,346.1z"/>
		<path class="st17" d="M61.2,436.6l-10.4-4.9c-1.5-0.7-2.1-2.4-1.4-3.9l0,0c0.7-1.5,2.4-2.1,3.9-1.4l10.4,4.9
			c1.5,0.7,2.1,2.4,1.4,3.9l0,0C64.4,436.6,62.6,437.3,61.2,436.6z"/>
		<path class="st14" d="M102.7,255.6c0,0.5,0,1,0,1.5c0,1.8,0,3.7,0,5.5c0,0.1,0,0.2,0,0.4c-0.1,1.1-0.7,2.1-1.6,3
			c-0.2,0.2-0.5,0.4-0.7,0.6c-1.6,1.2-3.9,1.9-6.4,1.9l-1.5,0c-2.3,0-4.5-0.6-6.2-2.1c-0.2-0.2-0.3-0.3-0.5-0.5
			c-0.2-0.2-0.3-0.4-0.5-0.5c-0.3-0.3-0.5-0.7-0.7-1.1c-0.1-0.2-0.2-0.5-0.3-0.8c-0.1-0.2-0.1-0.4-0.2-0.6c-0.3-1.1-0.4-2.2-0.4-3.3
			c0,0,0-0.1,0-0.1l0-0.3c0-0.9,0-1.7,0-2.6c0-0.4,0-0.7,0-1.1c-0.1-2.2,0-4.8,1.7-6.6c0.2-0.2,0.4-0.3,0.5-0.5
			c1.7-1.4,4.2-1.9,6.4-1.9l1.5,0c0.2,0,0.4,0,0.5,0c0.2,0,0.4,0,0.6,0c0.2,0,0.4,0,0.6,0.1c0.4,0,0.8,0.1,1.1,0.2
			c2,0.4,4,1.4,5.2,3.1c0.5,0.7,0.8,1.6,0.9,2.5C102.8,253.5,102.7,254.6,102.7,255.6z"/>
		<path class="st14" d="M88.6,271.4c-0.1,1.4-0.4,2.8-0.9,4.1c2.8,1.8,5.7,2.4,8.2,0.6c-0.6-0.7-1.3-1.4-1.7-2.1
			c-1.5-2.4-1.4-6.4-0.2-9.1c-1.8-0.5-4.1-0.1-5.9-0.2C88.7,266.6,88.7,269.2,88.6,271.4z"/>
		<path class="st19" d="M78.1,293.1v27.8c0,4.4,3.6,8,8,8c4.4,0,8-3.6,8-8v-39.8c0-3.9-2.8-7.1-6.5-7.9c-0.6,1.7-1.7,3.1-3.2,4.4
			c-0.3,0.3-0.6,0.5-0.9,0.8c-1.2,1-2.4,1.9-3.3,3c-0.8,0.9-1.4,1.9-1.8,3.3C77.8,287.5,78.1,290.3,78.1,293.1z"/>
		<path class="st20" d="M86.6,275.4c0.5-0.7,0.9-1.4,1.1-2.1c3.7,0.7,6.5,4,6.5,7.9v1.9C90.9,281.2,88.2,278.8,86.6,275.4z"/>
		<g>
			<g>
				<path class="st14" d="M134.6,306.2c-0.3,0.3-0.6,0.6-0.8,0.8c0.1,0.2,0.4,0.3,0.6,0.4l8.5,0.8c0.4,0,0.8-0.3,0.8-0.7
					c0-0.4-0.4-0.8-0.8-0.9l-8-0.8C134.8,306,134.7,306.1,134.6,306.2z"/>
				<path class="st14" d="M129.6,309.8l-4.4,2.5l12.6,0.9l2.1-4.6l-5.4-2.3C133.1,307.8,131.6,309.3,129.6,309.8z"/>
			</g>
			<path class="st21" d="M104.5,309.1L104.5,309.1c1.6-1.3,2-3.4,0.9-4.6L86.8,284c-1.1-1.2-3.3-1.1-4.9,0.2l0,0
				c-1.6,1.3-2,3.4-0.9,4.6l18.6,20.4C100.7,310.5,102.9,310.4,104.5,309.1z"/>
			<g>
				<path class="st22" d="M129.5,309.9c-0.3,1-0.7,2-1.4,2.7l-28.6-2.8c0.2-0.7,0.5-1.5,1-2.5c3.6-6.9,10.2-3.2,16.2-0.4
					c1.9,1.1,3.8,1.9,5.9,2.4C124.7,309.7,127.2,310.1,129.5,309.9z"/>
			</g>
		</g>
		<path class="st13" d="M81.5,314.6L81.5,314.6c0.6,0.5,1.6,0.5,2.1-0.1l4.6-5.2c0.5-0.6,0.5-1.6-0.1-2.1l0,0
			c-0.6-0.5-1.6-0.5-2.1,0.1l-4.6,5.2C80.8,313.1,80.9,314.1,81.5,314.6z"/>
		<path class="st16" d="M82.7,246.7c3.8-4.7,14.6-2.3,21.8,0c0.1,0.1,0.1,0.2,0.2,0.3l-0.6-0.2c1.4,4.4-0.1,5.8-4.3,6.9
			c-2.2,0.5-5.1,1.2-7.1,0.3c5.4,5.5-7.8,9.3-10,12.5C82.6,261.1,78.7,251.7,82.7,246.7z"/>
	</g>
	<g>
		<path class="st17" d="M419.9,322.7l4.2,45.3c0,0,19.7-6.7,44,16.6l-52.1-8l-24.8-44.5L419.9,322.7z"/>
		<path class="st23" d="M395.4,400.9L395.4,400.9c3.9-22.4-4.9-35.5-4.9-35.5l24.6-39.2l-23.1-7.6l-7-2.3l-0.3,3l-5,43.2l3.1,38
			l3.1,33.2C391.6,419,394,409.1,395.4,400.9z"/>
		<path class="st24" d="M422,335L422,335c-3.7-0.5-7.7-0.9-11.8-1.4c-4.1-0.4-8.3-0.8-12.4-1.1l0,0c-5.1-0.4-10-0.8-14.5-1.1
			c0-0.3-0.1-0.5-0.1-0.8l0,0c0,0,0,0,0,0c-0.3-2.3-0.5-5.3-0.7-8.6c-0.5-9.4-0.7-21.3-1.7-27.6c-0.5-3.1-1-6.4-1.5-9.7
			c-0.1-0.8-0.2-1.6-0.3-2.5c-0.1-1-0.2-2-0.3-3c0-0.4-0.1-0.9-0.1-1.4c0-0.3,0-0.7,0-1c-0.1-3.2,0.1-6.2,0.8-9
			c0.2-0.9,0.5-1.7,0.8-2.5c1.7-4.1,4.9-7.4,10.5-9.4l0,0c0.1,0,0.1,0,0.2,0c0.1,0,0.1-0.1,0.2-0.1c0.6-0.2,1.2-0.4,1.9-0.5
			c0.6-0.1,1.1-0.3,1.7-0.4c0.6-0.1,1.2-0.2,1.8-0.2l0,0c1.4-0.1,2.7-0.1,4,0.1c1.4,0.2,2.7,0.5,4,1c0.3,0.1,0.6,0.2,0.9,0.4
			c0.4,0.2,0.7,0.4,1.1,0.6c0.5,0.3,0.9,0.6,1.3,0.9c0.8,0.6,1.5,1.3,2.1,2c1.3,1.6,2.2,3.5,2.5,5.7c0.3,1.2,0.7,3.6,1.2,6.8
			c0.1,0.8,0.3,1.7,0.4,2.6c0.2,1.6,0.5,3.4,0.8,5.2c0.2,1.4,0.4,2.9,0.6,4.4c0.1,0.8,0.2,1.6,0.3,2.5c0.2,1.6,0.5,3.3,0.7,5
			c0.4,2.8,0.8,5.6,1.1,8.5c1.3,10,2.6,19.9,3.5,26.5C421.6,331.9,422,335,422,335z"/>
		<path class="st25" d="M393.3,248.1c0.1-0.5,0.2-1,0.3-1.6l3.3,0.3c0,0.3-0.1,0.7-0.1,1C395.6,247.9,394.5,248,393.3,248.1z"/>
		<path class="st25" d="M414.9,280.2l-36.1-2.3l0.3-5.1l35,2.3C414.4,276.6,414.6,278.3,414.9,280.2z"/>
		<path class="st25" d="M413.2,286.9l-33.7-2.2c-0.1-0.8-0.2-1.6-0.3-2.5l33.7,2.2C413,285.2,413.1,286,413.2,286.9z"/>
		<path class="st6" d="M421,327c-2.6,1-5.4,1.5-8.4,1.4l-1.5-0.1c-10.6-0.7-18.6-9.9-18-20.4l3.4-53c1.4-0.1,2.7-0.1,4,0.1
			c1.4,0.2,2.7,0.5,4,1c0.3,0.1,0.6,0.2,0.9,0.4c0.4,0.2,0.7,0.4,1.1,0.6c0.5,0.3,0.9,0.6,1.3,0.9c0.8,0.6,1.5,1.3,2.1,2
			c1.3,1.6,2.2,3.5,2.5,5.7c0.3,1.2,0.7,3.6,1.2,6.8c0.1,0.8,0.3,1.7,0.4,2.6c0.2,1.6,0.5,3.4,0.8,5.2c0.2,1.4,0.4,2.9,0.6,4.4
			c0.1,0.8,0.2,1.6,0.3,2.5c0.2,1.6,0.5,3.3,0.7,5c0.4,2.8,0.8,5.6,1.1,8.5C418.8,310.5,420.1,320.4,421,327z"/>
		<path class="st26" d="M408.4,270.8l13.6,24.9c2.1,3.9,6.3,5.7,9.3,3.9c3-1.7,3.7-6.4,1.6-10.3l-13.6-24.9
			c-1.3-2.4-3.3-3.9-5.4-4.4c0,0,0,0,0,0c-1.1-0.3-2.3-0.2-3.3,0.2l0,0c-0.2,0.1-0.4,0.2-0.6,0.3c-1.5,0.9-2.4,2.5-2.7,4.3
			c-0.1,0.4-0.1,0.8-0.1,1.3C407.2,267.6,407.6,269.3,408.4,270.8z"/>
		<path class="st23" d="M385.5,439.4l-9-0.6c-1.6-0.1-2.8-1.5-2.7-3l0,0c0.1-1.6,1.5-2.8,3-2.7l9,0.6c1.6,0.1,2.8,1.5,2.7,3l0,0
			C388.4,438.3,387.1,439.5,385.5,439.4z"/>
		<path class="st23" d="M467.7,384.3l-2.1,8.8c-0.4,1.5-1.9,2.5-3.4,2.1l0,0c-1.5-0.4-2.5-1.9-2.1-3.4l2.1-8.8
			c0.4-1.5,1.9-2.5,3.4-2.1l0,0C467.1,381.2,468.1,382.8,467.7,384.3z"/>
		<path class="st6" d="M392.1,260.1l-3.7,57.1c-0.2,3.8-2.8,6.9-6.2,7.9c-0.5-10-0.8-22.6-1.7-29.2c-0.5-3.3-1.1-6.8-1.5-10.2
			c-0.1-0.9-0.2-1.7-0.3-2.6c-0.1-1.1-0.2-2.1-0.3-3.2c0-0.5-0.1-1-0.1-1.4c0-0.4,0-0.7,0-1.1c-0.1-3.4,0.1-6.6,0.9-9.5
			c0.2-0.9,0.5-1.8,0.9-2.6c1.8-4.4,5.1-7.9,11-9.9l0,0c0.1,0,0.1,0,0.2-0.1C391.9,256.8,392.3,258.4,392.1,260.1z"/>
		<g>
			<path class="st27" d="M423,288.4c3.9-2.2,8.6-1.1,10.6,2.3c2,3.5,0.5,8.1-3.4,10.3c-1.1,0.6-2.3,1-3.4,1.1l0,0l-24.5,6.1l-2-3.5
				l21.2-15.3C421.9,289.1,422.4,288.8,423,288.4z"/>
		</g>
		<path class="st3" d="M393,250.1c0.1-0.9,0.3-2.2,0.6-3.6l3.3,0.3c-0.1,0.8-0.2,1.6-0.3,2.2c-0.4,3.3-0.1,6.3,0.6,8.8
			c0,0.1,0,0.2-0.1,0.2c-0.7-1.6-1.7-2.6-2.9-2.8c-1.2-0.1-2.4,0.7-3.6,2.1C392.1,254.7,392.8,251.6,393,250.1z"/>
		<path class="st3" d="M393.3,262c0.4,0,0.7,0,1,0c0,0,0,0,0,0c1.6-0.3,3-1.5,3.2-3.1c0.1-0.9-0.2-1.8-0.7-2.5
			c-0.5-0.7-1.3-1.2-2.1-1.4c-0.2,0-0.3-0.1-0.5-0.1c-1-0.1-2,0.2-2.7,0.7c-0.2,0.1-0.3,0.3-0.5,0.4c-0.6,0.5-0.9,1.3-1,2
			C389.7,260,391.2,261.8,393.3,262z"/>
		<path class="st28" d="M393.1,235.4l3.1,2.2c0.2,0.2,0.6,0.1,0.8-0.1l0.2-0.2c0.2-0.2,0.1-0.5-0.1-0.7l-3.1-2.2
			c-0.2-0.2-0.6-0.1-0.8,0.1l-0.2,0.2C392.8,234.9,392.8,235.3,393.1,235.4z"/>
		<path class="st29" d="M385.7,243.6l0.4,0c0.8,0.1,1.6-0.5,1.7-1.2l0.3-2.7c0.1-0.8-0.5-1.5-1.3-1.6l-0.4,0
			c-0.8-0.1-1.6,0.5-1.7,1.2l-0.3,2.7C384.3,242.8,384.9,243.5,385.7,243.6z"/>
		<path class="st29" d="M398.4,245.1l0.4,0c0.8,0.1,1.6-0.5,1.7-1.2l0.3-2.7c0.1-0.8-0.5-1.5-1.3-1.6l-0.4,0
			c-0.8-0.1-1.6,0.5-1.7,1.2l-0.3,2.7C397,244.3,397.6,245,398.4,245.1z"/>
		<path class="st3" d="M389.4,250.4c3.1,0.9,7.3-0.5,8.1-4.2l1.4-11.3c0.4-3-2-5.8-5.2-6.1c-3.2-0.3-6.2,1.9-6.6,4.9
			c0,0-1.4,11.2-1.4,11.3C385.4,247.9,387.2,249.8,389.4,250.4z"/>
		<path class="st24" d="M398.9,234.9L398.9,234.9c0.4-3-2-5.8-5.2-6.1c-3.2-0.3-6.2,1.8-6.5,4.9C391.1,234,395,234.4,398.9,234.9z"
			/>
		<path class="st25" d="M392.4,243.8c-0.4,1.2-1.4,2.1-2.5,1.9c-1.1-0.1-1.9-1.2-2-2.5L392.4,243.8z"/>
		<path class="st27" d="M387.5,235.6c-1.4-0.4-1.8-2.2-2.6-3.3c-1.3-1.7-3-3.5-5.4-3c-2.9,0.6-3.7,4.1-1.5,5.9
			c1.5,1.2,3.8,1.6,5.7,1.6C385.4,236.9,387,236.5,387.5,235.6z"/>
		<path class="st5" d="M385.6,233.4c-0.1,1.7,2.1,3.3,5,3.6c2.9,0.3,5.4-0.7,5.6-2.4L385.6,233.4z"/>
		<path class="st6" d="M396,228.6c-0.1,0.9-0.8,1.5-1.6,1.4c-0.9-0.1-1.5-0.8-1.4-1.6c0.1-0.9,0.8-1.5,1.6-1.4
			C395.4,227.1,396,227.8,396,228.6z"/>
		<polygon class="st3" points="401.7,303.8 403.1,308.2 391.7,313.2 384,312.2 383.2,309 390.7,307.8 396.1,304.5 392.6,304.1 
			387.9,305.5 387,303.9 393.9,301.4 		"/>
	</g>
	<g>
		<path class="st30" d="M181.7,109.5c5.4,5.1-15.1,12.5-17,14.3c1.1,1,2.7,1.5,3.9,2.6c2,1.7,3.3,3.8,5.5,5.4
			c4.2,3.3,9.3,4.6,14.6,3.3c4.5-1.1,6.8-4.4,8.9-8.1c1.4-2.5,1-4.8,2.1-7.2c-2.5-0.3-7-3.1-8.7-5c-2.7-3-2.1-7.3-0.7-10.8
			C187.9,103.4,182.6,106.4,181.7,109.5z"/>
		<g>
			<g>
				<path class="st31" d="M185.5,80.1c0,1.2-1,2.2-2.2,2.2c-1.2,0-2.2-1-2.2-2.2c0-1.2,1-2.2,2.2-2.2
					C184.6,77.9,185.5,78.9,185.5,80.1z"/>
				<path class="st1" d="M178.1,59.5c-0.3-0.1-0.7-0.2-1.1-0.2c-1.9,0-3.4,1.5-3.4,3.4c0,1.9,1.5,3.4,3.4,3.4c0.4,0,0.8-0.1,1.1-0.2
					V59.5z"/>
				<path class="st1" d="M193.9,59c0.3-0.1,0.7-0.2,1.1-0.2c1.9,0,3.4,1.5,3.4,3.4c0,1.9-1.5,3.4-3.4,3.4c-0.4,0-0.8-0.1-1.1-0.2V59
					z"/>
				<path class="st30" d="M191.7,116.4l-12.6-0.8c0.5-0.1,1.1-0.4,1.5-0.8c1.1-0.9,1.8-2.8,1.4-5.9h6.2c0,0,0,0,0,0.1
					c-0.1,1.1,0,2.2,0.4,3.2c0.1,0.9,0.4,1.8,1.2,2.7C190.2,115.5,190.8,116,191.7,116.4z"/>
				<path class="st32" d="M183.3,62.4l5.4-0.2c0,0.1,0,0.2,0,0.3c-1.3,3.3-1.3,6.8-1.3,10.2c0.1,2.7,0.6,5.3,2.2,7.7
					c0.2,0.2,0.1,3.4-4,3.5c-4.3,0.1-5.9-2.1-6.1-2.1C184.1,75.9,186,68.8,183.3,62.4z"/>
				<path class="st8" d="M187.8,75.3h-4.5c-0.8,2.2-2.1,4.4-3.6,6.5c0.1,0,1.7,2.2,6.1,2.1c4.1-0.1,4.2-3.3,4-3.5
					C188.7,78.8,188.1,77.1,187.8,75.3z"/>
				<path class="st32" d="M195.4,58.1c0,0.5,0,0.9-0.1,1.4c-0.1,1.8-0.1,3.5-0.1,5.3c0,0.1,0,0.2,0,0.4c-0.1,1.1-0.7,2.1-1.6,2.9
					c-0.2,0.2-0.4,0.4-0.7,0.5c-1.6,1.1-3.8,1.8-6.3,1.7l-1.5,0c-2.2,0-4.4-0.7-6-2.2c-0.2-0.2-0.3-0.3-0.5-0.5
					c-0.2-0.2-0.3-0.4-0.4-0.5c-0.2-0.3-0.4-0.7-0.6-1c-0.1-0.2-0.2-0.5-0.3-0.7c-0.1-0.2-0.1-0.4-0.2-0.5c-0.3-1-0.3-2.1-0.3-3.2
					c0,0,0-0.1,0-0.1v-0.3c0-0.8,0.1-1.7,0.1-2.5c0-0.3,0-0.7,0-1c0-2.2,0.1-4.7,1.8-6.4c0.2-0.2,0.3-0.3,0.5-0.5
					c1.7-1.3,4.1-1.7,6.2-1.7l1.5,0c0.2,0,0.3,0,0.5,0c0.2,0,0.4,0,0.5,0c0.2,0,0.4,0,0.5,0.1c0.4,0.1,0.7,0.1,1.1,0.2
					c2,0.5,3.8,1.4,4.9,3.1c0.5,0.7,0.7,1.6,0.8,2.4C195.6,56,195.5,57.1,195.4,58.1z"/>
				<path class="st31" d="M193.1,51.3c-0.8,1.1-2,1.7-3.7,1.4c-2.1-0.3-4-1.2-6.1-1.1c-1.2,0.1-2.3,0.4-3.1,1
					c-0.6,0.5-1.1,1.2-1.4,2.1c-0.5,1.7,0.1,4.4-0.9,5.9c0,0-0.1,0.1-0.1,0.1c-0.2,0.3-0.5,0.6-0.9,0.8h0v-0.1c0-0.1,0-0.2,0-0.3
					c0-0.8,0.1-1.7,0.1-2.5c0-0.3,0-0.7,0-1c0-2.2,0.1-4.7,1.7-6.4c0.2-0.2,0.3-0.3,0.5-0.5c1.7-1.3,4-1.7,6.1-1.7l1.4,0
					c0.2,0,0.3,0,0.5,0c0.2,0,0.3,0,0.5,0c0.2,0,0.4,0,0.5,0.1c0.4,0.1,0.7,0.1,1.1,0.2C190.7,49.8,192,50.4,193.1,51.3z"/>
				<line class="st33" x1="172.6" y1="52.6" x2="172.6" y2="52.6"/>
				<g>
					<path class="st8" d="M201.3,96.4c1.6-1.2,4.3-2.8,5.9-4c-7.2-6.8-17.6-13.6-21.8-11.6l8.6,11.6C194,92.3,197.3,94,201.3,96.4z"
						/>
				</g>
				<path class="st34" d="M185.6,65.5c0.1,0.9,0.9,1.7,1.9,1.7c1,0,1.7-0.7,1.9-1.7H185.6z"/>
				<path class="st35" d="M187.5,50.6c1.3,0.7-2.1,3.5-3.1,4c-1.5,0.8-3.1,0.9-4.8,1.1c0.9,3.1,0.5,7.1-2.9,8.3
					c-0.9-3.1-0.6-8.7,1.7-11.1C180.3,50.8,185.2,49,187.5,50.6z"/>
				<path class="st35" d="M185.3,49.5c-1.3,0.7,2.1,3.5,3.1,4c1.5,0.8,3.1,0.9,4.8,1.1c-0.9,3.1-0.5,7.1,2.9,8.3
					c0.9-3.1,0.6-8.7-1.7-11.1C192.4,49.8,187.5,47.9,185.3,49.5z"/>
				<g>
					
						<image style="overflow:visible;" width="317" height="317" xlink:href="148579017381608C.png"  transform="matrix(0.24 0 0 0.24 143.64 27.56)">
					</image>
				</g>
				<g>
					
						<image style="overflow:visible;" width="317" height="317" xlink:href="148579017381608B.png"  transform="matrix(0.24 0 0 0.24 154.44 26.84)">
					</image>
				</g>
				<path class="st36" d="M166.8,147.4"/>
				<g>
					<path class="st0" d="M157.6,74.5l-4.6,1.9c-0.3,1.1-0.6,2.1-1,3.1c0,0,0,0,0,0c-1.9,9-18.3,19.5-9.5,30.3
						c0.8,1,1.6,1.8,2.3,2.3L157.6,74.5z"/>
					<g>
						<path class="st0" d="M154.9,77.9l-0.2,0c-1.7-0.2-2.9-1.8-2.7-3.4l0.6-4.8c0.2-1.7,1.8-2.9,3.4-2.7l0.2,0
							c1.7,0.2,2.9,1.8,2.7,3.4l-0.6,4.8C158.2,76.9,156.6,78.1,154.9,77.9z"/>
						<path class="st0" d="M153.4,69.4L153.4,69.4c-0.3,0-0.5-0.3-0.5-0.6l1.1-8.3c0-0.3,0.3-0.5,0.6-0.5l0,0c0.3,0,0.5,0.3,0.5,0.6
							l-1.1,8.3C154,69.2,153.7,69.4,153.4,69.4z"/>
						<path class="st0" d="M157.1,68.2L157.1,68.2c-0.3,0-0.5-0.3-0.5-0.6l1.1-8.3c0-0.3,0.3-0.5,0.6-0.5l0,0c0.3,0,0.5,0.3,0.5,0.6
							l-1.1,8.3C157.7,68,157.4,68.3,157.1,68.2z"/>
						<path class="st0" d="M158.3,71.5L158.3,71.5c-0.3,0-0.5-0.3-0.5-0.6l1.1-8.3c0-0.3,0.3-0.5,0.6-0.5l0,0c0.3,0,0.5,0.3,0.5,0.6
							l-1.1,8.3C158.9,71.3,158.6,71.5,158.3,71.5z"/>
						<path class="st0" d="M155.4,67.5L155.4,67.5c-0.3,0-0.5-0.3-0.5-0.6l1.1-8.3c0-0.3,0.3-0.5,0.6-0.5l0,0c0.3,0,0.5,0.3,0.5,0.6
							L156,67C156,67.3,155.7,67.6,155.4,67.5z"/>
						<path class="st0" d="M157.3,72c0.8,2.2,2.4-1,2.8-2c0.6-1.3,0.7-3.2,2.3-3.5c-0.7,2.3-1.6,4.6-2.4,6.8
							c-0.6,1.5-1.6,4.3-3.5,4.2"/>
					</g>
					<path class="st0" d="M144.1,107.6c0,0,22.5-25.4,29.7-22.1l-8.3,11.4c0,0-18.1,9.7-20.8,15L144.1,107.6z"/>
				</g>
				<g>
					<path class="st8" d="M159.7,100c3.5-2,12.9-5.4,12.9-5.4l1.7-9.3c-3.9-1.8-12.2,4.6-19.1,10.9C156.6,97.4,158.2,98.7,159.7,100
						z"/>
				</g>
				<path class="st8" d="M177.5,65.9c0,0.6-0.5,1.1-1.1,1.1s-1.1-0.5-1.1-1.1c0-0.6,0.5-1.1,1.1-1.1S177.5,65.3,177.5,65.9z"/>
				<path class="st8" d="M197.8,65.1c0,0.6-0.5,1.1-1.1,1.1c-0.6,0-1.1-0.5-1.1-1.1c0-0.6,0.5-1.1,1.1-1.1
					C197.3,64,197.8,64.5,197.8,65.1z"/>
				<path class="st30" d="M198.8,91.6c-0.4,3.9-2.3,7.8-5.2,10.2c-2.2,1.8-5.4,3.8-5.4,7.1c0,0,0,0,0,0.1c-1.9,0.2-4.4,0-6.2-0.1
					c-0.2-1.2-0.9-2.2-1.8-3.2c-1-1-2.2-1.9-3.3-2.8c-0.4-0.3-0.8-0.6-1.2-0.9c-3.4-2.8-5.8-7.3-6.5-11.9c-0.2-1.7,0.1-2.9,0.8-3.9
					c1.4-1.8,4.3-2.5,6.9-3.5c1.5-0.6,3-1.4,4-2.7c2.6,0.9,6.1,1,8.6,0c0.4,0.8,1.3,1.4,2.3,2c0.1,0,0.1,0.1,0.2,0.1
					c1.8,0.9,4.1,1.6,5.2,2.5c0,0,0,0,0,0c0.6,0.5,0.9,1.1,1.1,1.9C198.9,88.2,199,89.9,198.8,91.6z"/>
			</g>
			<path class="st35" d="M184.7,136.4c-6.8-0.5-13.6-9.5-19.3-12.9c-5.9-3.6-21.6-4-24.9,3.7c-2.1,5,5.1,10.3,9,11.6
				c5.5,2,11.6,1.3,17.3,1.9c7,0.6,13.7-0.3,20.6-0.6c4.8-0.2,6.8,2.1,10.6,4.5c0.1-2.6-2.8-7.1-5.1-8.3
				C190.1,134.9,187.1,136.6,184.7,136.4z"/>
			<path class="st35" d="M237.6,135.2c-0.5-3.7,0.4-7.6-0.1-11.4c-1-7.6-2.3-15.2-3.2-22.8c-0.6-5.1-5.8-28.5-14.4-19
				c-9.5,10.4-12.7,25.9-20.1,37.8c-3.1,5-5.3,11.2-10.8,13.5c-4,1.7-7.8,0.9-11.8,0.1c0,0-4.9,3.1,0,4.6c10,3,26.9,3.3,40.4-11.2
				c1.7-1.8,4.8-5.5,6.7-8.9c0.1,0.2,0.2,0.3,0.4,0.5c2.9,4,8,6.6,9.4,11.5c0.4,1.4,0.7,3.5,0.4,4.9c-0.2,0.9-1.6,1.8-1.3,2.8
				c0.4,1.4,4.4,2.3,5.9,3.1c2.1,1.1,3.9,2,6.2,2.6C242,141,238.2,139.3,237.6,135.2z"/>
			<circle class="st35" cx="174.4" cy="50" r="5.3"/>
			<path class="st35" d="M202,47.3c0,2.9-2.4,5.3-5.3,5.3s-5.3-2.4-5.3-5.3c0-2.9,2.4-5.3,5.3-5.3S202,44.4,202,47.3z"/>
		</g>
	</g>
	<polygon class="st37" points="88.6,94.1 90.7,97.9 94.5,100 90.7,102.1 88.6,105.9 86.5,102.1 82.7,100 86.5,97.9 	"/>
	<polygon class="st37" points="104.6,67.6 107.1,72.1 111.5,74.5 107.1,77 104.6,81.4 102.2,77 97.7,74.5 102.2,72.1 	"/>
	<polygon class="st37" points="114.5,101.2 116.2,104.2 119.2,105.9 116.2,107.5 114.5,110.6 112.8,107.5 109.8,105.9 112.8,104.2 	
		"/>
	<polygon class="st37" points="57.2,61 61.1,68.2 68.3,72.1 61.1,76 57.2,83.2 53.3,76 46.1,72.1 53.3,68.2 	"/>
	<polygon class="st38" points="277.2,238.7 279.7,243.3 284.3,245.8 279.7,248.3 277.2,252.9 274.7,248.3 270.1,245.8 274.7,243.3 	
		"/>
	<polygon class="st39" points="439.3,118.5 444.3,127.6 453.4,132.6 444.3,137.6 439.3,146.7 434.3,137.6 425.2,132.6 434.3,127.6 	
		"/>
	<polygon class="st39" points="422,143.8 425.2,149.8 431.2,153 425.2,156.2 422,162.2 418.7,156.2 412.8,153 418.7,149.8 	"/>
	<polygon class="st39" points="427.7,190.2 431.4,197 438.1,200.7 431.4,204.4 427.7,211.1 424,204.4 417.3,200.7 424,197 	"/>
	<polygon class="st37" points="49.1,222.7 50.6,225.5 53.4,227 50.6,228.5 49.1,231.3 47.6,228.5 44.8,227 47.6,225.5 	"/>
	<polygon class="st37" points="57.2,173.3 61.9,181.9 70.4,186.6 61.9,191.2 57.2,199.8 52.5,191.2 44,186.6 52.5,181.9 	"/>
	<polygon class="st37" points="52,338.4 54.8,343.4 59.7,346.1 54.8,348.8 52,353.8 49.3,348.8 44.3,346.1 49.3,343.4 	"/>
	<polygon class="st37" points="30,309.9 32.5,314.4 37,316.9 32.5,319.4 30,323.9 27.5,319.4 23,316.9 27.5,314.4 	"/>
	<polygon class="st40" points="82.7,425.7 84.7,429.4 88.5,431.5 84.7,433.5 82.7,437.3 80.6,433.5 76.9,431.5 80.6,429.4 	"/>
	<polygon class="st41" points="87.9,457.9 89,459.9 91,461 89,462.1 87.9,464.1 86.8,462.1 84.9,461 86.8,459.9 	"/>
	<polygon class="st41" points="57.2,461.5 58.1,463.2 59.7,464.1 58.1,465 57.2,466.6 56.3,465 54.7,464.1 56.3,463.2 	"/>
	<polygon class="st37" points="44,380.7 46.5,385.4 51.3,388 46.5,390.6 44,395.3 41.4,390.6 36.7,388 41.4,385.4 	"/>
	<polygon class="st42" points="453,413 455.5,417.5 460,420 455.5,422.5 453,427 450.5,422.5 446,420 450.5,417.5 	"/>
	<polygon class="st43" points="422,451 422.7,452.3 424,453 422.7,453.7 422,455 421.3,453.7 420,453 421.3,452.3 	"/>
	<polygon class="st44" points="453,334.3 454.4,336.9 457.1,338.4 454.4,339.8 453,342.5 451.6,339.8 448.9,338.4 451.6,336.9 	"/>
	<polygon class="st38" points="275.8,272 277.4,274.9 280.2,276.4 277.4,278 275.8,280.8 274.3,278 271.4,276.4 274.3,274.9 	"/>
	<polygon class="st38" points="255.9,227 257,229 258.9,230.1 257,231.2 255.9,233.1 254.8,231.2 252.8,230.1 254.8,229 	"/>
	<polygon class="st44" points="224.6,210.9 224.6,210.9 224.6,210.9 224.6,210.9 224.6,210.9 224.6,210.9 224.6,210.9 224.6,210.9 	
		"/>
	<polygon class="st45" points="322.1,31.9 323.9,35.2 327.2,37 323.9,38.8 322.1,42.1 320.3,38.8 317,37 320.3,35.2 	"/>
	<polygon class="st45" points="345,36.3 347,40 350.7,42 347,44 345,47.7 342.9,44 339.2,42 342.9,40 	"/>
	<polygon class="st46" points="268,448.7 268.8,450.2 270.3,451 268.8,451.8 268,453.3 267.2,451.8 265.7,451 267.2,450.2 	"/>
	<path class="st47" d="M-1895.6-452.7l-59-44c-3-2-6-1-8,1c-1,1-1,2-1,3l0,0l-8,74c0,3,2,6,5,6c1,0,2,0,3-1l68-29c3-1,4-5,3-7
		c0-1-1-2-2-2L-1895.6-452.7z M-1952.6-478.7l39,31l-44,18L-1952.6-478.7z"/>
	<path class="st48" d="M-1060.4,256c-15,0-27,12-27,27s12,27,27,27s27-12,27-27S-1045.4,256-1060.4,256z"/>
	<path class="st48" d="M-724.1-695.8c-19.2,0-34.6,15.4-34.6,34.6s15.4,34.6,34.6,34.6s34.6-15.4,34.6-34.6
		S-704.9-695.8-724.1-695.8z"/>
	<g>
		
			<linearGradient id="SVGID_1_" gradientUnits="userSpaceOnUse" x1="-981.7849" y1="18150.0957" x2="-762.5549" y2="18253.8574" gradientTransform="matrix(1 0 0 -1 694 17638)">
			<stop  offset="0" style="stop-color:#6926EC"/>
			<stop  offset="1" style="stop-color:#CA39D9"/>
		</linearGradient>
		<path class="st49" d="M-35.6-553.8c7-75-47-141-122-149c-75-7-141,47-149,122c-7,75,47,141,122,149
			C-109.6-424.8-43.6-478.8-35.6-553.8z"/>
		
			<linearGradient id="SVGID_2_" gradientUnits="userSpaceOnUse" x1="-1059.8555" y1="18167.9199" x2="-790.6359" y2="18220.5312" gradientTransform="matrix(1 0 0 -1 694 17638)">
			<stop  offset="0" style="stop-color:#6926EC"/>
			<stop  offset="1" style="stop-color:#CA39D9"/>
		</linearGradient>
		<path class="st50" d="M-35.6-553.8c7-75-47-141-122-149c-19-2-37,0-53,5l0,0c-6,2-11,4-17,6c88-7,107,51,131,128
			c11,33,32,48,48,55c1-2,2-4,2-5c-16-6-35-20-45-52c-24-73-42-130-118-132c125-13,112,56,138,123c10,27,25,29,34,28c0-3,1-5,1-8
			L-35.6-553.8z M-286.6-639.8c-2,2-3,5-4,7c19-6,43-9,63,8c40,35,14,70,40,138c10,26,27,43,43,52c3-1,6-1,9-2c-48-24-57-77-60-123
			c-2-27-3-48-28-69c-19-17-42-17-62-11H-286.6z M-306.6-550.8c0,2,1,5,1,7c12,7,24,20,29,46c3,12,8,23,15,33c6,5,13,10,20,14
			c-14-14-25-30-29-48C-277.6-529.8-292.6-543.8-306.6-550.8z M-243.6-682.8c-12,8-24,18-33,29c21-6,44-5,64,10c60,44,16,102,64,165
			c13,18,30,26,47,27c20-12,37-28,48-49c-15,4-32-1-48-19c-34-39-11-109-93-149c-19-9-36-14-50-16L-243.6-682.8z M-296.6-619.8
			c-5,12-8,25-10,39c-1,6-1,11-1,16c50-12,53,103,120,132c1,0,2,0,3,0c13,1,27,1,39-2c-33-1-61-21-73-60c-20-64,5-95-33-121
			c-20-14-35-11-46-4H-296.6z"/>
	</g>
	<g>
		<g>
			
				<linearGradient id="SVGID_3_" gradientUnits="userSpaceOnUse" x1="-2127.6558" y1="18144.1953" x2="-2104.9006" y2="18253.8066" gradientTransform="matrix(1 0 0 -1 694 17638)">
				<stop  offset="0" style="stop-color:#7022E9"/>
				<stop  offset="1" style="stop-color:#EA35D6"/>
			</linearGradient>
			<path class="st51" d="M-1442.9-625.8c34-12,70,6,82,39c12,34-6,70-39,82c-34,12-70-6-82-39
				C-1493.9-577.8-1475.9-613.8-1442.9-625.8z"/>
			
				<linearGradient id="SVGID_4_" gradientUnits="userSpaceOnUse" x1="-2116.5461" y1="18139.6777" x2="-2090.1155" y2="18315.4258" gradientTransform="matrix(1 0 0 -1 694 17638)">
				<stop  offset="0" style="stop-color:#7022E9"/>
				<stop  offset="1" style="stop-color:#EA35D6"/>
			</linearGradient>
			<path class="st52" d="M-1439.9-626.8c7-2,15-3,22-3c-9,5-18,12-25,22c-19,29,7,39,9,83c0,8-1,15-3,21c-12-3-22-9-31-18
				c4-11,4-25,0-45C-1471.9-587.8-1439.9-626.8-1439.9-626.8z M-1399.9-625.8c2,1,5,2,7,3c-15,12-12,31,5,39c11,5,22,16,30,27
				c-3,20-15,38-33,48c2-4,4-9,5-14c4-24-26-29-34-64C-1424.9-607.8-1399.9-625.8-1399.9-625.8z"/>
		</g>
		<path class="st53" d="M-1360.9-586.8c51,15,86,35,83,50c-11.2,53-297.4-4.5-287-54c3-15,42-20,96-16c-2,2-4,4-5,6c-30-2-50,1-52,9
			c-5.7,34.1,206.6,70.9,212,41c1-8-17-18-45-27C-1360.4-580.8-1361.1-583.7-1360.9-586.8z"/>
	</g>
	<polygon class="st54" points="-1063.1,136.7 -1113.1,107.7 -1141.1,157.7 -1091.1,186.7 	"/>
	
		<linearGradient id="SVGID_5_" gradientUnits="userSpaceOnUse" x1="-2087.7834" y1="-2955.3943" x2="-1900.673" y2="-3149.4023" gradientTransform="matrix(1 0 0 1 0 2344.5)">
		<stop  offset="0" style="stop-color:#9E1A99"/>
		<stop  offset="1" style="stop-color:#FF2D86"/>
	</linearGradient>
	<path class="st55" d="M-2075.2-812.3c-69.8,32.3-100.9,115.1-68.5,186.2c32.3,69.8,115.1,100.9,186.2,68.5
		c69.8-32.3,100.8-115,68.5-186.2C-1921.3-813.6-2004.1-844.7-2075.2-812.3z"/>
	
		<linearGradient id="SVGID_6_" gradientUnits="userSpaceOnUse" x1="-2793.0349" y1="18229.5254" x2="-2643.6692" y2="18398.3398" gradientTransform="matrix(1 0 0 -1 694 17638)">
		<stop  offset="0" style="stop-color:#9E1A99"/>
		<stop  offset="1" style="stop-color:#FF2D86"/>
	</linearGradient>
	<path class="st56" d="M-2075.3-811.3c-69.8,32.3-100.9,115.1-68.5,186.2c7.8,18.1,19.4,32.3,32.3,45.3l0,0
		c5.2,3.9,10.9,7.8,16.1,11.7c-51.7-75-12.2-121.7,43.4-183.7c23.3-27.2,25.9-53,23.3-71.1c-2.6,0-3.9,0-6.5,0
		c2.6,16.8,0,41.4-22,67.3c-53,59.5-93.1,104.8-55.6,173.3c-76.3-103.5-9.1-129.3,37.5-186.2c19.4-23.3,12.9-37.5,6.5-45.3
		c-2.6,1.3-5.2,2.6-7.8,2.6L-2075.3-811.3L-2075.3-811.3z M-2019.8-544.5c2.6,0,5,0.1,7.6,0.1c-15.5-14.2-29.4-32.8-25.5-58.6
		c10.3-53,54.3-49.1,100.9-107.4c18.1-23.3,23.3-45.3,23.3-66c-2.6-2.6-3.9-3.9-6.5-6.5c3.9,55.6-38.8,91.8-77.6,117.7
		c-23.3,15.5-40.1,27.2-46.6,60.8c-5.2,25.9,7.3,45.7,21.6,59.9L-2019.8-544.5z M-1931.7-572c2.6-1.3,3.9-2.6,6.5-5.2
		c0-14.2,5.2-31,24.6-49.1c9.1-7.8,15.5-19.4,22-31c1.3-7.8,2.6-16.8,2.6-24.6c-5.2,19.4-14.2,37.5-28.5,50.4
		c-23.3,22-28.5,42.7-27.2,58.2V-572L-1931.7-572z M-2081-560.9c12.9,6.5,28.3,12.6,42.6,15.2c-15.5-15.5-27.9-35.3-25.3-61.2
		c7.8-76.3,81.5-67.3,113.8-142.3c9.1-22,7.8-40.1,0-55.6c-20.7-11.6-44-18.1-68.5-18.1c10.3,11.6,15.5,28.5,7.8,53
		c-16.8,50.4-90.5,66-84.1,159.1c1.3,22,6,33.5,11.2,47.7L-2081-560.9z M-1997.7-544.8c12.9-1.3,25.9-5.2,38.8-11.6
		c5.2-2.6,10.3-5.2,15.5-7.8c-36.2-37.5,64.7-100.9,54.4-174.6c0-1.3-1.3-1.3-1.3-2.6c-6.5-12.9-12.9-24.6-22-33.6
		c16.8,29.7,12.9,64.7-14.2,95.7c-46.6,51.7-88,45.3-90.5,93.1c-1.3,24.6,6.4,33.2,16.7,39.7L-1997.7-544.8z"/>
	<polygon class="st54" points="-174,-291.7 -224.1,-320.8 -252.1,-270.7 -202.1,-241.7 	"/>
	<g id="Layer_1_1_">
		<g>
			<polygon class="st57" points="-830.5,-253.5 -834.9,-270.5 -841.9,-270.8 -842.5,-254 			"/>
		</g>
		<g>
			<polygon class="st58" points="-1347.2,-281.9 -1341.2,-298.4 -1334.3,-298 -1335.2,-281.2 			"/>
		</g>
		<g>
			<g>
				<polygon class="st6" points="-1241.3,-379.4 -1378.7,-149.5 -1241.3,-115.8 				"/>
			</g>
			<g>
				<polygon class="st57" points="-1061.1,-468.6 -1052.5,-423 -1128.3,-426.8 -1119.1,-468.6 				"/>
			</g>
			<g>
				<path class="st59" d="M-1120.4-462.7c0,0,7.5,0.8,19.9,3.8c12.3,3,2.3,24.9-27.8,32.1L-1120.4-462.7z"/>
			</g>
			<g>
				<polygon class="st6" points="-931.9,-389.4 -794.5,-159.5 -931.9,-125.8 				"/>
			</g>
			<g>
				<g>
					<ellipse class="st57" cx="-1171.1" cy="-521.5" rx="18.5" ry="18.5"/>
				</g>
				<g>
					<path class="st60" d="M-1164.5-512.9c-0.6,0-1.2-0.4-1.4-1l-6.7-17.6c-0.3-0.8,0.1-1.6,0.9-1.9s1.6,0.1,1.9,0.9l6.7,17.6
						c0.3,0.8-0.1,1.6-0.9,1.9C-1164.1-512.9-1164.3-512.9-1164.5-512.9z"/>
				</g>
				<g>
					<path class="st60" d="M-1167.8-521.7C-1167.9-521.7-1167.9-521.7-1167.8-521.7l-10.1-0.5c-0.8,0-1.5-0.7-1.4-1.6
						c0-0.8,0.8-1.5,1.6-1.4l10,0.5c0.8,0,1.5,0.7,1.4,1.6C-1166.4-522.3-1167.1-521.7-1167.8-521.7z"/>
				</g>
			</g>
			<g>
				
					<ellipse transform="matrix(0.7071 -0.7071 0.7071 0.7071 63.8261 -927.3297)" class="st60" cx="-1087.5" cy="-540.7" rx="67.9" ry="67.9"/>
			</g>
			<g>
				
					<ellipse transform="matrix(0.4874 -0.8732 0.8732 0.4874 -79.9943 -1298.7875)" class="st60" cx="-1146.2" cy="-581.3" rx="30.1" ry="30.1"/>
			</g>
			<g>
				<path class="st60" d="M-1092.4-605.9c3.1,11-3.3,22.4-14.2,25.5c-11,3.1-22.4-3.3-25.5-14.2c-3.1-11,3.3-22.4,14.2-25.5
					C-1106.9-623.2-1095.5-616.9-1092.4-605.9z"/>
			</g>
			<g>
				
					<ellipse transform="matrix(0.7071 -0.7071 0.7071 0.7071 49.0742 -927.2073)" class="st57" cx="-1094.7" cy="-522.8" rx="67.9" ry="67.9"/>
			</g>
			<g>
				<g>
					<ellipse class="st57" cx="-1019.9" cy="-523.4" rx="18.5" ry="18.5"/>
				</g>
				<g>
					<path class="st60" d="M-1027.4-515.6c-0.2,0-0.5-0.1-0.7-0.2c-0.7-0.4-1-1.3-0.6-2l8.8-16.7c0.4-0.7,1.3-1,2-0.6
						c0.7,0.4,1,1.3,0.6,2l-8.8,16.7C-1026.3-515.9-1026.8-515.6-1027.4-515.6z"/>
				</g>
				<g>
					<path class="st60" d="M-1013-523.2L-1013-523.2l-10.1-0.7c-0.8-0.1-1.4-0.8-1.4-1.6c0.1-0.8,0.8-1.5,1.6-1.4l10,0.7
						c0.8,0.1,1.4,0.8,1.4,1.6C-1011.5-523.8-1012.2-523.2-1013-523.2z"/>
				</g>
			</g>
			<g>
				<polygon class="st57" points="-1204.2,684.1 -1204.2,760 -1270.8,770.7 -1273.6,675.6 				"/>
			</g>
			<g>
				<path class="st34" d="M-1204.2,760v47.4h-162.5c0,0-0.4-17.5,10.7-23.1c7.8-3.9,78.9-36.4,84.5-39.9l19,13.4l26.4-12
					C-1215.9,741.2-1204.2,748.7-1204.2,760z"/>
			</g>
			<g>
				<rect x="-1366.8" y="807.4" class="st60" width="162.5" height="17.8"/>
			</g>
			<g>
				<polygon class="st59" points="-1204.2,710.4 -1204.2,722.3 -1269,710.4 				"/>
			</g>
			<g>
				<polygon class="st57" points="-1047.3,684.3 -1047.3,760.1 -980.8,770.8 -978,675.8 				"/>
			</g>
			<g>
				<path class="st34" d="M-1047.3,760.1v47.4h162.5c0,0,0.4-17.5-10.7-23.1c-7.8-3.9-79-33.7-84.5-37.3l-18.9,10.7l-26.4-12
					C-1035.7,741.3-1047.3,748.8-1047.3,760.1z"/>
			</g>
			<g>
				<rect x="-1047.3" y="807.6" class="st60" width="162.5" height="17.8"/>
			</g>
			<g>
				<polygon class="st59" points="-1047.3,710.5 -1047.3,722.5 -982.5,710.5 				"/>
			</g>
			<g>
				<polygon class="st12" points="-933.2,710.3 -910.5,-63.6 -1257.5,-41.2 -1360.7,381.7 -1323.4,710.3 -1178.5,710.3 
					-1182.3,424.8 -1113.3,215.6 -1073.9,710.3 				"/>
			</g>
			<g>
				<path class="st5" d="M-1149.8-427.9l156.1,7.8c46.6,2.3,83.2,40.8,83.2,87.5v269.1l-348.8,30.4l1.3-292.2
					C-1257.8-384.1-1208.5-430.8-1149.8-427.9z"/>
			</g>
			<g>
				<path class="st60" d="M-1304.8,687c-0.8,0-1.4-0.6-1.5-1.3c-1.1-10.8-27.8-266-21.5-312.2c5.5-40,70.6-271.5,98.4-370.4
					c5.7-20.3,9.8-35,11.3-40.3c0.2-0.8,1-1.3,1.8-1.1c0.8,0.2,1.3,1,1.1,1.8c-1.5,5.4-5.6,20.1-11.3,40.4
					c-27.8,98.8-92.8,330.2-98.3,370c-6.3,45.9,21.2,308.9,21.5,311.5c0.1,0.8-0.5,1.6-1.3,1.6C-1304.7,687-1304.7,687-1304.8,687z"
					/>
			</g>
			<g>
				<path class="st60" d="M-1178.8,687h-147.4c-0.8,0-1.5-0.7-1.5-1.5s0.7-1.5,1.5-1.5h147.4c0.8,0,1.5,0.7,1.5,1.5
					C-1177.3,686.4-1178,687-1178.8,687z"/>
			</g>
			<g>
				<path class="st60" d="M-932.5,687h-143.4c-0.8,0-1.5-0.7-1.5-1.5s0.7-1.5,1.5-1.5h143.4c0.8,0,1.5,0.7,1.5,1.5
					C-931,686.4-931.6,687-932.5,687z"/>
			</g>
			<g>
				<path class="st61" d="M-1113,218.9l-2.9-98.5c0,0-60,55.1-66.4,304.4L-1113,218.9z"/>
			</g>
			<g>
				<path class="st60" d="M-1285.5,769.9c-0.4,0-0.9-0.2-1.1-0.5l-10.3-12.2c-0.5-0.6-0.5-1.6,0.2-2.1c0.6-0.5,1.6-0.5,2.1,0.2
					l10.3,12.2c0.5,0.6,0.5,1.6-0.2,2.1C-1284.8,769.8-1285.1,769.9-1285.5,769.9z"/>
			</g>
			<g>
				<path class="st60" d="M-1269,763.8c-0.4,0-0.8-0.2-1.1-0.5l-11.4-13.4c-0.5-0.6-0.5-1.6,0.2-2.1c0.6-0.5,1.6-0.5,2.1,0.2
					l11.4,13.4c0.5,0.6,0.5,1.6-0.2,2.1C-1268.3,763.7-1268.7,763.8-1269,763.8z"/>
			</g>
			<g>
				<path class="st60" d="M-963,772.2c-0.3,0-0.7-0.1-1-0.4c-0.6-0.5-0.7-1.5-0.2-2.1l10.3-12.2c0.5-0.6,1.5-0.7,2.1-0.2
					s0.7,1.5,0.2,2.1l-10.3,12.2C-962.2,772-962.6,772.2-963,772.2z"/>
			</g>
			<g>
				<path class="st60" d="M-979.4,766c-0.3,0-0.7-0.1-1-0.4c-0.6-0.5-0.7-1.5-0.2-2.1l11.4-13.4c0.5-0.6,1.5-0.7,2.1-0.2
					s0.7,1.5,0.2,2.1l-11.4,13.4C-978.6,765.9-979,766-979.4,766z"/>
			</g>
			<g>
				<path class="st60" d="M-1110.7-505.2c-5.9,0-10.8-4.7-11.1-10.6c-0.2-5.6,3.8-10.5,9.2-11.4l0.5-13.1c0-0.8,0.7-1.5,1.6-1.4
					c0.8,0,1.5,0.7,1.4,1.6l-0.5,14.4c0,0.8-0.7,1.4-1.4,1.4c-2.2,0.1-4.1,1-5.6,2.6c-1.5,1.6-2.2,3.7-2.1,5.8
					c0.2,4.5,4,7.9,8.4,7.7c0.8,0,1.5,0.6,1.6,1.4c0,0.8-0.6,1.5-1.4,1.6C-1110.4-505.2-1110.6-505.2-1110.7-505.2z"/>
			</g>
			<g>
				<path class="st60" d="M-1146.5-530.7c1,3.4,4.5,5.3,7.8,4.4c3.3-0.9,5.3-4.5,4.4-7.8c-1-3.4-4.5-5.3-7.8-4.4
					C-1145.5-537.6-1147.4-534.1-1146.5-530.7z"/>
			</g>
			<g>
				<path class="st60" d="M-1079.5-531.4c1,3.4,4.5,5.3,7.8,4.4c3.3-0.9,5.3-4.5,4.4-7.8c-1-3.4-4.5-5.3-7.8-4.4
					C-1078.5-538.2-1080.5-534.7-1079.5-531.4z"/>
			</g>
			<g>
				<path class="st60" d="M-1080.1-554.4l12.1,1.4c3,0.4,5.8-1.8,6.1-4.9l0,0c0.4-3-1.8-5.8-4.9-6.1l-12.1-1.4
					c-3-0.4-5.8,1.8-6.1,4.9l0,0C-1085.3-557.6-1083.2-554.8-1080.1-554.4z"/>
			</g>
			<g>
				<path class="st60" d="M-1143.2-544.6l12.1-0.9c3-0.2,5.3-2.9,5.1-5.9l0,0c-0.2-3-2.9-5.3-5.9-5.1l-12.1,0.9
					c-3,0.2-5.3,2.9-5.1,5.9l0,0C-1148.9-546.7-1146.3-544.4-1143.2-544.6z"/>
			</g>
			<g>
				<path class="st60" d="M-953.2,687L-953.2,687c-0.9,0-1.5-0.7-1.5-1.5l10.6-746.3c0-0.8,0.7-1.5,1.5-1.5l0,0
					c0.8,0,1.5,0.7,1.5,1.5l-10.6,746.3C-951.7,686.4-952.4,687-953.2,687z"/>
			</g>
			<g>
				<rect x="-1052.5" y="-321" class="st62" width="85.9" height="109.3"/>
			</g>
			<g>
				<path class="st60" d="M-1008.8-287.7c-0.3,0-0.6-0.1-0.9-0.3l-42.8-31.1c-0.7-0.5-0.8-1.4-0.3-2.1c0.5-0.7,1.4-0.8,2.1-0.3
					l41.9,30.5l40.6-30.6c0.7-0.5,1.6-0.4,2.1,0.3s0.4,1.6-0.3,2.1l-41.5,31.2C-1008.2-287.8-1008.5-287.7-1008.8-287.7z"/>
			</g>
			<g>
				<path class="st34" d="M-1122.7-488.5c1.2,9.7,10,16.6,19.7,15.5c9.7-1.2,16.6-10,15.5-19.7L-1122.7-488.5z"/>
			</g>
		</g>
		<g>
			<g>
				<polygon class="st63" points="-667.2,-381.4 -846,-68.8 -775.9,-7.3 -635.9,-158.7 				"/>
			</g>
			<g>
				<g>
					<circle class="st64" cx="-595.9" cy="-518.7" r="18.5"/>
				</g>
				<g>
					<path class="st60" d="M-587.6-512.1c-0.5,0-0.9-0.2-1.2-0.6l-11.1-15.2c-0.5-0.7-0.3-1.6,0.3-2.1c0.7-0.5,1.6-0.3,2.1,0.3
						l11.1,15.2c0.5,0.7,0.3,1.6-0.3,2.1C-586.9-512.2-587.3-512.1-587.6-512.1z"/>
				</g>
				<g>
					<path class="st60" d="M-602.9-517.5c-0.7,0-1.3-0.5-1.5-1.2c-0.2-0.8,0.3-1.6,1.1-1.8l9.8-2.1c0.8-0.2,1.6,0.3,1.8,1.1
						c0.2,0.8-0.3,1.6-1.1,1.8l-9.8,2.1C-602.7-517.5-602.8-517.5-602.9-517.5z"/>
				</g>
			</g>
			<g>
				<ellipse class="st60" cx="-524.1" cy="-537.7" rx="70.5" ry="70.5"/>
			</g>
			<g>
				<path class="st65" d="M-203.7,653.4l-120,33.8l-73-254.9c0,0-115.6-305.9-115.6-302c0,7.4,2.3,556.8,2.3,556.8l-142-17
					l-36-693.8l344.3,63.3l92.5,324.5L-203.7,653.4z"/>
			</g>
			<g>
				<polygon class="st64" points="-539.4,683.6 -539.4,736 -596.3,736 -604.3,675.8 				"/>
			</g>
			<g>
				<path class="st34" d="M-539.4,736v71.6h-158c0,0,0-21.6,54.5-40.9c47.1-16.7,46.6-30.7,46.6-30.7H-539.4z"/>
			</g>
			<g>
				<circle class="st62" cx="-571.8" cy="760.9" r="15.6"/>
			</g>
			<g>
				<rect x="-697.5" y="807.6" class="st60" width="158" height="17.8"/>
			</g>
			<g>
				<path class="st60" d="M-596.3,737.5c-0.2,0-0.3,0-0.5-0.1c-3-1-29.1-9.8-31.4-19.6c-0.4-1.6-0.3-4,2.1-6.4c2-2,4.3-2.8,6.9-2.4
					c4.7,0.7,10.2,5.4,16.4,13.9c4.5,6.2,7.6,12.1,7.8,12.3c0.3,0.5,0.2,1.2-0.2,1.7C-595.4,737.3-595.9,737.5-596.3,737.5z
					 M-620.4,712c-1.3,0-2.5,0.5-3.6,1.6c-1.5,1.5-1.5,2.8-1.3,3.6c0.8,3.3,6.2,7.4,15.2,11.7c3.9,1.8,7.8,3.4,10.5,4.4
					c-4.6-7.7-13.3-20.2-20.1-21.2C-619.9,712-620.2,712-620.4,712z"/>
			</g>
			<g>
				<path class="st60" d="M-625.3,756.1c-0.7,0-1.3-0.1-1.9-0.2c-1.6-0.4-3.7-1.6-4.7-4.8c-0.8-2.7-0.5-5.1,1.1-7.3
					c2.8-3.9,9.5-6.6,19.9-8.1c7.6-1.1,14.2-1.2,14.5-1.2l0,0c0.6,0,1.2,0.4,1.4,0.9c0.2,0.6,0.1,1.2-0.3,1.6
					C-597.4,739.1-615.1,756.1-625.3,756.1z M-600.3,737.7c-8.9,0.5-24.1,2.4-28.1,7.9c-1,1.4-1.2,2.9-0.7,4.6
					c0.7,2.1,1.8,2.6,2.6,2.8c3.3,0.8,9.5-2,17.4-8.1C-605.6,742.3-602.4,739.6-600.3,737.7z"/>
			</g>
			<g>
				<path class="st60" d="M-566.5,809.1c-0.1,0-0.3,0-0.4,0c-0.8-0.2-1.3-1-1.1-1.8c6.1-23.2,27-32.4,27.9-32.8c0.8-0.3,1.6,0,2,0.8
					c0.3,0.8,0,1.6-0.8,2c-0.2,0.1-20.5,9.1-26.2,30.8C-565.2,808.6-565.8,809.1-566.5,809.1z"/>
			</g>
			<g>
				<path class="st60" d="M-652.4,809.1c-0.8,0-1.5-0.7-1.5-1.5V770c0-0.8,0.7-1.5,1.5-1.5s1.5,0.7,1.5,1.5v37.6
					C-650.9,808.4-651.6,809.1-652.4,809.1z"/>
			</g>
			<g>
				<polygon class="st64" points="-298.3,679.9 -282.7,736.1 -225.9,736.1 -234.7,662.1 				"/>
			</g>
			<g>
				<path class="st34" d="M-282.7,736.1v71.6h158c0,0,0-21.6-54.5-40.9c-47.1-16.7-46.6-30.7-46.6-30.7H-282.7z"/>
			</g>
			<g>
				<circle class="st62" cx="-250.3" cy="761.1" r="15.6"/>
			</g>
			<g>
				<rect x="-282.7" y="807.7" class="st60" width="158" height="17.8"/>
			</g>
			<g>
				<path class="st60" d="M-225.9,737.6c-0.4,0-0.9-0.2-1.1-0.5c-0.4-0.5-0.5-1.1-0.2-1.7c0.1-0.2,3.3-6.1,7.8-12.3
					c6.2-8.5,11.7-13.2,16.4-13.9c2.6-0.4,5,0.4,6.9,2.4c2.4,2.4,2.5,4.8,2.1,6.4c-2.3,9.8-28.5,18.6-31.4,19.6
					C-225.5,737.6-225.7,737.6-225.9,737.6z M-201.7,712.1c-0.3,0-0.5,0-0.8,0.1c-6.7,1-15.5,13.5-20.1,21.2c2.7-1,6.6-2.5,10.5-4.4
					c9-4.3,14.4-8.4,15.2-11.7c0.2-0.8,0.3-2-1.3-3.6C-199.2,712.7-200.4,712.1-201.7,712.1z"/>
			</g>
			<g>
				<path class="st60" d="M-196.9,756.2c-10.2,0-27.9-17-30-19c-0.4-0.4-0.6-1.1-0.3-1.6c0.2-0.6,0.8-0.9,1.4-0.9l0,0
					c0.3,0,7,0.1,14.5,1.2c10.4,1.5,17.1,4.3,19.9,8.1c1.6,2.1,1.9,4.6,1.1,7.3c-1,3.2-3.1,4.4-4.7,4.8
					C-195.6,756.2-196.2,756.2-196.9,756.2z M-221.9,737.8c2.2,1.9,5.3,4.7,8.8,7.3c8,6,14.2,8.9,17.4,8.1c0.8-0.2,1.9-0.7,2.6-2.8
					c0.5-1.7,0.3-3.2-0.7-4.6C-197.8,740.2-213,738.3-221.9,737.8z"/>
			</g>
			<g>
				<path class="st60" d="M-255.7,809.2c-0.7,0-1.3-0.4-1.5-1.1c-5.7-21.8-26-30.7-26.2-30.8c-0.8-0.3-1.1-1.2-0.8-2s1.2-1.1,2-0.8
					c0.9,0.4,21.8,9.6,27.9,32.8c0.2,0.8-0.3,1.6-1.1,1.8C-255.4,809.2-255.6,809.2-255.7,809.2z"/>
			</g>
			<g>
				<path class="st60" d="M-169.8,809.2c-0.8,0-1.5-0.7-1.5-1.5v-37.6c0-0.8,0.7-1.5,1.5-1.5s1.5,0.7,1.5,1.5v37.6
					C-168.3,808.5-168.9,809.2-169.8,809.2z"/>
			</g>
			<g>
				<path class="st66" d="M-512.4,129.7c0,0-46.9,40.7-44.6,82.4c2.1,38.5,46.2,264.1,46.2,264.1L-512.4,129.7z"/>
			</g>
			<g>
				<path class="st30" d="M-343.7,39.7L-688-23.6c0,0-69.7-1.5-49.2-100.3c11.5-55.7,32.4-146.4,48.5-215
					c12.3-52.6,62.7-87.3,116.2-80l108.5,14.8c58.2,7.9,105.1,51.6,117.2,109.1l18.1,208.5C-328.6-86.5-312.1,5.2-343.7,39.7z"/>
			</g>
			<g>
				<polygon class="st64" points="-489.5,-457.4 -479.9,-406.3 -556.4,-416.8 -547.5,-457.4 				"/>
			</g>
			<g>
				
					<ellipse transform="matrix(0.7071 -0.7071 0.7071 0.7071 210.7066 -522.5071)" class="st64" cx="-525.4" cy="-515.6" rx="67.9" ry="67.9"/>
			</g>
			<g>
				
					<ellipse transform="matrix(0.4605 -0.8877 0.8877 0.4605 292.5023 -772.1945)" class="st60" cx="-489" cy="-626.7" rx="34.6" ry="34.6"/>
			</g>
			<g>
				<path class="st60" d="M-540.8-500c-5.2,0-9.9-3.7-10.9-9.1c-1-5.5,2.3-10.9,7.5-12.6l-1.4-13.1c-0.1-0.8,0.5-1.6,1.3-1.6
					c0.8-0.1,1.6,0.5,1.6,1.3l1.5,14.4c0.1,0.8-0.4,1.5-1.2,1.6c-4.4,0.8-7.3,5-6.5,9.4s5,7.3,9.4,6.5c0.8-0.2,1.6,0.4,1.7,1.2
					c0.2,0.8-0.4,1.6-1.2,1.7C-539.5-500-540.2-500-540.8-500z"/>
			</g>
			<g>
				<g>
					<circle class="st64" cx="-452.5" cy="-531" r="18.5"/>
				</g>
				<g>
					<path class="st60" d="M-459-522.2c-0.2,0-0.3,0-0.5-0.1c-0.8-0.3-1.2-1.1-0.9-1.9l6.4-17.7c0.3-0.8,1.1-1.2,1.9-0.9
						c0.8,0.3,1.2,1.1,0.9,1.9l-6.4,17.7C-457.8-522.6-458.4-522.2-459-522.2z"/>
				</g>
				<g>
					<path class="st60" d="M-455.8-531.1c-0.8,0-1.4-0.6-1.5-1.4s0.6-1.5,1.4-1.6l10-0.7c0.8-0.1,1.5,0.6,1.6,1.4s-0.6,1.5-1.4,1.6
						L-455.8-531.1C-455.8-531.1-455.8-531.1-455.8-531.1z"/>
				</g>
			</g>
			<g>
				<path class="st67" d="M-548.8-451.5c0,0,7.5,0.8,19.9,3.8c12.3,3,2.6,23.7-27.5,30.9L-548.8-451.5z"/>
			</g>
			<g>
				<path class="st66" d="M-291.8,678.2c0,0-36.8-114.9-68.7-119.7l36.8,128.7L-291.8,678.2z"/>
			</g>
			<g>
				<polygon class="st67" points="-234.7,662.1 -294.9,692.3 -298.3,679.9 				"/>
			</g>
			<g>
				<polygon class="st67" points="-539.4,683.6 -539.4,695.6 -604.3,675.8 				"/>
			</g>
			<g>
				<path class="st34" d="M-520.7-500.7"/>
			</g>
			<g>
				<path class="st34" d="M-538.3-489.4c4.8,8.6,15.6,11.6,24.1,6.8c8.6-4.8,11.6-15.6,6.8-24.1L-538.3-489.4z"/>
			</g>
			<g>
				<path class="st60" d="M-578.6-522.3c1.4,3.2,5.2,4.6,8.4,3.2c3.2-1.4,4.6-5.2,3.2-8.4s-5.2-4.6-8.4-3.2
					C-578.5-529.3-580-525.5-578.6-522.3z"/>
			</g>
			<g>
				<path class="st60" d="M-512.8-535.3c0.2-3.5,3.2-6.1,6.6-5.9c3.5,0.2,6.1,3.2,5.9,6.6c-0.2,3.5-3.2,6.1-6.6,5.9
					C-510.4-528.9-513-531.8-512.8-535.3z"/>
			</g>
			<g>
				<path class="st60" d="M-511.3-549.6l10.6-0.3c2.3-0.1,4.1-2,4.1-4.3v-0.7c-0.1-2.3-2-4.1-4.3-4.1l-10.6,0.3
					c-2.3,0.1-4.1,2-4.1,4.3v0.7C-515.5-551.4-513.6-549.6-511.3-549.6z"/>
			</g>
			<g>
				<path class="st60" d="M-578.9-537.8l10.4-2.3c2.2-0.5,3.7-2.7,3.2-5l-0.1-0.7c-0.5-2.2-2.7-3.7-5-3.2l-10.4,2.3
					c-2.2,0.5-3.7,2.7-3.2,5l0.2,0.7C-583.3-538.8-581.1-537.3-578.9-537.8z"/>
			</g>
			<g>
				<circle class="st68" cx="-527.4" cy="-378" r="15.2"/>
			</g>
			<g>
				
					<ellipse transform="matrix(0.9871 -0.1602 0.1602 0.9871 46.0714 -89.5825)" class="st62" cx="-532.6" cy="-330.5" rx="15.2" ry="15.2"/>
			</g>
			<g>
				<g>
					<path class="st60" d="M-524.2-376.8c0,1.3,1,2.3,2.3,2.3s2.3-1,2.3-2.3s-1-2.3-2.3-2.3S-524.2-378.1-524.2-376.8z"/>
				</g>
				<g>
					<path class="st60" d="M-535.2-379.1c0,1.3,1,2.3,2.3,2.3s2.3-1,2.3-2.3s-1-2.3-2.3-2.3S-535.2-380.4-535.2-379.1z"/>
				</g>
			</g>
			<g>
				<g>
					<path class="st60" d="M-529.7-328.7c0,1.3,1,2.3,2.3,2.3s2.3-1,2.3-2.3s-1-2.3-2.3-2.3S-529.7-330-529.7-328.7z"/>
				</g>
				<g>
					<path class="st60" d="M-540.7-331c0,1.3,1,2.3,2.3,2.3s2.3-1,2.3-2.3s-1-2.3-2.3-2.3S-540.7-332.3-540.7-331z"/>
				</g>
			</g>
			<g>
				<path class="st8" d="M-352.7-315.4l-31.7,108.6c-9.4,26.2-36.1,41.9-63.6,37.5l-44.4-15.1l-7.8,80.4c0,0,53.8,39.8,84.6,47
					c101.4,23.8,139.8-79.2,100-176.6L-352.7-315.4z"/>
			</g>
		</g>
		<g>
			<g>
				<polygon class="st69" points="-1818.4,-451.2 -1734.1,-583.7 -1615,-561.9 -1607.1,-420.8 				"/>
			</g>
			<g>
				<polygon class="st65" points="-1832.8,-392.8 -2000.5,-189.8 -1893.4,-163.4 				"/>
			</g>
			<g>
				<g>
					<polygon class="st58" points="-1665.7,683.9 -1665.7,736.3 -1608.8,736.3 -1600.8,676.1 					"/>
				</g>
				<g>
					<path class="st34" d="M-1665.7,736.3v71.6h158c0,0,0-21.6-54.5-40.9c-47.1-16.7-46.6-30.7-46.6-30.7H-1665.7z"/>
				</g>
				<g>
					<ellipse class="st70" cx="-1633.3" cy="761.3" rx="15.6" ry="15.6"/>
				</g>
				<g>
					<rect x="-1665.7" y="807.9" class="st60" width="158" height="17.8"/>
				</g>
				<g>
					<path class="st60" d="M-1608.8,737.8c-0.4,0-0.9-0.2-1.1-0.5c-0.4-0.5-0.5-1.1-0.2-1.7c0.1-0.2,3.3-6.1,7.8-12.3
						c6.2-8.5,11.7-13.2,16.4-13.9c2.6-0.4,5,0.4,6.9,2.4c2.4,2.4,2.5,4.8,2.1,6.4c-2.3,9.8-28.5,18.6-31.4,19.6
						C-1608.5,737.8-1608.6,737.8-1608.8,737.8z M-1584.7,712.3c-0.3,0-0.5,0-0.8,0.1c-6.7,1-15.5,13.5-20.1,21.2
						c2.7-1,6.6-2.5,10.5-4.4c9-4.3,14.4-8.4,15.2-11.7c0.2-0.8,0.3-2-1.3-3.6C-1582.2,712.8-1583.3,712.3-1584.7,712.3z"/>
				</g>
				<g>
					<path class="st60" d="M-1579.8,756.4c-10.2,0-27.9-17-30-19c-0.4-0.4-0.6-1.1-0.3-1.6c0.2-0.6,0.8-0.9,1.4-0.9
						c0.3,0,7,0.1,14.5,1.2c10.4,1.5,17.1,4.3,19.9,8.1c1.6,2.1,1.9,4.6,1.1,7.3c-1,3.2-3.1,4.4-4.7,4.8
						C-1578.5,756.3-1579.1,756.4-1579.8,756.4z M-1604.8,738c2.2,1.9,5.3,4.7,8.8,7.3c8,6,14.2,8.9,17.4,8.1
						c0.8-0.2,1.9-0.7,2.6-2.8c0.5-1.7,0.3-3.2-0.7-4.6C-1580.8,740.4-1595.9,738.5-1604.8,738z"/>
				</g>
				<g>
					<path class="st60" d="M-1638.6,809.4c-0.7,0-1.3-0.4-1.4-1.1c-5.7-21.7-26-30.7-26.2-30.8c-0.8-0.3-1.1-1.2-0.8-2
						c0.3-0.8,1.2-1.1,2-0.8c0.9,0.4,21.8,9.6,27.9,32.8c0.2,0.8-0.3,1.6-1.1,1.8C-1638.4,809.4-1638.5,809.4-1638.6,809.4z"/>
				</g>
				<g>
					<path class="st60" d="M-1552.7,809.4c-0.8,0-1.5-0.7-1.5-1.5v-37.6c0-0.8,0.7-1.5,1.5-1.5c0.8,0,1.5,0.7,1.5,1.5v37.6
						C-1551.2,808.7-1551.9,809.4-1552.7,809.4z"/>
				</g>
				<g>
					<polygon class="st71" points="-1665.7,683.9 -1665.7,695.9 -1600.8,676.1 					"/>
				</g>
			</g>
			<g>
				<g>
					<polygon class="st58" points="-1902.9,658 -1941.8,731.7 -1996.6,716.4 -1969.8,634.1 					"/>
				</g>
				<g>
					<path class="st34" d="M-1941.8,731.7l-19.2,68.9l-152.2-42.5c0,0,5.8-20.8,63.5-24.7c49.8-3.4,53.1-17,53.1-17L-1941.8,731.7z"
						/>
				</g>
				<g>
					<ellipse class="st70" cx="-1979.7" cy="746.9" rx="15.6" ry="15.6"/>
				</g>
				<g>
					
						<rect x="-2048.5" y="708.9" transform="matrix(0.2688 -0.9632 0.9632 0.2688 -2250.23 -1388.405)" class="st60" width="17.8" height="158"/>
				</g>
				<g>
					<path class="st60" d="M-1996.6,717.9c-0.3,0-0.6-0.1-0.8-0.3c-2.6-1.7-25.4-17.2-25-27.3c0.1-1.6,0.8-3.9,3.7-5.6
						c2.4-1.4,4.9-1.5,7.3-0.4c4.4,1.9,8.4,7.9,12.1,17.8c2.7,7.2,4.1,13.7,4.2,14c0.1,0.6-0.1,1.2-0.6,1.6
						C-1996,717.8-1996.3,717.9-1996.6,717.9z M-2014.6,686.6c-0.9,0-1.7,0.3-2.6,0.8c-1.9,1.1-2.2,2.3-2.2,3.1
						c-0.1,3.4,4,8.8,11.5,15.4c3.3,2.8,6.6,5.3,8.9,7c-2.3-8.6-7.4-23-13.6-25.8C-2013.3,686.7-2014,686.6-2014.6,686.6z"/>
				</g>
				<g>
					<path class="st60" d="M-2026.4,728.4c-2,0-3.8-0.3-5.2-1.1c-1.4-0.8-3.1-2.5-3.2-5.9c-0.1-2.8,0.9-5,3-6.7
						c3.7-3,10.9-3.8,21.4-2.5c7.6,1,14,2.7,14.3,2.8c0.6,0.2,1,0.7,1.1,1.3c0.1,0.6-0.2,1.2-0.8,1.5
						C-1998.2,719-2015.7,728.4-2026.4,728.4z M-2019.3,714.6c-4.5,0-8.5,0.6-10.7,2.4c-1.3,1-1.9,2.4-1.9,4.2c0.1,2.2,1,3,1.7,3.4
						c2.9,1.7,9.7,0.6,19-3.1c4-1.6,7.8-3.3,10.4-4.6C-2005.9,715.8-2013.1,714.6-2019.3,714.6z"/>
				</g>
				<g>
					<path class="st60" d="M-1987.1,794.8c-0.3,0-0.5-0.1-0.8-0.2c-0.7-0.4-1-1.3-0.5-2.1c12.1-20.7,34.7-24,35.7-24.1
						c0.8-0.1,1.6,0.5,1.7,1.3s-0.5,1.6-1.3,1.7c-0.2,0-22.2,3.3-33.5,22.6C-1986.1,794.6-1986.6,794.8-1987.1,794.8z"/>
				</g>
				<g>
					<path class="st60" d="M-2069.9,771.7c-0.1,0-0.3,0-0.4-0.1c-0.8-0.2-1.3-1-1-1.8l10.1-36.2c0.2-0.8,1.1-1.3,1.8-1
						c0.8,0.2,1.3,1,1,1.8l-10.1,36.2C-2068.6,771.3-2069.2,771.7-2069.9,771.7z"/>
				</g>
				<g>
					<polygon class="st71" points="-1973.1,644.1 -1913.1,676.1 -1902.9,658 					"/>
				</g>
			</g>
			<g>
				<polygon class="st58" points="-1714.4,-463.6 -1725.2,-406 -1645.3,-401.2 -1657.7,-457.1 				"/>
			</g>
			<g>
				<path class="st71" d="M-1656.3-451.2c0,0-7.5,0.8-19.9,3.8c-12.3,3-0.3,34.1,29.8,41.3L-1656.3-451.2z"/>
			</g>
			<g>
				<g>
					<ellipse class="st71" cx="-1609.2" cy="-518.4" rx="18.5" ry="18.5"/>
				</g>
				<g>
					<path class="st60" d="M-1617.5-511.7c-0.3,0-0.6-0.1-0.9-0.3c-0.7-0.5-0.8-1.4-0.3-2.1l11.1-15.2c0.5-0.7,1.4-0.8,2.1-0.3
						c0.7,0.5,0.8,1.4,0.3,2.1l-11.1,15.2C-1616.6-512-1617.1-511.7-1617.5-511.7z"/>
				</g>
				<g>
					<path class="st60" d="M-1602.2-517.2c-0.1,0-0.2,0-0.3,0l-9.8-2.1c-0.8-0.2-1.3-1-1.1-1.8c0.2-0.8,1-1.3,1.8-1.1l9.8,2.1
						c0.8,0.2,1.3,1,1.1,1.8C-1600.9-517.7-1601.5-517.2-1602.2-517.2z"/>
				</g>
			</g>
			<g>
				<ellipse class="st69" cx="-1681" cy="-537.3" rx="70.5" ry="70.5"/>
			</g>
			<g>
				<polygon class="st5" points="-1697.7,687.8 -1507.7,674.5 -1518.5,38.7 -1844.1,-44.1 				"/>
			</g>
			<g>
				<polygon class="st5" points="-2045.2,615.9 -1872.9,681.1 -1593.5,71.7 -1858.3,-50.7 				"/>
			</g>
			<g>
				<path class="st72" d="M-1518.5,38.7l-344.3-63.3c0,0-69.7-1.5-49.2-100.3c11.5-55.7,32.4-146.4,48.5-215
					c12.3-52.6,62.7-87.3,116.2-79.9l108.5,14.8c58.2,7.9,105.1,51.6,117.2,109.1l18.1,208.5C-1503.5-87.4-1487,4.3-1518.5,38.7z"/>
			</g>
			<g>
				<path class="st58" d="M-1617.6-487.8c-12.3,35.4-55.3,49.7-89.6,34.6c-34.3-15.2-49.7-55.3-34.6-89.6
					c13.7-30.9,83.1-46.8,83.1-46.8S-1594.6-554-1617.6-487.8z"/>
			</g>
			<g>
				<g>
					<ellipse class="st58" cx="-1752.6" cy="-530.7" rx="18.5" ry="18.5"/>
				</g>
				<g>
					<path class="st60" d="M-1746.1-521.9c-0.6,0-1.2-0.4-1.4-1l-6.4-17.7c-0.3-0.8,0.1-1.6,0.9-1.9c0.8-0.3,1.6,0.1,1.9,0.9
						l6.4,17.7c0.3,0.8-0.1,1.6-0.9,1.9C-1745.8-521.9-1745.9-521.9-1746.1-521.9z"/>
				</g>
				<g>
					<path class="st60" d="M-1749.3-530.8L-1749.3-530.8l-10.1-0.7c-0.8-0.1-1.4-0.8-1.4-1.6c0.1-0.8,0.8-1.4,1.6-1.4l10,0.7
						c0.8,0.1,1.4,0.8,1.4,1.6S-1748.5-530.8-1749.3-530.8z"/>
				</g>
			</g>
			<g>
				<path class="st34" d="M-1684.4-500.4"/>
			</g>
			<g>
				<path class="st34" d="M-1654.5-486.5c-1,9.7-9.7,16.8-19.5,15.8c-9.7-1-16.8-9.7-15.8-19.5L-1654.5-486.5z"/>
			</g>
			<g>
				<path class="st60" d="M-1629.3-523.3c-1.4,3.2-5.2,4.6-8.4,3.2c-3.2-1.4-4.6-5.2-3.2-8.4s5.2-4.6,8.4-3.2
					C-1629.3-530.3-1627.9-526.5-1629.3-523.3z"/>
			</g>
			<g>
				<path class="st60" d="M-1699.1-529.7c-1.4,3.2-5.2,4.6-8.4,3.2c-3.2-1.4-4.6-5.2-3.2-8.4c1.4-3.2,5.2-4.6,8.4-3.2
					C-1699.1-536.6-1697.7-532.9-1699.1-529.7z"/>
			</g>
			<g>
				<path class="st69" d="M-1698.8-550.4l-10.4,2.2c-2.3,0.5-4.5-1-4.9-3.2l-0.1-0.7c-0.5-2.3,1-4.5,3.2-4.9l10.4-2.2
					c2.3-0.5,4.5,1,4.9,3.2l0.1,0.7C-1695.1-553.1-1696.5-550.9-1698.8-550.4z"/>
			</g>
			<g>
				<path class="st69" d="M-1627.9-543.7l-10.4-2.3c-2.2-0.5-3.7-2.7-3.2-5l0.1-0.7c0.5-2.2,2.7-3.7,5-3.2l10.4,2.3
					c2.2,0.5,3.7,2.7,3.2,5l-0.1,0.7C-1623.4-544.6-1625.6-543.2-1627.9-543.7z"/>
			</g>
			<g>
				<path class="st58" d="M-2186.8-3.5"/>
			</g>
			<g>
				<ellipse class="st70" cx="-1680" cy="-377.6" rx="15.2" ry="15.2"/>
			</g>
			<g>
				<ellipse class="st70" cx="-1683.3" cy="-330.8" rx="15.2" ry="15.2"/>
			</g>
			<g>
				<g>
					<path class="st60" d="M-1683.3-377.5c-0.4,1.2-1.7,1.9-2.9,1.5c-1.2-0.4-1.9-1.7-1.5-2.9s1.7-1.9,2.9-1.5
						C-1683.6-380-1682.9-378.7-1683.3-377.5z"/>
				</g>
				<g>
					<path class="st60" d="M-1672.1-376.5c-0.4,1.2-1.7,1.9-2.9,1.5c-1.2-0.4-1.9-1.7-1.5-2.9s1.7-1.9,2.9-1.5
						C-1672.4-379-1671.7-377.7-1672.1-376.5z"/>
				</g>
			</g>
			<g>
				<g>
					<path class="st60" d="M-1686.6-329.9c-0.4,1.2-1.7,1.9-2.9,1.5c-1.2-0.4-1.9-1.7-1.5-2.9s1.7-1.9,2.9-1.5
						C-1686.9-332.4-1686.2-331.1-1686.6-329.9z"/>
				</g>
				<g>
					<path class="st60" d="M-1675.4-328.9c-0.4,1.2-1.7,1.9-2.9,1.5c-1.2-0.4-1.9-1.7-1.5-2.9s1.7-1.9,2.9-1.5
						C-1675.7-331.4-1675-330.1-1675.4-328.9z"/>
				</g>
			</g>
			<g>
				<path class="st6" d="M-1754.2,422.2l61.4-133.8c0,0,69.8,299.3-4.8,399.4L-1754.2,422.2z"/>
			</g>
			<g>
				<path class="st6" d="M-1923.4,185.3l22.5,4.9c42.7,9.2,103-24.8,118.4-79.2l29-116l-77.2-13l-58.5,78L-1923.4,185.3z"/>
			</g>
			<g>
				<path class="st58" d="M-1906.8-149.8l3.9-18l-72-16.1l-5.4-0.9c-13.4,28.6-21.6,51.1-14.1,77.9c5.9,21.1,33.4,34.4,66,34.4
					l178.3-16.4l1.7-65.2L-1906.8-149.8z"/>
			</g>
			<g>
				<path class="st6" d="M-1514.8,258.6c-43.4-5.4-79.5-55.5-76.1-111.9l10.8-119.1l61.5,11.2L-1514.8,258.6z"/>
			</g>
			<g class="st73">
				
					<ellipse transform="matrix(0.1602 -0.9871 0.9871 0.1602 -906.0042 -2122.5457)" class="st34" cx="-1700.4" cy="-528.8" rx="22.3" ry="22.3"/>
			</g>
			<g class="st73">
				<ellipse class="st34" cx="-1635.3" cy="-523.5" rx="22.3" ry="22.3"/>
			</g>
			<g>
				<path class="st34" d="M-1700.4-504.3c-13.2,0-24-10.8-24-24s10.8-24,24-24s24,10.8,24,24S-1687.2-504.3-1700.4-504.3z
					 M-1700.4-549.3c-11.6,0-21,9.4-21,21c0,11.6,9.4,21,21,21s21-9.4,21-21C-1679.4-539.9-1688.9-549.3-1700.4-549.3z"/>
			</g>
			<g>
				<path class="st34" d="M-1635.5-499.6c-13.2,0-24-10.8-24-24s10.8-24,24-24c13.2,0,24,10.8,24,24
					C-1611.6-510.3-1622.3-499.6-1635.5-499.6z M-1635.5-544.5c-11.6,0-21,9.4-21,21c0,11.6,9.4,21,21,21s21-9.4,21-21
					C-1614.6-535.1-1624-544.5-1635.5-544.5z"/>
			</g>
			<g>
				<path class="st60" d="M-1664.8-498.7c-0.8,0-1.5-0.6-1.5-1.5c0-0.8,0.6-1.5,1.5-1.5c4.5-0.1,8-3.8,7.9-8.3
					c-0.1-4.5-3.8-8-8.3-7.9c-0.8,0-1.4-0.6-1.5-1.3l-1.5-14.4c-0.1-0.8,0.5-1.6,1.3-1.6c0.8-0.1,1.6,0.5,1.6,1.3l1.4,13.1
					c5.5,0.6,9.8,5.1,10,10.8C-1653.8-503.9-1658.6-498.8-1664.8-498.7C-1664.7-498.7-1664.8-498.7-1664.8-498.7z"/>
			</g>
			<g>
				<path class="st34" d="M-1657.8-529.5c-9.4-7.6-19.8-1.9-19.9-1.8l-1.5-2.6c0.1-0.1,12.2-6.8,23.2,2.1L-1657.8-529.5z"/>
			</g>
			<g>
				
					<rect x="-1734.1" y="-551.6" transform="matrix(0.4966 -0.868 0.868 0.4966 -403.0926 -1775.9357)" class="st34" width="3" height="22.3"/>
			</g>
			<g>
				
					<rect x="-1616.8" y="-532.9" transform="matrix(0.2952 -0.9554 0.9554 0.2952 -627.7657 -1913.7606)" class="st34" width="11.5" height="3"/>
			</g>
		</g>
		<g>
			<path class="st34" d="M-503.4,410.2l-7.7,127.9l-192.5-139l-950-52.3c-79.8-4.4-141-72.7-136.6-152.5l19.7-358.4
				c4.4-79.8,72.7-141,152.5-136.6l1005.5,55.4c79.8,4.4,141,72.7,136.6,152.5L-503.4,410.2z"/>
		</g>
		<g>
			<polygon class="st58" points="-1773.3,-152.4 -1717.1,-152.4 -1712.8,-105.2 -1779.8,-85.8 			"/>
		</g>
		<g>
			<polygon class="st71" points="-1788.2,-152.4 -1776.3,-192.7 -1767.5,-191.9 -1771.1,-151.9 			"/>
		</g>
		<g>
			<polygon class="st71" points="-1353.5,-299.1 -1348.5,-285.7 -1416.7,-289.6 			"/>
		</g>
		<g>
			<polygon class="st57" points="-1418.2,-294.2 -1406.3,-257.7 -1363.9,-255.2 -1353.5,-299.1 			"/>
		</g>
		<g>
			<polygon class="st59" points="-1369.8,-288.3 -1371.7,-255.7 -1376.6,-255.9 			"/>
		</g>
		<g>
			<polygon class="st59" points="-1385,-287.8 -1385.1,-256.4 -1389.6,-256.7 			"/>
		</g>
		<g>
			<polygon class="st59" points="-1398.1,-257.2 -1400.8,-285 -1401.2,-257.4 			"/>
		</g>
		<g>
			<polygon class="st74" points="-822.6,-270.1 -828.8,-257.2 -760.6,-254.8 			"/>
		</g>
		<g>
			<polygon class="st57" points="-758.7,-259.3 -773.9,-223.9 -816.4,-225.4 -822.6,-270.1 			"/>
		</g>
		<g>
			<polygon class="st59" points="-807,-258.3 -808.7,-225.7 -803.8,-225.4 			"/>
		</g>
		<g>
			<polygon class="st59" points="-792,-256.2 -795.3,-225 -790.7,-224.8 			"/>
		</g>
		<g>
			<polygon class="st59" points="-782.2,-224.3 -776.6,-251.7 -779.2,-224.2 			"/>
		</g>
		<g>
			<path d="M-1573.8,21.5c-2.2-1.3-4.9-3.4-6.7-5.6c-5.1-4.6-9.6-9.1-11.4-15.5c-1.1-4-2.9-7.5-3.7-11.8c-1.3-6.3-3.1-12.7-2.9-19.4
				c0.1-2-0.3-3.4-0.2-5.4c0.1-1.4,0.5-3.1,0-4.5c-0.4-2.6,0.1-5.4,0.5-7.9c0.5-3.4,1-6.7,1-9.8c0.4-10.2,1.4-20.5,5.1-29.3
				c2.4-5.5,3.1-11.7,5.1-17.2c1.4-3.6,2.7-6.9,4.4-10.4c4.3-9.6,8.6-18.6,13.8-27.3c5.1-8.4,14-15.2,23.4-19.9
				c7.3-3.7,14.6-6.1,22.6-7.2c2.6-0.4,4.7,0.9,7,1.3c0.5,0.3,0.8,0.3,0.8,1.2c0,4.2,0,7.9-0.3,12.1c-0.2,2.5-0.1,5.1-0.2,7.6
				c-0.1,1.7-0.3,8.7-1.8,9.5c-1.5,0.7-3.1,0.4-4.6,0.5c-4.6,0.8-9.5,1.9-13.6,3.9c-3.8,1.2-6.2,3.5-9.2,6.2
				c-4.5,3.9-14.6,23-15.8,27.8c-0.9,5.3-2.7,10.8-3.6,15.9c-0.3,0.5-0.4,1.1-0.4,1.4c-1.2,9.8-4.5,20.3-4.6,30.2
				c0,4.5-1,14.6-0.5,19.2c0.7,6-0.9,13.5,1.2,19.3c2.1,10.3,6.2,13.1,11.2,14.3c4.5,0.3,8.5-0.3,12.8-1.7c2-0.4,3.2,2.2,3.9,4.5
				c1.2,3.5,2.5,4.1,2,11.7c-0.2,2.3-0.9,5.3-3.1,7.4c-2.7,2.6-6.2,3.3-9.9,3.6C-1559.4,26.7-1566.6,24.5-1573.8,21.5z"/>
			<path d="M-1509.4,14c-3.3-5.6-2.3-11.8-3.5-18.3c-1.7-8.3-2.2-17.1-2.5-25.6c-0.3-7.9-0.1-15.6,0.5-23.2l0.3-4.2
				c0.8-11.5,3.5-22.7,6-33.5c3.3-14.8,9-27.9,16.1-41c4.8-8.7,7.9-16.4,14.9-23c3.9-3.7,8.4-7.1,13.8-7.8c2.9-0.4,5.7-0.7,8.5-0.5
				c2.3,0.2,4.5,0.6,6.7,1.3c2.8,0.5,5.5,2.6,7.6,5c2.9,3.3,4.9,7.4,6.6,11.2c3.7,8.2,5.6,16.8,7.6,25.7c1.1,5.2,1.6,10.3,1.2,15.6
				l-0.3,3.7c-0.1,1.7-0.2,3.4,0.2,5.1c0.5,0.9,0.4,2.3-0.2,3.1c-0.7,2.2-0.9,4.5-1.1,7.3c-0.7,6.7-2.6,13.4-3.9,20.4
				c-1.3,6.7-2.9,13.7-4.8,20.6c-3.2,14.2-7,28.4-13,41.2c-3.3,7.4-7.2,14.2-11.6,21c-3.2,4.9-7.4,8.8-11.8,11.1
				c-4.1,2-8.1,3.1-12.6,2.8c-1.7-0.1-3.4-0.5-5.3-1.2C-1498.7,27.8-1504.3,22-1509.4,14z M-1485.3,1.3c1.7,0.1,3.5-1.5,5.2-1.9
				c3.2-1.5,5.1-4.5,6.8-7.7c4.6-8.7,8-18.1,10.7-28.1c2.6-9.7,5.3-19.4,7.4-29.5c1.2-5.3,3-10.3,3.1-15.9c0.1-1.1,0.2-2.3,0.5-3.6
				c1.1-3.6,1.3-7.3,1.6-11.2c0.3-4.8,0.4-10.2,0.8-15.2c0.2-2.5-0.2-4.8-0.6-7.4c-0.9-3.5-1.8-6.6-2.7-9.5
				c-0.2-0.9-1.3-1.8-2.1-2.4c-1.3-0.9-3-1.3-4.4-1.4c-2.5-0.2-5.2,1.1-7.3,4c-1.2,1.6-2.5,3.2-3.2,5.2c-3.3,6.3-6,13.4-8.2,20.9
				c-3,10.3-6.8,20.2-9.2,30.5c-1.9,6.7-2.9,13.7-4.5,20c-1,6.7-1.8,13.5-2,20.2l-0.8,11.5c-0.3,4.8,1,9.4,2.1,14
				c0.9,3.7,3.6,5.3,6,7.5L-1485.3,1.3z"/>
			<path d="M-1416.4,39.1l0.3-4.5c0.2-2.8,0.4-5.3,1.3-7.3c0.3-0.8,1.8-30.4,1.9-31.3l2.4-30.7l0.2-3.4c0-4,0-7.6,0.2-11.6
				c1.3-18.6,2.3-37.4,3.6-55.7c0.8-11,1.8-21.9,2.5-32.6c0.2-2.5,0.3-5.1,0.8-7.6s0.6-5,0.8-7.6c0.4-2,1.3-2.7,2.8-3.2
				c2.6-1,5.5-1.9,8.9-1.7s6.5,0.7,9.8,1.5c4.4,1.2,6.8,3.9,7.4,7.9c0.8,4.6,2.2,9.2,1.8,14.3c-0.1,1.7,0.6,3.7,0.5,5.4l0.5,5.1
				l1.1,8.8c1,10.2,2.8,20.3,5,30.3c0.8,5.4,1.5,10.8,2.6,16.3c1.2,6.6,2,12.6,2.9,19.1c1.2,6.6,2.2,13.2,3.7,20
				c0.7,2.6,0.8,5.4,1.1,8l0.8,8.5c0,0.3,0.5,0.6,0.8,0.6c0.3-0.3,0.9-0.5,0.9-0.8c0.1-0.8,0.4-2,0.5-3.1c0.5-2.8,0.7-6.2,0.9-9.5
				l0.1-1.1c0.1-1.1-0.1-2.3,0-3.4c0.1-0.8,0.4-1.7,0.7-2.5c0.1-0.8,0.8-3.9,1.1-7.6c0.2-3.4,0.6-4.8,0.8-7c0.1-1.7,1-6.2,0.8-7.9
				c0.5-7.9-0.4-10.2,0.3-17.2V-73c0.1-0.8,0.7-1.4,0.4-2.2c-0.2-1.1-0.4-2.6-0.3-3.7c0.2-3.1,1.3-5.9,1.5-8.9
				c1.2-17.4,2.8-36.8,4-54.6c0.4-1.7,0.5-3.4,0.9-5.3c0.7-2.5,2.8-3.2,5.1-3.6c0.6-0.2,1.4,0.1,2.3,0.2l6.5,0.2l7.9,0.5
				c2,0.4,3.3,1.6,3.2,3.3l-2.2,19.1c0,0.6-0.4,1.1-0.4,1.7c-0.8,7-1.8,14.3-2.6,21.6c-1,6.2-1.2,12.6-1.9,19.1l-0.6,4.8l-0.1,0.8
				c-0.1,1.1,0.1,2-0.5,3.1c-0.3,0.5-0.3,0.8-0.4,1.4c-0.1,1.1,0.1,2.3,0,3.4c-0.1,1.4-0.5,2.5-0.6,4.2c-1.1,15.8-2.5,32.1-3.6,48.1
				c-0.2,2.5-0.3,4.8-1.3,7c-0.4,1.1-0.2,2.5-0.2,3.4c-0.5,3.6-1,7-1.8,10.3c-0.9,4.2-0.9,9.3-1.2,13.8l-1.3,18.3v0.3
				c-0.1,2-2.2,3-4.2,3.1c-5.7,0.7-13.9,0.2-19.6,0.9l-0.8-0.1c-1.7-0.1-3.3-1.1-3.8-2.5c-1-2-1.7-4.1-1.9-5.8
				c-1.8-6.6-3.5-14.9-5-21.8c-2.4-10.3-2.8-21.7-4.3-32.2c-1.3-6.3-1.7-12.8-2.6-19.4c-0.8-5.4-1.8-10.6-2.6-16l-5.2-26.9
				c-0.4-1.7-0.3-3.7-1.9-5.5c0-0.3-0.3-0.3-0.5-0.3h-0.3c-0.1,2-0.6,4.2-0.7,6.2c-0.1,1.1-0.1,2,0.1,3.1c0.4,2.9,0.2,5.7,0,8.8
				c0,4-0.2,7.6-0.5,11.6c0.1,2,0.6,4,0.4,6c-0.5,6.8-1.2,13.5-1.4,20.3c0.1,3.1-0.1,6.2,0.5,8.8l-0.1,1.7c-0.2,2.3,0,4-0.1,5.9
				c0,4.5-0.9,9-0.1,13.6c-0.5,3.6-0.5,7.3-0.8,11.3c-0.2,2.8-0.4,5.6-1.1,8.4c-0.4,1.1-0.4,2.2-0.5,3.4c-0.2,2.5-0.1,5.1,0,7.6
				c-0.2,3.4-0.3,9-0.7,9.6c-0.3,0.8-0.4,1.7-0.4,2.2c-0.1,0.8-0.1,1.7,0.1,2.6l-0.1,1.1c-0.1,1.1-1.3,2.2-2.7,2.1
				c-2.6,0.1-5.6-0.4-8.7-0.3c-2.8,0.1-4.2-0.3-7.1,0.4c-1.4,0.2-3.1,0.1-4.8,0C-1415.9,40.8-1416.4,39.9-1416.4,39.1z"/>
			<path d="M-1289.7,43.6c0.8-3.1,0.5-7,1.8-10.1c0.3-0.5,0.4-1.1,0.4-2c0.9-13.5,4.1-26.3,5-39.8c0-0.6,0-4,0.5-6.8
				c0.4-2,0.3-3.7,0.4-5.9c0.2-2.3,0-4.2,0.1-5.9c-0.1-2.6,0.3-4.8,0.5-6.8l0.7-6.5l0.1-1.4c-0.4-2.3-0.5-4.6-0.4-6.8
				c0.3-3.7,1.1-7.3,1.3-10.9c0.3-3.9,0-8.2,0.6-12.4c0.3-0.8,0.4-1.7,0.5-2.5c0-0.6,0.1-1.4-0.1-2.3c0.1-1.4,0.5-2.8,0.6-4.2
				c0.1-0.8,0.1-1.4-0.1-2.3c0.1-2,0-4.5,0.2-6.8l2.7-22.7l0.3-4.5c0-0.3-0.5-0.9-1.1-0.9c-1.7-0.4-3.4-0.5-5-0.6
				c-2,0.1-6.5,0.4-8.5,0.3c-1.7,0.2-3.7-0.3-5.4-0.1c-0.6,0.2-1.7,0.2-2.6,0.1c-1.7-0.4-2.5-1.3-2.4-2.7c0.2-2.8,0.9-5.3,1.1-7.6
				l0.4-5.9c0.2-2.8,0.4-5.6,0-8.5c-0.2-0.9-0.2-1.7-0.1-2.3c0.2-2.5,1.9-3.3,5.9-3l18.6,1.3c2.3,0.2,4.2,0.3,6.2,0.7
				c1.7,0.4,3.4,0.5,5,0.6c4.5,0.3,8.8,0,13-0.2c4.2,0.3,9,0.1,13.6-0.8c0.9-0.2,2-0.1,2.6-0.1l16.3,1.7c1.1,0.1,2.2,1.3,3,1.3
				c1.1,0.6,2.2,1.6,2.1,2.7c-0.1,1.7-0.2,3.1-0.9,5c-1.4,3.9-1.9,7.8-2.2,12c-0.1,1.1-0.2,2.3-0.5,3.1c-0.1,1.4-0.5,2.5-1.9,2.7
				c-1.1,0.2-2.6,0.7-4.3,0.6c-3.4-0.2-7.1,0.1-10.8,0.4c-4.5,0.3-8.7-0.3-13.2-0.6c-0.8-0.1-1.7,0.7-2.6,1.2
				c-1.9,2.4-3.2,5.2-2.5,8.3l-0.3,3.7c-0.1,1.1-0.2,2.3,0,4c-0.3,3.7,0.2,5.4,0.2,9.1c-0.3,3.7-1.1,7.6-1.3,11.2
				c-0.1,1.7-0.2,3.1,0,4.5c0.3,4.3-1.2,8.7-1.2,13.2l0.1,6.2l-0.4,5.9c-0.2,7.1-0.9,12.7-1.3,18.9c-0.7,6.2-1.4,12.3-1.8,18.5
				l-0.6,8.7l-0.2,3.4c-0.1,2-0.3,3.7-0.9,5.3l-0.9,12.9c-0.5,3.1-1,6.7-1.3,10.1c-0.5,7.9-0.4,10.4-0.9,17.2
				c-0.1,1.7-1.1,3.3-2.5,3.2c-2.5-0.2-5.1-0.1-7.6-0.2c-1.4-0.1-2.5-0.2-3.6-0.5c-2.2-0.7-3.1-0.5-4.5-0.6c-0.6,0-1.1-0.4-1.7-0.4
				c-2.3-0.2-4.3,0.6-6.2,0.1C-1289,45.9-1290.1,45-1289.7,43.6z"/>
			<path d="M-1222.4,51.6c0.8-2.8,1.4-4.4,2.2-6.6c2.2-3.5,1.1-8.4,2.8-12.2c2.1-5.8,3-11.4,5.2-17.5c1.1-3.9,2-8.1,3.4-12.2
				c1.9-6.9,3.5-14.5,5.7-21.7l4.7-18.3c1.8-5.5,3.6-11.1,5.1-16.6c2-4.7,3.5-9.1,4.3-13.6c2.7-6.9,4.3-13.6,6.2-20.2
				c1.6-6.7,3.4-13.1,4.8-19.7c2.1-5.2,2.3-9.5,5.9-16c1.5-5.6,4.5-12.1,5.8-18.3c0.7-2.2,2.8-3.5,6.2-3.3l27.3,1.9
				c1.4,0.1,2.5,1,2.4,1.9l-0.1,0.8c-0.8,8.1,0.3,16.4-0.3,24.3c-0.6,5.3-1,10.7,0,16.1c0.3,3.7-0.2,7.3-0.5,11.3
				c0,4.2-0.3,8.2,0.3,12.2c0.3,4-0.3,7.9-0.5,11.6c0,4.2-0.3,7.9,0.6,11.9c0.8,4.6,0.2,8.8-0.1,13.3c-0.2,3.4-0.4,6.5,0.2,9.6
				c0.6,3.4,0.1,6.5-0.1,9.6c-0.1,1.7-0.3,3.7,0.2,5.9l1.1,20.7c-0.2,3.1-0.4,6.5,0.2,9.6c0.7,2.6,0.2,5.1,0,7.9l-1.1,16
				c-0.3,5.1,0.2,5.7-0.5,15.2c-0.2,2.3-1.3,2.5-8.6,1.7c-3.9-0.3-7.6-0.5-11.5-1.1c-2-0.1-0.8-0.6-2.8-1c-1.6-0.7-2.7-1.6-2.6-3.3
				c-0.2-1.4-0.1-2.8,0.3-4.2l0.9-13.2c0.4-5.3,0.7-10.4,0.8-15.5c0.2-2.8-0.5-5.7-0.3-8.2c0.7-9.6-0.8-16.7-0.2-26.3l0.8-7
				c0.3-4.2,0.7-6.5,0.9-8.4c0.1-1.4-0.1-2.6-0.3-4c0.1-1.1,0.4-2.2-0.7-2.9h-0.3c-0.6,0-2,0.4-2.9,0.4c-3.1,0.1-9.6,0.2-12.8,0.5
				c-2,0.1-2.9,0.9-3.5,2c-0.8,2.8-1.3,6.1-2,8.9c-0.3,0.8-0.4,2-0.8,3.1c-1.8,6.1-4.2,12.4-5.3,19.1c-1.1,4.2-2.2,8-3.1,12.8
				c-0.5,2.5-1.5,5-1.7,7.8c-0.1,0.8-1.2,4.4-1.6,7.5L-1191,39c-0.6,4.5-2,8.3-2.6,12.5c-0.4,2-1.6,2.7-4.2,2.8h-0.6
				c-7.6-0.8-14.1-1-21.5-0.1C-1221.2,54.2-1222.8,53-1222.4,51.6z M-1156.2-56.1c2,0.1,2.6-0.4,2.7-1.8l0.2-3.1
				c0.4-2,0.6-3.9,0.7-5.6c0.4-6.5,0-12.7-1-18.7c-0.5-1.2,0.2-3.1-1.9-4.7l-11.3,33.2L-1156.2-56.1z"/>
			<path d="M-1093.1,54.5c-2.2-1.3-4.9-3.4-6.7-5.5c-5.1-4.6-9.6-9.1-11.4-15.5c-1.1-4-2.9-7.5-3.7-11.8c-1.3-6.3-3.1-12.7-2.9-19.4
				c0.1-2-0.3-3.4-0.2-5.4c0.1-1.4,0.5-3.1,0-4.5c-0.4-2.6,0.1-5.4,0.5-7.9c0.5-3.4,1-6.7,1-9.8c0.4-10.2,1.4-20.5,5.1-29.3
				c2.4-5.5,3.1-11.7,5.1-17.2c1.4-3.6,2.7-6.9,4.4-10.4c4.3-9.6,8.6-18.6,13.8-27.3c5.1-8.4,14-15.2,23.4-19.9
				c7.3-3.7,14.6-6.1,22.6-7.2c2.6-0.4,4.7,0.9,7,1.3c0.5,0.3,0.8,0.3,0.8,1.2c0,4.2,0,7.9-0.3,12.1c-0.2,2.5-0.1,5.1-0.2,7.6
				c-0.1,1.7-0.3,8.7-1.8,9.5c-1.5,0.7-3.1,0.4-4.6,0.5c-4.6,0.8-9.5,1.9-13.6,3.9c-3.8,1.2-6.2,3.5-9.2,6.2
				c-4.5,3.9-14.6,23-15.8,27.8c-0.9,5.3-2.7,10.8-3.6,15.9c-0.3,0.5-0.4,1.1-0.4,1.4c-1.2,9.8-4.5,20.3-4.6,30.2
				c0,4.5-1,14.6-0.5,19.2c0.7,6-0.9,13.5,1.2,19.3c2.1,10.3,6.2,13.1,11.2,14.3c4.5,0.3,8.5-0.3,12.8-1.7c2-0.4,3.2,2.2,3.9,4.5
				c1.2,3.5,2.5,4.1,2,11.7c-0.2,2.3-0.9,5.3-3.1,7.4c-2.7,2.6-6.2,3.3-9.9,3.6C-1078.8,59.8-1086,57.6-1093.1,54.5z"/>
			<path d="M-1018.4,62.2c0.8-3.1,0.5-7,1.8-10.1c0.3-0.5,0.4-1.1,0.4-2c0.9-13.5,4.1-26.3,5-39.8c0-0.6,0-4,0.5-6.8
				c0.4-2,0.3-3.7,0.4-5.9c0.2-2.3,0-4.2,0.1-5.9c-0.1-2.6,0.3-4.8,0.5-6.8l0.7-6.5l0.1-1.4c-0.4-2.3-0.5-4.6-0.4-6.8
				c0.3-3.7,1.1-7.3,1.3-10.9c0.3-3.9,0-8.2,0.6-12.4c0.3-0.8,0.4-1.7,0.5-2.5c0-0.6,0.1-1.4-0.1-2.3c0.1-1.4,0.5-2.8,0.6-4.2
				c0.1-0.8,0.1-1.4-0.1-2.3c0.1-2,0-4.5,0.2-6.8l2.7-22.7l0.3-4.5c0-0.3-0.5-0.9-1.1-0.9c-1.7-0.4-3.4-0.5-5-0.6
				c-2,0.1-6.5,0.4-8.5,0.3c-1.7,0.2-3.7-0.3-5.4-0.1c-0.6,0.2-1.7,0.2-2.6,0.1c-1.7-0.4-2.5-1.3-2.4-2.7c0.2-2.8,0.9-5.3,1.1-7.6
				l0.4-5.9c0.2-2.8,0.4-5.6,0-8.5c-0.2-0.9-0.2-1.7-0.1-2.3c0.2-2.5,1.9-3.3,5.9-3l18.6,1.3c2.3,0.2,4.2,0.3,6.2,0.7
				c1.7,0.4,3.4,0.5,5,0.6c4.5,0.3,8.8,0,13-0.2c4.2,0.3,9,0.1,13.6-0.8c0.9-0.2,2-0.1,2.6-0.1l16.3,1.7c1.1,0.1,2.2,1.3,3,1.3
				c1.1,0.6,2.2,1.6,2.1,2.7c-0.1,1.7-0.2,3.1-0.9,5c-1.4,3.9-1.9,7.8-2.2,12c-0.1,1.1-0.2,2.3-0.5,3.1c-0.1,1.4-0.5,2.5-1.9,2.7
				c-1.1,0.2-2.6,0.7-4.3,0.6c-3.4-0.2-7.1,0.1-10.8,0.4c-4.5,0.3-8.7-0.3-13.2-0.6c-0.8-0.1-1.7,0.7-2.6,1.2
				c-1.9,2.4-3.2,5.2-2.6,8.3l-0.3,3.7c-0.1,1.1-0.2,2.3,0,4c-0.3,3.7,0.2,5.4,0.2,9.1c-0.3,3.7-1.1,7.6-1.3,11.2
				c-0.1,1.7-0.2,3.1,0,4.5c0.3,4.3-1.2,8.7-1.2,13.2l0.1,6.2l-0.4,5.9c-0.2,7.1-0.9,12.7-1.3,18.9c-0.7,6.2-1.4,12.3-1.8,18.5
				l-0.6,8.7l-0.2,3.4c-0.1,2-0.3,3.7-0.9,5.3l-0.9,12.9c-0.5,3.1-1,6.7-1.3,10.1c-0.5,7.9-0.4,10.4-0.9,17.2
				c-0.1,1.7-1.1,3.3-2.5,3.2c-2.5-0.2-5.1-0.1-7.6-0.2c-1.4-0.1-2.5-0.2-3.6-0.5c-2.2-0.7-3.1-0.5-4.5-0.6c-0.6,0-1.1-0.4-1.7-0.4
				c-2.3-0.2-4.3,0.6-6.2,0.1C-1017.7,64.5-1018.8,63.6-1018.4,62.2z"/>
			<path d="M-800.2-76.3c-0.2,3.1-0.7,5.9-0.9,9c0,3.7-0.1,5.9-0.2,7.6c-0.4,5.9-1.4,3.6-1.8,14.3c-0.5,10.7-2.3,21-3.6,32
				c-1.6,6.4-1.5,12.9-3,19c-1.9,6.4-3.7,13-5.9,19.7c-1.1,3.9-2.3,8.6-3.5,13.3c-1.5,5.6-3.3,11.1-6.5,16
				c-2.9,5.5-6.9,10.5-12.3,14.7c-8.3,6.2-8.4,7.1-20.2,6.2c-3.4-0.2-10.9-1.6-12.7-5.1c-6-7.5-7.8-14.1-8.7-21.5
				c-0.8-4.9-0.4-11.3-1.1-16.2c-0.3-3.4-1-5.7-0.8-9.4c0.1-0.8,0.1-2,0.5-3.4c1-5.6,0.2-10.5,0.5-16.1c-0.3-3.4-0.7-6.8-0.4-10.5
				c1.2-17.7,2.7-35.7,4-53.5c0.3-4.2,1.4-7.8,1.6-11.5c0.6-4.8,2.1-14,2.4-13.7c0.1-5.9,2.2-11.7,2.9-17.6c0.7-5.9,2-12,3.5-17.9
				c0.1-0.8,1.9-3.3,2.2-3.2c6.2,0.4,12.1,0.8,18,2.1c2,0.4,3.3,1.6,3.4,3.9c-0.1,1.1,0.1,2,0,3.4c-0.2,2.5-0.9,4.2-1,5.9
				c-0.2,2.3-2,8.6-1.9,7.5c-0.6,5.3-1.3,10.9-2.5,16.2l-1.6,7.2l-0.1,1.1c-0.1,0.8-0.1,1.7-0.2,2.5c-0.1,1.1-0.2,2.3-0.8,3.3
				c-0.4,1.1-0.5,2.8-0.6,4.2c-0.3,3.7-0.8,8.1-1.2,12.6c0,4.5-1.2,8.7-1.5,13.2c-0.1,1.7-1.1,3.3-0.3,5.1c0.3,0.3,0.2,0.6,0.2,0.9
				c-0.1,1.1-1,1.9-0.5,3.1c0.5,1.4,0.4,3.1,0.3,4.3c0.1,2.6-1.2,5.3-0.5,7.6c0.1,2.8-0.3,5.1-0.5,7.6c-0.2,2.8-0.4,5.3-0.3,8.2
				c-0.2,2.5-0.3,4.8-0.2,7.3l-0.2,3.1c-0.1,0.8-0.1,2,0,3.4c0.2,0.6,0.2,1.7,0.1,2.3c-0.4,5.9,0.7,11.1,1.4,16.8
				c0.7,2.3,1.9,4.7,3.2,7.3c0.5,0.9,1.6,1.5,3,1.6c2.3,0.2,4.9-1.1,5.9-4.1c2.9-9.1,6.4-19.1,9-27.4c1-2.5,1.2-5.6,1.9-7.8
				c1.4-4.1,1.5-8.9,2.6-12.5c1.8-5.8,1.7-11.8,2.9-17.1c1.4-4.1,1.4-8.1,2-12.3c0.1-2,0.6-4.5,0.7-6.5c0.4-1.4,0.5-2.5,0.5-3.6
				c0.1-1.1,0.2-2.3,0.5-3.1c0.1-1.4-0.1-3.1,0-4.8c0.1-0.8,0.1-1.4,0.4-2.2c1.4-4.4,2-8.9,2.3-13.4c0.4-5.6,0.2-11.3,0.6-17.2
				s-0.1-11.6-0.5-17.8v-0.6c0.2-2.5,2-3.8,4.5-3.9c2-0.4,4.3-0.3,6.6-1c1.4-0.2,2.6-0.1,4.2,0.3c2.5,0.2,4.4,2,5.3,4.9
				c0.4,2.3,0.5,5.1,0.3,7.4c0.1,2.6-0.1,5.4-0.3,8.2c-0.4,5.3-1,11-1.4,16.3C-800-79.1-800.1-77.7-800.2-76.3z"/>
			<path d="M-774.3,81c-3-1.1-5.5-2.9-7.6-5.3c-4.5-5.1-8.1-9.6-10.2-16c-2.1-6.6-3.6-13-3.4-20l1.1-15.5c0.1-0.8,0.1-1.4,0.4-2.2
				c0.2-3.1,1.7-3.8,4.8-3.9c5.7-0.2,11.6,0.5,17.6-0.8c0.3,0,0.6-0.2,1.1-0.2c1.1,0.1,1.9,1,2.4,2.1c0.2,0.9,0.2,1.7,0.1,2.6
				c-0.1,2-0.6,4.2-1,5.9c-0.7,1.4-0.8,2.8-0.9,4.2c-0.1,2,0,4,0.2,5.7c0.8,5.1,2.1,10,4.4,14.7c1,2,2.6,3.9,3.9,5.4s3.3,1.9,5,1.5
				c3.5-1.2,7-2.6,9.2-5.9c1.3-1.9,2.2-3.5,2.4-5.8c0.2-3.1-0.1-6.2-0.7-9.7c-2.6-7.2-5.2-14.2-9-21.3c-3.5-6.7-5.8-14-9.3-20.7
				c-1.5-2.9-3-5.9-4.8-8.5c-4.6-7.1-8.7-13.9-13-21.2c-2-3.5-2.9-7.5-4.3-11.6c-1-2.6-1.9-5.5-2.6-8.1c-0.8-4.6-1.4-8.9-1.1-13.4
				c0.1-1.7,0.5-3.4,0.9-5c0.8-2.8,0.6-5.3,2.2-7.8c0.9-5,4.3-9,7.1-12.8c0.9-0.8,1.5-1.6,2.1-2.4c4-5.4,9.1-9.3,14.4-12.6
				c4.4-2.8,9.7-4.7,14.8-5.8c4.6-0.8,9.4-1.3,14-1.6c1.4-0.2,2.8-0.1,4.2,0c3.1,0.2,5.9,1,8.6,2c7.7,3.4,14.8,7.2,19.4,14.1
				c1.8,2.7,4.2,5.1,3.9,8.8c1.8,6.3,1.7,12.8,0.9,19.9c0,0.6-0.4,2-0.3,3.7c-0.2,7.1-2.9,13.7-6.2,19.9c-0.3,0.8-0.7,1.7-1.3,2.5
				c-1.2,1.6-2.7,2.4-4.7,2.2c-4.2-0.6-8.4-0.9-12.6-1.2c-2.3-0.2-3-1.6-2.6-3.6c0.5-3.1,0.8-7.3,1.8-10.3c0.7-2.2,1.2-4.4,1.3-6.4
				c0.4-5.3-1.3-10.3-4.3-15.6s-7.9-8.5-14.1-9.2c-1.7-0.1-2.6,0.4-4.3,0.8c-7.5,2-11,8-12.6,15.2l-1.2,5.6
				c-0.1,1.1-0.4,2.2-0.5,3.4c-0.1,1.7,0,3.4,0.2,5.1c0.3,3.4-0.2,6.8,1,9.7c0.2,0.6-0.1,1.4,0.4,2c2.2,5.5,3.1,11.8,6.5,16.6
				c2.1,3,3.8,6.2,5.3,9.1c3.8,6.5,7.9,13,11.1,20c2.5,4.7,4.4,9.6,6.6,14.6c3.9,9,6.6,18.8,8.2,28.6c0.2,0.9,0.5,1.4,0.4,2.3
				c0.3,3.7,0.6,7.1,0.4,10.5c-0.8,2.8-0.9,5.3-2,8.1c-2,4.9-5.2,9.3-9.9,12.3c-3.3,2-7.1,4-11.1,5.5c-7.2,2.6-15.2,3.2-22.8,2.7
				C-768,83.4-771,82.1-774.3,81z"/>
			<path d="M-687.9,78.7c-0.5-1.4-0.4-2.6-0.3-4c0.3-5.1,3.8-9.4,6.7-11.1c2.3-1.3,4.7-1.9,6.9-1.8c5.6,0.4,13.4,6.6,12,14.7
				c0.3,8.2-7.4,13.3-13.6,12.9C-682.7,89-686.1,85.4-687.9,78.7z M-683.8,35.7c-0.1-2.6,0-4.8,0.2-7.1c0.2-2.2,0.3-4.8,0.2-7.1
				c0.3-8.2,0.6-16.9,0.6-25.4l5.1-73.7c0.7-10.1,1.1-19.4,1.7-29c0.3-5.1,1.9-6.7,5.5-6.4l3.4,0.2c2.5,0.2,5.1,0.3,7,1.3
				c1.4,0.1,2.5,1,3.9,1.1c2.5,0.7,3.5,2.2,3.3,5.3c0.3,3.7,0.1,7.4-0.2,11l-4.3,54.6l-4,58.3c-0.8,7.3-2.1,14.3-2.9,21.3
				c-0.1,1.7-1.1,3.3-3.3,3.4c-3.4-0.2-7.1-0.2-11-0.5C-681.2,43-684.1,39.7-683.8,35.7z"/>
		</g>
		<g>
			<polygon class="st71" points="-1748.8,-139.9 -1716.2,-143.3 -1715.7,-138.4 			"/>
		</g>
		<g>
			<polygon class="st71" points="-1745.8,-125 -1714.9,-129.9 -1714.4,-125.4 			"/>
		</g>
		<g>
			<polygon class="st71" points="-1713.5,-116.9 -1740.5,-109.8 -1713.2,-113.9 			"/>
		</g>
		<g>
			<polygon class="st64" points="-479.2,-184.8 -556.1,-167.7 -547.9,-121 -475.8,-116.7 			"/>
		</g>
		<g>
			<polygon class="st64" points="-479.2,-184.8 -517.6,-201.8 -524.7,-194.2 -501.9,-178.6 			"/>
		</g>
		<g>
			<polygon class="st67" points="-522.2,-163.9 -554.5,-158.7 -553.7,-153.8 			"/>
		</g>
		<g>
			<polygon class="st67" points="-521.1,-148.8 -552.3,-145.4 -551.6,-140.9 			"/>
		</g>
		<g>
			<polygon class="st67" points="-550.2,-132.5 -522.3,-132.8 -549.7,-129.5 			"/>
		</g>
		
			<g id="SvgjsG6893" transform="matrix(0.37034705456662853,0,0,0.37034705456662853,47.0653700187287,27.511684049477402)" class="st75">
			
				<linearGradient id="SVGID_7_" gradientUnits="userSpaceOnUse" x1="209150.4219" y1="479643.3125" x2="209160.5" y2="479643.3125" gradientTransform="matrix(5.073754e-02 2.331129e-03 2.331129e-03 -5.073754e-02 -14911.1973 24430.0723)">
				<stop  offset="0" style="stop-color:#00DDFF"/>
				<stop  offset="1" style="stop-color:#FF00D4"/>
			</linearGradient>
			<path class="st76" d="M-3181.7,595.4L-3181.7,595.4L-3181.7,595.4L-3181.7,595.4L-3181.7,595.4z M-3153.2,569.3L-3153.2,569.3
				L-3153.2,569.3L-3153.2,569.3z"/>
		</g>
		<polygon class="st77" points="-2023.5,175.2 -2075.8,145.9 -2106.1,198.2 -2053.8,227.5 		"/>
		<path class="st78" d="M-767.5,478.7l-59-44c-3-2-6-1-8,1c-1,1-1,2-1,3l0,0l-8,74c0,3,2,6,5,6c1,0,2,0,3-1l68-29c3-1,4-5,3-7
			c0-1-1-2-2-2L-767.5,478.7z M-824.5,452.7l39,31l-44,18L-824.5,452.7z"/>
	</g>
	<g id="SvgjsG4078" transform="matrix(0.3333123491099657,0,0,0.3333123491099657,87.35883301685583,34.36051564452966)">
		
			<linearGradient id="SVGID_8_" gradientUnits="userSpaceOnUse" x1="22524.7383" y1="89510.5078" x2="22671.3438" y2="89510.5078" gradientTransform="matrix(0.3329 1.587844e-02 1.587844e-02 -0.3329 -12830.2334 29939.4922)">
			<stop  offset="0" style="stop-color:#00DDFF"/>
			<stop  offset="1" style="stop-color:#FF00D4"/>
		</linearGradient>
		<path class="st79" d="M-3499.3,354.3l-40.8-1.9l0,0h-0.1h-0.5l2-41.1l-80.6-3.8l-1.9,40.7l0,0v0.7l0,0l-40.7-1.9l-1.9,40.7l0,0
			l0,0l-40.7-1.9l0,0l0,0l0,0l1.9-40.8l-40.8-1.9l0,0v-0.7l0,0l1.9-40.7l-80.6-3.8l-1.9,40.7l0,0l-0.6,0.3l0,0l-40.7-1.9l-1.9,40.7
			l0,0l0,0l-36.6-1.7l-5.6,117.8l36.6,1.7l-0.3,5.6l-1.7,35.1l40.7,1.9v0.2v0.1l0,0l-1.9,40.8l40.4,1.9l-1.9,40.4l40.7,1.9
			l-1.9,40.6l40.8,1.9l-1.9,39.5l40.7,1.9l1.9-39.5l40.8,1.9l1.9-40.6l40.7,1.9l1.9-40.4l40.4,1.9l2-41l40.7,1.9l1.9-40.8l36.6,1.7
			l5.6-117.8l-36.6-1.7L-3499.3,354.3L-3499.3,354.3z M-3634.6,629.1L-3634.6,629.1L-3634.6,629.1L-3634.6,629.1L-3634.6,629.1z
			 M-3592.2,590.4L-3592.2,590.4L-3592.2,590.4L-3592.2,590.4z"/>
		
			<linearGradient id="SVGID_9_" gradientUnits="userSpaceOnUse" x1="21024.7949" y1="89510.4609" x2="21171.4023" y2="89510.4609" gradientTransform="matrix(0.3329 1.587844e-02 1.587844e-02 -0.3329 -12830.2334 29939.4922)">
			<stop  offset="0" style="stop-color:#00DDFF"/>
			<stop  offset="1" style="stop-color:#FF00D4"/>
		</linearGradient>
		<path class="st80" d="M-3998.7,330.5l-40.8-1.9l0,0h-0.1h-0.5l2-41.1l-80.6-3.8l-1.9,40.7l0,0v0.7l0,0l-40.7-1.9l-1.9,40.7l0,0
			l0,0l-40.7-1.9l0,0l0,0l0,0l1.9-40.8l-40.8-1.9l0,0v-0.7l0,0l1.9-40.7l-80.6-3.8l-1.9,40.7l0,0l-0.6,0.3l0,0l-40.7-1.9l-1.9,40.7
			l0,0l0,0l-36.6-1.7l-5.6,117.8l36.6,1.7l-0.3,5.6l-1.7,35.1l40.7,1.9v0.2v0.1l0,0l-1.9,40.8l40.4,1.9l-1.9,40.4l40.8,1.9
			l-1.9,40.6l40.8,1.9l-1.9,39.5l40.8,1.9l1.9-39.5l40.8,1.9l1.9-40.6l40.7,1.9l1.9-40.4l40.4,1.9l2-41l40.7,1.9l1.9-40.8l36.6,1.7
			l5.6-117.8l-36.6-1.7L-3998.7,330.5L-3998.7,330.5z M-4134,605.3L-4134,605.3L-4134,605.3L-4134,605.3L-4134,605.3z
			 M-4091.7,566.6L-4091.7,566.6L-4091.7,566.6L-4091.7,566.6z"/>
		
			<linearGradient id="SVGID_10_" gradientUnits="userSpaceOnUse" x1="24024.3809" y1="89510.4219" x2="24171.0273" y2="89510.4219" gradientTransform="matrix(0.3329 1.587844e-02 1.587844e-02 -0.3329 -12830.2334 29939.4922)">
			<stop  offset="0" style="stop-color:#00DDFF"/>
			<stop  offset="1" style="stop-color:#FF00D4"/>
		</linearGradient>
		<path class="st81" d="M-2965.1,420.3l-36.3-1.7l1.9-40.1l-40.6-1.9l1.9-40.7l-82.1-3.9l-1.9,40.7l-40.5-1.9l-1.9,40.7l0,0l0,0
			l-40.7-1.9l1.9-40.8l-40.8-1.9l0,0v-0.7l1.9-40.7l-80.5-3.8l-1.9,40.7l0,0l-0.6,0.3l0,0l-40.7-1.9l-1.9,40.7l0,0l0,0l-36.6-1.7
			l-5.6,117.8l36.6,1.7l0,0l0,0l0,0l-1.9,40.8l40.7,1.9l-0.1,0.3l0,0l0,0l-1.9,40.7l40.4,1.9l-1.9,40.4l40.7,1.9l-1.9,40.6l40.8,1.9
			l-1.9,39.5l40.8,1.9l1.9-39.5l40.7,1.9l1.9-40.6l40.8,1.9l1.9-40.4l40.4,1.9l1.9-40.5l41,2l2-40.9l36.5,1.7L-2965.1,420.3
			L-2965.1,420.3z M-3296,604.6L-3296,604.6L-3296,604.6L-3296,604.6z M-3257.5,647.1L-3257.5,647.1L-3257.5,647.1L-3257.5,647.1z
			 M-3218.6,688.5L-3218.6,688.5L-3218.6,688.5L-3218.6,688.5z M-3177.8,690.4L-3177.8,690.4L-3177.8,690.4L-3177.8,690.4z
			 M-3090.9,573.8l-1.9,40.4l-40.4-1.9l-1.9,40.6l-40.8-1.9l0,0l0,0l11.4-239.4l40.7,1.9l1.9-40.5l81.4,3.9l-1.9,40.7l40.4,1.9
			l-5.6,117l-41.1-2l-2,41.3L-3090.9,573.8L-3090.9,573.8z"/>
	</g>
</g>
<g id="DESIGNED_BY_FREEPIK">
</g>
</svg>
