<?xml version="1.0" encoding="utf-8"?>
<!-- Generator: Adobe Illustrator 25.1.0, SVG Export Plug-In . SVG Version: 6.00 Build 0)  -->
<svg version="1.1" id="_x33_0" xmlns="http://www.w3.org/2000/svg" xmlns:xlink="http://www.w3.org/1999/xlink" x="0px" y="0px"
	 viewBox="0 0 512 512" style="enable-background:new 0 0 512 512;" xml:space="preserve">
<style type="text/css">
	.st0{fill:#828282;}
</style>
<g>
	<path class="st0" d="M432,104h-40v16h40c22.1,0,40-17.9,40-40s-17.9-40-40-40h-72v16h72c13.2,0,24,10.8,24,24S445.2,104,432,104z"
		/>
	<path class="st0" d="M432,248h-24v16h24c13.2,0,24-10.8,24-24s-10.8-24-24-24h-16c-22.1,0-40,17.9-40,40s17.9,40,40,40h8v-16h-8
		c-13.2,0-24-10.8-24-24s10.8-24,24-24h16c4.4,0,8,3.6,8,8S436.4,248,432,248z"/>
	<path class="st0" d="M504,240c0-30.9-25.1-56-56-56h-48c-39.7,0-72,32.3-72,72s32.3,72,72,72h24c26.5,0,48,21.5,48,48
		s-21.5,48-48,48H312c-22.1,0-40,17.9-40,40s17.9,40,40,40h8v-16h-8c-13.2,0-24-10.8-24-24s10.8-24,24-24h112c35.3,0,64-28.7,64-64
		s-28.7-64-64-64h-24c-30.9,0-56-25.1-56-56s25.1-56,56-56h48c22.1,0,40,17.9,40,40s-17.9,40-40,40h-8v16h8
		C478.9,296,504,270.9,504,240z"/>
	<path class="st0" d="M184,344h16v-16h-16c-17.6,0-32,14.4-32,32s14.4,32,32,32h8c15,0,29-5.8,39.6-16.4
		C242.2,365,248,350.9,248,336c0-30.9-25.1-56-56-56h-40c-44.1,0-80,35.9-80,80s35.9,80,80,80h24c17.6,0,32,14.4,32,32v32h16v-32
		c0-26.5-21.5-48-48-48h-24c-35.3,0-64-28.7-64-64s28.7-64,64-64h40c22,0,40,17.9,40,40c0,10.7-4.2,20.7-11.7,28.3
		c-7.6,7.6-17.6,11.7-28.3,11.7h-8c-8.8,0-16-7.2-16-16S175.2,344,184,344z"/>
	<path class="st0" d="M192,264c39.7,0,72,32.3,72,72h16c0-48.5-39.5-88-88-88h-48c-66.2,0-120-53.8-120-120H8c0,75,61,136,136,136
		H192z"/>
	<path class="st0" d="M144,216h80c22.1,0,40,17.9,40,40h16c0-30.9-25.1-56-56-56h-80c-39.7,0-72-32.3-72-72s32.3-72,72-72h56V40h-56
		c-48.5,0-88,39.5-88,88S95.5,216,144,216z"/>
	<path class="st0" d="M312,408h112c17.6,0,32-14.4,32-32s-14.4-32-32-32h-24c-48.5,0-88-39.5-88-88s-39.5-88-88-88h-80
		c-22.1,0-40-17.9-40-40s17.9-40,40-40h90.1c2.8,11,8.4,21,16.7,29.2c12.1,12.1,28.2,18.7,45.2,18.7h0l8,0c22,0,40-17.9,40-40.6
		c0-21.7-17.7-39.3-40-39.3c-13.2,0-24,10.8-24,24c0,13.2,10.8,24,24,24h8V88h-8c-4.4,0-8-3.6-8-8c0-4.4,3.6-8,8.6-8
		c12.9,0,23.4,10.5,23.4,24c0,13.2-10.8,24-24,24l-8,0c0,0,0,0,0,0c-12.8,0-24.9-5-33.9-14.1C253,96.9,248,84.8,248,72
		c0-26.5,21.5-48,48-48h136c30.9,0,56,25.1,56,56s-25.1,56-56,56h-56c-17.6,0-32,14.4-32,32h16c0-8.8,7.2-16,16-16h56
		c39.7,0,72-32.3,72-72S471.7,8,432,8H296c-35.3,0-64,28.7-64,64h-88c-30.9,0-56,25.1-56,56s25.1,56,56,56h80c39.7,0,72,32.3,72,72
		c0,57.3,46.7,104,104,104h24c8.8,0,16,7.2,16,16s-7.2,16-16,16H312c-39.7,0-72,32.3-72,72v40h16v-40C256,433.1,281.1,408,312,408
		L312,408z"/>
	<path class="st0" d="M144,120h72v-16h-72c-13.2,0-24,10.8-24,24s10.8,24,24,24h24v-16h-24c-4.4,0-8-3.6-8-8S139.6,120,144,120z"/>
	<path class="st0" d="M312,152h16v48h-16V152z"/>
</g>
</svg>
