<svg id="Capa_1" data-name="Capa 1" xmlns="http://www.w3.org/2000/svg" viewBox="0 0 509.52 512"><defs><style>.cls-1{fill:#f9c941;}.cls-2{fill:#bfbfbf;}.cls-3{fill:#595959;}.cls-4{fill:#f9d366;}.cls-5{fill:#9f74e2;}</style></defs><path class="cls-1" d="M391.81,428a7.84,7.84,0,0,1-7.84-7.85V399.34a7.85,7.85,0,0,1,15.69,0v20.8A7.84,7.84,0,0,1,391.81,428Z" transform="translate(-1.24 0)"/><path class="cls-1" d="M391.81,484a7.84,7.84,0,0,1-7.84-7.84V455.32a7.85,7.85,0,1,1,15.69,0v20.79A7.84,7.84,0,0,1,391.81,484Z" transform="translate(-1.24 0)"/><path class="cls-1" d="M430.2,445.57H409.4a7.85,7.85,0,0,1,0-15.69h20.8a7.85,7.85,0,0,1,0,15.69Z" transform="translate(-1.24 0)"/><path class="cls-1" d="M374.22,445.57H353.43a7.85,7.85,0,1,1,0-15.69h20.79a7.85,7.85,0,1,1,0,15.69Z" transform="translate(-1.24 0)"/><path class="cls-2" d="M510.76,227c0,64.56-51.26,115.77-124.49,115.77-37.87,0-72.95,0-94.8,10.18-10.68,4.95-18.21,12.35-21.35,23.36-2.87,10-2.11,23,3.18,39.92,23,73.47-73.23,95.74-73.23,95.74a109.25,109.25,0,0,0,5.79-23.32c.15-1,.26-2.07.36-3.09a.2.2,0,0,1,0-.07c4.16-44.44-26.23-75.93-81.47-75.93-84.43,0-100.43-95.74-25.11-126.9,44.62-18.47,101.46-8.81,143.43-12.69,4.5-.41,8.82-1,12.94-1.76l.27,0q2.94-.56,5.71-1.26c19.26-4.9,33.17-15.41,37.76-37.68,12.59-61.26-77.92-48.44-103.52-43.65a1.67,1.67,0,0,0-.26.06c-2.42.45-4.24.83-5.3,1.06l-.2.05-.48.1-.39.08c-.61.12-1.22.22-1.85.33C-35.28,226.15-32.94,67.72,63,20A177.07,177.07,0,0,1,95.48,7.74c90.34-24.67,192.46,17.51,192.46,17.51S157.11,22.8,140.75,84.55c-.25,1-.47,1.9-.65,2.8-2.7,14,4.24,21.41,17.55,24.9,29.1,7.64,88.67-3.21,144.94-3.21C459.5,109,510.76,162.46,510.76,227Z" transform="translate(-1.24 0)"/><path class="cls-3" d="M359.39,207.4C348.65,240.68,313,255.46,262,266.93c19.25-4.89,33.17-15.41,37.75-37.68,12.59-61.26-77.91-48.43-103.52-43.64C229.17,179.12,373.3,153.62,359.39,207.4Z" transform="translate(-1.24 0)"/><path class="cls-3" d="M206.23,485.52c4.16-44.45-26.23-75.94-81.47-75.94-84.43,0-100.42-95.73-25.11-126.9,44.62-18.47,101.46-8.8,143.43-12.68l.19.9c-177.83,19.57-93.1,114.33-68.52,130.55C198.81,417.32,211.34,437.69,206.23,485.52Z" transform="translate(-1.24 0)"/><path class="cls-3" d="M187.77,187.28C-35.28,226.15-32.94,67.72,63,20A177.8,177.8,0,0,1,95.48,7.73C-15.74,84.64,112.48,199.23,187.77,187.28Z" transform="translate(-1.24 0)"/><path class="cls-4" d="M467.16,90.15l18.68-3.79c8.82-1.79,8.82-14.39,0-16.18L467.16,66.4a46.76,46.76,0,0,1-36.52-36.53L426.86,11.2c-1.79-8.82-14.39-8.82-16.18,0l-3.79,18.67A46.75,46.75,0,0,1,370.37,66.4l-18.68,3.78c-8.81,1.79-8.81,14.39,0,16.18l18.68,3.79a46.72,46.72,0,0,1,36.52,36.52l3.79,18.67c1.79,8.82,14.39,8.82,16.18,0l3.78-18.67A46.73,46.73,0,0,1,467.16,90.15Z" transform="translate(-1.24 0)"/><path class="cls-4" d="M232.81,323.51l18.68-3.78c8.81-1.79,8.81-14.39,0-16.18l-18.68-3.79a46.72,46.72,0,0,1-36.52-36.52l-3.79-18.67c-1.79-8.82-14.39-8.82-16.17,0l-3.79,18.67A46.73,46.73,0,0,1,136,299.76l-18.68,3.79c-8.82,1.79-8.82,14.39,0,16.18L136,323.51A46.75,46.75,0,0,1,172.54,360l3.79,18.67c1.78,8.82,14.38,8.82,16.17,0L196.29,360A46.75,46.75,0,0,1,232.81,323.51Z" transform="translate(-1.24 0)"/><path class="cls-5" d="M256,268.24l.27,0-.26.05Z" transform="translate(-1.24 0)"/><path class="cls-3" d="M157.66,112.25C110.41,107,98.91,81.86,98.91,56.77c0,0,11,26.77,41.19,30.58C137.4,101.39,144.34,108.76,157.66,112.25Z" transform="translate(-1.24 0)"/><path class="cls-3" d="M291.47,353v0c-10.68,4.95-18.21,12.35-21.35,23.36C250.88,382.93,232.81,402,232.81,402,241.17,375.82,271,359.64,291.47,353Z" transform="translate(-1.24 0)"/><path class="cls-3" d="M379.26,293.18c45-5.23,75.32-50.22,75.32-82.64,0,0,16.21,37.13-13.6,67S379.26,293.18,379.26,293.18Z" transform="translate(-1.24 0)"/></svg>