<?xml version="1.0" encoding="utf-8"?>
<!-- Generator: Adobe Illustrator 25.2.0, SVG Export Plug-In . SVG Version: 6.00 Build 0)  -->
<svg version="1.1" id="OBJECTS" xmlns="http://www.w3.org/2000/svg" xmlns:xlink="http://www.w3.org/1999/xlink" x="0px" y="0px"
	 viewBox="0 0 500 500" style="enable-background:new 0 0 500 500;" xml:space="preserve">
<style type="text/css">
	.st0{fill:#FFDCEC;}
	.st1{fill:#4ABCF4;}
	.st2{fill:#FFFFFF;}
	.st3{fill:#644DBD;}
	.st4{fill:none;stroke:#644DBD;stroke-miterlimit:10;}
	.st5{fill:#FFFEFD;}
	.st6{fill:#FF84B5;}
	.st7{fill:none;stroke:#000000;stroke-width:0.75;stroke-miterlimit:10;}
	.st8{fill:none;stroke:#000000;stroke-width:0.5;stroke-miterlimit:10;}
	.st9{fill:#FF88DD;}
	.st10{fill:none;stroke:#000000;stroke-miterlimit:10;}
	.st11{fill:#FFFFFF;stroke:#000000;stroke-miterlimit:10;}
	.st12{fill:#020202;}
	.st13{fill:#0C0C0C;}
	.st14{fill:#FFFDFD;}
</style>
<g>
	<g>
		<g>
			<circle class="st0" cx="101.7" cy="135.3" r="17.9"/>
			
				<ellipse transform="matrix(0.9279 -0.3729 0.3729 0.9279 -21.5093 60.7861)" class="st0" cx="146.4" cy="86" rx="42.8" ry="42.8"/>
			<path class="st0" d="M406.8,262.5c-3.7-6.8-9.2-13.1-17.1-16.4c-11.6-6.7-23-8-20.5-24.1c14.7-35.9,7-77.1-22.4-97.9
				c-35.7-25.2-93.5-23.4-144-6.8c-42.4,14-53.8,43.8-52.7,57.9c1,13.3,9.7,25-8.2,35.1c-24.3,10.6-67.2,60.5-22.1,107.5
				c23.8,24.9,21.1,33.4,19.4,50s13.2,53.1,69.5,43.5c56.3-9.6,60.1-8.1,79.9,1.6c19.8,9.7,55.6,18.3,80.7-1.6
				c42.3-33.5-2.3-77.1,18.1-86.5C408.9,314.9,417.6,282.3,406.8,262.5z"/>
			
				<ellipse transform="matrix(0.1615 -0.9869 0.9869 0.1615 -8.1567 741.7271)" class="st0" cx="432.4" cy="375.7" rx="27" ry="27"/>
			<circle class="st0" cx="80.4" cy="405.5" r="18.7"/>
		</g>
		<g>
			<g>
				<g>
					<path class="st1" d="M277.9,90.9c3.4-1.1,6.8-2.3,10.2-3.4c0.6-0.2,1.1-0.9,0.9-1.5c-0.2-0.6-0.9-1.1-1.5-0.9
						c-3.4,1.1-6.8,2.3-10.2,3.4c-0.6,0.2-1.1,0.9-0.9,1.5C276.6,90.6,277.3,91.1,277.9,90.9L277.9,90.9z"/>
				</g>
			</g>
			<g>
				<g>
					<path class="st1" d="M274.9,78.8c1.7-2.5,3.4-4.8,5.3-7.1c0.4-0.5,0.5-1.3,0-1.8c-0.5-0.4-1.3-0.5-1.8,0c-2,2.4-3.9,5-5.7,7.6
						c-0.4,0.5-0.1,1.4,0.4,1.7C273.8,79.5,274.5,79.4,274.9,78.8L274.9,78.8z"/>
				</g>
			</g>
			<g>
				<g>
					<path class="st1" d="M260.3,68.6c0.1-1.1,0.2-2.1,0.3-3.2c0-0.1,0-0.1,0-0.2c0,0.1,0,0.1,0,0c0-0.1,0-0.3,0.1-0.4
						c0-0.2,0.1-0.5,0.1-0.7c0.1-0.5,0.2-1.1,0.3-1.6c0.1-0.6-0.2-1.4-0.9-1.5c-0.6-0.1-1.4,0.2-1.5,0.9c-0.4,2.3-0.7,4.5-0.9,6.8
						c0,0.7,0.6,1.3,1.2,1.2C259.7,69.8,260.2,69.3,260.3,68.6L260.3,68.6z"/>
				</g>
			</g>
			<g>
				<g>
					<path class="st1" d="M239.4,64.3c0.8,3.3,1.8,6.6,3,9.8c0.2,0.6,0.9,1.1,1.5,0.9c0.6-0.2,1.1-0.9,0.9-1.5
						c-1.2-3.2-2.2-6.5-3-9.8C241.4,62.1,239,62.7,239.4,64.3L239.4,64.3z"/>
				</g>
			</g>
			<g>
				<g>
					<path class="st1" d="M222.6,72c1.4,1.7,2.8,3.5,4.3,5.2c0.4,0.5,1.3,0.5,1.8,0c0.5-0.5,0.4-1.2,0-1.8c-1.4-1.7-2.8-3.5-4.3-5.2
						c-0.4-0.5-1.3-0.5-1.8,0C222.1,70.8,222.1,71.5,222.6,72L222.6,72z"/>
				</g>
			</g>
			<g>
				<g>
					<path class="st1" d="M211.5,90.7c1.3,0.4,2.5,0.7,3.8,1.1c0.6,0.2,1.2,0.3,1.7,0.5c0.6,0.2,1,0.3,1.5,0.6
						c0.6,0.3,1.4,0.2,1.7-0.4c0.3-0.6,0.2-1.4-0.4-1.7c-1.2-0.6-2.4-1-3.7-1.3c-1.3-0.4-2.6-0.7-3.9-1.1c-0.6-0.2-1.4,0.2-1.5,0.9
						C210.5,89.9,210.9,90.5,211.5,90.7L211.5,90.7z"/>
				</g>
			</g>
		</g>
	</g>
	<g>
		<g>
			<g>
				<g>
					<path class="st2" d="M73.7,324c0,0,19.2,22.5,36.4,25.3s21.9-5.5,25.1-11.2c3.1-5.6,7.4-22.2,7.4-22.2l-26.6-6.7
						c0,0,0.5,8-2.7,13.2c-3.2,5.2-17.4,2.4-29.9-8.1L73.7,324z"/>
					<g>
						<path d="M73.3,324.5c11.1,13,27.8,27.7,46.1,25.9c16.6-1.6,20.4-20.9,23.9-34.2c0.1-0.3-0.1-0.7-0.4-0.8
							c-8.9-2.2-17.7-4.5-26.6-6.7c-0.4-0.1-0.8,0.2-0.8,0.6c0.3,6-0.6,14.8-8,15.1c-8.6,0.3-17.2-5.3-23.5-10.4
							c-0.3-0.2-0.6-0.3-0.9,0c-3.2,3.2-6.5,6.4-9.7,9.6c-0.6,0.6,0.3,1.4,0.9,0.9c1.5-1.5,3-3,4.5-4.5c0.8-0.8,4-5,5.2-5.1
							c0.1,0,3.9,3.5,4.2,3.7c2,1.3,4.1,2.6,6.3,3.6c3.3,1.6,6.8,2.8,10.4,3.3c6.5,0.8,9.7-1.9,11.2-8.2c0.5-2.3-0.1-5.9,0.7-7.9
							c-0.5,1.1-0.9,0.2,0.2,0.7c0.9,0.4,2.1,0.5,3.1,0.8c5.7,1.4,11.4,2.9,17.2,4.3c1.4,0.4,3.7,0.5,5,1.3c0.3,0.2-0.1-1.2-0.3-0.1
							c-0.2,1.3-0.7,2.5-1,3.7c-1.9,6.6-3.7,13.6-7.2,19.5c-4.5,7.5-11.5,10.2-20.1,9.5C97.9,347.8,84,335,74.2,323.6
							C73.7,323,72.8,323.8,73.3,324.5z"/>
					</g>
				</g>
				<g>
					<g>
						<g>
							<path class="st2" d="M71.5,303l13.7,10.7l-11.6,13.1L61,313.3C61,313.3,70.5,302.2,71.5,303z"/>
							<g>
								<path class="st3" d="M70.9,303.5c4.4,3.5,9.1,6.7,13.3,10.5c-0.3-0.3,0.9-1-0.7,0.3c-1.1,0.9-2,2.3-3,3.4
									c-2,2.3-5.7,5.1-7,7.9c-0.6,1.2,0.3,0.7,0.1,0.3c-0.7-1.1-1.9-2-2.8-3c-2.5-2.7-5-5.4-7.5-8.1c-0.4-0.5-1.8-2.4-1.8-1.4
									c0,1,1.7-1.4,2.1-1.9c1-1.1,6.1-8,7.6-7.7c1,0.2,1.4-1.3,0.4-1.5c-1.8-0.4-4,2.7-5.1,3.7c-2.1,2.2-4.2,4.5-6.1,6.8
									c-0.3,0.3-0.3,0.8,0,1.1c4.2,4.5,8.3,9,12.5,13.4c0.3,0.3,0.8,0.3,1.1,0c3.9-4.4,7.7-8.7,11.6-13.1c0.3-0.3,0.3-0.8,0-1.1
									c-4.6-3.6-9.1-7.2-13.7-10.7C71.2,301.8,70.1,302.9,70.9,303.5z"/>
							</g>
						</g>
						<polygon class="st3" points="84.5,313.2 80.5,310.1 69.5,322.5 73.5,326.8 						"/>
						<line class="st4" x1="66.4" y1="302.3" x2="80.4" y2="314.7"/>
						<line class="st4" x1="63.2" y1="305.9" x2="76.7" y2="317.9"/>
						<line class="st4" x1="60.2" y1="309.3" x2="73.7" y2="321.3"/>
					</g>
					<g>
						<g>
							<path class="st5" d="M72.3,299L57,281.4c0,0-1.8-3.1-4-1.1c-2.2,2-10.6,8.8-27,26.5c-0.7,0.7-9.8,10.8,6.8,8.5
								c2.5-0.3,18.4-4.2,18.4-4.2s6,4.1,8,5.2c1.1,0.6,1.4,0.8,4.2-2.3c3.5-3.8,7.9-8.3,10.3-12.4C73.9,301,73.7,300.6,72.3,299z"
								/>
							<g>
								<path class="st6" d="M73.2,298.2c-5.2-5.9-10-12.7-15.7-18.1c-3-2.8-5.1-0.8-7.6,1.4c-4.5,4-8.9,8.1-13.1,12.4
									c-4.5,4.5-9.9,9-13.4,14.5c-1.4,2.2-2.5,5.1-0.2,7c3.4,3,9.9,1.1,13.8,0.2c3-0.7,6-1.4,8.9-2.1c1.2-0.3,2.5-0.5,3.7-0.9
									c0.9-0.3,2.4-0.1,1.2-0.5c4.2,1.4,7.6,8,12,4.1c3.8-3.3,7.4-7.6,10.3-11.7C75.1,301.7,75.4,300.9,73.2,298.2
									c-1-1.2-2.6,0.5-1.7,1.7c2.2,2.6-5.1,9-6.8,10.8c-1,1.1-2.5,3.4-3.9,4c-1.3,0.6-1.2,0.4-2.5-0.4c-2.6-1.4-5-4.4-7.9-4.3
									c-3.7,0-8.2,2-11.9,2.8c-2.9,0.7-12.6,3.7-14.3,0.4c-0.9-1.8,1.5-4.4,2.6-5.7c4.7-5.6,10-10.7,15.2-15.7
									c3-2.9,6.1-5.8,9.2-8.5c2-1.8,3.1-2.7,5.3-0.7c5.5,5.1,10.1,11.5,14.9,17.2C72.5,301,74.1,299.3,73.2,298.2z"/>
							</g>
						</g>
						<g>
							<g>
								<g>
									<path class="st6" d="M44.8,304.6c-0.2,2.5-0.5,5-0.7,7.5c-0.1,1.5,2.2,1.5,2.3,0c0.2-2.5,0.5-5,0.7-7.5
										C47.3,303.1,44.9,303.1,44.8,304.6L44.8,304.6z"/>
								</g>
							</g>
							<g>
								<g>
									<path class="st6" d="M39,304.2c-0.2,3.1-0.3,6.1-0.5,9.2c-0.1,1.5,2.3,1.5,2.3,0c0.2-3.1,0.3-6.1,0.5-9.2
										C41.4,302.7,39,302.7,39,304.2L39,304.2z"/>
								</g>
							</g>
						</g>
						<path class="st6" d="M54.3,294.8c2.9-0.7,9.8,1.3,10.7,5.5c0.9,4.2-6.2,1.8-6.2,1.8s2.5,6.1-1.4,7.6
							C53.6,311.1,48.6,296.3,54.3,294.8z"/>
					</g>
				</g>
			</g>
			<g>
				<g>
					<path class="st2" d="M123.8,381.9c0,0,22.2-19.5,28.4-27.8c6.2-8.3,9.3-13.8,10.6-21.8c1.3-7.9,0-18.5,0-18.5l29-1.9
						c0,0,1.7,16.1,0,26.5c-1.7,10.5-13.9,26.4-33.6,39.8c-19.7,13.4-27.8,16.7-27.8,16.7L123.8,381.9z"/>
					<g>
						<path d="M124.2,382.4c10.3-9.1,21.5-18.3,29.6-29.5c6.6-9,10.2-18.1,10.1-29.3c0-2.1-0.1-4.2-0.3-6.3
							c-0.1-1.2,0.3-3.6-0.9-2.8c1-0.7,4.9-0.3,6-0.4c6.8-0.5,13.6-0.9,20.3-1.4c0.6,0,1.8-0.4,2.3-0.2c-0.6-0.2-0.4-0.9-0.3,0.5
							c0.1,4.3,0.6,8.6,0.6,12.9c0.1,11.3-2.1,19.7-9,28.7c-8.5,11.1-19.6,19.6-31.2,27.2c-4.7,3.1-9.5,6.1-14.4,8.9
							c-1.9,1.1-4.4,3.1-6.6,3.5c-1.2,0.2,0.4,0.6,0,0.2c-0.9-0.8-1.5-3-2-4c-1.4-2.9-2.9-5.8-4.3-8.7c-0.4-0.7-1.4-0.1-1.1,0.6
							c2.2,4.4,4.3,8.7,6.5,13.1c0.1,0.2,0.5,0.4,0.7,0.3c4.6-1.9,8.9-4.6,13.1-7.1c12-7.3,23.8-15.1,33.6-25.2
							c6.5-6.8,13.5-15.1,15.2-24.6c1.6-8.6,0.9-18,0-26.7c0-0.3-0.3-0.6-0.6-0.6c-9.7,0.6-19.3,1.3-29,1.9c-0.3,0-0.7,0.3-0.6,0.6
							c0.8,7.2,1.1,14.8-0.7,21.9c-2.2,8.6-7.9,16.4-14,22.9c-7.6,8.1-15.8,15.6-24.1,22.9C122.8,382,123.6,382.9,124.2,382.4z"/>
					</g>
				</g>
				<g>
					<g>
						<g>
							<path class="st2" d="M110.3,390.2l13.7-10.7l9.9,14.4l-16.1,8.9C117.8,402.8,109.3,391,110.3,390.2z"/>
							<g>
								<path class="st3" d="M110.8,390.8c4.6-3.6,9.1-7.1,13.7-10.7c-0.4-0.1-0.8-0.1-1.2-0.2c2.5,3.6,5,7.3,7.5,10.9
									c0.5,0.7,1.2,2.3,1.9,2.7c1.2,0.8-0.1,0.4,0.6-0.1c-1.6,1.1-3.4,1.9-5.1,2.8c-2.4,1.4-4.9,2.7-7.3,4.1
									c-0.7,0.4-1.9,0.8-2.5,1.4c-1.1,1.1-1-0.3,0,0.7c-1.3-1.3-8.1-10.3-7.4-11.7c0.4-0.9-0.9-1.7-1.3-0.8
									c-0.8,1.7,1.6,4.6,2.4,5.9c1.6,2.6,3.3,5.1,5.1,7.5c0.2,0.3,0.7,0.5,1.1,0.3c5.4-3,10.7-5.9,16.1-8.9
									c0.3-0.2,0.5-0.7,0.3-1.1c-3.3-4.8-6.6-9.6-9.9-14.4c-0.3-0.4-0.8-0.5-1.2-0.2c-4.6,3.6-9.1,7.1-13.7,10.7
									C108.9,390.3,110,391.4,110.8,390.8z"/>
							</g>
						</g>
						<polygon class="st3" points="123.3,380 119.4,383.1 128.8,396.8 133.9,394 						"/>
						<line class="st4" x1="108.4" y1="395" x2="123.8" y2="384.4"/>
						<line class="st4" x1="111.1" y1="399" x2="126" y2="388.8"/>
						<line class="st4" x1="113.6" y1="402.7" x2="128.5" y2="392.5"/>
					</g>
					<g>
						<g>
							<path class="st5" d="M106.6,388.4l-20.8,10.7c0,0-3.4,1-2,3.6c1.4,2.6,5.9,12.4,19.2,32.6c0.5,0.8,8.1,12.1,9.9-4.6
								c0.3-2.5,0.3-18.9,0.3-18.9s5.4-4.8,7-6.5c0.8-0.9,1.1-1.1-1.2-4.6c-2.9-4.3-6.2-9.7-9.5-13
								C109,387.3,108.5,387.5,106.6,388.4z"/>
							<g>
								<path class="st6" d="M106.1,387.4c-5.8,3-11.6,6-17.5,8.9c-1,0.5-2.1,1-3.1,1.6c-0.6,0.3,0.1,0-0.2,0.1
									c-0.8,0.3-1.5,0.7-2.1,1.3c-2,2.2,0.3,5.2,1.4,7.3c4.9,9.6,10.6,18.7,16.5,27.7c1.4,2.1,2.8,4.2,4.9,5.6
									c1.1,0.7,2.4,1.1,3.6,0.7c1.6-0.5,2.6-2.1,3.1-3.6c1.5-4,1.5-8.4,1.5-12.5c0.1-4,0.1-8,0.1-12c0-0.3,0-0.5,0-0.8
									c-0.1,0.3-0.2,0.6-0.3,0.8c1.3-1.1,2.5-2.3,3.8-3.4c1.3-1.2,3.1-2.5,3.9-4c1-2-1.3-4.5-2.3-6c-2-3-4-6.1-6.2-9
									c-0.9-1.2-2-3-3.4-3.7C108.6,386,107.1,386.9,106.1,387.4c-1.3,0.7-0.2,2.7,1.2,2c0.4-0.2,0.9-0.4,1.3-0.6
									c0.3-0.1,0.5,0,0.1-0.2c-0.3-0.1,0.1,0.1,0.2,0.2c0.2,0.2,0.3,0.4,0.5,0.5c0.4,0.4,0.7,0.8,1,1.1c1.4,1.6,2.6,3.4,3.8,5.1
									c1.2,1.8,2.4,3.6,3.6,5.5c0.5,0.7,1,1.5,1.4,2.2c0.1,0.2,0.2,0.4,0.3,0.6c0.1,0.2,0.1,0.3,0.1,0.2c0,0,0,0,0,0
									c-0.1,0.1-0.2,0.3-0.4,0.4c-0.4,0.4-0.8,0.8-1.1,1.2c-1,1-2.1,2-3.1,2.9c-1,0.9-2.9,2-2.9,3.4c-0.2,4.3,0,8.6-0.1,12.9
									c0,1.9,0,3.8-0.2,5.6c-0.1,1.7-0.4,3.4-0.9,5c-0.3,0.9-0.6,2-1.4,2.6c-0.4,0.4-0.8,0.4-1.1,0.3c-0.5-0.1-1-0.4-1.5-0.7
									c-1-0.7-1.8-1.8-2.4-2.6c-4-5.6-7.6-11.7-11.1-17.6c-2.4-4-4.7-8.1-6.8-12.2c-0.5-1-1-1.9-1.5-2.9c-0.4-0.8-0.4-1.3,0.4-1.9
									c0.4-0.2,0.7-0.3,1.1-0.5c3.1-1.4,6.2-3.2,9.2-4.7c3.6-1.9,7.2-3.7,10.9-5.6c0.2-0.1,0.4-0.2,0.7-0.3
									C108.6,388.7,107.4,386.7,106.1,387.4z"/>
							</g>
						</g>
						<g>
							<g>
								<g>
									<path class="st6" d="M105.4,416.5c2.4,0.8,4.8,1.7,7.1,2.5c1.4,0.5,2-1.8,0.6-2.3c-2.4-0.8-4.8-1.7-7.1-2.5
										C104.6,413.7,104,416,105.4,416.5L105.4,416.5z"/>
								</g>
							</g>
							<g>
								<g>
									<path class="st6" d="M103.6,422c2.9,0.9,5.9,1.8,8.8,2.7c1.4,0.4,2.1-1.8,0.6-2.3c-2.9-0.9-5.9-1.8-8.8-2.7
										C102.8,419.3,102.1,421.6,103.6,422L103.6,422z"/>
								</g>
							</g>
						</g>
						<path class="st6" d="M98.2,404.9c0-2.9,3.6-9.2,7.9-9.1c4.3,0.1,0.2,6.5,0.2,6.5s6.5-0.9,7,3.1
							C113.8,409.5,98.3,410.8,98.2,404.9z"/>
					</g>
				</g>
			</g>
			<g>
				<g>
					<path class="st2" d="M233.8,99.3c-0.6-0.5-1.2-1.3-1.9-2.3c-1.8-2.6-3.7-2.6-3.3-0.3c0.3,1.4,4.5,14.2,6.5,16.3s9.9,6.2,10.6,0
						c0.8-6.2-1.4-20.8-2.6-24.9c-1.2-4.4-2.5-3.5-2.6-2.2c0,0-0.8-1.7-1.4-1.7c-0.7,0-1,1-1,1s-0.3-1.1-0.8-1
						c-0.5,0.1-0.9,0.3-1.1,1c-0.1,0.7-0.2,1.2-0.2,1.2s-0.7-1.4-1.2-1.3c-0.5,0.1-0.9-0.1-0.9,2.1c0,2.2,0.3,7.5,0.2,8.7
						c-0.1,1.2-0.2,3.1-0.2,3.1L233.8,99.3"/>
					<path class="st7" d="M238.9,105.1c0,0-0.4-4.5-2.6-4.8c-2.2-0.3-3-1.1-4.5-3.3c-1.8-2.6-3.7-2.6-3.3-0.3
						c0.3,1.4,4.5,14.2,6.5,16.3s9.9,6.2,10.6,0c0.8-6.2-1.4-20.8-2.6-24.9c-1.3-4.7-3.1-3.4-2.5-1.1c0.6,2.3,1.2,6.3,1.2,6.3"/>
					<path class="st7" d="M233.9,99.3c0,0,0.5-3.9,0.3-7.1c-0.3-3.1-0.3-7,0.3-7.2c0.6-0.2,1.4,0,2,3c0.6,3,1,5.9,1,5.9"/>
					<path class="st7" d="M239.4,93.7c0,0-1.2-8.3-1.4-8.9c-0.3-1-2-1.5-1.9,1.9"/>
					<path class="st8" d="M240.4,86.5c0,0-1.1-4.4-2.4-1.1"/>
				</g>
				<g>
					<g>
						
							<ellipse transform="matrix(0.7338 -0.6794 0.6794 0.7338 -18.9631 194.2876)" class="st6" cx="238.4" cy="121.3" rx="10.7" ry="9.5"/>
						<g>
							<path class="st2" d="M231.8,129.6l0.6-15.5c-0.1,0.1-0.3,0.2-0.4,0.3c-0.2,0.2-0.4,0.4-0.6,0.6l-0.5,13.8
								C231.1,129.1,231.4,129.4,231.8,129.6z"/>
							<path class="st2" d="M235.8,131.3l2.1-19.8c-0.3,0.1-0.7,0.1-1,0.2l-2.1,19.4C235.1,131.1,235.4,131.2,235.8,131.3z"/>
							<path class="st2" d="M240.4,130.9l2.5-19c-0.3-0.1-0.6-0.2-0.9-0.3l-2.6,19.6C239.7,131.1,240.1,131,240.4,130.9z"/>
							<path class="st2" d="M244.6,128.5l2.3-13.5c-0.2-0.3-0.4-0.6-0.7-0.8c-0.1-0.1-0.1-0.1-0.2-0.2l-2.6,15.4
								C243.9,129.1,244.3,128.8,244.6,128.5z"/>
						</g>
					</g>
					<path class="st9" d="M172.4,162.2c0,0,23.5-1.4,33.4-10.7c10-9.3,14.3-15,18-22.7c3.7-7.8,6.6-14.5,15.4-12.1
						c8.8,2.3,12.7,13.9,7.2,32.1c-5.5,18.2-19,35.7-26.5,40c-7.5,4.2-25.4,12.6-25.4,12.6L172.4,162.2z"/>
				</g>
			</g>
			<g>
				<path class="st2" d="M57.5,247.1c0,0-8.6,0-9.6,1.5c-1.1,1.5,3,2.1,6.9,2.2c3.9,0.1,12.1-0.6,12.1-0.6s-5.2,3.7-4.1,5.5
					c1.1,1.8,5.9-1.3,9-3.8c3.1-2.5,7-7.5,7.8-8l-8.8-8.7l-15.3,3.6l-3.8,0.7c0,0-3.4,0.7-3.4,1.2c0,0.5,0.9,1.1,0.9,1.1
					s-1.6,0.8-1.5,1.4c0.1,0.7,1.5,1.2,1.5,1.2s-1.9,0.7-1.7,1.5c0.2,0.9,2,1.5,3.1,1.5C51.7,247.4,57.5,247.1,57.5,247.1z"/>
				<path class="st10" d="M57.5,247.1c0,0-8.6,0-9.6,1.5c-1.1,1.5,3,2.1,6.9,2.2c3.9,0.1,12.1-0.6,12.1-0.6s-5.2,3.7-4.1,5.5
					c1.1,1.8,5.9-1.3,9-3.8c3.1-2.5,7-7.5,7.8-8"/>
				<path class="st10" d="M51.8,247.4c0,0-4.2,0-4.5-1.4s4.4-1.8,9.8-2.3"/>
				<path class="st10" d="M55.6,240.9c0,0-7.8,0.5-8.1,2.2c-0.2,0.9,0.9,1.3,3.4,1.3"/>
				<path class="st10" d="M71.2,235.3c0,0-10.5,2.6-16.5,3.7c-6,1.1-6.3,1.2-6.4,1.9c-0.1,0.7,0.8,1,1.6,0.9"/>
			</g>
		</g>
		<g>
			<g>
				<path class="st1" d="M96.5,298.9c0,0,14,18.2,49.8,20.1c35.8,1.9,54.4-5.1,54.4-5.1s-5.3-55.3-14.1-71.3s-53.1-18.2-65,2.4
					S96.5,298.9,96.5,298.9z"/>
			</g>
			<g>
				<path class="st2" d="M141.9,264.4c2.7,5.7,2.8,11.3,0.3,12.5c-2.5,1.2-6.7-2.4-9.4-8.1c-2.7-5.7-2.8-11.3-0.3-12.5
					C135,255.1,139.2,258.7,141.9,264.4z"/>
				<path class="st2" d="M125.4,281.3c1,6.2-0.4,11.6-3.2,12c-2.8,0.4-5.8-4.2-6.8-10.4c-1-6.2,0.4-11.6,3.2-12
					C121.4,270.4,124.4,275.1,125.4,281.3z"/>
				<path class="st2" d="M147,296.6c-3.1,5.4-7.7,8.7-10.1,7.3c-2.4-1.4-1.8-6.9,1.3-12.4c3.1-5.4,7.7-8.7,10.1-7.3
					C150.8,285.6,150.2,291.1,147,296.6z"/>
				<path class="st2" d="M164.9,304.4c2.3,5.9,2.1,11.4-0.5,12.4c-2.6,1-6.6-2.9-8.9-8.8c-2.3-5.9-2.1-11.4,0.5-12.4
					C158.6,294.6,162.6,298.5,164.9,304.4z"/>
				
					<ellipse transform="matrix(0.2504 -0.9681 0.9681 0.2504 -152.5676 406.8656)" class="st2" cx="186.5" cy="302" rx="11.4" ry="5"/>
				<path class="st2" d="M178.1,283.1c1.3,6.1,0.2,11.6-2.5,12.2c-2.7,0.6-6-3.9-7.4-10.1c-1.3-6.1-0.2-11.6,2.5-12.2
					C173.4,272.4,176.7,276.9,178.1,283.1z"/>
				
					<ellipse transform="matrix(0.9037 -0.4281 0.4281 0.9037 -96.7771 104.4462)" class="st2" cx="183.8" cy="267.4" rx="5" ry="11.4"/>
				<path class="st2" d="M165.2,259.5c-0.7,6.2-3.6,11-6.4,10.7c-2.8-0.3-4.4-5.7-3.7-11.9c0.7-6.2,3.6-11,6.4-10.7
					C164.3,247.9,165.9,253.3,165.2,259.5z"/>
				<path class="st2" d="M130.4,250.1c-3.1,5.4-7.7,8.7-10.1,7.3c-2.4-1.4-1.8-6.9,1.3-12.4s7.7-8.7,10.1-7.3
					C134.1,239.1,133.5,244.7,130.4,250.1z"/>
				<g>
					<path class="st2" d="M110.8,290.9c-2-2-7.2,0-11.6,4.5c-0.8,0.8-1.6,1.7-2.2,2.5c-0.3,0.7-0.4,1.1-0.4,1.1s2.1,2.7,6.7,6.2
						c1-0.7,2.1-1.6,3-2.6C110.8,298.1,112.8,292.9,110.8,290.9z"/>
				</g>
				<g>
					<path class="st2" d="M127.6,303.2c-2.8,0-5,5.1-5,11.4c0,0.1,0,0.1,0,0.2c3,1,6.3,1.8,9.9,2.5c0.1-0.9,0.2-1.8,0.2-2.8
						C132.7,308.3,130.4,303.2,127.6,303.2z"/>
				</g>
			</g>
			<g>
				<g>
					<path d="M96.1,299.4c9.7,12.5,28.6,18,43.5,19.7c14.8,1.7,30.2,1.3,45-0.9c5.5-0.8,11.2-1.7,16.4-3.7c0.7-0.3,0.4-1.5-0.3-1.2
						c-4.6,1.7-9.5,2.6-14.3,3.3c-14.2,2.3-29.1,2.7-43.4,1.5c-15.6-1.3-35.7-6.6-45.9-19.7C96.5,297.9,95.6,298.8,96.1,299.4
						L96.1,299.4z"/>
				</g>
			</g>
		</g>
		<g>
			<g>
				<g>
					<ellipse class="st6" cx="80.9" cy="236.3" rx="10.7" ry="9.5"/>
					<g>
						<path class="st2" d="M70.4,237.9l11-11c-0.2,0-0.3,0-0.5,0c-0.3,0-0.6,0-0.9,0l-9.7,9.7C70.3,237,70.3,237.5,70.4,237.9z"/>
						<path class="st2" d="M72.2,241.8l15-13.1c-0.3-0.2-0.6-0.4-0.9-0.5L71.6,241C71.8,241.3,72,241.5,72.2,241.8z"/>
						<path class="st2" d="M75.9,244.6l14.7-12.3c-0.2-0.3-0.3-0.6-0.5-0.9l-15.2,12.6C75.2,244.3,75.5,244.5,75.9,244.6z"/>
						<path class="st2" d="M80.6,245.8l10.9-8.4c0-0.3,0.1-0.7,0.1-1.1c0-0.1,0-0.1,0-0.2l-12.4,9.6
							C79.7,245.7,80.1,245.7,80.6,245.8z"/>
					</g>
				</g>
				<path class="st9" d="M118,226.8c0,0,2,15.4,16.4,20.9c14.4,5.5,45.2,9.7,57.1,1.8c11.9-7.9,18.6-32.1,17.7-44.8
					c-1-12.7-7.9-27.7-16-34.4c-8.2-6.7-14.5-11.5-22.1-13.8c-7.6-2.3-30.8-5.7-57.4,20.6c-26.6,26.3-37.2,39.8-39.5,48.9
					c-2.3,9.1,3.4,19.2,13.1,17.9S107.4,238.3,118,226.8z"/>
			</g>
			<g>
				<g>
					<g>
						<path d="M77.5,241.4c2.6,3.1,7.8,3.4,11.5,3.1c6.3-0.6,12-3.5,17.2-7c15.1-10.2,27-25.4,34.7-41.8c0.3-0.7-0.7-1.4-1.1-0.6
							c-7.2,15.3-17.9,29.2-31.5,39.3c-4.2,3.2-8.9,6.2-14.1,7.8c-4.5,1.4-12.3,2.5-15.9-1.7C77.8,239.9,76.9,240.7,77.5,241.4
							L77.5,241.4z"/>
					</g>
				</g>
				<g>
					<g>
						<path d="M175,159c20.3,7.9,33.4,28.7,33.4,50.1c0,0.8,1.3,0.8,1.2,0c-0.1-22-13.5-43.1-34.4-51.3
							C174.6,157.5,174.3,158.7,175,159L175,159z"/>
					</g>
				</g>
				<g>
					<g>
						<path d="M207.4,195.8c7.1-2.5,13.9-6.5,19.3-11.7c0.6-0.6-0.3-1.4-0.9-0.9c-5.3,5-11.9,8.9-18.8,11.4
							C206.4,194.9,206.7,196.1,207.4,195.8L207.4,195.8z"/>
					</g>
				</g>
			</g>
			<g>
				<g>
					<path class="st2" d="M152.6,177.4c0,0-3.8-5.8-5.5-5.4c-1.7,0.3-2.3,10.1-1.4,9.6C146.7,181.1,152.6,177.4,152.6,177.4z"/>
					<path class="st2" d="M162.2,177.4c0,0,3.8-5.8,5.5-5.4c1.7,0.3,2.3,10.1,1.4,9.6C168.1,181.1,162.2,177.4,162.2,177.4z"/>
				</g>
				<g>
					<ellipse class="st2" cx="157.4" cy="183.4" rx="13" ry="9.9"/>
				</g>
				<g>
					<path d="M165.8,180.6c0,0.5-0.4,0.8-0.8,0.8c-0.5,0-0.8-0.4-0.8-0.8c0-0.5,0.4-0.8,0.8-0.8
						C165.4,179.8,165.8,180.1,165.8,180.6z"/>
					<g>
						<circle cx="161.5" cy="182.4" r="0.3"/>
						<circle cx="161.6" cy="183.6" r="0.3"/>
						<path d="M162.8,182.9c0,0.2-0.1,0.3-0.3,0.3c-0.2,0-0.3-0.1-0.3-0.3c0-0.2,0.1-0.3,0.3-0.3
							C162.7,182.6,162.8,182.7,162.8,182.9z"/>
					</g>
					<g>
						<circle cx="153.9" cy="182.7" r="0.3"/>
						<path d="M153.5,183.9c0,0.2,0.1,0.3,0.3,0.3c0.2,0,0.3-0.1,0.3-0.3c0-0.2-0.1-0.3-0.3-0.3
							C153.7,183.5,153.5,183.7,153.5,183.9z"/>
						<circle cx="152.9" cy="183.2" r="0.3"/>
					</g>
					<circle cx="149.7" cy="180.8" r="0.8"/>
					<g>
						<path d="M156.4,184.7c-0.2,1,0,3.3,1.4,3.3c1.5,0,1.6-2.2,1.4-3.3c0-0.3-0.4-0.1-0.4,0.1c0.1,0.7,0.1,2.8-1.1,2.8
							c-1.2,0-1.2-2-1.1-2.8C156.9,184.5,156.5,184.4,156.4,184.7L156.4,184.7z"/>
					</g>
					<g>
						<path class="st6" d="M159.1,181.9c0,0.5-0.5,0.8-1.2,0.8c-0.7,0-1.2-0.4-1.2-0.8c0-0.5,0.5-0.8,1.2-0.8
							C158.6,181,159.1,181.4,159.1,181.9z"/>
						<g>
							<path class="st6" d="M157.7,182.3c0,0.6,0,1.2,0,1.9c0,0.3,0.4,0.3,0.4,0c0-0.6,0-1.2,0-1.9
								C158.1,182.1,157.7,182.1,157.7,182.3L157.7,182.3z"/>
						</g>
					</g>
				</g>
			</g>
		</g>
		<g>
			<path class="st3" d="M147.2,118.1c0,0-12.3,4.6-18.8,14.9c-6.4,10.3,1.1,20,6.3,21.8c5.2,1.8,17.2,3.2,23.1-1.3
				c5.9-4.4,3.7-31.1,1.8-34.8C157.8,115.1,148.5,117.1,147.2,118.1z"/>
			<path class="st11" d="M178,106h-9.7c-6.5,0-11.8,6-11.8,13.4v15.1c0,0.4,0,0.8,0.1,1.3c-0.1,0.4-0.2,0.9-0.2,1.4v9.2v0.5v9.2
				c0,3.3,2.7,6.1,6.1,6.1h3.9c3.3,0,6.1-2.7,6.1-6.1V148h5.6c6.5,0,11.8-6,11.8-13.4v-15.1C189.7,112.1,184.4,106,178,106z"/>
			<g>
				<path class="st3" d="M155.6,126.2c0,0,9.6-3.2,12.5-9.3c2.9-6.2,2.2-7.5,2.2-7.5s5.4,7.4,13.9,9.2c7,1.5,6.7,0.5,7.4-1.2
					c0.6-1.5,1.1-11.9-9.6-18.3c-10.7-6.4-22.1-5.8-30,2.2c-7.9,8-6.9,20.5-4.3,23.7C150.3,128.1,153.8,129.9,155.6,126.2z"/>
				
					<ellipse transform="matrix(0.9273 -0.3743 0.3743 0.9273 -24.0767 61.5851)" class="st3" cx="146.5" cy="92.8" rx="16.1" ry="16.1"/>
			</g>
			<g>
				<ellipse class="st2" cx="151.9" cy="129.9" rx="7.8" ry="7.7"/>
				<g>
					<g>
						<path class="st12" d="M156.8,130.9c0.1-1-0.2-2.1-0.7-3c-1-1.9-3-2.5-5.1-2.3c-0.9,0.1-0.9,1.5,0,1.4c1.7-0.1,3.3,0.2,4,1.9
							c0.3,0.6,0.4,1.4,0.4,2.1C155.4,131.8,156.7,131.8,156.8,130.9L156.8,130.9z"/>
					</g>
				</g>
			</g>
			<g>
				<g>
					<circle class="st13" cx="172.4" cy="124.4" r="2.2"/>
					<path class="st13" d="M184.6,124.1c0,1,0.8,1.9,1.9,1.9c1,0,1.9-0.8,1.9-1.9c0-1-0.8-1.9-1.9-1.9
						C185.5,122.2,184.6,123,184.6,124.1z"/>
				</g>
				<g>
					<path class="st14" d="M182.5,133.1c0,0-1.1,3.2-3.4,3.4c-2.3,0.2-4.2-2.4-4.3-4.4L182.5,133.1z"/>
					<g>
						<path class="st13" d="M182,132.9c-0.4,1-1,2.1-1.9,2.7c-2.3,1.4-4.5-1.4-4.7-3.5c-0.2,0.2-0.4,0.4-0.6,0.6
							c2.6,0.3,5.2,0.6,7.7,0.9c0.7,0.1,0.7-1,0-1.1c-2.6-0.3-5.2-0.6-7.7-0.9c-0.3,0-0.6,0.3-0.6,0.6c0.3,2.5,2.2,5.3,5,4.9
							c1.9-0.2,3.2-2.1,3.8-3.8C183.3,132.5,182.2,132.2,182,132.9z"/>
					</g>
				</g>
				<g>
					<path class="st6" d="M162.6,132.5c0,3,2.4,5.5,5.5,5.5c3,0,5.5-2.4,5.5-5.5c0-3-2.4-5.5-5.5-5.5
						C165,127,162.6,129.5,162.6,132.5z"/>
					<path class="st6" d="M188.3,128.8c0.3,0,0.7,0,1,0.1v5.7c0,0.8,0,1.7-0.2,2.5c-0.2,0-0.5,0.1-0.8,0.1c-2.3,0-4.2-1.9-4.2-4.2
						C184.1,130.6,186,128.8,188.3,128.8z"/>
				</g>
				<polygon class="st6" points="180.1,122.2 179.6,129.7 183.2,127.5 				"/>
			</g>
		</g>
	</g>
	<g>
		<g>
			<g>
				<g>
					<g>
						<path class="st2" d="M338,406.5l-1.4-17.3l-17.3,2.5l4.3,17.8C323.6,409.5,338.1,407.8,338,406.5z"/>
						<g>
							<path d="M338.7,406.5c-0.5-5.8-0.9-11.5-1.4-17.3c0-0.5-0.5-0.8-1-0.7c-5.8,0.8-11.5,1.6-17.3,2.5c-0.4,0.1-0.6,0.6-0.5,1
								c1.4,5.9,2.9,11.9,4.3,17.8c0.1,0.3,0.4,0.6,0.7,0.6c2.9-0.3,5.8-0.7,8.6-1.3c1.5-0.3,5.9-0.4,6.5-2.3
								c0.3-0.9-1.2-1.4-1.5-0.4c-0.4,1.3-12,2.6-13.6,2.4c1.1,0.1,0.5,0.7,0.4-0.7c-0.1-1-0.5-2.1-0.8-3.1c-0.7-2.8-1.3-5.6-2-8.4
								c-0.4-1.7-0.8-3.4-1.2-5.1c0.3,1.3-1.1,0.5,0.5,0.8c1,0.1,2.4-0.3,3.4-0.5c4.3-0.6,8.5-1.2,12.8-1.8c-0.3-0.2-0.7-0.5-1-0.7
								c0.5,5.8,0.9,11.5,1.4,17.3C337.3,407.5,338.8,407.5,338.7,406.5z"/>
						</g>
					</g>
					<g>
						<g>
							<path class="st1" d="M341.7,408l6.2,22.5c0,0,1.2,4.1-1.7,4.8c-2.9,0.7-12,4.3-35.8,8.2c-1,0.2-19.5,4.5-8.5-8.1
								c1.7-1.9,18-16.5,18-16.5s-0.1-7.2,0.1-9.5c0.1-1.2,0.1-1.5,4.2-2.2c5.1-0.8,11.3-2,16-1.8C341,405.5,341.2,406,341.7,408z"
								/>
						</g>
						<g>
							<g>
								<g>
									<path d="M323.2,425.9c-2.2-1.2-4.4-2.4-6.7-3.6c-1.3-0.7-2.5,1.3-1.2,2c2.2,1.2,4.4,2.4,6.7,3.6
										C323.3,428.6,324.5,426.6,323.2,425.9L323.2,425.9z"/>
								</g>
							</g>
							<g>
								<g>
									<path d="M318.5,431.5c-2.6-1.6-5.3-3.1-7.9-4.7c-1.3-0.8-2.5,1.3-1.2,2c2.6,1.6,5.3,3.1,7.9,4.7
										C318.6,434.3,319.7,432.3,318.5,431.5L318.5,431.5z"/>
								</g>
							</g>
						</g>
						<path class="st2" d="M328.3,413c-2.4,2.4-2.3,6.3,0.2,8.7c2.4,2.4,6.3,2.3,8.7-0.2c2.4-2.4,2.3-6.3-0.2-8.7
							C334.5,410.5,330.6,410.6,328.3,413z"/>
					</g>
				</g>
				<g>
					<path class="st3" d="M315.7,389.2c0,0-18.1-48.4-20.9-66.5c-2.8-18.1,13.9-58.8,27.3-75.1c13.4-16.4,32-2,36.5,6.3
						c4.5,8.4-4.3,35.2-8.1,40.1c-3.8,4.9-19.5,14.2-22,25.3c-3.8,17.2,5.8,61.2,7.8,66.9C338.3,391.9,316.3,390.6,315.7,389.2z"/>
					<g>
						<path class="st2" d="M343.4,390.7c0.2,1.1-0.6,2.1-1.7,2.3l-28.1,4.1c-1.1,0.2-2.1-0.6-2.3-1.7l-1.1-7.8
							c-0.2-1.1,0.6-2.1,1.7-2.3l28.1-4.1c1.1-0.2,2.1,0.6,2.3,1.7L343.4,390.7z"/>
						<g>
							<path class="st3" d="M342.8,390.7c-0.3,2.6-6.5,2.4-8.2,2.7c-4.1,0.6-8.2,1.2-12.3,1.8c-2.3,0.3-6.1,1.7-8.4,1.2
								c-2.6-0.5-3.8-7.8-2.4-9.6c1.4-1.8,5.5-1.5,7.6-1.9c4.1-0.6,8.2-1.2,12.3-1.8c2.3-0.3,6.1-1.7,8.4-1.2c3,0.6,2.7,6.5,3,9
								c0.1,0.8,1.3,0.5,1.2-0.3c-0.4-2.4,0-6.9-1.6-8.9c-1.2-1.5-3-1-4.5-0.7c-7.9,1.2-15.9,2.3-23.8,3.5c-1.7,0.2-3.6,0.2-4.3,2.1
								c-0.8,1.9,0.3,7.2,1,9c1.9,4.4,11.1,1,14.6,0.5c4.5-0.7,9.1-1.3,13.6-2c2.5-0.4,4.7-0.3,5-3.3
								C344.1,389.9,342.9,389.9,342.8,390.7z"/>
						</g>
					</g>
				</g>
			</g>
			<g>
				<path class="st2" d="M432,255.1c-0.3-4.9-1.9-25.3-6.5-25.7c-4.6-0.4-10.8,2.9-10.8,2.9s-1.8,13.1-1.8,16.7
					c0,3.6,0.4,5.4,1.8,4.4c1.4-1,2.8-6.7,2.8-6.7s1.8,13.8,3.5,14.6c1.5,0.8,2.1,0.2,1.5-7.3c0.3,1.9,0.7,4.3,1.2,5.4
					c0.9,2.1,0.8,2.5,1.6,2.3c0.7-0.1,0.8-3.5,0.8-4.5c0-0.9,0.2,0.5,0.4,1.3c0.2,0.9,0.9,3,1.4,3.2c0.6,0.2,0.9-1,0.9-1.9
					c0-0.9-0.1-4.4-0.1-4.4s0,0,0,0c0.4,2.5,1,4.9,1.8,5.1C431.9,260.9,432.3,260,432,255.1z"/>
				<path class="st10" d="M422.3,251.6c1,9.8,0.4,10.6-1.3,9.8c-1.7-0.8-3.5-14.6-3.5-14.6s-1.4,5.7-2.8,6.7c-1.4,1-1.8-0.8-1.8-4.4
					c0-3.6,1.8-16.7,1.8-16.7s6.2-3.3,10.8-2.9c4.6,0.4,6.2,20.9,6.5,25.7c0.3,4.9-0.1,5.8-1.5,5.5c-1.4-0.3-2-6.8-2.6-9.7"/>
				<path class="st10" d="M425.5,251c0,0,1.2,9.6,0,10.7c-1.2,1.1-1.9-2.7-3-6.8"/>
				<path class="st10" d="M428.4,253.6c0,0,1,6.8,0,8c-1,1.2-2.2-3.3-2.5-6.1"/>
			</g>
			<g>
				<g>
					<path class="st2" d="M270.1,88.3c-1.7-0.2-5.4,8.7-5.4,8.7c-0.1,0-0.2,0.1-0.3,0.1c-0.2-1-0.4-2-0.5-3
						c-0.2-1.9-0.9-9.3-1.1-11.6c-0.2-2.3-0.8-2.4-1.6-2.5c-0.8-0.1-1.3,1.8-1.3,1.8l-0.5-0.8c0,0-0.5-0.4-1.4-0.3s-1.1,1.7-1.1,1.7
						l-0.8-0.8c0,0-0.7,0.1-1.4,0.7c-0.2,0.2-0.5,1.6-0.7,3.2l-0.1-0.2c-0.6-0.8-1.8-0.3-2.3,2.8c-0.6,3.2-0.1,19.3,0.9,23.7
						c1,4.4,11.9,0.6,13.1-0.3c1.2-0.9,2.7-6.1,4.4-13.6C271.8,90.7,271.8,88.5,270.1,88.3z"/>
					<path class="st7" d="M260.1,102.5c0,0-0.3-3.3,4.6-5.5c0,0,3.7-8.9,5.4-8.7c1.7,0.2,1.7,2.3,0,9.8c-1.7,7.5-3.2,12.7-4.4,13.6
						s-12.1,4.7-13.1,0.3c-1-4.4-1.4-20.5-0.9-23.7c0.6-3.2,1.8-3.6,2.3-2.8"/>
					<path class="st7" d="M253.3,94.8c0,0,0.9-11.6,1.6-12.4c0.9-1,2-0.7,2.1,1"/>
					<path class="st7" d="M256.3,94.8c0,0,0-12.9,1.5-13.8c1.5-0.8,1.8,0,2,1.6"/>
					<path class="st7" d="M258.9,94.3c0,0-0.1-12.9,1.9-13.9c2-1,1.9,1.4,2.1,4.3c0.2,2.9,1.3,12.4,1.3,12.4"/>
				</g>
				<g>
					<path class="st2" d="M312.1,186.2c0,0-28.9-1-42.7-19.5s-18.9-40.8-16.9-50.6c2-9.8,11.3-10.3,15-7.8
						c3.7,2.5,12.4,25.1,23.2,31.6c10.7,6.5,19.8,7.5,36.3,6.7C343.4,145.9,319.6,189.6,312.1,186.2z"/>
					<path class="st1" d="M269.4,110.7c-0.8-1.1-1.4-2-2-2.3c-3.7-2.5-13-2-15,7.8c-0.1,0.6-0.2,1.2-0.3,1.8
						C254.8,115.7,260.1,112.1,269.4,110.7z"/>
					<g>
						<path d="M312.1,185.6c-13.7-0.5-29.1-5.6-38.9-15.4c-8.6-8.7-14.4-21.3-17.8-32.9c-2.2-7.5-6.1-21.7,1.4-27.6
							c2.9-2.3,7.9-3.1,10.8-0.4c2.5,2.2,4,6.2,5.6,9.1c4.1,7.3,8.5,15.6,15.3,20.9c6.5,5,15,7.3,23.1,8c5.3,0.4,10.7-0.5,15.9,0
							c3.1,0.3,4.3,2.3,4.5,5.3c0.3,7-3.7,14.6-7.1,20.5c-1.7,3-7.8,14.3-12.5,12.6c-0.7-0.3-1.1,0.9-0.3,1.2
							c4,1.4,8.3-4.9,10.2-7.4c4.5-6.1,8.2-13.2,10.1-20.5c1-3.8,2.2-10.3-2.4-12.3c-3.9-1.7-10-0.2-14.1-0.3
							c-6.6-0.2-13.1-1.1-19.2-3.8c-11.1-4.9-16.8-14.9-22.5-25.1c-3-5.4-5.4-11.7-12.7-10.8c-9.2,1.2-10.4,11.2-9.6,18.7
							c1.2,12,5.9,23.8,12.1,34.1c6.7,11.2,15.5,18.9,27.9,23.3c6.5,2.3,13.6,3.9,20.5,4.2C312.9,186.9,312.9,185.7,312.1,185.6z"/>
					</g>
				</g>
			</g>
			<g>
				<g>
					<g>
						<path class="st2" d="M432.9,315.2l-17.3,2.1l3.1,17.2l17.7-5C436.5,329.4,434.2,315,432.9,315.2z"/>
						<g>
							<path d="M432.9,314.4c-5.8,0.7-11.5,1.4-17.3,2.1c-0.5,0.1-0.8,0.4-0.7,1c1,5.7,2.1,11.5,3.1,17.2c0.1,0.4,0.6,0.6,1,0.5
								c5.9-1.7,11.8-3.3,17.7-5c0.4-0.1,0.6-0.5,0.5-1c-0.5-2.9-1-5.9-1.6-8.8c-0.3-1.4-0.6-5.5-2.5-6c-1-0.3-1.4,1.2-0.4,1.5
								c0.9,0.3,1.6,6.1,1.8,6.9c0.4,2.2,0.9,4.4,1.2,6.6c-0.1-0.7,1-0.4-0.3-0.5c-0.8,0-2,0.6-2.8,0.8c-2.7,0.8-5.5,1.5-8.2,2.3
								c-1.8,0.5-3.9,0.8-5.6,1.6c1.1-0.5,0.3,1.2,0.6-0.1c0.2-0.8-0.5-2.5-0.6-3.2c-0.8-4.4-1.6-8.8-2.4-13.2
								c-0.2,0.3-0.5,0.7-0.7,1c5.8-0.7,11.5-1.4,17.3-2.1C433.9,315.8,433.9,314.3,432.9,314.4z"/>
						</g>
					</g>
					<g>
						<g>
							<path class="st1" d="M434.3,311.3l22.3-7.1c0,0,4-1.4,4.9,1.5s4.7,11.9,9.5,35.5c0.2,0.9,5.2,19.3-7.7,8.8
								c-2-1.6-17.1-17.4-17.1-17.4s-7.2,0.4-9.5,0.3c-1.2-0.1-1.6-0.1-2.4-4.1c-1-5.1-2.5-11.3-2.4-15.9
								C431.9,312.2,432.3,311.9,434.3,311.3z"/>
						</g>
						<g>
							<g>
								<g>
									<path d="M452.9,329.2c-1.1,2.3-2.2,4.5-3.3,6.8c-0.7,1.3,1.4,2.5,2,1.2c1.1-2.3,2.2-4.5,3.3-6.8
										C455.6,329,453.6,327.8,452.9,329.2L452.9,329.2z"/>
								</g>
							</g>
							<g>
								<g>
									<path d="M458.7,333.7c-1.5,2.7-2.9,5.4-4.4,8.1c-0.7,1.3,1.3,2.5,2,1.2c1.5-2.7,2.9-5.4,4.4-8.1
										C461.4,333.5,459.4,332.3,458.7,333.7L458.7,333.7z"/>
								</g>
							</g>
						</g>
						<path class="st2" d="M439.8,324.6c2.5,2.3,6.4,2,8.7-0.5c2.3-2.5,2-6.4-0.5-8.7c-2.5-2.3-6.4-2-8.7,0.5
							C437.1,318.4,437.3,322.3,439.8,324.6z"/>
					</g>
				</g>
				<g>
					<g>
						<path class="st3" d="M338,243.6c0,0-1.6,52.7,8,81.1c9.6,28.5,23.2,29,42.7,22.2c19.5-6.8,26.1-8.7,26.1-8.7l-4.3-20.6
							c0,0-14.2,4.1-23.4,2.3c-9.1-1.8,0.1-51.5,0-59.1c-0.1-7.6,0.5-19.6-5.7-25C375.1,230.4,336.4,236.6,338,243.6z"/>
					</g>
					<g>
						<g>
							<g>
								<path d="M337.3,243.6c-0.6,21.1,0.2,42.7,3.8,63.5c2.1,12.6,5.5,27.3,14.5,37c6.9,7.4,16.3,8,25.7,5.7
									c11.4-2.8,22.4-7.7,33.7-11c0.8-0.2,0.4-1.4-0.3-1.2c-8.5,2.5-16.8,5.5-25.2,8.4c-10.3,3.6-22.5,6.9-31.5-1.4
									c-10-9.2-13.4-25-15.6-37.9c-2.2-13.2-3.2-26.5-3.6-39.9c-0.3-7.8-0.4-15.5-0.1-23.3C338.6,242.8,337.4,242.8,337.3,243.6
									L337.3,243.6z"/>
							</g>
						</g>
						<g>
							<g>
								<path d="M366.5,247.6c0.6,9.8,11,16.9,19,20.3c0.7,0.3,1.4-0.8,0.6-1.1c-7.5-3.3-17.8-9.9-18.3-19.3
									C367.7,246.8,366.5,246.8,366.5,247.6L366.5,247.6z"/>
							</g>
						</g>
					</g>
					<g>
						<path class="st2" d="M416.3,309.8c1.1-0.2,2.1,0.6,2.3,1.7l4.1,28.1c0.2,1.1-0.6,2.1-1.7,2.3l-7.8,1.1
							c-1.1,0.2-2.1-0.6-2.3-1.7l-4.1-28.1c-0.2-1.1,0.6-2.1,1.7-2.3L416.3,309.8z"/>
						<g>
							<path class="st3" d="M416.3,310.4c2.6,0.3,2.4,6.5,2.7,8.2c0.6,4.1,1.2,8.2,1.8,12.3c0.3,2.3,1.7,6.1,1.2,8.4
								c-0.5,2.6-7.8,3.8-9.6,2.4c-1.8-1.4-1.5-5.5-1.9-7.6c-0.6-4.1-1.2-8.2-1.8-12.3c-0.3-2.3-1.7-6.1-1.2-8.4c0.6-3,6.5-2.7,9-3
								c0.8-0.1,0.5-1.3-0.3-1.2c-2.4,0.4-6.9,0-8.9,1.6c-1.5,1.2-1,3-0.7,4.5c1.2,7.9,2.3,15.9,3.5,23.8c0.2,1.7,0.2,3.6,2.1,4.3
								c1.9,0.8,7.2-0.3,9-1c4.4-1.9,1-11.1,0.5-14.6c-0.7-4.5-1.3-9.1-2-13.6c-0.4-2.5-0.3-4.7-3.3-5
								C415.5,309,415.5,310.3,416.3,310.4z"/>
						</g>
					</g>
				</g>
			</g>
		</g>
		<g>
			<g>
				<g>
					<path class="st2" d="M383.3,183.5c0,0,6.2,55.9,3.2,62.3c-3,6.4-24.7,11-46,9.5s-26.7-9.2-30.8-25c-4.1-15.8-4-40.4-1.1-59.9
						c2.9-19.5,17.8-26.8,17.8-26.8s19.6-9.2,48.3-3c28.7,6.1,53.3,29.2,59,43.2c5.7,14,4,33.3,1.7,41.3c-2.3,8.1-7.2,10-14.3,10.8
						c-7.1,0.8-12.6-3.2-16.8-19.5c-4.2-16.3-11.7-32.7-35.2-39.2"/>
					<g>
						<path class="st12" d="M382.6,183.5c1,9.2,1.9,18.5,2.7,27.7c0.6,6.9,1.1,13.7,1.3,20.6c0.1,3.9,1.1,9.8-0.6,13.5
							c-1.5,3.5-7,5.1-10.2,6.1c-5.5,1.7-11.2,2.5-16.9,3c-11,0.9-24.1,1.4-34.4-3.3c-16.3-7.5-17.1-32.6-17.4-47.8
							c-0.4-19.2-0.9-43.9,15.8-56.8c7.7-5.9,19.1-7.1,28.3-7.4c23.3-1,45.5,7.4,63.2,22.3c6.5,5.4,12.7,11.7,16.8,19.1
							c5,8.8,5.9,19.8,5.4,29.7c-0.4,10.2-1.6,22.6-13.5,24.7c-12,2.2-15.8-9.1-18.5-18.7c-2.3-8.5-5.3-16.9-10.9-24
							c-6.3-8-15.1-12.8-24.8-15.7c-0.8-0.2-1.1,1-0.3,1.2c11.9,3.5,21.9,10.2,28.1,21.2c5.2,9.2,6,19.9,10.8,29.2
							c2.8,5.3,7,8.9,13.3,8.4c8.3-0.7,13.4-4.9,15.4-13c4.3-17.7,2-37.8-9.9-52c-14.7-17.4-36.3-29.8-58.9-32.8
							c-13-1.8-29.5-1.7-41.6,4.4c-15,7.6-18.2,25.1-19.4,40.2c-1,12.5-1.1,25.2,0.7,37.6c1.1,8.1,2.9,17.3,7.8,24.1
							c4.5,6.4,11.8,9,19.3,10.2c12.3,1.9,25.5,1.4,37.6-1.4c5.5-1.3,14.5-3.2,15.6-9.9c1.1-6.7,0.2-14.1-0.2-20.7
							c-0.8-13.2-2.1-26.5-3.5-39.7C383.8,182.7,382.5,182.7,382.6,183.5L382.6,183.5z"/>
					</g>
				</g>
				<g>
					<path class="st1" d="M349.1,248.6c-17.3,0.1-28.2-3-34.9-6.2c4.3,7.7,11.4,11.8,26.3,12.9c21.3,1.6,43.1-3.1,46-9.5
						c0.2-0.5,0.4-1.2,0.5-2.2C379.7,246,367.7,248.5,349.1,248.6z"/>
					<g>
						<path class="st1" d="M408.8,228.8c3.4,6,7.4,7.6,12.2,7.1c6.6-0.8,11.3-2.5,13.8-9.3C421.7,229.8,413.5,229.6,408.8,228.8z"/>
					</g>
				</g>
				<g>
					<g>
						<path class="st12" d="M382.6,183.5c1,9.2,1.9,18.5,2.7,27.7c0.6,6.9,1.1,13.7,1.3,20.6c0.1,3.9,1.1,9.8-0.6,13.5
							c-1.5,3.5-7,5.1-10.2,6.1c-5.5,1.7-11.2,2.5-16.9,3c-11,0.9-24.1,1.4-34.4-3.3c-16.3-7.5-17.1-32.6-17.4-47.8
							c-0.4-19.2-0.9-43.9,15.8-56.8c7.7-5.9,19.1-7.1,28.3-7.4c23.3-1,45.5,7.4,63.2,22.3c6.5,5.4,12.7,11.7,16.8,19.1
							c5,8.8,5.9,19.8,5.4,29.7c-0.4,10.2-1.6,22.6-13.5,24.7c-12,2.2-15.8-9.1-18.5-18.7c-2.3-8.5-5.3-16.9-10.9-24
							c-6.3-8-15.1-12.8-24.8-15.7c-0.8-0.2-1.1,1-0.3,1.2c11.9,3.5,21.9,10.2,28.1,21.2c5.2,9.2,6,19.9,10.8,29.2
							c2.8,5.3,7,8.9,13.3,8.4c8.3-0.7,13.4-4.9,15.4-13c4.3-17.7,2-37.8-9.9-52c-14.7-17.4-36.3-29.8-58.9-32.8
							c-13-1.8-29.5-1.7-41.6,4.4c-15,7.6-18.2,25.1-19.4,40.2c-1,12.5-1.1,25.2,0.7,37.6c1.1,8.1,2.9,17.3,7.8,24.1
							c4.5,6.4,11.8,9,19.3,10.2c12.3,1.9,25.5,1.4,37.6-1.4c5.5-1.3,14.5-3.2,15.6-9.9c1.1-6.7,0.2-14.1-0.2-20.7
							c-0.8-13.2-2.1-26.5-3.5-39.7C383.8,182.7,382.5,182.7,382.6,183.5L382.6,183.5z"/>
					</g>
				</g>
			</g>
			<g>
				<g>
					<path class="st1" d="M352.7,145.4c0.2-0.8,0.8-1,1.4-0.5l5.7,5.1c0.6,0.5,0.5,1.2-0.3,1.4l-7.3,2.4c-0.8,0.3-1.3-0.2-1.1-1
						L352.7,145.4z"/>
				</g>
				<g>
					<path class="st1" d="M319.9,160.8c0.2-0.8,0.8-1,1.4-0.5l5.7,5.1c0.6,0.5,0.5,1.2-0.3,1.4l-7.3,2.4c-0.8,0.3-1.3-0.2-1.1-1
						L319.9,160.8z"/>
				</g>
				<g>
					<path class="st1" d="M262.7,117.8c0.2-0.8,0.8-1,1.4-0.5l5.7,5.1c0.6,0.5,0.5,1.2-0.3,1.4l-7.3,2.4c-0.8,0.3-1.3-0.2-1.1-1
						L262.7,117.8z"/>
				</g>
				<g>
					<path class="st1" d="M267.5,138.6c0.8-0.3,1.3,0.1,1.1,0.9l-1.3,7.6c-0.1,0.8-0.8,1-1.4,0.5l-5.9-4.9c-0.6-0.5-0.5-1.2,0.2-1.5
						L267.5,138.6z"/>
				</g>
				<g>
					<path class="st1" d="M286.1,142.9c0.8-0.3,1.3,0.1,1.1,0.9l-1.3,7.6c-0.1,0.8-0.8,1-1.4,0.5l-5.9-4.9c-0.6-0.5-0.5-1.2,0.2-1.5
						L286.1,142.9z"/>
				</g>
				<g>
					<path class="st1" d="M292.8,166.2c0.8,0.1,1.1,0.7,0.6,1.3l-4.5,6.2c-0.5,0.7-1.1,0.6-1.5-0.2l-3.1-7c-0.3-0.7,0.1-1.3,0.9-1.2
						L292.8,166.2z"/>
				</g>
				<g>
					<path class="st1" d="M311,154.9c0.8,0.1,1.1,0.7,0.6,1.3l-4.5,6.2c-0.5,0.7-1.1,0.6-1.5-0.2l-3.1-7c-0.3-0.7,0.1-1.3,0.9-1.2
						L311,154.9z"/>
				</g>
				<g>
					<path class="st1" d="M346.7,169c0.5-0.7,1.1-0.6,1.5,0.2l3.1,7c0.3,0.7-0.1,1.3-0.9,1.2l-7.6-0.8c-0.8-0.1-1.1-0.7-0.6-1.3
						L346.7,169z"/>
				</g>
				<g>
					<path class="st1" d="M318.7,186.4c0.1-0.8,0.8-1,1.4-0.5l5.9,4.9c0.6,0.5,0.5,1.2-0.2,1.5l-7.2,2.7c-0.8,0.3-1.3-0.1-1.1-0.9
						L318.7,186.4z"/>
				</g>
				<g>
					<path class="st1" d="M319.9,215.6c0.5-0.6,1.2-0.5,1.4,0.3l2.5,7.2c0.3,0.8-0.2,1.3-1,1.1l-7.5-1.5c-0.8-0.2-1-0.8-0.5-1.4
						L319.9,215.6z"/>
				</g>
				<g>
					<path class="st1" d="M337.7,199.2c0.4-0.7,1.1-0.7,1.5,0l3.8,6.6c0.4,0.7,0.1,1.3-0.7,1.3l-7.7,0c-0.8,0-1.1-0.6-0.7-1.3
						L337.7,199.2z"/>
				</g>
				<g>
					<path class="st1" d="M360,185.6c0.4-0.7,1.1-0.7,1.5,0l3.8,6.6c0.4,0.7,0.1,1.3-0.7,1.3l-7.7,0c-0.8,0-1.1-0.6-0.7-1.3
						L360,185.6z"/>
				</g>
				<g>
					<path class="st1" d="M371,161.9c0.4-0.7,1.1-0.7,1.5,0l3.8,6.6c0.4,0.7,0.1,1.3-0.7,1.3l-7.7,0c-0.8,0-1.1-0.6-0.7-1.3
						L371,161.9z"/>
				</g>
				<g>
					<path class="st1" d="M391.6,149.9c0.4-0.7,1.1-0.7,1.5,0l3.8,6.6c0.4,0.7,0.1,1.3-0.7,1.3l-7.7,0c-0.8,0-1.1-0.6-0.7-1.3
						L391.6,149.9z"/>
				</g>
				<g>
					<path class="st1" d="M391.8,177.5c-0.1-0.8,0.4-1.2,1.1-0.9l7.2,2.7c0.8,0.3,0.9,0.9,0.2,1.5l-5.9,4.9
						c-0.6,0.5-1.2,0.3-1.4-0.5L391.8,177.5z"/>
				</g>
				<g>
					<path class="st1" d="M417.3,182.2c-0.1-0.8,0.4-1.2,1.1-0.9l7.2,2.7c0.8,0.3,0.9,0.9,0.2,1.5l-5.9,4.9
						c-0.6,0.5-1.2,0.3-1.4-0.5L417.3,182.2z"/>
				</g>
				<g>
					<path class="st1" d="M406.7,201.4c-0.1-0.8,0.4-1.2,1.1-0.9l7.2,2.7c0.8,0.3,0.9,0.9,0.2,1.5l-5.9,4.9
						c-0.6,0.5-1.2,0.3-1.4-0.5L406.7,201.4z"/>
				</g>
				<g>
					<path class="st1" d="M426.8,215.3c0.7-0.5,1.3-0.2,1.4,0.6l0.9,7.6c0.1,0.8-0.4,1.2-1.2,0.9l-7-3.1c-0.7-0.3-0.8-1-0.2-1.5
						L426.8,215.3z"/>
				</g>
				<g>
					<path class="st1" d="M373.2,203.9c0.3-0.8,1-0.8,1.5-0.2l4.7,6c0.5,0.6,0.3,1.3-0.6,1.4l-7.6,1.1c-0.8,0.1-1.2-0.4-0.9-1.2
						L373.2,203.9z"/>
				</g>
				<g>
					<path class="st1" d="M367.5,231.1c0.3-0.8,1-0.8,1.5-0.2l4.7,6c0.5,0.6,0.3,1.3-0.6,1.4l-7.6,1.1c-0.8,0.1-1.2-0.4-0.9-1.2
						L367.5,231.1z"/>
				</g>
				<g>
					<path class="st1" d="M352,216.8c0.5-0.6,1.2-0.5,1.4,0.3l2.5,7.2c0.3,0.8-0.2,1.3-1,1.1l-7.5-1.5c-0.8-0.2-1-0.8-0.5-1.4
						L352,216.8z"/>
				</g>
				<g>
					<path class="st1" d="M333.3,234.7c0.4-0.7,1.1-0.7,1.5,0.1l3.5,6.8c0.4,0.7,0,1.3-0.8,1.2l-7.7-0.3c-0.8,0-1.1-0.6-0.7-1.3
						L333.3,234.7z"/>
				</g>
				<ellipse class="st1" cx="334.5" cy="142" rx="9.8" ry="9.1"/>
			</g>
		</g>
		<g>
			<g>
				<path class="st3" d="M341.3,126.3c0,0,2.6-0.3,3.7-1.4c1.1-1.1-0.6-8.5-1.4-8.2C342.8,117.1,341.3,126.1,341.3,126.3z"/>
				<g>
					<path class="st2" d="M341.2,126.9c1.9-2.3,3-5.3,2.9-8.5l-0.6-13.9c-0.3-6.8-6.1-12.1-12.9-11.8l-10.2,0.4
						c-6.8,0.3-12.1,6.1-11.8,12.9l0.6,13.9c0.3,6.8,6.1,12.1,12.9,11.8l3.9-0.2l0.3,7.7c0.2,3.6,3.2,6.4,6.9,6.3l2.3-0.1
						c3.6-0.2,6.4-3.2,6.3-6.9l-0.5-10.8C341.3,127.5,341.3,127.2,341.2,126.9z"/>
					<g>
						<path d="M341.8,127.2c3.7-5,2.9-10.4,2.7-16.2c-0.2-5.2,0.1-10.4-3.6-14.5c-4.1-4.5-9.3-4.4-14.8-4.1
							c-5.4,0.2-10.6,0.1-14.6,4.4c-3.8,4.2-3.5,9.1-3.2,14.3c0.2,5-0.4,11,2.4,15.4c1.5,2.3,3.7,4.1,6.2,5.1c1.5,0.6,3,0.8,4.6,0.9
							c1,0,3.5-0.6,4.3-0.1c-0.8-0.4-0.2,0.3-0.2,1.4c0,1.5,0.1,3,0.2,4.5c0.2,2.4,0.6,4.5,2.4,6.2c3.9,3.6,11.9,2.3,13.9-2.8
							c1.6-4,0.4-10.5-0.1-14.6c-0.1-0.8-1.3-0.8-1.2,0c0.3,2.1,0.3,4.2,0.3,6.3c0.1,2.3,0.9,6.9-0.6,8.8
							c-4.1,5.2-12.4,3.2-13.3-3.3c-0.3-2.3-0.2-4.8-0.3-7.2c0-0.3-0.3-0.6-0.6-0.6c-5.5,0.2-11,0-14.3-5.2
							c-2.2-3.4-1.9-7.4-2.1-11.3c-0.1-2.8-0.4-5.6-0.4-8.4c0.1-7.1,4.9-11.8,11.9-12.3c9.1-0.7,20.6-1.2,21.8,10.9
							c0.7,6.8,2,16.3-2.2,22C340.2,127.2,341.3,127.8,341.8,127.2z"/>
					</g>
				</g>
			</g>
			<path class="st3" d="M329.3,94.3c0,0-2.2,4.7-8.1,7.6c-5.9,2.9-13.6,5.8-17.2,0.7c-3.7-5,0.8-8.3,0.8-8.3s-5-6.8-1.7-15
				c3.2-8.2,17-14.2,27.7-10.2c10.7,4,11.6,11,11.6,11s4.7-2.3,11.8,4.3c7.1,6.5,4.3,21.4,1.2,26.7c-1.5,2.6-8.8,12.8-10.4,14
				c-1,0.7-0.2-2.5-0.2-5.1c0-1.7-0.7-3.2-0.7-3.2l0-9.2C344,107.5,330.9,107.1,329.3,94.3z"/>
			<g>
				
					<ellipse transform="matrix(0.1598 -0.9872 0.9872 0.1598 182.3669 440.3113)" class="st2" cx="349.8" cy="113" rx="8.6" ry="8.6"/>
				<g>
					<g>
						<path d="M355.9,108c5.9,8-4.7,17.2-11.8,10.4c-0.6-0.6-1.5,0.3-0.9,0.9c8.1,7.8,20.6-2.7,13.8-11.9
							C356.5,106.7,355.4,107.4,355.9,108L355.9,108z"/>
					</g>
				</g>
				<g>
					<g>
						<path class="st12" d="M346,114.4c-0.1-0.8,0-1.6,0.3-2.3c0.7-1.8,2.4-2.3,4.2-2.2c1,0,1-1.5,0-1.6c-2.2-0.1-4.5,0.6-5.5,2.8
							c-0.5,1-0.7,2.2-0.6,3.4C344.5,115.5,346.1,115.5,346,114.4L346,114.4z"/>
					</g>
				</g>
			</g>
			<g>
				<g>
					<path class="st13" d="M329.2,108.3c0.1,1.3-0.9,2.3-2.2,2.4c-1.3,0.1-2.3-0.9-2.4-2.2c-0.1-1.3,0.9-2.3,2.2-2.4
						C328.1,106,329.1,107,329.2,108.3z"/>
					<path class="st13" d="M314.1,108.6c0,1.1-0.8,2-1.9,2c-1.1,0-2-0.8-2-1.9c0-1.1,0.8-2,1.9-2
						C313.1,106.7,314.1,107.5,314.1,108.6z"/>
				</g>
				<g>
					<path class="st14" d="M316.7,117.9c0,0,1.3,3.3,3.8,3.4c2.5,0.1,4.3-2.7,4.3-4.8L316.7,117.9z"/>
					<g>
						<path class="st13" d="M316.1,118.1c0.7,1.8,2.1,3.7,4.2,3.9c2.9,0.3,4.9-2.8,5.1-5.4c0-0.4-0.4-0.7-0.8-0.6
							c-2.7,0.4-5.4,0.9-8.1,1.3c-0.8,0.1-0.4,1.3,0.3,1.2c2.7-0.4,5.4-0.9,8.1-1.3c-0.3-0.2-0.5-0.4-0.8-0.6c-0.1,2.1-2,5-4.5,4
							c-1.1-0.5-2-1.9-2.4-2.8C317,117,315.8,117.3,316.1,118.1z"/>
					</g>
				</g>
				<polygon class="st6" points="317.9,106.5 318.7,114.3 314.9,112.2 				"/>
				<g>
					
						<ellipse transform="matrix(0.6808 -0.7325 0.7325 0.6808 20.4967 280.3151)" class="st6" cx="331.8" cy="116.6" rx="5.7" ry="5.7"/>
					<path class="st6" d="M310.6,113.4c-0.3,0-0.7,0.1-1,0.2l0.3,5.9c0,0.9,0.2,1.7,0.4,2.6c0.2,0,0.5,0,0.7,0
						c2.4-0.1,4.3-2.1,4.2-4.5C315,115.2,313,113.3,310.6,113.4z"/>
				</g>
			</g>
		</g>
	</g>
</g>
</svg>
