<?xml version="1.0" encoding="utf-8"?>
<!-- Generator: Adobe Illustrator 25.1.0, SVG Export Plug-In . SVG Version: 6.00 Build 0)  -->
<svg version="1.1" id="Layer_1" xmlns="http://www.w3.org/2000/svg" xmlns:xlink="http://www.w3.org/1999/xlink" x="0px" y="0px"
	 viewBox="0 0 438 438" style="enable-background:new 0 0 438 438;" xml:space="preserve">
<style type="text/css">
	.st0{fill:#88FFDA;}
</style>
<path class="st0" d="M216.9,438c-12.8,0-25.5-1.3-38-3.8c-37.6-7.5-71.8-25.8-98.9-52.9L62.7,364c-2.3-2.3-3-5.8-1.8-8.9
	c1.3-3,4.2-5,7.5-5h14.3c-20.4-25.4-33.6-56.2-37.7-88.7l-1-8c-0.3-2.6,0.6-5.2,2.5-7c1.9-1.8,4.6-2.5,7.1-2l22.3,4.5
	c-20.1-34.6-22.8-76.7-6.9-113.7c1.2-2.7,3.8-4.6,6.7-4.9c2.9-0.3,5.9,1.1,7.5,3.6l1.6,2.4c1.8-29.1,14-56.1,34.7-76.9
	c2.1-2.1,5.1-2.9,7.9-2.1c2.8,0.8,5,3,5.7,5.9l2.7,10.6c15.9-29.1,38.6-53.9,66.3-72.4c2.7-1.8,6.3-1.8,9,0l7.6,5.1
	c22.7,15.2,39.7,37.6,48.3,63.3l6.1-9.1c1.5-2.2,3.9-3.6,6.6-3.6c2.6-0.2,5.2,1.1,6.7,3.2c15.4,20.5,24.4,45.5,25.9,71.1
	c5.3-4.2,8.3-10.6,8.3-17.4c0-3.7,2.5-6.9,6.1-7.9c3.6-1,7.3,0.6,9.2,3.8l8,14c14.9,26.1,21.5,56.4,18.8,86.3
	c4.7-1.5,9.1-4.1,12.6-7.6l4.8-4.8c2.4-2.4,6.1-3.1,9.2-1.6c3.1,1.5,5,4.7,4.6,8.2l-4.1,40.9c-2.3,22.8-9.6,44.6-21.3,64.1h9.1
	c2.8,0,5.4,1.5,6.9,3.9c1.5,2.4,1.6,5.4,0.4,7.9l-21.6,43.1c-7.8,15.6-18.6,29.2-32,40.4l-1,0.7c-20.1,16.8-44.9,27.1-71.4,29.5
	l-24.9,2.3C228.5,437.7,222.7,438,216.9,438z M88.1,366.3l3.4,3.4c24.8,24.8,56.1,41.6,90.6,48.5h0c16.7,3.4,33.8,4.3,50.8,2.7
	l24.9-2.3c23.2-2.1,44.9-11.1,62.7-26l1-0.7c11.4-9.5,20.7-21.3,27.5-34.9l15.7-31.4h-11.3c-3.1,0-5.9-1.7-7.3-4.5
	c-1.4-2.8-1.1-6.1,0.8-8.5c15.1-20.1,24.4-44,26.9-69l2.1-21.4c-6.9,3.7-14.7,5.7-22.5,5.7c-2.4,0-4.7-1.1-6.2-2.9
	c-1.6-1.8-2.2-4.2-1.8-6.6c4.8-28.7-0.2-58.5-14.1-84c-2.9,4.6-6.7,8.5-11.3,11.6l-10.9,7.3c-2.5,1.7-5.7,1.8-8.4,0.4
	c-2.6-1.4-4.3-4.2-4.3-7.2v-8.1c0-20.6-5.7-41-16.3-58.6l-9.5,14.3c-1.9,2.8-5.2,4.1-8.5,3.4c-3.3-0.7-5.8-3.3-6.3-6.6
	C251,62.1,234.3,36.2,210,20l-3.1-2c-28.5,20.2-50.8,47.7-64.6,79.9l-1.3,3c-1.4,3.2-4.7,5.1-8.1,4.9c-3.5-0.3-6.4-2.7-7.2-6.1
	l-4.4-17.4c-13.2,17.7-20.3,39-20.3,61.5v19.1c0,3.6-2.4,6.8-5.8,7.8c-3.4,1-7.1-0.3-9.1-3.3l-7.2-10.8c-7.9,29.4-3.3,61,13,87.1
	l7.8,12.6c1.7,2.8,1.6,6.3-0.2,8.9c-1.8,2.7-5.1,4-8.3,3.4l-29.6-5.9c4.9,33.9,20.9,65.7,45.1,89.9c2.3,2.3,3,5.8,1.8,8.9
	c-1.3,3-4.2,5-7.5,5H88.1z"/>
<path class="st0" d="M223.1,398.9h-23.4c-22.9,0-45.8-2.8-68.1-8.4l4-15.8c21,5.2,42.5,7.9,64.2,7.9H222l5.8-1.6
	c32.2-9.2,61.8-24.5,88-45.4l10.2,12.7c-27.9,22.3-59.4,38.6-93.7,48.4l-6.9,2C224.6,398.8,223.9,398.9,223.1,398.9z"/>
<path class="st0" d="M223.8,426.5L203,376.7c-13.5-32.4-22.9-66.5-27.9-101.3c-6.1-42.3-5.6-85.2,1.5-127.4l14-84.2l16.1,2.7
	l-14,84.2c-6.8,40.5-7.2,81.7-1.4,122.4c4.8,33.4,13.8,66.2,26.8,97.3l20.7,49.8L223.8,426.5z"/>
<path class="st0" d="M190.6,333.8h-1.4c-32.5,0-64.5-8.8-92.4-25.6l8.4-14c25.4,15.2,54.4,23.3,84,23.3h0.8l29.4-4.2
	c17.1-2.4,33.6-7.6,49-15.3c15.4-7.7,29.4-17.8,41.6-30l13.3-13.3l11.5,11.5l-13.3,13.3c-13.4,13.4-28.8,24.5-45.8,33.1
	c-17,8.5-35.1,14.2-53.9,16.8l-30,4.3C191.3,333.7,191,333.8,190.6,333.8z"/>
<path class="st0" d="M221.8,252.4h-39.4c-0.7,0-1.3-0.1-2-0.2l-29.8-7.4c-24.8-6.2-45.5-22.8-56.9-45.7l14.6-7.3
	c9.3,18.6,26.2,32.1,46.3,37.1l28.8,7.2h38.4c10.8,0,21.5-1.7,31.7-5.1c19.5-6.5,36.3-18.6,48.6-35l4.1-5.4l13.1,9.7l-4.1,5.5
	c-14.3,19.1-33.8,33.1-56.5,40.7C246.8,250.4,234.4,252.4,221.8,252.4z"/>
<path class="st0" d="M182.4,171c-1,0-2.1-0.2-3-0.6L166,165c-19.4-7.7-35.7-21-47.3-38.4l13.5-9c9.7,14.6,23.5,25.8,39.8,32.3
	l11,4.4l34.1-8.5c18-4.5,35-12,50.4-22.3l9,13.5c-17,11.3-35.6,19.6-55.5,24.5l-36.6,9.2C183.8,170.9,183.1,171,182.4,171z"/>
</svg>
