<svg id="OBJECTS" xmlns="http://www.w3.org/2000/svg" xmlns:xlink="http://www.w3.org/1999/xlink" viewBox="0 0 672.85 376.48"><defs><clipPath id="clip-path" transform="translate(-44.46 -62.9)"><rect x="130.06" y="296.5" width="127.57" height="77.21" rx="9.35" style="fill:none"/></clipPath><clipPath id="clip-path-2" transform="translate(-44.46 -62.9)"><rect x="94.36" y="137.52" width="107.28" height="64.93" rx="7.86" style="fill:none"/></clipPath><clipPath id="clip-path-3" transform="translate(-44.46 -62.9)"><rect x="301.44" y="282.91" width="108.28" height="65.54" rx="7.93" style="fill:none"/></clipPath><clipPath id="clip-path-4" transform="translate(-44.46 -62.9)"><rect x="452.38" y="328.4" width="127.57" height="77.21" rx="9.35" style="fill:none"/></clipPath><clipPath id="clip-path-5" transform="translate(-44.46 -62.9)"><path d="M660.9,227.12H521.47c-3.45,0,3.93-23.62,3.93-27.06l26.53-74.52c0-3.44,47.77,2,51.22,2L660.9,92.59a6.24,6.24,0,0,1,6.24,6.24V220.88A6.24,6.24,0,0,1,660.9,227.12Z" style="fill:none"/></clipPath><linearGradient id="linear-gradient" x1="-584.89" y1="792.72" x2="-584.84" y2="792.72" gradientTransform="matrix(317.11, 0, 0, -290.06, 186008.76, 230075.8)" gradientUnits="userSpaceOnUse"><stop offset="0" stop-color="#0df"/><stop offset="1" stop-color="#ff00d4"/></linearGradient><linearGradient id="linear-gradient-2" x1="-585.97" y1="792.91" x2="-585.88" y2="792.91" gradientTransform="matrix(317.2, 0, 0, -290.07, 186418.57, 230081.83)" xlink:href="#linear-gradient"/></defs><path d="M298.13,426.69l2.9,2.9a8.27,8.27,0,0,1,11.69,0l2.9-2.9a12.35,12.35,0,0,0-17.49,0Z" transform="translate(-44.46 -62.9)" style="fill:#672ed6"/><path d="M293.31,421.87l2.91,2.9a15.08,15.08,0,0,1,21.31,0l2.91-2.9a19.18,19.18,0,0,0-27.13,0Z" transform="translate(-44.46 -62.9)" style="fill:#672ed6"/><path d="M306.87,409.44a25.82,25.82,0,0,0-18.38,7.61L291.4,420a21.86,21.86,0,0,1,31,0l2.91-2.91A25.83,25.83,0,0,0,306.87,409.44Z" transform="translate(-44.46 -62.9)" style="fill:#672ed6"/><path d="M306.87,429.59a3.51,3.51,0,1,0,3.51,3.51A3.51,3.51,0,0,0,306.87,429.59Z" transform="translate(-44.46 -62.9)" style="fill:#672ed6"/><path d="M365,155.19l2.91,2.91a8.26,8.26,0,0,1,11.68,0l2.9-2.91a12.37,12.37,0,0,0-17.49,0Z" transform="translate(-44.46 -62.9)" style="fill:none;stroke:#672ed6;stroke-miterlimit:10"/><path d="M360.14,150.38l2.9,2.9a15.09,15.09,0,0,1,21.32,0l2.9-2.9a19.17,19.17,0,0,0-27.12,0Z" transform="translate(-44.46 -62.9)" style="fill:none;stroke:#672ed6;stroke-miterlimit:10"/><path d="M373.7,137.94a25.83,25.83,0,0,0-18.38,7.62l2.9,2.9a21.9,21.9,0,0,1,31,0l2.9-2.9A25.83,25.83,0,0,0,373.7,137.94Z" transform="translate(-44.46 -62.9)" style="fill:none;stroke:#672ed6;stroke-miterlimit:10"/><circle cx="329.24" cy="98.71" r="3.51" style="fill:none;stroke:#672ed6;stroke-miterlimit:10"/><line x1="381.48" y1="213.44" x2="381.48" y2="222.44" style="fill:none;stroke:#672ed6;stroke-linecap:round;stroke-linejoin:round;stroke-width:0.75px"/><line x1="376.98" y1="217.94" x2="385.97" y2="217.94" style="fill:none;stroke:#672ed6;stroke-linecap:round;stroke-linejoin:round;stroke-width:0.75px"/><line x1="57.46" y1="299.96" x2="57.46" y2="308.96" style="fill:none;stroke:#f797de;stroke-linecap:round;stroke-linejoin:round;stroke-width:0.75px"/><line x1="52.96" y1="304.46" x2="61.96" y2="304.46" style="fill:none;stroke:#f797de;stroke-linecap:round;stroke-linejoin:round;stroke-width:0.75px"/><line x1="133.56" y1="358.93" x2="133.56" y2="367.93" style="fill:none;stroke:#f797de;stroke-linecap:round;stroke-linejoin:round;stroke-width:0.75px"/><line x1="129.06" y1="363.43" x2="138.06" y2="363.43" style="fill:none;stroke:#f797de;stroke-linecap:round;stroke-linejoin:round;stroke-width:0.75px"/><line x1="656.09" y1="287.18" x2="656.09" y2="296.18" style="fill:none;stroke:#f797de;stroke-linecap:round;stroke-linejoin:round;stroke-width:0.75px"/><line x1="651.59" y1="291.68" x2="660.58" y2="291.68" style="fill:none;stroke:#f797de;stroke-linecap:round;stroke-linejoin:round;stroke-width:0.75px"/><line x1="250.84" y1="87.44" x2="250.84" y2="96.43" style="fill:none;stroke:#f797de;stroke-miterlimit:10"/><line x1="246.34" y1="91.94" x2="255.33" y2="91.94" style="fill:none;stroke:#f797de;stroke-miterlimit:10"/><line x1="65.87" y1="52.5" x2="65.87" y2="61.49" style="fill:none;stroke:#672ed6;stroke-linecap:round;stroke-linejoin:round;stroke-width:0.75px"/><line x1="61.37" y1="56.99" x2="70.37" y2="56.99" style="fill:none;stroke:#672ed6;stroke-linecap:round;stroke-linejoin:round;stroke-width:0.75px"/><line x1="112.17" y1="205.74" x2="112.17" y2="214.74" style="fill:none;stroke:#8ddfff;stroke-linecap:round;stroke-linejoin:round;stroke-width:0.75px"/><line x1="107.68" y1="210.24" x2="116.67" y2="210.24" style="fill:none;stroke:#8ddfff;stroke-linecap:round;stroke-linejoin:round;stroke-width:0.75px"/><line x1="293.18" y1="320.52" x2="293.18" y2="329.51" style="fill:none;stroke:#8ddfff;stroke-linecap:round;stroke-linejoin:round;stroke-width:0.75px"/><line x1="288.68" y1="325.01" x2="297.68" y2="325.01" style="fill:none;stroke:#8ddfff;stroke-linecap:round;stroke-linejoin:round;stroke-width:0.75px"/><circle cx="210.07" cy="90.36" r="3.09" style="fill:none;stroke:#8ddfff;stroke-linecap:round;stroke-linejoin:round;stroke-width:0.75px"/><circle cx="656.47" cy="363.89" r="19.86" transform="translate(-138.32 320.12) rotate(-30.46)" style="fill:#ed7ed6"/><rect x="600.66" y="292.6" width="23.29" height="17.5" style="fill:none;stroke:#fff;stroke-miterlimit:10"/><polyline points="600.66 292.6 612.31 303.36 623.95 292.6" style="fill:none;stroke:#fff;stroke-miterlimit:10"/><circle cx="97.42" cy="410.42" r="16.45" transform="translate(-368.08 321.83) rotate(-73.15)" style="fill:#f797de"/><rect x="43.56" y="340.57" width="19.29" height="14.49" style="fill:none;stroke:#fff;stroke-miterlimit:10"/><polyline points="43.56 340.57 53.21 349.48 62.85 340.57" style="fill:none;stroke:#fff;stroke-miterlimit:10"/><circle cx="234.94" cy="63.97" r="10.46" style="fill:#f797de"/><rect x="228.97" y="59.55" width="12.26" height="9.21" style="fill:none;stroke:#fff;stroke-miterlimit:10"/><polyline points="228.97 59.55 235.1 65.22 241.23 59.55" style="fill:none;stroke:#fff;stroke-miterlimit:10"/><polygon points="133.56 173.38 136.39 178.27 139.21 183.16 133.56 183.16 127.91 183.16 130.74 178.27 133.56 173.38" style="fill:#f797de"/><polygon points="377.38 316.6 383.83 322.26 390.27 327.92 382.15 330.67 374.02 333.43 375.7 325.01 377.38 316.6" style="fill:none;stroke:#f797de;stroke-miterlimit:10"/><polygon points="17.51 52.71 15.27 60.99 13.02 69.27 6.97 63.18 0.93 57.1 9.22 54.9 17.51 52.71" style="fill:#8ddfff;stroke:#000;stroke-miterlimit:10;stroke-width:0.940035px"/><polygon points="656.08 334.74 654.13 341.92 652.18 349.1 646.94 343.82 641.69 338.54 648.88 336.64 656.08 334.74" style="fill:none;stroke:#9e88e5;stroke-miterlimit:10"/><path d="M242.22,404.81a4.62,4.62,0,1,1-4.62-4.62A4.62,4.62,0,0,1,242.22,404.81Z" transform="translate(-44.46 -62.9)" style="fill:none;stroke:#f797de;stroke-miterlimit:10"/><path d="M408,104.67a6.52,6.52,0,1,1-6.52-6.52A6.52,6.52,0,0,1,408,104.67Z" transform="translate(-44.46 -62.9)" style="fill:none;stroke:#f797de;stroke-miterlimit:10"/><path d="M278.79,280.32a4.15,4.15,0,1,1-4.15-4.15A4.14,4.14,0,0,1,278.79,280.32Z" transform="translate(-44.46 -62.9)" style="fill:#f797de"/><path d="M412.14,425.77a4.15,4.15,0,1,1-4.15-4.15A4.15,4.15,0,0,1,412.14,425.77Z" transform="translate(-44.46 -62.9)" style="fill:#f797de"/><path d="M287.58,364.59a2.47,2.47,0,1,1-2.47-2.47A2.47,2.47,0,0,1,287.58,364.59Z" transform="translate(-44.46 -62.9)" style="fill:#f797de"/><circle cx="608.33" cy="425.77" r="7.33" transform="translate(-161.38 203.66) rotate(-22.61)" style="fill:none;stroke:#f797de;stroke-miterlimit:10"/><circle cx="445.86" cy="232.69" r="6.43" style="fill:none;stroke:#672ed6;stroke-miterlimit:10"/><circle cx="20.95" cy="277.99" r="5.79" style="fill:none;stroke:#672ed6;stroke-miterlimit:10"/><path d="M676.84,291.69a5,5,0,1,1-5-5A5,5,0,0,1,676.84,291.69Z" transform="translate(-44.46 -62.9)" style="fill:#672ed6"/><path d="M384.44,411.25a5,5,0,1,1-5-5A5,5,0,0,1,384.44,411.25Z" transform="translate(-44.46 -62.9)" style="fill:none;stroke:#672ed6;stroke-miterlimit:10"/><path d="M618.83,391.9s8.3-.82,10.47,4.42,3.05,10.32,16.08,3.87" transform="translate(-44.46 -62.9)" style="fill:none;stroke:#50a8ff;stroke-miterlimit:10"/><path d="M72.53,172.21s-1.1,7.6-6.26,8.38-9.89.45-7,13.52" transform="translate(-44.46 -62.9)" style="fill:none;stroke:#8ddfff;stroke-miterlimit:10"/><path d="M325.26,107.19s8.29-.81,10.47,4.43,3,10.31,16.07,3.87" transform="translate(-44.46 -62.9)" style="fill:none;stroke:#8ddfff;stroke-miterlimit:10"/><path d="M365.31,225.58a3.75,3.75,0,1,1-3.75-3.74A3.75,3.75,0,0,1,365.31,225.58Z" transform="translate(-44.46 -62.9)" style="fill:#8ddfff"/><circle cx="163.55" cy="106.46" r="4.71" transform="translate(-75.47 58.7) rotate(-37.51)" style="fill:none;stroke:#d7d4fc;stroke-miterlimit:10"/><path d="M130.06,337.66c-47,0-85.1-36.16-85.1-80.76,0-31.52,19-58.83,46.79-72.13" transform="translate(-44.46 -62.9)" style="fill:none;stroke:#c1c0ff;stroke-miterlimit:10;stroke-dasharray:4"/><path d="M313.85,356.37c3.45,31.58-20.3,60.08-53.06,63.66s-62.12-19.11-65.57-50.68" transform="translate(-44.46 -62.9)" style="fill:none;stroke:#c1c0ff;stroke-miterlimit:10;stroke-dasharray:4"/><ellipse cx="337.84" cy="82.84" rx="57.99" ry="56.71" style="fill:none;stroke:#c1c0ff;stroke-miterlimit:10;stroke-dasharray:4"/><ellipse cx="160.34" cy="159.76" rx="55.33" ry="54.1" style="fill:none;stroke:#c1c0ff;stroke-miterlimit:10;stroke-dasharray:4"/><ellipse cx="413.78" cy="238.72" rx="54.25" ry="50.14" style="fill:none;stroke:#c1c0ff;stroke-miterlimit:10;stroke-dasharray:4"/><rect x="75.87" y="227.71" width="147.03" height="101.29" rx="9.35" style="fill:#b4aaf9"/><rect x="85.6" y="233.6" width="127.57" height="77.21" rx="9.35" style="fill:#fff"/><path d="M168.18,331.78s-6.92,21.81,7.22,26.63,15.74.83,18.88,8.36,15.74,4.28,16.95-7.3-7.35-10.69-11.81-11.29-7.41-8.78-7.37-13S169.78,322.9,168.18,331.78Z" transform="translate(-44.46 -62.9)"/><g style="clip-path:url(#clip-path)"><path d="M183.87,352.24s15.08.92,30.64,15.54,15.15,52.35,15.15,52.35l-46.45-1.19Z" transform="translate(-44.46 -62.9)" style="fill:#fff;stroke:#000;stroke-miterlimit:10"/><path d="M199.81,364.73c10.41,7.78,31.59,54,24.87,54.19s-87-.48-89.54-3,8.41-24.54,8.41-24.54,16.89-34.71,43-34.92C195.31,356.41,188.7,356.42,199.81,364.73Z" transform="translate(-44.46 -62.9)" style="fill:#fff"/><path d="M157.15,393.18s-7.35,20.62-5.66,22.95,55.75,2.94,60.27,2.79-3.14-32.66-7-42" transform="translate(-44.46 -62.9)" style="fill:none;stroke:#1c191b;stroke-miterlimit:10"/><path d="M185.43,404s6.06-4.06,21.73-.2c0,0,3,1.37.71,2s-8.15-.32-8.15-.32,9,.82,9.23,2.39-8.51,0-8.51,0,9.39,1.48,9.28,3.07-5.34-.18-10.4.18-14.31,4.09-15.74,3.06S179,406.35,185.43,404Z" transform="translate(-44.46 -62.9)" style="fill:#fff;stroke:#1c191b;stroke-miterlimit:10"/><path d="M180.35,352.24c-9.36.09-19.62,3-29.56,11.1-13.56,11.06-36.57,45.83-26.52,63.78s33.18,10.95,41.2,7.34,23.69-15.63,25.4-20.55c2-5.75,1.13-9.82-6.1-11.62s-33.75,1-38.94,4.4" transform="translate(-44.46 -62.9)" style="fill:#fff;stroke:#000;stroke-miterlimit:10"/><path d="M190.87,413.91c2-5.62,1.15-9.62-5.63-11.49a20.72,20.72,0,0,0-.19,6.27c.45,3.84,1.76,7.09,3.36,8.82A12.15,12.15,0,0,0,190.87,413.91Z" transform="translate(-44.46 -62.9)" style="fill:#eeda36;stroke:#000;stroke-miterlimit:10"/><path d="M169.11,380.15s-7.91-5.8-4.87-8.47,5.68,2.85,5.68,2.85,1.83-4.84,4.45-3.22S169.11,380.15,169.11,380.15Z" transform="translate(-44.46 -62.9)" style="fill:#eeda36;stroke:#1c191b;stroke-miterlimit:10"/></g><path d="M188.84,355.44c0,2.73-3.8,4.95-8.49,4.95s-8.49-2.22-8.49-4.95,3.8-4.94,8.49-4.94S188.84,352.71,188.84,355.44Z" transform="translate(-44.46 -62.9)" style="fill:#eeda36;stroke:#1c191b;stroke-miterlimit:10"/><path d="M164.54,331.78a6.31,6.31,0,1,0,6.31-6.25A6.29,6.29,0,0,0,164.54,331.78Z" transform="translate(-44.46 -62.9)" style="fill:#fff;stroke:#000;stroke-miterlimit:10"/><path d="M190.79,313.5h-7.46c-5,0-9,4.62-9,10.27v11.56c0,.33,0,.65,0,1a4.59,4.59,0,0,0-.13,1.06v14.47a4.66,4.66,0,0,0,4.65,4.65h3a4.66,4.66,0,0,0,4.64-4.65V345.6h4.32c5,0,9-4.62,9-10.27V323.77C199.81,318.12,195.75,313.5,190.79,313.5Z" transform="translate(-44.46 -62.9)" style="fill:#fff;stroke:#000;stroke-miterlimit:10"/><path d="M173.68,329s7.31-2.43,9.53-7.15,1.67-5.74,1.67-5.74,4.12,5.64,10.64,7c5.38,1.15,5.16.35,5.69-.9s.81-9.12-7.36-14-16.94-4.42-23,1.69-5.32,15.73-3.28,18.14S172.29,331.77,173.68,329Z" transform="translate(-44.46 -62.9)"/><circle cx="170.85" cy="299" r="7.3" transform="translate(-203.86 333.68) rotate(-76.72)"/><path d="M164.91,331.78a5.94,5.94,0,1,0,5.94-5.89A5.92,5.92,0,0,0,164.91,331.78Z" transform="translate(-44.46 -62.9)" style="fill:#fff"/><path d="M174.06,332.56s.26-4-3.85-3.56" transform="translate(-44.46 -62.9)" style="fill:none;stroke:#020202;stroke-miterlimit:10"/><circle cx="142.1" cy="264.65" r="1.68"/><path d="M195.89,327.3a1.44,1.44,0,1,0,1.43-1.44A1.43,1.43,0,0,0,195.89,327.3Z" transform="translate(-44.46 -62.9)"/><path d="M194.28,334.18s-.84,2.46-2.63,2.63-3.19-1.81-3.28-3.35" transform="translate(-44.46 -62.9)" style="fill:none;stroke:#0c0c0c;stroke-miterlimit:10"/><path d="M179,333.73a4.18,4.18,0,1,0,4.18-4.18A4.18,4.18,0,0,0,179,333.73Z" transform="translate(-44.46 -62.9)" style="fill:#e4b0c8"/><path d="M198.69,330.9a2.92,2.92,0,0,1,.73.09v4.33a9,9,0,0,1-.15,1.89,3.79,3.79,0,0,1-.58.05,3.18,3.18,0,0,1,0-6.36Z" transform="translate(-44.46 -62.9)" style="fill:#e4b0c8"/><polygon points="147.93 262.97 147.59 268.69 150.32 267.03 147.93 262.97" style="fill:#db7294"/><path d="M246,313.5H216a5.41,5.41,0,0,1-5.41-5.41h0a5.41,5.41,0,0,1,5.41-5.4H246a5.4,5.4,0,0,1,5.4,5.4h0A5.41,5.41,0,0,1,246,313.5Z" transform="translate(-44.46 -62.9)" style="fill:none;stroke:#000;stroke-miterlimit:10"/><rect x="85.6" y="233.6" width="127.57" height="77.21" rx="9.35" style="fill:none;stroke:#000;stroke-miterlimit:10"/><path d="M197.43,382.52a3.38,3.38,0,1,1-2.78-3.33,3.42,3.42,0,0,1,2.78,3.33.63.63,0,0,0,1.25,0,4.63,4.63,0,1,0-3.75,4.55,4.68,4.68,0,0,0,3.75-4.55A.63.63,0,0,0,197.43,382.52Z" transform="translate(-44.46 -62.9)"/><rect x="182.21" y="107.3" width="123.65" height="85.18" rx="7.86" style="fill:#b4aaf9"/><rect x="190.39" y="112.26" width="107.28" height="64.93" rx="7.86" style="fill:#fff;stroke:#000;stroke-miterlimit:10"/><path d="M263,240.09h49.74c-5-6.8-14.27-11.37-24.87-11.37S268.05,233.29,263,240.09Z" transform="translate(-44.46 -62.9)" style="fill:#f797de;stroke:#000;stroke-miterlimit:10"/><ellipse cx="244.08" cy="167.18" rx="8.15" ry="4.75" style="stroke:#1c191b;stroke-miterlimit:10"/><path d="M273.35,207.35a6.06,6.06,0,1,0,6.06-6A6,6,0,0,0,273.35,207.35Z" transform="translate(-44.46 -62.9)" style="fill:#fff;stroke:#000;stroke-miterlimit:10"/><path d="M298.56,189.79h-7.17c-4.76,0-8.66,4.43-8.66,9.86v11.11c0,.31,0,.62,0,.93a4.17,4.17,0,0,0-.12,1v13.91a4.47,4.47,0,0,0,4.46,4.46H290a4.47,4.47,0,0,0,4.46-4.46v-6h4.15c4.76,0,8.66-4.44,8.66-9.86V199.65C307.22,194.22,303.32,189.79,298.56,189.79Z" transform="translate(-44.46 -62.9)" style="fill:#fff;stroke:#000;stroke-miterlimit:10"/><path d="M282.12,204.64s7-2.33,9.16-6.86,1.6-5.51,1.6-5.51,4,5.42,10.22,6.75c5.17,1.1,5,.34,5.47-.87s.78-8.75-7.07-13.46-16.28-4.25-22.09,1.62-5.11,15.11-3.15,17.42S280.79,207.33,282.12,204.64Z" transform="translate(-44.46 -62.9)"/><path d="M260.89,177.76s-3,.43-3.47,5.2S254,193.52,247.3,195s-22.55,1.3-23.28-15,17.64-19.89,23.43-14c4.09,4.15,5.34,4.48,7.8-.29s10.46-8.8,18.1-1.8,2.14,14.81-1.62,16S263.48,175.66,260.89,177.76Z" transform="translate(-44.46 -62.9)" style="fill:none;stroke:#000;stroke-miterlimit:10"/><circle cx="235.33" cy="117.3" r="3.08" style="fill:#f797de;stroke:#000;stroke-miterlimit:10"/><path d="M273.7,207.35a5.71,5.71,0,1,0,5.71-5.66A5.68,5.68,0,0,0,273.7,207.35Z" transform="translate(-44.46 -62.9)" style="fill:#fff"/><path d="M282.49,208.09s.25-3.84-3.69-3.41" transform="translate(-44.46 -62.9)" style="fill:none;stroke:#020202;stroke-miterlimit:10"/><path d="M292.88,203.28a1.62,1.62,0,1,0,1.62-1.62A1.61,1.61,0,0,0,292.88,203.28Z" transform="translate(-44.46 -62.9)" style="fill:#0c0c0c"/><path d="M303.46,203a1.38,1.38,0,1,0,1.38-1.38A1.38,1.38,0,0,0,303.46,203Z" transform="translate(-44.46 -62.9)" style="fill:#0c0c0c"/><path d="M301.91,209.65s-.81,2.37-2.52,2.53-3.07-1.74-3.16-3.22Z" transform="translate(-44.46 -62.9)" style="fill:#fff7f7;stroke:#0c0c0c;stroke-miterlimit:10"/><path d="M287.26,209.22a4,4,0,1,0,4-4A4,4,0,0,0,287.26,209.22Z" transform="translate(-44.46 -62.9)" style="fill:#e4b0c8"/><path d="M306.14,206.5a3.22,3.22,0,0,1,.71.08v4.17a8.35,8.35,0,0,1-.15,1.81,3.33,3.33,0,0,1-.56.05,3.06,3.06,0,0,1,0-6.11Z" transform="translate(-44.46 -62.9)" style="fill:#e4b0c8"/><polygon points="255.64 138.77 255.31 144.27 257.94 142.67 255.64 138.77" style="fill:#db7294"/><path d="M291.42,247.5a2.75,2.75,0,1,1-2.27-2.7,2.78,2.78,0,0,1,2.27,2.7.63.63,0,0,0,1.25,0,4.08,4.08,0,0,0-2.63-3.75,4,4,0,0,0-4.43,1.19,4,4,0,1,0,7.06,2.56A.63.63,0,0,0,291.42,247.5Z" transform="translate(-44.46 -62.9)"/><rect x="41.71" y="69.66" width="123.65" height="85.18" rx="7.86" style="fill:#b4aaf9"/><path d="M150.92,209.87a2.75,2.75,0,1,1-2.27-2.71,2.77,2.77,0,0,1,2.27,2.71.63.63,0,0,0,1.25,0,4.07,4.07,0,0,0-2.62-3.75,4,4,0,1,0,2.62,3.75A.63.63,0,0,0,150.92,209.87Z" transform="translate(-44.46 -62.9)"/><rect x="49.9" y="74.62" width="107.28" height="64.93" rx="7.86" style="fill:#fff"/><g style="clip-path:url(#clip-path-2)"><path d="M132.77,185.22c-20.1,0-36.38,20.49-36.38,45.76h72.76C169.15,205.71,152.86,185.22,132.77,185.22Z" transform="translate(-44.46 -62.9)" style="fill:#fff;stroke:#000;stroke-miterlimit:10"/><path d="M121.4,196.24a2.6,2.6,0,1,1-2.6-2.6A2.6,2.6,0,0,1,121.4,196.24Z" transform="translate(-44.46 -62.9)" style="fill:#eeda36"/><circle cx="87.25" cy="143.04" r="2.89" style="fill:#eeda36"/><path d="M145.39,196.24a2.6,2.6,0,1,1-2.6-2.6A2.6,2.6,0,0,1,145.39,196.24Z" transform="translate(-44.46 -62.9)" style="fill:#eeda36"/><circle cx="110.99" cy="140.05" r="2.24" style="fill:#eeda36"/><path d="M112.45,207.46a2.71,2.71,0,1,1-2.71-2.71A2.71,2.71,0,0,1,112.45,207.46Z" transform="translate(-44.46 -62.9)" style="fill:#eeda36"/><circle cx="76.87" cy="152.39" r="2.89" style="fill:#eeda36"/><circle cx="103.61" cy="151.88" r="2.38" style="fill:#eeda36"/><path d="M162.3,219.47a2.31,2.31,0,1,1-2.31-2.31A2.31,2.31,0,0,1,162.3,219.47Z" transform="translate(-44.46 -62.9)" style="fill:#eeda36"/><path d="M109.34,220.62a2.45,2.45,0,1,1-2.45-2.45A2.46,2.46,0,0,1,109.34,220.62Z" transform="translate(-44.46 -62.9)" style="fill:#eeda36"/><path d="M137.67,223.08a2.45,2.45,0,1,1-2.45-2.46A2.45,2.45,0,0,1,137.67,223.08Z" transform="translate(-44.46 -62.9)" style="fill:#eeda36"/><path d="M172,207.22l.72-2.44s.08-.65-.86-1l-15.25-5.87s-1.23-.72-1.56.16-2.71,4.77-2.71,4.77-.68,1,.15,1.45,13.8,5.34,13.8,5.34l3.31,1.37s1,.38,1.21-.12S172,207.22,172,207.22Z" transform="translate(-44.46 -62.9)" style="fill:#672ed6"/><path d="M176,190.09s1.29-6.66.23-7.91-2.07.09-2.6,1.77-1.35,4.87-1.35,4.87l-3.34-6.71s7.43-5.41,7.7-6.4.35-1.65-.17-1.66a14.84,14.84,0,0,0-2.1.42s2.51-2.42,1.73-3.28-3.49,1.12-3.49,1.12,1-3.68.52-4.38-3.48,3.47-4.32,5-2.34,4.14-2.34,4.14-1,.78-1,1.2-1.23,1.35-1.42,1.52-1.71,3.34-3.14,6.56-3.55,7.61-3.55,7.61l-1,2s-1.11,1.62,1.2,2.28,11.42,4.4,11.42,4.4l2.89,1.11s.87,1.22,1.58-1.58S176,190.09,176,190.09Z" transform="translate(-44.46 -62.9)" style="fill:#fff"/><path d="M170.25,212.37c5-14,7.12-28.67,5.93-30.19-1.65-2.1-2.68,1.49-4,6.64l-3.34-6.71s8-5.45,8-7.62-12.56,4-13.66,6.25c-.71,1.47-5,13.47-12.15,23.91" transform="translate(-44.46 -62.9)" style="fill:none;stroke:#000;stroke-miterlimit:10"/><path d="M173.52,174.67s3.31-2,2.53-3.48-10.8,5.66-10.55,7.53" transform="translate(-44.46 -62.9)" style="fill:none;stroke:#000;stroke-miterlimit:10"/><path d="M172.21,172.52s2-4.09.87-4.59-5.39,6.29-5.88,8.37" transform="translate(-44.46 -62.9)" style="fill:none;stroke:#000;stroke-miterlimit:10"/><line x1="128.4" y1="141.27" x2="111.04" y2="134.59" style="fill:none;stroke:#000;stroke-miterlimit:10"/><line x1="126.13" y1="148.52" x2="107.32" y2="140.73" style="fill:none;stroke:#000;stroke-miterlimit:10"/><line x1="126.15" y1="140.41" x2="123.47" y2="147.42" style="fill:none;stroke:#000;stroke-miterlimit:10"/><line x1="122.82" y1="139.13" x2="120.14" y2="146.04" style="fill:none;stroke:#000;stroke-miterlimit:10"/><line x1="119.7" y1="137.8" x2="117.09" y2="144.62" style="fill:none;stroke:#000;stroke-miterlimit:10"/><line x1="116.25" y1="136.52" x2="113.87" y2="143.33" style="fill:none;stroke:#000;stroke-miterlimit:10"/><line x1="113.34" y1="135.46" x2="110.5" y2="142.01" style="fill:none;stroke:#000;stroke-miterlimit:10"/></g><path d="M118.45,164.73a5.51,5.51,0,1,0,5.5-5.46A5.48,5.48,0,0,0,118.45,164.73Z" transform="translate(-44.46 -62.9)" style="fill:none;stroke:#000;stroke-miterlimit:10;stroke-width:2px"/><path d="M140.64,186.67c0,2.53-3.53,4.59-7.87,4.59s-7.87-2.06-7.87-4.59,3.52-4.59,7.87-4.59S140.64,184.14,140.64,186.67Z" transform="translate(-44.46 -62.9)" style="fill:#672ed6;stroke:#211f21;stroke-miterlimit:10"/><path d="M142.44,147.78h-6.91c-4.6,0-8.37,4.28-8.37,9.52V168c0,.31,0,.6,0,.9a4.53,4.53,0,0,0-.12,1v13.42a4.32,4.32,0,0,0,4.31,4.31h2.75a4.31,4.31,0,0,0,4.3-4.31v-5.77h4c4.6,0,8.37-4.29,8.37-9.53V157.3C150.81,152.06,147,147.78,142.44,147.78Z" transform="translate(-44.46 -62.9)" style="fill:#fff;stroke:#000;stroke-miterlimit:10"/><path d="M137,160.8a1.56,1.56,0,1,0,1.56-1.56A1.56,1.56,0,0,0,137,160.8Z" transform="translate(-44.46 -62.9)" style="fill:#141414"/><path d="M147.17,160.57a1.34,1.34,0,1,0,1.33-1.33A1.33,1.33,0,0,0,147.17,160.57Z" transform="translate(-44.46 -62.9)" style="fill:#141414"/><path d="M145.68,167s-.78,2.29-2.44,2.45-3-1.68-3-3.12Z" transform="translate(-44.46 -62.9)" style="fill:#f7f6f6"/><path d="M145.15,166.81c0,.05-.05.11-.07.17.07-.18,0,0,0,.09s-.09.17-.13.26a3.61,3.61,0,0,1-.8,1.07,1.54,1.54,0,0,1-1.3.43,2.31,2.31,0,0,1-1.33-.84,3.37,3.37,0,0,1-.49-.81,2.66,2.66,0,0,1-.23-.9l-.56.56,4.8.59.68.08a.56.56,0,1,0,0-1.11l-4.8-.59-.68-.09a.57.57,0,0,0-.56.56,4.05,4.05,0,0,0,2.62,3.56,3,3,0,0,0,3.45-1.67,5.25,5.25,0,0,0,.51-1.07.55.55,0,0,0-1.07-.29Z" transform="translate(-44.46 -62.9)" style="fill:#141414"/><circle cx="90.96" cy="103.64" r="3.88" style="fill:#e4b0c8"/><path d="M149.77,163.91a3.08,3.08,0,0,1,.68.08v4a8.39,8.39,0,0,1-.14,1.75,3.19,3.19,0,0,1-.54.05,2.95,2.95,0,0,1,0-5.9Z" transform="translate(-44.46 -62.9)" style="fill:#e4b0c8"/><polygon points="99.47 96.34 99.15 101.66 101.69 100.11 99.47 96.34" style="fill:#d96980"/><path d="M129.05,162.66l1.2-6.51s6.74,2.16,11.89-2-3.31-5.79-1.94-2.72,6.09,4.34,11.93,3.7c8.7-1,8.92-11.47,3.92-14.56s-10.66.55-10.66.55,2.61-5.22-3.9-7c-5.35-1.43-9.36,3.1-10,5.1,0,0-8.82.87-12.74,6.41a15.61,15.61,0,0,0-.35,18.2,36,36,0,0,0,8.49,9.29S127.69,165.39,129.05,162.66Z" transform="translate(-44.46 -62.9)"/><path d="M118.45,164.73a5.51,5.51,0,1,0,5.5-5.46A5.48,5.48,0,0,0,118.45,164.73Z" transform="translate(-44.46 -62.9)" style="fill:#fff"/><path d="M127.62,165.45a4.44,4.44,0,0,0-.18-1.45,3.36,3.36,0,0,0-1.76-2.2,4.38,4.38,0,0,0-2.31-.34.7.7,0,0,0-.69.69.69.69,0,0,0,.69.69,5.35,5.35,0,0,1,1,0h.08l.19,0,.37.11c.17.06-.14-.07,0,0l.15.07a2.75,2.75,0,0,0,.28.19c-.14-.07-.11-.1-.06,0l.06,0,.11.1c.07.07.13.16.2.23-.16-.16,0-.07,0,0a.76.76,0,0,1,.08.11,2.15,2.15,0,0,1,.14.26l.06.13c0,.07-.07-.19,0-.09l0,.06a1.43,1.43,0,0,1,.09.27,3.57,3.57,0,0,1,.11.47s0,.06,0,.1v-.07a1.36,1.36,0,0,0,0,.2c0,.14,0,.29,0,.43a.69.69,0,0,0,.68.69.7.7,0,0,0,.69-.69Z" transform="translate(-44.46 -62.9)" style="fill:#090909"/><rect x="49.9" y="74.62" width="107.28" height="64.93" rx="7.86" style="fill:none"/><rect x="49.9" y="74.62" width="107.28" height="64.93" rx="7.86" style="fill:none;stroke:#000;stroke-miterlimit:10"/><rect x="248.72" y="215.02" width="124.8" height="85.97" rx="7.93" style="fill:#b4aaf9"/><path d="M358.53,355.93a2.78,2.78,0,1,1-2.29-2.73,2.81,2.81,0,0,1,2.29,2.73.63.63,0,0,0,1.25,0,4.09,4.09,0,0,0-2.64-3.78,4,4,0,0,0-4.47,1.2,4,4,0,1,0,7.11,2.58A.63.63,0,0,0,358.53,355.93Z" transform="translate(-44.46 -62.9)"/><rect x="256.98" y="220.02" width="108.28" height="65.54" rx="7.93" style="fill:#fff"/><g style="clip-path:url(#clip-path-3)"><path d="M290.68,346.89s16.35-15.61,33.75-18.84,52.25-2.9,71.11,22-27.49,47-28.77,47.15-76.57-12.44-79.44-14.61S273.58,367.51,290.68,346.89Z" transform="translate(-44.46 -62.9)" style="fill:#672ed6;stroke:#000;stroke-miterlimit:10;stroke-width:0.909006px"/><path d="M361.69,334s28.19,56.64,21.88,67.46-53,21.14-76.34,9.32C280,397,315.84,339.59,324.31,326.36Z" transform="translate(-44.46 -62.9)" style="fill:#672ed6;stroke:#000;stroke-miterlimit:10;stroke-width:0.909006px"/><path d="M318,346.89a6.46,6.46,0,1,0,6.45-6.46A6.45,6.45,0,0,0,318,346.89Z" transform="translate(-44.46 -62.9)" style="fill:#fff"/></g><rect x="256.98" y="220.02" width="108.28" height="65.54" rx="7.93" style="fill:none;stroke:#000;stroke-miterlimit:10"/><ellipse cx="343" cy="328.52" rx="14.72" ry="22.76" transform="translate(-63.24 573.33) rotate(-84.15)" style="fill:#672ed6;stroke:#000;stroke-miterlimit:10;stroke-width:0.9716159999999999px"/><path d="M331,306.11a6,6,0,1,0,6-5.91A5.94,5.94,0,0,0,331,306.11Z" transform="translate(-44.46 -62.9)" style="fill:none;stroke:#000;stroke-miterlimit:10;stroke-width:1.8800700000000001px"/><path d="M357,287.77h-7.48c-5,0-9.05,4.63-9.05,10.3v11.6c0,.33,0,.65,0,1a4.75,4.75,0,0,0-.13,1.07v14.52a4.68,4.68,0,0,0,4.67,4.66h3a4.68,4.68,0,0,0,4.67-4.66V320H357c5,0,9.05-4.64,9.05-10.31v-11.6C366,292.4,361.93,287.77,357,287.77Z" transform="translate(-44.46 -62.9)" style="fill:#fff;stroke:#000;stroke-miterlimit:10;stroke-width:0.940035px"/><path d="M351,301.86a1.69,1.69,0,1,0,1.69-1.69A1.69,1.69,0,0,0,351,301.86Z" transform="translate(-44.46 -62.9)" style="fill:#0c0c0c"/><path d="M362.07,301.61a1.44,1.44,0,1,0,1.44-1.44A1.44,1.44,0,0,0,362.07,301.61Z" transform="translate(-44.46 -62.9)" style="fill:#0c0c0c"/><path d="M360.46,308.52s-.85,2.47-2.64,2.64-3.2-1.82-3.3-3.37Z" transform="translate(-44.46 -62.9)" style="fill:#fff7f7"/><path d="M360,308.38a1.34,1.34,0,0,1-.07.18l-.05.12-.14.29a4,4,0,0,1-.88,1.17,1.77,1.77,0,0,1-1.46.49,2.54,2.54,0,0,1-1.5-.94,3.51,3.51,0,0,1-.8-1.9l-.53.53,5.2.63.74.09c.28,0,.52-.26.52-.52a.55.55,0,0,0-.52-.53l-5.2-.63-.74-.09a.52.52,0,0,0-.52.52,4.35,4.35,0,0,0,2.77,3.78,3.23,3.23,0,0,0,3.65-1.77,6.29,6.29,0,0,0,.55-1.14C361.19,308,360.17,307.74,360,308.38Z" transform="translate(-44.46 -62.9)" style="fill:#0c0c0c"/><path d="M345.16,308.07a4.2,4.2,0,1,0,4.19-4.2A4.2,4.2,0,0,0,345.16,308.07Z" transform="translate(-44.46 -62.9)" style="fill:#e4b0c8"/><path d="M364.88,305.22a3.65,3.65,0,0,1,.74.09v4.35a9.2,9.2,0,0,1-.16,1.9,5.44,5.44,0,0,1-.58.05,3.2,3.2,0,0,1,0-6.39Z" transform="translate(-44.46 -62.9)" style="fill:#e4b0c8"/><polygon points="314.11 237.28 313.76 243.02 316.5 241.35 314.11 237.28" style="fill:#db7294"/><path d="M342.38,305.92l1.38-9.09s25.15,3.15,33.3-9.06-.41-17-4.56-16.36-9,6.63-9,6.63,3.86-5.25,0-6.08-8.12,3.18-10.34,7.32c0,0-16.58-1.54-22.18,8.49s-1.06,17.14,9.19,27.51l.68-5.8Z" transform="translate(-44.46 -62.9)"/><path d="M331,306.11a6,6,0,1,0,6-5.91A5.94,5.94,0,0,0,331,306.11Z" transform="translate(-44.46 -62.9)" style="fill:#fff"/><path d="M340.82,306.89a4.72,4.72,0,0,0-.19-1.54,3.57,3.57,0,0,0-1.87-2.33,4.77,4.77,0,0,0-2.45-.35.68.68,0,0,0-.65.65c0,.32.29.69.65.65a4.79,4.79,0,0,1,1.07,0h.11s-.14,0,0,0l.2,0c.14,0,.27.08.41.12s-.11-.05,0,0l.16.08a2.29,2.29,0,0,0,.31.2s-.13-.11-.05,0l.07.05.11.11c.07.07.14.19.23.24-.11-.06-.08-.1,0,0l0,.05.08.12c.06.09.11.18.16.27l.06.14c0,.07-.07-.16,0-.06l0,.06c0,.1.07.2.1.29a4.64,4.64,0,0,1,.11.51.36.36,0,0,1,0,.11c0,.14,0-.19,0-.05a1.49,1.49,0,0,0,0,.21,3.69,3.69,0,0,1,0,.47.65.65,0,0,0,.64.65.67.67,0,0,0,.65-.65Z" transform="translate(-44.46 -62.9)" style="fill:#020202"/><path d="M353.17,279.28s-16.57,17.12-23.44,22.33c0,0-8.93-19.77-3.86-25.29C329.93,271.9,349.77,274.49,353.17,279.28Z" transform="translate(-44.46 -62.9)" style="fill:#8ddfff;stroke:#000;stroke-miterlimit:10;stroke-width:0.940035px"/><line x1="303.23" y1="213.16" x2="283.03" y2="233.08" style="fill:none;stroke:#000;stroke-miterlimit:10;stroke-width:0.940035px"/><path d="M357.78,321.84l2.7,10L340,338.35,339,334.16l-7.56-4.49,3.13-8.46,8.95,7,.59.49s.33.56,2-.36Z" transform="translate(-44.46 -62.9)" style="fill:#672ed6"/><polyline points="314.11 258.51 294.61 269.25 294.49 271.8" style="fill:none;stroke:#000;stroke-miterlimit:10;stroke-width:0.940035px"/><line x1="289.6" y1="258.29" x2="300.23" y2="266.15" style="fill:none;stroke:#000;stroke-miterlimit:10;stroke-width:0.940035px"/><path d="M334.06,332.87s-13.8,9.15-23.22,5.48" transform="translate(-44.46 -62.9)" style="fill:none;stroke:#000;stroke-miterlimit:10;stroke-width:0.940035px"/><circle cx="289.26" cy="269.89" r="1.54" style="fill:none;stroke:#000;stroke-miterlimit:10;stroke-width:0.940035px"/><path d="M351.35,336.28a1.59,1.59,0,1,0,1.59-1.58A1.59,1.59,0,0,0,351.35,336.28Z" transform="translate(-44.46 -62.9)" style="fill:none;stroke:#000;stroke-miterlimit:10;stroke-width:0.940035px"/><path d="M352.94,336.28s5.63,16.25,15.46,21" transform="translate(-44.46 -62.9)" style="fill:none;stroke:#000;stroke-miterlimit:10;stroke-width:0.940035px"/><rect x="398.19" y="259.61" width="147.03" height="101.29" rx="9.35" style="fill:#b4aaf9"/><path d="M519.76,414.43a3.38,3.38,0,1,1-2.79-3.34,3.41,3.41,0,0,1,2.79,3.34.63.63,0,0,0,1.25,0,4.71,4.71,0,0,0-3-4.35,4.63,4.63,0,1,0,3,4.35A.63.63,0,0,0,519.76,414.43Z" transform="translate(-44.46 -62.9)"/><rect x="407.92" y="265.5" width="127.57" height="77.21" rx="9.35" style="fill:#fff;stroke:#000;stroke-miterlimit:10"/><path d="M513.45,372.54s19.18,9.18,26.36-4.26-4.27-30-13.58-32.35S509.58,359.89,513.45,372.54Z" transform="translate(-44.46 -62.9)"/><path d="M505.18,373.6s-8.36,6.26-21.14,1.47-4.93-28.23,0-35.41,16-11.59,20.9-9.32S513.92,358.92,505.18,373.6Z" transform="translate(-44.46 -62.9)"/><circle cx="479.93" cy="328.1" r="9.18" transform="translate(-113.6 456.26) rotate(-53.54)"/><path d="M533.73,354.25s-3.08-7-5.68-6.6-1.86,5-1.51,7.49,1.57,5.64-1.17,8.54S536.13,362.24,533.73,354.25Z" transform="translate(-44.46 -62.9)" style="fill:#fff;stroke:#000;stroke-miterlimit:10"/><path d="M519.67,334.62h-7.85c-5.22,0-9.49,4.86-9.49,10.8v12.17c0,.34,0,.68.05,1a4.58,4.58,0,0,0-.14,1.12v15.22a4.9,4.9,0,0,0,4.89,4.89h3.11a4.9,4.9,0,0,0,4.89-4.89v-6.55h4.54c5.22,0,9.49-4.86,9.49-10.8V345.42C529.16,339.48,524.89,334.62,519.67,334.62Z" transform="translate(-44.46 -62.9)" style="fill:#fff;stroke:#000;stroke-miterlimit:10"/><path d="M507.3,355.9a4.4,4.4,0,1,0,4.4-4.4A4.4,4.4,0,0,0,507.3,355.9Z" transform="translate(-44.46 -62.9)" style="fill:#e4b0c8"/><path d="M528,352.92a3.25,3.25,0,0,1,.77.09v4.57a9.24,9.24,0,0,1-.16,2,4.07,4.07,0,0,1-.61.06,3.35,3.35,0,1,1,0-6.7Z" transform="translate(-44.46 -62.9)" style="fill:#e4b0c8"/><path d="M513.45,349.39a1.77,1.77,0,1,0,1.77-1.77A1.77,1.77,0,0,0,513.45,349.39Z" transform="translate(-44.46 -62.9)" style="fill:#0c0c0c"/><path d="M525,349.13a1.51,1.51,0,1,0,1.51-1.51A1.52,1.52,0,0,0,525,349.13Z" transform="translate(-44.46 -62.9)" style="fill:#0c0c0c"/><path d="M523.61,357.27s-.89,2.59-2.77,2.77-3.35-1.91-3.46-3.53Z" transform="translate(-44.46 -62.9)" style="fill:#fff7f7"/><path d="M523.07,357.12a1.08,1.08,0,0,1-.08.19l0,.12-.15.3a4.15,4.15,0,0,1-.91,1.23,1.9,1.9,0,0,1-1.53.52,2.62,2.62,0,0,1-1.56-1,3.6,3.6,0,0,1-.85-2l-.56.55,5.45.67.78.1a.57.57,0,0,0,.56-.56.58.58,0,0,0-.56-.56l-5.45-.67-.78-.09a.54.54,0,0,0-.55.56,4.54,4.54,0,0,0,2.91,4c1.62.51,3-.52,3.83-1.86a6.55,6.55,0,0,0,.58-1.19C524.38,356.74,523.3,356.44,523.07,357.12Z" transform="translate(-44.46 -62.9)" style="fill:#0c0c0c"/><polygon points="476.9 284.73 476.54 290.75 479.41 289 476.9 284.73" style="fill:#db7294"/><path d="M500.05,333h0c.3-4.52,2.89-8.72,6.21-8.78,7.32-.13,7.18,5.33,7.18,5.33,12.5-15.44,28.63-6.26,23.44,5.08s-25.26,9.56-25.26,9.56a19.26,19.26,0,0,0-2.85-.15c-2.38.47-4,3.4-4.76,7.13C502.24,360.42,495.29,340.19,500.05,333Z" transform="translate(-44.46 -62.9)"/><path d="M498.69,346.83a7,7,0,0,1,3.25.8v1.92a5.38,5.38,0,1,0,0,8.6v1.92a7,7,0,0,1-3.25.8,7,7,0,1,1,0-14Z" transform="translate(-44.46 -62.9)"/><path d="M492.44,353.85a6.25,6.25,0,1,0,6.25-6.2A6.23,6.23,0,0,0,492.44,353.85Z" transform="translate(-44.46 -62.9)" style="fill:#fff"/><path d="M502.76,354.67a4.91,4.91,0,0,0-.2-1.62,3.78,3.78,0,0,0-2-2.45,5,5,0,0,0-2.58-.36.7.7,0,0,0-.68.69.68.68,0,0,0,.68.68,5.34,5.34,0,0,1,1.13,0s.1,0,.11,0-.16,0,0,0l.21,0a3.38,3.38,0,0,1,.42.13c.18.06-.12-.07.05,0l.16.08.15.09a1.36,1.36,0,0,0,.17.12s-.13-.11,0,0l.06.06.12.11c.08.07.15.2.24.26-.12-.08-.08-.11,0,0l0,.05.09.13a2.69,2.69,0,0,1,.16.29s0,.09.07.14-.07-.18,0-.07a.19.19,0,0,1,0,.07c0,.1.08.2.11.3a5,5,0,0,1,.12.53s0,.08,0,.11,0-.19,0-.05a1.79,1.79,0,0,1,0,.23,2.66,2.66,0,0,1,0,.49.69.69,0,0,0,1.38,0Z" transform="translate(-44.46 -62.9)" style="fill:#020202"/><g style="clip-path:url(#clip-path-4)"><path d="M457.18,437.63C462,400,494.8,372.31,516.94,380.32c17.62,6.38,25.34,41.7,27.93,57.31Z" transform="translate(-44.46 -62.9)" style="fill:#ffc0f9;stroke:#020106;stroke-miterlimit:10"/><rect x="497.39" y="372.43" width="21.71" height="10.76" rx="4.75" transform="translate(972.03 692.73) rotate(180)" style="fill:#f797de;stroke:#020106;stroke-miterlimit:10"/><line x1="472.48" y1="310.08" x2="472.48" y2="319.75" style="fill:none;stroke:#020106;stroke-miterlimit:10"/><line x1="470.04" y1="309.54" x2="470.04" y2="320.3" style="fill:none;stroke:#020106;stroke-miterlimit:10"/><line x1="467.47" y1="309.54" x2="467.47" y2="320.3" style="fill:none;stroke:#020106;stroke-miterlimit:10"/><line x1="464.9" y1="309.54" x2="464.9" y2="320.3" style="fill:none;stroke:#020106;stroke-miterlimit:10"/><line x1="462.34" y1="309.54" x2="462.34" y2="320.3" style="fill:none;stroke:#020106;stroke-miterlimit:10"/><line x1="459.77" y1="309.54" x2="459.77" y2="320.3" style="fill:none;stroke:#020106;stroke-miterlimit:10"/><line x1="457.2" y1="309.54" x2="457.2" y2="320.3" style="fill:none;stroke:#020106;stroke-miterlimit:10"/><line x1="454.63" y1="310.39" x2="454.63" y2="319.45" style="fill:none;stroke:#020106;stroke-miterlimit:10"/><path d="M473.08,350c1.15-.77,2.32,4,2.9,7.18-.21-2.61-.43-6.85.55-7.16s2.11,4.28,2.62,7.1c-.21-2.61-.47-7,.46-7.09,1.2-.1,2.09,4,2.59,7.09-.29-2.75-.45-6.09.49-6.28,1.63-.33,2.11,1.62,2.92,6.16s2.11,7.62,8.27,10.22c5.4,2.27,11.78,5.53,17.75,25.32l-17.42.83c0-.5,0-1-.08-1.5-1.2-18.49-11.6-17.84-16.52-21.57S470.86,351.48,473.08,350Z" transform="translate(-44.46 -62.9)" style="fill:#fff;stroke:#020106;stroke-miterlimit:10"/><path d="M482,437.63c7.8-10.08,13-28.37,12.23-44.73l17.22-1.07c.93,3,1.84,6.39,2.75,10.24,3.84,16.42,1.34,28.38-1.45,35.56Z" transform="translate(-44.46 -62.9)" style="fill:#ffc0f9;stroke:#020106;stroke-miterlimit:10"/><path d="M512.86,396.88H494.27c0-1.69,0-3.37-.14-5-.08-1.24-.2-2.38-.36-3.45l16.25-.78C511,390.32,511.92,393.37,512.86,396.88Z" transform="translate(-44.46 -62.9)" style="fill:#f797de;stroke:#020106;stroke-miterlimit:10"/><line x1="462.96" y1="324.86" x2="465.1" y2="333.99" style="fill:none;stroke:#020106;stroke-miterlimit:10"/><line x1="459.56" y1="325.02" x2="460.72" y2="333.99" style="fill:none;stroke:#020106;stroke-miterlimit:10"/><line x1="456.1" y1="325.02" x2="456.64" y2="333.99" style="fill:none;stroke:#020106;stroke-miterlimit:10"/><line x1="452.93" y1="325.34" x2="453.24" y2="333.74" style="fill:none;stroke:#020106;stroke-miterlimit:10"/><path d="M531.5,357.22c.71-4.12-3.29-8.55-2-9.6s8.7,5.66,6.61,12.43-9.69,8-7,18.08a84.86,84.86,0,0,0,5.58,13.79l-17.33.44c-1.13-12.14.07-21.05,1.46-24C520.49,365,530.8,361.35,531.5,357.22Z" transform="translate(-44.46 -62.9)" style="fill:#fff;stroke:#000;stroke-miterlimit:10"/><path d="M529.25,437.63c-3.32-9.44-9.31-27.39-11-38.47q-.6-3.92-.9-7.49l16.54-1.52a280.41,280.41,0,0,0,16.36,29.24A37,37,0,0,1,556,437.63Z" transform="translate(-44.46 -62.9)" style="fill:#ffc0f9;stroke:#020106;stroke-miterlimit:10"/><path d="M517.87,396.61c-.41-3.14-.67-6.1-.81-8.85h15.71c1.2,2.66,2.59,5.5,4.07,8.39Z" transform="translate(-44.46 -62.9)" style="fill:#f797de;stroke:#000;stroke-miterlimit:10"/><line x1="486.09" y1="325.02" x2="488.41" y2="333.71" style="fill:none;stroke:#000;stroke-miterlimit:10"/><line x1="482.76" y1="325.02" x2="483.88" y2="333.46" style="fill:#f797de;stroke:#000;stroke-miterlimit:10"/><line x1="479.73" y1="324.86" x2="480.16" y2="333.55" style="fill:none;stroke:#000;stroke-miterlimit:10"/><line x1="476.1" y1="324.86" x2="476.77" y2="333.63" style="fill:none;stroke:#000;stroke-miterlimit:10"/></g><rect x="407.92" y="265.5" width="127.57" height="77.21" rx="9.35" style="fill:none;stroke:#000;stroke-miterlimit:10"/><rect x="387.86" y="15.64" width="245.47" height="182.93" rx="13.61" style="fill:#8ddfff;stroke:#000;stroke-miterlimit:10;stroke-width:0.940035px"/><path d="M558,284.43H536.58A5.32,5.32,0,0,1,531.7,277l11.52-26.62,9.87-22.77a5.32,5.32,0,0,1,9.77,0l9.86,22.77L584.25,277a5.33,5.33,0,0,1-4.89,7.44Z" transform="translate(-44.46 -62.9)" style="fill:#8ddfff;stroke:#000;stroke-miterlimit:10;stroke-width:0.940035px"/><path d="M564.5,241a6.29,6.29,0,1,1-6.29-6.29A6.29,6.29,0,0,1,564.5,241Z" transform="translate(-44.46 -62.9)" style="fill:none;stroke:#000;stroke-miterlimit:10"/><rect x="402.52" y="29.69" width="220.16" height="134.53" rx="6.24" style="fill:#fff;stroke:#000;stroke-miterlimit:10"/><rect x="461.3" y="97.52" width="150.38" height="113.51" rx="13.45" transform="translate(1028.53 245.66) rotate(180)" style="fill:#fff;stroke:#000;stroke-miterlimit:10"/><path d="M476,107.91a2.55,2.55,0,1,1-2.54-2.57A2.56,2.56,0,0,1,476,107.91Z" transform="translate(-44.46 -62.9)" style="fill:#ff6eeb;stroke:#000;stroke-miterlimit:10"/><path d="M486.1,107.91a2.54,2.54,0,1,1-2.54-2.57A2.55,2.55,0,0,1,486.1,107.91Z" transform="translate(-44.46 -62.9)" style="fill:#55cfff;stroke:#000;stroke-miterlimit:10"/><path d="M496.23,107.91a2.54,2.54,0,1,1-2.54-2.57A2.56,2.56,0,0,1,496.23,107.91Z" transform="translate(-44.46 -62.9)" style="fill:#672ed6;stroke:#000;stroke-miterlimit:10"/><line x1="417.19" y1="54.02" x2="567.23" y2="54.02" style="fill:#fff;stroke:#000;stroke-miterlimit:10"/><rect x="530.68" y="101.59" width="28.01" height="17.46" style="fill:none;stroke:#9e88e5;stroke-miterlimit:10"/><line x1="534.12" y1="106.18" x2="554.45" y2="106.18" style="fill:none;stroke:#9e88e5;stroke-miterlimit:10"/><line x1="534.12" y1="109.36" x2="554.45" y2="109.36" style="fill:none;stroke:#9e88e5;stroke-miterlimit:10"/><line x1="534.12" y1="112.54" x2="554.45" y2="112.54" style="fill:none;stroke:#9e88e5;stroke-miterlimit:10"/><path d="M503.43,127.27H478.87a1.72,1.72,0,0,1-1.73-1.73h0a1.72,1.72,0,0,1,1.73-1.72h24.56a1.72,1.72,0,0,1,1.72,1.72h0A1.72,1.72,0,0,1,503.43,127.27Z" transform="translate(-44.46 -62.9)" style="fill:none;stroke:#9e88e5;stroke-miterlimit:10"/><line x1="434.45" y1="66.94" x2="458.22" y2="66.94" style="fill:none;stroke:#9e88e5;stroke-miterlimit:10"/><line x1="434.45" y1="70.12" x2="458.22" y2="70.12" style="fill:none;stroke:#9e88e5;stroke-miterlimit:10"/><line x1="434.45" y1="73.29" x2="458.22" y2="73.29" style="fill:none;stroke:#9e88e5;stroke-miterlimit:10"/><polyline points="462.46 63.19 471.44 63.19 484.36 75.03" style="fill:none;stroke:#9e88e5;stroke-miterlimit:10"/><path d="M601.42,129.27H576.87a1.72,1.72,0,0,1-1.73-1.73h0a1.72,1.72,0,0,1,1.73-1.72h24.55a1.72,1.72,0,0,1,1.73,1.72h0A1.72,1.72,0,0,1,601.42,129.27Z" transform="translate(-44.46 -62.9)" style="fill:none;stroke:#9e88e5;stroke-miterlimit:10"/><line x1="532.45" y1="68.94" x2="556.22" y2="68.94" style="fill:none;stroke:#9e88e5;stroke-miterlimit:10"/><line x1="532.45" y1="72.12" x2="556.22" y2="72.12" style="fill:none;stroke:#9e88e5;stroke-miterlimit:10"/><line x1="532.45" y1="75.29" x2="556.22" y2="75.29" style="fill:none;stroke:#9e88e5;stroke-miterlimit:10"/><line x1="532.45" y1="78.59" x2="556.22" y2="78.59" style="fill:none;stroke:#9e88e5;stroke-miterlimit:10"/><line x1="532.45" y1="81.77" x2="556.22" y2="81.77" style="fill:none;stroke:#9e88e5;stroke-miterlimit:10"/><line x1="532.45" y1="84.95" x2="556.22" y2="84.95" style="fill:none;stroke:#9e88e5;stroke-miterlimit:10"/><polyline points="512.47 72.69 521.15 65.58 528.84 65.58" style="fill:none;stroke:#9e88e5;stroke-miterlimit:10"/><polyline points="436.24 91.8 436.24 132.06 497.18 132.06" style="fill:none;stroke:#9e88e5;stroke-miterlimit:10"/><polygon points="436.24 92.03 434.06 92.03 435.15 90.14 436.24 88.26 437.33 90.14 438.41 92.03 436.24 92.03" style="fill:#9e88e5"/><polygon points="496.53 132.06 496.53 129.89 498.41 130.97 500.29 132.06 498.41 133.15 496.53 134.24 496.53 132.06" style="fill:#9e88e5"/><polyline points="431.2 128.74 446.01 115.38 458.2 128.49 473.58 100.33 484.82 127.81" style="fill:none;stroke:#ed37e0;stroke-miterlimit:10"/><path d="M470.57,171.77s.54-.56,1.44-1.38" transform="translate(-44.46 -62.9)" style="fill:none;stroke:#57a7ff;stroke-miterlimit:10"/><path d="M475,167.93c3.94-3,9.63-6,13.25-2.52,6,5.77,4.57,10.21,16.6,7.62,11.31-2.44,25.19.93,29.27,20.23" transform="translate(-44.46 -62.9)" style="fill:none;stroke:#57a7ff;stroke-miterlimit:10;stroke-dasharray:3.8538713455200195,3.8538713455200195"/><path d="M534.46,195.15q.16,1,.3,2" transform="translate(-44.46 -62.9)" style="fill:none;stroke:#57a7ff;stroke-miterlimit:10"/><g style="clip-path:url(#clip-path-5)"><path d="M660.12,149.06s37,14.46,56.59,77l-25.05,12.43-18.55-47.34Z" transform="translate(-44.46 -62.9)" style="fill:#672ed6;stroke:#000;stroke-miterlimit:10"/><path d="M549.84,161.44s-6.3-4.05-5.52-6a1.75,1.75,0,0,1,2.62-.85s-1.88-1.15-1-2.42a1.74,1.74,0,0,1,2.05-.81s-1.33-1.95-.05-2.67a5.18,5.18,0,0,1,3.21-.27,8.12,8.12,0,0,1-.7-2.19c0-.57.86-1.84,3.55-1.22s8.43,3.82,10.37,4.81,4.12,3.27,4.19,2.53.89-5.46,2.72-6.84,2.57-1.6,2.89,1,.24,9.92,3.79,15.3,4.76,9,8.51,13.32,5.47,6.56,5.47,6.56L575,195.49s-16.4-24.68-16.52-24.84S553.07,164,549.84,161.44Z" transform="translate(-44.46 -62.9)" style="fill:#fff"/><path d="M546.38,154.48s-2.1-3.42,1.83-3,9.25,4.05,11.82,6" transform="translate(-44.46 -62.9)" style="fill:none;stroke:#000;stroke-miterlimit:10"/><path d="M564.31,165.2s-1.44-4.39,4.83-6.21c0,0-2.39-9.32,2.13-13.46s2.06,6.52,5.08,13,6.45,12.76,9.67,16.17,6,7.14,6,7.14l-17.09,13.73s-5.84-8.88-14.85-22.66-17-14.08-15.76-17.46c1.49-4.16,12.11,5.64,12.11,5.64" transform="translate(-44.46 -62.9)" style="fill:none;stroke:#000;stroke-miterlimit:10"/><path d="M548.21,151.48s-2-2.49.54-3.14a4.28,4.28,0,0,1,1.58,0c3.09.4,8.23,3,12,5.9" transform="translate(-44.46 -62.9)" style="fill:none;stroke:#000;stroke-miterlimit:10"/><path d="M568.57,153.08s-7.36-6.87-15.75-8c-3-.41-2.91,2.62.07,3.88" transform="translate(-44.46 -62.9)" style="fill:none;stroke:#000;stroke-miterlimit:10"/><path d="M604.24,190.37a52.78,52.78,0,0,1-7.13-6,134.83,134.83,0,0,1-14-16.51L564.5,183.83s20.27,31.45,32.44,35.39,40-27.72,40-27.72l2.19-41.63a55.07,55.07,0,0,0-9.43,6.6c-6.89,6.23-18.94,17.35-32.58,27.95" transform="translate(-44.46 -62.9)" style="fill:#672ed6;stroke:#000;stroke-miterlimit:10"/><path d="M589.14,175.72c-3.62-4.36-6.06-7.81-6.06-7.81L564.5,183.83s2.35,3.65,5.94,8.62Z" transform="translate(-44.46 -62.9)" style="fill:#fff;stroke:#000;stroke-miterlimit:10"/><path d="M584.58,174a1.27,1.27,0,1,1-1.26-1.27A1.26,1.26,0,0,1,584.58,174Z" transform="translate(-44.46 -62.9)" style="fill:#fff;stroke:#000;stroke-miterlimit:10"/><path d="M689.6,228.86c0-.35,0-7.44,0-7.79,0-41-17.44-74.23-39-74.23s-39,33.23-39,74.23v7.79Z" transform="translate(-44.46 -62.9)" style="fill:#672ed6"/><line x1="606.06" y1="102.55" x2="606.06" y2="165.96" style="fill:none;stroke:#000;stroke-miterlimit:10"/><path d="M650.64,166.11l15-13.55c-4.63-3.68-9.7-5.72-15-5.72-5.14,0-10.52,2.26-15,5.72Z" transform="translate(-44.46 -62.9)" style="fill:#fff;stroke:#000;stroke-miterlimit:10"/><path d="M617.28,182.72a128.11,128.11,0,0,0-5.6,38.35v7.79H689.6c0-.35,0-7.44,0-7.79a127.69,127.69,0,0,0-5.84-39.13" transform="translate(-44.46 -62.9)" style="fill:none;stroke:#000;stroke-miterlimit:10"/><path d="M665.67,152.56c-4.62-3.69-9.7-5.72-15-5.72s-10.36,2-15,5.68" transform="translate(-44.46 -62.9)" style="fill:none;stroke:#000;stroke-miterlimit:10"/></g><rect x="402.52" y="29.69" width="220.16" height="134.53" rx="6.24" style="fill:none;stroke:#000;stroke-miterlimit:10"/><path d="M666.11,156.58l-8.29-12.45a12.49,12.49,0,0,0-14.61,0l-8.28,12.45a6.17,6.17,0,0,0,1.72,8.57l1.18.79a6.18,6.18,0,0,0,8.58-1.72l4.11-6.16,4.1,6.16a6.18,6.18,0,0,0,8.58,1.72l1.19-.79A6.18,6.18,0,0,0,666.11,156.58Z" transform="translate(-44.46 -62.9)" style="fill:#fefeff;stroke:#000;stroke-miterlimit:10"/><path d="M651.85,155.11a1.21,1.21,0,1,1-1.21-1.21A1.21,1.21,0,0,1,651.85,155.11Z" transform="translate(-44.46 -62.9)" style="fill:#fefeff;stroke:#000;stroke-miterlimit:10"/><path d="M667,125.69a6.46,6.46,0,1,1-6.46-6.41A6.43,6.43,0,0,1,667,125.69Z" transform="translate(-44.46 -62.9)" style="fill:none;stroke:#000;stroke-miterlimit:10;stroke-width:2px"/><path d="M638.84,105.8H647c5.39,0,9.81,5,9.81,11.17v12.59c0,.35,0,.7,0,1.05a4.83,4.83,0,0,1,.14,1.15v15.75a5.06,5.06,0,0,1-5.05,5.05h-3.22a5.07,5.07,0,0,1-5.06-5.05v-6.78h-4.69c-5.4,0-9.81-5-9.81-11.17V117C629,110.83,633.44,105.8,638.84,105.8Z" transform="translate(-44.46 -62.9)" style="fill:#fff;stroke:#000;stroke-miterlimit:10"/><path d="M654.64,125.48l-1.5-9.85s-27.27,3.42-36.11-9.83.45-18.49,5-17.74,9.75,7.19,9.75,7.19-4.18-5.69,0-6.59,8.8,3.44,11.21,7.94c0,0,18-1.68,24,9.2s1.16,18.59-10,29.83l-.74-6.28Z" transform="translate(-44.46 -62.9)"/><path d="M685.92,93.86a11.55,11.55,0,1,1-11.55-11.55A11.55,11.55,0,0,1,685.92,93.86Z" transform="translate(-44.46 -62.9)"/><path d="M652.2,127.42a4.67,4.67,0,1,1-4.67-4.66A4.67,4.67,0,0,1,652.2,127.42Z" transform="translate(-44.46 -62.9)" style="fill:#e4b0c8"/><path d="M630.28,123.69a3.75,3.75,0,0,0-.82.1v4.84a9.76,9.76,0,0,0,.07,2.1,4.74,4.74,0,0,0,.75.06,3.55,3.55,0,1,0,0-7.1Z" transform="translate(-44.46 -62.9)" style="fill:#e4b0c8"/><path d="M643.78,120.91a1.66,1.66,0,1,1-1.65-1.66A1.65,1.65,0,0,1,643.78,120.91Z" transform="translate(-44.46 -62.9)" style="fill:#141414"/><path d="M632.93,120.67a1.42,1.42,0,1,1-1.41-1.42A1.41,1.41,0,0,1,632.93,120.67Z" transform="translate(-44.46 -62.9)" style="fill:#141414"/><path d="M634.51,127.45s.84,2.43,2.6,2.59,3.14-1.78,3.23-3.3Z" transform="translate(-44.46 -62.9)" style="fill:#f7f6f6"/><path d="M634,127.6a5.23,5.23,0,0,0,1.67,2.43,3,3,0,0,0,4.2-.73,4.63,4.63,0,0,0,1-2.56.55.55,0,0,0-.56-.56l-5.1.62-.73.09a.57.57,0,0,0-.55.56c0,.27.25.6.55.56l5.11-.63.72-.09-.55-.55a3.16,3.16,0,0,1-2,2.7c-1.07.28-1.85-.55-2.34-1.42-.11-.19-.2-.39-.3-.59s0,.12,0,0l0-.08,0-.07C634.82,126.63,633.74,126.92,634,127.6Z" transform="translate(-44.46 -62.9)" style="fill:#141414"/><path d="M650.52,119.94c0,3.57-2.59,6.47-5.79,6.47s-5.79-2.9-5.79-6.47,2.59-6.47,5.79-6.47S650.52,116.37,650.52,119.94Z" transform="translate(-44.46 -62.9)" style="fill:none;stroke:#672ed6;stroke-miterlimit:10"/><ellipse cx="585.85" cy="56.23" rx="4.76" ry="5.78" style="fill:none;stroke:#672ed6;stroke-miterlimit:10"/><polygon points="592.48 56.38 592.48 62 589.53 60.21 592.48 56.38" style="fill:#d96980"/><path d="M634.92,120.86s2.33-1,4,.42" transform="translate(-44.46 -62.9)" style="fill:none;stroke:#672ed6;stroke-miterlimit:10"/><path d="M667,125.69a6.46,6.46,0,1,1-6.46-6.41A6.43,6.43,0,0,1,667,125.69Z" transform="translate(-44.46 -62.9)" style="fill:#fff"/><path d="M657.72,126.54c0-.14,0-.28,0-.42s0-.13,0-.19a.41.41,0,0,0,0-.11c0-.18,0,.18,0,0a4.52,4.52,0,0,1,.11-.53,2.29,2.29,0,0,1,.08-.28c0-.05,0-.1,0-.15l0-.07c0-.11,0,0,0,.06.12-.19.2-.41.33-.6l0,0c0-.08.07,0,0,0a.64.64,0,0,0,.1-.13,3.19,3.19,0,0,1,.26-.26l.06,0c.06-.06.1,0,0,0a.71.71,0,0,0,.14-.1,3.24,3.24,0,0,1,.36-.2s.14-.06,0,0,0,0,.06,0l.24-.07.25-.07h.09l.09,0h0a.72.72,0,0,1,.29,0h.31a5.07,5.07,0,0,1,.68,0,.69.69,0,1,0,0-1.38,4.28,4.28,0,0,0-3.84,1.29,4.9,4.9,0,0,0-1,2.7,5.42,5.42,0,0,0,0,.57.7.7,0,0,0,.69.69.7.7,0,0,0,.68-.69Z" transform="translate(-44.46 -62.9)" style="fill:#090909"/><path d="M547.67,63.4h40a9.26,9.26,0,0,1,9.26,9.25v39.93l-9.41-8.64H547.67a9.25,9.25,0,0,1-9.25-9.25v-22A9.25,9.25,0,0,1,547.67,63.4Z" transform="translate(-44.46 -62.9)" style="fill:#fff;stroke:#000;stroke-miterlimit:10"/><path d="M444.7,208.63H398.55a10.68,10.68,0,0,0-10.68,10.68v46.08l10.86-10h46a10.68,10.68,0,0,0,10.68-10.68V219.31A10.68,10.68,0,0,0,444.7,208.63Z" transform="translate(-44.46 -62.9)" style="fill:#fff;stroke:#000;stroke-miterlimit:10"/><path d="M411.06,232.88a4.64,4.64,0,1,1-4.64-4.64A4.64,4.64,0,0,1,411.06,232.88Z" transform="translate(-44.46 -62.9)" style="fill:#fff;stroke:#000;stroke-miterlimit:10"/><path d="M427.21,232.88a4.64,4.64,0,1,1-4.64-4.64A4.64,4.64,0,0,1,427.21,232.88Z" transform="translate(-44.46 -62.9)" style="fill:#fff;stroke:#000;stroke-miterlimit:10"/><path d="M443.36,232.88a4.64,4.64,0,1,1-4.64-4.64A4.64,4.64,0,0,1,443.36,232.88Z" transform="translate(-44.46 -62.9)" style="fill:#fff;stroke:#000;stroke-miterlimit:10"/><path d="M458,193.43H411.85a10.68,10.68,0,0,0-10.68,10.68v46.08l10.86-10h46a10.68,10.68,0,0,0,10.68-10.68V204.11A10.68,10.68,0,0,0,458,193.43Z" transform="translate(-44.46 -62.9)" style="fill:#fff;stroke:#000;stroke-miterlimit:10"/><path d="M424.36,217.68a4.64,4.64,0,1,1-4.64-4.64A4.64,4.64,0,0,1,424.36,217.68Z" transform="translate(-44.46 -62.9)" style="fill:#fff;stroke:#000;stroke-miterlimit:10"/><path d="M440.51,217.68a4.64,4.64,0,1,1-4.64-4.64A4.64,4.64,0,0,1,440.51,217.68Z" transform="translate(-44.46 -62.9)" style="fill:#fff;stroke:#000;stroke-miterlimit:10"/><path d="M456.66,217.68A4.64,4.64,0,1,1,452,213,4.64,4.64,0,0,1,456.66,217.68Z" transform="translate(-44.46 -62.9)" style="fill:#fff;stroke:#000;stroke-miterlimit:10"/><path d="M238.5,105.14H195.92a9.86,9.86,0,0,0-9.86,9.85v42.52l10-9.2H238.5a9.85,9.85,0,0,0,9.85-9.85V115A9.85,9.85,0,0,0,238.5,105.14Z" transform="translate(-44.46 -62.9)" style="fill:#fff;stroke:#000;stroke-miterlimit:10"/><path d="M207.46,127.51a4.28,4.28,0,1,1-4.28-4.28A4.28,4.28,0,0,1,207.46,127.51Z" transform="translate(-44.46 -62.9)" style="fill:#fff;stroke:#000;stroke-miterlimit:10"/><path d="M222.36,127.51a4.28,4.28,0,1,1-4.28-4.28A4.28,4.28,0,0,1,222.36,127.51Z" transform="translate(-44.46 -62.9)" style="fill:#fff;stroke:#000;stroke-miterlimit:10"/><path d="M237.26,127.51a4.28,4.28,0,1,1-4.28-4.28A4.28,4.28,0,0,1,237.26,127.51Z" transform="translate(-44.46 -62.9)" style="fill:#fff;stroke:#000;stroke-miterlimit:10"/><path d="M621.42,302.21H578.83a9.86,9.86,0,0,0-9.85,9.86v42.51l10-9.2h42.42a9.85,9.85,0,0,0,9.85-9.85V312.07A9.86,9.86,0,0,0,621.42,302.21Z" transform="translate(-44.46 -62.9)" style="fill:#fff;stroke:#000;stroke-miterlimit:10"/><path d="M590.38,324.58a4.28,4.28,0,1,1-4.28-4.28A4.28,4.28,0,0,1,590.38,324.58Z" transform="translate(-44.46 -62.9)" style="fill:#fff;stroke:#000;stroke-miterlimit:10"/><circle cx="556.54" cy="261.68" r="4.28" style="fill:#fff;stroke:#000;stroke-miterlimit:10"/><path d="M620.18,324.58a4.29,4.29,0,1,1-4.28-4.28A4.28,4.28,0,0,1,620.18,324.58Z" transform="translate(-44.46 -62.9)" style="fill:#fff;stroke:#000;stroke-miterlimit:10"/><path d="M111.11,267.52a16.48,16.48,0,0,0-7.43-11.17,17.76,17.76,0,0,0-19.23,0A16.43,16.43,0,0,0,77,267.52c-1.79,10,7,15.34,8.64,17.35a7.14,7.14,0,0,1,1.65,2,13,13,0,0,1,.44,2.28h12.61a13,13,0,0,1,.44-2.28,7.33,7.33,0,0,1,1.65-2C104.11,282.86,112.89,277.49,111.11,267.52Z" transform="translate(-44.46 -62.9)" style="fill:#fff0a4;stroke:#000;stroke-miterlimit:10"/><path d="M91.42,290.23s0-9.46-.69-10.81-3.88-6.07-4.42-7.07.57-2.15,1.42-.68c.73,1.26,3.82,5.57,4.51,7.34s1.29,11.69,1.29,11.69Z" transform="translate(-44.46 -62.9)" style="fill:#fff"/><path d="M96.66,290.23s0-9.46.7-10.81,3.87-6.07,4.41-7.07-.56-2.15-1.41-.68c-.73,1.26-3.82,5.57-4.51,7.34s-1.29,11.69-1.29,11.69Z" transform="translate(-44.46 -62.9)" style="fill:#fff"/><path d="M101.24,272a8,8,0,0,1-5.07.18l0,0a3.88,3.88,0,0,1-4.54-.38,15,15,0,0,1-4.37.75v-.91a14.92,14.92,0,0,0,3.62-.52c-.94-1-1.14-2.12-.52-2.87a1.71,1.71,0,0,1,2.43-.41,2.11,2.11,0,0,1,.41,2.86,2.37,2.37,0,0,1-.64.62,3.17,3.17,0,0,0,2.67.41,2.5,2.5,0,0,1-.69-.58,1.55,1.55,0,0,1,.06-2,1.67,1.67,0,0,1,1.68-.82,1.57,1.57,0,0,1,1.16,1.29,2.41,2.41,0,0,1-.49,1.84,7.14,7.14,0,0,0,4-.25Zm-5.67-2.67a1.69,1.69,0,0,0-.32.33c-.35.49-.22.77-.07.95a1.91,1.91,0,0,0,.83.57,1.56,1.56,0,0,0,.52-1.37.74.74,0,0,0-.49-.61A.62.62,0,0,0,95.57,269.36Zm-3.82,1.46a1.76,1.76,0,0,0,.66-.54,1.2,1.2,0,0,0-.22-1.65c-.38-.29-.81-.19-1.19.25s0,1.21.52,1.71C91.59,270.67,91.67,270.74,91.75,270.82Z" transform="translate(-44.46 -62.9)" style="fill:#fff"/><path d="M94,288.15A19.43,19.43,0,0,1,87.19,287l.12.2c.46.94,1,8.79,2.26,11.82a2.39,2.39,0,0,0,.72,1.08,8.45,8.45,0,0,0,7.51,0,2.31,2.31,0,0,0,.71-1.08c1.24-3,1.81-10.88,2.27-11.82a1.32,1.32,0,0,1,.12-.2A19.45,19.45,0,0,1,94,288.15Z" transform="translate(-44.46 -62.9)" style="fill:#fff;stroke:#000;stroke-miterlimit:10"/><path d="M94,291.69a21.72,21.72,0,0,0,6.11-.89c.13-.93.24-1.77.35-2.41a18.17,18.17,0,0,1-12.91,0c.1.64.22,1.48.35,2.41A21.7,21.7,0,0,0,94,291.69Z" transform="translate(-44.46 -62.9)"/><path d="M94,295.69a22.42,22.42,0,0,0,5.47-.7c.14-.79.27-1.59.38-2.38a18.27,18.27,0,0,1-11.69,0c.11.79.24,1.59.38,2.38A22.28,22.28,0,0,0,94,295.69Z" transform="translate(-44.46 -62.9)"/><path d="M89,296.86a14.86,14.86,0,0,0,.62,2.14l.12.25a21.3,21.3,0,0,0,8.71,0,1.89,1.89,0,0,0,.11-.25,14.76,14.76,0,0,0,.63-2.14A18.21,18.21,0,0,1,89,296.86Z" transform="translate(-44.46 -62.9)"/><rect x="48.07" y="173.42" width="3.67" height="12.17" rx="1.82" style="fill:#fff;stroke:#000;stroke-miterlimit:10"/><path d="M107.47,250.84l0,0a1.82,1.82,0,0,1-.75-2.46l4-7.52a1.84,1.84,0,0,1,2.47-.74l0,0a1.81,1.81,0,0,1,.74,2.46l-4,7.52A1.81,1.81,0,0,1,107.47,250.84Z" transform="translate(-44.46 -62.9)" style="fill:#fff;stroke:#000;stroke-miterlimit:10"/><path d="M81.27,250.84l0,0a1.81,1.81,0,0,0,.74-2.46l-4-7.52a1.82,1.82,0,0,0-2.46-.74l0,0a1.82,1.82,0,0,0-.75,2.46l4,7.52A1.83,1.83,0,0,0,81.27,250.84Z" transform="translate(-44.46 -62.9)" style="fill:#fff;stroke:#000;stroke-miterlimit:10"/><path d="M71.58,260.85v0a1.81,1.81,0,0,1-2.15,1.41l-8.35-1.75a1.84,1.84,0,0,1-1.41-2.16v0a1.82,1.82,0,0,1,2.16-1.41l8.34,1.75A1.83,1.83,0,0,1,71.58,260.85Z" transform="translate(-44.46 -62.9)" style="fill:#fff;stroke:#000;stroke-miterlimit:10"/><path d="M71.12,274.48v0a1.81,1.81,0,0,0-2.25-1.24l-8.19,2.4a1.82,1.82,0,0,0-1.23,2.26v0a1.81,1.81,0,0,0,2.25,1.24l8.19-2.4A1.83,1.83,0,0,0,71.12,274.48Z" transform="translate(-44.46 -62.9)" style="fill:#fff;stroke:#000;stroke-miterlimit:10"/><path d="M117.16,260.85v0a1.82,1.82,0,0,0,2.16,1.41l8.34-1.75a1.82,1.82,0,0,0,1.41-2.16v0a1.81,1.81,0,0,0-2.15-1.41l-8.35,1.75A1.82,1.82,0,0,0,117.16,260.85Z" transform="translate(-44.46 -62.9)" style="fill:#fff;stroke:#000;stroke-miterlimit:10"/><path d="M117.61,274.48v0a1.83,1.83,0,0,1,2.26-1.24l8.18,2.4a1.82,1.82,0,0,1,1.24,2.26v0a1.82,1.82,0,0,1-2.26,1.24l-8.18-2.4A1.82,1.82,0,0,1,117.61,274.48Z" transform="translate(-44.46 -62.9)" style="fill:#fff;stroke:#000;stroke-miterlimit:10"/><path d="M549.2,134.54h-1.49v-1.43H544.8v1.41h0v0h-1.47V136h-1.48v-1.42h-1.47v0h0v-1.41h-2.91v1.41h0l0,0H536V136h-1.32v4.1H536v1.42h1.47v1.41h1.46v1.41h1.47v1.41h1.47v1.37h1.48v-1.37h1.47V144.3h1.47v-1.41h1.46v-1.42h1.47v-1.42h1.32V136H549.2v-1.41Zm-4.4,9.76Zm1.46-1.42Z" transform="translate(-44.46 -62.9)" style="fill:url(#linear-gradient)"/><path d="M581.24,76.83h-2.35v-2.6h-2.64V71.59h-5.32v2.64H568.3v2.65h-2.64V74.23H563V71.54h-5.23v2.65h0l0,0h-2.64v2.64h-2.38v7.64h2.38v2.65h2.64V89.8h2.62v2.62H563v2.63h2.64v2.56h2.64V95.05H571V92.42h2.64V89.8h2.62V87.17h2.66V84.51h2.37V76.83Zm-20.85,13ZM563,92.41ZM565.66,95Zm2.64,0Zm5.27-7.81v2.62H571v2.63H568.3V76.88H571V74.25h5.28v2.64h2.62v7.59h-2.67v2.68Z" transform="translate(-44.46 -62.9)" style="fill:url(#linear-gradient-2)"/></svg>