<svg id="Capa_1" data-name="Capa 1" xmlns="http://www.w3.org/2000/svg" viewBox="0 0 362.43 512"><defs><style>.cls-1{fill:#78c2a4;}.cls-2{fill:#ffafc3;}.cls-3{fill:#ff7387;}.cls-4{fill:#ff91a5;}.cls-5{fill:#ff5064;}.cls-6{fill:#d24150;}</style></defs><path class="cls-1" d="M256,445.93a8.29,8.29,0,0,1-3.69-.87l-33-16.51a8.26,8.26,0,0,1,7.39-14.78l33,16.52a8.26,8.26,0,0,1-3.7,15.64Z" transform="translate(-74.79)"/><path class="cls-1" d="M256,495.48a8.26,8.26,0,0,1-3.7-15.64l33-16.52a8.26,8.26,0,1,1,7.39,14.78l-33,16.51A8.29,8.29,0,0,1,256,495.48Z" transform="translate(-74.79)"/><path class="cls-1" d="M297.32,355.1a41.3,41.3,0,1,0-65,33.75,16.07,16.07,0,0,1,7.19,13V494.6c0,8.23,5.62,15.85,13.74,17.17a16.52,16.52,0,0,0,19.29-16.29V401.85a15.67,15.67,0,0,1,7-12.83A41.18,41.18,0,0,0,297.32,355.1Z" transform="translate(-74.79)"/><path class="cls-1" d="M256,363.36c-154.9,40.4-178-73-181.23-116.18a5.35,5.35,0,0,1,9.45-3.8C171.67,346.84,256,346.84,256,346.84v16.52Z" transform="translate(-74.79)"/><path class="cls-1" d="M256,363.36c154.9,40.4,178-73,181.23-116.18a5.35,5.35,0,0,0-9.45-3.8C340.33,346.84,256,346.84,256,346.84v16.52Z" transform="translate(-74.79)"/><path class="cls-2" d="M280.8,31.62C259.12-5.16,235.38-4.13,218.35,13.94l37.16,57.8Z" transform="translate(-74.79)"/><path class="cls-3" d="M196.5,0C220.93,0,256,49.55,280.8,107.36L256,132.13,173.45,41.29C165.19,16.52,182.74,0,196.5,0Z" transform="translate(-74.79)"/><path class="cls-4" d="M315.55,0C291.12,0,256,49.55,231.25,107.36L256,132.13l82.58-90.84C346.86,16.52,329.32,0,315.55,0Z" transform="translate(-74.79)"/><path class="cls-3" d="M226.8,159.36c20.12-32.57,64.69-86.82,100.87-115.25,25-19.68,48.35-11.4,53.26,5.44,4.86,16.66-8.47,25.87-20.24,37.64a16.71,16.71,0,0,0-3.55,18.33c15.38,36.27,31,81.87,31,117.45A132.13,132.13,0,0,1,256,355.1C200.4,355.1,156.93,272.52,226.8,159.36Z" transform="translate(-74.79)"/><path class="cls-5" d="M285.25,159.36c-20.12-32.57-64.69-86.82-100.86-115.25-25-19.68-48.36-11.4-53.27,5.44-4.86,16.66,8.47,25.87,20.24,37.64a16.68,16.68,0,0,1,3.55,18.33c-15.38,36.27-31,81.87-31,117.45A132.13,132.13,0,0,0,256,355.1C311.65,355.1,355.12,272.52,285.25,159.36Z" transform="translate(-74.79)"/><path class="cls-6" d="M123.9,223a132.13,132.13,0,0,0,79.94,121.38c-64.33-67.45-17.49-147.19-12.33-173.51,6.57-33.49-.52-50.07-40.15-83.64a16.66,16.66,0,0,1,3.55,18.32C139.53,141.79,123.9,187.4,123.9,223Z" transform="translate(-74.79)"/></svg>