<?xml version="1.0" encoding="utf-8"?>
<!-- Generator: Adobe Illustrator 25.1.0, SVG Export Plug-In . SVG Version: 6.00 Build 0)  -->
<svg version="1.1" id="Layer_1" xmlns="http://www.w3.org/2000/svg" xmlns:xlink="http://www.w3.org/1999/xlink" x="0px" y="0px"
	 viewBox="0 0 463 463" style="enable-background:new 0 0 463 463;" xml:space="preserve">
<style type="text/css">
	.st0{fill:#FFCCFB;}
</style>
<path class="st0" d="M427.2,231.2c2.8-6.3,5.6-12.6,8.2-18.4c14.7-32.8,14.6-33.1,13.7-36.6c-11.3-46.4-59.1-68.1-71.1-73
	c-6.3-15-18.2-31.9-40.4-44.6C301,37.5,286.9,6,286.8,5.7c-1-2.3-3.1-4-5.6-4.4C280.3,1.1,261-2,238.4,2.2
	c-19.8,3.7-35.9,11.8-47.9,23.9c-12.9-10.4-30.4-14.2-42.9-15.6c-12.4-1.4-24.5-0.8-27.4,0.2c-2.4,0.8-4.4,2.9-5,5.4
	c-1.8,7.6-7.4,16.2-12.8,24.5C93.8,53.7,85,67.2,86.9,81.7c-30.4,16-62.6,46.3-67.5,51c-0.9,0.8-1.5,1.9-1.9,3
	c-0.3,0.7-6.2,18.3-9.3,41.6c-4.2,31.9-0.9,58.2,9.6,78.2c0.3,0.6,0.7,1.2,1,1.7c-9.6,17.6-5.9,33.7-2.6,47.8
	c2.6,11,4.8,20.6,1.2,30.1c-0.8,2.2-0.6,4.7,0.7,6.6c2.7,4.3,37.7,29.3,74.5,33.1c0.6,2.5,1.4,5,2.4,7.5
	c8.4,20.4,28.7,36.7,60.4,48.4c16.2,6,27.7,11.7,37.8,16.7c12.5,6.2,23.3,11.6,37.5,14.3c4,0.8,8,1.2,12.1,1.2
	c19.2,0,39.6-8.5,58.5-24.6c3.8-3.2,9.2-6.4,14.9-9.7c19.7-11.5,46.6-27.2,45-67.3c3.4-1.9,6.8-3.9,10.1-6.2c0.5,0.5,1,0.9,1.7,1.3
	c3,1.7,6,2.5,8.9,2.5c13.2,0,26.2-15.3,38.8-30.1c9.4-11.1,20.1-23.8,28.8-27.2c2.2-0.9,6.1-3.4,6.8-10.2
	C457.9,277.2,445.2,245.5,427.2,231.2L427.2,231.2z M434,178c-1.6,4.4-7.3,17.2-12.4,28.7c-7.6,17-14.2,32-18.9,43.6
	c-0.8-2.6-1.7-5.1-2.5-7.7c-4.2-12.7-8.5-25.8-10.2-38.8c-1.6-12.3-4.9-22.8-10-31.6c5.6-14.6,6.9-32.7,3.7-49.6
	C400,131.1,426.1,148.9,434,178z M336.7,356.8c-15.2,7.1-32.4,15.2-49.9,30.6c-22.6,19.8-51.2,13-69.8-2.2c5-3.6,9.8-8.1,14.1-13.2
	c17.6-2.2,35.6-8.5,52.6-18.7c30.9-18.5,54.5-47.7,64.6-80.1c13.1-41.7-0.9-87.5-23-116.6c7.9,0.2,19.5,1.9,29.6,9.4
	c11,8.1,17.8,21.5,20.2,39.7c1.9,14.4,6.4,28.2,10.8,41.6c6.8,20.7,13.3,40.3,6.9,56.2C379.8,336.5,360.7,345.4,336.7,356.8
	L336.7,356.8z M97.9,314c-6.4-13.9-14.3-23-21.4-31.1c-9.7-11.1-17.3-19.9-19.8-38.2c-5.7-42.5,21-83.6,49.1-100.6
	c7.7-4.7,15-7.2,21-7.4C110.6,154.9,92.4,185,93,214.5c0.4,17.8,7.5,32.5,21.1,43.6c3.6,2.9,7.3,5.5,11.2,7.8
	c-4.3,13.2-2.3,32.8,5.4,50.7c6.5,15.1,22.9,42,59.2,52.5c6.1,1.8,12.4,2.9,18.9,3.4c-10.7,8.1-23,11.5-36,9.9
	C144.5,378.9,115.8,352.7,97.9,314L97.9,314z M137.5,73.7c12.1-9.1,37-21.7,68.6-3.2c22.8,13.4,44.9,18.5,62.7,22.6
	c24.5,5.6,37.5,9.3,42.5,24.2c3.3,9.9-3.2,16.5-6.3,18.9c-15.5-11.2-32.1-14.5-46.7-9.2c-7.6-7-16.6-12.5-26.8-16.4
	c-30.6-11.7-65.8-6.3-91.1,13.5c-9.3-4-21.1-3-33.6,2.7C107.2,108.4,121.8,85.5,137.5,73.7L137.5,73.7z M194.2,354.7
	c-30.4-8.8-44.2-31.4-49.6-44.1c-6.5-15.1-7.6-29.6-5.4-38.4c3.3,1.2,6.7,2.1,10.1,2.7c7.9,19.6,28.1,35.4,51.6,39.8
	c4.6,0.9,9.1,1.3,13.7,1.3c23.8,0,46.8-11.7,64.4-33.4c20.5-25.1,39.4-59.6,5.2-104.5c-2-14.5-7.1-27.5-14.8-38.4
	c13.8-1.7,26.4,7.6,33.3,13.9c25.8,23.8,44.6,73.3,31.4,115.1c-9.1,28.9-30.3,55-58,71.7C248.8,356.7,219,361.9,194.2,354.7
	L194.2,354.7z M146.1,138.6c21.1-18.6,53.2-24.3,79.9-14.1c10.7,4.1,27.2,13.3,36.7,33.3c-11.9-8-25.7-13-40.1-14.3
	c-18.9-1.7-36.7,3.6-48.9,14.4c-22,19.7-30.1,43.9-22.2,66.3c5.6,15.9,19,28.7,33.6,33c-15.1,5.5-38.2,8.1-61.5-10.9
	c-10.1-8.2-15.3-19.1-15.6-32.3C107.6,194.3,120.8,161,146.1,138.6L146.1,138.6z M199.3,245.7c-4.5-3.6-7.2-8.8-7.8-14.5
	s1.1-11.3,4.7-15.8s8.8-7.2,14.5-7.8c0.7-0.1,1.5-0.1,2.2-0.1c4.9,0,9.7,1.7,13.6,4.8c9.2,7.5,10.6,21.1,3.1,30.3
	c-3.6,4.5-8.8,7.2-14.5,7.8C209.4,251,203.8,249.3,199.3,245.7L199.3,245.7z M212.8,265.5c1.3,0,2.5-0.1,3.8-0.2
	c9.7-1,18.5-5.7,24.6-13.3c12.7-15.6,10.4-38.7-5.3-51.4c-7.6-6.2-17.1-9-26.8-8c-9.7,1-18.5,5.7-24.6,13.3c-6.2,7.6-9,17.1-8,26.8
	c0.1,1.1,0.3,2.2,0.5,3.3c-5-4.4-9.1-10.2-11.4-16.7c-5.9-16.7,0.5-34.5,18-50.2c9.1-8.1,22.8-12,37.6-10.7
	c19.3,1.7,37.5,11.6,49.7,27.2c27.5,35,18.4,60.2-3.8,87.4c-23.9,29.3-50.1,29.4-63.7,26.9c-15.6-2.9-29.3-12-36.9-23.8
	c2.3-0.1,4.7-0.3,7-0.7c7.5-1.1,18.9-3.8,31.2-11C207.5,265.2,210.1,265.5,212.8,265.5L212.8,265.5z M240.7,17
	c14.7-2.8,28-2,34.2-1.4c5.3,10,21.7,36.7,55.2,56c24.7,14.3,34.3,34.5,37.9,49c3.5,13.8,2.9,27,0.6,37.2c-1.5-1.4-3.1-2.7-4.8-3.9
	c-15.7-11.6-33.8-12.6-43.4-12.2c5.3-6.9,9.1-16.9,5-29.1c-7.9-23.6-29-28.4-53.3-34c-17.6-4.1-37.6-8.7-58.5-20.9
	c-7.5-4.4-14.7-7.4-21.6-9.2C201.9,31.8,218.2,21.3,240.7,17L240.7,17z M114.9,48.8c5.1-7.8,10.3-15.7,13.3-24
	c10.5-0.5,37.2,0.4,52.8,12.9c-1.7,2.6-3.3,5.3-4.7,8.1c-21.3-0.9-38.1,8.4-47.9,15.9c-4,3-7.7,6.4-11.2,10.1
	c-4.8,0.2-9.9,1.3-15.3,3.2C103,67.1,108.8,58.2,114.9,48.8L114.9,48.8z M31.1,142.2c4.2-3.9,17.6-16.2,33.6-28.2
	c17.1-12.9,29.6-19.9,38.4-23.5c-8.7,14.9-13,31.3-11,44.6C61.7,156.8,35.7,200.3,42,246.7c1.1,8.5,3.3,15.4,6,21.4
	c-7-5.1-12.6-11.6-16.8-19.6C11.3,210.9,27.8,152.9,31.1,142.2L31.1,142.2z M30.8,301.6c-2.5-10.8-4.7-20.3-1.7-30.3
	c9.2,9.9,21.2,16.9,35.8,21c0.1,0.2,0.3,0.3,0.4,0.5c6.7,7.7,13.6,15.6,19,27.5c3.4,7.3,7.1,14.2,11.2,20.7
	c-0.1,0.2-0.2,0.4-0.3,0.5c-2.2,4.7-3.9,11-4.2,18.1c-25.5-3.6-49.2-18.2-58-24.5C35.8,323.3,33.3,312.3,30.8,301.6L30.8,301.6z
	 M308.6,415.7c-6.3,3.7-12.3,7.2-17.1,11.3c-19.4,16.5-39.9,23.7-58,20.2c-12.2-2.4-21.7-7.1-33.7-13.1c-10.4-5.2-22.3-11-39.3-17.3
	c-27.2-10-45.1-23.9-51.7-40c-3.3-8-3.3-15.1-2.5-20.3c5.1,6.4,10.5,12.1,16.2,17.2c15.2,13.5,31.9,21.7,48.5,23.7
	c2.7,0.3,5.3,0.5,8,0.5c8.4,0,16.5-1.6,24.1-4.8c0.1,0.1,0.2,0.2,0.3,0.3c11.8,11,27.2,18.5,42.3,20.7c3.2,0.5,6.4,0.7,9.5,0.7
	c15.2,0,29.4-5.4,41.4-16c15.9-14,31.4-21.3,46.4-28.3c1-0.5,2.1-1,3.1-1.5C344.4,394.8,326.2,405.4,308.6,415.7L308.6,415.7z
	 M409.3,319c-6.7,8-16,18.9-22.7,23c7.6-8.2,14.5-18.7,20.1-33.1c4.3-10.8,4.4-21.9,2.5-33.3c0.5-0.8,0.9-1.6,1.1-2.6
	c1.1-4.9,5.3-15.4,10.4-27.5c12.6,12.3,20.7,35.7,20.7,43.1C430.3,294.3,419.7,306.8,409.3,319L409.3,319z"/>
</svg>
