<?xml version="1.0" encoding="utf-8"?>
<!-- Generator: Adobe Illustrator 25.2.0, SVG Export Plug-In . SVG Version: 6.00 Build 0)  -->
<svg version="1.1" xmlns="http://www.w3.org/2000/svg" xmlns:xlink="http://www.w3.org/1999/xlink" x="0px" y="0px"
	 viewBox="0 0 613.6 424.2" style="enable-background:new 0 0 613.6 424.2;" xml:space="preserve">
<style type="text/css">
	.st0{fill:#FFFEFD;stroke:#1C191B;stroke-miterlimit:10;}
	.st1{fill:#644DBD;stroke:#000000;stroke-miterlimit:10;}
	.st2{fill:#FFFFFF;}
	.st3{fill:#FACFD8;stroke:#000000;stroke-miterlimit:10;}
	.st4{fill:#1C191B;}
	.st5{fill:#020202;}
	.st6{fill:#FFFEFD;}
	.st7{fill:none;stroke:#1C191B;stroke-miterlimit:10;}
	.st8{fill:#FF6766;}
	.st9{fill:#0C0C0C;}
	.st10{fill:#FF999A;}
	.st11{fill:#F47AB3;stroke:#1C191B;stroke-miterlimit:10;}
	.st12{fill:#FFFFFF;stroke:#000000;stroke-miterlimit:10;}
	.st13{fill:none;stroke:#000000;stroke-miterlimit:10;}
	.st14{fill:#FF84B5;stroke:#000000;stroke-miterlimit:10;}
	.st15{fill:#FFFFFF;stroke:#251F20;stroke-miterlimit:10;}
	.st16{fill:none;stroke:#251F20;stroke-miterlimit:10;}
	.st17{fill:#FF84B5;stroke:#251F20;stroke-miterlimit:10;}
	.st18{fill:#4ABCF4;stroke:#000000;stroke-miterlimit:10;}
	.st19{fill:#4ABCF4;stroke:#251F20;stroke-miterlimit:10;}
	.st20{fill:none;stroke:#FFF597;stroke-miterlimit:10;}
	.st21{fill:#FFDCEC;}
	.st22{fill:#FFBDB5;}
	.st23{fill:#FACFD8;stroke:#1C191B;stroke-miterlimit:10;}
	.st24{fill:#FFFEFD;stroke:#0C0C0C;stroke-miterlimit:10;}
	.st25{fill:#FFFFFF;stroke:#1C191B;stroke-miterlimit:10;}
	.st26{fill:#FFDCEC;stroke:#1C191B;stroke-miterlimit:10;}
	.st27{fill:#FF3327;stroke:#1C191B;stroke-miterlimit:10;}
	.st28{fill:#FF84B5;stroke:#1C191B;stroke-miterlimit:10;}
	.st29{fill:none;stroke:#644DBD;stroke-width:2;stroke-miterlimit:10;}
	.st30{fill:none;stroke:#F47AB3;stroke-miterlimit:10;}
	.st31{fill:#FADD5C;stroke:#1C191B;stroke-miterlimit:10;}
	.st32{fill:#FADD5C;}
	.st33{fill:#FFFDFD;}
	.st34{fill:#644DBD;stroke:#1C191B;stroke-miterlimit:10;}
	.st35{fill:#FACFD8;stroke:#251F20;stroke-miterlimit:10;}
	.st36{fill:#FFDCEC;stroke:#000000;stroke-miterlimit:10;}
</style>
<g id="BACKGROUND">
</g>
<g id="OBJECTS">
	<g>
		<g>
			<g>
				<g>
					<path class="st0" d="M294.7,93.6c0,0-15.4-12.6-20.1-18.1c-4.7-5.6-9.4-15.5-10.4-15c-1,0.4,2.4,7.4,2.4,7.4
						s-10-10.7-11.4-10.2c-1.4,0.5,5.6,8.4,5.6,8.4s-7.2-8.5-8-7.5c-0.8,1,5.8,8.5,5.8,8.5s-6.6-8-7.9-6.7s5.8,7.7,5.8,7.7
						s-6.8-6.7-7.7-5.3c-0.9,1.4,22.1,30.5,35.5,38.2c0,0,3.4,2.9,5.6,2.1C292.5,102.3,297.1,95.8,294.7,93.6z"/>
					<path class="st0" d="M283.4,102.2c0.3,0.3,1.1,0.9,1.1,0.9s-9.3-1.5-9.5-4.8c-0.2-3.3,6.8-0.5,6.8-0.5s-4.7-4.4-2.7-5.9
						c2-1.5,5.1,2.5,5.1,2.5s-4.4-5.5-1.9-6.4c2.5-0.9,5.2,3.7,5.2,3.7s-4.6-5.9-2.5-6.9c2.1-1,4.7,4.4,4.7,4.4s-3.9-8.5-1.9-8.8
						c2-0.3,5.7,10.7,6.2,13.8C294.4,97.3,283.4,102.2,283.4,102.2z"/>
				</g>
				<g>
					<path class="st0" d="M398.9,68.1c0,0,3.6-19.5,3.6-26.8c0-7.3-2.8-17.9-1.8-18.2c1-0.3,2.9,7.2,2.9,7.2s0.7-14.6,2.1-15.1
						c1.4-0.5,1.2,10.1,1.2,10.1s0-11.1,1.3-10.9c1.3,0.2,1,10.3,1,10.3s-0.1-10.4,1.7-10.3s0.5,9.6,0.5,9.6s0.8-9.5,2.4-9
						c1.6,0.5,2.8,37.6-2.4,52.1c0,0-0.7,4.4-2.9,5.3C406.2,73.3,398.5,71.4,398.9,68.1z"/>
					<path class="st0" d="M397.2,70.3c0,0-4-10.4-1.3-11.5c2.7-1.2,3,7.3,3,7.3s0.6-4.3,2.2-4s0,5.3,0,5.3s1.9-6.9,3.6-6.3
						c1.7,0.6,0.7,6.2,0.7,6.2s2.3-6,4-5.2c1.7,0.9-0.6,6-0.6,6s2.7-6.4,4.2-5.5c1.5,0.8-1,6.7-1,6.7s2.7-5.6,5.2-4.1
						c2.5,1.4-3.4,8.3-4.4,9.8C411.7,76.4,398.8,75.5,397.2,70.3z"/>
				</g>
			</g>
			<g>
				<g>
					<path class="st1" d="M338.4,217.9c0,0-8.1-42.9-3.8-89.2c0,0-31.8-5-52.4-26.1l10.9-14c0,0,30.2,22,63.2,15.9
						c33-6.2,38.5-28.3,40.9-35.3l17,3.8c0,0-0.9,27.2-23.5,48.6c0,0,13.4,40.9,36,61.9c0,0-11.2,18.7-28.6,25.6
						C380.6,216,341.8,222.3,338.4,217.9z"/>
					<g>
						<path class="st2" d="M363.3,195.9c0,1.9-1.6,3.5-3.5,3.5c-1.9,0-3.5-1.6-3.5-3.5s1.6-3.5,3.5-3.5
							C361.7,192.4,363.3,194,363.3,195.9z"/>
						
							<ellipse transform="matrix(0.905 -0.4255 0.4255 0.905 -41.2448 176.0072)" class="st2" cx="373.4" cy="180.3" rx="7.2" ry="7.2"/>
						<circle class="st2" cx="348.6" cy="176.6" r="4.7"/>
						<path class="st2" d="M342.6,192.6c0,0.9-0.8,1.7-1.7,1.7c-0.9,0-1.7-0.8-1.7-1.7c0-0.9,0.8-1.7,1.7-1.7
							C341.9,191,342.6,191.7,342.6,192.6z"/>
						<path class="st2" d="M406.9,175.5c0,2.7-2.2,4.9-4.9,4.9c-2.7,0-4.9-2.2-4.9-4.9c0-2.7,2.2-4.9,4.9-4.9
							C404.8,170.6,406.9,172.8,406.9,175.5z"/>
						<path class="st2" d="M388.7,156.2c0,1.6-1.3,3-3,3s-3-1.3-3-3c0-1.6,1.3-3,3-3S388.7,154.6,388.7,156.2z"/>
						<path class="st2" d="M356.3,152.4c0,2.7-2.2,4.8-4.8,4.8c-2.7,0-4.8-2.2-4.8-4.8c0-2.7,2.2-4.8,4.8-4.8
							C354.1,147.6,356.3,149.7,356.3,152.4z"/>
						
							<ellipse transform="matrix(0.9246 -0.3809 0.3809 0.9246 -24.3709 152.7673)" class="st2" cx="373.8" cy="138" rx="7.6" ry="7.6"/>
						<path class="st2" d="M382.8,111.6c0,1.8-1.5,3.3-3.3,3.3s-3.3-1.5-3.3-3.3c0-1.8,1.5-3.3,3.3-3.3S382.8,109.8,382.8,111.6z"/>
						<path class="st2" d="M352.7,123.1c0,1.7-1.4,3-3,3c-1.7,0-3-1.4-3-3c0-1.7,1.4-3,3-3C351.3,120.1,352.7,121.5,352.7,123.1z"/>
						<path class="st2" d="M314.9,117.1c0,1.7-1.4,3-3,3s-3-1.4-3-3c0-1.7,1.4-3,3-3S314.9,115.4,314.9,117.1z"/>
						<path class="st2" d="M334.4,112.3c0,3.2-2.6,5.9-5.9,5.9c-3.2,0-5.9-2.6-5.9-5.9c0-3.2,2.6-5.9,5.9-5.9
							C331.8,106.5,334.4,109.1,334.4,112.3z"/>
						<path class="st2" d="M404.3,97.4c0,1.7-1.4,3.1-3.1,3.1c-1.7,0-3.1-1.4-3.1-3.1c0-1.7,1.4-3.1,3.1-3.1
							C402.9,94.2,404.3,95.6,404.3,97.4z"/>
						<path class="st2" d="M407.7,80.2c0,2.9-2.3,5.2-5.2,5.2c-2.9,0-5.2-2.3-5.2-5.2c0-2.9,2.3-5.2,5.2-5.2
							C405.3,75,407.7,77.3,407.7,80.2z"/>
					</g>
					<path class="st0" d="M366.6,103.2c0.4,2.5-2.9,5.1-7.5,5.9c-4.5,0.8-8.5-0.7-9-3.1c-0.4-2.5,2.9-5.1,7.5-5.9
						C362.2,99.3,366.2,100.7,366.6,103.2z"/>
				</g>
				<path class="st3" d="M364.5,225.4c0,0-12.6,9.7-22,3.9c-9.4-5.7-3.9-22,16.5-25.3c20.4-3.3,28,3.7,38.6-2.7
					c10.6-6.4,22.4-21.5,29-17.8c6.6,3.7,1.8,15.7-6.9,23.5c-8.7,7.8-18.9,10.8-26.7,10.9C385.2,218,371.2,220.2,364.5,225.4z"/>
			</g>
			<g>
				<g>
					<path class="st4" d="M336.4,79.4c0,0-4.6,6.7-5.1,15.3c-0.2,3.3,2.9,9.1,15.6,7.1c12.7-2.1,26-5,29.6-7.7c3.6-2.7,4-7.6,1-11.7
						c-1.7-2.2-10.5-12.7-11.5-13.1C365,68.9,337.7,75.6,336.4,79.4z"/>
					<g>
						<g>
							
								<ellipse transform="matrix(0.9893 -0.1456 0.1456 0.9893 -7.4803 54.7416)" class="st0" cx="370.2" cy="78.5" rx="4.2" ry="4.1"/>
							<g>
								<g>
									<path class="st5" d="M368.5,79.2C368.5,79.2,368.5,79.2,368.5,79.2C368.5,79,368.5,79.3,368.5,79.2c0-0.1,0-0.1,0-0.1
										c0-0.2,0-0.4,0-0.6c0,0,0,0,0-0.1c0,0,0,0.1,0,0.1c0,0,0-0.1,0-0.1c0-0.1,0-0.1,0-0.2c0-0.1,0-0.1,0.1-0.2c0,0,0-0.1,0-0.1
										c0,0.2,0,0,0,0c0-0.1,0.1-0.1,0.1-0.2c0,0,0-0.1,0.1-0.1c0-0.1,0,0,0,0c0,0,0,0,0.1-0.1c0-0.1,0.1-0.1,0.2-0.2
										c0,0,0.1-0.1,0.1-0.1c0,0-0.1,0.1,0,0c0,0,0,0,0.1,0c0.1-0.1,0.2-0.1,0.3-0.1c0.1,0,0.1,0,0,0c0,0,0.1,0,0.1,0
										c0,0,0.1,0,0.1,0c0.1,0,0.3-0.1,0.4-0.1c0,0,0.1,0,0,0c0,0,0.1,0,0.1,0c0.1,0,0.2,0,0.2,0c0.2,0,0.5-0.2,0.5-0.5
										c0-0.2-0.2-0.5-0.5-0.5c-1,0-1.9,0.4-2.4,1.2c-0.3,0.5-0.4,1.2-0.4,1.8c0,0.2,0,0.3,0.1,0.5c0.1,0.2,0.4,0.4,0.6,0.3
										C368.5,79.7,368.6,79.5,368.5,79.2L368.5,79.2z"/>
								</g>
							</g>
						</g>
						<g>
							<path class="st0" d="M333.5,84.5c0.3,2.3,2.4,3.8,4.7,3.5c2.3-0.3,3.9-2.4,3.5-4.7c-0.3-2.3-2.4-3.8-4.7-3.5
								C334.7,80.2,333.1,82.3,333.5,84.5z"/>
							<g>
								<g>
									<path class="st5" d="M340.4,84.2c-0.1-1.1-0.8-2.3-1.9-2.6c-0.6-0.2-1.2-0.1-1.7,0c-0.2,0.1-0.4,0.3-0.3,0.6
										c0.1,0.3,0.3,0.4,0.6,0.3c0.1,0,0.2-0.1,0.4-0.1c0.1,0,0,0,0,0c0,0,0.1,0,0.1,0c0.1,0,0.1,0,0.2,0c0.1,0,0.2,0,0.3,0
										c0,0,0.1,0,0.1,0c0,0,0.1,0,0,0c0,0,0.1,0,0.1,0c0.1,0,0.2,0,0.2,0.1c0.1,0-0.1,0,0,0c0,0,0.1,0,0.1,0.1
										c0.1,0,0.1,0.1,0.2,0.1c0.1,0.1-0.1-0.1,0,0c0,0,0.1,0.1,0.1,0.1c0.1,0,0.1,0.1,0.1,0.2c0,0,0.1,0.1,0,0
										c-0.1-0.1,0,0,0,0.1c0.1,0.1,0.1,0.2,0.2,0.3c0,0,0,0.1,0,0.1c0,0.1,0-0.1,0,0c0,0,0,0,0,0c0,0.1,0,0.1,0.1,0.2
										c0,0.1,0.1,0.2,0.1,0.3c0,0.1,0,0.2,0,0.2c0,0.1,0-0.2,0-0.1c0,0,0,0,0,0c0,0.2,0.2,0.5,0.5,0.5
										C340.2,84.6,340.4,84.4,340.4,84.2L340.4,84.2z"/>
								</g>
							</g>
						</g>
					</g>
					<g>
						<path class="st0" d="M362.8,100.8c0.4,2.3-1.1,4.6-3.4,5l-1.8,0.3c-2.3,0.4-4.6-1.1-5-3.4L351,94c-0.4-2.3,1.1-4.6,3.4-5
							l1.8-0.3c2.3-0.4,4.6,1.1,5,3.4L362.8,100.8z"/>
						<g>
							<path class="st6" d="M366.8,79.5c1.1,6.5-3.3,12.7-9.9,13.8l-2.3,0.4c-6.5,1.1-12.7-3.3-13.8-9.9L339,73.1
								c-1.1-6.5,3.3-12.7,9.9-13.8l2.3-0.4c6.5-1.1,12.7,3.3,13.8,9.9L366.8,79.5z"/>
							<path class="st7" d="M366.8,79.5c1.1,6.5-3.3,12.7-9.9,13.8l-2.3,0.4c-6.5,1.1-12.7-3.3-13.8-9.9L339,73.1
								c-1.1-6.5,3.3-12.7,9.9-13.8l2.3-0.4c6.5-1.1,12.7,3.3,13.8,9.9L366.8,79.5z"/>
						</g>
						<g>
							<polygon class="st8" points="352.3,73.7 351.9,79.9 355,79.3 							"/>
							<g>
								<path class="st9" d="M346,77.9c0.1,0.8-0.5,1.6-1.3,1.7c-0.8,0.1-1.6-0.5-1.7-1.3s0.5-1.6,1.3-1.7
									C345.1,76.4,345.9,77,346,77.9z"/>
								<path class="st9" d="M361.7,73.7c0.1,0.8-0.5,1.6-1.3,1.7c-0.8,0.1-1.6-0.5-1.7-1.3c-0.1-0.8,0.5-1.6,1.3-1.7
									C360.8,72.3,361.6,72.9,361.7,73.7z"/>
							</g>
							<g>
								<path class="st10" d="M348.2,83.4c0.2,1.8-1.2,3.4-2.9,3.5c-1.8,0.2-3.4-1.2-3.5-2.9c-0.2-1.8,1.2-3.4,2.9-3.5
									C346.5,80.3,348.1,81.6,348.2,83.4z"/>
								<path class="st10" d="M365.5,79.3c0.2,1.8-1.2,3.4-2.9,3.5c-1.8,0.2-3.4-1.2-3.5-2.9c-0.2-1.8,1.2-3.4,2.9-3.5
									C363.8,76.3,365.3,77.6,365.5,79.3z"/>
							</g>
							<g>
								<g>
									<path class="st9" d="M352.4,85.3c0.5,0.7,1.4,1,2.2,1.1c1.3,0.1,2.6-0.3,3.3-1.4c0.2-0.3,0.4-0.7,0.4-1.1c0-0.7-1-0.7-1,0
										c0,0,0,0,0,0c0,0.1,0-0.1,0-0.1c0,0,0,0.2,0,0.2c0,0.1,0,0.1-0.1,0.2c0,0.1,0,0.1,0,0c0,0,0,0.1-0.1,0.1
										c0,0.1-0.1,0.1-0.1,0.2c0,0,0,0.1-0.1,0.1c0,0,0,0,0,0c0,0,0,0-0.1,0.1c-0.1,0.1-0.1,0.2-0.2,0.2c0,0,0,0-0.1,0
										c0,0,0.1,0,0,0c-0.1,0-0.1,0.1-0.2,0.1c-0.4,0.3-1,0.3-1.5,0.3c-0.3,0-0.5,0-0.7-0.1c-0.1,0-0.1,0-0.2-0.1c0,0,0,0-0.1,0
										c0,0,0.1,0,0,0c-0.1,0-0.2-0.1-0.2-0.1c0,0-0.2-0.2-0.1-0.1c0,0-0.1-0.1-0.1-0.1c0,0-0.1-0.1-0.1-0.1
										c-0.1-0.1,0.1,0.1,0,0.1c-0.2-0.2-0.5-0.3-0.7-0.2C352.4,84.7,352.3,85,352.4,85.3L352.4,85.3z"/>
								</g>
							</g>
						</g>
					</g>
					<path class="st4" d="M335.3,80.6c0,0-5.4-3.6-5.8-11.1c-0.5-7.5,4.7-14.9,10.4-16.4c8.3-2.1,11.5,1.1,11.5,1.1s5-5.8,13.8-0.4
						c8.1,5,2.7,17.8,2.7,17.8l-2.4,0.6c0,0-1.5-9.1-7.9-8.8c-6.4,0.3-5.7,9-15.8,3.5c0,0,1.7,7.7-2.6,12.1L335.3,80.6z"/>
					<g>
						<path class="st11" d="M362.6,63.2c-1.3,1.3-2.8,1.8-3.4,1.2c-0.5-0.6,0.1-2,1.4-3.3c1.3-1.3,2.8-1.8,3.4-1.2
							C364.6,60.4,363.9,61.9,362.6,63.2z"/>
						<path class="st11" d="M365.4,66.2c-1.4,1.2-3,1.6-3.5,1c-0.5-0.6,0.2-2,1.6-3.2c1.4-1.2,3-1.6,3.5-1
							C367.5,63.6,366.8,65.1,365.4,66.2z"/>
					</g>
				</g>
			</g>
			<g>
				<g>
					<path class="st12" d="M373.7,203.2c-4.1-0.2-8.9-0.1-14.7,0.8c-2.8,0.5-5.4,1.2-7.6,2.1c0.2,2.1,0.4,4.4,0.5,6.6
						c0.3,5.5,1.5,18.6-6.7,20.6c-8.3,2-32.5,0-32.5,0l-2.1,9.8c10.9,6.2,43.3,10.5,55-2C374.8,231.4,374.4,211.5,373.7,203.2z"/>
					<g>
						<polygon class="st3" points="296.3,241 311.6,245.7 315.1,231.9 298.4,229.8 						"/>
						<g>
							<line class="st13" x1="297.9" y1="232.4" x2="310.6" y2="234.2"/>
							<line class="st13" x1="311.1" y1="231.4" x2="308.2" y2="244.7"/>
							<line class="st13" x1="297.6" y1="235.4" x2="309.9" y2="237.9"/>
							<line class="st13" x1="296.7" y1="238.5" x2="308.7" y2="241.6"/>
						</g>
					</g>
					<g>
						<polygon class="st12" points="298.1,244.7 302.4,225.2 283.7,223.2 278,261.3 290.2,247.8 						"/>
						<path class="st14" d="M287,233.5c0,0,6.7-8,8.8-5.6c2.1,2.4-3.4,5.6-3.4,5.6s4.6,3.1,2.4,5.2C292.7,240.8,287,233.5,287,233.5
							z"/>
						<g>
							<line class="st13" x1="289.5" y1="248.4" x2="288.9" y2="243.1"/>
							<line class="st13" x1="292.7" y1="247" x2="292.7" y2="242.4"/>
						</g>
					</g>
				</g>
				<g>
					<path class="st12" d="M419.4,283.9c0,0,8.8-31.3,9.7-46.2c0.8-13.9-4.5-34.5-17.3-47.6c-4.6,3.8-9.4,8.3-14.1,11.1
						c-2.5,1.5-4.8,2.3-7.2,2.6c7.9,7,21.2,21.2,20.8,36.7c-0.6,21.9-3.1,42-3.1,42L419.4,283.9z"/>
					<g>
						<polygon class="st3" points="416.5,297.8 420.7,282.4 406.7,279.4 405.2,296.1 						"/>
						<g>
							<line class="st13" x1="407.8" y1="296.5" x2="409.2" y2="283.7"/>
							<line class="st13" x1="406.3" y1="283.4" x2="419.7" y2="285.8"/>
							<line class="st13" x1="410.8" y1="296.7" x2="412.8" y2="284.4"/>
							<line class="st13" x1="413.9" y1="297.5" x2="416.6" y2="285.4"/>
						</g>
					</g>
					<g>
						<polygon class="st12" points="421.1,296.3 402.2,290 398.3,308.4 435.6,317.9 423.5,304.5 						"/>
						<path class="st14" d="M408.9,306.1c0,0-7.2-7.5-4.6-9.3c2.6-1.8,5.2,3.9,5.2,3.9s3.6-4.3,5.5-1.9
							C416.7,301.2,408.9,306.1,408.9,306.1z"/>
						<g>
							<line class="st13" x1="423.9" y1="305.2" x2="418.6" y2="305.2"/>
							<line class="st13" x1="422.9" y1="301.9" x2="418.3" y2="301.4"/>
						</g>
					</g>
				</g>
			</g>
		</g>
		<g>
			<g>
				<g>
					<path class="st13" d="M516.4,116.4"/>
				</g>
				<path class="st12" d="M577.4,121.4c0,0-7.8,10.1-7.7,12.2c0.1,2.2,7.7-6.1,7.7-6.1s-6.3,6.3-5.9,7.2c0.3,0.9,1.6,0.8,7.7-4.8
					c0,0-5.8,5.8-5.2,7.1c0.6,1.3,7.6-4.8,7.6-4.8s-5.5,5.5-4.7,6.3c0.9,0.8,5.3-2.7,6.8-5.1s-0.3-2.9-0.9-3.5
					C581,128,579,120.2,577.4,121.4z"/>
			</g>
			<g>
				<g>
					<g>
						<g>
							<polygon class="st15" points="452.9,383.8 448.4,398.7 439.5,396.5 444,379.3 							"/>
							<g>
								<line class="st16" x1="441.3" y1="397.5" x2="446.2" y2="380.5"/>
								<line class="st15" x1="443.8" y1="397.7" x2="448.3" y2="382.4"/>
								<line class="st15" x1="446.2" y1="398.7" x2="450.7" y2="383.3"/>
							</g>
						</g>
						<g>
							<polygon class="st15" points="433.3,394 451.5,398.6 449.2,417 413.6,417.8 429.4,404.3 							"/>
							<path class="st17" d="M439.9,409.9c-1.9-1.3-2.5-3.9-1.2-5.9c1.3-1.9,3.9-2.5,5.9-1.2c1.9,1.3,2.5,3.9,1.2,5.9
								C444.5,410.7,441.9,411.2,439.9,409.9z"/>
							<g>
								<line class="st16" x1="426.2" y1="407.6" x2="429.4" y2="410.6"/>
								<line class="st16" x1="423.6" y1="409.3" x2="427.6" y2="412.8"/>
							</g>
						</g>
						<g>
							<path class="st18" d="M441.3,377.7c0,0,10.9-85.2,22.1-118.7l36.6,3.1l3.6,1c0,0-24.1,54.3-31.1,71.5
								c-7.4,17.9-15.9,46-15.9,46L441.3,377.7z"/>
							<path class="st13" d="M459.6,272.7c0,0,13,4.2,16.1-11.8"/>
							<g>
								<path class="st2" d="M437.9,381.2c-0.2,1.1,0.5,2.1,1.6,2.3l18,3.2c1.1,0.2,2.1-0.5,2.3-1.6l0.8-4.2
									c0.2-1.1-0.5-2.1-1.6-2.3l-18-3.2c-1.1-0.2-2.1,0.5-2.3,1.6L437.9,381.2z"/>
								<path class="st7" d="M437.9,381.2c-0.2,1.1,0.5,2.1,1.6,2.3l18,3.2c1.1,0.2,2.1-0.5,2.3-1.6l0.8-4.2
									c0.2-1.1-0.5-2.1-1.6-2.3l-18-3.2c-1.1-0.2-2.1,0.5-2.3,1.6L437.9,381.2z"/>
							</g>
						</g>
					</g>
					<g>
						<g>
							<polygon class="st15" points="557.2,305.6 569.6,296.2 575.5,303.2 561.7,314.4 							"/>
							<g>
								<line class="st16" x1="574.6" y1="301.3" x2="560.6" y2="312.2"/>
								<line class="st15" x1="572.8" y1="299.7" x2="560" y2="309.4"/>
								<line class="st15" x1="571.4" y1="297.5" x2="558.7" y2="307.3"/>
							</g>
						</g>
						<g>
							<polygon class="st15" points="579,308.9 567.1,294.4 579.8,280.9 608.9,301.3 588.2,302.8 							"/>
							<path class="st17" d="M583.1,292.1c0.8,2.2-0.3,4.6-2.5,5.4c-2.2,0.8-4.6-0.3-5.4-2.5c-0.8-2.2,0.3-4.6,2.5-5.4
								C579.9,288.8,582.3,289.9,583.1,292.1z"/>
							<g>
								<line class="st16" x1="592.8" y1="302.1" x2="592" y2="297.8"/>
								<line class="st16" x1="595.9" y1="302.2" x2="594.7" y2="297.1"/>
							</g>
						</g>
						<g>
							<path class="st19" d="M482,277.2h4.4c0,0,5,59,28.7,63.4c23.7,4.4,46.6-26.2,46.6-26.2l-7.8-9.1c0,0-18.9,13.8-22.7,9.1
								c-3.8-4.7-12.4-27.1-13.8-57.8l-34,2.6"/>
							<path class="st13" d="M503.7,258.3c0,0-2.8,23.4,16.2,22"/>
							<g>
								<path class="st2" d="M550.7,302c-0.8,0.7-1,2-0.3,2.8l11.6,14.1c0.7,0.8,2,1,2.8,0.3l3.3-2.7c0.8-0.7,1-2,0.3-2.8
									l-11.6-14.1c-0.7-0.8-2-1-2.8-0.3L550.7,302z"/>
								<path class="st7" d="M550.7,302c-0.8,0.7-1,2-0.3,2.8l11.6,14.1c0.7,0.8,2,1,2.8,0.3l3.3-2.7c0.8-0.7,1-2,0.3-2.8
									l-11.6-14.1c-0.7-0.8-2-1-2.8-0.3L550.7,302z"/>
							</g>
						</g>
					</g>
					<g>
						<path class="st12" d="M558.6,152.1c0,0,5.6-6.6,7.7-12c2.1-5.4,3.9-21.3,4.9-21.5c1-0.2,1.6,6.6,1.3,10
							c-0.3,3.4,8.4,6.9,8.4,6.9s-2,9.8-9.7,20.7C563.5,167.1,558.6,152.1,558.6,152.1z"/>
						<g>
							<path class="st12" d="M437,117.9c0,0,0.2-11.9-1.6-15.7c-1.8-3.8-3.1,6.1-2.7,11.3C433.1,118.8,436.5,119.7,437,117.9z"/>
							<g>
								<line class="st12" x1="437.1" y1="85.5" x2="436.1" y2="115.6"/>
								<g>
									<line class="st20" x1="442.2" y1="94.4" x2="431.9" y2="75.6"/>
									<line class="st20" x1="440.1" y1="77.1" x2="433.4" y2="94.6"/>
									<line class="st20" x1="443.7" y1="88.2" x2="427.8" y2="81"/>
									<line class="st20" x1="445.3" y1="80.6" x2="429.3" y2="89.9"/>
									<line class="st20" x1="429.1" y1="86.3" x2="425.4" y2="87.9"/>
									<line class="st20" x1="445.5" y1="95.4" x2="448.6" y2="100.2"/>
									<line class="st20" x1="430" y1="94.2" x2="424.8" y2="100.3"/>
									<path class="st20" d="M430.1,77.9c-0.1-0.1-3.5-3.4-3.5-3.4"/>
									<line class="st20" x1="452.8" y1="85" x2="444" y2="85.2"/>
									<line class="st20" x1="454.3" y1="74.2" x2="452" y2="75.7"/>
									<line class="st20" x1="447.8" y1="72.1" x2="443.6" y2="77.6"/>
									<line class="st20" x1="435.8" y1="76.2" x2="434.1" y2="68.1"/>
									<line class="st20" x1="427.7" y1="83.7" x2="417.2" y2="84.1"/>
								</g>
							</g>
							<g>
								<path class="st12" d="M441.9,131.1c0,0-0.8-21.2-3.5-25.8c-2.7-4.7-2.2,12-2.2,12l-8.7,3.1c0,0-0.5,1,0.4,4.6
									c1,3.6,3.2,10.8,3.2,10.8S441.4,135,441.9,131.1z"/>
								<path class="st12" d="M433.2,115.8c0,0,5,6.5,5.8,5.4c0.8-1.1-5.1-10.6-6.6-10.4c-1.4,0.2-4.3,3.1-5.5,4.8
									c-1.2,1.7-1.6,3.6-0.3,5.4c1.3,1.8,8,5.6,8.8,5.1c0.6-0.4,1.6-1-4.9-7C430.7,119.1,445.5,132.3,433.2,115.8z"/>
							</g>
						</g>
					</g>
				</g>
				<g>
					<path class="st21" d="M465.8,210.1c0,0-33.6-38.7-34.8-74l11.1-4.3c0,0,21.2,50.1,41.8,59.4c20.5,9.2,36.2-1.9,50.6-15.5
						s27.6-29.6,27.6-29.6l11.5,8.1c0,0-16.8,35.5-48.4,57.9l-2.2,54c0,0-42.1,9.5-62.9-6.6L465.8,210.1z"/>
					<g>
						<path class="st22" d="M448,184.9c0.3,0.5,0.6,1.1,1,1.6v-40.2c-0.3-0.7-0.7-1.3-1-1.9V184.9z"/>
						<g>
							<path class="st22" d="M432.8,149.4c0.1,0.3,0.2,0.6,0.2,1h18c-0.2-0.3-0.3-0.6-0.5-1H432.8z"/>
						</g>
						<g>
							<path class="st22" d="M437.7,164.5c0.1,0.3,0.3,0.6,0.4,1h21.6c-0.2-0.3-0.4-0.6-0.6-1H437.7z"/>
							<path class="st22" d="M567.9,164.5h-22.2c-0.3,0.3-0.6,0.6-0.9,1h22.5C567.5,165.1,567.7,164.8,567.9,164.5z"/>
						</g>
						<g>
							<path class="st22" d="M459,201.5c0.3,0.4,0.7,0.9,1,1.3v-36.9c-0.3-0.5-0.6-1-1-1.5V201.5z"/>
							<path class="st22" d="M460,259l-0.1,0.5c0,0,0,0,0.1,0V259z"/>
						</g>
						<g>
							<path class="st22" d="M558.1,179h-27.2c-0.4,0.3-0.7,0.6-1.1,1h27.6C557.6,179.7,557.9,179.3,558.1,179z"/>
							<path class="st22" d="M469.5,179h-24.8c0.2,0.3,0.4,0.6,0.5,1h25.1C470,179.7,469.8,179.3,469.5,179z"/>
						</g>
						<path class="st22" d="M471.1,180.8c-0.3-0.4-0.6-0.7-1-1.1V265c0.3,0.1,0.6,0.2,1,0.3V180.8z"/>
						<path class="st22" d="M483.4,268.1c0.3,0,0.6,0.1,1,0.1v-76.9c-0.2-0.1-0.3-0.1-0.5-0.2c-0.2-0.1-0.3-0.2-0.5-0.2V268.1z"/>
						<g>
							<path class="st22" d="M486.8,192.4h-34.1c0.2,0.3,0.4,0.6,0.6,1h36.5C488.9,193.1,487.9,192.8,486.8,192.4z"/>
							<path class="st22" d="M547.1,192.4h-36.6c-1,0.4-2,0.7-3,1h38.7C546.6,193,546.8,192.7,547.1,192.4z"/>
						</g>
						<path class="st22" d="M535.3,204.1H461c0.3,0.3,0.5,0.7,0.7,1h72.5C534.6,204.7,534.9,204.4,535.3,204.1z"/>
						<polygon class="st22" points="524.9,217.9 524.9,216.9 465,216.9 464.9,217.9 						"/>
						<polygon class="st22" points="524.4,230.3 524.4,229.3 463.5,229.3 463.4,230.3 						"/>
						<polygon class="st22" points="523.9,241.6 523.9,240.6 462.2,240.6 462.1,241.6 						"/>
						<polygon class="st22" points="523.4,252.6 523.5,251.6 460.9,251.6 460.8,252.6 						"/>
						<path class="st22" d="M523,263l0-1h-59.3c0.6,0.3,1.2,0.7,1.8,1H523z"/>
						<path class="st22" d="M501.8,268.8c0.3,0,0.6,0,1,0v-74.4c-0.3,0-0.6,0.1-1,0.1V268.8z"/>
						<path class="st22" d="M513.2,267.7c0.3,0,0.7-0.1,1-0.1v-76.8c-0.3,0.2-0.6,0.3-1,0.5V267.7z"/>
						<path class="st22" d="M527.3,210.5c0.3-0.2,0.6-0.5,1-0.7v-28.5c-0.3,0.3-0.6,0.5-1,0.8V210.5z"/>
						<path class="st22" d="M540.4,199.3c0.3-0.3,0.7-0.6,1-0.9v-29.5c-0.3,0.3-0.6,0.7-1,1V199.3z"/>
						<path class="st22" d="M554,184.3c0.3-0.4,0.6-0.8,1-1.2v-28.8c-0.3,0.4-0.6,0.7-1,1.1V184.3z"/>
					</g>
					<line class="st13" x1="495.3" y1="194.4" x2="490.7" y2="268.8"/>
					<path class="st13" d="M465.8,210.1c0,0-33.6-38.7-34.8-74l11.1-4.3c0,0,21.2,50.1,41.8,59.4c20.5,9.2,36.2-1.9,50.6-15.5
						s27.6-29.6,27.6-29.6l11.5,8.1c0,0-16.8,35.5-48.4,57.9l-2.2,54c0,0-42.1,9.5-62.9-6.6L465.8,210.1z"/>
					<path class="st23" d="M494.3,200l-11.3,4c0,0-2.1-8.5-0.3-13.5l8.4-2.9l11.4,0.7l6.6,4.8c0,0,0.1,6.3-5.3,13.5L494.3,200z"/>
					<g>
						<path class="st3" d="M472.7,209.1v7.4c0,3.7,3,6.8,6.8,6.8h0.2c3.7,0,6.8-3,6.8-6.8v-7.4H472.7z"/>
						<line class="st13" x1="472.7" y1="213" x2="486.4" y2="213"/>
					</g>
					<path d="M442.8,136.5c0,0.9-0.8,1.7-1.7,1.7c-0.9,0-1.7-0.8-1.7-1.7c0-0.9,0.8-1.7,1.7-1.7C442,134.8,442.8,135.6,442.8,136.5z
						"/>
					<path d="M564.1,151.6c0,0.9-0.8,1.7-1.7,1.7c-0.9,0-1.7-0.8-1.7-1.7s0.8-1.7,1.7-1.7C563.4,149.8,564.1,150.6,564.1,151.6z"/>
					<path class="st13" d="M555.9,153.3c0,0,4.7,4.8,12.6,10.2"/>
					<path class="st13" d="M432,145.6c0,0,10.8-4.5,13.6-6"/>
				</g>
				<g>
					<g>
						<g>
							<g>
								<path class="st0" d="M520.7,173.3c-0.3,2.5-2.5,4.3-5.1,4c-2.5-0.3-4.3-2.5-4-5c0.3-2.5,2.5-4.3,5.1-4
									C519.2,168.5,521,170.8,520.7,173.3z"/>
								<g>
									<g>
										<path class="st5" d="M514.1,173.1C514.1,173.1,514.1,173,514.1,173.1c0-0.1,0-0.1,0-0.2c0,0.2,0,0.1,0,0
											c0-0.2,0.1-0.5,0.2-0.7c0,0,0.1-0.1,0,0c0,0,0-0.1,0-0.1c0-0.1,0.1-0.1,0.1-0.2c0-0.1,0.1-0.1,0.1-0.2
											c0,0,0.1-0.1,0.1-0.1c0,0-0.1,0.1,0,0c0,0,0,0,0.1-0.1c0.1-0.1,0.1-0.1,0.2-0.2c0,0,0.1-0.1,0.1-0.1c0,0,0,0,0,0
											c0,0,0,0,0.1,0c0.1,0,0.1-0.1,0.2-0.1c0,0,0.1,0,0.1-0.1c0.1,0-0.1,0,0,0c0,0,0.1,0,0.1,0c0.1,0,0.2-0.1,0.3-0.1
											c0,0,0.1,0,0.1,0c-0.1,0-0.1,0,0,0c0.1,0,0.1,0,0.2,0c0.1,0,0.3,0,0.4,0c0,0,0.1,0,0.1,0c-0.1,0,0,0,0,0
											c0.1,0,0.2,0,0.3,0.1c0.3,0.1,0.5-0.1,0.6-0.3c0.1-0.2-0.1-0.5-0.3-0.6c-1-0.2-2.1-0.1-2.9,0.6c-0.5,0.5-0.8,1.1-0.9,1.7
											c0,0.2-0.1,0.3-0.1,0.5c0,0.3,0.2,0.5,0.5,0.5C513.9,173.6,514.1,173.3,514.1,173.1L514.1,173.1z"/>
									</g>
								</g>
							</g>
							<g>
								<path class="st0" d="M475.5,169c-0.3,2.5,1.5,4.7,4,5c2.5,0.3,4.8-1.5,5.1-4c0.3-2.5-1.5-4.7-4-5
									C478,164.7,475.8,166.5,475.5,169z"/>
								<g>
									<g>
										<path class="st5" d="M482.9,170.5c0.2-1.2-0.2-2.6-1.3-3.2c-0.6-0.3-1.2-0.4-1.8-0.4c-0.3,0-0.5,0.2-0.5,0.5
											c0,0.3,0.2,0.5,0.5,0.5c0.1,0,0.3,0,0.4,0c0,0,0.1,0,0.1,0c0.1,0-0.1,0,0,0c0.1,0,0.1,0,0.2,0c0.1,0,0.2,0.1,0.3,0.1
											c0,0,0,0,0.1,0c0,0,0.1,0,0,0c-0.1,0,0,0,0,0c0,0,0.1,0,0.1,0c0.1,0,0.2,0.1,0.2,0.1c0,0,0,0,0.1,0c0.1,0-0.1-0.1,0,0
											c0,0,0.1,0.1,0.1,0.1c0.1,0.1,0.1,0.1,0.2,0.2c0.1,0.1-0.1-0.1,0,0c0,0,0.1,0.1,0.1,0.1c0,0.1,0.1,0.1,0.1,0.2
											c0,0.1,0,0.2,0,0c0,0,0,0.1,0,0.1c0,0.1,0.1,0.3,0.1,0.4c0,0,0,0.1,0,0.1c0,0.1,0-0.1,0,0c0,0.1,0,0.1,0,0.2
											c0,0.1,0,0.2,0,0.3c0,0.1,0,0.2,0,0.3c0,0.1,0-0.1,0,0c0,0.2,0.1,0.5,0.3,0.6C482.5,170.9,482.8,170.7,482.9,170.5
											L482.9,170.5z"/>
									</g>
								</g>
							</g>
						</g>
						<g>
							<path class="st0" d="M502.1,194.4c-0.2,2.6-2.5,4.5-5,4.4l-2-0.1c-2.6-0.2-4.5-2.5-4.4-5l0.7-9.7c0.2-2.6,2.5-4.6,5-4.4
								l2,0.1c2.6,0.2,4.6,2.5,4.4,5L502.1,194.4z"/>
							<g>
								<path class="st6" d="M512.1,174.1c-0.6,6.6-6.5,11.5-13,10.9l-4.9-0.4c-6.6-0.6-11.5-6.5-10.9-13l1.3-14.2
									c0.6-6.6,6.5-11.5,13-10.9l4.9,0.4c6.6,0.6,11.5,6.5,10.9,13L512.1,174.1z"/>
								<path class="st7" d="M512.1,174.1c-0.6,6.6-6.5,11.5-13,10.9l-4.9-0.4c-6.6-0.6-11.5-6.5-10.9-13l1.3-14.2
									c0.6-6.6,6.5-11.5,13-10.9l4.9,0.4c6.6,0.6,11.5,6.5,10.9,13L512.1,174.1z"/>
							</g>
							<g>
								<polygon class="st8" points="498.5,162.7 496.3,169.1 499.8,169.4 								"/>
								<g>
									<path class="st9" d="M490.6,165.4c-0.1,0.9-0.9,1.6-1.9,1.5c-0.9-0.1-1.6-0.9-1.5-1.9c0.1-0.9,0.9-1.6,1.9-1.5
										C490.1,163.6,490.8,164.5,490.6,165.4z"/>
									<path class="st9" d="M508.4,165.3c-0.1,0.9-0.9,1.6-1.9,1.5s-1.6-0.9-1.5-1.9c0.1-0.9,0.9-1.6,1.9-1.5
										C507.9,163.6,508.5,164.4,508.4,165.3z"/>
								</g>
								<g>
									<path class="st10" d="M491.1,172.1c-0.3,2-2.2,3.3-4.2,3c-2-0.3-3.3-2.2-3-4.2c0.3-2,2.2-3.3,4.2-3
										C490.1,168.2,491.4,170.1,491.1,172.1z"/>
									<path class="st10" d="M511.1,172.6c-0.3,2-2.2,3.3-4.2,3c-2-0.3-3.3-2.2-3-4.2c0.3-2,2.2-3.3,4.2-3
										C510.1,168.8,511.4,170.7,511.1,172.6z"/>
								</g>
								<path class="st24" d="M495.3,174c0,1.4,1.1,2.6,2.6,2.8c1.5,0.1,2.7-0.9,3.1-2.2L495.3,174z"/>
							</g>
						</g>
					</g>
					<path d="M479.7,165c0,0-6.8-10.5,0-21.1s20.7-9.5,25.6-2c0,0,9.9-2.4,13.9,6.4c3.9,8.8-1.7,20.1-1.7,20.1l-2.5-0.1l-2.4,1.6
						c0,0,2-13.2-0.5-15.9c-1.8-2-7.4-2.8-11.4-0.6c-4,2.1-8.6,0.9-11.2-1.5c0,0-1.3,11.1-5.8,14.8l-1.7-1.4L479.7,165z"/>
				</g>
			</g>
			<g>
				<line class="st13" x1="543.4" y1="227.9" x2="546.7" y2="242.1"/>
				<line class="st13" x1="556.9" y1="220.5" x2="573.3" y2="236"/>
				<line class="st13" x1="561.6" y1="208.8" x2="586.9" y2="217.1"/>
			</g>
		</g>
		<g>
			<path class="st25" d="M275.2,352.3c0,0-17.5-13.9-23.1-28c-5.6-14.1,11.5-12.1,11.5-12.1s5,20.2,20.7,34.1L275.2,352.3z"/>
			<g>
				<g>
					<g>
						<path class="st25" d="M209.2,360c0,0-11.3-11-14-30c-2.6-19,11.9-3.4,11.9-3.4s3.7,18.1,10.9,26.5
							C225.1,361.6,209.2,360,209.2,360z"/>
						<g>
							<path class="st26" d="M202,394.6l30.8-29L219,349l-14.3,10.8l3.7,6.4C208.4,366.2,199.2,385.3,202,394.6z"/>
							<g>
								<line class="st27" x1="205.3" y1="373.8" x2="211.4" y2="372.5"/>
								<line class="st27" x1="206.4" y1="370.5" x2="212.1" y2="369.3"/>
								<path class="st27" d="M201.4,373.6c0.2-0.1,5.6-6.4,5.6-6.4"/>
								<path class="st7" d="M206.6,367.7c0,0-0.1,0-0.3,0.1c-1.6,0.3-8.1,1.5-8.6-0.8c-0.7-2.6,12.1-1,8.9,0.8"/>
							</g>
							<path class="st28" d="M221.4,376.2c-2.4-1-4.4-3.2-5-6c-1-4.6,1.7-8,6.5-10.2c1-0.5,3.7-0.9,4.7-0.7l5.2,6.2L221.4,376.2z"/>
						</g>
					</g>
					<g>
						<path class="st2" d="M181.5,334.1c0,0,13.2,3.8,26.4,0c13.2-3.8,10.4-6.5,10.4-8.6c0.1-2.1-5.4-32.5,4.5-48.5
							c9.9-16.1,14.3-17.8,19.7-22.1c5.4-4.3,15.3-16.8,12.9-31c-2.4-14.2-23.8-8.6-32.6-2.5c-8.8,6.1-34.2,37.5-39.7,54
							C177.7,291.9,174.2,309.7,181.5,334.1z"/>
						<g>
							<path class="st29" d="M188.7,335.4c0,0-12.7-34.3,8.9-68.7c21.6-34.4,36.9-48.1,39.5-49.3"/>
							<path class="st29" d="M199.1,335.4c0,0-14.6-39,13.6-76.4c28.2-37.4,31.2-39.2,31.2-39.2"/>
							<path class="st29" d="M211.1,332.8c0,0-12.2-33.7,6-61.1c18.2-27.4,32.8-47.8,32.8-47.8"/>
							<g>
								<path class="st30" d="M215.3,331.4c0,0-12.6-45.8,19.3-74.7"/>
								<path class="st30" d="M204.2,335c0,0-11.4-34.2,4.7-61.2c16.1-27,35-40.7,35-40.7"/>
								<path class="st30" d="M191.3,335c0,0-7.2-40.2,10.2-66.3c17.4-26.1,33.1-44.1,33.1-44.1"/>
								<path class="st30" d="M185,335.4c0,0-10.2-35.8,1.2-59c11.4-23.2,41.8-59,41.8-59"/>
							</g>
						</g>
						<path class="st13" d="M181.5,334.1c0,0,13.2,3.8,26.4,0c13.2-3.8,10.4-6.5,10.4-8.6c0.1-2.1-5.4-32.5,4.5-48.5
							c9.9-16.1,14.3-17.8,19.7-22.1c5.4-4.3,15.3-16.8,12.9-31c-2.4-14.2-23.8-8.6-32.6-2.5c-8.8,6.1-34.2,37.5-39.7,54
							C177.7,291.9,174.2,309.7,181.5,334.1z"/>
					</g>
				</g>
				<g>
					<g>
						<path class="st26" d="M268,387.7l30.8-29L285,342.1l-14.3,10.8l3.7,6.4C274.4,359.3,265.2,378.4,268,387.7z"/>
						<g>
							<line class="st27" x1="271.3" y1="366.9" x2="277.4" y2="365.6"/>
							<line class="st27" x1="272.4" y1="363.6" x2="278" y2="362.3"/>
							<path class="st27" d="M267.4,366.7c0.2-0.1,5.6-6.4,5.6-6.4"/>
							<path class="st7" d="M272.6,360.7c0,0-0.1,0-0.3,0.1c-1.6,0.3-8.1,1.5-8.6-0.8c-0.7-2.6,12.1-1,8.9,0.8"/>
						</g>
						<path class="st28" d="M287.4,369.2c-2.4-1-4.4-3.2-5-6c-1-4.6,1.7-8,6.5-10.2c1-0.5,3.7-0.9,4.7-0.7l5.2,6.2L287.4,369.2z"/>
					</g>
					<g>
						<path class="st2" d="M225.1,246.7l4.3,0.9c0,0-6.6,38.4,4,64.5c10.6,26.1,14,20.5,19.6,19.1c5.6-1.4,18.5-10.8,22.4-14.4
							c3.9-3.5,0-11.6-2.9-18.1c-2.9-6.4-9.9-25-7.6-36.3c2.4-11.3,12.4-34.9-0.5-52"/>
						<g>
							<path class="st29" d="M245.9,219.8c0,0-4.9,43.6,2.6,73.1c7.1,27.6,11.4,34.8,11.4,34.8"/>
							<path class="st29" d="M262.3,217.4c0,0-9.2,30.7-6.2,58.1c2.8,25.4,15.6,44.4,15.6,44.4"/>
							<path class="st29" d="M251.2,331.4c0,0-17.4-34.3-16.6-66c0.7-31.3,2.6-41.5,2.6-41.5"/>
							<g>
								<path class="st30" d="M265.3,211.7c0,0,1.7,21-1.7,35.3c-3.4,14.3-4.6,31,0,44.4s11.8,25.5,11.8,25.5"/>
								<path class="st30" d="M251,222.5c0,0-3.5,36.5,0,55.8c3.5,19.3,13.8,46,13.8,46"/>
								<path class="st30" d="M240.7,223.1c0,0-2.6,44,1.8,69.4c2.7,15.5,10.1,30.8,13.3,37.1"/>
								<path class="st30" d="M233.5,223.2c0,0-3.9,43.3-1.9,58.9c2.1,15.5,6.1,36.5,17.3,50.5"/>
							</g>
						</g>
						<path class="st13" d="M225.1,246.7l4.3,0.9c0,0-6.6,38.4,4,64.5c10.6,26.1,14,20.5,19.6,19.1c5.6-1.4,18.5-10.8,22.4-14.4
							c3.9-3.5,0-11.6-2.9-18.1c-2.9-6.4-9.9-25-7.6-36.3c2.4-11.3,12.4-34.9-0.5-52"/>
					</g>
				</g>
				<g>
					<path class="st25" d="M296.4,67.3c0,0-0.1-13.6-1.8-14.7c-1.7-1.1-1.9,2.5-2.4,8c-0.5,5.3-1.5,7,0.2,8.1
						C294.1,69.9,296.5,69.8,296.4,67.3z"/>
					<g>
						<line class="st25" x1="283.4" y1="40.9" x2="295.9" y2="67.4"/>
						<g>
							<line class="st20" x1="291.8" y1="46.4" x2="274.4" y2="34.7"/>
							<line class="st20" x1="282.2" y1="32.4" x2="284.3" y2="50.4"/>
							<line class="st20" x1="290.3" y1="40.4" x2="273.3" y2="41.3"/>
							<line class="st20" x1="288.2" y1="33.1" x2="278.6" y2="48.3"/>
							<line class="st20" x1="276.8" y1="45.3" x2="274.4" y2="48.3"/>
							<line class="st20" x1="295" y1="45.8" x2="299.8" y2="48.6"/>
							<line class="st20" x1="281.2" y1="51.7" x2="279.4" y2="59.2"/>
							<path class="st20" d="M273.9,37.6c-0.2-0.1-4.6-1.3-4.6-1.3"/>
							<line class="st20" x1="296.7" y1="33.5" x2="289.2" y2="37.7"/>
							<line class="st20" x1="293.1" y1="23.6" x2="291.8" y2="25.9"/>
							<line class="st20" x1="286.6" y1="24.6" x2="285.5" y2="31.2"/>
							<line class="st20" x1="278.1" y1="33.5" x2="273" y2="27.3"/>
							<line class="st20" x1="274.4" y1="43.6" x2="265.6" y2="48.7"/>
						</g>
					</g>
					<g>
						<path class="st25" d="M292.4,68.3c0,0,2.6-7.1,1.1-8.1c-1.6-1.1-4.3,5.2-4.5,9.8c-0.2,4.7,3.5,13.4,4.6,15.3
							c1.1,1.9,5.9,0.8,8.2,0.3c2.3-0.5,1.5-9.3,1.1-13.4c-0.4-4.1-3.3-5.9-4.2-6.7"/>
						<path class="st25" d="M296.3,62.6c0,0,1.4-0.8,4.2,1.6c2.7,2.4,3.8,4.9,3.4,7.7c-0.4,2.8-0.8,4.1-2.1,3.9
							c-1.4-0.3-0.1-5.4-0.1-5.4s-0.9,4.4-2.5,4.1c-1.6-0.3,0.3-5.9,0.3-5.9s-1.6,5.7-3.3,5.3C294.5,73.6,296.3,62.6,296.3,62.6z"/>
					</g>
				</g>
				<path class="st12" d="M170.4,228.7c0,0.1,3.5,13.6,6.7,20.1c3.3,6.4,4,6.4,4.7,5.9c0.7-0.6-2.9-7-3.8-9.6c0,0,4.1,8.7,5.8,8.8
					c1.7,0.1-2.4-7.8-2.9-9.7c0,0,4.3,9.6,5.7,9c1.5-0.6-3.3-10.1-3.3-10.1s4.4,8,5.6,7.6c1.2-0.5-3.5-8.8-3.5-9.7
					c0-0.8,1.5,1.3,3.7,3c2.2,1.7,3,0.7,0.7-2.2c-0.5-0.7-8-9.7-9.4-14.9C179.1,221.6,168.8,222.9,170.4,228.7z"/>
			</g>
			<g>
				<path class="st31" d="M216.1,216.5c0,0-2.7-0.1-3.4,5.3c-0.4,3.5,1.5,10,12.5,12.8c11,2.8,26.5,3.5,39.6-2.7
					c13.1-6.1,5.8-19.6,4.5-19.3C268,212.9,238.6,233.8,216.1,216.5z"/>
				<path class="st31" d="M182.4,226.4c0,3.7-3.5,6.6-7.8,6.6c-4.3,0-7.8-3-7.8-6.6c0-3.7,3.5-6.6,7.8-6.6
					C178.9,219.8,182.4,222.8,182.4,226.4z"/>
				<path class="st31" d="M307.4,89.9c0,3.7-3.5,6.6-7.8,6.6c-4.3,0-7.8-3-7.8-6.6c0-3.7,3.5-6.6,7.8-6.6
					C303.9,83.3,307.4,86.2,307.4,89.9z"/>
				<path class="st12" d="M212.3,186c0,0-2.9,28.1,4,34.4c6.9,6.3,26.3,11.8,41.9,5.7s14.8-18.2,15-48c0,0,17.5-4.9,31.2-26.9
					c13.7-22,7-52.1,4.5-57.7c-2.5-5.7-12.6-8.8-17.5,1.2c-4.9,10-8.9,31-20.3,43.5c-11.3,12.6-16.6,18-34.8,17.2
					c-18.3-0.8-49.1-0.3-63.9,20.9c-14.8,21.1-12.8,44.8-3,49.2c9.8,4.4,14.9-4.5,16.9-15.1C189,195.5,207.3,179.9,212.3,186z"/>
				<g>
					<g>
						<g>
							<path class="st32" d="M227,193.6c1-2.1,2.1-4.3,3.1-6.4c0.3-0.6,0.4-1.3,0.3-1.9c-0.2-0.6-0.6-1.2-1.1-1.5
								c-0.6-0.3-1.3-0.5-1.9-0.3c-0.6,0.2-1.2,0.6-1.5,1.1c-1,2.1-2.1,4.3-3.1,6.4c-0.3,0.6-0.4,1.3-0.3,1.9
								c0.2,0.6,0.6,1.2,1.1,1.5c0.6,0.3,1.3,0.5,1.9,0.3C226.1,194.6,226.7,194.2,227,193.6L227,193.6z"/>
						</g>
					</g>
					<g>
						<g>
							<path class="st32" d="M241.8,174.2c0.5,1.3,1.1,2.5,1.6,3.8c0.2,0.3,0.4,0.5,0.6,0.7c0.2,0.2,0.5,0.4,0.9,0.4
								c0.3,0.1,0.7,0.1,1,0c0.3,0,0.6-0.1,0.9-0.3c0.5-0.3,1-0.9,1.1-1.5c0-0.2,0.1-0.4,0.1-0.7c0-0.5-0.1-0.9-0.3-1.3
								c-0.5-1.3-1.1-2.5-1.6-3.8c-0.2-0.3-0.4-0.5-0.6-0.7c-0.2-0.2-0.5-0.4-0.9-0.4c-0.3-0.1-0.7-0.1-1,0c-0.3,0-0.6,0.1-0.9,0.3
								c-0.5,0.3-1,0.9-1.1,1.5c0,0.2-0.1,0.4-0.1,0.7C241.5,173.4,241.6,173.8,241.8,174.2L241.8,174.2z"/>
						</g>
					</g>
					<g>
						<g>
							<path class="st32" d="M246.3,203.1c0.1-0.8,0.2-1.5,0.3-2.3c0,0.2-0.1,0.4-0.1,0.7c0.2-1.2,0.4-2.4,0.6-3.6
								c0.1-0.7,0.1-1.3-0.3-1.9c-0.3-0.5-0.9-1-1.5-1.1c-0.6-0.1-1.4-0.1-1.9,0.3c-0.5,0.3-1,0.9-1.1,1.5c-0.4,2.2-0.7,4.4-1,6.6
								c-0.1,0.6,0.3,1.4,0.7,1.8c0.4,0.4,1.1,0.8,1.8,0.7c0.6,0,1.3-0.2,1.8-0.7C246.1,204.4,246.3,203.8,246.3,203.1L246.3,203.1z
								"/>
						</g>
					</g>
					<g>
						<g>
							<path class="st32" d="M254.8,186.3c0.8,1.5,1.6,3,2.4,4.5c0.3,0.5,0.9,1,1.5,1.1c0.6,0.2,1.4,0.1,1.9-0.3
								c0.5-0.3,1-0.9,1.1-1.5c0.2-0.7,0.1-1.3-0.3-1.9c-0.8-1.5-1.6-3-2.4-4.5c-0.3-0.5-0.9-1-1.5-1.1c-0.6-0.2-1.4-0.1-1.9,0.3
								c-0.5,0.3-1,0.9-1.1,1.5C254.4,185,254.5,185.7,254.8,186.3L254.8,186.3z"/>
						</g>
					</g>
					<g>
						<g>
							<path class="st32" d="M257.3,215.9c0.2-1.9,0.4-3.7,0.5-5.6c0.1-0.6-0.3-1.4-0.7-1.8c-0.4-0.4-1.1-0.8-1.8-0.7
								c-0.6,0-1.3,0.2-1.8,0.7c-0.5,0.5-0.7,1.1-0.7,1.8c-0.2,1.9-0.4,3.7-0.5,5.6c-0.1,0.6,0.3,1.4,0.7,1.8
								c0.4,0.4,1.1,0.8,1.8,0.7c0.6,0,1.3-0.2,1.8-0.7C257.1,217.1,257.3,216.6,257.3,215.9L257.3,215.9z"/>
						</g>
					</g>
					<g>
						<g>
							<path class="st32" d="M234.4,221.3c-0.1-1.6-0.2-3.2-0.2-4.8c0-0.7-0.3-1.3-0.7-1.8c-0.4-0.4-1.1-0.8-1.8-0.7
								c-0.6,0-1.3,0.2-1.8,0.7c-0.4,0.5-0.8,1.1-0.7,1.8c0.1,1.6,0.2,3.2,0.2,4.8c0,0.7,0.3,1.3,0.7,1.8c0.4,0.4,1.1,0.8,1.8,0.7
								c0.6,0,1.3-0.2,1.8-0.7C234.1,222.6,234.5,222,234.4,221.3L234.4,221.3z"/>
						</g>
					</g>
					<g>
						<g>
							<path class="st32" d="M260.9,168.9c1,1.4,1.9,2.9,2.9,4.3c0.4,0.5,0.9,1,1.5,1.1c0.6,0.2,1.4,0.1,1.9-0.3
								c0.5-0.3,1-0.9,1.1-1.5c0.1-0.6,0.1-1.4-0.3-1.9c-1-1.4-1.9-2.9-2.9-4.3c-0.4-0.5-0.9-1-1.5-1.1c-0.6-0.2-1.4-0.1-1.9,0.3
								c-0.5,0.3-1,0.9-1.1,1.5C260.5,167.6,260.5,168.4,260.9,168.9L260.9,168.9z"/>
						</g>
					</g>
					<g>
						<g>
							<path class="st32" d="M220.2,175.3c0.6-0.8,1.1-1.7,1.8-2.5c-0.1,0.2-0.3,0.3-0.4,0.5c0.4-0.6,0.9-1.1,1.4-1.7
								c0.4-0.5,0.7-1.1,0.7-1.8c0-0.6-0.3-1.3-0.7-1.8c-0.5-0.4-1.1-0.8-1.8-0.7c-0.6,0-1.3,0.2-1.8,0.7c-1.3,1.5-2.5,3-3.5,4.7
								c-0.3,0.5-0.4,1.3-0.3,1.9c0.2,0.6,0.6,1.2,1.1,1.5c0.6,0.3,1.3,0.5,1.9,0.3C219.3,176.2,219.8,175.9,220.2,175.3
								L220.2,175.3z"/>
						</g>
					</g>
					<g>
						<g>
							<path class="st32" d="M215.6,204c0.2,1.3,0.4,2.6,0.7,3.9c0.1,0.3,0.2,0.6,0.4,0.9c0.2,0.3,0.4,0.5,0.7,0.6
								c0.5,0.3,1.3,0.4,1.9,0.3c0.6-0.2,1.2-0.6,1.5-1.1c0.1-0.2,0.2-0.4,0.3-0.6c0.1-0.4,0.1-0.9,0-1.3c-0.2-1.3-0.4-2.6-0.7-3.9
								c-0.1-0.3-0.2-0.6-0.4-0.9c-0.2-0.3-0.4-0.5-0.7-0.6c-0.5-0.3-1.3-0.4-1.9-0.3c-0.6,0.2-1.2,0.6-1.5,1.1
								c-0.1,0.2-0.2,0.4-0.3,0.6C215.5,203.1,215.5,203.5,215.6,204L215.6,204z"/>
						</g>
					</g>
					<g>
						<g>
							<path class="st32" d="M264.9,199.4c-0.1,1.3-0.1,2.6,0,3.9c0,0.7,0.3,1.3,0.7,1.8c0.4,0.4,1.1,0.8,1.8,0.7
								c0.6,0,1.3-0.2,1.8-0.7c0.4-0.5,0.8-1.1,0.7-1.8c-0.1-1.3,0-2.6,0-3.9c0-0.6-0.3-1.3-0.7-1.8c-0.4-0.4-1.1-0.8-1.8-0.7
								c-0.6,0-1.3,0.2-1.8,0.7c-0.1,0.2-0.3,0.3-0.4,0.5C265,198.5,264.9,198.9,264.9,199.4L264.9,199.4z"/>
						</g>
					</g>
					<g>
						<g>
							<path class="st32" d="M266.2,156.2c1.6-1.1,3.2-2.2,4.8-3.3c0.5-0.4,1-0.8,1.1-1.5c0.2-0.6,0.1-1.4-0.3-1.9
								c-0.3-0.5-0.9-1-1.5-1.1c-0.6-0.1-1.4-0.1-1.9,0.3c-1.6,1.1-3.2,2.2-4.8,3.3c-0.5,0.4-1,0.8-1.1,1.5
								c-0.2,0.6-0.1,1.4,0.3,1.9c0.3,0.5,0.9,1,1.5,1.1C264.9,156.6,265.7,156.6,266.2,156.2L266.2,156.2z"/>
						</g>
					</g>
					<g>
						<g>
							<path class="st32" d="M279.9,160.8c1.3,0.4,2.6,0.8,3.8,1.4c-0.2-0.1-0.4-0.2-0.6-0.3c0.1,0.1,0.2,0.1,0.4,0.2
								c0.3,0.2,0.6,0.3,0.9,0.3c0.3,0.1,0.7,0.1,1,0c0.6-0.2,1.2-0.6,1.5-1.1c0.3-0.6,0.5-1.3,0.3-1.9c-0.2-0.6-0.6-1.2-1.1-1.5
								c-1.6-0.7-3.2-1.3-4.8-1.8c-0.6-0.2-1.4-0.1-1.9,0.3c-0.5,0.3-1,0.9-1.1,1.5c-0.1,0.6-0.1,1.4,0.3,1.9
								C278.8,160.2,279.3,160.7,279.9,160.8L279.9,160.8z"/>
						</g>
					</g>
					<g>
						<g>
							<path class="st32" d="M285.5,142.7c0.6-2.8,1-5.6,1.4-8.5c0.1-0.6-0.3-1.4-0.7-1.8c-0.4-0.4-1.1-0.8-1.8-0.7
								c-0.6,0-1.3,0.2-1.8,0.7c-0.1,0.2-0.3,0.3-0.4,0.5c-0.2,0.4-0.3,0.8-0.3,1.3c0,0.2,0,0.3-0.1,0.5c0-0.2,0.1-0.4,0.1-0.7
								c-0.3,2.5-0.8,4.9-1.3,7.4c-0.1,0.7-0.1,1.3,0.3,1.9c0.3,0.5,0.9,1,1.5,1.1C283.7,144.7,285.2,144.1,285.5,142.7L285.5,142.7
								z"/>
						</g>
					</g>
					<g>
						<g>
							<path class="st32" d="M298.6,137.6c1.8-0.3,3.6-0.5,5.4-0.9c0.6-0.1,1.2-0.7,1.5-1.1c0.3-0.5,0.4-1.3,0.3-1.9
								c-0.2-0.6-0.6-1.2-1.1-1.5c-0.6-0.3-1.2-0.4-1.9-0.3c-1.8,0.3-3.6,0.6-5.4,0.9c-0.6,0.1-1.2,0.7-1.5,1.1
								c-0.3,0.5-0.4,1.3-0.3,1.9c0.2,0.6,0.6,1.2,1.1,1.5c0.2,0.1,0.4,0.2,0.6,0.3C297.7,137.7,298.2,137.7,298.6,137.6
								L298.6,137.6z"/>
						</g>
					</g>
					<g>
						<g>
							<path class="st32" d="M297.1,122.3c0.7-1.9,1.5-3.8,2.2-5.8c0.2-0.6,0-1.4-0.3-1.9c-0.3-0.5-0.9-1-1.5-1.1
								c-0.6-0.1-1.4-0.1-1.9,0.3c-0.6,0.4-0.9,0.9-1.1,1.5c-0.7,1.9-1.5,3.8-2.2,5.8c-0.2,0.6,0,1.4,0.3,1.9c0.3,0.5,0.9,1,1.5,1.1
								c0.6,0.1,1.4,0.1,1.9-0.3C296.6,123.4,296.9,122.9,297.1,122.3L297.1,122.3z"/>
						</g>
					</g>
					<g>
						<g>
							<path class="st32" d="M301,97.9c0.7,1.7,1.4,3.5,2.3,5.1c0.3,0.5,0.9,1,1.5,1.1c0.6,0.2,1.4,0.1,1.9-0.3
								c0.5-0.3,1-0.9,1.1-1.5c0.2-0.7,0.1-1.3-0.3-1.9c-0.5-1-1-2.1-1.5-3.1c0.1,0.2,0.2,0.4,0.3,0.6c-0.2-0.5-0.4-0.9-0.6-1.4
								c-0.1-0.3-0.2-0.6-0.4-0.9c-0.2-0.3-0.4-0.5-0.7-0.6c-0.5-0.3-1.3-0.4-1.9-0.3c-0.6,0.2-1.2,0.6-1.5,1.1
								C300.9,96.6,300.7,97.3,301,97.9L301,97.9z"/>
						</g>
					</g>
					<g>
						<g>
							<path class="st32" d="M293.1,108.2c0.6-0.6,1.2-1.3,1.7-2c0.4-0.6,0.7-1.2,1-1.8c0.2-0.3,0.3-0.6,0.3-0.9
								c0.1-0.3,0.1-0.7,0-1c-0.1-0.3-0.2-0.6-0.4-0.9c-0.2-0.3-0.4-0.5-0.7-0.6c-0.6-0.3-1.3-0.5-1.9-0.3c-0.6,0.2-1.2,0.6-1.5,1.1
								c-0.4,0.8-0.9,1.6-1.4,2.3c0.1-0.2,0.3-0.3,0.4-0.5c-0.3,0.4-0.6,0.7-0.9,1c-0.5,0.5-0.7,1.1-0.7,1.8c0,0.3,0.1,0.7,0.2,1
								c0.1,0.3,0.3,0.6,0.5,0.8c0.5,0.4,1.1,0.8,1.8,0.7C292,108.9,292.6,108.7,293.1,108.2L293.1,108.2z"/>
						</g>
					</g>
					<g>
						<g>
							<path class="st32" d="M197.8,175.6c0.8,1.2,1.6,2.4,2.4,3.6c0.4,0.5,0.9,1,1.5,1.1c0.3,0.1,0.7,0.1,1,0
								c0.3,0,0.6-0.1,0.9-0.3c0.5-0.3,1-0.9,1.1-1.5c0.1-0.6,0.1-1.4-0.3-1.9c-0.8-1.2-1.6-2.4-2.4-3.6c-0.4-0.5-0.9-1-1.5-1.1
								c-0.3-0.1-0.7-0.1-1,0c-0.3,0-0.6,0.1-0.9,0.3c-0.5,0.3-1,0.9-1.1,1.5C197.4,174.3,197.5,175.1,197.8,175.6L197.8,175.6z"/>
						</g>
					</g>
					<g>
						<g>
							<path class="st32" d="M206.5,161.3c0.1,1.6,0.4,3.3,0.8,4.9c0.2,0.6,0.6,1.2,1.1,1.5c0.5,0.3,1.3,0.4,1.9,0.3
								c0.6-0.2,1.2-0.6,1.5-1.1c0.3-0.6,0.4-1.3,0.3-1.9c-0.2-0.9-0.4-1.8-0.6-2.8c0,0.2,0.1,0.4,0.1,0.7c-0.1-0.5-0.1-1-0.1-1.4
								c0-0.7-0.2-1.3-0.7-1.8c-0.4-0.4-1.1-0.8-1.8-0.7c-0.6,0-1.3,0.2-1.8,0.7C206.8,160,206.4,160.7,206.5,161.3L206.5,161.3z"/>
						</g>
					</g>
					<g>
						<g>
							<path class="st32" d="M184.1,177.6c0.8-0.4,1.7-0.8,2.5-1.1c-0.2,0.1-0.4,0.2-0.6,0.3c1.4-0.6,2.9-1.2,4.4-1.6
								c0.6-0.2,1.2-0.6,1.5-1.1c0.3-0.5,0.4-1.3,0.3-1.9c-0.4-1.2-1.7-2.2-3.1-1.7c-2.5,0.8-5,1.9-7.5,3c-0.5,0.3-1,0.9-1.1,1.5
								c-0.2,0.6-0.1,1.4,0.3,1.9c0.3,0.5,0.9,1,1.5,1.1C182.8,178,183.4,177.9,184.1,177.6L184.1,177.6z"/>
						</g>
					</g>
					<g>
						<g>
							<path class="st32" d="M185,187.9c0.5,1.3,1,2.6,1.6,3.9c0.1,0.3,0.2,0.6,0.4,0.9c0.2,0.3,0.4,0.5,0.7,0.6
								c0.5,0.3,1.3,0.4,1.9,0.3c0.6-0.2,1.2-0.6,1.5-1.1c0.1-0.2,0.2-0.4,0.3-0.6c0.1-0.4,0.1-0.9,0-1.3c-0.5-1.3-1-2.6-1.6-3.9
								c-0.1-0.3-0.2-0.6-0.4-0.9c-0.2-0.3-0.4-0.5-0.7-0.6c-0.5-0.3-1.3-0.4-1.9-0.3c-0.6,0.2-1.2,0.6-1.5,1.1
								c-0.1,0.2-0.2,0.4-0.3,0.6C184.9,187,184.9,187.4,185,187.9L185,187.9z"/>
						</g>
					</g>
					<g>
						<g>
							<path class="st32" d="M171.4,193.9c1.5-0.8,2.9-1.7,4.4-2.5c0.5-0.3,1-0.9,1.1-1.5c0.2-0.6,0.1-1.4-0.3-1.9
								c-0.3-0.5-0.9-1-1.5-1.1c-0.7-0.1-1.3-0.1-1.9,0.3c-1.5,0.9-2.9,1.7-4.4,2.5c-0.5,0.3-1,0.9-1.1,1.5
								c-0.2,0.6-0.1,1.4,0.3,1.9c0.3,0.5,0.9,1,1.5,1.1C170.2,194.3,170.8,194.2,171.4,193.9L171.4,193.9z"/>
						</g>
					</g>
					<g>
						<g>
							<path class="st32" d="M173.9,204.9c0.6,1.5,1.2,3.1,1.8,4.6c0.1,0.3,0.2,0.6,0.4,0.9c0.2,0.3,0.4,0.5,0.7,0.6
								c0.5,0.3,1.3,0.4,1.9,0.3c0.6-0.2,1.2-0.6,1.5-1.1c0.3-0.6,0.5-1.3,0.3-1.9c-0.6-1.5-1.2-3.1-1.8-4.6
								c-0.1-0.3-0.2-0.6-0.4-0.9c-0.2-0.3-0.4-0.5-0.7-0.6c-0.5-0.3-1.3-0.4-1.9-0.3c-0.6,0.2-1.2,0.6-1.5,1.1
								C173.8,203.6,173.7,204.3,173.9,204.9L173.9,204.9z"/>
						</g>
					</g>
					<g>
						<g>
							<path class="st32" d="M169.4,216.7c0.6-1.4,1.3-2.6,2.2-3.8c0.2-0.3,0.3-0.6,0.3-0.9c0.1-0.3,0.1-0.7,0-1
								c-0.2-0.6-0.6-1.2-1.1-1.5c-0.6-0.3-1.3-0.5-1.9-0.3c-0.2,0.1-0.4,0.2-0.6,0.3c-0.4,0.2-0.7,0.5-0.9,0.9
								c-0.9,1.2-1.6,2.5-2.2,3.8c-0.2,0.3-0.3,0.6-0.3,0.9c-0.1,0.3-0.1,0.7,0,1c0.2,0.6,0.6,1.2,1.1,1.5c0.6,0.3,1.3,0.5,1.9,0.3
								c0.2-0.1,0.4-0.2,0.6-0.3C168.8,217.4,169.1,217.1,169.4,216.7L169.4,216.7z"/>
						</g>
					</g>
				</g>
			</g>
			<g>
				<ellipse class="st31" cx="238.3" cy="156.2" rx="8.8" ry="5.1"/>
				<path class="st12" d="M254.7,131.6c0,3.6-2.9,6.5-6.6,6.5c-3.6,0-6.6-2.9-6.6-6.5s2.9-6.5,6.6-6.5
					C251.8,125.1,254.7,128,254.7,131.6z"/>
				<path class="st12" d="M227.4,112.6h7.8c5.2,0,9.4,4.8,9.4,10.7v12c0,0.3,0,0.7,0,1c0.1,0.4,0.1,0.7,0.1,1.1v7.3v0.4v7.3
					c0,2.7-2.2,4.8-4.8,4.8h-3.1c-2.7,0-4.8-2.2-4.8-4.8V146h-4.5c-5.2,0-9.4-4.8-9.4-10.7v-12C218,117.4,222.2,112.6,227.4,112.6z"
					/>
				<g>
					<path class="st4" d="M245.2,128.7c0,0-7.6-2.5-9.9-7.4c-2.3-4.9-1.7-6-1.7-6s-4.3,5.9-11.1,7.3c-5.6,1.2-5.4,0.4-5.9-0.9
						c-0.5-1.2-0.8-9.5,7.6-14.6s17.6-4.6,23.9,1.8c6.3,6.4,5.5,16.4,3.4,18.9C249.4,130.2,246.6,131.6,245.2,128.7z"/>
					<path class="st4" d="M239.6,102c0,7.1,5.7,12.8,12.8,12.8c7.1,0,12.8-5.7,12.8-12.8c0-7.1-5.7-12.8-12.8-12.8
						C245.4,89.2,239.6,95,239.6,102z"/>
					
						<ellipse transform="matrix(0.9881 -0.1539 0.1539 0.9881 -10.2305 42.0463)" class="st4" cx="266.5" cy="87.1" rx="7.4" ry="7.4"/>
				</g>
				<g>
					<path class="st2" d="M254.3,131.6c0,3.4-2.8,6.1-6.2,6.1c-3.4,0-6.2-2.7-6.2-6.1c0-3.4,2.8-6.1,6.2-6.1
						C251.6,125.5,254.3,128.2,254.3,131.6z"/>
					<g>
						<g>
							<path class="st5" d="M245.5,132.4c0-0.1,0-0.3,0-0.4c0-0.1,0-0.1,0-0.2c0,0,0-0.1,0-0.1c0-0.2,0,0.2,0,0
								c0-0.2,0.1-0.3,0.1-0.5c0-0.1,0-0.2,0.1-0.3c0,0,0-0.1,0.1-0.1c0,0,0,0,0-0.1c0-0.1,0,0,0,0.1c0.1-0.2,0.2-0.4,0.3-0.6
								c0,0,0,0,0,0c0-0.1,0.1-0.1,0,0c0,0,0.1-0.1,0.1-0.1c0.1-0.1,0.2-0.2,0.3-0.2c0,0,0,0,0.1,0c0.1,0,0.1,0,0,0
								c0,0,0.1-0.1,0.1-0.1c0.1-0.1,0.2-0.1,0.3-0.2c0,0,0.1-0.1,0,0c-0.1,0.1,0,0,0.1,0c0.1,0,0.1-0.1,0.2-0.1
								c0.1,0,0.2,0,0.2-0.1c0,0,0.1,0,0.1,0c0,0,0.1,0,0.1,0c0.1,0,0.1,0-0.1,0c0.1,0,0.2,0,0.3,0c0.1,0,0.2,0,0.3,0
								c0.2,0,0.4,0,0.6,0c0.4,0,0.7-0.3,0.7-0.7c0-0.4-0.3-0.6-0.7-0.7c-1.3-0.1-2.8,0.2-3.7,1.2c-0.6,0.7-0.9,1.7-1,2.6
								c0,0.2,0,0.4,0,0.5c0,0.4,0.3,0.7,0.7,0.7C245.2,133.1,245.5,132.8,245.5,132.4L245.5,132.4z"/>
						</g>
					</g>
				</g>
				<g>
					<g>
						<path class="st9" d="M233.6,127.2c0,1-0.8,1.7-1.7,1.7c-1,0-1.7-0.8-1.7-1.7c0-1,0.8-1.7,1.7-1.7
							C232.8,125.5,233.6,126.2,233.6,127.2z"/>
						<path class="st9" d="M222.1,127c0,0.8-0.7,1.5-1.5,1.5c-0.8,0-1.5-0.7-1.5-1.5c0-0.8,0.7-1.5,1.5-1.5
							C221.4,125.5,222.1,126.1,222.1,127z"/>
					</g>
					<g>
						<path class="st33" d="M223.8,134.1c0,0,0.9,2.6,2.7,2.7c1.9,0.2,3.3-1.9,3.4-3.5L223.8,134.1z"/>
						<g>
							<path class="st9" d="M223.2,134.3c0.3,1,0.9,1.9,1.8,2.5c1.4,1.1,3.3,0.6,4.4-0.8c0.6-0.8,1-1.7,1.1-2.7
								c0-0.3-0.3-0.6-0.6-0.6c-1.8,0.2-3.6,0.4-5.4,0.7c-0.3,0-0.5,0.1-0.8,0.1c-0.3,0-0.6,0.2-0.6,0.6c0,0.3,0.3,0.6,0.6,0.6
								c1.8-0.2,3.6-0.4,5.4-0.7c0.3,0,0.5-0.1,0.8-0.1c-0.2-0.2-0.4-0.4-0.6-0.6c-0.1,1.2-1,2.6-2.2,2.9c-1.2,0.3-2-0.6-2.5-1.5
								c-0.1-0.2-0.2-0.4-0.3-0.6c0-0.1,0,0.1,0,0c0,0,0-0.1,0-0.1c0,0,0-0.1,0-0.1C224.1,133.3,223,133.6,223.2,134.3z"/>
						</g>
					</g>
					<g>
						<path class="st10" d="M239.6,133.6c0,2.4-1.9,4.3-4.3,4.3s-4.3-1.9-4.3-4.3s1.9-4.3,4.3-4.3S239.6,131.2,239.6,133.6z"/>
						<path class="st10" d="M219.2,130.7c-0.3,0-0.5,0-0.8,0.1v4.5c0,0.7,0,1.3,0.2,2c0.2,0,0.4,0.1,0.6,0.1c1.8,0,3.3-1.5,3.3-3.3
							C222.5,132.2,221,130.7,219.2,130.7z"/>
					</g>
					<polygon class="st8" points="225.7,125.5 226.1,131.4 223.3,129.7 					"/>
				</g>
			</g>
		</g>
		<g>
			<g>
				<g>
					<g>
						<path class="st12" d="M185.3,102.5c0,0,6.2-10.1,9.7-12.3c3.5-2.2-0.7,6.8-3.8,11C188.1,105.3,184.7,104.3,185.3,102.5z"/>
						<g>
							<line class="st12" x1="202.7" y1="75.1" x2="187.4" y2="101"/>
							<g>
								<line class="st20" x1="193.5" y1="79.9" x2="212.4" y2="69.6"/>
								<line class="st20" x1="204.6" y1="66.4" x2="200.9" y2="84.8"/>
								<line class="st20" x1="195.6" y1="73.8" x2="212.9" y2="76.4"/>
								<line class="st20" x1="198.4" y1="66.6" x2="206.9" y2="83"/>
								<line class="st20" x1="209" y1="80.1" x2="211.2" y2="83.4"/>
								<line class="st20" x1="190.2" y1="79" x2="185.1" y2="81.4"/>
								<line class="st20" x1="203.9" y1="86.3" x2="205" y2="94.2"/>
								<path class="st20" d="M212.7,72.5c0.2,0,4.8-0.9,4.8-0.9"/>
								<line class="st20" x1="189.7" y1="66.2" x2="196.9" y2="71.2"/>
								<line class="st20" x1="194.3" y1="56.4" x2="195.4" y2="58.9"/>
								<line class="st20" x1="200.8" y1="58.1" x2="201.4" y2="64.9"/>
								<line class="st20" x1="208.7" y1="68" x2="214.5" y2="62.1"/>
								<line class="st20" x1="211.6" y1="78.7" x2="220.2" y2="84.7"/>
							</g>
						</g>
						<g>
							<path class="st12" d="M174.1,111c0,0,12-17.4,16.8-19.9c4.8-2.5-4.6,11.3-4.6,11.3l5.7,7.3c0,0-0.1,1.1-2.9,3.7
								c-2.8,2.6-8.5,7.4-8.5,7.4S172.4,114.6,174.1,111z"/>
							<path class="st12" d="M189.7,102.8c0,0-7.7,2.8-7.9,1.4s10-6.2,11.1-5.3c1.1,0.9,1.9,4.9,2,7c0.1,2.1-0.6,3.9-2.6,4.7
								c-2,0.8-9.8,0.4-10.2-0.4c-0.3-0.7-0.8-1.7,7.9-3.3C190,106.9,170.4,110,189.7,102.8z"/>
						</g>
					</g>
					<g>
						<path class="st12" d="M39.7,56.2c0,0,0.2-11.9-1.6-15.7c-1.8-3.8-3.1,6.1-2.7,11.3C35.9,57,39.2,57.9,39.7,56.2z"/>
						<g>
							<line class="st12" x1="39.8" y1="23.7" x2="38.8" y2="53.8"/>
							<g>
								<line class="st20" x1="45" y1="32.6" x2="34.6" y2="13.8"/>
								<line class="st20" x1="42.9" y1="15.3" x2="36.2" y2="32.8"/>
								<line class="st20" x1="46.4" y1="26.4" x2="30.5" y2="19.2"/>
								<line class="st20" x1="48" y1="18.8" x2="32" y2="28.1"/>
								<line class="st20" x1="31.8" y1="24.5" x2="28.1" y2="26.1"/>
								<line class="st20" x1="48.2" y1="33.6" x2="51.3" y2="38.5"/>
								<line class="st20" x1="32.7" y1="32.4" x2="27.6" y2="38.5"/>
								<path class="st20" d="M32.8,16.1c-0.1-0.1-3.5-3.4-3.5-3.4"/>
								<line class="st20" x1="55.6" y1="23.2" x2="46.8" y2="23.5"/>
								<line class="st20" x1="57" y1="12.4" x2="54.7" y2="13.9"/>
								<line class="st20" x1="50.5" y1="10.3" x2="46.4" y2="15.8"/>
								<line class="st20" x1="38.5" y1="14.4" x2="36.8" y2="6.3"/>
								<line class="st20" x1="30.4" y1="21.9" x2="19.9" y2="22.3"/>
							</g>
						</g>
						<g>
							<path class="st12" d="M44.6,69.3c0,0-0.8-21.2-3.5-25.8c-2.7-4.7-2.2,12-2.2,12l-8.7,3.1c0,0-0.5,1,0.4,4.6
								c1,3.6,3.2,10.8,3.2,10.8S44.1,73.2,44.6,69.3z"/>
							<path class="st12" d="M35.9,54c0,0,5,6.5,5.8,5.4c0.8-1.1-5.1-10.6-6.6-10.4c-1.4,0.2-4.3,3.1-5.5,4.8
								c-1.2,1.7-1.6,3.6-0.3,5.4c1.3,1.8,8,5.6,8.8,5.1c0.6-0.4,1.6-1-4.9-7C33.4,57.3,48.2,70.5,35.9,54z"/>
						</g>
					</g>
				</g>
				<g>
					<g>
						<path class="st15" d="M105.3,326.3c-0.1-0.3,7.3-10.4,7.3-10.4l7.8,5.8l-7.3,10.6L105.3,326.3z"/>
						<g>
							<path class="st34" d="M113,314.2c0,0,9.8-18.9,8.6-33.8c-1.2-14.9-9-27.5-16.3-35.3c-7.3-7.8-21.9-30.6-18.8-36.4
								c3.1-5.8,30.9-5.5,30.9-5.5s27,51.7,25.5,66.2c-1.5,14.5-11.6,39.2-21.2,50L113,314.2z"/>
							<g>
								<path class="st2" d="M125.8,322.3c0.6-0.9,0.3-2.2-0.6-2.8l-12-7.8c-0.9-0.6-2.2-0.3-2.8,0.6l-1.5,2.3
									c-0.6,0.9-0.3,2.2,0.6,2.8l12,7.8c0.9,0.6,2.2,0.3,2.8-0.6L125.8,322.3z"/>
								<path class="st7" d="M125.8,322.3c0.6-0.9,0.3-2.2-0.6-2.8l-12-7.8c-0.9-0.6-2.2-0.3-2.8,0.6l-1.5,2.3
									c-0.6,0.9-0.3,2.2,0.6,2.8l12,7.8c0.9,0.6,2.2,0.3,2.8-0.6L125.8,322.3z"/>
							</g>
						</g>
						<g>
							<polygon class="st35" points="118.3,333 102.9,322.3 90.5,336 113.1,363.5 113,342.7 							"/>
							<path class="st15" d="M101.9,338.4c2.3,0.6,4.6-0.7,5.2-3c0.6-2.3-0.7-4.6-3-5.2s-4.6,0.7-5.2,3
								C98.3,335.5,99.7,337.8,101.9,338.4z"/>
							<g>
								<line class="st16" x1="112.7" y1="347.3" x2="108.3" y2="346.8"/>
								<line class="st16" x1="113" y1="350.4" x2="107.8" y2="349.6"/>
							</g>
						</g>
					</g>
					<g>
						<polygon class="st15" points="55.1,283.6 46.2,277.3 50.6,269.5 60.6,276.6 						"/>
						<g>
							<path class="st34" d="M116.1,219.2l-7.7,4c4.2,38.1,1.1,74.2-17.7,79.6c-18.7,5.5-33.9-18.6-33.9-18.6l5.5-7.2
								c0,0,13.8,7.3,20.3,5.2c6.5-2.1,3.5-20.8,0-37.6s-8.6-40-8.6-40l37.2-5.2"/>
							<g>
								<path class="st2" d="M54.6,289.5c0.9,0.6,2.2,0.3,2.8-0.6l7.8-12c0.6-0.9,0.3-2.2-0.6-2.8l-2.3-1.5
									c-0.9-0.6-2.2-0.3-2.8,0.6l-7.8,12c-0.6,0.9-0.3,2.2,0.6,2.8L54.6,289.5z"/>
								<path class="st7" d="M54.6,289.5c0.9,0.6,2.2,0.3,2.8-0.6l7.8-12c0.6-0.9,0.3-2.2-0.6-2.8l-2.3-1.5
									c-0.9-0.6-2.2-0.3-2.8,0.6l-7.8,12c-0.6,0.9-0.3,2.2,0.6,2.8L54.6,289.5z"/>
							</g>
							<g>
								<path class="st7" d="M79.4,231c0,0,10.3-7.9,9.3-19.3"/>
								<path class="st7" d="M80.3,235c0,0,12.9-9,12.3-22.4"/>
							</g>
						</g>
						<g>
							<polygon class="st35" points="44.7,283.8 53.4,267.1 38.2,256.5 13.8,282.4 34.4,279.7 							"/>
							<path class="st15" d="M37.3,268.2c-0.3,2.3,1.3,4.5,3.6,4.8c2.3,0.3,4.5-1.3,4.8-3.6c0.3-2.3-1.3-4.5-3.6-4.8
								C39.8,264.2,37.6,265.8,37.3,268.2z"/>
							<g>
								<line class="st16" x1="29.8" y1="279.9" x2="29.7" y2="275.5"/>
								<line class="st16" x1="26.8" y1="280.6" x2="26.9" y2="275.4"/>
							</g>
						</g>
					</g>
				</g>
			</g>
			<g>
				<path class="st36" d="M65.7,158.1c0,0-1,48,1.8,51.8c2.9,3.8,18.3,5.1,35.8,3.2c17.5-1.9,21.7-2.7,22.5-9.8s-2.8-41.7-2.8-41.7
					s26.3-0.7,47.2-21.5c0,0,7.3-8.3,11.6-15.7l-11.6-12.6c0,0-25,26.2-72.3,24.6c0,0-35.7-0.2-50.8-62.2l-15.9,3.3
					C31.2,77.4,29.6,132.3,65.7,158.1z"/>
				<g>
					<g>
						<path class="st12" d="M143,128.7c-2.2,0.9-4.6,1.8-7,2.5c0,6.3,1,17.9,7.8,25.7c2.3-0.9,4.7-1.9,7.1-3.1
							C148.7,147.9,144.7,136.7,143,128.7z"/>
						<path class="st12" d="M46.3,136.8c5.9-2.6,16.7-7.8,24.6-14.6c-1.3-1.3-2.6-2.8-3.9-4.4c-3.1,2.3-7.4,5.6-12.4,7.9
							c-4.3,2.1-8.5,3.7-11.7,4.8C44,132.7,45.1,134.7,46.3,136.8z"/>
						<path class="st12" d="M125,183.6c-0.5-6.7-1.1-13.4-1.6-17.6c-30.2,7.7-49.6,4.2-57.9,1.8c0,4.5-0.1,10.1,0,15.7
							C82,191.2,116.6,185.2,125,183.6z"/>
					</g>
					<g>
						<path class="st14" d="M74.5,182.8c0,0-7.7-5.9-5.6-8s5.3,2.9,5.3,2.9s2.7-4.5,4.8-2.5C81.1,177.2,74.5,182.8,74.5,182.8z"/>
						<path class="st14" d="M88.5,183.8c0,0-7.7-5.9-5.6-8s5.3,2.9,5.3,2.9s2.7-4.5,4.8-2.5C95.1,178.2,88.5,183.8,88.5,183.8z"/>
						<path class="st14" d="M102.6,182.8c0,0-7.7-5.9-5.6-8s5.3,2.9,5.3,2.9s2.7-4.5,4.8-2.5C109.2,177.2,102.6,182.8,102.6,182.8z"
							/>
						<path class="st14" d="M116.6,181.6c0,0-7.7-5.9-5.6-8c2.2-2.1,5.3,2.9,5.3,2.9s2.7-4.5,4.8-2.5
							C123.3,176,116.6,181.6,116.6,181.6z"/>
					</g>
					<g>
						<path class="st2" d="M76.5,165.5c-0.1,1-0.9,1.8-2,1.8c-1-0.1-1.8-0.9-1.8-2c0.1-1,0.9-1.8,2-1.8
							C75.7,163.6,76.5,164.5,76.5,165.5z"/>
						<path class="st2" d="M74.6,190.9c0,1-0.8,1.9-1.9,1.9s-1.9-0.8-1.9-1.9s0.8-1.9,1.9-1.9S74.6,189.8,74.6,190.9z"/>
						<path class="st2" d="M84.1,191.8c0,1-0.8,1.9-1.9,1.9c-1,0-1.9-0.8-1.9-1.9s0.8-1.9,1.9-1.9C83.2,189.9,84.1,190.7,84.1,191.8
							z"/>
						<path class="st2" d="M94.5,191.8c0,1-0.8,1.9-1.9,1.9c-1,0-1.9-0.8-1.9-1.9s0.8-1.9,1.9-1.9C93.6,189.9,94.5,190.7,94.5,191.8
							z"/>
						<path class="st2" d="M105.2,191.3c0,1-0.8,1.9-1.9,1.9c-1,0-1.9-0.8-1.9-1.9c0-1,0.8-1.9,1.9-1.9
							C104.4,189.5,105.2,190.3,105.2,191.3z"/>
						<path class="st2" d="M114.9,190.9c0,1-0.8,1.9-1.9,1.9c-1,0-1.9-0.8-1.9-1.9s0.8-1.9,1.9-1.9
							C114.1,189,114.9,189.8,114.9,190.9z"/>
						<path class="st2" d="M123,189.5c0,1-0.8,1.9-1.9,1.9c-1,0-1.9-0.8-1.9-1.9s0.8-1.9,1.9-1.9C122.2,187.6,123,188.4,123,189.5z"
							/>
						<path class="st2" d="M87.1,166.8c-0.1,1-0.9,1.8-2,1.8c-1-0.1-1.8-0.9-1.8-2c0.1-1,0.9-1.8,2-1.8
							C86.4,164.9,87.2,165.8,87.1,166.8z"/>
						<path class="st2" d="M97.9,166.6c-0.1,1-0.9,1.8-2,1.8c-1-0.1-1.8-0.9-1.8-2c0.1-1,0.9-1.8,2-1.8
							C97.2,164.7,98,165.6,97.9,166.6z"/>
						<path class="st2" d="M108.4,165.5c-0.1,1-0.9,1.8-2,1.8c-1-0.1-1.8-0.9-1.8-2c0.1-1,0.9-1.8,2-1.8
							C107.7,163.6,108.5,164.5,108.4,165.5z"/>
						<path class="st2" d="M118,164.1c-0.1,1-0.9,1.8-2,1.8c-1-0.1-1.8-0.9-1.8-2c0.1-1,0.9-1.8,2-1.8
							C117.3,162.2,118.1,163.1,118,164.1z"/>
					</g>
				</g>
				<g>
					<g>
						<path class="st2" d="M29.5,75.9c0.1,1.1,1.2,1.9,2.2,1.7L46,75.7c1.1-0.1,1.9-1.2,1.7-2.2l-0.4-2.7c-0.1-1.1-1.2-1.9-2.2-1.7
							L30.9,71c-1.1,0.1-1.9,1.2-1.7,2.2L29.5,75.9z"/>
						<path class="st7" d="M29.5,75.9c0.1,1.1,1.2,1.9,2.2,1.7L46,75.7c1.1-0.1,1.9-1.2,1.7-2.2l-0.4-2.7c-0.1-1.1-1.2-1.9-2.2-1.7
							L30.9,71c-1.1,0.1-1.9,1.2-1.7,2.2L29.5,75.9z"/>
					</g>
					<g>
						<path class="st2" d="M168,112.2c-0.7,0.8-0.7,2.1,0.1,2.8l11.5,10.6c0.8,0.7,2.1,0.7,2.8-0.1l1.8-2c0.7-0.8,0.7-2.1-0.1-2.8
							l-11.5-10.6c-0.8-0.7-2.1-0.7-2.8,0.1L168,112.2z"/>
						<path class="st7" d="M168,112.2c-0.7,0.8-0.7,2.1,0.1,2.8l11.5,10.6c0.8,0.7,2.1,0.7,2.8-0.1l1.8-2c0.7-0.8,0.7-2.1-0.1-2.8
							l-11.5-10.6c-0.8-0.7-2.1-0.7-2.8,0.1L168,112.2z"/>
					</g>
				</g>
			</g>
			<g>
				<path class="st25" d="M105.8,137.4c0,3-4.1,5.4-9.3,5.4c-5.1,0-9.3-2.4-9.3-5.4c0-3,4.1-5.4,9.3-5.4
					C101.6,132,105.8,134.5,105.8,137.4z"/>
				<path class="st12" d="M79.2,111.6c0,3.8,3.1,6.8,6.9,6.8s6.9-3.1,6.9-6.8s-3.1-6.8-6.9-6.8S79.2,107.8,79.2,111.6z"/>
				<path class="st12" d="M107.9,91.6h-8.1c-5.4,0-9.8,5-9.8,11.2v12.6c0,0.4,0,0.7,0,1.1c-0.1,0.4-0.1,0.8-0.1,1.2v7.7v0.4v7.7
					c0,2.8,2.3,5.1,5.1,5.1h3.2c2.8,0,5.1-2.3,5.1-5.1v-6.8h4.7c5.4,0,9.8-5,9.8-11.2v-12.6C117.7,96.7,113.3,91.6,107.9,91.6z"/>
				<path class="st4" d="M122.1,86.3c-4.5-6.3-12.8-10.5-23.8-9.8C90.6,77,85,86.3,85,86.3c-4.8,1.1-8.8,6.9-7.8,14.2
					c1,7.3,6.5,10.2,6.5,10.2s2.3,2,4.3,0.1c0.5-0.5,1.6-1.6,2.8-2.9c2.5-1.1,7-3.5,8.7-7.1c0.3-0.7,0.6-1.4,0.9-2
					c8.3,5.4,21.5,5.8,22.4,1.8c0.9-4.1-3.6-5.6-3.6-5.6C123,96.6,126.6,92.6,122.1,86.3z"/>
				<g>
					<path class="st2" d="M79.6,111.6c0,3.6,2.9,6.4,6.5,6.4c3.6,0,6.5-2.9,6.5-6.4c0-3.6-2.9-6.4-6.5-6.4
						C82.5,105.2,79.6,108.1,79.6,111.6z"/>
					<g>
						<g>
							<path class="st5" d="M90.3,112.5c0-0.6-0.1-1.1-0.2-1.7c-0.3-1.1-1-2-2-2.5c-0.8-0.4-1.8-0.5-2.7-0.4c-0.4,0-0.7,0.3-0.7,0.7
								c0,0.3,0.3,0.7,0.7,0.7c0.4,0,0.8-0.1,1.2,0c0,0,0.1,0,0.1,0c-0.1-0.1-0.1,0,0,0c0.1,0,0.1,0,0.2,0c0.2,0,0.3,0.1,0.4,0.1
								c0.2,0.1-0.1-0.1,0.1,0c0.1,0,0.1,0.1,0.2,0.1c0,0,0.3,0.2,0.3,0.2c0,0-0.1-0.1,0,0c0,0,0,0,0.1,0.1c0,0,0.1,0.1,0.1,0.1
								c0.1,0.1,0.2,0.2,0.2,0.3c-0.1,0-0.1-0.1,0,0c0,0,0,0,0,0.1c0,0,0.1,0.1,0.1,0.1c0.1,0.1,0.1,0.2,0.2,0.3c0,0,0,0.1,0.1,0.2
								c0,0.1-0.1-0.2,0-0.1c0,0,0,0,0,0.1c0,0.1,0.1,0.2,0.1,0.3c0.1,0.2,0.1,0.4,0.1,0.5c0,0,0,0.1,0,0.1c0,0.2,0-0.2,0,0
								c0,0.1,0,0.2,0,0.2c0,0.2,0,0.3,0,0.5c0,0.4,0.3,0.7,0.7,0.7C90,113.1,90.3,112.8,90.3,112.5L90.3,112.5z"/>
						</g>
					</g>
				</g>
				<g>
					<g>
						<path class="st9" d="M101.4,107c0,1,0.8,1.8,1.8,1.8c1,0,1.8-0.8,1.8-1.8c0-1-0.8-1.8-1.8-1.8
							C102.3,105.2,101.4,106,101.4,107z"/>
						<path class="st9" d="M113.5,106.7c0,0.9,0.7,1.6,1.6,1.6c0.9,0,1.6-0.7,1.6-1.6s-0.7-1.6-1.6-1.6
							C114.2,105.2,113.5,105.9,113.5,106.7z"/>
					</g>
					<g>
						<path class="st33" d="M111.7,114.2c0,0-0.9,2.7-2.9,2.9c-2,0.2-3.5-2-3.6-3.7L111.7,114.2z"/>
						<g>
							<path class="st9" d="M111.2,114.1c0,0.1-0.1,0.1-0.1,0.2c0.1-0.2,0,0.1-0.1,0.1c0,0.1-0.1,0.2-0.2,0.3
								c-0.3,0.5-0.5,0.9-1,1.3c-0.4,0.4-1,0.6-1.6,0.5c-0.7-0.1-1.2-0.5-1.6-1c-0.5-0.6-0.8-1.3-0.9-2.1c-0.2,0.2-0.4,0.4-0.6,0.6
								c1.9,0.2,3.8,0.5,5.7,0.7c0.3,0,0.5,0.1,0.8,0.1c0.3,0,0.6-0.3,0.6-0.6c0-0.3-0.3-0.5-0.6-0.6c-1.9-0.2-3.8-0.5-5.7-0.7
								c-0.3,0-0.5-0.1-0.8-0.1c-0.3,0-0.6,0.3-0.6,0.6c0.1,1.7,1.3,3.6,3,4.1c1.7,0.5,3.1-0.5,4-1.9c0.2-0.4,0.4-0.8,0.6-1.2
								C112.5,113.7,111.4,113.4,111.2,114.1z"/>
						</g>
					</g>
					<g>
						<path class="st10" d="M95.1,113.7c0,2.5,2,4.6,4.6,4.6c2.5,0,4.6-2,4.6-4.6c0-2.5-2-4.6-4.6-4.6
							C97.1,109.2,95.1,111.2,95.1,113.7z"/>
						<path class="st10" d="M116.5,110.6c0.3,0,0.5,0,0.8,0.1v4.7c0,0.7,0,1.4-0.2,2.1c-0.2,0-0.4,0.1-0.6,0.1
							c-1.9,0-3.5-1.6-3.5-3.5C113,112.2,114.6,110.6,116.5,110.6z"/>
					</g>
					<polygon class="st8" points="109.6,105.2 109.3,111.4 112.3,109.6 					"/>
				</g>
			</g>
			<g>
				<line class="st7" x1="15.4" y1="249.7" x2="4.4" y2="244.4"/>
				<line class="st7" x1="22.7" y1="237.8" x2="12.5" y2="225.9"/>
				<line class="st7" x1="34.5" y1="232.3" x2="22.9" y2="212.3"/>
				<line class="st7" x1="43.6" y1="225.6" x2="40.4" y2="208.8"/>
			</g>
		</g>
	</g>
</g>
</svg>
