<?xml version="1.0" encoding="utf-8"?>
<!-- Generator: Adobe Illustrator 25.1.0, SVG Export Plug-In . SVG Version: 6.00 Build 0)  -->
<svg version="1.1" id="Layer_1" xmlns="http://www.w3.org/2000/svg" xmlns:xlink="http://www.w3.org/1999/xlink" x="0px" y="0px"
	 viewBox="0 0 2194.1 2003.3" style="enable-background:new 0 0 2194.1 2003.3;" xml:space="preserve">
<style type="text/css">
	.st0{opacity:0.62;fill:url(#SVGID_1_);enable-background:new    ;}
	.st1{fill:#7222E9;fill-opacity:0.102;}
	.st2{fill:none;stroke:#0B2EA4;stroke-width:16.0004;stroke-opacity:0.102;}
	.st3{fill:url(#SVGID_2_);}
	.st4{opacity:0.7;fill:url(#SVGID_3_);enable-background:new    ;}
	.st5{fill:url(#SVGID_4_);}
	.st6{fill:url(#SVGID_5_);}
	.st7{fill:#FFFFFF;fill-opacity:0.349;}
	.st8{fill:none;stroke:#582CDB;stroke-width:16.0004;stroke-linecap:round;stroke-linejoin:round;stroke-opacity:0.102;}
	.st9{fill:url(#SVGID_6_);}
	.st10{opacity:0.5;fill:url(#SVGID_7_);enable-background:new    ;}
	.st11{opacity:0.5;fill:url(#SVGID_8_);enable-background:new    ;}
	.st12{fill:#A06E48;}
	.st13{fill:#FEBF8C;}
	.st14{fill:#825AF3;}
	.st15{fill:#84583A;}
	.st16{fill:#191942;}
	.st17{fill:#FFFFFF;}
	.st18{fill:#A1E2FF;}
	.st19{fill:#9A6AFE;}
	.st20{fill:#F4DF78;}
	.st21{fill:#F3D4F8;}
	.st22{fill:#FFB6FF;}
	.st23{fill:#DD9F72;}
	.st24{fill:#C2ACFC;}
	.st25{fill:#AC9AEF;}
	.st26{fill:#F9CDED;}
	.st27{fill:#BF8862;}
	.st28{fill:#E3E2FF;}
	.st29{fill:#FFAEF5;}
	.st30{fill:#D35929;}
	.st31{fill:#FFEE88;}
	.st32{fill:#F4B382;}
	.st33{fill:#CFC2FF;}
	.st34{opacity:0.3;}
	.st35{fill:#895B3B;}
	.st36{opacity:0.84;}
	.st37{fill:url(#SVGID_9_);}
	.st38{fill:none;stroke:#162C95;stroke-width:16.0004;stroke-linecap:round;stroke-linejoin:round;stroke-opacity:0.102;}
	.st39{fill:#162C95;fill-opacity:0.102;}
	.st40{fill:url(#SVGID_10_);}
	.st41{fill:url(#SVGID_11_);}
	.st42{fill:url(#SVGID_12_);}
</style>
<g id="Layer_2_1_">
	
		<linearGradient id="SVGID_1_" gradientUnits="userSpaceOnUse" x1="696.0969" y1="-2727.8159" x2="61.591" y2="-689.0729" gradientTransform="matrix(1 0 0 1 694 2738)">
		<stop  offset="0" style="stop-color:#FF92E2"/>
		<stop  offset="0.4706" style="stop-color:#FF16AB"/>
		<stop  offset="1" style="stop-color:#BA30F3"/>
	</linearGradient>
	<path class="st0" d="M861.4,200.5c-167.5-47-405.8-139.7-577.1-12.7c-299.1,221-26.1,416.7-191.1,835.9s-70.7,811.8,449.3,910.9
		s755.8-260.4,1098.3-186.7c342.5,73.7,498.9-216,407.1-589.5c-91.8-374.8,203.5-528.5,91.8-823.2c-67-175.3-305.3-301.1-546.1-282
		c-593.2,48.3-33.5,340.5-731,147.4h-1.2L861.4,200.5L861.4,200.5z"/>
	<path class="st1" d="M308.4,490.1l-59-44c-3-2-6-1-8,1c-1,1-1,2-1,3l0,0l-8,74c0,3,2,6,5,6c1,0,2,0,3-1l68-29c3-1,4-5,3-7
		c0-1-1-2-2-2L308.4,490.1z M251.4,464.1l39,31l-44,18L251.4,464.1z"/>
	<path class="st2" d="M1143.6,1198.8c-15,0-27,12-27,27s12,27,27,27s27-12,27-27S1158.6,1198.8,1143.6,1198.8z"/>
	<path class="st2" d="M1479.9,247c-19.2,0-34.6,15.4-34.6,34.6s15.4,34.6,34.6,34.6s34.6-15.4,34.6-34.6S1499.1,247,1479.9,247z"/>
	<g>
		
			<linearGradient id="SVGID_2_" gradientUnits="userSpaceOnUse" x1="1222.1898" y1="-2307.2725" x2="1441.4198" y2="-2411.0327" gradientTransform="matrix(1 0 0 1 694 2738)">
			<stop  offset="0" style="stop-color:#6926EC"/>
			<stop  offset="1" style="stop-color:#CA39D9"/>
		</linearGradient>
		<path class="st3" d="M2168.4,389c7-75-47-141-122-149c-75-7-141,47-149,122c-7,75,47,141,122,149
			C2094.4,518,2160.4,464,2168.4,389z"/>
		
			<linearGradient id="SVGID_3_" gradientUnits="userSpaceOnUse" x1="1144.1224" y1="-2325.0918" x2="1413.342" y2="-2377.7019" gradientTransform="matrix(1 0 0 1 694 2738)">
			<stop  offset="0" style="stop-color:#6926EC"/>
			<stop  offset="1" style="stop-color:#CA39D9"/>
		</linearGradient>
		<path class="st4" d="M2168.4,389c7-75-47-141-122-149c-19-2-37,0-53,5l0,0c-6,2-11,4-17,6c88-7,107,51,131,128c11,33,32,48,48,55
			c1-2,2-4,2-5c-16-6-35-20-45-52c-24-73-42-130-118-132c125-13,112,56,138,123c10,27,25,29,34,28c0-3,1-5,1-8L2168.4,389z
			 M1917.4,303c-2,2-3,5-4,7c19-6,43-9,63,8c40,35,14,70,40,138c10,26,27,43,43,52c3-1,6-1,9-2c-48-24-57-77-60-123
			c-2-27-3-48-28-69c-19-17-42-17-62-11H1917.4z M1897.4,392c0,2,1,5,1,7c12,7,24,20,29,46c3,12,8,23,15,33c6,5,13,10,20,14
			c-14-14-25-30-29-48C1926.4,413,1911.4,399,1897.4,392z M1960.4,260c-12,8-24,18-33,29c21-6,44-5,64,10c60,44,16,102,64,165
			c13,18,30,26,47,27c20-12,37-28,48-49c-15,4-32-1-48-19c-34-39-11-109-93-149c-19-9-36-14-50-16L1960.4,260z M1907.4,323
			c-5,12-8,25-10,39c-1,6-1,11-1,16c50-12,53,103,120,132c1,0,2,0,3,0c13,1,27,1,39-2c-33-1-61-21-73-60c-20-64,5-95-33-121
			c-20-14-35-11-46-4H1907.4z"/>
	</g>
	<g>
		<g>
			
				<linearGradient id="SVGID_4_" gradientUnits="userSpaceOnUse" x1="76.3015" y1="-2301.3665" x2="99.0565" y2="-2410.9778" gradientTransform="matrix(1 0 0 1 694 2738)">
				<stop  offset="0" style="stop-color:#7022E9"/>
				<stop  offset="1" style="stop-color:#EA35D6"/>
			</linearGradient>
			<path class="st5" d="M761.1,317c34-12,70,6,82,39c12,34-6,70-39,82c-34,12-70-6-82-39C710.1,365,728.1,329,761.1,317z"/>
			
				<linearGradient id="SVGID_5_" gradientUnits="userSpaceOnUse" x1="87.41" y1="-2296.8445" x2="113.8408" y2="-2472.5935" gradientTransform="matrix(1 0 0 1 694 2738)">
				<stop  offset="0" style="stop-color:#7022E9"/>
				<stop  offset="1" style="stop-color:#EA35D6"/>
			</linearGradient>
			<path class="st6" d="M764.1,316c7-2,15-3,22-3c-9,5-18,12-25,22c-19,29,7,39,9,83c0,8-1,15-3,21c-12-3-22-9-31-18c4-11,4-25,0-45
				C732.1,355,764.1,316,764.1,316z M804.1,317c2,1,5,2,7,3c-15,12-12,31,5,39c11,5,22,16,30,27c-3,20-15,38-33,48c2-4,4-9,5-14
				c4-24-26-29-34-64C779.1,335,804.1,317,804.1,317z"/>
		</g>
		<path class="st7" d="M843.1,356c51,15,86,35,83,50c-11.2,53-297.4-4.5-287-54c3-15,42-20,96-16c-2,2-4,4-5,6c-30-2-50,1-52,9
			c-5.7,34.1,206.6,70.9,212,41c1-8-17-18-45-27C843.6,362,842.9,359.1,843.1,356z"/>
	</g>
	<polygon class="st8" points="1140.9,1079.5 1090.9,1050.5 1062.9,1100.5 1112.9,1129.5 	"/>
	
		<linearGradient id="SVGID_6_" gradientUnits="userSpaceOnUse" x1="116.1838" y1="2012.5728" x2="303.2941" y2="2206.5808" gradientTransform="matrix(1 0 0 -1 0 2344.5)">
		<stop  offset="0" style="stop-color:#9E1A99"/>
		<stop  offset="1" style="stop-color:#FF2D86"/>
	</linearGradient>
	<path class="st9" d="M128.8,130.5C59,162.8,27.9,245.6,60.3,316.7c32.3,69.8,115.1,100.9,186.2,68.5
		c69.8-32.3,100.8-115,68.5-186.2C282.7,129.2,199.9,98.1,128.8,130.5z"/>
	
		<linearGradient id="SVGID_7_" gradientUnits="userSpaceOnUse" x1="-589.0687" y1="-2386.7046" x2="-439.703" y2="-2555.5176" gradientTransform="matrix(1 0 0 1 694 2738)">
		<stop  offset="0" style="stop-color:#9E1A99"/>
		<stop  offset="1" style="stop-color:#FF2D86"/>
	</linearGradient>
	<path class="st10" d="M128.7,131.5C58.9,163.8,27.8,246.6,60.2,317.7C68,335.8,79.6,350,92.5,363l0,0c5.2,3.9,10.9,7.8,16.1,11.7
		C56.9,299.7,96.4,253,152,191c23.3-27.2,25.9-53,23.3-71.1c-2.6,0-3.9,0-6.5,0c2.6,16.8,0,41.4-22,67.3
		c-53,59.5-93.1,104.8-55.6,173.3C14.9,257,82.1,231.2,128.7,174.3c19.4-23.3,12.9-37.5,6.5-45.3c-2.6,1.3-5.2,2.6-7.8,2.6h1.3
		V131.5z M184.2,398.3c2.6,0,5,0.1,7.6,0.1c-15.5-14.2-29.4-32.8-25.5-58.6c10.3-53,54.3-49.1,100.9-107.4
		c18.1-23.3,23.3-45.3,23.3-66c-2.6-2.6-3.9-3.9-6.5-6.5c3.9,55.6-38.8,91.8-77.6,117.7c-23.3,15.5-40.1,27.2-46.6,60.8
		c-5.2,25.9,7.3,45.7,21.6,59.9L184.2,398.3z M272.3,370.8c2.6-1.3,3.9-2.6,6.5-5.2c0-14.2,5.2-31,24.6-49.1
		c9.1-7.8,15.5-19.4,22-31c1.3-7.8,2.6-16.8,2.6-24.6c-5.2,19.4-14.2,37.5-28.5,50.4c-23.3,22-28.5,42.7-27.2,58.2L272.3,370.8
		L272.3,370.8z M123,381.9c12.9,6.5,28.3,12.6,42.6,15.2c-15.5-15.5-27.9-35.3-25.3-61.2c7.8-76.3,81.5-67.3,113.8-142.3
		c9.1-22,7.8-40.1,0-55.6c-20.7-11.6-44-18.1-68.5-18.1c10.3,11.6,15.5,28.5,7.8,53c-16.8,50.4-90.5,66-84.1,159.1
		c1.3,22,6,33.5,11.2,47.7L123,381.9z M206.3,398c12.9-1.3,25.9-5.2,38.8-11.6c5.2-2.6,10.3-5.2,15.5-7.8
		C224.4,341.1,325.3,277.7,315,204c0-1.3-1.3-1.3-1.3-2.6c-6.5-12.9-12.9-24.6-22-33.6c16.8,29.7,12.9,64.7-14.2,95.7
		c-46.6,51.7-88,45.3-90.5,93.1c-1.3,24.6,6.4,33.2,16.7,39.7L206.3,398z"/>
	
		<linearGradient id="SVGID_8_" gradientUnits="userSpaceOnUse" x1="565.7708" y1="-1971.9407" x2="224.6424" y2="-930.4797" gradientTransform="matrix(1 0 0 1 694 2738)">
		<stop  offset="0" style="stop-color:#F088D4"/>
		<stop  offset="0.4706" style="stop-color:#F0139F"/>
		<stop  offset="1" style="stop-color:#AE2BE4"/>
	</linearGradient>
	<path class="st11" d="M20.5,1378.2c-3.7,267.8,150,484.7,521.9,552.9c519.4,96.7,755-254.1,1097.2-182.2
		c298.8,63.2,456.2-145,428.9-441.3c-34.7,17.4-69.4,45.9-90.5,91.7c-53.3,115.3-163.6,102.9-163.6,102.9s-380.6,20.9-1032.7,2.5
		c-99.1-2.8-503.7-34.5-575.2-48.2c-85.5-16.3-104.8-8.1-187.2-78.3L20.5,1378.2L20.5,1378.2z"/>
	<polygon class="st8" points="2030,651.1 1979.9,622 1951.9,672.1 2001.9,701.1 	"/>
</g>
<g id="Layer_1_1_">
	<g>
		<polygon class="st12" points="1373.5,689.3 1369.1,672.3 1362.1,672 1361.5,688.8 		"/>
	</g>
	<g>
		<polygon class="st13" points="856.8,660.9 862.8,644.4 869.7,644.8 868.8,661.6 		"/>
	</g>
	<g>
		<g>
			<polygon class="st14" points="962.7,563.4 825.3,793.3 962.7,827 			"/>
		</g>
		<g>
			<polygon class="st12" points="1142.9,474.2 1151.5,519.8 1075.7,516 1084.9,474.2 			"/>
		</g>
		<g>
			<path class="st15" d="M1083.6,480.1c0,0,7.5,0.8,19.9,3.8c12.3,3,2.3,24.9-27.8,32.1L1083.6,480.1z"/>
		</g>
		<g>
			<polygon class="st14" points="1272.1,553.4 1409.5,783.3 1272.1,817 			"/>
		</g>
		<g>
			<g>
				<ellipse class="st12" cx="1032.9" cy="421.3" rx="18.5" ry="18.5"/>
			</g>
			<g>
				<path class="st16" d="M1039.5,429.9c-0.6,0-1.2-0.4-1.4-1l-6.7-17.6c-0.3-0.8,0.1-1.6,0.9-1.9s1.6,0.1,1.9,0.9l6.7,17.6
					c0.3,0.8-0.1,1.6-0.9,1.9C1039.9,429.9,1039.7,429.9,1039.5,429.9z"/>
			</g>
			<g>
				<path class="st16" d="M1036.2,421.1C1036.1,421.1,1036.1,421.1,1036.2,421.1l-10.1-0.5c-0.8,0-1.5-0.7-1.4-1.6
					c0-0.8,0.8-1.5,1.6-1.4l10,0.5c0.8,0,1.5,0.7,1.4,1.6C1037.6,420.5,1036.9,421.1,1036.2,421.1z"/>
			</g>
		</g>
		<g>
			
				<ellipse transform="matrix(0.7071 -0.7071 0.7071 0.7071 42.7038 907.2752)" class="st16" cx="1116.5" cy="402.1" rx="67.9" ry="67.9"/>
		</g>
		<g>
			
				<ellipse transform="matrix(0.4874 -0.8732 0.8732 0.4874 226.4763 1108.9978)" class="st16" cx="1057.8" cy="361.6" rx="30.1" ry="30.1"/>
		</g>
		<g>
			<path class="st16" d="M1111.6,336.9c3.1,11-3.3,22.4-14.2,25.5c-11,3.1-22.4-3.3-25.5-14.2c-3.1-11,3.3-22.4,14.2-25.5
				C1097.1,319.6,1108.5,325.9,1111.6,336.9z"/>
		</g>
		<g>
			
				<ellipse transform="matrix(0.7071 -0.7071 0.7071 0.7071 27.9097 907.3953)" class="st12" cx="1109.3" cy="420" rx="67.9" ry="67.9"/>
		</g>
		<g>
			<g>
				<ellipse class="st12" cx="1184.1" cy="419.4" rx="18.5" ry="18.5"/>
			</g>
			<g>
				<path class="st16" d="M1176.6,427.2c-0.2,0-0.5-0.1-0.7-0.2c-0.7-0.4-1-1.3-0.6-2l8.8-16.7c0.4-0.7,1.3-1,2-0.6s1,1.3,0.6,2
					l-8.8,16.7C1177.7,426.9,1177.2,427.2,1176.6,427.2z"/>
			</g>
			<g>
				<path class="st16" d="M1191,419.6L1191,419.6l-10.1-0.7c-0.8-0.1-1.4-0.8-1.4-1.6c0.1-0.8,0.8-1.5,1.6-1.4l10,0.7
					c0.8,0.1,1.4,0.8,1.4,1.6C1192.5,419,1191.8,419.6,1191,419.6z"/>
			</g>
		</g>
		<g>
			<polygon class="st12" points="999.8,1626.9 999.8,1702.8 933.2,1713.5 930.4,1618.4 			"/>
		</g>
		<g>
			<path class="st17" d="M999.8,1702.8v47.4H837.3c0,0-0.4-17.5,10.7-23.1c7.8-3.9,78.9-36.4,84.5-39.9l19,13.4l26.4-12
				C988.1,1684,999.8,1691.5,999.8,1702.8z"/>
		</g>
		<g>
			<rect x="837.2" y="1750.2" class="st16" width="162.5" height="17.8"/>
		</g>
		<g>
			<polygon class="st15" points="999.8,1653.2 999.8,1665.1 935,1653.2 			"/>
		</g>
		<g>
			<polygon class="st12" points="1156.7,1627.1 1156.7,1702.9 1223.2,1713.6 1226,1618.6 			"/>
		</g>
		<g>
			<path class="st17" d="M1156.7,1702.9v47.4h162.5c0,0,0.4-17.5-10.7-23.1c-7.8-3.9-79-33.7-84.5-37.3l-18.9,10.7l-26.4-12
				C1168.3,1684.1,1156.7,1691.6,1156.7,1702.9z"/>
		</g>
		<g>
			<rect x="1156.7" y="1750.4" class="st16" width="162.5" height="17.8"/>
		</g>
		<g>
			<polygon class="st15" points="1156.7,1653.3 1156.7,1665.3 1221.5,1653.3 			"/>
		</g>
		<g>
			<polygon class="st18" points="1270.8,1653.1 1293.5,879.2 946.5,901.6 843.3,1324.5 880.6,1653.1 1025.5,1653.1 1021.7,1367.6 
				1090.7,1158.4 1130.1,1653.1 			"/>
		</g>
		<g>
			<path class="st19" d="M1054.2,514.9l156.1,7.8c46.6,2.3,83.2,40.8,83.2,87.5v269.1l-348.8,30.4l1.3-292.2
				C946.2,558.7,995.5,512,1054.2,514.9z"/>
		</g>
		<g>
			<path class="st16" d="M899.2,1629.8c-0.8,0-1.4-0.6-1.5-1.3c-1.1-10.8-27.8-266-21.5-312.2c5.5-40,70.6-271.5,98.4-370.4
				c5.7-20.3,9.8-35,11.3-40.3c0.2-0.8,1-1.3,1.8-1.1s1.3,1,1.1,1.8c-1.5,5.4-5.6,20.1-11.3,40.4c-27.8,98.8-92.8,330.2-98.3,370
				c-6.3,45.9,21.2,308.9,21.5,311.5c0.1,0.8-0.5,1.6-1.3,1.6C899.3,1629.8,899.3,1629.8,899.2,1629.8z"/>
		</g>
		<g>
			<path class="st16" d="M1025.2,1629.8H877.8c-0.8,0-1.5-0.7-1.5-1.5s0.7-1.5,1.5-1.5h147.4c0.8,0,1.5,0.7,1.5,1.5
				C1026.7,1629.2,1026,1629.8,1025.2,1629.8z"/>
		</g>
		<g>
			<path class="st16" d="M1271.5,1629.8h-143.4c-0.8,0-1.5-0.7-1.5-1.5s0.7-1.5,1.5-1.5h143.4c0.8,0,1.5,0.7,1.5,1.5
				C1273,1629.2,1272.4,1629.8,1271.5,1629.8z"/>
		</g>
		<g>
			<path class="st20" d="M1091,1161.7l-2.9-98.5c0,0-60,55.1-66.4,304.4L1091,1161.7z"/>
		</g>
		<g>
			<path class="st16" d="M918.5,1712.7c-0.4,0-0.9-0.2-1.1-0.5l-10.3-12.2c-0.5-0.6-0.5-1.6,0.2-2.1c0.6-0.5,1.6-0.5,2.1,0.2
				l10.3,12.2c0.5,0.6,0.5,1.6-0.2,2.1C919.2,1712.6,918.9,1712.7,918.5,1712.7z"/>
		</g>
		<g>
			<path class="st16" d="M935,1706.6c-0.4,0-0.8-0.2-1.1-0.5l-11.4-13.4c-0.5-0.6-0.5-1.6,0.2-2.1c0.6-0.5,1.6-0.5,2.1,0.2
				l11.4,13.4c0.5,0.6,0.5,1.6-0.2,2.1C935.7,1706.5,935.3,1706.6,935,1706.6z"/>
		</g>
		<g>
			<path class="st16" d="M1241,1715c-0.3,0-0.7-0.1-1-0.4c-0.6-0.5-0.7-1.5-0.2-2.1l10.3-12.2c0.5-0.6,1.5-0.7,2.1-0.2
				s0.7,1.5,0.2,2.1l-10.3,12.2C1241.8,1714.8,1241.4,1715,1241,1715z"/>
		</g>
		<g>
			<path class="st16" d="M1224.6,1708.8c-0.3,0-0.7-0.1-1-0.4c-0.6-0.5-0.7-1.5-0.2-2.1l11.4-13.4c0.5-0.6,1.5-0.7,2.1-0.2
				s0.7,1.5,0.2,2.1l-11.4,13.4C1225.4,1708.7,1225,1708.8,1224.6,1708.8z"/>
		</g>
		<g>
			<path class="st16" d="M1093.3,437.6c-5.9,0-10.8-4.7-11.1-10.6c-0.2-5.6,3.8-10.5,9.2-11.4l0.5-13.1c0-0.8,0.7-1.5,1.6-1.4
				c0.8,0,1.5,0.7,1.4,1.6l-0.5,14.4c0,0.8-0.7,1.4-1.4,1.4c-2.2,0.1-4.1,1-5.6,2.6s-2.2,3.7-2.1,5.8c0.2,4.5,4,7.9,8.4,7.7
				c0.8,0,1.5,0.6,1.6,1.4c0,0.8-0.6,1.5-1.4,1.6C1093.6,437.6,1093.4,437.6,1093.3,437.6z"/>
		</g>
		<g>
			<path class="st16" d="M1057.5,412.1c1,3.4,4.5,5.3,7.8,4.4s5.3-4.5,4.4-7.8c-1-3.4-4.5-5.3-7.8-4.4
				C1058.5,405.2,1056.6,408.7,1057.5,412.1z"/>
		</g>
		<g>
			<path class="st16" d="M1124.5,411.4c1,3.4,4.5,5.3,7.8,4.4s5.3-4.5,4.4-7.8c-1-3.4-4.5-5.3-7.8-4.4
				C1125.5,404.6,1123.5,408.1,1124.5,411.4z"/>
		</g>
		<g>
			<path class="st16" d="M1123.9,388.4l12.1,1.4c3,0.4,5.8-1.8,6.1-4.9l0,0c0.4-3-1.8-5.8-4.9-6.1l-12.1-1.4c-3-0.4-5.8,1.8-6.1,4.9
				l0,0C1118.7,385.2,1120.8,388,1123.9,388.4z"/>
		</g>
		<g>
			<path class="st16" d="M1060.8,398.2l12.1-0.9c3-0.2,5.3-2.9,5.1-5.9l0,0c-0.2-3-2.9-5.3-5.9-5.1l-12.1,0.9
				c-3,0.2-5.3,2.9-5.1,5.9l0,0C1055.1,396.1,1057.7,398.4,1060.8,398.2z"/>
		</g>
		<g>
			<path class="st16" d="M1250.8,1629.8L1250.8,1629.8c-0.9,0-1.5-0.7-1.5-1.5l10.6-746.3c0-0.8,0.7-1.5,1.5-1.5l0,0
				c0.8,0,1.5,0.7,1.5,1.5l-10.6,746.3C1252.3,1629.2,1251.6,1629.8,1250.8,1629.8z"/>
		</g>
		<g>
			<rect x="1151.5" y="621.8" class="st21" width="85.9" height="109.3"/>
		</g>
		<g>
			<path class="st16" d="M1195.2,655.1c-0.3,0-0.6-0.1-0.9-0.3l-42.8-31.1c-0.7-0.5-0.8-1.4-0.3-2.1c0.5-0.7,1.4-0.8,2.1-0.3
				l41.9,30.5l40.6-30.6c0.7-0.5,1.6-0.4,2.1,0.3s0.4,1.6-0.3,2.1l-41.5,31.2C1195.8,655,1195.5,655.1,1195.2,655.1z"/>
		</g>
		<g>
			<path class="st17" d="M1081.3,454.3c1.2,9.7,10,16.6,19.7,15.5c9.7-1.2,16.6-10,15.5-19.7L1081.3,454.3z"/>
		</g>
	</g>
	<g>
		<g>
			<polygon class="st22" points="1536.8,561.4 1358,874 1428.1,935.5 1568.1,784.1 			"/>
		</g>
		<g>
			<g>
				<circle class="st23" cx="1608.1" cy="424.1" r="18.5"/>
			</g>
			<g>
				<path class="st16" d="M1616.4,430.7c-0.5,0-0.9-0.2-1.2-0.6l-11.1-15.2c-0.5-0.7-0.3-1.6,0.3-2.1c0.7-0.5,1.6-0.3,2.1,0.3
					l11.1,15.2c0.5,0.7,0.3,1.6-0.3,2.1C1617.1,430.6,1616.7,430.7,1616.4,430.7z"/>
			</g>
			<g>
				<path class="st16" d="M1601.1,425.3c-0.7,0-1.3-0.5-1.5-1.2c-0.2-0.8,0.3-1.6,1.1-1.8l9.8-2.1c0.8-0.2,1.6,0.3,1.8,1.1
					c0.2,0.8-0.3,1.6-1.1,1.8l-9.8,2.1C1601.3,425.3,1601.2,425.3,1601.1,425.3z"/>
			</g>
		</g>
		<g>
			
				<ellipse transform="matrix(0.3162 -0.9487 0.9487 0.3162 764.2698 1870.7487)" class="st16" cx="1679.9" cy="405.2" rx="70.5" ry="70.5"/>
		</g>
		<g>
			<path class="st24" d="M2000.3,1596.2l-120,33.8l-73-254.9c0,0-115.6-305.9-115.6-302c0,7.4,2.3,556.8,2.3,556.8l-142-17
				l-36-693.8l344.3,63.3l92.5,324.5L2000.3,1596.2z"/>
		</g>
		<g>
			<polygon class="st23" points="1664.6,1626.4 1664.6,1678.8 1607.7,1678.8 1599.7,1618.6 			"/>
		</g>
		<g>
			<path class="st17" d="M1664.6,1678.8v71.6h-158c0,0,0-21.6,54.5-40.9c47.1-16.7,46.6-30.7,46.6-30.7H1664.6z"/>
		</g>
		<g>
			<circle class="st21" cx="1632.2" cy="1703.7" r="15.6"/>
		</g>
		<g>
			<rect x="1506.5" y="1750.4" class="st16" width="158" height="17.8"/>
		</g>
		<g>
			<path class="st16" d="M1607.7,1680.3c-0.2,0-0.3,0-0.5-0.1c-3-1-29.1-9.8-31.4-19.6c-0.4-1.6-0.3-4,2.1-6.4c2-2,4.3-2.8,6.9-2.4
				c4.7,0.7,10.2,5.4,16.4,13.9c4.5,6.2,7.6,12.1,7.8,12.3c0.3,0.5,0.2,1.2-0.2,1.7C1608.6,1680.1,1608.1,1680.3,1607.7,1680.3z
				 M1583.6,1654.8c-1.3,0-2.5,0.5-3.6,1.6c-1.5,1.5-1.5,2.8-1.3,3.6c0.8,3.3,6.2,7.4,15.2,11.7c3.9,1.8,7.8,3.4,10.5,4.4
				c-4.6-7.7-13.3-20.2-20.1-21.2C1584.1,1654.8,1583.8,1654.8,1583.6,1654.8z"/>
		</g>
		<g>
			<path class="st16" d="M1578.7,1698.9c-0.7,0-1.3-0.1-1.9-0.2c-1.6-0.4-3.7-1.6-4.7-4.8c-0.8-2.7-0.5-5.1,1.1-7.3
				c2.8-3.9,9.5-6.6,19.9-8.1c7.6-1.1,14.2-1.2,14.5-1.2l0,0c0.6,0,1.2,0.4,1.4,0.9c0.2,0.6,0.1,1.2-0.3,1.6
				C1606.6,1681.9,1588.9,1698.9,1578.7,1698.9z M1603.7,1680.5c-8.9,0.5-24.1,2.4-28.1,7.9c-1,1.4-1.2,2.9-0.7,4.6
				c0.7,2.1,1.8,2.6,2.6,2.8c3.3,0.8,9.5-2,17.4-8.1C1598.4,1685.1,1601.6,1682.4,1603.7,1680.5z"/>
		</g>
		<g>
			<path class="st16" d="M1637.5,1751.9c-0.1,0-0.3,0-0.4,0c-0.8-0.2-1.3-1-1.1-1.8c6.1-23.2,27-32.4,27.9-32.8c0.8-0.3,1.6,0,2,0.8
				c0.3,0.8,0,1.6-0.8,2c-0.2,0.1-20.5,9.1-26.2,30.8C1638.8,1751.4,1638.2,1751.9,1637.5,1751.9z"/>
		</g>
		<g>
			<path class="st16" d="M1551.6,1751.9c-0.8,0-1.5-0.7-1.5-1.5v-37.6c0-0.8,0.7-1.5,1.5-1.5s1.5,0.7,1.5,1.5v37.6
				C1553.1,1751.2,1552.4,1751.9,1551.6,1751.9z"/>
		</g>
		<g>
			<polygon class="st23" points="1905.7,1622.7 1921.3,1678.9 1978.1,1678.9 1969.3,1604.9 			"/>
		</g>
		<g>
			<path class="st17" d="M1921.3,1678.9v71.6h158c0,0,0-21.6-54.5-40.9c-47.1-16.7-46.6-30.7-46.6-30.7H1921.3z"/>
		</g>
		<g>
			<circle class="st21" cx="1953.7" cy="1703.9" r="15.6"/>
		</g>
		<g>
			<rect x="1921.3" y="1750.5" class="st16" width="158" height="17.8"/>
		</g>
		<g>
			<path class="st16" d="M1978.1,1680.4c-0.4,0-0.9-0.2-1.1-0.5c-0.4-0.5-0.5-1.1-0.2-1.7c0.1-0.2,3.3-6.1,7.8-12.3
				c6.2-8.5,11.7-13.2,16.4-13.9c2.6-0.4,5,0.4,6.9,2.4c2.4,2.4,2.5,4.8,2.1,6.4c-2.3,9.8-28.5,18.6-31.4,19.6
				C1978.5,1680.4,1978.3,1680.4,1978.1,1680.4z M2002.3,1654.9c-0.3,0-0.5,0-0.8,0.1c-6.7,1-15.5,13.5-20.1,21.2
				c2.7-1,6.6-2.5,10.5-4.4c9-4.3,14.4-8.4,15.2-11.7c0.2-0.8,0.3-2-1.3-3.6C2004.8,1655.5,2003.6,1654.9,2002.3,1654.9z"/>
		</g>
		<g>
			<path class="st16" d="M2007.1,1699c-10.2,0-27.9-17-30-19c-0.4-0.4-0.6-1.1-0.3-1.6c0.2-0.6,0.8-0.9,1.4-0.9l0,0
				c0.3,0,7,0.1,14.5,1.2c10.4,1.5,17.1,4.3,19.9,8.1c1.6,2.1,1.9,4.6,1.1,7.3c-1,3.2-3.1,4.4-4.7,4.8
				C2008.4,1699,2007.8,1699,2007.1,1699z M1982.1,1680.6c2.2,1.9,5.3,4.7,8.8,7.3c8,6,14.2,8.9,17.4,8.1c0.8-0.2,1.9-0.7,2.6-2.8
				c0.5-1.7,0.3-3.2-0.7-4.6C2006.2,1683,1991,1681.1,1982.1,1680.6z"/>
		</g>
		<g>
			<path class="st16" d="M1948.3,1752c-0.7,0-1.3-0.4-1.5-1.1c-5.7-21.8-26-30.7-26.2-30.8c-0.8-0.3-1.1-1.2-0.8-2s1.2-1.1,2-0.8
				c0.9,0.4,21.8,9.6,27.9,32.8c0.2,0.8-0.3,1.6-1.1,1.8C1948.6,1752,1948.4,1752,1948.3,1752z"/>
		</g>
		<g>
			<path class="st16" d="M2034.2,1752c-0.8,0-1.5-0.7-1.5-1.5v-37.6c0-0.8,0.7-1.5,1.5-1.5s1.5,0.7,1.5,1.5v37.6
				C2035.7,1751.3,2035.1,1752,2034.2,1752z"/>
		</g>
		<g>
			<path class="st25" d="M1691.6,1072.5c0,0-46.9,40.7-44.6,82.4c2.1,38.5,46.2,264.1,46.2,264.1L1691.6,1072.5z"/>
		</g>
		<g>
			<path class="st26" d="M1860.3,982.5L1516,919.2c0,0-69.7-1.5-49.2-100.3c11.5-55.7,32.4-146.4,48.5-215
				c12.3-52.6,62.7-87.3,116.2-80l108.5,14.8c58.2,7.9,105.1,51.6,117.2,109.1l18.1,208.5C1875.4,856.3,1891.9,948,1860.3,982.5z"/>
		</g>
		<g>
			<polygon class="st23" points="1714.5,485.4 1724.1,536.5 1647.6,526 1656.5,485.4 			"/>
		</g>
		<g>
			
				<ellipse transform="matrix(0.7071 -0.7071 0.7071 0.7071 189.5991 1312.0988)" class="st23" cx="1678.6" cy="427.2" rx="67.9" ry="67.9"/>
		</g>
		<g>
			
				<ellipse transform="matrix(0.4605 -0.8877 0.8877 0.4605 644.5807 1692.8147)" class="st16" cx="1714.9" cy="316.2" rx="34.6" ry="34.6"/>
		</g>
		<g>
			<path class="st16" d="M1663.2,442.8c-5.2,0-9.9-3.7-10.9-9.1c-1-5.5,2.3-10.9,7.5-12.6l-1.4-13.1c-0.1-0.8,0.5-1.6,1.3-1.6
				c0.8-0.1,1.6,0.5,1.6,1.3l1.5,14.4c0.1,0.8-0.4,1.5-1.2,1.6c-4.4,0.8-7.3,5-6.5,9.4s5,7.3,9.4,6.5c0.8-0.2,1.6,0.4,1.7,1.2
				c0.2,0.8-0.4,1.6-1.2,1.7C1664.5,442.8,1663.8,442.8,1663.2,442.8z"/>
		</g>
		<g>
			<g>
				<circle class="st23" cx="1751.5" cy="411.8" r="18.5"/>
			</g>
			<g>
				<path class="st16" d="M1745,420.6c-0.2,0-0.3,0-0.5-0.1c-0.8-0.3-1.2-1.1-0.9-1.9l6.4-17.7c0.3-0.8,1.1-1.2,1.9-0.9
					c0.8,0.3,1.2,1.1,0.9,1.9l-6.4,17.7C1746.2,420.2,1745.6,420.6,1745,420.6z"/>
			</g>
			<g>
				<path class="st16" d="M1748.2,411.7c-0.8,0-1.4-0.6-1.5-1.4s0.6-1.5,1.4-1.6l10-0.7c0.8-0.1,1.5,0.6,1.6,1.4s-0.6,1.5-1.4,1.6
					l-10,0.7C1748.2,411.7,1748.2,411.7,1748.2,411.7z"/>
			</g>
		</g>
		<g>
			<path class="st27" d="M1655.2,491.3c0,0,7.5,0.8,19.9,3.8c12.3,3,2.6,23.7-27.5,30.9L1655.2,491.3z"/>
		</g>
		<g>
			<path class="st25" d="M1912.2,1621c0,0-36.8-114.9-68.7-119.7l36.8,128.7L1912.2,1621z"/>
		</g>
		<g>
			<polygon class="st27" points="1969.3,1604.9 1909.1,1635.1 1905.7,1622.7 			"/>
		</g>
		<g>
			<polygon class="st27" points="1664.6,1626.4 1664.6,1638.4 1599.7,1618.6 			"/>
		</g>
		<g>
			<path class="st17" d="M1683.3,442.1"/>
		</g>
		<g>
			<path class="st17" d="M1665.7,453.4c4.8,8.6,15.6,11.6,24.1,6.8c8.6-4.8,11.6-15.6,6.8-24.1L1665.7,453.4z"/>
		</g>
		<g>
			<path class="st16" d="M1625.4,420.5c1.4,3.2,5.2,4.6,8.4,3.2c3.2-1.4,4.6-5.2,3.2-8.4c-1.4-3.2-5.2-4.6-8.4-3.2
				C1625.5,413.5,1624,417.3,1625.4,420.5z"/>
		</g>
		<g>
			<path class="st16" d="M1691.2,407.5c0.2-3.5,3.2-6.1,6.6-5.9c3.5,0.2,6.1,3.2,5.9,6.6c-0.2,3.5-3.2,6.1-6.6,5.9
				C1693.6,413.9,1691,411,1691.2,407.5z"/>
		</g>
		<g>
			<path class="st16" d="M1692.7,393.2l10.6-0.3c2.3-0.1,4.1-2,4.1-4.3v-0.7c-0.1-2.3-2-4.1-4.3-4.1l-10.6,0.3
				c-2.3,0.1-4.1,2-4.1,4.3v0.7C1688.5,391.4,1690.4,393.2,1692.7,393.2z"/>
		</g>
		<g>
			<path class="st16" d="M1625.1,405l10.4-2.3c2.2-0.5,3.7-2.7,3.2-5l-0.1-0.7c-0.5-2.2-2.7-3.7-5-3.2l-10.4,2.3
				c-2.2,0.5-3.7,2.7-3.2,5l0.2,0.7C1620.7,404,1622.9,405.5,1625.1,405z"/>
		</g>
		<g>
			<circle class="st28" cx="1676.6" cy="564.8" r="15.2"/>
		</g>
		<g>
			
				<ellipse transform="matrix(0.9871 -0.1602 0.1602 0.9871 -76.5043 275.6647)" class="st21" cx="1671.4" cy="612.3" rx="15.2" ry="15.2"/>
		</g>
		<g>
			<g>
				<path class="st16" d="M1679.8,566c0,1.3,1,2.3,2.3,2.3s2.3-1,2.3-2.3s-1-2.3-2.3-2.3S1679.8,564.7,1679.8,566z"/>
			</g>
			<g>
				<path class="st16" d="M1668.8,563.7c0,1.3,1,2.3,2.3,2.3s2.3-1,2.3-2.3s-1-2.3-2.3-2.3S1668.8,562.4,1668.8,563.7z"/>
			</g>
		</g>
		<g>
			<g>
				<path class="st16" d="M1674.3,614.1c0,1.3,1,2.3,2.3,2.3s2.3-1,2.3-2.3s-1-2.3-2.3-2.3S1674.3,612.8,1674.3,614.1z"/>
			</g>
			<g>
				<path class="st16" d="M1663.3,611.8c0,1.3,1,2.3,2.3,2.3s2.3-1,2.3-2.3s-1-2.3-2.3-2.3S1663.3,610.5,1663.3,611.8z"/>
			</g>
		</g>
		<g>
			<path class="st29" d="M1851.3,627.4L1819.6,736c-9.4,26.2-36.1,41.9-63.6,37.5l-44.4-15.1l-7.8,80.4c0,0,53.8,39.8,84.6,47
				c101.4,23.8,139.8-79.2,100-176.6L1851.3,627.4z"/>
		</g>
	</g>
	<g>
		<g>
			<polygon class="st30" points="385.6,491.6 469.9,359.1 589,380.9 596.9,522 			"/>
		</g>
		<g>
			<polygon class="st24" points="371.2,550 203.5,753 310.6,779.4 			"/>
		</g>
		<g>
			<g>
				<polygon class="st13" points="538.3,1626.7 538.3,1679.1 595.2,1679.1 603.2,1618.9 				"/>
			</g>
			<g>
				<path class="st17" d="M538.3,1679.1v71.6h158c0,0,0-21.6-54.5-40.9c-47.1-16.7-46.6-30.7-46.6-30.7H538.3z"/>
			</g>
			<g>
				<ellipse class="st31" cx="570.7" cy="1704.1" rx="15.6" ry="15.6"/>
			</g>
			<g>
				<rect x="538.3" y="1750.7" class="st16" width="158" height="17.8"/>
			</g>
			<g>
				<path class="st16" d="M595.2,1680.6c-0.4,0-0.9-0.2-1.1-0.5c-0.4-0.5-0.5-1.1-0.2-1.7c0.1-0.2,3.3-6.1,7.8-12.3
					c6.2-8.5,11.7-13.2,16.4-13.9c2.6-0.4,5,0.4,6.9,2.4c2.4,2.4,2.5,4.8,2.1,6.4c-2.3,9.8-28.5,18.6-31.4,19.6
					C595.5,1680.6,595.4,1680.6,595.2,1680.6z M619.3,1655.1c-0.3,0-0.5,0-0.8,0.1c-6.7,1-15.5,13.5-20.1,21.2
					c2.7-1,6.6-2.5,10.5-4.4c9-4.3,14.4-8.4,15.2-11.7c0.2-0.8,0.3-2-1.3-3.6C621.8,1655.6,620.7,1655.1,619.3,1655.1z"/>
			</g>
			<g>
				<path class="st16" d="M624.2,1699.2c-10.2,0-27.9-17-30-19c-0.4-0.4-0.6-1.1-0.3-1.6c0.2-0.6,0.8-0.9,1.4-0.9
					c0.3,0,7,0.1,14.5,1.2c10.4,1.5,17.1,4.3,19.9,8.1c1.6,2.1,1.9,4.6,1.1,7.3c-1,3.2-3.1,4.4-4.7,4.8
					C625.5,1699.1,624.9,1699.2,624.2,1699.2z M599.2,1680.8c2.2,1.9,5.3,4.7,8.8,7.3c8,6,14.2,8.9,17.4,8.1
					c0.8-0.2,1.9-0.7,2.6-2.8c0.5-1.7,0.3-3.2-0.7-4.6C623.2,1683.2,608.1,1681.3,599.2,1680.8z"/>
			</g>
			<g>
				<path class="st16" d="M565.4,1752.2c-0.7,0-1.3-0.4-1.4-1.1c-5.7-21.7-26-30.7-26.2-30.8c-0.8-0.3-1.1-1.2-0.8-2s1.2-1.1,2-0.8
					c0.9,0.4,21.8,9.6,27.9,32.8c0.2,0.8-0.3,1.6-1.1,1.8C565.6,1752.2,565.5,1752.2,565.4,1752.2z"/>
			</g>
			<g>
				<path class="st16" d="M651.3,1752.2c-0.8,0-1.5-0.7-1.5-1.5v-37.6c0-0.8,0.7-1.5,1.5-1.5s1.5,0.7,1.5,1.5v37.6
					C652.8,1751.5,652.1,1752.2,651.3,1752.2z"/>
			</g>
			<g>
				<polygon class="st32" points="538.3,1626.7 538.3,1638.7 603.2,1618.9 				"/>
			</g>
		</g>
		<g>
			<g>
				<polygon class="st13" points="301.1,1600.8 262.2,1674.5 207.4,1659.2 234.2,1576.9 				"/>
			</g>
			<g>
				<path class="st17" d="M262.2,1674.5l-19.2,68.9l-152.2-42.5c0,0,5.8-20.8,63.5-24.7c49.8-3.4,53.1-17,53.1-17L262.2,1674.5z"/>
			</g>
			<g>
				<ellipse class="st31" cx="224.3" cy="1689.7" rx="15.6" ry="15.6"/>
			</g>
			<g>
				
					<rect x="155.5" y="1651.7" transform="matrix(0.2688 -0.9632 0.9632 0.2688 -1546.796 1423.8594)" class="st16" width="17.8" height="158"/>
			</g>
			<g>
				<path class="st16" d="M207.4,1660.7c-0.3,0-0.6-0.1-0.8-0.3c-2.6-1.7-25.4-17.2-25-27.3c0.1-1.6,0.8-3.9,3.7-5.6
					c2.4-1.4,4.9-1.5,7.3-0.4c4.4,1.9,8.4,7.9,12.1,17.8c2.7,7.2,4.1,13.7,4.2,14c0.1,0.6-0.1,1.2-0.6,1.6
					C208,1660.6,207.7,1660.7,207.4,1660.7z M189.4,1629.4c-0.9,0-1.7,0.3-2.6,0.8c-1.9,1.1-2.2,2.3-2.2,3.1
					c-0.1,3.4,4,8.8,11.5,15.4c3.3,2.8,6.6,5.3,8.9,7c-2.3-8.6-7.4-23-13.6-25.8C190.7,1629.5,190,1629.4,189.4,1629.4z"/>
			</g>
			<g>
				<path class="st16" d="M177.6,1671.2c-2,0-3.8-0.3-5.2-1.1c-1.4-0.8-3.1-2.5-3.2-5.9c-0.1-2.8,0.9-5,3-6.7
					c3.7-3,10.9-3.8,21.4-2.5c7.6,1,14,2.7,14.3,2.8c0.6,0.2,1,0.7,1.1,1.3c0.1,0.6-0.2,1.2-0.8,1.5
					C205.8,1661.8,188.3,1671.2,177.6,1671.2z M184.7,1657.4c-4.5,0-8.5,0.6-10.7,2.4c-1.3,1-1.9,2.4-1.9,4.2c0.1,2.2,1,3,1.7,3.4
					c2.9,1.7,9.7,0.6,19-3.1c4-1.6,7.8-3.3,10.4-4.6C198.1,1658.6,190.9,1657.4,184.7,1657.4z"/>
			</g>
			<g>
				<path class="st16" d="M216.9,1737.6c-0.3,0-0.5-0.1-0.8-0.2c-0.7-0.4-1-1.3-0.5-2.1c12.1-20.7,34.7-24,35.7-24.1
					c0.8-0.1,1.6,0.5,1.7,1.3c0.1,0.8-0.5,1.6-1.3,1.7c-0.2,0-22.2,3.3-33.5,22.6C217.9,1737.4,217.4,1737.6,216.9,1737.6z"/>
			</g>
			<g>
				<path class="st16" d="M134.1,1714.5c-0.1,0-0.3,0-0.4-0.1c-0.8-0.2-1.3-1-1-1.8l10.1-36.2c0.2-0.8,1.1-1.3,1.8-1
					c0.8,0.2,1.3,1,1,1.8l-10.1,36.2C135.4,1714.1,134.8,1714.5,134.1,1714.5z"/>
			</g>
			<g>
				<polygon class="st32" points="230.9,1586.9 290.9,1618.9 301.1,1600.8 				"/>
			</g>
		</g>
		<g>
			<polygon class="st13" points="489.6,479.2 478.8,536.8 558.7,541.6 546.3,485.7 			"/>
		</g>
		<g>
			<path class="st32" d="M547.7,491.6c0,0-7.5,0.8-19.9,3.8c-12.3,3-0.3,34.1,29.8,41.3L547.7,491.6z"/>
		</g>
		<g>
			<g>
				<ellipse class="st32" cx="594.8" cy="424.4" rx="18.5" ry="18.5"/>
			</g>
			<g>
				<path class="st16" d="M586.5,431.1c-0.3,0-0.6-0.1-0.9-0.3c-0.7-0.5-0.8-1.4-0.3-2.1l11.1-15.2c0.5-0.7,1.4-0.8,2.1-0.3
					c0.7,0.5,0.8,1.4,0.3,2.1l-11.1,15.2C587.4,430.8,586.9,431.1,586.5,431.1z"/>
			</g>
			<g>
				<path class="st16" d="M601.8,425.6c-0.1,0-0.2,0-0.3,0l-9.8-2.1c-0.8-0.2-1.3-1-1.1-1.8s1-1.3,1.8-1.1l9.8,2.1
					c0.8,0.2,1.3,1,1.1,1.8C603.1,425.1,602.5,425.6,601.8,425.6z"/>
			</g>
		</g>
		<g>
			<ellipse class="st30" cx="523" cy="405.5" rx="70.5" ry="70.5"/>
		</g>
		<g>
			<polygon class="st19" points="506.3,1630.6 696.3,1617.3 685.5,981.5 359.9,898.7 			"/>
		</g>
		<g>
			<polygon class="st19" points="158.8,1558.7 331.1,1623.9 610.5,1014.5 345.7,892.1 			"/>
		</g>
		<g>
			<path class="st33" d="M685.5,981.5l-344.3-63.3c0,0-69.7-1.5-49.2-100.3c11.5-55.7,32.4-146.4,48.5-215
				c12.3-52.6,62.7-87.3,116.2-79.9l108.5,14.8c58.2,7.9,105.1,51.6,117.2,109.1l18.1,208.5C700.5,855.4,717,947.1,685.5,981.5z"/>
		</g>
		<g>
			<path class="st13" d="M586.4,455c-12.3,35.4-55.3,49.7-89.6,34.6c-34.3-15.2-49.7-55.3-34.6-89.6c13.7-30.9,83.1-46.8,83.1-46.8
				S609.4,388.8,586.4,455z"/>
		</g>
		<g>
			<g>
				<ellipse class="st13" cx="451.4" cy="412.1" rx="18.5" ry="18.5"/>
			</g>
			<g>
				<path class="st16" d="M457.9,420.9c-0.6,0-1.2-0.4-1.4-1l-6.4-17.7c-0.3-0.8,0.1-1.6,0.9-1.9c0.8-0.3,1.6,0.1,1.9,0.9l6.4,17.7
					c0.3,0.8-0.1,1.6-0.9,1.9C458.2,420.9,458.1,420.9,457.9,420.9z"/>
			</g>
			<g>
				<path class="st16" d="M454.7,412L454.7,412l-10.1-0.7c-0.8-0.1-1.4-0.8-1.4-1.6c0.1-0.8,0.8-1.4,1.6-1.4l10,0.7
					c0.8,0.1,1.4,0.8,1.4,1.6C456.2,411.4,455.5,412,454.7,412z"/>
			</g>
		</g>
		<g>
			<path class="st17" d="M519.6,442.4"/>
		</g>
		<g>
			<path class="st17" d="M549.5,456.3c-1,9.7-9.7,16.8-19.5,15.8c-9.7-1-16.8-9.7-15.8-19.5L549.5,456.3z"/>
		</g>
		<g>
			<path class="st16" d="M574.7,419.5c-1.4,3.2-5.2,4.6-8.4,3.2s-4.6-5.2-3.2-8.4c1.4-3.2,5.2-4.6,8.4-3.2S576.1,416.3,574.7,419.5z
				"/>
		</g>
		<g>
			<path class="st16" d="M504.9,413.1c-1.4,3.2-5.2,4.6-8.4,3.2s-4.6-5.2-3.2-8.4c1.4-3.2,5.2-4.6,8.4-3.2
				C504.9,406.2,506.3,409.9,504.9,413.1z"/>
		</g>
		<g>
			<path class="st30" d="M505.2,392.4l-10.4,2.2c-2.3,0.5-4.5-1-4.9-3.2l-0.1-0.7c-0.5-2.3,1-4.5,3.2-4.9l10.4-2.2
				c2.3-0.5,4.5,1,4.9,3.2l0.1,0.7C508.9,389.7,507.5,391.9,505.2,392.4z"/>
		</g>
		<g>
			<path class="st30" d="M576.1,399.1l-10.4-2.3c-2.2-0.5-3.7-2.7-3.2-5l0.1-0.7c0.5-2.2,2.7-3.7,5-3.2l10.4,2.3
				c2.2,0.5,3.7,2.7,3.2,5l-0.1,0.7C580.6,398.2,578.4,399.6,576.1,399.1z"/>
		</g>
		<g>
			<path class="st13" d="M17.2,939.3"/>
		</g>
		<g>
			<ellipse class="st31" cx="524" cy="565.2" rx="15.2" ry="15.2"/>
		</g>
		<g>
			<ellipse class="st31" cx="520.7" cy="612" rx="15.2" ry="15.2"/>
		</g>
		<g>
			<g>
				<path class="st16" d="M520.7,565.3c-0.4,1.2-1.7,1.9-2.9,1.5s-1.9-1.7-1.5-2.9s1.7-1.9,2.9-1.5
					C520.4,562.8,521.1,564.1,520.7,565.3z"/>
			</g>
			<g>
				<path class="st16" d="M531.9,566.3c-0.4,1.2-1.7,1.9-2.9,1.5s-1.9-1.7-1.5-2.9s1.7-1.9,2.9-1.5S532.3,565.1,531.9,566.3z"/>
			</g>
		</g>
		<g>
			<g>
				<path class="st16" d="M517.4,612.9c-0.4,1.2-1.7,1.9-2.9,1.5s-1.9-1.7-1.5-2.9s1.7-1.9,2.9-1.5S517.8,611.7,517.4,612.9z"/>
			</g>
			<g>
				<path class="st16" d="M528.6,613.9c-0.4,1.2-1.7,1.9-2.9,1.5s-1.9-1.7-1.5-2.9s1.7-1.9,2.9-1.5S529,612.7,528.6,613.9z"/>
			</g>
		</g>
		<g>
			<path class="st14" d="M449.8,1365l61.4-133.8c0,0,69.8,299.3-4.8,399.4L449.8,1365z"/>
		</g>
		<g>
			<path class="st14" d="M280.6,1128.1l22.5,4.9c42.7,9.2,103-24.8,118.4-79.2l29-116l-77.2-13l-58.5,78L280.6,1128.1z"/>
		</g>
		<g>
			<path class="st13" d="M297.2,793l3.9-18l-72-16.1l-5.4-0.9c-13.4,28.6-21.6,51.1-14.1,77.9c5.9,21.1,33.4,34.4,66,34.4
				l178.3-16.4l1.7-65.2L297.2,793z"/>
		</g>
		<g>
			<path class="st14" d="M689.2,1201.4c-43.4-5.4-79.5-55.5-76.1-111.9l10.8-119.1l61.5,11.2L689.2,1201.4z"/>
		</g>
		<g class="st34">
			<ellipse class="st17" cx="503.6" cy="414" rx="22.3" ry="22.3"/>
		</g>
		<g class="st34">
			<ellipse class="st17" cx="568.7" cy="419.3" rx="22.3" ry="22.3"/>
		</g>
		<g>
			<path class="st17" d="M503.6,438.5c-13.2,0-24-10.8-24-24s10.8-24,24-24c13.2,0,24,10.8,24,24S516.8,438.5,503.6,438.5z
				 M503.6,393.5c-11.6,0-21,9.4-21,21s9.4,21,21,21c11.6,0,21-9.4,21-21S515.1,393.5,503.6,393.5z"/>
		</g>
		<g>
			<path class="st17" d="M568.5,443.2c-13.2,0-24-10.8-24-24s10.8-24,24-24s24,10.8,24,24C592.4,432.5,581.7,443.2,568.5,443.2z
				 M568.5,398.3c-11.6,0-21,9.4-21,21s9.4,21,21,21s21-9.4,21-21C589.4,407.7,580,398.3,568.5,398.3z"/>
		</g>
		<g>
			<path class="st16" d="M539.2,444.1c-0.8,0-1.5-0.6-1.5-1.5c0-0.8,0.6-1.5,1.5-1.5c4.5-0.1,8-3.8,7.9-8.3s-3.8-8-8.3-7.9
				c-0.8,0-1.4-0.6-1.5-1.3l-1.5-14.4c-0.1-0.8,0.5-1.6,1.3-1.6c0.8-0.1,1.6,0.5,1.6,1.3l1.4,13.1c5.5,0.6,9.8,5.1,10,10.8
				C550.2,438.9,545.4,444,539.2,444.1C539.3,444.1,539.2,444.1,539.2,444.1z"/>
		</g>
		<g>
			<path class="st17" d="M546.2,413.3c-9.4-7.6-19.8-1.9-19.9-1.8l-1.5-2.6c0.1-0.1,12.2-6.8,23.2,2.1L546.2,413.3z"/>
		</g>
		<g>
			
				<rect x="469.9" y="391.2" transform="matrix(0.4966 -0.868 0.868 0.4966 -111.9512 611.742)" class="st17" width="3" height="22.3"/>
		</g>
		<g>
			
				<rect x="587.2" y="409.9" transform="matrix(0.2952 -0.9554 0.9554 0.2952 24.8327 856.5197)" class="st17" width="11.5" height="3"/>
		</g>
	</g>
	<g>
		<path class="st17" d="M1700.6,1353l-7.7,127.9l-192.5-139l-950-52.3c-79.8-4.4-141-72.7-136.6-152.5l19.7-358.4
			c4.4-79.8,72.7-141,152.5-136.6l1005.5,55.4c79.8,4.4,141,72.7,136.6,152.5L1700.6,1353z"/>
	</g>
	<g>
		<polygon class="st13" points="430.7,790.4 486.9,790.4 491.2,837.6 424.2,857 		"/>
	</g>
	<g>
		<polygon class="st32" points="415.8,790.4 427.7,750.1 436.5,750.9 432.9,790.9 		"/>
	</g>
	<g>
		<polygon class="st32" points="850.5,643.7 855.5,657.1 787.3,653.2 		"/>
	</g>
	<g>
		<polygon class="st12" points="785.8,648.6 797.7,685.1 840.1,687.6 850.5,643.7 		"/>
	</g>
	<g>
		<polygon class="st15" points="834.2,654.5 832.3,687.1 827.4,686.9 		"/>
	</g>
	<g>
		<polygon class="st15" points="819,655 818.9,686.4 814.4,686.1 		"/>
	</g>
	<g>
		<polygon class="st15" points="805.9,685.6 803.2,657.8 802.8,685.4 		"/>
	</g>
	<g>
		<polygon class="st35" points="1381.4,672.7 1375.2,685.6 1443.4,688 		"/>
	</g>
	<g>
		<polygon class="st12" points="1445.3,683.5 1430.1,718.9 1387.6,717.4 1381.4,672.7 		"/>
	</g>
	<g>
		<polygon class="st15" points="1397,684.5 1395.3,717.1 1400.2,717.4 		"/>
	</g>
	<g>
		<polygon class="st15" points="1412,686.6 1408.7,717.8 1413.3,718 		"/>
	</g>
	<g>
		<polygon class="st15" points="1421.8,718.5 1427.4,691.1 1424.8,718.6 		"/>
	</g>
	<g>
		<path d="M630.2,964.3c-2.2-1.3-4.9-3.4-6.7-5.6c-5.1-4.6-9.6-9.1-11.4-15.5c-1.1-4-2.9-7.5-3.7-11.8c-1.3-6.3-3.1-12.7-2.9-19.4
			c0.1-2-0.3-3.4-0.2-5.4c0.1-1.4,0.5-3.1,0-4.5c-0.4-2.6,0.1-5.4,0.5-7.9c0.5-3.4,1-6.7,1-9.8c0.4-10.2,1.4-20.5,5.1-29.3
			c2.4-5.5,3.1-11.7,5.1-17.2c1.4-3.6,2.7-6.9,4.4-10.4c4.3-9.6,8.6-18.6,13.8-27.3c5.1-8.4,14-15.2,23.4-19.9
			c7.3-3.7,14.6-6.1,22.6-7.2c2.6-0.4,4.7,0.9,7,1.3c0.5,0.3,0.8,0.3,0.8,1.2c0,4.2,0,7.9-0.3,12.1c-0.2,2.5-0.1,5.1-0.2,7.6
			c-0.1,1.7-0.3,8.7-1.8,9.5c-1.5,0.7-3.1,0.4-4.6,0.5c-4.6,0.8-9.5,1.9-13.6,3.9c-3.8,1.2-6.2,3.5-9.2,6.2
			c-4.5,3.9-14.6,23-15.8,27.8c-0.9,5.3-2.7,10.8-3.6,15.9c-0.3,0.5-0.4,1.1-0.4,1.4c-1.2,9.8-4.5,20.3-4.6,30.2
			c0,4.5-1,14.6-0.5,19.2c0.7,6-0.9,13.5,1.2,19.3c2.1,10.3,6.2,13.1,11.2,14.3c4.5,0.3,8.5-0.3,12.8-1.7c2-0.4,3.2,2.2,3.9,4.5
			c1.2,3.5,2.5,4.1,2,11.7c-0.2,2.3-0.9,5.3-3.1,7.4c-2.7,2.6-6.2,3.3-9.9,3.6C644.6,969.5,637.4,967.3,630.2,964.3z"/>
		<path d="M694.6,956.8c-3.3-5.6-2.3-11.8-3.5-18.3c-1.7-8.3-2.2-17.1-2.5-25.6c-0.3-7.9-0.1-15.6,0.5-23.2l0.3-4.2
			c0.8-11.5,3.5-22.7,6-33.5c3.3-14.8,9-27.9,16.1-41c4.8-8.7,7.9-16.4,14.9-23c3.9-3.7,8.4-7.1,13.8-7.8c2.9-0.4,5.7-0.7,8.5-0.5
			c2.3,0.2,4.5,0.6,6.7,1.3c2.8,0.5,5.5,2.6,7.6,5c2.9,3.3,4.9,7.4,6.6,11.2c3.7,8.2,5.6,16.8,7.6,25.7c1.1,5.2,1.6,10.3,1.2,15.6
			l-0.3,3.7c-0.1,1.7-0.2,3.4,0.2,5.1c0.5,0.9,0.4,2.3-0.2,3.1c-0.7,2.2-0.9,4.5-1.1,7.3c-0.7,6.7-2.6,13.4-3.9,20.4
			c-1.3,6.7-2.9,13.7-4.8,20.6c-3.2,14.2-7,28.4-13,41.2c-3.3,7.4-7.2,14.2-11.6,21c-3.2,4.9-7.4,8.8-11.8,11.1
			c-4.1,2-8.1,3.1-12.6,2.8c-1.7-0.1-3.4-0.5-5.3-1.2C705.3,970.6,699.7,964.8,694.6,956.8z M718.7,944.1c1.7,0.1,3.5-1.5,5.2-1.9
			c3.2-1.5,5.1-4.5,6.8-7.7c4.6-8.7,8-18.1,10.7-28.1c2.6-9.7,5.3-19.4,7.4-29.5c1.2-5.3,3-10.3,3.1-15.9c0.1-1.1,0.2-2.3,0.5-3.6
			c1.1-3.6,1.3-7.3,1.6-11.2c0.3-4.8,0.4-10.2,0.8-15.2c0.2-2.5-0.2-4.8-0.6-7.4c-0.9-3.5-1.8-6.6-2.7-9.5c-0.2-0.9-1.3-1.8-2.1-2.4
			c-1.3-0.9-3-1.3-4.4-1.4c-2.5-0.2-5.2,1.1-7.3,4c-1.2,1.6-2.5,3.2-3.2,5.2c-3.3,6.3-6,13.4-8.2,20.9c-3,10.3-6.8,20.2-9.2,30.5
			c-1.9,6.7-2.9,13.7-4.5,20c-1,6.7-1.8,13.5-2,20.2l-0.8,11.5c-0.3,4.8,1,9.4,2.1,14c0.9,3.7,3.6,5.3,6,7.5L718.7,944.1z"/>
		<path d="M787.6,981.9l0.3-4.5c0.2-2.8,0.4-5.3,1.3-7.3c0.3-0.8,1.8-30.4,1.9-31.3l2.4-30.7l0.2-3.4c0-4,0-7.6,0.2-11.6
			c1.3-18.6,2.3-37.4,3.6-55.7c0.8-11,1.8-21.9,2.5-32.6c0.2-2.5,0.3-5.1,0.8-7.6s0.6-5,0.8-7.6c0.4-2,1.3-2.7,2.8-3.2
			c2.6-1,5.5-1.9,8.9-1.7s6.5,0.7,9.8,1.5c4.4,1.2,6.8,3.9,7.4,7.9c0.8,4.6,2.2,9.2,1.8,14.3c-0.1,1.7,0.6,3.7,0.5,5.4l0.5,5.1
			l1.1,8.8c1,10.2,2.8,20.3,5,30.3c0.8,5.4,1.5,10.8,2.6,16.3c1.2,6.6,2,12.6,2.9,19.1c1.2,6.6,2.2,13.2,3.7,20
			c0.7,2.6,0.8,5.4,1.1,8l0.8,8.5c0,0.3,0.5,0.6,0.8,0.6c0.3-0.3,0.9-0.5,0.9-0.8c0.1-0.8,0.4-2,0.5-3.1c0.5-2.8,0.7-6.2,0.9-9.5
			l0.1-1.1c0.1-1.1-0.1-2.3,0-3.4c0.1-0.8,0.4-1.7,0.7-2.5c0.1-0.8,0.8-3.9,1.1-7.6c0.2-3.4,0.6-4.8,0.8-7c0.1-1.7,1-6.2,0.8-7.9
			c0.5-7.9-0.4-10.2,0.3-17.2v-0.6c0.1-0.8,0.7-1.4,0.4-2.2c-0.2-1.1-0.4-2.6-0.3-3.7c0.2-3.1,1.3-5.9,1.5-8.9
			c1.2-17.4,2.8-36.8,4-54.6c0.4-1.7,0.5-3.4,0.9-5.3c0.7-2.5,2.8-3.2,5.1-3.6c0.6-0.2,1.4,0.1,2.3,0.2l6.5,0.2l7.9,0.5
			c2,0.4,3.3,1.6,3.2,3.3l-2.2,19.1c0,0.6-0.4,1.1-0.4,1.7c-0.8,7-1.8,14.3-2.6,21.6c-1,6.2-1.2,12.6-1.9,19.1l-0.6,4.8l-0.1,0.8
			c-0.1,1.1,0.1,2-0.5,3.1c-0.3,0.5-0.3,0.8-0.4,1.4c-0.1,1.1,0.1,2.3,0,3.4c-0.1,1.4-0.5,2.5-0.6,4.2c-1.1,15.8-2.5,32.1-3.6,48.1
			c-0.2,2.5-0.3,4.8-1.3,7c-0.4,1.1-0.2,2.5-0.2,3.4c-0.5,3.6-1,7-1.8,10.3c-0.9,4.2-0.9,9.3-1.2,13.8l-1.3,18.3v0.3
			c-0.1,2-2.2,3-4.2,3.1c-5.7,0.7-13.9,0.2-19.6,0.9l-0.8-0.1c-1.7-0.1-3.3-1.1-3.8-2.5c-1-2-1.7-4.1-1.9-5.8
			c-1.8-6.6-3.5-14.9-5-21.8c-2.4-10.3-2.8-21.7-4.3-32.2c-1.3-6.3-1.7-12.8-2.6-19.4c-0.8-5.4-1.8-10.6-2.6-16l-5.2-26.9
			c-0.4-1.7-0.3-3.7-1.9-5.5c0-0.3-0.3-0.3-0.5-0.3h-0.3c-0.1,2-0.6,4.2-0.7,6.2c-0.1,1.1-0.1,2,0.1,3.1c0.4,2.9,0.2,5.7,0,8.8
			c0,4-0.2,7.6-0.5,11.6c0.1,2,0.6,4,0.4,6c-0.5,6.8-1.2,13.5-1.4,20.3c0.1,3.1-0.1,6.2,0.5,8.8l-0.1,1.7c-0.2,2.3,0,4-0.1,5.9
			c0,4.5-0.9,9-0.1,13.6c-0.5,3.6-0.5,7.3-0.8,11.3c-0.2,2.8-0.4,5.6-1.1,8.4c-0.4,1.1-0.4,2.2-0.5,3.4c-0.2,2.5-0.1,5.1,0,7.6
			c-0.2,3.4-0.3,9-0.7,9.6c-0.3,0.8-0.4,1.7-0.4,2.2c-0.1,0.8-0.1,1.7,0.1,2.6l-0.1,1.1c-0.1,1.1-1.3,2.2-2.7,2.1
			c-2.6,0.1-5.6-0.4-8.7-0.3c-2.8,0.1-4.2-0.3-7.1,0.4c-1.4,0.2-3.1,0.1-4.8,0C788.1,983.6,787.6,982.7,787.6,981.9z"/>
		<path d="M914.3,986.4c0.8-3.1,0.5-7,1.8-10.1c0.3-0.5,0.4-1.1,0.4-2c0.9-13.5,4.1-26.3,5-39.8c0-0.6,0-4,0.5-6.8
			c0.4-2,0.3-3.7,0.4-5.9c0.2-2.3,0-4.2,0.1-5.9c-0.1-2.6,0.3-4.8,0.5-6.8l0.7-6.5l0.1-1.4c-0.4-2.3-0.5-4.6-0.4-6.8
			c0.3-3.7,1.1-7.3,1.3-10.9c0.3-3.9,0-8.2,0.6-12.4c0.3-0.8,0.4-1.7,0.5-2.5c0-0.6,0.1-1.4-0.1-2.3c0.1-1.4,0.5-2.8,0.6-4.2
			c0.1-0.8,0.1-1.4-0.1-2.3c0.1-2,0-4.5,0.2-6.8l2.7-22.7l0.3-4.5c0-0.3-0.5-0.9-1.1-0.9c-1.7-0.4-3.4-0.5-5-0.6
			c-2,0.1-6.5,0.4-8.5,0.3c-1.7,0.2-3.7-0.3-5.4-0.1c-0.6,0.2-1.7,0.2-2.6,0.1c-1.7-0.4-2.5-1.3-2.4-2.7c0.2-2.8,0.9-5.3,1.1-7.6
			l0.4-5.9c0.2-2.8,0.4-5.6,0-8.5c-0.2-0.9-0.2-1.7-0.1-2.3c0.2-2.5,1.9-3.3,5.9-3l18.6,1.3c2.3,0.2,4.2,0.3,6.2,0.7
			c1.7,0.4,3.4,0.5,5,0.6c4.5,0.3,8.8,0,13-0.2c4.2,0.3,9,0.1,13.6-0.8c0.9-0.2,2-0.1,2.6-0.1l16.3,1.7c1.1,0.1,2.2,1.3,3,1.3
			c1.1,0.6,2.2,1.6,2.1,2.7c-0.1,1.7-0.2,3.1-0.9,5c-1.4,3.9-1.9,7.8-2.2,12c-0.1,1.1-0.2,2.3-0.5,3.1c-0.1,1.4-0.5,2.5-1.9,2.7
			c-1.1,0.2-2.6,0.7-4.3,0.6c-3.4-0.2-7.1,0.1-10.8,0.4c-4.5,0.3-8.7-0.3-13.2-0.6c-0.8-0.1-1.7,0.7-2.6,1.2
			c-1.9,2.4-3.2,5.2-2.5,8.3l-0.3,3.7c-0.1,1.1-0.2,2.3,0,4c-0.3,3.7,0.2,5.4,0.2,9.1c-0.3,3.7-1.1,7.6-1.3,11.2
			c-0.1,1.7-0.2,3.1,0,4.5c0.3,4.3-1.2,8.7-1.2,13.2l0.1,6.2l-0.4,5.9c-0.2,7.1-0.9,12.7-1.3,18.9c-0.7,6.2-1.4,12.3-1.8,18.5
			l-0.6,8.7l-0.2,3.4c-0.1,2-0.3,3.7-0.9,5.3l-0.9,12.9c-0.5,3.1-1,6.7-1.3,10.1c-0.5,7.9-0.4,10.4-0.9,17.2
			c-0.1,1.7-1.1,3.3-2.5,3.2c-2.5-0.2-5.1-0.1-7.6-0.2c-1.4-0.1-2.5-0.2-3.6-0.5c-2.2-0.7-3.1-0.5-4.5-0.6c-0.6,0-1.1-0.4-1.7-0.4
			c-2.3-0.2-4.3,0.6-6.2,0.1C915,988.7,913.9,987.8,914.3,986.4z"/>
		<path d="M981.6,994.4c0.8-2.8,1.4-4.4,2.2-6.6c2.2-3.5,1.1-8.4,2.8-12.2c2.1-5.8,3-11.4,5.2-17.5c1.1-3.9,2-8.1,3.4-12.2
			c1.9-6.9,3.5-14.5,5.7-21.7l4.7-18.3c1.8-5.5,3.6-11.1,5.1-16.6c2-4.7,3.5-9.1,4.3-13.6c2.7-6.9,4.3-13.6,6.2-20.2
			c1.6-6.7,3.4-13.1,4.8-19.7c2.1-5.2,2.3-9.5,5.9-16c1.5-5.6,4.5-12.1,5.8-18.3c0.7-2.2,2.8-3.5,6.2-3.3l27.3,1.9
			c1.4,0.1,2.5,1,2.4,1.9l-0.1,0.8c-0.8,8.1,0.3,16.4-0.3,24.3c-0.6,5.3-1,10.7,0,16.1c0.3,3.7-0.2,7.3-0.5,11.3
			c0,4.2-0.3,8.2,0.3,12.2c0.3,4-0.3,7.9-0.5,11.6c0,4.2-0.3,7.9,0.6,11.9c0.8,4.6,0.2,8.8-0.1,13.3c-0.2,3.4-0.4,6.5,0.2,9.6
			c0.6,3.4,0.1,6.5-0.1,9.6c-0.1,1.7-0.3,3.7,0.2,5.9l1.1,20.7c-0.2,3.1-0.4,6.5,0.2,9.6c0.7,2.6,0.2,5.1,0,7.9l-1.1,16
			c-0.3,5.1,0.2,5.7-0.5,15.2c-0.2,2.3-1.3,2.5-8.6,1.7c-3.9-0.3-7.6-0.5-11.5-1.1c-2-0.1-0.8-0.6-2.8-1c-1.6-0.7-2.7-1.6-2.6-3.3
			c-0.2-1.4-0.1-2.8,0.3-4.2l0.9-13.2c0.4-5.3,0.7-10.4,0.8-15.5c0.2-2.8-0.5-5.7-0.3-8.2c0.7-9.6-0.8-16.7-0.2-26.3l0.8-7
			c0.3-4.2,0.7-6.5,0.9-8.4c0.1-1.4-0.1-2.6-0.3-4c0.1-1.1,0.4-2.2-0.7-2.9h-0.3c-0.6,0-2,0.4-2.9,0.4c-3.1,0.1-9.6,0.2-12.8,0.5
			c-2,0.1-2.9,0.9-3.5,2c-0.8,2.8-1.3,6.1-2,8.9c-0.3,0.8-0.4,2-0.8,3.1c-1.8,6.1-4.2,12.4-5.3,19.1c-1.1,4.2-2.2,8-3.1,12.8
			c-0.5,2.5-1.5,5-1.7,7.8c-0.1,0.8-1.2,4.4-1.6,7.5l-2.7,15.1c-0.6,4.5-2,8.3-2.6,12.5c-0.4,2-1.6,2.7-4.2,2.8h-0.6
			c-7.6-0.8-14.1-1-21.5-0.1C982.8,997,981.2,995.8,981.6,994.4z M1047.8,886.7c2,0.1,2.6-0.4,2.7-1.8l0.2-3.1
			c0.4-2,0.6-3.9,0.7-5.6c0.4-6.5,0-12.7-1-18.7c-0.5-1.2,0.2-3.1-1.9-4.7l-11.3,33.2L1047.8,886.7z"/>
		<path d="M1110.9,997.3c-2.2-1.3-4.9-3.4-6.7-5.5c-5.1-4.6-9.6-9.1-11.4-15.5c-1.1-4-2.9-7.5-3.7-11.8c-1.3-6.3-3.1-12.7-2.9-19.4
			c0.1-2-0.3-3.4-0.2-5.4c0.1-1.4,0.5-3.1,0-4.5c-0.4-2.6,0.1-5.4,0.5-7.9c0.5-3.4,1-6.7,1-9.8c0.4-10.2,1.4-20.5,5.1-29.3
			c2.4-5.5,3.1-11.7,5.1-17.2c1.4-3.6,2.7-6.9,4.4-10.4c4.3-9.6,8.6-18.6,13.8-27.3c5.1-8.4,14-15.2,23.4-19.9
			c7.3-3.7,14.6-6.1,22.6-7.2c2.6-0.4,4.7,0.9,7,1.3c0.5,0.3,0.8,0.3,0.8,1.2c0,4.2,0,7.9-0.3,12.1c-0.2,2.5-0.1,5.1-0.2,7.6
			c-0.1,1.7-0.3,8.7-1.8,9.5c-1.5,0.7-3.1,0.4-4.6,0.5c-4.6,0.8-9.5,1.9-13.6,3.9c-3.8,1.2-6.2,3.5-9.2,6.2
			c-4.5,3.9-14.6,23-15.8,27.8c-0.9,5.3-2.7,10.8-3.6,15.9c-0.3,0.5-0.4,1.1-0.4,1.4c-1.2,9.8-4.5,20.3-4.6,30.2
			c0,4.5-1,14.6-0.5,19.2c0.7,6-0.9,13.5,1.2,19.3c2.1,10.3,6.2,13.1,11.2,14.3c4.5,0.3,8.5-0.3,12.8-1.7c2-0.4,3.2,2.2,3.9,4.5
			c1.2,3.5,2.5,4.1,2,11.7c-0.2,2.3-0.9,5.3-3.1,7.4c-2.7,2.6-6.2,3.3-9.9,3.6C1125.2,1002.6,1118,1000.4,1110.9,997.3z"/>
		<path d="M1185.6,1005c0.8-3.1,0.5-7,1.8-10.1c0.3-0.5,0.4-1.1,0.4-2c0.9-13.5,4.1-26.3,5-39.8c0-0.6,0-4,0.5-6.8
			c0.4-2,0.3-3.7,0.4-5.9c0.2-2.3,0-4.2,0.1-5.9c-0.1-2.6,0.3-4.8,0.5-6.8l0.7-6.5l0.1-1.4c-0.4-2.3-0.5-4.6-0.4-6.8
			c0.3-3.7,1.1-7.3,1.3-10.9c0.3-3.9,0-8.2,0.6-12.4c0.3-0.8,0.4-1.7,0.5-2.5c0-0.6,0.1-1.4-0.1-2.3c0.1-1.4,0.5-2.8,0.6-4.2
			c0.1-0.8,0.1-1.4-0.1-2.3c0.1-2,0-4.5,0.2-6.8l2.7-22.7l0.3-4.5c0-0.3-0.5-0.9-1.1-0.9c-1.7-0.4-3.4-0.5-5-0.6
			c-2,0.1-6.5,0.4-8.5,0.3c-1.7,0.2-3.7-0.3-5.4-0.1c-0.6,0.2-1.7,0.2-2.6,0.1c-1.7-0.4-2.5-1.3-2.4-2.7c0.2-2.8,0.9-5.3,1.1-7.6
			l0.4-5.9c0.2-2.8,0.4-5.6,0-8.5c-0.2-0.9-0.2-1.7-0.1-2.3c0.2-2.5,1.9-3.3,5.9-3l18.6,1.3c2.3,0.2,4.2,0.3,6.2,0.7
			c1.7,0.4,3.4,0.5,5,0.6c4.5,0.3,8.8,0,13-0.2c4.2,0.3,9,0.1,13.6-0.8c0.9-0.2,2-0.1,2.6-0.1l16.3,1.7c1.1,0.1,2.2,1.3,3,1.3
			c1.1,0.6,2.2,1.6,2.1,2.7c-0.1,1.7-0.2,3.1-0.9,5c-1.4,3.9-1.9,7.8-2.2,12c-0.1,1.1-0.2,2.3-0.5,3.1c-0.1,1.4-0.5,2.5-1.9,2.7
			c-1.1,0.2-2.6,0.7-4.3,0.6c-3.4-0.2-7.1,0.1-10.8,0.4c-4.5,0.3-8.7-0.3-13.2-0.6c-0.8-0.1-1.7,0.7-2.6,1.2
			c-1.9,2.4-3.2,5.2-2.6,8.3l-0.3,3.7c-0.1,1.1-0.2,2.3,0,4c-0.3,3.7,0.2,5.4,0.2,9.1c-0.3,3.7-1.1,7.6-1.3,11.2
			c-0.1,1.7-0.2,3.1,0,4.5c0.3,4.3-1.2,8.7-1.2,13.2l0.1,6.2l-0.4,5.9c-0.2,7.1-0.9,12.7-1.3,18.9c-0.7,6.2-1.4,12.3-1.8,18.5
			l-0.6,8.7l-0.2,3.4c-0.1,2-0.3,3.7-0.9,5.3l-0.9,12.9c-0.5,3.1-1,6.7-1.3,10.1c-0.5,7.9-0.4,10.4-0.9,17.2
			c-0.1,1.7-1.1,3.3-2.5,3.2c-2.5-0.2-5.1-0.1-7.6-0.2c-1.4-0.1-2.5-0.2-3.6-0.5c-2.2-0.7-3.1-0.5-4.5-0.6c-0.6,0-1.1-0.4-1.7-0.4
			c-2.3-0.2-4.3,0.6-6.2,0.1C1186.3,1007.3,1185.2,1006.4,1185.6,1005z"/>
		<path d="M1403.8,866.5c-0.2,3.1-0.7,5.9-0.9,9c0,3.7-0.1,5.9-0.2,7.6c-0.4,5.9-1.4,3.6-1.8,14.3c-0.5,10.7-2.3,21-3.6,32
			c-1.6,6.4-1.5,12.9-3,19c-1.9,6.4-3.7,13-5.9,19.7c-1.1,3.9-2.3,8.6-3.5,13.3c-1.5,5.6-3.3,11.1-6.5,16
			c-2.9,5.5-6.9,10.5-12.3,14.7c-8.3,6.2-8.4,7.1-20.2,6.2c-3.4-0.2-10.9-1.6-12.7-5.1c-6-7.5-7.8-14.1-8.7-21.5
			c-0.8-4.9-0.4-11.3-1.1-16.2c-0.3-3.4-1-5.7-0.8-9.4c0.1-0.8,0.1-2,0.5-3.4c1-5.6,0.2-10.5,0.5-16.1c-0.3-3.4-0.7-6.8-0.4-10.5
			c1.2-17.7,2.7-35.7,4-53.5c0.3-4.2,1.4-7.8,1.6-11.5c0.6-4.8,2.1-14,2.4-13.7c0.1-5.9,2.2-11.7,2.9-17.6c0.7-5.9,2-12,3.5-17.9
			c0.1-0.8,1.9-3.3,2.2-3.2c6.2,0.4,12.1,0.8,18,2.1c2,0.4,3.3,1.6,3.4,3.9c-0.1,1.1,0.1,2,0,3.4c-0.2,2.5-0.9,4.2-1,5.9
			c-0.2,2.3-2,8.6-1.9,7.5c-0.6,5.3-1.3,10.9-2.5,16.2l-1.6,7.2l-0.1,1.1c-0.1,0.8-0.1,1.7-0.2,2.5c-0.1,1.1-0.2,2.3-0.8,3.3
			c-0.4,1.1-0.5,2.8-0.6,4.2c-0.3,3.7-0.8,8.1-1.2,12.6c0,4.5-1.2,8.7-1.5,13.2c-0.1,1.7-1.1,3.3-0.3,5.1c0.3,0.3,0.2,0.6,0.2,0.9
			c-0.1,1.1-1,1.9-0.5,3.1c0.5,1.4,0.4,3.1,0.3,4.3c0.1,2.6-1.2,5.3-0.5,7.6c0.1,2.8-0.3,5.1-0.5,7.6c-0.2,2.8-0.4,5.3-0.3,8.2
			c-0.2,2.5-0.3,4.8-0.2,7.3l-0.2,3.1c-0.1,0.8-0.1,2,0,3.4c0.2,0.6,0.2,1.7,0.1,2.3c-0.4,5.9,0.7,11.1,1.4,16.8
			c0.7,2.3,1.9,4.7,3.2,7.3c0.5,0.9,1.6,1.5,3,1.6c2.3,0.2,4.9-1.1,5.9-4.1c2.9-9.1,6.4-19.1,9-27.4c1-2.5,1.2-5.6,1.9-7.8
			c1.4-4.1,1.5-8.9,2.6-12.5c1.8-5.8,1.7-11.8,2.9-17.1c1.4-4.1,1.4-8.1,2-12.3c0.1-2,0.6-4.5,0.7-6.5c0.4-1.4,0.5-2.5,0.5-3.6
			c0.1-1.1,0.2-2.3,0.5-3.1c0.1-1.4-0.1-3.1,0-4.8c0.1-0.8,0.1-1.4,0.4-2.2c1.4-4.4,2-8.9,2.3-13.4c0.4-5.6,0.2-11.3,0.6-17.2
			s-0.1-11.6-0.5-17.8V830c0.2-2.5,2-3.8,4.5-3.9c2-0.4,4.3-0.3,6.6-1c1.4-0.2,2.6-0.1,4.2,0.3c2.5,0.2,4.4,2,5.3,4.9
			c0.4,2.3,0.5,5.1,0.3,7.4c0.1,2.6-0.1,5.4-0.3,8.2c-0.4,5.3-1,11-1.4,16.3C1404,863.7,1403.9,865.1,1403.8,866.5z"/>
		<path d="M1429.7,1023.8c-3-1.1-5.5-2.9-7.6-5.3c-4.5-5.1-8.1-9.6-10.2-16c-2.1-6.6-3.6-13-3.4-20l1.1-15.5
			c0.1-0.8,0.1-1.4,0.4-2.2c0.2-3.1,1.7-3.8,4.8-3.9c5.7-0.2,11.6,0.5,17.6-0.8c0.3,0,0.6-0.2,1.1-0.2c1.1,0.1,1.9,1,2.4,2.1
			c0.2,0.9,0.2,1.7,0.1,2.6c-0.1,2-0.6,4.2-1,5.9c-0.7,1.4-0.8,2.8-0.9,4.2c-0.1,2,0,4,0.2,5.7c0.8,5.1,2.1,10,4.4,14.7
			c1,2,2.6,3.9,3.9,5.4s3.3,1.9,5,1.5c3.5-1.2,7-2.6,9.2-5.9c1.3-1.9,2.2-3.5,2.4-5.8c0.2-3.1-0.1-6.2-0.7-9.7
			c-2.6-7.2-5.2-14.2-9-21.3c-3.5-6.7-5.8-14-9.3-20.7c-1.5-2.9-3-5.9-4.8-8.5c-4.6-7.1-8.7-13.9-13-21.2c-2-3.5-2.9-7.5-4.3-11.6
			c-1-2.6-1.9-5.5-2.6-8.1c-0.8-4.6-1.4-8.9-1.1-13.4c0.1-1.7,0.5-3.4,0.9-5c0.8-2.8,0.6-5.3,2.2-7.8c0.9-5,4.3-9,7.1-12.8
			c0.9-0.8,1.5-1.6,2.1-2.4c4-5.4,9.1-9.3,14.4-12.6c4.4-2.8,9.7-4.7,14.8-5.8c4.6-0.8,9.4-1.3,14-1.6c1.4-0.2,2.8-0.1,4.2,0
			c3.1,0.2,5.9,1,8.6,2c7.7,3.4,14.8,7.2,19.4,14.1c1.8,2.7,4.2,5.1,3.9,8.8c1.8,6.3,1.7,12.8,0.9,19.9c0,0.6-0.4,2-0.3,3.7
			c-0.2,7.1-2.9,13.7-6.2,19.9c-0.3,0.8-0.7,1.7-1.3,2.5c-1.2,1.6-2.7,2.4-4.7,2.2c-4.2-0.6-8.4-0.9-12.6-1.2
			c-2.3-0.2-3-1.6-2.6-3.6c0.5-3.1,0.8-7.3,1.8-10.3c0.7-2.2,1.2-4.4,1.3-6.4c0.4-5.3-1.3-10.3-4.3-15.6s-7.9-8.5-14.1-9.2
			c-1.7-0.1-2.6,0.4-4.3,0.8c-7.5,2-11,8-12.6,15.2l-1.2,5.6c-0.1,1.1-0.4,2.2-0.5,3.4c-0.1,1.7,0,3.4,0.2,5.1
			c0.3,3.4-0.2,6.8,1,9.7c0.2,0.6-0.1,1.4,0.4,2c2.2,5.5,3.1,11.8,6.5,16.6c2.1,3,3.8,6.2,5.3,9.1c3.8,6.5,7.9,13,11.1,20
			c2.5,4.7,4.4,9.6,6.6,14.6c3.9,9,6.6,18.8,8.2,28.6c0.2,0.9,0.5,1.4,0.4,2.3c0.3,3.7,0.6,7.1,0.4,10.5c-0.8,2.8-0.9,5.3-2,8.1
			c-2,4.9-5.2,9.3-9.9,12.3c-3.3,2-7.1,4-11.1,5.5c-7.2,2.6-15.2,3.2-22.8,2.7C1436,1026.2,1433,1024.9,1429.7,1023.8z"/>
		<path d="M1516.1,1021.5c-0.5-1.4-0.4-2.6-0.3-4c0.3-5.1,3.8-9.4,6.7-11.1c2.3-1.3,4.7-1.9,6.9-1.8c5.6,0.4,13.4,6.6,12,14.7
			c0.3,8.2-7.4,13.3-13.6,12.9C1521.3,1031.8,1517.9,1028.2,1516.1,1021.5z M1520.2,978.5c-0.1-2.6,0-4.8,0.2-7.1
			c0.2-2.2,0.3-4.8,0.2-7.1c0.3-8.2,0.6-16.9,0.6-25.4l5.1-73.7c0.7-10.1,1.1-19.4,1.7-29c0.3-5.1,1.9-6.7,5.5-6.4l3.4,0.2
			c2.5,0.2,5.1,0.3,7,1.3c1.4,0.1,2.5,1,3.9,1.1c2.5,0.7,3.5,2.2,3.3,5.3c0.3,3.7,0.1,7.4-0.2,11l-4.3,54.6l-4,58.3
			c-0.8,7.3-2.1,14.3-2.9,21.3c-0.1,1.7-1.1,3.3-3.3,3.4c-3.4-0.2-7.1-0.2-11-0.5C1522.8,985.8,1519.9,982.5,1520.2,978.5z"/>
	</g>
	<g>
		<polygon class="st32" points="455.2,802.9 487.8,799.5 488.3,804.4 		"/>
	</g>
	<g>
		<polygon class="st32" points="458.2,817.8 489.1,812.9 489.6,817.4 		"/>
	</g>
	<g>
		<polygon class="st32" points="490.5,825.9 463.5,833 490.8,828.9 		"/>
	</g>
	<g>
		<polygon class="st23" points="1724.8,758 1647.9,775.1 1656.1,821.8 1728.2,826.1 		"/>
	</g>
	<g>
		<polygon class="st23" points="1724.8,758 1686.4,741 1679.3,748.6 1702.1,764.2 		"/>
	</g>
	<g>
		<polygon class="st27" points="1681.8,778.9 1649.5,784.1 1650.3,789 		"/>
	</g>
	<g>
		<polygon class="st27" points="1682.9,794 1651.7,797.4 1652.4,801.9 		"/>
	</g>
	<g>
		<polygon class="st27" points="1653.8,810.3 1681.7,810 1654.3,813.3 		"/>
	</g>
	
		<g id="SvgjsG6893" transform="matrix(0.37034705456662853,0,0,0.37034705456662853,47.0653700187287,27.511684049477402)" class="st36">
		
			<linearGradient id="SVGID_9_" gradientUnits="userSpaceOnUse" x1="10083.0811" y1="-1406.4729" x2="10093.1738" y2="-1406.4729" gradientTransform="matrix(0.137 6.294445e-03 -6.294445e-03 0.137 1379.5754 3256.7183)">
			<stop  offset="0" style="stop-color:#00DDFF"/>
			<stop  offset="1" style="stop-color:#FF00D4"/>
		</linearGradient>
		<path class="st37" d="M2769.4,3141.2L2769.4,3141.2L2769.4,3141.2L2769.4,3141.2L2769.4,3141.2z M2797.9,3115.1L2797.9,3115.1
			L2797.9,3115.1L2797.9,3115.1z"/>
	</g>
	<polygon class="st38" points="180.5,1118 128.2,1088.7 97.9,1141 150.2,1170.3 	"/>
	<path class="st39" d="M1436.5,1421.5l-59-44c-3-2-6-1-8,1c-1,1-1,2-1,3l0,0l-8,74c0,3,2,6,5,6c1,0,2,0,3-1l68-29c3-1,4-5,3-7
		c0-1-1-2-2-2L1436.5,1421.5z M1379.5,1395.5l39,31l-44,18L1379.5,1395.5z"/>
</g>
<g id="SvgjsG4078" transform="matrix(0.3333123491099657,0,0,0.3333123491099657,87.35883301685583,34.36051564452966)">
	
		<linearGradient id="SVGID_10_" gradientUnits="userSpaceOnUse" x1="2740.22" y1="3322.5071" x2="2886.8257" y2="3322.5071" gradientTransform="matrix(0.9989 4.763830e-02 -4.763830e-02 0.9989 123.9572 -125.6178)">
		<stop  offset="0" style="stop-color:#00DDFF"/>
		<stop  offset="1" style="stop-color:#FF00D4"/>
	</linearGradient>
	<path class="st40" d="M3113.1,3183l-40.8-1.9l0,0l-0.1,0l-0.5,0l2-41.1l-80.6-3.8l-1.9,40.7l0,0l0,0.7l0,0l-40.7-1.9l-1.9,40.7l0,0
		l0,0l-40.7-1.9l0,0l0,0l0,0l1.9-40.8l-40.8-1.9l0,0l0-0.7l0,0l1.9-40.7l-80.6-3.8l-1.9,40.7l0,0l-0.6,0.3l0,0l-40.7-1.9l-1.9,40.7
		l0,0l0,0l-36.6-1.7l-5.6,117.8l36.6,1.7l-0.3,5.6l-1.7,35.1l40.7,1.9l0,0.2l0,0.1l0,0l-1.9,40.8l40.4,1.9l-1.9,40.4l40.7,1.9
		l-1.9,40.6l40.8,1.9l-1.9,39.5l40.7,1.9l1.9-39.5l40.8,1.9l1.9-40.6l40.7,1.9l1.9-40.4l40.4,1.9l2-41l40.7,1.9l1.9-40.8l36.6,1.7
		l5.6-117.8l-36.6-1.7L3113.1,3183L3113.1,3183z M2977.8,3457.8L2977.8,3457.8L2977.8,3457.8L2977.8,3457.8L2977.8,3457.8z
		 M3020.2,3419.1L3020.2,3419.1L3020.2,3419.1L3020.2,3419.1z"/>
	
		<linearGradient id="SVGID_11_" gradientUnits="userSpaceOnUse" x1="2240.2222" y1="3322.5071" x2="2386.8298" y2="3322.5071" gradientTransform="matrix(0.9989 4.763830e-02 -4.763830e-02 0.9989 123.9572 -125.6178)">
		<stop  offset="0" style="stop-color:#00DDFF"/>
		<stop  offset="1" style="stop-color:#FF00D4"/>
	</linearGradient>
	<path class="st41" d="M2613.7,3159.2l-40.8-1.9l0,0l-0.1,0l-0.5,0l2-41.1l-80.6-3.8l-1.9,40.7l0,0l0,0.7l0,0l-40.7-1.9l-1.9,40.7
		l0,0l0,0l-40.7-1.9l0,0l0,0l0,0l1.9-40.8l-40.8-1.9l0,0l0-0.7l0,0l1.9-40.7l-80.6-3.8l-1.9,40.7l0,0l-0.6,0.3l0,0l-40.7-1.9
		l-1.9,40.7l0,0l0,0l-36.6-1.7l-5.6,117.8l36.6,1.7l-0.3,5.6l-1.7,35.1l40.7,1.9l0,0.2l0,0.1l0,0l-1.9,40.8l40.4,1.9l-1.9,40.4
		l40.8,1.9l-1.9,40.6l40.8,1.9l-1.9,39.5l40.8,1.9l1.9-39.5l40.8,1.9l1.9-40.6l40.7,1.9l1.9-40.4l40.4,1.9l2-41l40.7,1.9l1.9-40.8
		l36.6,1.7l5.6-117.8l-36.6-1.7L2613.7,3159.2L2613.7,3159.2z M2478.4,3434L2478.4,3434L2478.4,3434L2478.4,3434L2478.4,3434z
		 M2520.7,3395.3L2520.7,3395.3L2520.7,3395.3L2520.7,3395.3z"/>
	
		<linearGradient id="SVGID_12_" gradientUnits="userSpaceOnUse" x1="3240.1592" y1="3322.5125" x2="3386.8042" y2="3322.5125" gradientTransform="matrix(0.9989 4.763830e-02 -4.763830e-02 0.9989 123.9572 -125.6178)">
		<stop  offset="0" style="stop-color:#00DDFF"/>
		<stop  offset="1" style="stop-color:#FF00D4"/>
	</linearGradient>
	<path class="st42" d="M3647.3,3249l-36.3-1.7l1.9-40.1l-40.6-1.9l1.9-40.7l-82.1-3.9l-1.9,40.7l-40.5-1.9l-1.9,40.7l0,0l0,0
		l-40.7-1.9l1.9-40.8l-40.8-1.9l0,0l0-0.7l1.9-40.7l-80.5-3.8l-1.9,40.7l0,0l-0.6,0.3l0,0l-40.7-1.9l-1.9,40.7l0,0l0,0l-36.6-1.7
		l-5.6,117.8l36.6,1.7l0,0l0,0l0,0l-1.9,40.8l40.7,1.9l-0.1,0.3l0,0l0,0l-1.9,40.7l40.4,1.9l-1.9,40.4l40.7,1.9l-1.9,40.6l40.8,1.9
		l-1.9,39.5l40.8,1.9l1.9-39.5l40.7,1.9l1.9-40.6l40.8,1.9l1.9-40.4l40.4,1.9l1.9-40.5l41,2l2-40.9l36.5,1.7L3647.3,3249
		L3647.3,3249z M3316.4,3433.3L3316.4,3433.3L3316.4,3433.3L3316.4,3433.3z M3354.9,3475.8L3354.9,3475.8L3354.9,3475.8
		L3354.9,3475.8z M3393.8,3517.2L3393.8,3517.2L3393.8,3517.2L3393.8,3517.2z M3434.6,3519.1L3434.6,3519.1L3434.6,3519.1
		L3434.6,3519.1z M3521.5,3402.5l-1.9,40.4l-40.4-1.9l-1.9,40.6l-40.8-1.9l0,0l0,0l11.4-239.4l40.7,1.9l1.9-40.5l81.4,3.9l-1.9,40.7
		l40.4,1.9l-5.6,117l-41.1-2l-2,41.3L3521.5,3402.5L3521.5,3402.5z"/>
</g>
</svg>
