<?xml version="1.0" encoding="utf-8"?>
<!-- Generator: Adobe Illustrator 25.2.0, SVG Export Plug-In . SVG Version: 6.00 Build 0)  -->
<svg version="1.1" id="Layer_1" xmlns="http://www.w3.org/2000/svg" xmlns:xlink="http://www.w3.org/1999/xlink" x="0px" y="0px"
	 viewBox="0 0 350 288.1" style="enable-background:new 0 0 350 288.1;" xml:space="preserve">
<style type="text/css">
	.st0{display:none;fill:url(#SVGID_1_);}
	.st1{fill:url(#SVGID_2_);}
	.st2{fill:url(#SVGID_3_);}
	.st3{fill:url(#SVGID_4_);}
	.st4{fill:url(#SVGID_5_);}
	.st5{fill:url(#SVGID_6_);}
	.st6{fill:url(#SVGID_7_);}
	.st7{fill:url(#SVGID_8_);}
	.st8{fill:url(#SVGID_9_);}
	.st9{fill:url(#SVGID_10_);}
	.st10{fill:url(#SVGID_11_);}
	.st11{fill:url(#SVGID_12_);}
	.st12{fill:url(#SVGID_13_);}
	.st13{fill:url(#SVGID_14_);}
	.st14{fill:url(#SVGID_15_);}
	.st15{fill:url(#SVGID_16_);}
	.st16{fill:url(#SVGID_17_);}
	.st17{fill:url(#SVGID_18_);}
	.st18{fill:url(#SVGID_19_);}
	.st19{fill:url(#SVGID_20_);}
	.st20{fill:url(#SVGID_21_);}
	.st21{fill:url(#SVGID_22_);}
	.st22{fill:url(#SVGID_23_);}
	.st23{fill:url(#SVGID_24_);}
	.st24{fill:url(#SVGID_25_);}
	.st25{fill:url(#SVGID_26_);}
	.st26{fill:url(#SVGID_27_);}
	.st27{fill:url(#SVGID_28_);}
	.st28{fill:url(#SVGID_29_);}
	.st29{fill:url(#SVGID_30_);}
	.st30{fill:url(#SVGID_31_);}
	.st31{fill:url(#SVGID_32_);}
	.st32{fill:url(#SVGID_33_);}
	.st33{fill:url(#SVGID_34_);}
	.st34{fill:url(#SVGID_35_);}
	.st35{fill:url(#SVGID_36_);}
	.st36{fill:url(#SVGID_37_);}
	.st37{fill:url(#SVGID_38_);}
	.st38{fill:url(#SVGID_39_);}
</style>
<g>
	
		<linearGradient id="SVGID_1_" gradientUnits="userSpaceOnUse" x1="7000.854" y1="63.6724" x2="7115.5962" y2="63.6724" gradientTransform="matrix(-1 0 0 -1 7305.6924 287.8898)">
		<stop  offset="0" style="stop-color:#A2DAFF"/>
		<stop  offset="1" style="stop-color:#998BF5"/>
	</linearGradient>
	<path class="st0" d="M259,203.4c7.6-1.7,30.1-17.1,42.3-0.5c12.2,16.8-7.4,47.3-54.9,50.1c-47.1,2.7-67.2-28.1-50.5-48
		c5.1-6.1,13.5-8.2,21-6.9C239.1,201.8,238.2,208,259,203.4z"/>
</g>
<g>
	<g>
		
			<linearGradient id="SVGID_2_" gradientUnits="userSpaceOnUse" x1="7049.6172" y1="245.2273" x2="7067.4785" y2="245.2273" gradientTransform="matrix(-1 0 0 -1 7305.6924 287.8898)">
			<stop  offset="0" style="stop-color:#DEBBFF"/>
			<stop  offset="1" style="stop-color:#F494D1"/>
		</linearGradient>
		<path class="st1" d="M239.6,51.6c0.4,0,0.7-0.1,1-0.4L255.7,36c0.5-0.5,0.5-1.4,0-1.9c-0.5-0.5-1.4-0.5-1.9,0l-15.1,15.1
			c-0.5,0.5-0.5,1.4,0,1.9C238.9,51.4,239.3,51.6,239.6,51.6z"/>
		
			<linearGradient id="SVGID_3_" gradientUnits="userSpaceOnUse" x1="7049.6172" y1="245.1773" x2="7067.4785" y2="245.1773" gradientTransform="matrix(-1 0 0 -1 7305.6924 287.8898)">
			<stop  offset="0" style="stop-color:#DEBBFF"/>
			<stop  offset="1" style="stop-color:#F594D1"/>
		</linearGradient>
		<path class="st2" d="M254.7,51.6c0.4,0,0.7-0.1,1-0.4c0.5-0.5,0.5-1.4,0-1.9l-15.1-15.1c-0.5-0.5-1.4-0.5-1.9,0s-0.5,1.4,0,1.9
			l15.1,15.1C254,51.4,254.4,51.6,254.7,51.6z"/>
	</g>
	<g>
		
			<linearGradient id="SVGID_4_" gradientUnits="userSpaceOnUse" x1="7264.3174" y1="50.2273" x2="7275.6938" y2="50.2273" gradientTransform="matrix(-1 0 0 -1 7305.6924 287.8898)">
			<stop  offset="0" style="stop-color:#DEBBFF"/>
			<stop  offset="1" style="stop-color:#F997CF"/>
		</linearGradient>
		<path class="st3" d="M31.4,243.3c0.4,0,0.7-0.1,1-0.4l8.6-8.6c0.5-0.5,0.5-1.4,0-1.9s-1.4-0.5-1.9,0l-8.6,8.6
			c-0.5,0.5-0.5,1.4,0,1.9C30.7,243.2,31,243.3,31.4,243.3z"/>
		
			<linearGradient id="SVGID_5_" gradientUnits="userSpaceOnUse" x1="7264.3174" y1="50.2273" x2="7275.6938" y2="50.2273" gradientTransform="matrix(-1 0 0 -1 7305.6924 287.8898)">
			<stop  offset="0" style="stop-color:#DEBBFF"/>
			<stop  offset="1" style="stop-color:#F997CF"/>
		</linearGradient>
		<path class="st4" d="M40,243.3c0.4,0,0.7-0.1,1-0.4c0.5-0.5,0.5-1.4,0-1.9l-8.6-8.6c-0.5-0.5-1.4-0.5-1.9,0s-0.5,1.4,0,1.9
			l8.6,8.6C39.3,243.2,39.7,243.3,40,243.3z"/>
	</g>
	
		<linearGradient id="SVGID_6_" gradientUnits="userSpaceOnUse" x1="-2257.3208" y1="402.9106" x2="-2198.5854" y2="402.9106" gradientTransform="matrix(0.9998 -1.970000e-02 -1.970000e-02 -0.9998 2383.7964 616.3514)">
		<stop  offset="0" style="stop-color:#F897CF"/>
		<stop  offset="0.5094" style="stop-color:#D993E9"/>
		<stop  offset="1" style="stop-color:#C090FF"/>
	</linearGradient>
	<path class="st5" d="M137.4,236.9c-16.7,7.9-21.3,24.9-16.5,35.4c2.7,5.9,9.5,10.1,16.3,9.1c13.9-2.1,13.5-15,26.9-18.3
		c3.6-0.9,7.8-0.6,10.5-3C185.8,250.1,164.4,224.2,137.4,236.9z"/>
	
		<linearGradient id="SVGID_7_" gradientUnits="userSpaceOnUse" x1="7161.9795" y1="261.3202" x2="7255.6123" y2="261.3202" gradientTransform="matrix(-1 0 0 -1 7305.6924 287.8898)">
		<stop  offset="0" style="stop-color:#FFA7B9"/>
		<stop  offset="0.5984" style="stop-color:#D28FE6"/>
		<stop  offset="1" style="stop-color:#B982FF"/>
	</linearGradient>
	<path class="st6" d="M50.6,50.1c-0.6-0.5-0.7-1.3-0.2-1.9c1.1-1.5,2.3-2.9,3.5-4.3c0.5-0.6,1.3-0.7,1.9-0.2
		c0.6,0.5,0.7,1.3,0.2,1.9c-1.1,1.4-2.3,2.8-3.4,4.2c-0.3,0.3-0.7,0.5-1.1,0.5C51.1,50.4,50.8,50.3,50.6,50.1z M59.8,39.1
		c-0.6-0.5-0.6-1.4-0.1-1.9c1.3-1.4,2.6-2.7,3.9-4c0.5-0.5,1.4-0.5,1.9,0s0.5,1.4,0,1.9c-1.3,1.3-2.5,2.6-3.8,3.9
		c-0.3,0.3-0.6,0.4-1,0.4C60.4,39.4,60.1,39.3,59.8,39.1z M70,29c-0.5-0.6-0.4-1.4,0.1-1.9c1.4-1.2,2.8-2.4,4.3-3.5
		c0.6-0.5,1.5-0.4,1.9,0.2c0.5,0.6,0.4,1.5-0.2,1.9c-1.4,1.1-2.8,2.3-4.2,3.5c-0.3,0.2-0.6,0.3-0.9,0.3C70.7,29.4,70.3,29.3,70,29z
		 M81.4,20.1c-0.4-0.6-0.3-1.5,0.4-1.9c1.5-1,3.1-2,4.7-3c0.7-0.4,1.5-0.2,1.9,0.5c0.4,0.7,0.2,1.5-0.5,1.9
		c-1.5,0.9-3.1,1.9-4.6,2.9c-0.2,0.2-0.5,0.2-0.8,0.2C82,20.7,81.6,20.5,81.4,20.1z M93.7,12.8c-0.3-0.7,0-1.5,0.6-1.8
		c1.7-0.8,3.4-1.6,5.1-2.2c0.7-0.3,1.5,0.1,1.8,0.8s-0.1,1.5-0.8,1.8c-1.6,0.7-3.3,1.4-4.9,2.2c-0.2,0.1-0.4,0.1-0.6,0.1
		C94.5,13.6,94,13.3,93.7,12.8z M107.1,7.5c-0.2-0.7,0.2-1.5,0.9-1.7c1.8-0.5,3.6-1,5.4-1.3c0.7-0.2,1.5,0.3,1.6,1.1
		c0.2,0.7-0.3,1.5-1.1,1.6c-1.7,0.4-3.5,0.8-5.2,1.3c-0.1,0-0.2,0.1-0.4,0.1C107.8,8.5,107.3,8.1,107.1,7.5z M142.1,6.7
		c-1.8-0.3-3.6-0.6-5.3-0.7c-0.8-0.1-1.3-0.8-1.2-1.5c0.1-0.8,0.7-1.3,1.5-1.2c1.8,0.2,3.7,0.4,5.5,0.8c0.7,0.1,1.2,0.8,1.1,1.6
		c-0.1,0.7-0.7,1.1-1.3,1.1C142.3,6.7,142.2,6.7,142.1,6.7z M121.2,4.6c-0.1-0.8,0.5-1.4,1.2-1.5c1.8-0.2,3.7-0.3,5.6-0.3
		c0.8,0,1.4,0.6,1.4,1.3c0,0.8-0.6,1.4-1.3,1.4c-1.8,0-3.6,0.1-5.4,0.3h-0.1C121.9,5.9,121.3,5.3,121.2,4.6z"/>
	
		<linearGradient id="SVGID_8_" gradientUnits="userSpaceOnUse" x1="7170.6191" y1="161.0034" x2="7234.2573" y2="246.0813" gradientTransform="matrix(-1 0 0 -1 7305.6924 287.8898)">
		<stop  offset="0" style="stop-color:#F796D0"/>
		<stop  offset="1" style="stop-color:#A07CFF"/>
	</linearGradient>
	<path class="st7" d="M189,77.6c-2.2,14.8-12,28.2-25.3,35c-22.9,11.7-52,15.9-72,26.7c-9.3,5-34.2,25.2-55,3.3
		C16.3,121.1,70-2.2,144,15.8C171.9,22.5,193.6,47.3,189,77.6z"/>
	<g>
		
			<linearGradient id="SVGID_9_" gradientUnits="userSpaceOnUse" x1="7216.7725" y1="45.9051" x2="7251.2573" y2="45.9051" gradientTransform="matrix(-1 0 0 -1 7305.6924 287.8898)">
			<stop  offset="0" style="stop-color:#FFC8F6"/>
			<stop  offset="1" style="stop-color:#E4B0FF"/>
		</linearGradient>
		<path class="st8" d="M88.6,255.7c0.5-0.6,0.4-1.5-0.2-1.9c-11.4-9-21.6-17.1-31.7-25.7c-0.6-0.5-1.4-0.4-1.9,0.2
			c-0.5,0.6-0.4,1.4,0.2,1.9c10.2,8.5,20.4,16.7,31.8,25.7C87.3,256.4,88.1,256.2,88.6,255.7z"/>
		
			<linearGradient id="SVGID_10_" gradientUnits="userSpaceOnUse" x1="7197.5723" y1="52.7605" x2="7259.4126" y2="52.7605" gradientTransform="matrix(-1 0 0 -1 7305.6924 287.8898)">
			<stop  offset="0" style="stop-color:#FFC8F6"/>
			<stop  offset="1" style="stop-color:#E4B0FF"/>
		</linearGradient>
		<path class="st9" d="M107.8,259.7c0.5-0.6,0.4-1.5-0.2-1.9c-19.5-15.9-39.8-31-59.1-47.4c-0.6-0.5-1.4-0.4-1.9,0.2
			c-0.5,0.6-0.4,1.4,0.2,1.9c19.3,16.5,39.6,31.5,59.1,47.4C106.4,260.3,107.3,260.3,107.8,259.7z"/>
		
			<linearGradient id="SVGID_11_" gradientUnits="userSpaceOnUse" x1="7182.8188" y1="59.7499" x2="7264.1123" y2="59.7499" gradientTransform="matrix(-1 0 0 -1 7305.6924 287.8898)">
			<stop  offset="0" style="stop-color:#FFC8F6"/>
			<stop  offset="1" style="stop-color:#E4B0FF"/>
		</linearGradient>
		<path class="st10" d="M121.5,261.2c1.3,0,1.9-1.7,0.8-2.5c-4.5-3.4-77.7-62.7-78.5-63.3c-0.6-0.5-1.5-0.4-1.9,0.2
			c-0.5,0.6-0.4,1.5,0.2,1.9c3,2.4,74,60,78.5,63.4C120.9,261.1,121.2,261.2,121.5,261.2z"/>
		
			<linearGradient id="SVGID_12_" gradientUnits="userSpaceOnUse" x1="7170.1187" y1="66.8499" x2="7266.6123" y2="66.8499" gradientTransform="matrix(-1 0 0 -1 7305.6924 287.8898)">
			<stop  offset="0" style="stop-color:#FFC8F6"/>
			<stop  offset="1" style="stop-color:#E4B0FF"/>
		</linearGradient>
		<path class="st11" d="M134.2,260.2c1.3,0,1.9-1.7,0.8-2.5c-4.1-2.8-92.8-74.7-93.7-75.5c-0.6-0.5-1.5-0.4-1.9,0.2
			c-0.5,0.6-0.4,1.5,0.2,1.9c0.9,0.7,89.6,72.6,93.8,75.6C133.7,260.2,134,260.2,134.2,260.2z"/>
		
			<linearGradient id="SVGID_13_" gradientUnits="userSpaceOnUse" x1="7158.5918" y1="74.2999" x2="7269.0127" y2="74.2999" gradientTransform="matrix(-1 0 0 -1 7305.6924 287.8898)">
			<stop  offset="0" style="stop-color:#FFC8F6"/>
			<stop  offset="1" style="stop-color:#E4B0FF"/>
		</linearGradient>
		<path class="st12" d="M145.7,258.3c1.3,0,1.9-1.6,0.9-2.4c-35.5-28.3-71-58.2-107.7-86.7c-0.6-0.5-1.5-0.4-1.9,0.2
			c-0.5,0.6-0.4,1.5,0.2,1.9c36.8,28.5,72.1,58.3,107.7,86.7C145.1,258.2,145.4,258.3,145.7,258.3z"/>
		
			<linearGradient id="SVGID_14_" gradientUnits="userSpaceOnUse" x1="7144.6919" y1="79.5999" x2="7268.3125" y2="79.5999" gradientTransform="matrix(-1 0 0 -1 7305.6924 287.8898)">
			<stop  offset="0" style="stop-color:#FFC8F6"/>
			<stop  offset="1" style="stop-color:#E4B0FF"/>
		</linearGradient>
		<path class="st13" d="M159.6,258.3c1.3,0,1.9-1.6,0.9-2.4c-0.8-0.7-82.8-67.6-120.9-97.3c-0.6-0.5-1.5-0.4-1.9,0.2
			c-0.5,0.6-0.4,1.5,0.2,1.9C76,190.4,158,257.3,158.8,258C158.9,258.2,159.3,258.3,159.6,258.3z"/>
		
			<linearGradient id="SVGID_15_" gradientUnits="userSpaceOnUse" x1="7126.8916" y1="82.9213" x2="7266.6123" y2="82.9213" gradientTransform="matrix(-1 0 0 -1 7305.6924 287.8898)">
			<stop  offset="0" style="stop-color:#FFC8F6"/>
			<stop  offset="1" style="stop-color:#E4B0FF"/>
		</linearGradient>
		<path class="st14" d="M177.4,261.4c1.3,0,1.9-1.6,0.9-2.4l-137-110.2c-0.6-0.5-1.5-0.4-1.9,0.2c-0.5,0.6-0.4,1.5,0.2,1.9
			C184.5,267.6,176.6,261.4,177.4,261.4z"/>
		
			<linearGradient id="SVGID_16_" gradientUnits="userSpaceOnUse" x1="7111.8916" y1="87.3999" x2="7264.9126" y2="87.3999" gradientTransform="matrix(-1 0 0 -1 7305.6924 287.8898)">
			<stop  offset="0" style="stop-color:#FFC8F6"/>
			<stop  offset="1" style="stop-color:#E4B0FF"/>
		</linearGradient>
		<path class="st15" d="M192.4,262.3c1.3,0,1.9-1.6,0.9-2.4C143.4,219.8,93,179.7,43,139c-0.6-0.5-1.5-0.4-1.9,0.2
			c-0.5,0.6-0.4,1.5,0.2,1.9c50.1,40.8,101,81.3,150.2,120.9C191.8,262.2,192.1,262.3,192.4,262.3z"/>
		
			<linearGradient id="SVGID_17_" gradientUnits="userSpaceOnUse" x1="7097.4722" y1="91.7398" x2="7262.4126" y2="91.7398" gradientTransform="matrix(-1 0 0 -1 7305.6924 287.8898)">
			<stop  offset="0" style="stop-color:#FFC8F6"/>
			<stop  offset="1" style="stop-color:#E4B0FF"/>
		</linearGradient>
		<path class="st16" d="M207.9,262.3c0.5-0.6,0.4-1.5-0.2-1.9c-54.1-43.1-108.1-87.6-162.2-130.6c-0.6-0.5-1.5-0.4-1.9,0.2
			c-0.5,0.6-0.4,1.5,0.2,1.9c54,42.9,108.1,87.5,162.2,130.6C206.5,263,207.4,262.9,207.9,262.3z"/>
		
			<linearGradient id="SVGID_18_" gradientUnits="userSpaceOnUse" x1="7084.6523" y1="96.1496" x2="7259.376" y2="96.1496" gradientTransform="matrix(-1 0 0 -1 7305.6924 287.8898)">
			<stop  offset="0" style="stop-color:#FFC8F6"/>
			<stop  offset="1" style="stop-color:#E4B0FF"/>
		</linearGradient>
		<path class="st17" d="M220.8,262c0.4-0.6,0.3-1.5-0.3-1.9c-12.8-9.4-171.1-138.3-172-138.9c-0.6-0.5-1.5-0.3-1.9,0.3
			c-0.5,0.6-0.3,1.5,0.3,1.9c1.3,1,159.3,129.7,172.1,139C219.5,262.7,220.4,262.6,220.8,262z"/>
		
			<linearGradient id="SVGID_19_" gradientUnits="userSpaceOnUse" x1="7070.8721" y1="100.6265" x2="7255.6123" y2="100.6265" gradientTransform="matrix(-1 0 0 -1 7305.6924 287.8898)">
			<stop  offset="0" style="stop-color:#FFC8F6"/>
			<stop  offset="1" style="stop-color:#E4B0FF"/>
		</linearGradient>
		<path class="st18" d="M234.5,261.4c0.5-0.6,0.4-1.5-0.2-1.9c-55.9-45.2-115.5-93.1-182-146.5c-0.6-0.5-1.5-0.4-1.9,0.2
			c-0.5,0.6-0.4,1.5,0.2,1.9c66.6,53.4,126.1,101.3,182,146.5C233.1,262,234,261.9,234.5,261.4z"/>
		
			<linearGradient id="SVGID_20_" gradientUnits="userSpaceOnUse" x1="7060.1919" y1="105.7999" x2="7251.5127" y2="105.7999" gradientTransform="matrix(-1 0 0 -1 7305.6924 287.8898)">
			<stop  offset="0" style="stop-color:#FFC8F6"/>
			<stop  offset="1" style="stop-color:#E4B0FF"/>
		</linearGradient>
		<path class="st19" d="M244.1,259.3c1.3,0,1.9-1.6,0.9-2.4c-0.1-0.1-4.8-3.9-12.7-10.2C189.2,212,58.1,106.5,56.4,105.2
			c-0.6-0.5-1.5-0.4-1.9,0.2c-0.5,0.6-0.4,1.5,0.2,1.9c1.7,1.3,132.7,106.8,175.8,141.5c7.9,6.3,12.6,10.2,12.7,10.2
			C243.5,259.2,243.8,259.3,244.1,259.3z"/>
		
			<linearGradient id="SVGID_21_" gradientUnits="userSpaceOnUse" x1="7050.2915" y1="111.0999" x2="7246.7124" y2="111.0999" gradientTransform="matrix(-1 0 0 -1 7305.6924 287.8898)">
			<stop  offset="0" style="stop-color:#FFC8F6"/>
			<stop  offset="1" style="stop-color:#E4B0FF"/>
		</linearGradient>
		<path class="st20" d="M254,256.1c1.3,0,1.9-1.6,0.9-2.4C200.7,210.2,89,120,61.2,97.8c-0.6-0.5-1.5-0.4-1.9,0.2
			c-0.5,0.6-0.4,1.5,0.2,1.9C87.3,122,199.3,212.5,253.1,255.7C253.4,256,253.7,256.1,254,256.1z"/>
		
			<linearGradient id="SVGID_22_" gradientUnits="userSpaceOnUse" x1="7041.5288" y1="116.5182" x2="7241.4126" y2="116.5182" gradientTransform="matrix(-1 0 0 -1 7305.6924 287.8898)">
			<stop  offset="0" style="stop-color:#FFC8F6"/>
			<stop  offset="1" style="stop-color:#E4B0FF"/>
		</linearGradient>
		<path class="st21" d="M263.8,251.6c0.5-0.6,0.5-1.4-0.1-1.9C254.6,241.4,101.6,120.3,66.5,91c-0.6-0.5-1.4-0.4-1.9,0.2
			s-0.4,1.4,0.2,1.9c35,29.3,188.1,150.5,197.1,158.6C262.4,252.2,263.3,252.2,263.8,251.6z"/>
		
			<linearGradient id="SVGID_23_" gradientUnits="userSpaceOnUse" x1="7035.7725" y1="123.0398" x2="7235.6123" y2="123.0398" gradientTransform="matrix(-1 0 0 -1 7305.6924 287.8898)">
			<stop  offset="0" style="stop-color:#FFC8F6"/>
			<stop  offset="1" style="stop-color:#E4B0FF"/>
		</linearGradient>
		<path class="st22" d="M269.6,245c0.5-0.6,0.4-1.5-0.2-1.9L72.3,84.5c-0.6-0.5-1.5-0.4-1.9,0.2c-0.5,0.6-0.4,1.5,0.2,1.9
			l197.1,158.6C268.2,245.7,269.1,245.6,269.6,245z"/>
		
			<linearGradient id="SVGID_24_" gradientUnits="userSpaceOnUse" x1="7031.4917" y1="129.8569" x2="7229.2124" y2="129.8569" gradientTransform="matrix(-1 0 0 -1 7305.6924 287.8898)">
			<stop  offset="0" style="stop-color:#FFC8F6"/>
			<stop  offset="1" style="stop-color:#E4B0FF"/>
		</linearGradient>
		<path class="st23" d="M272.8,237.8c1.3,0,1.9-1.6,0.9-2.4L78.7,78.5c-0.6-0.5-1.5-0.4-1.9,0.2c-0.5,0.6-0.4,1.5,0.2,1.9
			C283.5,246.8,272,237.8,272.8,237.8z"/>
		
			<linearGradient id="SVGID_25_" gradientUnits="userSpaceOnUse" x1="7027.8721" y1="136.7898" x2="7222.3125" y2="136.7898" gradientTransform="matrix(-1 0 0 -1 7305.6924 287.8898)">
			<stop  offset="0" style="stop-color:#FFC8F6"/>
			<stop  offset="1" style="stop-color:#E4B0FF"/>
		</linearGradient>
		<path class="st24" d="M277.5,229.1c0.5-0.6,0.4-1.5-0.2-1.9L85.6,72.9c-0.6-0.5-1.5-0.4-1.9,0.2c-0.5,0.6-0.4,1.5,0.2,1.9
			l191.7,154.3C276.2,229.8,277.1,229.7,277.5,229.1z"/>
		
			<linearGradient id="SVGID_26_" gradientUnits="userSpaceOnUse" x1="7024.6724" y1="143.7182" x2="7214.8125" y2="143.7182" gradientTransform="matrix(-1 0 0 -1 7305.6924 287.8898)">
			<stop  offset="0" style="stop-color:#FFC8F6"/>
			<stop  offset="1" style="stop-color:#E4B0FF"/>
		</linearGradient>
		<path class="st25" d="M280.7,220.5c0.5-0.6,0.4-1.5-0.2-1.9L93.1,67.7c-0.6-0.5-1.5-0.4-1.9,0.2c-0.5,0.6-0.4,1.5,0.2,1.9
			l187.4,150.8C279.3,221.1,280.2,221.1,280.7,220.5z"/>
		
			<linearGradient id="SVGID_27_" gradientUnits="userSpaceOnUse" x1="7026.2725" y1="152.1605" x2="7206.7124" y2="152.1605" gradientTransform="matrix(-1 0 0 -1 7305.6924 287.8898)">
			<stop  offset="0" style="stop-color:#FFC8F6"/>
			<stop  offset="1" style="stop-color:#E4B0FF"/>
		</linearGradient>
		<path class="st26" d="M279.1,208.1c0.5-0.6,0.4-1.5-0.2-1.9c-55.3-44.7-115.1-92.8-177.7-143c-0.6-0.5-1.5-0.4-1.9,0.2
			c-0.5,0.6-0.4,1.5,0.2,1.9c62.6,50.2,122.4,98.4,177.7,143C277.8,208.7,278.6,208.7,279.1,208.1z"/>
		
			<linearGradient id="SVGID_28_" gradientUnits="userSpaceOnUse" x1="7029.3721" y1="161.0398" x2="7197.9126" y2="161.0398" gradientTransform="matrix(-1 0 0 -1 7305.6924 287.8898)">
			<stop  offset="0" style="stop-color:#FFC8F6"/>
			<stop  offset="1" style="stop-color:#E4B0FF"/>
		</linearGradient>
		<path class="st27" d="M276,194.4c0.5-0.6,0.4-1.5-0.2-1.9C220.7,148.9,165.2,103.8,110,59.1c-0.6-0.5-1.5-0.4-1.9,0.2
			c-0.5,0.6-0.4,1.5,0.2,1.9c55,44.6,110.5,89.7,165.8,133.4C274.7,195.1,275.5,195,276,194.4z"/>
		
			<linearGradient id="SVGID_29_" gradientUnits="userSpaceOnUse" x1="7068.4722" y1="184.1499" x2="7188.2124" y2="184.1499" gradientTransform="matrix(-1 0 0 -1 7305.6924 287.8898)">
			<stop  offset="0" style="stop-color:#FFC8F6"/>
			<stop  offset="1" style="stop-color:#E4B0FF"/>
		</linearGradient>
		<path class="st28" d="M235.8,152.2c0.4,0,0.8-0.2,1.1-0.5c0.5-0.6,0.4-1.5-0.2-1.9c-1.2-0.9-115.6-93-117-94.2
			c-0.6-0.5-1.5-0.4-1.9,0.2c-0.5,0.6-0.4,1.5,0.2,1.9c1.5,1.2,115.9,93.3,117,94.2C235.2,152.1,235.5,152.2,235.8,152.2z"/>
		
			<linearGradient id="SVGID_30_" gradientUnits="userSpaceOnUse" x1="7082.8721" y1="196.7499" x2="7177.8125" y2="196.7499" gradientTransform="matrix(-1 0 0 -1 7305.6924 287.8898)">
			<stop  offset="0" style="stop-color:#FFC8F6"/>
			<stop  offset="1" style="stop-color:#E4B0FF"/>
		</linearGradient>
		<path class="st29" d="M221.4,129.6c0.4,0,0.8-0.2,1.1-0.5c0.5-0.6,0.4-1.5-0.2-1.9c-31-24.7-61.2-49.4-92.2-74.2
			c-0.6-0.5-1.5-0.4-1.9,0.2c-0.5,0.6-0.4,1.5,0.2,1.9c30.9,24.8,61.3,49.6,92.2,74.2C220.8,129.5,221.1,129.6,221.4,129.6z"/>
		
			<linearGradient id="SVGID_31_" gradientUnits="userSpaceOnUse" x1="7092.1724" y1="207.0114" x2="7166.1558" y2="207.0114" gradientTransform="matrix(-1 0 0 -1 7305.6924 287.8898)">
			<stop  offset="0" style="stop-color:#FFC8F6"/>
			<stop  offset="1" style="stop-color:#E4B0FF"/>
		</linearGradient>
		<path class="st30" d="M213.2,110.4c0.5-0.6,0.4-1.5-0.2-1.9c-2.1-1.7-69.3-55.5-71.2-57.3c-0.6-0.5-1.4-0.5-1.9,0.1
			s-0.5,1.4,0.1,1.9c2.1,1.9,68.8,55.4,71.4,57.4C211.9,111.1,212.7,111,213.2,110.4z"/>
		
			<linearGradient id="SVGID_32_" gradientUnits="userSpaceOnUse" x1="7103.4829" y1="217.5355" x2="7153.1841" y2="217.5355" gradientTransform="matrix(-1 0 0 -1 7305.6924 287.8898)">
			<stop  offset="0" style="stop-color:#FFC8F6"/>
			<stop  offset="1" style="stop-color:#E4B0FF"/>
		</linearGradient>
		<path class="st31" d="M201.9,90.2c0.5-0.5,0.5-1.4-0.1-1.9c-0.1-0.1-0.1-0.1-47.1-37.9c-0.6-0.5-1.5-0.4-1.9,0.2
			c-0.5,0.6-0.4,1.5,0.2,1.9c0,0,46.8,37.7,47,37.8C200.5,90.8,201.4,90.7,201.9,90.2z"/>
		
			<linearGradient id="SVGID_33_" gradientUnits="userSpaceOnUse" x1="7120.9399" y1="229.6815" x2="7138.1182" y2="229.6815" gradientTransform="matrix(-1 0 0 -1 7305.6924 287.8898)">
			<stop  offset="0" style="stop-color:#FFC8F6"/>
			<stop  offset="1" style="stop-color:#E4B0FF"/>
		</linearGradient>
		<path class="st32" d="M183.4,65.4c0.4,0,0.9-0.2,1.1-0.6c0.4-0.6,0.3-1.5-0.4-1.9c-2.5-1.7-5.1-3.9-7.8-6.2
			c-2.1-1.8-4.3-3.7-6.6-5.4c-0.6-0.5-1.5-0.3-1.9,0.3c-0.5,0.6-0.3,1.5,0.3,1.9c2.2,1.6,4.3,3.5,6.4,5.3c2.8,2.4,5.4,4.6,8.1,6.4
			C182.9,65.4,183.1,65.4,183.4,65.4z"/>
	</g>
	
		<linearGradient id="SVGID_34_" gradientUnits="userSpaceOnUse" x1="6987.5859" y1="124.0229" x2="7039.9639" y2="221.2964" gradientTransform="matrix(-1 0 0 -1 7305.6924 287.8898)">
		<stop  offset="0" style="stop-color:#A057FF"/>
		<stop  offset="0.1115" style="stop-color:#AD60F8"/>
		<stop  offset="0.5011" style="stop-color:#D47DE2"/>
		<stop  offset="0.8108" style="stop-color:#ED8ED5"/>
		<stop  offset="1" style="stop-color:#F695D0"/>
	</linearGradient>
	<path class="st33" d="M277.2,61c8.3-0.5,16,4.9,21.4,11.1c5.4,6.3,8.6,14.2,10.3,22.3c2,9.9,1.9,20.6,6.7,29.5
		c3.5,6.4,9.5,11.7,10.4,19c1,8.7-6.7,16.4-15.4,17.7c-16,2.4-27.5-11.5-38.2-25.5C257,115,246,63,277.2,61z"/>
	
		<linearGradient id="SVGID_35_" gradientUnits="userSpaceOnUse" x1="6963.6924" y1="160.9227" x2="7032.8926" y2="160.9227" gradientTransform="matrix(-1 0 0 -1 7305.6924 287.8898)">
		<stop  offset="0" style="stop-color:#FFECF9"/>
		<stop  offset="1" style="stop-color:#F393EF"/>
	</linearGradient>
	<path class="st34" d="M308.2,208.6c-0.7-0.2-1.2-0.9-1-1.6l0.8-3.5c0,0,0.1-0.7,0.3-1.8c0.1-0.7,0.8-1.2,1.6-1.1
		c0.7,0.1,1.2,0.8,1.1,1.6c-0.2,1.2-0.4,1.9-0.4,1.9l-0.8,3.5c-0.1,0.6-0.7,1.1-1.3,1.1C308.4,208.7,308.3,208.7,308.2,208.6z
		 M310.5,194.4c-0.8,0-1.4-0.6-1.3-1.4c0-0.3,0-0.7,0-1c0-1.6-0.1-3-0.3-4.2c-0.1-0.7,0.4-1.4,1.1-1.6c0.7-0.1,1.4,0.4,1.6,1.1
		c0.2,1.4,0.3,2.9,0.3,4.6c0,0.4,0,0.7,0,1.1C311.9,193.8,311.3,194.4,310.5,194.4L310.5,194.4z M309.8,180.1
		c-0.7-0.3-1-1.1-0.7-1.8c0.9-1.9,2.2-3.5,4-4.7c0.6-0.4,1.5-0.3,1.9,0.3s0.3,1.5-0.3,1.9c-1.3,0.9-2.4,2.2-3,3.6
		c-0.2,0.5-0.7,0.8-1.2,0.8C310.2,180.3,310,180.2,309.8,180.1z M320.8,171.9c-0.3-0.7,0-1.5,0.7-1.8c1.7-0.8,3.2-1.6,4.7-2.5
		c0.6-0.4,1.5-0.2,1.9,0.4c0.4,0.6,0.2,1.5-0.4,1.9c-1.5,1-3.2,1.9-5,2.7c-0.2,0.1-0.4,0.1-0.6,0.1
		C321.6,172.7,321.1,172.4,320.8,171.9z M332.8,164c-0.6-0.5-0.6-1.4-0.1-1.9c1.2-1.3,2.2-2.7,3.1-4.2c0.4-0.7,1.2-0.9,1.9-0.5
		c0.7,0.4,0.9,1.2,0.5,1.9c-1,1.6-2.1,3.2-3.4,4.6c-0.3,0.3-0.6,0.5-1,0.5C333.4,164.4,333.1,164.2,332.8,164z M339.8,151.6
		c-0.7-0.1-1.2-0.9-1.1-1.6c0.3-1.7,0.5-3.4,0.5-5.2c0-0.8,0.6-1.4,1.4-1.4s1.4,0.6,1.4,1.4c0,1.9-0.2,3.8-0.5,5.7
		c-0.1,0.7-0.7,1.1-1.3,1.1C340,151.6,339.9,151.6,339.8,151.6z M338,136.4c-0.5-1.6-1.1-3.2-1.9-4.9c-0.3-0.7-0.1-1.5,0.6-1.8
		s1.5-0.1,1.8,0.6c0.9,1.8,1.6,3.5,2.1,5.3c0.2,0.7-0.2,1.5-0.9,1.7c-0.1,0-0.3,0.1-0.4,0.1C338.7,137.4,338.2,137,338,136.4z
		 M331.5,124.1c-0.4-0.6-0.8-1.1-1.2-1.7c-0.7-0.9-1.4-1.9-2-2.8c-0.4-0.6-0.3-1.5,0.4-1.9c0.6-0.4,1.5-0.3,1.9,0.4
		c0.6,0.9,1.3,1.8,2,2.8c0.4,0.5,0.8,1.1,1.2,1.7c0.4,0.6,0.3,1.5-0.3,1.9c-0.2,0.2-0.5,0.3-0.8,0.3
		C332.2,124.7,331.8,124.5,331.5,124.1z M324.7,111c-0.3-1.5-0.7-3.3-1-5.5c-0.1-0.7,0.4-1.4,1.2-1.6c0.7-0.1,1.4,0.4,1.6,1.2
		c0.3,2.2,0.6,3.8,0.9,5.3c0.2,0.7-0.3,1.5-1,1.6c-0.1,0-0.2,0-0.3,0C325.4,112.1,324.9,111.6,324.7,111z M322.5,96.7
		c-0.3-1.8-0.5-3.3-0.8-4.8l-0.1-0.5c-0.2-0.7,0.3-1.5,1.1-1.6c0.7-0.2,1.5,0.3,1.6,1.1l0.1,0.6c0.3,1.5,0.6,3.1,0.9,4.9
		c0.1,0.7-0.4,1.4-1.1,1.6c-0.1,0-0.1,0-0.2,0C323.2,97.8,322.6,97.3,322.5,96.7z M319.3,82.9c-0.6-1.7-1.2-3.4-1.9-5
		c-0.3-0.7,0-1.5,0.7-1.8s1.5,0,1.8,0.7c0.7,1.7,1.4,3.4,2,5.2c0.2,0.7-0.1,1.5-0.9,1.7c-0.1,0-0.3,0.1-0.4,0.1
		C320,83.8,319.5,83.5,319.3,82.9z M313.4,70.2c-1-1.5-2-3-3.1-4.4c-0.5-0.6-0.4-1.5,0.2-1.9c0.6-0.5,1.5-0.4,1.9,0.2
		c1.1,1.5,2.2,3,3.2,4.6c0.4,0.6,0.2,1.5-0.4,1.9c-0.2,0.1-0.5,0.2-0.7,0.2C314.1,70.8,313.6,70.6,313.4,70.2z M304.4,59.4
		c-1.3-1.2-2.7-2.3-4.1-3.3c-0.6-0.4-0.8-1.3-0.3-1.9c0.4-0.6,1.3-0.8,1.9-0.3c1.5,1.1,3,2.3,4.4,3.5c0.6,0.5,0.6,1.4,0.1,1.9
		c-0.3,0.3-0.6,0.5-1,0.5C305,59.8,304.7,59.7,304.4,59.4z M292.8,51.7c-1.6-0.7-3.3-1.4-5-1.9c-0.7-0.2-1.1-1-0.9-1.7
		s1-1.1,1.7-0.9c1.8,0.6,3.6,1.2,5.3,2c0.7,0.3,1,1.1,0.7,1.8c-0.2,0.5-0.7,0.8-1.2,0.8C293.2,51.8,293,51.8,292.8,51.7z
		 M279.5,48.1c-1.8-0.2-3.5-0.2-5.3-0.1c-0.7,0-1.4-0.5-1.4-1.3s0.5-1.4,1.3-1.4c1.9-0.1,3.8-0.1,5.7,0.1c0.8,0.1,1.3,0.7,1.2,1.5
		c-0.1,0.7-0.7,1.2-1.4,1.2C279.5,48.1,279.5,48.1,279.5,48.1z"/>
	
		<linearGradient id="SVGID_36_" gradientUnits="userSpaceOnUse" x1="7008.5786" y1="139.1707" x2="7269.9448" y2="139.1707" gradientTransform="matrix(-1 0 0 -1 7305.6924 287.8898)">
		<stop  offset="0" style="stop-color:#A092FF"/>
		<stop  offset="0.5176" style="stop-color:#D880E0"/>
		<stop  offset="0.817" style="stop-color:#F191D3"/>
		<stop  offset="1" style="stop-color:#FA98CE"/>
	</linearGradient>
	<path class="st35" d="M246,110.4c2.4,13.8,8.2,24.5,15.1,33.5c20.6,26.8,43.6,37.7,33.6,67.5c-5.7,16.9-32.8,34.1-66.9,29.6
		c-14.7-1.9-28.5-7-42.2-12.4c-26.3-10.4-71.7,11.7-105.8,11.7c-24.5,0-86.3-38.9,1.5-124.6C176.6,22.6,235.6,51.5,246,110.4z"/>
	<g>
		
			<linearGradient id="SVGID_37_" gradientUnits="userSpaceOnUse" x1="7104.3374" y1="372.7491" x2="7158.2485" y2="471.8159" gradientTransform="matrix(-0.9985 5.490000e-02 -5.490000e-02 -0.9985 7257.606 148.403)">
			<stop  offset="0" style="stop-color:#F997F1"/>
			<stop  offset="1" style="stop-color:#FFECF9"/>
		</linearGradient>
		<path class="st36" d="M49.1,218.1c11.7,0,23.2-5.9,32.6-16.9c7.5-8.8,13.5-19,19.3-28.8c7.8-13.3,15.9-27,27.6-37
			c13.6-11.5,31.2-17.5,49.5-23c12.2-3.7,26-7.9,34.3-18.6c10.2-13.2,11.3-32.6,2.7-48.3c-9.6-17.4-28.6-26.5-51-24.4
			c-0.8,0.1-1.3,0.7-1.2,1.5s0.7,1.3,1.5,1.2c21.6-2.1,39.2,6.3,48.4,23c8.1,14.8,7.2,33-2.4,45.3c-7.8,10.1-21.2,14.1-33,17.7
			c-18.6,5.6-36.4,11.7-50.4,23.5c-12.2,10.3-20.3,24.2-28.2,37.7c-5.7,9.8-11.6,19.8-19,28.4c-10.9,12.8-24.3,18.1-37.6,15.1
			c-12.4-2.8-22.6-12.9-26.1-25.8c-4.3-16,2.2-33.4,17.8-47.7c0.6-0.5,0.6-1.4,0.1-1.9c-0.5-0.6-1.4-0.6-1.9-0.1
			C15.8,154.1,9,172.5,13.5,189.5c3.7,13.8,14.7,24.7,28.1,27.8C44,217.8,46.6,218.1,49.1,218.1z"/>
	</g>
	<g>
		
			<linearGradient id="SVGID_38_" gradientUnits="userSpaceOnUse" x1="7249.9009" y1="203.6398" x2="7278.2485" y2="203.6398" gradientTransform="matrix(-1 0 0 -1 7305.6924 287.8898)">
			<stop  offset="0" style="stop-color:#DEBBFF"/>
			<stop  offset="1" style="stop-color:#F997CF"/>
		</linearGradient>
		<path class="st37" d="M40.5,104.7L27.7,85c-0.3-0.5-0.3-1,0-1.5l12.8-19.8c0.3-0.4,0.7-0.6,1.2-0.6s0.9,0.2,1.2,0.6l12.8,19.8
			c0.3,0.5,0.3,1,0,1.5l-12.8,19.8c-0.3,0.4-0.7,0.6-1.2,0.6C41.2,105.3,40.7,105.1,40.5,104.7z M41.6,67L30.4,84.2l11.2,17.2
			l11.2-17.2L41.6,67z"/>
	</g>
	
		<linearGradient id="SVGID_39_" gradientUnits="userSpaceOnUse" x1="6992.9961" y1="62.0398" x2="7007.6646" y2="62.0398" gradientTransform="matrix(-1 0 0 -1 7305.6924 287.8898)">
		<stop  offset="0" style="stop-color:#DEBBFF"/>
		<stop  offset="1" style="stop-color:#F997CF"/>
	</linearGradient>
	<path class="st38" d="M304.2,235.8l-6-9.2c-0.3-0.5-0.3-1,0-1.5l6-9.2c0.3-0.4,0.7-0.6,1.2-0.6s0.9,0.2,1.2,0.6l6,9.2
		c0.3,0.5,0.3,1,0,1.5l-6,9.2c-0.3,0.4-0.7,0.6-1.2,0.6S304.5,236.2,304.2,235.8z M305.4,219.2l-4.3,6.7l4.3,6.7l4.3-6.7
		L305.4,219.2z"/>
</g>
</svg>
