<?xml version="1.0" encoding="utf-8"?>
<!-- Generator: Adobe Illustrator 25.2.0, SVG Export Plug-In . SVG Version: 6.00 Build 0)  -->
<svg version="1.1" id="Layer_1" xmlns="http://www.w3.org/2000/svg" xmlns:xlink="http://www.w3.org/1999/xlink" x="0px" y="0px"
	 viewBox="0 0 350 304.1" style="enable-background:new 0 0 350 304.1;" xml:space="preserve">
<style type="text/css">
	.st0{display:none;fill:url(#SVGID_1_);}
	.st1{fill:url(#SVGID_2_);}
	.st2{fill:url(#SVGID_3_);}
	.st3{fill:url(#SVGID_4_);}
	.st4{fill:url(#SVGID_5_);}
	.st5{fill:url(#SVGID_6_);}
	.st6{fill:url(#SVGID_7_);}
	.st7{fill:url(#SVGID_8_);}
	.st8{fill:url(#SVGID_9_);}
	.st9{fill:url(#SVGID_10_);}
	.st10{fill:url(#SVGID_11_);}
	.st11{fill:url(#SVGID_12_);}
	.st12{fill:url(#SVGID_13_);}
	.st13{fill:url(#SVGID_14_);}
	.st14{fill:url(#SVGID_15_);}
	.st15{fill:url(#SVGID_16_);}
	.st16{fill:url(#SVGID_17_);}
	.st17{fill:url(#SVGID_18_);}
	.st18{fill:url(#SVGID_19_);}
	.st19{fill:url(#SVGID_20_);}
	.st20{fill:url(#SVGID_21_);}
	.st21{fill:url(#SVGID_22_);}
	.st22{fill:url(#SVGID_23_);}
	.st23{fill:url(#SVGID_24_);}
	.st24{fill:url(#SVGID_25_);}
	.st25{fill:url(#SVGID_26_);}
	.st26{fill:url(#SVGID_27_);}
	.st27{fill:url(#SVGID_28_);}
	.st28{fill:url(#SVGID_29_);}
	.st29{fill:url(#SVGID_30_);}
	.st30{fill:url(#SVGID_31_);}
	.st31{fill:url(#SVGID_32_);}
	.st32{fill:url(#SVGID_33_);}
	.st33{fill:url(#SVGID_34_);}
	.st34{fill:url(#SVGID_35_);}
	.st35{fill:url(#SVGID_36_);}
	.st36{fill:url(#SVGID_37_);}
	.st37{fill:url(#SVGID_38_);}
	.st38{fill:url(#SVGID_39_);}
	.st39{fill:url(#SVGID_40_);}
	.st40{fill:url(#SVGID_41_);}
</style>
<g>
	
		<linearGradient id="SVGID_1_" gradientUnits="userSpaceOnUse" x1="6756.854" y1="762.2805" x2="6871.5962" y2="762.2805" gradientTransform="matrix(-1 0 0 1 7061.6924 -522.063)">
		<stop  offset="0" style="stop-color:#A2DAFF"/>
		<stop  offset="1" style="stop-color:#998BF5"/>
	</linearGradient>
	<path class="st0" d="M259,219.4c7.6-1.7,30.1-17.1,42.3-0.5c12.2,16.8-7.4,47.3-54.9,50.1c-47.1,2.7-67.2-28.1-50.5-48
		c5.1-6.1,13.5-8.2,21-6.9C239.1,217.8,238.2,224,259,219.4z"/>
</g>
<g>
	
		<linearGradient id="SVGID_2_" gradientUnits="userSpaceOnUse" x1="7416.9531" y1="38.8447" x2="7410.6416" y2="63.5923" gradientTransform="matrix(-1 0 0 1 7550 0)">
		<stop  offset="5.102040e-03" style="stop-color:#DDAEFF"/>
		<stop  offset="0.3895" style="stop-color:#D1BEF8"/>
		<stop  offset="0.9949" style="stop-color:#B7E0EB"/>
	</linearGradient>
	<path class="st1" d="M174.1,61.1c-1.3,6-5.9,11.2-11.8,13.3c-6.2,2.2-13.1,0.9-19.7,1.5c-6.3,0.6-12.3,2.9-18.5,3.8
		c-6.2,0.9-13.3,0.2-17.7-4.3c-2.5-2.6-3.9-6.1-4.1-9.7C100,34.5,182.6,22.5,174.1,61.1z"/>
	
		<linearGradient id="SVGID_3_" gradientUnits="userSpaceOnUse" x1="7306.6768" y1="89.3591" x2="7355.4023" y2="273.5135" gradientTransform="matrix(-1 0 0 1 7550 0)">
		<stop  offset="5.102040e-03" style="stop-color:#DDC2FF"/>
		<stop  offset="0.4598" style="stop-color:#CDC0FF"/>
		<stop  offset="0.9949" style="stop-color:#B4BEFF"/>
	</linearGradient>
	<path class="st2" d="M112.1,241.9c2,10.1,8.1,19.9,17.5,24.3c13.9,6.6,23.7,1.7,39.1,0.9c18.8-0.9,34.2,9.7,52.2,15.1
		c21.4,6.4,36.1,2.7,48.9-14.2c48.8-64.3,64.3-128.7,38.9-157.2c-26.9-30.1-88.4-12.3-138.6,29.5
		C139.7,165.7,104.6,204.7,112.1,241.9z"/>
	<g>
		
			<linearGradient id="SVGID_4_" gradientUnits="userSpaceOnUse" x1="7261.3364" y1="87.1154" x2="7287.2212" y2="87.1154" gradientTransform="matrix(-1 0 0 1 7550 0)">
			<stop  offset="5.102040e-03" style="stop-color:#CBABDB"/>
			<stop  offset="0.3317" style="stop-color:#BBBBDC"/>
			<stop  offset="0.9711" style="stop-color:#90E6E0"/>
			<stop  offset="1" style="stop-color:#8EE8E0"/>
		</linearGradient>
		<path class="st3" d="M287.2,101.9c0.3,0,0.7-0.1,0.9-0.4c0.6-0.5,0.7-1.4,0.2-2l-23-26.7c-0.5-0.6-1.4-0.7-2-0.2
			c-0.6,0.5-0.7,1.4-0.2,2l23,26.7C286.4,101.7,286.8,101.9,287.2,101.9z"/>
		
			<linearGradient id="SVGID_5_" gradientUnits="userSpaceOnUse" x1="7249.3267" y1="93.1143" x2="7313.6147" y2="93.1143" gradientTransform="matrix(-1 0 0 1 7550 0)">
			<stop  offset="5.102040e-03" style="stop-color:#CBABDB"/>
			<stop  offset="0.3317" style="stop-color:#BBBBDC"/>
			<stop  offset="0.9711" style="stop-color:#90E6E0"/>
			<stop  offset="1" style="stop-color:#8EE8E0"/>
		</linearGradient>
		<path class="st4" d="M299.2,130.2c0.3,0,0.7-0.1,0.9-0.4c0.6-0.5,0.7-1.4,0.2-2c-0.6-0.7-60.3-70.1-61.4-71.3
			c-0.4-0.5-1.2-0.7-1.8-0.3c-0.7,0.4-0.9,1.3-0.5,2c0.1,0.1,0.1,0.1,61.5,71.6C298.4,130.1,298.8,130.2,299.2,130.2z"/>
		
			<linearGradient id="SVGID_6_" gradientUnits="userSpaceOnUse" x1="7246.1855" y1="99.0095" x2="7331.2915" y2="99.0095" gradientTransform="matrix(-1 0 0 1 7550 0)">
			<stop  offset="5.102040e-03" style="stop-color:#CBABDB"/>
			<stop  offset="0.3317" style="stop-color:#BBBBDC"/>
			<stop  offset="0.9711" style="stop-color:#90E6E0"/>
			<stop  offset="1" style="stop-color:#8EE8E0"/>
		</linearGradient>
		<path class="st5" d="M302.4,148.2c0.3,0,0.7-0.1,0.9-0.4c0.6-0.5,0.7-1.4,0.2-2c-0.8-0.9-81-94.1-82.2-95.5
			c-0.5-0.5-1.3-0.7-1.9-0.3c-0.7,0.4-0.9,1.3-0.5,2c0.1,0.1,0.1,0.1,82.3,95.7C301.6,148.1,302,148.2,302.4,148.2z"/>
		
			<linearGradient id="SVGID_7_" gradientUnits="userSpaceOnUse" x1="7245.8369" y1="104.9076" x2="7346.208" y2="104.9076" gradientTransform="matrix(-1 0 0 1 7550 0)">
			<stop  offset="5.102040e-03" style="stop-color:#CBABDB"/>
			<stop  offset="0.3317" style="stop-color:#BBBBDC"/>
			<stop  offset="0.9711" style="stop-color:#90E6E0"/>
			<stop  offset="1" style="stop-color:#8EE8E0"/>
		</linearGradient>
		<path class="st6" d="M302.7,163c0.3,0,0.7-0.1,0.9-0.4c0.6-0.5,0.7-1.4,0.2-2c-1-1.1-96.1-111.8-97.5-113.3
			c-0.5-0.5-1.3-0.7-1.9-0.3c-0.7,0.4-0.9,1.3-0.5,2c0.1,0.1,0.1,0.1,97.6,113.5C301.9,162.8,302.3,163,302.7,163z"/>
		
			<linearGradient id="SVGID_8_" gradientUnits="userSpaceOnUse" x1="7247.0991" y1="110.8018" x2="7359.52" y2="110.8018" gradientTransform="matrix(-1 0 0 1 7550 0)">
			<stop  offset="5.102040e-03" style="stop-color:#CBABDB"/>
			<stop  offset="0.3317" style="stop-color:#BBBBDC"/>
			<stop  offset="0.9711" style="stop-color:#90E6E0"/>
			<stop  offset="1" style="stop-color:#8EE8E0"/>
		</linearGradient>
		<path class="st7" d="M301.5,175.9c0.3,0,0.7-0.1,0.9-0.4c0.6-0.5,0.7-1.4,0.2-2C301.5,172.3,194.4,47.9,193,46.2
			c-0.5-0.5-1.3-0.7-1.9-0.3c-0.7,0.4-0.9,1.3-0.5,2c0.1,0.1,0.1,0.1,109.7,127.5C300.6,175.7,301,175.9,301.5,175.9z"/>
		
			<linearGradient id="SVGID_9_" gradientUnits="userSpaceOnUse" x1="7249.457" y1="116.7088" x2="7371.6948" y2="116.7088" gradientTransform="matrix(-1 0 0 1 7550 0)">
			<stop  offset="5.102040e-03" style="stop-color:#CBABDB"/>
			<stop  offset="0.3317" style="stop-color:#BBBBDC"/>
			<stop  offset="0.9711" style="stop-color:#90E6E0"/>
			<stop  offset="1" style="stop-color:#8EE8E0"/>
		</linearGradient>
		<path class="st8" d="M299.1,187.5c0.3,0,0.7-0.1,0.9-0.4c0.6-0.5,0.7-1.4,0.2-2L180.9,46.4c-0.5-0.6-1.4-0.7-2-0.2
			c-0.6,0.5-0.7,1.4-0.2,2L298,187C298.3,187.3,298.7,187.5,299.1,187.5z"/>
		
			<linearGradient id="SVGID_10_" gradientUnits="userSpaceOnUse" x1="7252.6714" y1="122.6138" x2="7383.0288" y2="122.6138" gradientTransform="matrix(-1 0 0 1 7550 0)">
			<stop  offset="5.102040e-03" style="stop-color:#CBABDB"/>
			<stop  offset="0.3317" style="stop-color:#BBBBDC"/>
			<stop  offset="0.9711" style="stop-color:#90E6E0"/>
			<stop  offset="1" style="stop-color:#8EE8E0"/>
		</linearGradient>
		<path class="st9" d="M295.9,198.1c0.3,0,0.7-0.1,0.9-0.4c0.6-0.5,0.7-1.4,0.2-2L169.5,47.6c-0.5-0.6-1.4-0.7-2-0.2
			c-0.6,0.5-0.7,1.4-0.2,2l127.5,148.1C295.1,198,295.5,198.1,295.9,198.1z"/>
		
			<linearGradient id="SVGID_11_" gradientUnits="userSpaceOnUse" x1="7256.6069" y1="128.5187" x2="7393.6416" y2="128.5187" gradientTransform="matrix(-1 0 0 1 7550 0)">
			<stop  offset="5.102040e-03" style="stop-color:#CBABDB"/>
			<stop  offset="0.3317" style="stop-color:#BBBBDC"/>
			<stop  offset="0.9711" style="stop-color:#90E6E0"/>
			<stop  offset="1" style="stop-color:#8EE8E0"/>
		</linearGradient>
		<path class="st10" d="M291.9,207.9c0.3,0,0.7-0.1,0.9-0.4c0.6-0.5,0.7-1.4,0.2-2L158.9,49.6c-0.5-0.6-1.4-0.7-2-0.2
			c-0.6,0.5-0.7,1.4-0.2,2l134.1,155.9C291.1,207.8,291.5,207.9,291.9,207.9z"/>
		
			<linearGradient id="SVGID_12_" gradientUnits="userSpaceOnUse" x1="7261.1284" y1="134.4325" x2="7403.6572" y2="134.4325" gradientTransform="matrix(-1 0 0 1 7550 0)">
			<stop  offset="5.102040e-03" style="stop-color:#CBABDB"/>
			<stop  offset="0.3317" style="stop-color:#BBBBDC"/>
			<stop  offset="0.9711" style="stop-color:#90E6E0"/>
			<stop  offset="1" style="stop-color:#8EE8E0"/>
		</linearGradient>
		<path class="st11" d="M287.4,217c0.3,0,0.7-0.1,0.9-0.4c0.6-0.5,0.7-1.4,0.2-2L148.9,52.3c-0.5-0.6-1.4-0.7-2-0.2
			c-0.6,0.5-0.7,1.4-0.2,2l139.6,162.3C286.6,216.9,287,217,287.4,217z"/>
		
			<linearGradient id="SVGID_13_" gradientUnits="userSpaceOnUse" x1="7266.1909" y1="140.3396" x2="7413.1274" y2="140.3396" gradientTransform="matrix(-1 0 0 1 7550 0)">
			<stop  offset="5.102040e-03" style="stop-color:#CBABDB"/>
			<stop  offset="0.3317" style="stop-color:#BBBBDC"/>
			<stop  offset="0.9711" style="stop-color:#90E6E0"/>
			<stop  offset="1" style="stop-color:#8EE8E0"/>
		</linearGradient>
		<path class="st12" d="M282.4,225.5c0.3,0,0.7-0.1,0.9-0.4c0.6-0.5,0.7-1.4,0.2-2l-144-167.4c-0.5-0.6-1.4-0.7-2-0.2
			c-0.6,0.5-0.7,1.4-0.2,2l144,167.4C281.5,225.3,282,225.5,282.4,225.5z"/>
		
			<linearGradient id="SVGID_14_" gradientUnits="userSpaceOnUse" x1="7271.7388" y1="146.2511" x2="7422.1079" y2="146.2511" gradientTransform="matrix(-1 0 0 1 7550 0)">
			<stop  offset="5.102040e-03" style="stop-color:#CBABDB"/>
			<stop  offset="0.3317" style="stop-color:#BBBBDC"/>
			<stop  offset="0.9711" style="stop-color:#90E6E0"/>
			<stop  offset="1" style="stop-color:#8EE8E0"/>
		</linearGradient>
		<path class="st13" d="M276.8,233.4c0.3,0,0.7-0.1,0.9-0.4c0.6-0.5,0.7-1.4,0.2-2L130.4,59.6c-0.5-0.6-1.4-0.7-2-0.2
			c-0.6,0.5-0.7,1.4-0.2,2l147.5,171.4C276,233.2,276.4,233.4,276.8,233.4z"/>
		
			<linearGradient id="SVGID_15_" gradientUnits="userSpaceOnUse" x1="7277.7422" y1="152.1606" x2="7430.6465" y2="152.1606" gradientTransform="matrix(-1 0 0 1 7550 0)">
			<stop  offset="5.102040e-03" style="stop-color:#CBABDB"/>
			<stop  offset="0.3317" style="stop-color:#BBBBDC"/>
			<stop  offset="0.9711" style="stop-color:#90E6E0"/>
			<stop  offset="1" style="stop-color:#8EE8E0"/>
		</linearGradient>
		<path class="st14" d="M270.8,240.8c0.3,0,0.7-0.1,0.9-0.4c0.6-0.5,0.7-1.4,0.2-2L121.9,64c-0.5-0.6-1.4-0.7-2-0.2
			c-0.6,0.5-0.7,1.4-0.2,2l150,174.4C270,240.6,270.4,240.8,270.8,240.8z"/>
		
			<linearGradient id="SVGID_16_" gradientUnits="userSpaceOnUse" x1="7284.1807" y1="158.0727" x2="7438.7593" y2="158.0727" gradientTransform="matrix(-1 0 0 1 7550 0)">
			<stop  offset="5.102040e-03" style="stop-color:#CBABDB"/>
			<stop  offset="0.3317" style="stop-color:#BBBBDC"/>
			<stop  offset="0.9711" style="stop-color:#90E6E0"/>
			<stop  offset="1" style="stop-color:#8EE8E0"/>
		</linearGradient>
		<path class="st15" d="M264.4,247.7c0.3,0,0.7-0.1,0.9-0.4c0.6-0.5,0.7-1.4,0.2-2L113.8,69c-0.5-0.6-1.4-0.7-2-0.2
			c-0.6,0.5-0.7,1.4-0.2,2l151.7,176.3C263.6,247.5,264,247.7,264.4,247.7z"/>
		
			<linearGradient id="SVGID_17_" gradientUnits="userSpaceOnUse" x1="7291.0352" y1="163.9659" x2="7446.4556" y2="163.9659" gradientTransform="matrix(-1 0 0 1 7550 0)">
			<stop  offset="5.102040e-03" style="stop-color:#CBABDB"/>
			<stop  offset="0.3317" style="stop-color:#BBBBDC"/>
			<stop  offset="0.9711" style="stop-color:#90E6E0"/>
			<stop  offset="1" style="stop-color:#8EE8E0"/>
		</linearGradient>
		<path class="st16" d="M257.5,254.1c0.3,0,0.7-0.1,0.9-0.4c0.6-0.5,0.7-1.4,0.2-2L106.1,74.4c-0.5-0.6-1.4-0.7-2-0.2
			c-0.6,0.5-0.7,1.4-0.2,2l152.5,177.3C256.7,253.9,257.1,254.1,257.5,254.1z"/>
		
			<linearGradient id="SVGID_18_" gradientUnits="userSpaceOnUse" x1="7298.2998" y1="169.8569" x2="7453.7549" y2="169.8569" gradientTransform="matrix(-1 0 0 1 7550 0)">
			<stop  offset="5.102040e-03" style="stop-color:#CBABDB"/>
			<stop  offset="0.3317" style="stop-color:#BBBBDC"/>
			<stop  offset="0.9711" style="stop-color:#90E6E0"/>
			<stop  offset="1" style="stop-color:#8EE8E0"/>
		</linearGradient>
		<path class="st17" d="M250.3,260c0.3,0,0.7-0.1,0.9-0.4c0.6-0.5,0.7-1.4,0.2-2L98.8,80.3c-0.5-0.6-1.4-0.7-2-0.2
			c-0.6,0.5-0.7,1.4-0.2,2l152.6,177.3C249.4,259.8,249.8,260,250.3,260z"/>
		
			<linearGradient id="SVGID_19_" gradientUnits="userSpaceOnUse" x1="7305.9678" y1="175.7574" x2="7460.6411" y2="175.7574" gradientTransform="matrix(-1 0 0 1 7550 0)">
			<stop  offset="5.102040e-03" style="stop-color:#CBABDB"/>
			<stop  offset="0.3317" style="stop-color:#BBBBDC"/>
			<stop  offset="0.9711" style="stop-color:#90E6E0"/>
			<stop  offset="1" style="stop-color:#8EE8E0"/>
		</linearGradient>
		<path class="st18" d="M242.6,265.4c0.3,0,0.7-0.1,0.9-0.4c0.6-0.5,0.7-1.4,0.2-2L91.9,86.6c-0.5-0.6-1.4-0.7-2-0.2
			c-0.6,0.5-0.7,1.4-0.2,2l151.8,176.4C241.8,265.2,242.2,265.4,242.6,265.4z"/>
		
			<linearGradient id="SVGID_20_" gradientUnits="userSpaceOnUse" x1="7314.0591" y1="181.6651" x2="7467.1069" y2="181.6651" gradientTransform="matrix(-1 0 0 1 7550 0)">
			<stop  offset="5.102040e-03" style="stop-color:#CBABDB"/>
			<stop  offset="0.3317" style="stop-color:#BBBBDC"/>
			<stop  offset="0.9711" style="stop-color:#90E6E0"/>
			<stop  offset="1" style="stop-color:#8EE8E0"/>
		</linearGradient>
		<path class="st19" d="M234.5,270.4c0.3,0,0.7-0.1,0.9-0.4c0.6-0.5,0.7-1.4,0.2-2L85.4,93.5c-0.5-0.6-1.4-0.7-2-0.2
			c-0.6,0.5-0.7,1.4-0.2,2l150.2,174.5C233.7,270.2,234.1,270.4,234.5,270.4z"/>
		
			<linearGradient id="SVGID_21_" gradientUnits="userSpaceOnUse" x1="7322.5605" y1="187.5769" x2="7473.1333" y2="187.5769" gradientTransform="matrix(-1 0 0 1 7550 0)">
			<stop  offset="5.102040e-03" style="stop-color:#CBABDB"/>
			<stop  offset="0.3317" style="stop-color:#BBBBDC"/>
			<stop  offset="0.9711" style="stop-color:#90E6E0"/>
			<stop  offset="1" style="stop-color:#8EE8E0"/>
		</linearGradient>
		<path class="st20" d="M226,274.9c0.3,0,0.7-0.1,0.9-0.4c0.6-0.5,0.7-1.4,0.2-2L79.4,100.8c-0.5-0.6-1.4-0.7-2-0.2
			c-0.6,0.5-0.7,1.4-0.2,2l147.7,171.7C225.2,274.7,225.6,274.9,226,274.9z"/>
		
			<linearGradient id="SVGID_22_" gradientUnits="userSpaceOnUse" x1="7331.5005" y1="193.4854" x2="7478.7119" y2="193.4854" gradientTransform="matrix(-1 0 0 1 7550 0)">
			<stop  offset="5.102040e-03" style="stop-color:#CBABDB"/>
			<stop  offset="0.3317" style="stop-color:#BBBBDC"/>
			<stop  offset="0.9711" style="stop-color:#90E6E0"/>
			<stop  offset="1" style="stop-color:#8EE8E0"/>
		</linearGradient>
		<path class="st21" d="M217.1,278.8c0.3,0,0.7-0.1,0.9-0.4c0.6-0.5,0.7-1.4,0.2-2L73.8,108.7c-0.5-0.6-1.4-0.7-2-0.2
			c-0.6,0.5-0.7,1.4-0.2,2L216,278.3C216.2,278.6,216.6,278.8,217.1,278.8z"/>
		
			<linearGradient id="SVGID_23_" gradientUnits="userSpaceOnUse" x1="7340.9521" y1="199.4022" x2="7483.8066" y2="199.4022" gradientTransform="matrix(-1 0 0 1 7550 0)">
			<stop  offset="5.102040e-03" style="stop-color:#CBABDB"/>
			<stop  offset="0.3317" style="stop-color:#BBBBDC"/>
			<stop  offset="0.9711" style="stop-color:#90E6E0"/>
			<stop  offset="1" style="stop-color:#8EE8E0"/>
		</linearGradient>
		<path class="st22" d="M207.6,282.2c0.3,0,0.7-0.1,0.9-0.4c0.6-0.5,0.7-1.4,0.2-2l-140-162.7c-0.5-0.6-1.4-0.7-2-0.2
			c-0.6,0.5-0.7,1.4-0.2,2l140,162.7C206.8,282,207.2,282.2,207.6,282.2z"/>
		
			<linearGradient id="SVGID_24_" gradientUnits="userSpaceOnUse" x1="7350.9214" y1="205.3071" x2="7488.3848" y2="205.3071" gradientTransform="matrix(-1 0 0 1 7550 0)">
			<stop  offset="5.102040e-03" style="stop-color:#CBABDB"/>
			<stop  offset="0.3317" style="stop-color:#BBBBDC"/>
			<stop  offset="0.9711" style="stop-color:#90E6E0"/>
			<stop  offset="1" style="stop-color:#8EE8E0"/>
		</linearGradient>
		<path class="st23" d="M197.6,285c0.3,0,0.7-0.1,0.9-0.4c0.6-0.5,0.7-1.4,0.2-2L64.2,126.2c-0.5-0.6-1.4-0.7-2-0.2
			c-0.6,0.5-0.7,1.4-0.2,2l134.6,156.4C196.8,284.8,197.2,285,197.6,285z"/>
		
			<linearGradient id="SVGID_25_" gradientUnits="userSpaceOnUse" x1="7361.4956" y1="211.2184" x2="7492.3389" y2="211.2184" gradientTransform="matrix(-1 0 0 1 7550 0)">
			<stop  offset="5.102040e-03" style="stop-color:#CBABDB"/>
			<stop  offset="0.3317" style="stop-color:#BBBBDC"/>
			<stop  offset="0.9711" style="stop-color:#90E6E0"/>
			<stop  offset="1" style="stop-color:#8EE8E0"/>
		</linearGradient>
		<path class="st24" d="M187.1,287c0.3,0,0.7-0.1,0.9-0.4c0.6-0.5,0.7-1.4,0.2-2L60.2,135.9c-0.5-0.6-1.4-0.7-2-0.2
			c-0.6,0.5-0.7,1.4-0.2,2L186,286.5C186.2,286.9,186.6,287,187.1,287z"/>
		
			<linearGradient id="SVGID_26_" gradientUnits="userSpaceOnUse" x1="7372.7627" y1="217.1158" x2="7495.6162" y2="217.1158" gradientTransform="matrix(-1 0 0 1 7550 0)">
			<stop  offset="5.102040e-03" style="stop-color:#CBABDB"/>
			<stop  offset="0.3317" style="stop-color:#BBBBDC"/>
			<stop  offset="0.9711" style="stop-color:#90E6E0"/>
			<stop  offset="1" style="stop-color:#8EE8E0"/>
		</linearGradient>
		<path class="st25" d="M175.8,288.3c0.3,0,0.7-0.1,0.9-0.4c0.6-0.5,0.7-1.4,0.2-2l-120-139.4c-0.5-0.6-1.4-0.7-2-0.2
			c-0.6,0.5-0.7,1.4-0.2,2l120,139.4C175,288.1,175.4,288.3,175.8,288.3z"/>
		
			<linearGradient id="SVGID_27_" gradientUnits="userSpaceOnUse" x1="7384.8789" y1="223.0284" x2="7498.0518" y2="223.0284" gradientTransform="matrix(-1 0 0 1 7550 0)">
			<stop  offset="5.102040e-03" style="stop-color:#CBABDB"/>
			<stop  offset="0.3317" style="stop-color:#BBBBDC"/>
			<stop  offset="0.9711" style="stop-color:#90E6E0"/>
			<stop  offset="1" style="stop-color:#8EE8E0"/>
		</linearGradient>
		<path class="st26" d="M163.7,288.6c0.3,0,0.7-0.1,0.9-0.4c0.6-0.5,0.7-1.4,0.2-2L54.5,158c-0.5-0.6-1.4-0.7-2-0.2
			c-0.6,0.5-0.7,1.4-0.2,2l110.3,128.2C162.9,288.4,163.3,288.6,163.7,288.6z"/>
		
			<linearGradient id="SVGID_28_" gradientUnits="userSpaceOnUse" x1="7398.1055" y1="228.9151" x2="7499.395" y2="228.9151" gradientTransform="matrix(-1 0 0 1 7550 0)">
			<stop  offset="5.102040e-03" style="stop-color:#CBABDB"/>
			<stop  offset="0.3317" style="stop-color:#BBBBDC"/>
			<stop  offset="0.9711" style="stop-color:#90E6E0"/>
			<stop  offset="1" style="stop-color:#8EE8E0"/>
		</linearGradient>
		<path class="st27" d="M150.4,287.5c0.3,0,0.7-0.1,0.9-0.4c0.6-0.5,0.7-1.4,0.2-2L53.2,170.8c-0.5-0.6-1.4-0.7-2-0.2
			c-0.6,0.5-0.7,1.4-0.2,2L149.3,287C149.6,287.4,150,287.5,150.4,287.5z"/>
		
			<linearGradient id="SVGID_29_" gradientUnits="userSpaceOnUse" x1="7412.8892" y1="234.8089" x2="7499.1855" y2="234.8089" gradientTransform="matrix(-1 0 0 1 7550 0)">
			<stop  offset="5.102040e-03" style="stop-color:#CBABDB"/>
			<stop  offset="0.3317" style="stop-color:#BBBBDC"/>
			<stop  offset="0.9711" style="stop-color:#90E6E0"/>
			<stop  offset="1" style="stop-color:#8EE8E0"/>
		</linearGradient>
		<path class="st28" d="M135.7,284.7c0.3,0,0.7-0.1,0.9-0.4c0.6-0.5,0.7-1.4,0.2-2l-83.4-96.9c-0.5-0.6-1.4-0.7-2-0.2
			c-0.6,0.5-0.7,1.4-0.2,2l83.4,96.9C134.9,284.6,135.3,284.7,135.7,284.7z"/>
		
			<linearGradient id="SVGID_30_" gradientUnits="userSpaceOnUse" x1="7430.3052" y1="240.7065" x2="7496.3145" y2="240.7065" gradientTransform="matrix(-1 0 0 1 7550 0)">
			<stop  offset="5.102040e-03" style="stop-color:#CBABDB"/>
			<stop  offset="0.3317" style="stop-color:#BBBBDC"/>
			<stop  offset="0.9711" style="stop-color:#90E6E0"/>
			<stop  offset="1" style="stop-color:#8EE8E0"/>
		</linearGradient>
		<path class="st29" d="M118.2,278.8c0.3,0,0.7-0.1,0.9-0.4c0.6-0.5,0.7-1.4,0.2-2l-63.1-73.4c-0.5-0.6-1.4-0.7-2-0.2
			c-0.6,0.5-0.7,1.4-0.2,2l63.1,73.4C117.4,278.7,117.8,278.8,118.2,278.8z"/>
		
			<linearGradient id="SVGID_31_" gradientUnits="userSpaceOnUse" x1="7455.3047" y1="246.6995" x2="7485.7183" y2="246.6995" gradientTransform="matrix(-1 0 0 1 7550 0)">
			<stop  offset="5.102040e-03" style="stop-color:#CBABDB"/>
			<stop  offset="0.3317" style="stop-color:#BBBBDC"/>
			<stop  offset="0.9711" style="stop-color:#90E6E0"/>
			<stop  offset="1" style="stop-color:#8EE8E0"/>
		</linearGradient>
		<path class="st30" d="M93.2,264.1c0.3,0,0.7-0.1,0.9-0.4c0.6-0.5,0.7-1.4,0.2-2l-27.5-32c-0.5-0.6-1.4-0.7-2-0.2
			c-0.6,0.5-0.7,1.4-0.2,2l27.5,32C92.4,264,92.8,264.1,93.2,264.1z"/>
	</g>
	
		<linearGradient id="SVGID_32_" gradientUnits="userSpaceOnUse" x1="7493.6479" y1="148.5688" x2="7540.0122" y2="148.5688" gradientTransform="matrix(-1 0 0 1 7550 0)">
		<stop  offset="5.102040e-03" style="stop-color:#CBABDB"/>
		<stop  offset="0.3317" style="stop-color:#BBBBDC"/>
		<stop  offset="0.9711" style="stop-color:#90E6E0"/>
		<stop  offset="1" style="stop-color:#8EE8E0"/>
	</linearGradient>
	<path class="st31" d="M26,219.8c-1-1.7-2-3.4-2.9-5.1c-0.4-0.7-0.1-1.6,0.6-2c0.7-0.4,1.6-0.1,2,0.6c0.9,1.7,1.8,3.4,2.8,5
		c0.4,0.7,0.2,1.6-0.5,2c-0.2,0.1-0.5,0.2-0.7,0.2C26.7,220.5,26.3,220.2,26,219.8z M19,206.1c-0.5-1.2-1-2.4-1.5-3.7
		c-0.2-0.6-0.5-1.2-0.7-1.8c-0.3-0.8,0.1-1.6,0.9-1.9c0.7-0.3,1.6,0.1,1.9,0.9c0.2,0.6,0.4,1.2,0.7,1.8c0.5,1.2,0.9,2.4,1.4,3.6
		c0.3,0.7,0,1.6-0.8,1.9c-0.2,0.1-0.4,0.1-0.6,0.1C19.8,206.9,19.3,206.6,19,206.1z M13.9,191.5c-0.5-1.9-1-3.8-1.4-5.7
		c-0.2-0.8,0.3-1.6,1.1-1.7c0.8-0.2,1.6,0.3,1.7,1.1c0.4,1.9,0.9,3.7,1.4,5.6c0.2,0.8-0.2,1.6-1,1.8c-0.1,0-0.3,0.1-0.4,0.1
		C14.7,192.6,14.1,192.2,13.9,191.5z M10.9,176.4c-0.3-1.9-0.5-3.9-0.6-5.8c-0.1-0.8,0.5-1.5,1.3-1.6c0.8-0.1,1.5,0.5,1.6,1.3
		c0.1,1.9,0.3,3.8,0.6,5.7c0.1,0.8-0.5,1.5-1.2,1.6c-0.1,0-0.1,0-0.2,0C11.6,177.7,11,177.1,10.9,176.4z M11.4,162.5
		c-0.8,0-1.4-0.7-1.4-1.5c0-2,0.1-3.9,0.2-5.9c0.1-0.8,0.7-1.4,1.5-1.4c0.8,0.1,1.4,0.7,1.4,1.5c-0.1,1.9-0.2,3.8-0.2,5.7
		C12.9,161.9,12.2,162.5,11.4,162.5L11.4,162.5z M12.5,147.3c-0.8-0.1-1.3-0.9-1.2-1.7c0.3-1.9,0.7-3.9,1.1-5.8
		c0.2-0.8,0.9-1.3,1.7-1.1c0.8,0.2,1.3,0.9,1.1,1.7c-0.4,1.8-0.8,3.7-1.1,5.6c-0.1,0.7-0.7,1.2-1.4,1.2
		C12.6,147.4,12.6,147.4,12.5,147.3z M15.8,132.5c-0.8-0.2-1.2-1.1-0.9-1.8l0.2-0.6c0.5-1.7,1.1-3.3,1.8-5c0.3-0.7,1.1-1.1,1.9-0.8
		c0.7,0.3,1.1,1.1,0.8,1.9c-0.6,1.6-1.2,3.2-1.7,4.8l-0.2,0.6c-0.2,0.6-0.8,1-1.4,1C16,132.6,15.9,132.6,15.8,132.5z M21.3,118.4
		c-0.7-0.4-1-1.2-0.6-1.9c0.9-1.7,1.8-3.5,2.8-5.2c0.4-0.7,1.3-0.9,2-0.5c0.7,0.4,0.9,1.3,0.5,2c-1,1.6-1.9,3.3-2.7,5
		c-0.3,0.5-0.8,0.8-1.3,0.8C21.7,118.5,21.5,118.5,21.3,118.4z M29,105.2c-0.7-0.5-0.8-1.4-0.3-2c1.1-1.6,2.3-3.2,3.5-4.7
		c0.5-0.6,1.4-0.7,2-0.2c0.6,0.5,0.7,1.4,0.2,2c-1.2,1.5-2.3,3-3.4,4.6c-0.3,0.4-0.7,0.6-1.2,0.6C29.5,105.5,29.2,105.4,29,105.2z
		 M38.4,93.3c-0.6-0.5-0.6-1.5-0.1-2c1.3-1.4,2.7-2.8,4.1-4.2c0.6-0.6,1.5-0.6,2,0c0.6,0.6,0.6,1.5,0,2c-1.4,1.3-2.7,2.7-4,4.1
		c-0.3,0.3-0.7,0.5-1.1,0.5C39,93.7,38.7,93.6,38.4,93.3z M49.3,82.7c-0.5-0.6-0.4-1.5,0.2-2c1.5-1.3,3-2.5,4.6-3.7
		c0.6-0.5,1.5-0.4,2,0.3c0.5,0.6,0.4,1.5-0.3,2c-1.5,1.2-3,2.4-4.5,3.6c-0.3,0.2-0.6,0.3-0.9,0.3C50,83.2,49.6,83,49.3,82.7z"/>
	
		<linearGradient id="SVGID_33_" gradientUnits="userSpaceOnUse" x1="7210.0122" y1="229.1204" x2="7242.7358" y2="229.1204" gradientTransform="matrix(-1 0 0 1 7550 0)">
		<stop  offset="5.102040e-03" style="stop-color:#CBABDB"/>
		<stop  offset="0.3317" style="stop-color:#BBBBDC"/>
		<stop  offset="0.9711" style="stop-color:#90E6E0"/>
		<stop  offset="1" style="stop-color:#8EE8E0"/>
	</linearGradient>
	<path class="st32" d="M307.5,265.5c-0.5-0.7-0.3-1.6,0.3-2c1.5-1.1,3-2.3,4.5-3.5c0.6-0.5,1.5-0.4,2,0.2c0.5,0.6,0.4,1.5-0.2,2
		c-1.5,1.3-3.1,2.5-4.7,3.6c-0.3,0.2-0.5,0.3-0.8,0.3C308.3,266.1,307.8,265.9,307.5,265.5z M319.1,255.7c-0.6-0.5-0.6-1.5-0.1-2
		c1.3-1.4,2.5-2.9,3.6-4.4c0.5-0.6,1.4-0.8,2-0.3c0.6,0.5,0.8,1.4,0.3,2c-1.2,1.6-2.5,3.1-3.8,4.6c-0.3,0.3-0.7,0.5-1.1,0.5
		C319.7,256,319.4,255.9,319.1,255.7z M328.2,243.5c-0.7-0.4-0.9-1.3-0.5-2c0.9-1.6,1.8-3.3,2.6-5c0.3-0.7,1.2-1,1.9-0.7
		c0.7,0.3,1,1.2,0.7,1.9c-0.8,1.8-1.7,3.6-2.7,5.3c-0.3,0.5-0.8,0.7-1.3,0.7C328.7,243.7,328.4,243.7,328.2,243.5z M334.5,229.7
		c-0.8-0.2-1.2-1.1-0.9-1.8c0.6-1.8,1.1-3.6,1.5-5.5c0.2-0.8,1-1.3,1.7-1.1c0.8,0.2,1.3,1,1.1,1.7c-0.5,1.9-1,3.8-1.6,5.7
		c-0.2,0.6-0.8,1-1.4,1C334.8,229.8,334.7,229.8,334.5,229.7z M337.9,214.9c-0.8-0.1-1.4-0.8-1.3-1.6c0.2-1.9,0.4-3.8,0.4-5.7
		c0-0.8,0.7-1.4,1.5-1.4c0.8,0,1.4,0.7,1.4,1.5c-0.1,2-0.2,3.9-0.5,5.9c-0.1,0.7-0.7,1.3-1.4,1.3C338,214.9,338,214.9,337.9,214.9z
		 M337,198.4c-0.1-1.5-0.2-3.1-0.4-4.7c-0.1-0.8,0.5-1.5,1.3-1.6c0.8-0.1,1.5,0.5,1.6,1.3c0.2,1.6,0.3,3.2,0.4,4.8
		c0.1,0.8-0.6,1.5-1.4,1.5c0,0-0.1,0-0.1,0C337.7,199.7,337,199.2,337,198.4z"/>
	
		<linearGradient id="SVGID_34_" gradientUnits="userSpaceOnUse" x1="7225.8721" y1="162.4169" x2="7524.0952" y2="162.4169" gradientTransform="matrix(-1 0 0 1 7550 0)">
		<stop  offset="0" style="stop-color:#8CD8F0"/>
		<stop  offset="0.3992" style="stop-color:#9FA7EF"/>
		<stop  offset="0.7974" style="stop-color:#B07CEE"/>
		<stop  offset="1" style="stop-color:#B66CEE"/>
	</linearGradient>
	<path class="st33" d="M295.6,135.1c44,54.8,31.9,103.8-1.8,121.8c-36.8,19.6-73.1-3.5-99.7-6.8c-42-5.2-86.7,12.8-125.5-9.3
		c-32-18.2-52-64.3-38.6-105.8C54.1,61.1,196.8,12.2,295.6,135.1z"/>
	<g>
		
			<linearGradient id="SVGID_35_" gradientUnits="userSpaceOnUse" x1="7502.959" y1="240.7571" x2="7515.7363" y2="240.7571" gradientTransform="matrix(-1 0 0 1 7550 0)">
			<stop  offset="5.102040e-03" style="stop-color:#CBABDB"/>
			<stop  offset="0.3317" style="stop-color:#BBBBDC"/>
			<stop  offset="0.9711" style="stop-color:#90E6E0"/>
			<stop  offset="1" style="stop-color:#8EE8E0"/>
		</linearGradient>
		<path class="st34" d="M35.7,247.1c0.4,0,0.7-0.1,1-0.4l9.9-9.9c0.6-0.6,0.6-1.5,0-2c-0.6-0.6-1.5-0.6-2,0l-9.9,9.9
			c-0.6,0.6-0.6,1.5,0,2C35,247,35.3,247.1,35.7,247.1z"/>
		
			<linearGradient id="SVGID_36_" gradientUnits="userSpaceOnUse" x1="7503.0532" y1="240.6561" x2="7515.8311" y2="240.6561" gradientTransform="matrix(-1 0 0 1 7550 0)">
			<stop  offset="5.102040e-03" style="stop-color:#CBABDB"/>
			<stop  offset="0.3317" style="stop-color:#BBBBDC"/>
			<stop  offset="0.9711" style="stop-color:#90E6E0"/>
			<stop  offset="1" style="stop-color:#8EE8E0"/>
		</linearGradient>
		<path class="st35" d="M45.5,247c0.4,0,0.7-0.1,1-0.4c0.6-0.6,0.6-1.5,0-2l-9.9-9.9c-0.6-0.6-1.5-0.6-2,0c-0.6,0.6-0.6,1.5,0,2
			l9.9,9.9C44.8,246.9,45.1,247,45.5,247z"/>
	</g>
	<g>
		
			<linearGradient id="SVGID_37_" gradientUnits="userSpaceOnUse" x1="7211.7441" y1="170.2684" x2="7222.7314" y2="170.2684" gradientTransform="matrix(-1 0 0 1 7550 0)">
			<stop  offset="5.102040e-03" style="stop-color:#CBABDB"/>
			<stop  offset="0.3317" style="stop-color:#BBBBDC"/>
			<stop  offset="0.9711" style="stop-color:#90E6E0"/>
			<stop  offset="1" style="stop-color:#8EE8E0"/>
		</linearGradient>
		<path class="st36" d="M328.7,175.8c0.4,0,0.7-0.1,1-0.4l8.1-8.1c0.6-0.6,0.6-1.5,0-2c-0.6-0.6-1.5-0.6-2,0l-8.1,8.1
			c-0.6,0.6-0.6,1.5,0,2C328,175.6,328.3,175.8,328.7,175.8z"/>
		
			<linearGradient id="SVGID_38_" gradientUnits="userSpaceOnUse" x1="7211.8213" y1="170.1857" x2="7222.8086" y2="170.1857" gradientTransform="matrix(-1 0 0 1 7550 0)">
			<stop  offset="5.102040e-03" style="stop-color:#CBABDB"/>
			<stop  offset="0.3317" style="stop-color:#BBBBDC"/>
			<stop  offset="0.9711" style="stop-color:#90E6E0"/>
			<stop  offset="1" style="stop-color:#8EE8E0"/>
		</linearGradient>
		<path class="st37" d="M336.7,175.7c0.4,0,0.7-0.1,1-0.4c0.6-0.6,0.6-1.5,0-2l-8.1-8.1c-0.6-0.6-1.5-0.6-2,0c-0.6,0.6-0.6,1.5,0,2
			l8.1,8.1C336,175.5,336.4,175.7,336.7,175.7z"/>
	</g>
	
		<linearGradient id="SVGID_39_" gradientUnits="userSpaceOnUse" x1="7263.8213" y1="291.4972" x2="7261.8911" y2="269.4322" gradientTransform="matrix(-1 0 0 1 7550 0)">
		<stop  offset="5.102040e-03" style="stop-color:#CBABDB"/>
		<stop  offset="0.3317" style="stop-color:#BBBBDC"/>
		<stop  offset="0.9711" style="stop-color:#90E6E0"/>
		<stop  offset="1" style="stop-color:#8EE8E0"/>
	</linearGradient>
	<path class="st38" d="M285.9,290.9l-6.3-9.7c-0.3-0.5-0.3-1.1,0-1.6l6.3-9.7c0.3-0.4,0.7-0.7,1.2-0.7c0.5,0,0.9,0.2,1.2,0.7
		l6.3,9.7c0.3,0.5,0.3,1.1,0,1.6l-6.3,9.7c-0.3,0.4-0.7,0.7-1.2,0.7C286.7,291.6,286.2,291.3,285.9,290.9z M287.1,273.5l-4.5,7
		l4.5,7l4.5-7L287.1,273.5z"/>
	
		<linearGradient id="SVGID_40_" gradientUnits="userSpaceOnUse" x1="7473.8838" y1="67.2592" x2="7472.3833" y2="50.1074" gradientTransform="matrix(-1 0 0 1 7550 0)">
		<stop  offset="5.102040e-03" style="stop-color:#CBABDB"/>
		<stop  offset="0.3317" style="stop-color:#BBBBDC"/>
		<stop  offset="0.9711" style="stop-color:#90E6E0"/>
		<stop  offset="1" style="stop-color:#8EE8E0"/>
	</linearGradient>
	<path class="st39" d="M75.7,66.7L71,59.5c-0.3-0.5-0.3-1.1,0-1.6l4.7-7.2c0.3-0.4,0.7-0.7,1.2-0.7s0.9,0.2,1.2,0.7l4.7,7.2
		c0.3,0.5,0.3,1.1,0,1.6l-4.7,7.2c-0.3,0.4-0.7,0.7-1.2,0.7S75.9,67.1,75.7,66.7z M76.9,54.2l-2.9,4.5l2.9,4.5l2.9-4.5L76.9,54.2z"
		/>
	<g>
		
			<linearGradient id="SVGID_41_" gradientUnits="userSpaceOnUse" x1="7233.3306" y1="168.3765" x2="7517.8999" y2="168.3765" gradientTransform="matrix(-1 0 0 1 7550 0)">
			<stop  offset="0" style="stop-color:#8EE8E0"/>
			<stop  offset="2.889259e-02" style="stop-color:#90E6E0"/>
			<stop  offset="0.6683" style="stop-color:#BBBBDC"/>
			<stop  offset="0.9949" style="stop-color:#CBABDB"/>
		</linearGradient>
		<path class="st40" d="M99.7,241.5c9.3,0,18.7-0.5,27.3-1.2c35-3,72.3-10.9,88.2-16.9c7-2.7,13.9-5.6,20.5-8.9
			c24.4-12,44.4-27,59.3-44.7c13.6-16.2,20.9-31.6,21.6-45.9c0.7-13.8-6.5-24.7-18.9-28.6c-0.8-0.2-1.6,0.2-1.8,0.9
			c-0.2,0.8,0.2,1.6,0.9,1.8c11,3.5,17.5,13.3,16.8,25.7c-0.7,13.6-7.7,28.5-20.9,44.2c-14.7,17.4-34.3,32.2-58.4,44
			c-6.5,3.2-13.3,6.1-20.3,8.7c-13.3,5-49.1,13.5-87.4,16.7c-43.6,3.7-73.7-1.1-84.8-13.5c-4.7-5.2-7.3-12.1-6.9-18.5
			c0-0.8-0.6-1.5-1.4-1.5c-0.8,0-1.5,0.6-1.5,1.4c-0.4,7.2,2.4,14.7,7.6,20.6C50.7,238,75.1,241.5,99.7,241.5z"/>
	</g>
</g>
</svg>
