<svg id="Layer_1" data-name="Layer 1" xmlns="http://www.w3.org/2000/svg" viewBox="0 0 144.46 91.6"><defs><style>.cls-1{fill:#9956e0;}.cls-2{fill:#270f48;}.cls-3{fill:#112340;}</style></defs><path class="cls-1" d="M124,52.66a30.67,30.67,0,0,0,16.57-4.84c.08-.31.18-.6.26-.91a30.2,30.2,0,0,0,.7-3.7,34.12,34.12,0,0,0,.34-4.77,35.35,35.35,0,0,0-35.31-35.3A35.72,35.72,0,0,0,98.9,4,30.8,30.8,0,0,0,124,52.66Z" transform="translate(-0.48 -0.05)"/><path class="cls-2" d="M133.15,66.12a38.43,38.43,0,0,0,11.23-21.19,37.56,37.56,0,0,0,.56-6.49A38.36,38.36,0,0,0,77.25,13.69l0,0-13.35,14A36.84,36.84,0,0,0,53.42,51.1a3.73,3.73,0,0,0,0,.47c0,.56,0,1.12,0,1.69,0,.74,0,1.48.06,2.21a38.11,38.11,0,0,0,1.81,9.61c.34,1.08.74,2.14,1.18,3.18a38.66,38.66,0,0,0,4.1,7.3q.91,1.27,1.92,2.46a38.4,38.4,0,0,0,5.82,5.58c.82.65,1.68,1.25,2.55,1.82a36.94,36.94,0,0,0,7.58,3.83,32.56,32.56,0,0,0,3.3,1.06,38,38,0,0,0,10.06,1.35c.65,0,1.28,0,1.91,0,.92,0,1.84-.13,2.75-.25a38.6,38.6,0,0,0,22.4-11.25L133,66.22ZM66.09,29.78l4.47-4.67a37.81,37.81,0,0,0-2.33,11.18L56.91,47.6A34.54,34.54,0,0,1,66.09,29.78ZM56.43,53.26c0-.27,0-.55,0-.83L68.23,40.65a37.32,37.32,0,0,0,1.8,9.6L57.69,62.59A34.62,34.62,0,0,1,56.43,53.26Zm2.35,12.63L71.22,53.44a38.11,38.11,0,0,0,4.1,7.3l-12.6,12.6A34.24,34.24,0,0,1,58.78,65.89ZM70.43,81.4a34.57,34.57,0,0,1-5.82-5.58L77.23,63.19a38.94,38.94,0,0,0,5.82,5.59Zm10.35,5.43A34.23,34.23,0,0,1,73,83.18L85.61,70.59a36.36,36.36,0,0,0,7.57,3.83ZM95,88.42c-.49,0-1,.08-1.48.1s-1.16,0-1.76,0a33.83,33.83,0,0,1-7.51-.82L96.48,75.49a38.28,38.28,0,0,0,10.06,1.34ZM116.6,77.91a36.21,36.21,0,0,1-16.31,9.55l10.89-10.91a37.93,37.93,0,0,0,9.16-2.27ZM115,72.71a31.2,31.2,0,0,1-5.23.87,29.05,29.05,0,0,1-3.24.16A34.43,34.43,0,0,1,99,72.93,31.59,31.59,0,0,1,95.6,72a34.4,34.4,0,0,1-7.76-3.64c-.88-.55-1.76-1.15-2.59-1.78A35.36,35.36,0,0,1,79.43,61a29.66,29.66,0,0,1-1.89-2.49,34.45,34.45,0,0,1-3.94-7.45,30.35,30.35,0,0,1-1.09-3.3,35,35,0,0,1-1.26-9.32,7.68,7.68,0,0,1,0-.84,31.72,31.72,0,0,1,.43-4.8,35.3,35.3,0,0,1,70.15,5.64,34.12,34.12,0,0,1-.34,4.77,30.2,30.2,0,0,1-.7,3.7c-.08.31-.18.6-.26.91A35.37,35.37,0,0,1,115,72.71Z" transform="translate(-0.48 -0.05)"/><polygon class="cls-3" points="32.91 68.88 32.91 57.28 21.37 57.28 21.37 46.29 10.82 46.29 10.82 35.01 0 35.01 0 37.98 7.85 37.98 7.85 49.26 18.4 49.26 18.4 60.25 29.94 60.25 29.94 68.88 32.91 68.88"/></svg>