<?xml version="1.0" encoding="utf-8"?>
<!-- Generator: Adobe Illustrator 25.2.0, SVG Export Plug-In . SVG Version: 6.00 Build 0)  -->
<svg version="1.1" id="OBJECTS" xmlns="http://www.w3.org/2000/svg" xmlns:xlink="http://www.w3.org/1999/xlink" x="0px" y="0px"
	 viewBox="0 0 186.7 169" style="enable-background:new 0 0 186.7 169;" xml:space="preserve">
<style type="text/css">
	.st0{fill:none;stroke:#F797DE;stroke-miterlimit:10;}
	.st1{fill:none;stroke:#8DDFFF;stroke-width:0.75;stroke-linecap:round;stroke-linejoin:round;}
	.st2{fill:none;stroke:#8DDFFF;stroke-miterlimit:10;}
	.st3{fill:none;stroke:#C1C0FF;stroke-miterlimit:10;stroke-dasharray:4;}
	.st4{fill:none;stroke:#57A7FF;stroke-miterlimit:10;}
	.st5{fill:#9956E0;}
	.st6{fill:#270F48;}
</style>
<line class="st0" x1="10.7" y1="87.4" x2="10.7" y2="96.4"/>
<line class="st0" x1="6.2" y1="91.9" x2="15.2" y2="91.9"/>
<line class="st1" x1="67.2" y1="108.7" x2="67.2" y2="117.7"/>
<line class="st1" x1="62.7" y1="113.2" x2="71.7" y2="113.2"/>
<path class="st0" d="M123.4,41.8c0,3.6-2.9,6.5-6.5,6.5s-6.5-2.9-6.5-6.5s2.9-6.5,6.5-6.5l0,0C120.5,35.3,123.4,38.2,123.4,41.8z"/>
<path class="st2" d="M40.7,44.3c0,0,8.3-0.8,10.5,4.4s3,10.3,16.1,3.9"/>
<ellipse class="st3" cx="97.7" cy="82.8" rx="58" ry="56.7"/>
<path class="st4" d="M186,108.9c0,0,0.5-0.6,1.4-1.4"/>
<path class="st5" d="M152.4,112.5c5.9,0,11.6-1.7,16.6-4.8c0.1-0.3,0.2-0.6,0.3-0.9c0.3-1.2,0.5-2.5,0.7-3.7
	c0.2-1.6,0.3-3.2,0.3-4.8c0-19.5-15.8-35.3-35.3-35.3c-2.6,0-5.1,0.3-7.7,0.9c-9.9,13.9-6.6,33.1,7.2,43
	C139.7,110.5,145.9,112.5,152.4,112.5z"/>
<path class="st6" d="M161.5,125.9c5.9-5.7,9.8-13.1,11.2-21.2c0.4-2.1,0.6-4.3,0.6-6.5c0-21.2-17.1-38.4-38.3-38.4
	c-11.3,0-22.1,5-29.4,13.6l0,0l-13.3,14c-6.2,6.3-9.9,14.6-10.5,23.4c0,0.2,0,0.3,0,0.5c0,0.6,0,1.1,0,1.7c0,0.7,0,1.5,0.1,2.2
	c0.2,3.3,0.8,6.5,1.8,9.6c0.3,1.1,0.7,2.1,1.2,3.2c1.1,2.6,2.5,5,4.1,7.3c0.6,0.8,1.2,1.7,1.9,2.5c1.7,2.1,3.7,3.9,5.8,5.6
	c0.8,0.6,1.7,1.2,2.6,1.8c2.4,1.6,4.9,2.8,7.6,3.8c1.1,0.4,2.2,0.8,3.3,1.1c3.3,0.9,6.7,1.4,10.1,1.4c0.7,0,1.3,0,1.9,0
	c0.9,0,1.8-0.1,2.8-0.2c8.5-1.2,16.4-5.1,22.4-11.2l14.1-13.9L161.5,125.9z M94.4,89.6l4.5-4.7c-1.3,3.6-2.1,7.4-2.3,11.2
	l-11.3,11.3C86.5,100.7,89.7,94.5,94.4,89.6z M84.8,113.1c0-0.3,0-0.5,0-0.8l11.8-11.8c0.2,3.3,0.8,6.5,1.8,9.6L86,122.4
	C85.2,119.4,84.8,116.2,84.8,113.1z M87.1,125.7l12.4-12.5c1.1,2.6,2.5,5,4.1,7.3l-12.6,12.6C89.5,130.8,88.1,128.3,87.1,125.7z
	 M98.8,141.2c-2.2-1.6-4.1-3.5-5.8-5.6l12.6-12.6c1.7,2.1,3.7,3.9,5.8,5.6L98.8,141.2z M109.1,146.6c-2.7-0.9-5.4-2.1-7.8-3.6
	l12.6-12.6c2.4,1.6,4.9,2.9,7.6,3.8L109.1,146.6z M123.4,148.2c-0.5,0-1,0.1-1.5,0.1c-0.5,0-1.2,0-1.8,0c-2.5,0-5-0.3-7.5-0.8
	l12.2-12.2c3.3,0.9,6.7,1.3,10.1,1.3L123.4,148.2z M145,137.7c-4.5,4.6-10.1,7.9-16.3,9.6l10.9-10.9c3.1-0.4,6.2-1.1,9.2-2.3
	L145,137.7z M143.4,132.5c-1.7,0.4-3.5,0.7-5.2,0.9c-1.1,0.1-2.2,0.2-3.2,0.2c-2.5,0-5.1-0.3-7.5-0.8c-1.1-0.2-2.3-0.6-3.4-0.9
	c-2.7-0.9-5.3-2.1-7.8-3.6c-0.9-0.5-1.8-1.1-2.6-1.8c-2.1-1.6-4.1-3.5-5.8-5.6c-0.7-0.8-1.3-1.6-1.9-2.5c-1.6-2.3-2.9-4.8-3.9-7.4
	c-0.4-1.1-0.8-2.2-1.1-3.3c-0.8-3-1.3-6.2-1.3-9.3c0-0.3,0-0.6,0-0.8c0-1.6,0.2-3.2,0.4-4.8c3.1-19.2,21.2-32.3,40.5-29.2
	c17.1,2.8,29.7,17.5,29.7,34.9c0,1.6-0.1,3.2-0.3,4.8c-0.2,1.2-0.4,2.5-0.7,3.7c-0.1,0.3-0.2,0.6-0.3,0.9
	C165.5,119.9,155.7,129.4,143.4,132.5z"/>
</svg>
