<svg id="OBJECTS" xmlns="http://www.w3.org/2000/svg" xmlns:xlink="http://www.w3.org/1999/xlink" viewBox="0 0 469.44 414.11"><defs><style>.cls-1{fill:#f0ebff;}.cls-1,.cls-10,.cls-12,.cls-13,.cls-15,.cls-16,.cls-17,.cls-18,.cls-19,.cls-2,.cls-20,.cls-21,.cls-22,.cls-23,.cls-24,.cls-26,.cls-27,.cls-28,.cls-29,.cls-3,.cls-30,.cls-31,.cls-32,.cls-33,.cls-34,.cls-35,.cls-36,.cls-37,.cls-38,.cls-39,.cls-4,.cls-40,.cls-41,.cls-42,.cls-44,.cls-45,.cls-46,.cls-47,.cls-5,.cls-7,.cls-9{fill-rule:evenodd;}.cls-2{fill:#270f48;}.cls-3{fill:url(#linear-gradient);}.cls-4{fill:#f3a497;}.cls-5{fill:url(#linear-gradient-2);}.cls-46,.cls-6{fill:#ac4f40;}.cls-7{fill:url(#linear-gradient-3);}.cls-8{fill:#ef8267;}.cls-9{fill:url(#GradientFill_1);}.cls-10{fill:#3a0438;}.cls-11,.cls-13{fill:#844c44;}.cls-12{fill:#9e4f40;}.cls-14{fill:url(#GradientFill_2);}.cls-15{fill:#3e1047;}.cls-16{fill:url(#linear-gradient-4);}.cls-17{fill:#8c00ef;}.cls-18{fill:url(#linear-gradient-5);}.cls-19{fill:url(#GradientFill_2-2);}.cls-20{fill:url(#GradientFill_2-3);}.cls-21{fill:url(#linear-gradient-6);}.cls-22{fill:#fff;}.cls-23{fill:url(#linear-gradient-7);}.cls-24{fill:#f18945;}.cls-25,.cls-26{fill:#ed7054;}.cls-27{fill:url(#linear-gradient-8);}.cls-28{fill:url(#linear-gradient-9);}.cls-29{fill:url(#GradientFill_2-4);}.cls-30{fill:url(#linear-gradient-10);}.cls-31{fill:url(#linear-gradient-11);}.cls-32{fill:url(#linear-gradient-12);}.cls-33{fill:#ffecb8;}.cls-34{fill:#471e10;}.cls-35{fill:url(#linear-gradient-13);}.cls-36{fill:#b84f49;}.cls-37{fill:url(#linear-gradient-14);}.cls-38{fill:url(#linear-gradient-15);}.cls-39{fill:url(#GradientFill_2-5);}.cls-40{fill:url(#linear-gradient-16);}.cls-41{fill:url(#linear-gradient-17);}.cls-42{fill:url(#linear-gradient-18);}.cls-43{fill:#f5a244;}.cls-44{fill:url(#GradientFill_2-6);}.cls-45{fill:#fff8bb;}.cls-47{fill:#5b2a24;}</style><linearGradient id="linear-gradient" x1="386.18" y1="202.33" x2="385.2" y2="239.65" gradientUnits="userSpaceOnUse"><stop offset="0" stop-color="#fa98ce"/><stop offset="1" stop-color="#e249e1"/></linearGradient><linearGradient id="linear-gradient-2" x1="98.09" y1="227.86" x2="145.02" y2="227.86" gradientUnits="userSpaceOnUse"><stop offset="0" stop-color="#a2e6ff"/><stop offset="1" stop-color="#8100f0"/></linearGradient><linearGradient id="linear-gradient-3" x1="363.06" y1="377.71" x2="363.06" y2="289.18" gradientUnits="userSpaceOnUse"><stop offset="0" stop-color="#ffc4b0"/><stop offset="0.53" stop-color="#ffc2af"/><stop offset="0.72" stop-color="#ffbba9"/><stop offset="0.85" stop-color="#ffb0a0"/><stop offset="0.96" stop-color="#ff9f92"/><stop offset="1" stop-color="#ff978c"/></linearGradient><linearGradient id="GradientFill_1" x1="303.65" y1="400.5" x2="303.65" y2="316.88" gradientUnits="userSpaceOnUse"><stop offset="0" stop-color="#f3a497"/><stop offset="1" stop-color="#ed7054"/></linearGradient><linearGradient id="GradientFill_2" x1="164.13" y1="92.03" x2="164.13" y2="74.49" gradientUnits="userSpaceOnUse"><stop offset="0" stop-color="#3a0438"/><stop offset="1" stop-color="#2f0232"/></linearGradient><linearGradient id="linear-gradient-4" x1="240.56" y1="219.8" x2="240.56" y2="291.92" gradientUnits="userSpaceOnUse"><stop offset="0" stop-color="#e898ce"/><stop offset="1" stop-color="#6b00e5"/></linearGradient><linearGradient id="linear-gradient-5" x1="133.84" y1="215.89" x2="133.84" y2="313.58" xlink:href="#linear-gradient-2"/><linearGradient id="GradientFill_2-2" x1="152.28" y1="166.12" x2="152.28" y2="154.03" xlink:href="#GradientFill_2"/><linearGradient id="GradientFill_2-3" x1="129.72" y1="177.44" x2="129.72" y2="142.01" xlink:href="#GradientFill_2"/><linearGradient id="linear-gradient-6" x1="135.18" y1="186.32" x2="134.62" y2="228.59" gradientUnits="userSpaceOnUse"><stop offset="0" stop-color="#e85dce"/><stop offset="1" stop-color="#b638e5"/></linearGradient><linearGradient id="linear-gradient-7" x1="180.4" y1="197.33" x2="178.97" y2="267.77" gradientUnits="userSpaceOnUse"><stop offset="0" stop-color="#e85dce"/><stop offset="1" stop-color="#8d38e5"/></linearGradient><linearGradient id="linear-gradient-8" x1="303.65" y1="211.88" x2="303.65" y2="287.33" gradientUnits="userSpaceOnUse"><stop offset="0" stop-color="#a2daff"/><stop offset="1" stop-color="#8e33ea"/></linearGradient><linearGradient id="linear-gradient-9" x1="303.05" y1="223.11" x2="304.1" y2="241.32" xlink:href="#linear-gradient-6"/><linearGradient id="GradientFill_2-4" x1="303.15" y1="135.21" x2="303.15" y2="121.88" xlink:href="#GradientFill_2"/><linearGradient id="linear-gradient-10" x1="230.67" y1="187.44" x2="230.2" y2="227.83" xlink:href="#linear-gradient-6"/><linearGradient id="linear-gradient-11" x1="362.14" y1="217.17" x2="362.14" y2="275.4" gradientUnits="userSpaceOnUse"><stop offset="0" stop-color="#ff98ce"/><stop offset="0.24" stop-color="#f479d6"/><stop offset="0.57" stop-color="#e756de"/><stop offset="0.83" stop-color="#df40e3"/><stop offset="1" stop-color="#dc38e5"/></linearGradient><linearGradient id="linear-gradient-12" x1="361.98" y1="221.5" x2="358.66" y2="238.56" gradientUnits="userSpaceOnUse"><stop offset="0" stop-color="#38daff"/><stop offset="1" stop-color="#9348f0"/></linearGradient><linearGradient id="linear-gradient-13" x1="274.19" y1="232.58" x2="283.44" y2="232.58" xlink:href="#linear-gradient-3"/><linearGradient id="linear-gradient-14" x1="195.39" y1="186.29" x2="195.39" y2="225.59" gradientUnits="userSpaceOnUse"><stop offset="0" stop-color="#e898ce"/><stop offset="1" stop-color="#864ce0"/></linearGradient><linearGradient id="linear-gradient-15" x1="293.09" y1="189.58" x2="293.09" y2="222.51" gradientUnits="userSpaceOnUse"><stop offset="0" stop-color="#e898ce"/><stop offset="0.07" stop-color="#dd8fd0"/><stop offset="0.37" stop-color="#ac6ad9"/><stop offset="0.64" stop-color="#894fe0"/><stop offset="0.86" stop-color="#733ee4"/><stop offset="1" stop-color="#6b38e5"/></linearGradient><linearGradient id="GradientFill_2-5" x1="185.37" y1="130.18" x2="185.37" y2="118.15" xlink:href="#GradientFill_2"/><linearGradient id="linear-gradient-16" x1="251.52" y1="180.71" x2="251.52" y2="207.45" gradientUnits="userSpaceOnUse"><stop offset="0" stop-color="#a2daff"/><stop offset="1" stop-color="#8e54ea"/></linearGradient><linearGradient id="linear-gradient-17" x1="315.73" y1="200.4" x2="315.46" y2="233.61" xlink:href="#linear-gradient"/><linearGradient id="linear-gradient-18" x1="354.11" y1="200.37" x2="354.11" y2="260.78" xlink:href="#linear-gradient-16"/><linearGradient id="GradientFill_2-6" x1="108.81" y1="175.33" x2="108.81" y2="152.43" xlink:href="#GradientFill_2"/></defs><path class="cls-1" d="M90.74,413.5A75.68,75.68,0,0,1,15.28,338h0a75.68,75.68,0,0,1,75.45-75.46h0a32,32,0,0,0,31.9-31.9h0a32,32,0,0,0-31.91-31.91H86.94A33.26,33.26,0,0,1,53.77,165.6h0a33.27,33.27,0,0,1,33.17-33.17H98.59a13,13,0,0,0,12.91-12.91h0A13,13,0,0,0,98.59,106.6H90a8.94,8.94,0,0,1-8.92-8.91h0A8.94,8.94,0,0,1,90,88.78h57.53a14,14,0,0,0,14-14h0a14,14,0,0,0-14-14h-17.2a8.94,8.94,0,0,1-8.91-8.91h0A8.94,8.94,0,0,1,130.36,43H347.8a11.66,11.66,0,0,1,11.63,11.63h0A11.67,11.67,0,0,1,347.8,66.21H312.51a18.32,18.32,0,0,0-18.27,18.27h0a18.32,18.32,0,0,0,18.27,18.27H432.94a11.67,11.67,0,0,1,11.63,11.63h0A11.67,11.67,0,0,1,432.94,126H421.77a16.9,16.9,0,0,0-16.85,16.85h0a16.9,16.9,0,0,0,16.85,16.85H437A43.41,43.41,0,0,1,480.25,203h0A43.41,43.41,0,0,1,437,246.28h-5c-2.63,0-41.63,17.86-41.63,41.63h0A41.76,41.76,0,0,0,432,329.55h10.73a42.09,42.09,0,0,1,42,42h0a42.1,42.1,0,0,1-42,42ZM377.56,66.21a11.63,11.63,0,1,0-11.63-11.63,11.63,11.63,0,0,0,11.63,11.63ZM65,106.61a8.92,8.92,0,1,0-8.92-8.92A8.91,8.91,0,0,0,65,106.61Z" transform="translate(-15.28 -42.95)"/><path class="cls-2" d="M128.89,291.34c-.43,9.39-1.62,81.32-2.89,99.53.15,1.51-1.33,4.51-1.33,5.59,0,1.48-3.79,12.88-8.46,11.85l.34-1.39s3.88.83,4.92-4.73c.63-3.38-1.56-6.83-1.48-8.44-1.17-13-9-101.74-8.37-131.58h44.43c.67,30-7.26,119.27-8.38,131.73.09,1.58-2.08,3.58-1.46,6.87,1,5.56,4.89,6.15,4.89,6.15l.34,1.39c-4.67,1-8.25-10.16-8.25-11.64,0-1.1-1.68-4.44-1.52-5.92-1.27-18.39-2.45-90-2.88-99.41C138.16,277.54,129.52,277.54,128.89,291.34Z" transform="translate(-15.28 -42.95)"/><path class="cls-3" d="M381.35,185.35c6.64,3.12,15.47,18.41,16.72,30.69,1.05,10.3-4.12,17.08-11.72,26.48C373.83,258,367.34,193.84,381.35,185.35Z" transform="translate(-15.28 -42.95)"/><path class="cls-4" d="M322.77,167.67a4.77,4.77,0,0,1,3.48-1.08c2.05.24,5.56,2.6,4,7.75S322.77,167.67,322.77,167.67Z" transform="translate(-15.28 -42.95)"/><path class="cls-4" d="M165.43,164.25s-.58-2-3.56-1.58-6,4.39-4.27,7.43S166.07,169.34,165.43,164.25Z" transform="translate(-15.28 -42.95)"/><path class="cls-5" d="M114.63,196.41C106,209.29,85,239.58,109.87,257.89c9.15,6.73,36.06-12.22,35.12-16.43S114.63,196.41,114.63,196.41Z" transform="translate(-15.28 -42.95)"/><path class="cls-6" d="M112.75,100.79h15.39a7.21,7.21,0,0,1,7.21,7.21v17a7.2,7.2,0,0,1-7.2,7.2h-15.4a7.21,7.21,0,0,1-7.21-7.21V108A7.21,7.21,0,0,1,112.75,100.79Z"/><path class="cls-7" d="M358.13,291.83c-.52,11.4-1.88,94.14-3.1,115l-3.93,2.54-.91-4.1c-2-22.64-9.87-115.23-9.26-142.44h44.25c.61,27.21-4.86,119.63-6.86,142.26l-2.95,4.08-3.18-3.67c-1.22-20.8-3.79-104.57-4.2-113.62C367.36,278.09,358.65,280.44,358.13,291.83Z" transform="translate(-15.28 -42.95)"/><path class="cls-2" d="M348.72,252.13,340,261.39s-.43,26.17.65,27.86,17.74.91,18.22.42.91-5.57,3.48-6.26,3.95,2.85,4.44,5.78a1.26,1.26,0,0,0,1.31.77c1.08,0,16.57-.49,17.71-1.85s2.61-25.05.56-30.06S348.72,252.13,348.72,252.13Z" transform="translate(-15.28 -42.95)"/><rect class="cls-8" x="340.24" y="126.09" width="15.08" height="17.77"/><path class="cls-9" d="M298,298.94c-1.24,25.37-3.25,65.22-4.27,107.19l-7.7-1.25c-1.72-17.89-8.59-111-7.85-142h51c.74,30.94-6.37,125.1-8.09,143l-7.64-.21c-.78-41.72-2.84-81.39-4.09-106.76C308.68,285.62,298.62,285.62,298,298.94Z" transform="translate(-15.28 -42.95)"/><path class="cls-10" d="M291.44,256.81l-15,10.84s.69,42.52,2.15,62.52c0,0-.06,1.19,1.39,1.34s14.89.3,16.71,0c0,0,.91-.12,1.15-2.18s1.33-29.35,2.3-32,5.58-1.94,6.31,6.79,2,24.25,2.24,25.23.55,2.6,2.61,2.84,13.58.43,15.34-.84S328.4,319.14,329,314s2.76-34.58,1.44-46.39S291.44,256.81,291.44,256.81Z" transform="translate(-15.28 -42.95)"/><path class="cls-2" d="M235.71,302.72c-.42,8.67-1.21,49.3-2.16,74.09-.13,3.51-1.06,12.4-.74,15.35.19,1.63-2.29,1.28-4.08,1.39s-2.19-1-2.19-1c-1.67-17.44-8.9-94.74-8.25-121.52h44.84c.68,28.13-7.33,112-8.46,123.69a53.85,53.85,0,0,0,1.05,6.48c1,5.22,2.41,5.75,2.41,5.75l.35,1.3c-4.72,1-9.58-9.86-9.58-11.25,0-1-.44-3.85-.29-5.23-1.28-17.28-2.47-80.27-2.91-89.06C245.07,289.76,236.24,291.83,235.71,302.72Z" transform="translate(-15.28 -42.95)"/><path class="cls-4" d="M248.58,392.09c-.17,1.47-.43,4-.43,5,0,2.92-1.12,7.76,0,9.09,2.44,2.89,8.48,1.41,10.33,2.13l-.35-1.3s-1.36-.53-2.4-5.75a50.43,50.43,0,0,1-1.07-6.62l.2-2v-.05a1,1,0,0,1-1.19.33,7.72,7.72,0,0,0-4-.2C248.7,392.93,248.57,392.4,248.58,392.09Z" transform="translate(-15.28 -42.95)"/><rect class="cls-11" x="151.01" y="82.06" width="30.48" height="37.98" rx="15.24"/><rect class="cls-11" x="157.82" y="108.93" width="16.87" height="16.11"/><path class="cls-12" d="M167,150.19a4.6,4.6,0,1,0-4.6-4.59A4.6,4.6,0,0,0,167,150.19Z" transform="translate(-15.28 -42.95)"/><path class="cls-13" d="M196.08,150.19a4.6,4.6,0,1,0-4.59-4.59A4.6,4.6,0,0,0,196.08,150.19Z" transform="translate(-15.28 -42.95)"/><path class="cls-13" d="M113,221.33c-7.39-1.48-6.63,8-4.38,8.35a1.22,1.22,0,0,1,.73-1c.66-.22,3-.19,3.91-.72s3.55-4.92,1.66-6.18A17,17,0,0,0,113,221.33Z" transform="translate(-15.28 -42.95)"/><rect class="cls-14" x="147.35" y="76.26" width="33.56" height="41.35" rx="16.78"/><path class="cls-15" d="M176.05,303.06c-1.2,24.46-.44,70.19-3.53,105.51l-9.35-.44c-1.66-17.25-6.94-110-6.22-139.8h49.17c.72,29.83-4.57,122.55-6.22,139.8l-9.36.44c-3.09-35.32-2.33-81.05-3.53-105.51-.29-6-2.89-9.56-5.48-9.81C178.94,293.5,176.35,297.06,176.05,303.06Z" transform="translate(-15.28 -42.95)"/><path class="cls-4" d="M232.82,392.09c.16,1.47.42,4,.42,5,0,2.89,1.12,9.36,0,10.69-2.44,2.91-8.45-.21-10.32.53l.34-1.3s1.36-.53,2.41-5.75a50,50,0,0,0,1.06-6.62l-.19-2v-.05a1,1,0,0,0,1.19.33,7.74,7.74,0,0,1,4-.2C232.7,392.93,232.82,392.4,232.82,392.09Z" transform="translate(-15.28 -42.95)"/><path class="cls-16" d="M264.72,270.58s2.37-6.46,1.18-19-3.54-60-3-70.44c-6.77-5.25-37.89-5.25-44.66,0,.53,10.42-1.83,57.91-3,70.44s1.19,19,1.19,19C220.44,282.81,260.68,282.81,264.72,270.58Z" transform="translate(-15.28 -42.95)"/><path class="cls-17" d="M264.86,236.7c-.11-1.74-.21-3.55-.31-5.42l-21.81-4.58-25.39-10.85c-.15,3.27-.31,6.55-.47,9.74,12.78,7.65,36.86,11.8,47.87,11.11Z" transform="translate(-15.28 -42.95)"/><path class="cls-4" d="M240.46,135.55h0a13.79,13.79,0,0,1,13.75,13.75v9.16a13.79,13.79,0,0,1-13.75,13.75h0a13.79,13.79,0,0,1-13.75-13.75V149.3A13.79,13.79,0,0,1,240.46,135.55Z" transform="translate(-15.28 -42.95)"/><path class="cls-18" d="M157.78,260.86s2.34-5.64,1.17-16.57-3.51-52.38-3-61.46c-6.71-4.59-37.54-4.59-44.24,0,.52,9.08-1.82,50.52-3,61.46s1.17,16.57,1.17,16.57C113.91,271.53,153.77,271.53,157.78,260.86Z" transform="translate(-15.28 -42.95)"/><path class="cls-17" d="M110,227.79c-.15,2.44-.31,4.76-.46,6.89,16,7.5,38.43-9.34,44.65-14,2-1.47,1.25-11.63,1.25-11.63s-8.76,8.38-26.39,13.26C118.93,225.12,113.22,226.84,110,227.79Z" transform="translate(-15.28 -42.95)"/><path class="cls-19" d="M148.52,151.32a.39.39,0,0,1,.42-.37.4.4,0,0,1,.37.42c0,.06-1.44,22.57,6.63,26.89a.4.4,0,1,1-.37.7C147,174.4,148.51,151.39,148.52,151.32Z" transform="translate(-15.28 -42.95)"/><path class="cls-4" d="M133.84,135.42h0a14.67,14.67,0,0,1,14.63,14.63v9.76a14.68,14.68,0,0,1-14.63,14.64h0a14.69,14.69,0,0,1-14.64-14.64v-9.76A14.68,14.68,0,0,1,133.84,135.42Z" transform="translate(-15.28 -42.95)"/><path class="cls-20" d="M113.36,152.62C114.52,176,110,177.57,104.84,189c-15.12,33.06,54.32,35.72,51.86,3.26-1.11-14.68-8.26-12.34-7-28.09.67-8.24,1.75-15.37-.19-20.79C143.84,127.46,112.2,129.27,113.36,152.62Z" transform="translate(-15.28 -42.95)"/><path class="cls-21" d="M160.08,167.56C150,170.13,139.23,185,134.79,200.07s-18.92,25.07-24.54,22.84c0,0-1.77.83-2.59,3.87s0,6.38,4.8,7.43,31.35-3.26,41.92-25.71,7.77-30.88,7.77-30.88Z" transform="translate(-15.28 -42.95)"/><path class="cls-22" d="M160,267l-4,2.7a10.82,10.82,0,0,0-.47,4.13c.31,1.58,7.53,8.79,26,8.79s25.72-7.21,26-8.79a11,11,0,0,0-.48-4.13l-4-2.7-21.55,4.36Z" transform="translate(-15.28 -42.95)"/><path class="cls-23" d="M208,267.82s2.08-5.69,1.59-16.74h0v0c-.05-1-.12-2.08-.21-3.18-.85-14-8.29-68.76,1-72.83-4.91-9-24.13-9.59-36.55-9.61-11.7,0-18.12,1.61-21.92,13.92-5.55,18,2.44,56.57,1.72,68.5q-.15,1.68-.21,3.21h0c-.5,11.06,1.58,16.75,1.58,16.75C159.47,281.23,203.59,281.23,208,267.82Z" transform="translate(-15.28 -42.95)"/><path class="cls-13" d="M261.2,227.65c2.39-.48,5.46,0,4.68,2.7a1.31,1.31,0,0,1,.1,1.81,1.66,1.66,0,0,1-.3,1.89s.26,1.5-.78,1.95a1.22,1.22,0,0,0-.73-1c-.67-.22-3-.19-3.91-.72s-3.55-4.92-1.67-6.18C258.77,228,261,227.71,261.2,227.65Z" transform="translate(-15.28 -42.95)"/><path class="cls-24" d="M199.79,404.09a4.05,4.05,0,0,1,.84,1.4c.65,1.87,2,2.72,2.16,4.77s-.53,3.66-3.14,3.66h-4.24c-1.87,0-5.95.46-5.87-1,0-.42.16-2,.11-2.36-.26-2,.47-3.82.25-4.91-.26-1.3,1.44-2.1,1.44-2.1s.91-.49,2.11.59a2.54,2.54,0,0,0,3.77-.21C198,402.81,199,403.38,199.79,404.09Z" transform="translate(-15.28 -42.95)"/><path class="cls-24" d="M163.2,404.09a4.05,4.05,0,0,0-.84,1.4c-.65,1.87-2,2.72-2.16,4.77s.53,3.66,3.15,3.66h4.24c1.87,0,5.95.46,5.87-1,0-.42-.17-2-.12-2.36.26-2-.47-3.82-.25-4.91.27-1.3-1.44-2.1-1.44-2.1s-.91-.49-2.11.59a2.54,2.54,0,0,1-3.77-.21C165,402.81,164,403.38,163.2,404.09Z" transform="translate(-15.28 -42.95)"/><rect class="cls-25" x="274.37" y="82.45" width="28" height="39.94" rx="14"/><rect class="cls-25" x="280.34" y="109.57" width="16.06" height="18.92"/><path class="cls-26" d="M290.29,153.58a4.22,4.22,0,1,0-4.22-4.22A4.23,4.23,0,0,0,290.29,153.58Z" transform="translate(-15.28 -42.95)"/><path class="cls-26" d="M317,153.58a4.22,4.22,0,1,0-4.22-4.22A4.24,4.24,0,0,0,317,153.58Z" transform="translate(-15.28 -42.95)"/><path class="cls-10" d="M305.58,125.11h0a15,15,0,0,0-15,15v7a15,15,0,0,0,15,15h0a15,15,0,0,0,15-15v-7A15,15,0,0,0,305.58,125.11Z" transform="translate(-15.28 -42.95)"/><path class="cls-27" d="M331.87,265.4a51.56,51.56,0,0,0,.9-13.42h0v0c0-1-.12-2-.22-3.07-.88-13.44-3.74-66.51,5.91-70.43,0,0-5.07-8.56-33.72-8.77h-2.21c-28.63.22-33.69,8.77-33.69,8.77,9.65,3.91,6.8,56.95,5.91,70.42-.1,1.07-.17,2.1-.22,3.09h0a49.22,49.22,0,0,0,1.18,14.56s2.21,6.34,23.55,6.58S330.15,268.71,331.87,265.4Z" transform="translate(-15.28 -42.95)"/><path class="cls-28" d="M331.71,231.76c-.12-3.62-.21-7.52-.24-11.49-.33-.67-.55-1.08-.55-1.08S286.63,229.63,275.58,232c-.07,2.2-.15,4.3-.24,6.26,2.71,1.06,9.6,3,27.57.09C318.28,235.83,327.33,233.5,331.71,231.76Z" transform="translate(-15.28 -42.95)"/><path class="cls-12" d="M322.59,403.72a4.25,4.25,0,0,1,.87,1.45c.68,1.94,2.1,2.82,2.24,4.95s-.54,3.8-3.26,3.8H318c-1.94,0-6.17.48-6.09-1,0-.44.17-2.06.12-2.45-.27-2.11.49-4,.26-5.09-.27-1.35,1.5-2.18,1.5-2.18s.94-.51,2.18.61a2.63,2.63,0,0,0,3.91-.21C320.76,402.4,321.8,403,322.59,403.72Z" transform="translate(-15.28 -42.95)"/><path class="cls-12" d="M284.64,403.72a4.25,4.25,0,0,0-.87,1.45c-.68,1.94-2.09,2.82-2.24,4.95s.55,3.8,3.26,3.8h4.4c1.94,0,6.17.48,6.09-1,0-.44-.17-2.06-.12-2.45.27-2.11-.49-4-.26-5.09.27-1.35-1.49-2.18-1.49-2.18s-1-.51-2.19.61a2.64,2.64,0,0,1-3.91-.21C286.47,402.4,285.43,403,284.64,403.72Z" transform="translate(-15.28 -42.95)"/><path class="cls-29" d="M320.39,149.43s1.88-11.46.43-16.19-4.07-4.55-4.07-4.55-2-8.91-12.67-8.42-14.19,1.57-17.22-1.58c0,0-1.21-.85-1.57.85S283,138.45,294.38,140,320.39,149.43,320.39,149.43Z" transform="translate(-15.28 -42.95)"/><path class="cls-30" d="M202.32,168.87s-7.49,27.17,4,42,35.13,23.46,52.9,23a1.38,1.38,0,0,0,1.52-1.17c.18-1.28.47-4.09-.11-4.91s-25.5-13-37-34.48S203.69,169.44,202.32,168.87Z" transform="translate(-15.28 -42.95)"/><path class="cls-31" d="M387.64,259a26.85,26.85,0,0,0,.43-13.45c-1.33-5.44-2.82-12.63-3.69-18.81-.68-4.72.1-11.34,1.09-17.89,2.6-17.27.19-24.2-10.3-25.44-12.29-1.45-29.5-.41-34.14,2.71,1.93,6.94-5.78,13.28-5.5,18.78.46,8.87,4.79,16,5.47,22.55.85,8.33-3.78,19.08-2.53,31.55a5.2,5.2,0,0,0,2.49,3.22c3,1.74,18.48,3.35,22.1,3.35s19.14-1.61,22.1-3.35A5.22,5.22,0,0,0,387.64,259Z" transform="translate(-15.28 -42.95)"/><path class="cls-32" d="M385.45,233.28c-.41-2.22-.78-4.44-1.07-6.53l-.06-.39a17.37,17.37,0,0,0-4.61-.91c-8.63-.71-33.24-7.85-42.21-10.51,1.07,3.44,2.29,6.62,3,9.66A39.15,39.15,0,0,0,371,235.83C378.82,235.33,383.16,234.17,385.45,233.28Z" transform="translate(-15.28 -42.95)"/><path class="cls-4" d="M363.06,142.13h0a14.62,14.62,0,0,1,14.58,14.57v9.72A14.62,14.62,0,0,1,363.06,181h0a14.62,14.62,0,0,1-14.58-14.58V156.7A14.62,14.62,0,0,1,363.06,142.13Z" transform="translate(-15.28 -42.95)"/><path class="cls-4" d="M381.11,223.35c2.64-.69,6-.34,5.19,2.68a1.44,1.44,0,0,1,.11,2,1.85,1.85,0,0,1-.34,2.11s.29,1.64-.87,2.2a1.24,1.24,0,0,0-.8-1.09c-.74-.2-3.33,0-4.33-.54s-3.93-5.21-1.85-6.73C378.42,223.84,380.83,223.43,381.11,223.35Z" transform="translate(-15.28 -42.95)"/><path class="cls-33" d="M348.57,156.36c.3,2.71.47,5,.53,7s-.23,4.34-.53,7.05c-2,17.8,23.5,19.18,28.8,7.07,1.63-3.74,1.33-8.57,1.13-14.12.2-5.55.5-10.38-1.13-14.12C372.07,137.18,346.6,138.56,348.57,156.36Z" transform="translate(-15.28 -42.95)"/><path class="cls-34" d="M221.71,139.37a.39.39,0,0,1,.55-.07.4.4,0,0,1,.07.56s-4.58,5.6-3.42,19.36c.12,1.47.22,2.57.31,3.62,1.05,11.55,1.62,17.85-5.32,31.41a.4.4,0,0,1-.53.17.39.39,0,0,1-.18-.53c6.84-13.36,6.28-19.58,5.25-31-.12-1.25-.24-2.56-.32-3.62C216.93,145.22,221.69,139.38,221.71,139.37Z" transform="translate(-15.28 -42.95)"/><path class="cls-33" d="M367.7,159.19a11.25,11.25,0,1,0-11.24-11.25A11.27,11.27,0,0,0,367.7,159.19Z" transform="translate(-15.28 -42.95)"/><path class="cls-35" d="M279.83,228.23c-2.64-.69-6.05-.34-5.19,2.68a1.44,1.44,0,0,0-.11,2,1.85,1.85,0,0,0,.34,2.11s-.29,1.64.87,2.2a1.24,1.24,0,0,1,.8-1.09c.74-.2,3.33,0,4.34-.54s3.92-5.22,1.84-6.73C282.52,228.72,280.11,228.31,279.83,228.23Z" transform="translate(-15.28 -42.95)"/><path class="cls-2" d="M349.77,406.89l-6-70.46s-.15-2.7,1.36-3.06,11.13-.06,11.13-.06,1.43.08,1.54,2.53-2,69.37-2,69.37l-5,3Z" transform="translate(-15.28 -42.95)"/><path class="cls-2" d="M378.48,407l4.75-70.55s.15-2.7-1.36-3.06-11.14-.06-11.14-.06-1.42.08-1.53,2.53,2.71,69.58,2.71,69.58l4.78,2.75Z" transform="translate(-15.28 -42.95)"/><path class="cls-36" d="M379.69,405.34a3.36,3.36,0,0,1,.73,1.22c.57,1.64,1.77,2.38,1.89,4.17s-.46,3.2-2.75,3.2h-3.7c-1.64,0-5.2.4-5.14-.86,0-.37.15-1.73.11-2.06-.23-1.78.41-3.34.21-4.3-.23-1.13,1.26-1.83,1.26-1.83s.8-.43,1.85.51a2.21,2.21,0,0,0,3.29-.17C378.15,404.22,379,404.72,379.69,405.34Z" transform="translate(-15.28 -42.95)"/><path class="cls-36" d="M347.94,405.34a3.53,3.53,0,0,0-.74,1.22c-.56,1.64-1.76,2.38-1.88,4.17s.46,3.2,2.75,3.2h3.7c1.64,0,5.2.4,5.13-.86,0-.37-.14-1.73-.1-2.06.23-1.78-.41-3.34-.22-4.3.24-1.13-1.25-1.83-1.25-1.83s-.8-.43-1.85.51a2.21,2.21,0,0,1-3.29-.17C349.48,404.22,348.6,404.72,347.94,405.34Z" transform="translate(-15.28 -42.95)"/><path class="cls-37" d="M224.81,203.2l5.8-24.42s-41.26,5.85-65-15.71c0,0-4.06-.23-5.48,5.1C166.26,179.24,203.67,201.55,224.81,203.2Z" transform="translate(-15.28 -42.95)"/><path class="cls-38" d="M262.63,206l-4.45-8.86s13.61-16.06,26.4-16.86c13.48-.84,25.67-2.34,38.06-13.15,0,0,4.07-.14,5.37,5.22C321.68,183.23,283.81,204.76,262.63,206Z" transform="translate(-15.28 -42.95)"/><path class="cls-34" d="M261.61,172.74a.41.41,0,0,1,.12-.55.39.39,0,0,1,.55.12s7.08,10.86,6.38,23.27a20.64,20.64,0,0,1-.24,2.19,27.38,27.38,0,0,1-8.63,15.72,25.87,25.87,0,0,1-19.18,6.64c-1-.06-2-.17-3-.33a.39.39,0,0,1-.33-.45.38.38,0,0,1,.45-.33c1,.15,2,.26,3,.31a25.05,25.05,0,0,0,18.61-6.43,26.49,26.49,0,0,0,8.38-15.25c.11-.7.18-1.41.22-2.11C268.56,183.39,261.63,172.77,261.61,172.74Z" transform="translate(-15.28 -42.95)"/><path class="cls-34" d="M248.21,137.29s-3.37-8.74-12.78-8.52-18.61,9.19-16.15,26,3.14,23.76-3.81,34.52-8.29,30.94,21.3,30.94,34.08-28.92,27.58-43.72S271.52,134.82,248.21,137.29Z" transform="translate(-15.28 -42.95)"/><path class="cls-39" d="M183.59,115.08h3.56a14,14,0,0,1,14,14h0a14,14,0,0,1-14,14h-3.56a14,14,0,0,1-14-14h0A14,14,0,0,1,183.59,115.08Z" transform="translate(-15.28 -42.95)"/><path class="cls-4" d="M216.4,182.69l-.76-.23a32,32,0,0,0-3.9-3.11l-.72,0a2.38,2.38,0,0,1,.21-2.05c1.37-1.81,4.33-1.2,5.69-.69a3.86,3.86,0,0,1,2.52,2.59C220.31,179.48,216.4,182.69,216.4,182.69Z" transform="translate(-15.28 -42.95)"/><path class="cls-40" d="M287.81,170.72c-14.4.12-49.43,10.43-68.71,8.06a5.52,5.52,0,0,0-3.86,3.74c9.79,15.62,38.49,15.68,51.44,6.36,4.07-2.94,12.53-8.73,17.58-11.63C283.42,173.55,287.81,170.72,287.81,170.72Z" transform="translate(-15.28 -42.95)"/><path class="cls-41" d="M341.94,185.62c-2.25,18.26-44.7,40.76-62,42.35a12.64,12.64,0,0,0,.7,8.89c2.22,4.21,52.93-1.67,70.47-22.72C351.14,214.14,355.1,190.36,341.94,185.62Z" transform="translate(-15.28 -42.95)"/><path class="cls-42" d="M338.46,178.46c9.82,8.18,17.85,43.83,43.1,44.76a10.32,10.32,0,0,1,1.13,8.53c-31.37,7.22-46.06-15.44-56.2-33C321.69,190.38,330.23,174.34,338.46,178.46Z" transform="translate(-15.28 -42.95)"/><rect class="cls-43" x="144.59" y="368.21" width="13.8" height="2.83" rx="0.5"/><rect class="cls-43" x="173.99" y="368.21" width="13.8" height="2.83" rx="0.5"/><rect class="cls-43" x="266.22" y="368.21" width="13.8" height="2.83" rx="0.5"/><rect class="cls-43" x="296.66" y="368.21" width="13.8" height="2.83" rx="0.5"/><rect class="cls-43" x="329.68" y="368.21" width="12.28" height="2.83" rx="0.5"/><rect class="cls-43" x="355.11" y="368.21" width="12.28" height="2.83" rx="0.5"/><path class="cls-44" d="M114.71,146.69a.4.4,0,0,1,.54.58c-1.54,1.42-1.71,5.09-1.92,9.79-.22,5-.5,11.23-2.61,17.29a85.76,85.76,0,0,1-3.58,8.36c-3,6.32-5.65,12-3,16.45a.4.4,0,0,1-.69.4c-2.81-4.82-.06-10.67,3-17.19a82.47,82.47,0,0,0,3.55-8.28c2.07-6,2.35-12.08,2.57-17.07S112.93,148.34,114.71,146.69Z" transform="translate(-15.28 -42.95)"/><path class="cls-10" d="M193.76,141a.4.4,0,1,1-.13-.78s9-1.47,8.44-14.21a.4.4,0,1,1,.79,0C203.46,139.39,193.79,141,193.76,141Z" transform="translate(-15.28 -42.95)"/><path class="cls-10" d="M293.12,139a.4.4,0,0,1,.34.45.4.4,0,0,1-.45.34l-.23,0c-1.48-.1-7-.51-8.93-10.11a.4.4,0,0,1,.31-.47.39.39,0,0,1,.47.31c1.84,9,6.86,9.38,8.21,9.48h0Z" transform="translate(-15.28 -42.95)"/><path class="cls-45" d="M377.25,164.13A.39.39,0,0,1,378,164s1.86,8.45.65,14.2a6.33,6.33,0,0,1-1.06,2.33,14.48,14.48,0,0,1-6.62,4.74,16.08,16.08,0,0,1-8.86.9,10.2,10.2,0,0,1-3.78-1.59.4.4,0,0,1-.09-.55.39.39,0,0,1,.55-.1,9.43,9.43,0,0,0,3.48,1.47,15.29,15.29,0,0,0,8.42-.88A13.61,13.61,0,0,0,377,180a5.38,5.38,0,0,0,.93-2C379.07,172.42,377.25,164.15,377.25,164.13Z" transform="translate(-15.28 -42.95)"/><path class="cls-45" d="M374.29,140a.4.4,0,0,1,.39-.69,10.41,10.41,0,0,1,5.65,8.81,11.1,11.1,0,0,1-.93,4.83,10.87,10.87,0,0,1-2.89,3.95,10.11,10.11,0,0,1-10,1.78.4.4,0,0,1-.26-.5.39.39,0,0,1,.5-.25,9.36,9.36,0,0,0,9.28-1.63,10.32,10.32,0,0,0,3.54-8.15A9.64,9.64,0,0,0,374.29,140Z" transform="translate(-15.28 -42.95)"/><path class="cls-2" d="M61.3,413.5H459.67a7.89,7.89,0,0,1,7.87,7.86h0a7.89,7.89,0,0,1-7.87,7.87H405.81a6.56,6.56,0,0,0-6.55,6.54h0a6.56,6.56,0,0,0,6.55,6.55h6a7.4,7.4,0,0,1,7.37,7.37h0a7.39,7.39,0,0,1-7.37,7.36H79a7.39,7.39,0,0,1-7.37-7.36h0A7.4,7.4,0,0,1,79,442.32h29a6.56,6.56,0,0,0,6.54-6.55h0a6.56,6.56,0,0,0-6.54-6.54H61.3a7.89,7.89,0,0,1-7.87-7.87h0a7.89,7.89,0,0,1,7.87-7.86Zm371.52,28.82h-.71a7.39,7.39,0,0,0-7.36,7.37h0a7.38,7.38,0,0,0,7.36,7.36h.71a7.38,7.38,0,0,0,7.36-7.36h0A7.39,7.39,0,0,0,432.82,442.32Z" transform="translate(-15.28 -42.95)"/><path class="cls-12" d="M224.57,403a4.25,4.25,0,0,0-.87,1.45c-.67,1.94-2.09,2.82-2.24,5s.55,3.79,3.26,3.79h4.4c1.94,0,6.17.48,6.09-1,0-.43-.17-2.05-.12-2.44.27-2.11-.49-4-.26-5.1.28-1.34-1.49-2.17-1.49-2.17s-1-.52-2.19.61a2.63,2.63,0,0,1-3.91-.22C226.4,401.68,225.36,402.27,224.57,403Z" transform="translate(-15.28 -42.95)"/><rect class="cls-43" x="206.15" y="367.5" width="13.8" height="2.83" rx="0.5"/><path class="cls-12" d="M256.82,403a4.25,4.25,0,0,1,.87,1.45c.68,1.94,2.1,2.82,2.24,5s-.54,3.79-3.26,3.79h-4.4c-1.94,0-6.17.48-6.08-1,0-.43.16-2.05.11-2.44-.27-2.11.49-4,.26-5.1-.27-1.34,1.5-2.17,1.5-2.17s.94-.52,2.18.61a2.63,2.63,0,0,0,3.91-.22C255,401.68,256,402.27,256.82,403Z" transform="translate(-15.28 -42.95)"/><rect class="cls-43" x="230.89" y="367.5" width="13.8" height="2.83" rx="0.5"/><path class="cls-46" d="M141.72,392.31c-.16,1.47-.43,4-.43,5,0,2.92-1.12,7.75,0,9.08,2.44,2.9,8.48,1.41,10.33,2.13l-.35-1.3s-1.36-.53-2.4-5.74a50.43,50.43,0,0,1-1.07-6.62l.2-2v-.05a1,1,0,0,1-1.19.33,7.82,7.82,0,0,0-4-.21C141.84,393.16,141.71,392.63,141.72,392.31Z" transform="translate(-15.28 -42.95)"/><path class="cls-46" d="M126,392.31c.16,1.47.42,4,.42,5,0,2.88,1.12,9.35,0,10.68-2.44,2.92-8.45-.2-10.32.53l.34-1.3s1.36-.53,2.41-5.74a50,50,0,0,0,1.06-6.62l-.19-2v-.05a1,1,0,0,0,1.19.33,7.84,7.84,0,0,1,4-.21C125.84,393.16,126,392.63,126,392.31Z" transform="translate(-15.28 -42.95)"/><path class="cls-47" d="M117.71,403.23a4.25,4.25,0,0,0-.87,1.45c-.67,1.94-2.09,2.82-2.24,4.95s.55,3.8,3.26,3.8h4.4c1.94,0,6.17.48,6.09-1,0-.44-.17-2.06-.12-2.45.27-2.11-.49-4-.26-5.09.28-1.34-1.49-2.18-1.49-2.18s-1-.51-2.19.61a2.64,2.64,0,0,1-3.91-.21C119.54,401.91,118.5,402.5,117.71,403.23Z" transform="translate(-15.28 -42.95)"/><rect class="cls-43" x="99.29" y="367.73" width="13.8" height="2.83" rx="0.5"/><path class="cls-47" d="M150,403.23a4.25,4.25,0,0,1,.87,1.45c.68,1.94,2.1,2.82,2.24,4.95s-.54,3.8-3.26,3.8h-4.4c-1.94,0-6.17.48-6.08-1,0-.44.16-2.06.11-2.45-.27-2.11.49-4,.26-5.09-.27-1.34,1.5-2.18,1.5-2.18s.94-.51,2.18.61a2.63,2.63,0,0,0,3.91-.21C148.14,401.91,149.18,402.5,150,403.23Z" transform="translate(-15.28 -42.95)"/><rect class="cls-43" x="124.03" y="367.73" width="13.8" height="2.83" rx="0.5"/></svg>