<?xml version="1.0" encoding="utf-8"?>
<!-- Generator: Adobe Illustrator 25.2.0, SVG Export Plug-In . SVG Version: 6.00 Build 0)  -->
<svg version="1.1" id="OBJECTS" xmlns="http://www.w3.org/2000/svg" xmlns:xlink="http://www.w3.org/1999/xlink" x="0px" y="0px"
	 viewBox="0 0 140 175" style="enable-background:new 0 0 140 175;" xml:space="preserve">
<style type="text/css">
	.st0{fill:none;stroke:#8DDFFF;stroke-width:0.75;stroke-linecap:round;stroke-linejoin:round;}
	.st1{fill:#F797DE;}
	.st2{fill:none;stroke:#D7D4FC;stroke-miterlimit:10;}
	.st3{fill:none;stroke:#C1C0FF;stroke-miterlimit:10;stroke-dasharray:4;}
	.st4{fill:#270F48;}
	.st5{fill:#9956E0;}
</style>
<line class="st0" x1="18.2" y1="150.7" x2="18.2" y2="159.7"/>
<line class="st0" x1="13.7" y1="155.2" x2="22.7" y2="155.2"/>
<circle class="st0" cx="116.1" cy="35.4" r="3.1"/>
<polygon class="st1" points="39.6,118.4 42.4,123.3 45.2,128.2 39.6,128.2 33.9,128.2 36.7,123.3 "/>
<circle class="st2" cx="22.7" cy="8.9" r="4.7"/>
<ellipse class="st3" cx="66.3" cy="104.8" rx="55.3" ry="54.1"/>
<path class="st4" d="M70,115.6l37.8-18.4L70,4.4L32.2,97.2L70,115.6z M72.6,24.3l26.7,65.5L72.6,76.8V24.3z M99.4,95.6L70,109.9
	L40.6,95.6L70,81.2L99.4,95.6z M67.4,24.3v52.5L40.7,89.7L67.4,24.3z"/>
<polygon class="st5" points="70,109.9 99.4,95.6 70,81.2 40.6,95.6 "/>
</svg>
