<svg id="Layer_1" data-name="Layer 1" xmlns="http://www.w3.org/2000/svg" xmlns:xlink="http://www.w3.org/1999/xlink" viewBox="0 0 2249.99 1058.47"><defs><linearGradient id="linear-gradient" x1="181.3" y1="1069" x2="182.39" y2="1069" gradientTransform="matrix(317.11, 0, 0, -290.06, -56521.82, 310974.51)" gradientUnits="userSpaceOnUse"><stop offset="0" stop-color="#0df"/><stop offset="1" stop-color="#ff00d4"/></linearGradient><linearGradient id="linear-gradient-2" x1="181.19" y1="1069" x2="182.29" y2="1069" gradientTransform="matrix(317.11, 0, 0, -290.06, -56883.02, 310974.51)" xlink:href="#linear-gradient"/><linearGradient id="linear-gradient-3" x1="181.41" y1="1069" x2="182.5" y2="1069" gradientTransform="matrix(317.2, 0, 0, -290.07, -56176.92, 310982.66)" xlink:href="#linear-gradient"/></defs><path d="M38.71,147.19a19.29,19.29,0,0,1-14.09-6,19.35,19.35,0,0,1-6-14.08v-107A19.31,19.31,0,0,1,24.61,6a19.32,19.32,0,0,1,14.1-6h43.7A19,19,0,0,1,96.79,6a19.75,19.75,0,0,1,5.75,14.08v107a19.75,19.75,0,0,1-5.75,14.08,19,19,0,0,1-14.38,6ZM350.94,0A19.28,19.28,0,0,1,365,6a19.27,19.27,0,0,1,6,14.08V406.5a20.61,20.61,0,0,1-20.12,20.12h-43.7a19.05,19.05,0,0,1-14.38-6,19.86,19.86,0,0,1-5.75-14.09V254.71H102.54V406.5a19.78,19.78,0,0,1-5.75,14.09,19.05,19.05,0,0,1-14.38,6H38.71a19.33,19.33,0,0,1-14.09-6,19.37,19.37,0,0,1-6-14.09v-215a19.35,19.35,0,0,1,6-14.08,19.29,19.29,0,0,1,14.09-6h248.4V20.12A19.83,19.83,0,0,1,292.86,6a19,19,0,0,1,14.38-6ZM801.17,0A20.66,20.66,0,0,1,811.8,2.87,17.55,17.55,0,0,1,819,10.64a21.88,21.88,0,0,1,2,10.63,21.1,21.1,0,0,1-3.17,10.35L661.44,257V401.9A20.63,20.63,0,0,1,641.32,422H598.19a20.62,20.62,0,0,1-20.12-20.12V257l-157-225.39a21.2,21.2,0,0,1-3.16-10.35,22,22,0,0,1,2-10.63,17.55,17.55,0,0,1,7.19-7.77A20.72,20.72,0,0,1,437.76,0h52.33q9.78,0,16.67,8.62L619.47,170.76,732.17,8.62Q739.07,0,748.84,0Zm367.44,204.11q28.74,19,43.12,52.32,7.47,19,7.48,45.43,0,40.81-22.14,69.28t-64.69,41.68q-25.86,9.21-63.25,9.2H888a20.63,20.63,0,0,1-20.12-20.12V20.12a19.29,19.29,0,0,1,6-14.08A19.27,19.27,0,0,1,888,0H1059.3q70.15,0,108.11,39.67,32.21,32.17,32.2,81,0,52.9-31,83.37Zm-99.48,46H951.24V341h122.48q33.36,0,48.88-12.07,13.8-11.51,13.8-31.05T1122,265.68q-17.25-15.52-52.9-15.52Zm43.12-104.64a40.51,40.51,0,0,0,4-18.4q0-12.66-2.87-19a26,26,0,0,0-7.48-12.65q-14.37-14.37-42-14.37H951.24v89.69h108.1q40.83,0,52.91-25.29Zm447.93,113.84L1645.85,391a21,21,0,0,1,3.16,10.35,18.68,18.68,0,0,1-2.3,10.35,19.94,19.94,0,0,1-7.47,7.48,19.64,19.64,0,0,1-10.07,2.87h-51.75a19.61,19.61,0,0,1-9.77-2.58,17.7,17.7,0,0,1-6.9-6.62L1474.5,275.44H1372.72V401.9a20.62,20.62,0,0,1-20.11,20.1h-43.13a20.62,20.62,0,0,1-20.12-20.12V20.12a19.35,19.35,0,0,1,6-14.08,19.29,19.29,0,0,1,14.09-6H1492.3q66.14,0,107.24,37.66t41.11,102.06q0,41.38-18.11,71t-53.19,44.56q-2.28,1.15-7.47,3.45l-1.73.58ZM1372.72,81.07V194.34h112.13q49.47,0,67.27-28.18,5.76-10.35,5.75-26.44,0-27-17.82-42.55-19.54-16.1-52.9-16.1ZM1778.72,0a19.25,19.25,0,0,1,14.08,6,19.25,19.25,0,0,1,6,14.08V401.9a20.63,20.63,0,0,1-20.12,20.1h-43.13a20.62,20.62,0,0,1-20.12-20.12V20.12a19.35,19.35,0,0,1,6-14.08,19.29,19.29,0,0,1,14.09-6Zm367.42,14.37a189.35,189.35,0,0,1,62.68,42.55q59.79,60.94,59.79,154.08t-59.8,154.09A188,188,0,0,1,2073.08,422h-161A20.63,20.63,0,0,1,1892,401.88V20.12A19.29,19.29,0,0,1,1898,6,19.29,19.29,0,0,1,1912,0h161a193.74,193.74,0,0,1,73,14.37Zm-170.77,66.7V341h96q50.61,0,82.23-37.08T2185.2,211q0-55.77-31.62-92.86t-82.23-37.08Z" transform="translate(-18.62 0.01)" style="fill:#111"/><path d="M65.34,584.63c10.43,2.62,17.42,9.8,17.42,22.09,0,14.17-9.61,24.1-25.47,24.1H22.61V542.56H49.68c16.29,0,26.59,9.49,26.59,23.47,0,8.36-3.81,15.23-10.93,18.6Zm-.68-17.79c0-7.62-5.5-13.54-15-13.54h-15v27.46H51.55c8,0,13.11-6.24,13.11-13.92Zm-9.49,53c10,0,15.48-6.74,15.48-14.41,0-8.12-5.68-14.61-16.23-14.61H34.61v29ZM162.45,632C144.16,632,130,621.2,130,601.29V542.56h12.43v57c0,14.54,8.73,21.22,20,21.22s20.23-6.74,20.23-21.22v-57h12.42v58.73c0,19.91-14.23,30.71-32.65,30.71Zm86.69-1.18V542.56h12.47v88.26Zm80.75-11.24H360v11.24H317.47V542.56h12.42v77Zm76,11.24V542.56H435c27.15,0,40.95,18.22,40.95,44.06,0,26-13.79,44.19-40.95,44.19H405.89Zm12.43-11.24h16.16c19.29,0,28.47-12.79,28.47-33s-9.18-32.9-28.47-32.9H418.33v65.9ZM526,630.82V542.56h12.44v88.26Zm127.82-88.26h12.36v88.26H652.74l-46.13-70v70H594.32V542.56h13.29l46.19,69.71V542.56ZM759.61,632c-24.72,0-43.69-16.91-43.69-45.06,0-28.4,19.1-45.56,44.13-45.56,16.23,0,30.15,7.11,37.76,20.59l-11,5.87c-5.55-10.36-15.48-15.17-26.77-15.17-17.86,0-31.65,12.11-31.65,34,0,21.59,13.48,34.14,32.08,34.14,15,0,26.72-8.43,28.78-25.15H760.4V585.32h40.89v45.5H791.17V615c-5.8,10.8-16.72,17-31.58,17Zm198.28-47.37c10.42,2.62,17.41,9.8,17.41,22.09,0,14.17-9.61,24.1-25.47,24.1H915.11V542.56H942.2c16.29,0,26.59,9.49,26.59,23.47,0,8.36-3.81,15.23-10.92,18.6Zm-.69-17.79c0-7.62-5.49-13.54-15-13.54h-15v27.46h16.91c8,0,13.11-6.24,13.11-13.92Zm-9.49,53c10,0,15.48-6.74,15.48-14.41,0-8.12-5.68-14.61-16.23-14.61h-19.8v29Zm124.64-66.16H1037v27.46h31.15V592.3H1037v27.28h35.33v11.23h-48V542.56h48v11.12Zm97-11.17v11.17H1147v77.09h-12.3v-77H1112.3V542.56Zm92.81,0v11.17h-22.35v77.09h-12.3v-77h-22.4V542.56Zm93.8,11.17h-35.35v27.46h31.15V592.3h-31.15v27.28h35.33v11.23h-48V542.56h48v11.17Zm97.65,77.14-22.85-39.7h-12.35v39.7H1406V542.56h29.71c18.48,0,26.91,11.3,26.91,25.15,0,12.3-7.24,20.85-19.35,22.91l24.9,40.19h-14.54Zm-35.2-77.52v28.33H1434c11.49,0,16.67-5.74,16.67-14.1S1445.5,553.3,1434,553.3ZM1615.1,632c-24.72,0-43.7-16.91-43.7-45.06,0-28.4,19.11-45.56,44.14-45.56,16.22,0,30.14,7.11,37.76,20.59l-11,5.87c-5.55-10.36-15.48-15.17-26.78-15.17-17.85,0-31.64,12.11-31.64,34,0,21.59,13.48,34.14,32.08,34.14,15,0,26.72-8.43,28.78-25.15h-28.83V585.32h40.88v45.5h-10.11V615c-5.8,10.8-16.73,17-31.58,17Zm150.41-1.18-7.36-20.6H1718.7l-7.37,20.6h-12.92l32.52-88.26h15l32.52,88.26Zm-42.9-31.46h31.71l-15.86-44.5ZM1919,630.82h-12.17L1901,559l-27.28,71.78h-7.55l-27.09-71.53-5.93,71.53h-12.23l6.8-88.26h16.79l25.41,66.72,25.53-66.72h16.79l6.74,88.26Zm100.48-77.09h-35.33v27.46h31.15V592.3h-31.15v27.28h35.33v11.23h-48V542.56h48Zm97.67,77.09-22.85-39.7H2082v39.7h-12.47V542.56h29.72c18.47,0,26.9,11.3,26.9,25.15,0,12.3-7.24,20.85-19.35,22.91l24.9,40.19h-14.5ZM2082,553.3v28.33h15.61c11.49,0,16.67-5.74,16.67-14.1s-5.19-14.23-16.67-14.23ZM2206.45,632c-18.42,0-31.9-8.8-34.9-23.78l12.67-3c2,10.29,10.93,16.22,22.66,16.22,9.43,0,18.48-3.87,18.29-14.48s-11.48-13.35-23.53-16.66c-13.67-3.75-27.34-8-27.34-24.28s13.54-24.65,29.59-24.65c15.54,0,29.52,6.55,32.83,21.72l-12,3c-2.18-9.79-10.36-14.16-20.22-14.16-8.87,0-17.67,3.87-17.67,13.91,0,9.12,9.87,11.8,21,14.8,14,3.8,30.15,8.17,30.15,25.9s-15,25.4-31.52,25.4Z" transform="translate(-18.62 0.01)"/><g id="SvgjsG4078"><path d="M1288.28,773.22h-32.69v-32.5h-63.7v32.21h0v.58h-32.21v32.2h0v0h-32.21V773.5h-32.23v-.56h0V740.72h-63.69v32.21h0l-.47.27H998.85v32.21h-29v93.11h29v32.22H1031V931h0V963.2h32v32h32.22v32.07h32.22v31.2h32.22v-31.2h32.22V995.18h32.21v-32h32V930.76h32.2V898.54h29V805.42h-29v-32.2ZM1191.9,995.06h-.05l0,0v0ZM1223.84,963h0Z" transform="translate(-18.62 0.01)" style="fill:url(#linear-gradient)"/><path d="M893.4,773.22H860.71v-32.5H797v32.21h0v.58H764.8v32.2h0v0H732.58V773.5H700.35v-.56h0V740.72h-63.7v32.21h0l-.46.27H604v32.21H575v93.11h29v32.22h32.19V931h0V963.2h32v32h32.22v32.07h32.22v31.2H764.8v-31.2H797V995.18h32.21v-32h32V930.76h32.2V898.54h29V805.42h-29v-32.2ZM797,995.06h0l0,0v0ZM829,963h0Z" transform="translate(-18.62 0.01)" style="fill:url(#linear-gradient-2)"/><path d="M1712.17,805.18H1683.5v-31.7h-32.1V741.31h-64.89v32.2h-32v32.2h0v0h-32.21V773.5h-32.22V740.72h-63.69v32.21h0l-.46.27h-32.22v32.21h-29v93.11h29v32.22h32.22l0,.22h0V963.2h32v32h32.21v32.07h32.23v31.2h32.22v-31.2h32.22V995.19h32.22v-32h32v-32h32.37V898.81h28.88V805.18ZM1458.09,963h0Zm32,32.09v0h0Zm32.23,31.19h0Zm32.21,0h0Zm64.2-95.25v32h-32v32.09H1554.5v0h0V805.73h32.21v-32h64.36v32.16h32v92.49H1650.5V931Z" transform="translate(-18.62 0.01)" style="fill:url(#linear-gradient-3)"/></g></svg>