<svg id="Layer_1" data-name="Layer 1" xmlns="http://www.w3.org/2000/svg" xmlns:xlink="http://www.w3.org/1999/xlink" viewBox="0 0 2749.54 415.59"><defs><style>.cls-1{fill:url(#linear-gradient);}</style><linearGradient id="linear-gradient" x1="267.8" y1="1125.25" x2="269.23" y2="1125.25" gradientTransform="matrix(317.2, 0, 0, -290.07, -84933.99, 326628.19)" gradientUnits="userSpaceOnUse"><stop offset="0" stop-color="#0df"/><stop offset="1" stop-color="#ff00d4"/></linearGradient></defs><g id="SvgjsG4078"><path class="cls-1" d="M465.94,105.38H428.43V63.92h-42V21.85H301.58V64H259.71v42.12h0v0H217.57V64H175.42V21.07H92.13V63.2h0l-.61.36H49.37V105.7H11.47V227.5h37.9v0l0,0h0v42.14H91.51l-.05.28h0l0,0v42.13h41.82V353.9h42.13v42h42.15v40.82h42.14V395.85h42.14v-42H344V312.07h41.82V270.16h42.34V227.85h37.77V105.38ZM133.61,311.76h0Zm41.81,42v0h0Zm42.15,40.81v0l0,0Zm42.13,0v0Zm84-124.58v41.8H301.86v42H259.71v0h0V106.1h42.14V64.25H386v42.07h41.79v121H385.27V270h-41.6Z" transform="translate(-11.47 -21.07)"/></g><g id="SvgjsG4080"><path d="M590.78,164.69a20.1,20.1,0,0,1-19.59-19.59V41a18.79,18.79,0,0,1,5.88-13.71,18.76,18.76,0,0,1,13.71-5.88h42.53a18.51,18.51,0,0,1,14,5.88A19.27,19.27,0,0,1,652.9,41V145.1a19.27,19.27,0,0,1-5.6,13.71,18.51,18.51,0,0,1-14,5.88ZM894.66,21.42a18.79,18.79,0,0,1,13.71,5.88A18.82,18.82,0,0,1,914.24,41V417.08a20.08,20.08,0,0,1-19.58,19.59H852.12a18.52,18.52,0,0,1-14-5.88,19.26,19.26,0,0,1-5.59-13.71V269.34H652.9V417.08a19.27,19.27,0,0,1-5.6,13.71,18.51,18.51,0,0,1-14,5.88H590.78a20.1,20.1,0,0,1-19.59-19.59V207.78a20.1,20.1,0,0,1,19.59-19.59H832.54V41a19.26,19.26,0,0,1,5.59-13.71,18.52,18.52,0,0,1,14-5.88Zm438.18,0a20,20,0,0,1,10.36,2.8,17,17,0,0,1,7,7.56,21.4,21.4,0,0,1,2,10.35,20.58,20.58,0,0,1-3.08,10.07L1196.85,271.58v141a20.08,20.08,0,0,1-19.58,19.59h-42a20.08,20.08,0,0,1-19.59-19.59v-141L962.93,52.2a20.58,20.58,0,0,1-3.08-10.07,21.52,21.52,0,0,1,2-10.35,17.06,17.06,0,0,1,7-7.56,20,20,0,0,1,10.35-2.8h50.93q9.51,0,16.22,8.4L1156,187.63,1265.69,29.82q6.72-8.4,16.23-8.4Zm357.61,198.67q28,18.47,42,50.93,7.27,18.47,7.27,44.21,0,39.74-21.54,67.43t-63,40.57q-25.18,9-61.56,9H1417.35a20.1,20.1,0,0,1-19.59-19.59V41a18.79,18.79,0,0,1,5.88-13.71,18.76,18.76,0,0,1,13.71-5.88h166.77q68.27,0,105.21,38.62,31.34,31.34,31.34,78.9,0,51.5-30.22,81.15Zm-96.82,44.77H1478.91v88.42h119.2q32.46,0,47.57-11.75,13.42-11.19,13.43-30.22t-14-31.34q-16.8-15.11-51.49-15.11Zm42-101.85a39.55,39.55,0,0,0,3.92-17.91q0-12.32-2.8-18.47a25.31,25.31,0,0,0-7.27-12.31q-14-14-40.86-14H1478.91v87.3h105.21q39.74,0,51.48-24.62Zm436,110.8L2154.94,402A20.57,20.57,0,0,1,2158,412a18.25,18.25,0,0,1-2.23,10.08,19.46,19.46,0,0,1-7.28,7.27,19,19,0,0,1-9.79,2.8h-50.37a19.07,19.07,0,0,1-9.51-2.52,17.13,17.13,0,0,1-6.72-6.44l-83.94-133.75h-99.06V412.6a20.08,20.08,0,0,1-19.58,19.59h-42A20.08,20.08,0,0,1,1808,412.6V41a18.82,18.82,0,0,1,5.87-13.71,18.79,18.79,0,0,1,13.71-5.88h178q64.35,0,104.37,36.66t40,99.33q0,40.29-17.63,69.12t-51.76,43.37c-1.5.74-3.92,1.86-7.28,3.35ZM1889.11,100.33V210.58h109.13q48.13,0,65.48-27.43,5.59-10.07,5.59-25.74,0-26.29-17.34-41.41-19-15.68-51.49-15.67Zm395.1-78.91a18.79,18.79,0,0,1,13.71,5.88A18.79,18.79,0,0,1,2303.8,41V412.6a20.1,20.1,0,0,1-19.59,19.59h-42a20.1,20.1,0,0,1-19.59-19.59V41a18.79,18.79,0,0,1,5.88-13.71,18.79,18.79,0,0,1,13.71-5.88Zm357.6,14a184.21,184.21,0,0,1,61,41.42q58.2,59.31,58.2,150t-58.2,150a183,183,0,0,1-132.07,55.4H2414a20.08,20.08,0,0,1-19.58-19.59V41a18.82,18.82,0,0,1,5.87-13.71A18.79,18.79,0,0,1,2414,21.42h156.7a188.58,188.58,0,0,1,71.07,14ZM2475.6,100.33v253h93.46q49.24,0,80-36.09t30.78-90.38q0-54.28-30.78-90.38t-80-36.1Z" transform="translate(-11.47 -21.07)"/></g></svg>